<?xml version="1.0" encoding="utf-8"?>
<!-- Generator: Adobe Illustrator 27.2.0, SVG Export Plug-In . SVG Version: 6.00 Build 0)  -->
<svg version="1.1" id="Layer_1" xmlns="http://www.w3.org/2000/svg" xmlns:xlink="http://www.w3.org/1999/xlink" x="0px" y="0px"
	 viewBox="0 0 87 79" style="enable-background:new 0 0 87 79;" xml:space="preserve">
<style type="text/css">
	.st0{fill:#CA3322;}
</style>
<path class="st0" d="M43.6,47.3c-0.1,0-0.3,0-0.3-0.2c0-0.7,0.1-1.5,0.1-1.5c-0.7,0.9-0.8,0.8-1.8,0.9c0,0,0,0,0,0
	c-0.2-0.8-0.2-0.9,0.1-1.5c-1,0.6-0.9,0.5-2.5,0.5c-0.1,0-0.1,0-0.1-0.1c-0.1-0.6,0.1-1.5,0.3-1.8c-0.2,0-0.8,0.2-1.4-0.9
	c-0.7-1.3-0.9-1.7-1-2.2c0-0.1,0-0.2,0.1-0.2c0.6-0.1,1.5-0.5,2.4-0.6c0.9-0.1,1.4,0.4,1.4,0.4c0.2-3.2,2-2.9,2.7-4.3
	c0-0.1,0.2-0.1,0.3,0c0.7,1.4,2.5,1,2.7,4.3c0,0,0.4-0.5,1.4-0.4c0.9,0.1,1.9,0.5,2.4,0.6c0.1,0,0.1,0.1,0.1,0.2
	c-0.1,0.5-0.3,0.8-1,2.2c-0.6,1.2-1.2,0.9-1.4,0.9c0.2,0.3,0.4,1.2,0.3,1.8c0,0.1-0.1,0.1-0.1,0.1c-1.6,0-1.5,0.1-2.5-0.5
	c0.3,0.6,0.3,0.7,0.1,1.4c0,0.1-0.1,0.1-0.1,0.1c-1,0-1.1,0-1.8-0.8c0,0,0.1,0.8,0.1,1.5C44,47.3,43.8,47.3,43.6,47.3"/>
</svg>
