<?xml version="1.0" encoding="utf-8"?>
<!-- Generator: Adobe Illustrator 27.2.0, SVG Export Plug-In . SVG Version: 6.00 Build 0)  -->
<svg version="1.1" id="Layer_1" xmlns="http://www.w3.org/2000/svg" xmlns:xlink="http://www.w3.org/1999/xlink" x="0px" y="0px"
	 viewBox="0 0 1100 250" style="enable-background:new 0 0 1100 250;" xml:space="preserve">
<style type="text/css">
	.st0{fill:#8E3E1E;}
	.st1{clip-path:url(#SVGID_00000138549111360367253130000018396166023167470257_);fill:#99E0FF;}
	.st2{clip-path:url(#SVGID_00000138549111360367253130000018396166023167470257_);fill:#4C150B;}
	.st3{clip-path:url(#SVGID_00000138549111360367253130000018396166023167470257_);fill:#8E3E1E;}
	.st4{clip-path:url(#SVGID_00000138549111360367253130000018396166023167470257_);fill:#F74F32;}
	.st5{clip-path:url(#SVGID_00000138549111360367253130000018396166023167470257_);fill:#FB6324;}
	.st6{clip-path:url(#SVGID_00000138549111360367253130000018396166023167470257_);fill:#93342B;}
	.st7{clip-path:url(#SVGID_00000138549111360367253130000018396166023167470257_);fill:#773118;}
	.st8{clip-path:url(#SVGID_00000138549111360367253130000018396166023167470257_);fill:#6D2912;}
	.st9{clip-path:url(#SVGID_00000138549111360367253130000018396166023167470257_);fill:#7F422D;}
	.st10{clip-path:url(#SVGID_00000138549111360367253130000018396166023167470257_);fill:#6D3526;}
	.st11{clip-path:url(#SVGID_00000138549111360367253130000018396166023167470257_);fill:#874439;}
	.st12{clip-path:url(#SVGID_00000138549111360367253130000018396166023167470257_);fill:#D04E34;}
	.st13{clip-path:url(#SVGID_00000138549111360367253130000018396166023167470257_);fill:#CA3322;}
	.st14{clip-path:url(#SVGID_00000138549111360367253130000018396166023167470257_);fill:#753832;}
	.st15{clip-path:url(#SVGID_00000138549111360367253130000018396166023167470257_);fill:#FF9468;}
	.st16{clip-path:url(#SVGID_00000138549111360367253130000018396166023167470257_);fill:#FBA469;}
	.st17{clip-path:url(#SVGID_00000138549111360367253130000018396166023167470257_);fill:#FFC6B7;}
	.st18{clip-path:url(#SVGID_00000138549111360367253130000018396166023167470257_);fill:#7C351C;}
	.st19{clip-path:url(#SVGID_00000138549111360367253130000018396166023167470257_);fill:#A8552D;}
	.st20{clip-path:url(#SVGID_00000138549111360367253130000018396166023167470257_);fill:#FF7935;}
	.st21{clip-path:url(#SVGID_00000138549111360367253130000018396166023167470257_);fill:#FDFFFD;}
	.st22{clip-path:url(#SVGID_00000138549111360367253130000018396166023167470257_);fill:#FEB25D;}
	.st23{clip-path:url(#SVGID_00000138549111360367253130000018396166023167470257_);fill:#E85B1C;}
	.st24{clip-path:url(#SVGID_00000138549111360367253130000018396166023167470257_);fill:#BC281D;}
	.st25{clip-path:url(#SVGID_00000138549111360367253130000018396166023167470257_);fill:#E83821;}
	.st26{clip-path:url(#SVGID_00000138549111360367253130000018396166023167470257_);fill:#C63922;}
	.st27{clip-path:url(#SVGID_00000138549111360367253130000018396166023167470257_);fill:#C11E11;}
	.st28{clip-path:url(#SVGID_00000138549111360367253130000018396166023167470257_);fill:#BC3720;}
	.st29{clip-path:url(#SVGID_00000138549111360367253130000018396166023167470257_);fill:#E03822;}
	.st30{clip-path:url(#SVGID_00000138549111360367253130000018396166023167470257_);fill:#C12014;}
	.st31{clip-path:url(#SVGID_00000138549111360367253130000018396166023167470257_);fill:#E55E23;}
</style>
<path class="st0" d="M14.4,194h-3.9c-1.4,0-2.6-1.1-2.6-2.6v-53.8c0-1.4,1.1-2.6,2.6-2.6h3.9c1.4,0,2.6,1.1,2.6,2.6v53.9
	C17,192.9,15.9,194,14.4,194z"/>
<path class="st0" d="M16,255L16,255c-3.3,0-6-2.7-6-6v-37c0-3.3,2.7-6,6-6l0,0c3.3,0,6,2.7,6,6v37C22,252.3,19.3,255,16,255z"/>
<g>
	<defs>
		<rect id="SVGID_1_" width="1101" height="250"/>
	</defs>
	<clipPath id="SVGID_00000130606742506820498790000007332265676066555057_">
		<use xlink:href="#SVGID_1_"  style="overflow:visible;"/>
	</clipPath>
	
		<rect style="clip-path:url(#SVGID_00000130606742506820498790000007332265676066555057_);fill:#99E0FF;" width="1101" height="250"/>
	<path style="clip-path:url(#SVGID_00000130606742506820498790000007332265676066555057_);fill:#4C150B;" d="M1100,14v236H0V14
		c151.5,118.7,342.5,138.7,550,138.7S948.5,132.7,1100,14z"/>
	<path style="clip-path:url(#SVGID_00000130606742506820498790000007332265676066555057_);fill:#8E3E1E;" d="M341.6,193.1v17.1
		c0,5.4-4.4,9.8-9.8,9.8H313c-2.5,0-4.5,2-4.5,4.5v31.1h-42.8v-36.8c0-2.5-2-4.5-4.5-4.5h-24.1c-2.8,0-5-2.2-5-5V188h12.4v10
		c0,2.1,1.7,3.8,3.8,3.8h12.9c2.5,0,4.5-2,4.5-4.5v-35c0-11.8,9.6-21.4,21.4-21.4l0,0c11.8,0,21.4,9.6,21.4,21.4v35.5
		c0,2.5,2,4.5,4.5,4.5h6.1c2.7,0,5-2.2,5-5V193L341.6,193.1L341.6,193.1z"/>
	<path style="clip-path:url(#SVGID_00000130606742506820498790000007332265676066555057_);fill:#F74F32;" d="M350.6,168.3h-127
		c-4.7,0-8.5-3.8-8.5-8.5v-6.2c0-39.8,32.2-72,72-72l0,0c39.8,0,72,32.2,72,72v6.2C359.1,164.5,355.3,168.3,350.6,168.3z"/>
	<path style="clip-path:url(#SVGID_00000130606742506820498790000007332265676066555057_);fill:#FB6324;" d="M256.1,192.2h-35.3
		v-2.3c0-6.9,5.6-12.5,12.5-12.5h10.3c6.9,0,12.5,5.6,12.5,12.5V192.2L256.1,192.2z"/>
	<path style="clip-path:url(#SVGID_00000130606742506820498790000007332265676066555057_);fill:#93342B;" d="M353.1,193.6H315v-3.5
		c0-6.9,5.6-12.5,12.5-12.5h13.1c6.9,0,12.5,5.6,12.5,12.5V193.6L353.1,193.6z"/>
	<path style="clip-path:url(#SVGID_00000130606742506820498790000007332265676066555057_);fill:#773118;" d="M275.3,204L275.3,204
		c-1.9,0-3.4-1.5-3.4-3.4v-20.7c0-1.9,1.5-3.4,3.4-3.4l0,0c1.9,0,3.4,1.5,3.4,3.4v20.7C278.6,202.5,277.1,204,275.3,204z"/>
	<path style="clip-path:url(#SVGID_00000130606742506820498790000007332265676066555057_);fill:#773118;" d="M275.3,235L275.3,235
		c-1.9,0-3.4-1.5-3.4-3.4v-20.7c0-1.9,1.5-3.4,3.4-3.4l0,0c1.9,0,3.4,1.5,3.4,3.4v20.7C278.6,233.5,277.1,235,275.3,235z"/>
	<path style="clip-path:url(#SVGID_00000130606742506820498790000007332265676066555057_);fill:#6D2912;" d="M299.5,250.9
		L299.5,250.9c-1.9,0-3.4-1.5-3.4-3.4v-13.9c0-1.9,1.5-3.4,3.4-3.4l0,0c1.9,0,3.4,1.5,3.4,3.4v13.9
		C302.9,249.4,301.4,250.9,299.5,250.9z"/>
	<path style="clip-path:url(#SVGID_00000130606742506820498790000007332265676066555057_);fill:#773118;" d="M299.3,196L299.3,196
		c-2,0-3.6-1.6-3.6-3.6v-11.2c0-2,1.6-3.6,3.6-3.6l0,0c2,0,3.6,1.6,3.6,3.6v11.2C302.9,194.4,301.3,196,299.3,196z"/>
	<path style="clip-path:url(#SVGID_00000130606742506820498790000007332265676066555057_);fill:#773118;" d="M299.3,229L299.3,229
		c-2,0-3.6-1.6-3.6-3.6v-23.2c0-2,1.6-3.6,3.6-3.6l0,0c2,0,3.6,1.6,3.6,3.6v23.2C302.9,227.4,301.3,229,299.3,229z"/>
	<path style="clip-path:url(#SVGID_00000130606742506820498790000007332265676066555057_);fill:#6D2912;" d="M275.8,247.8
		L275.8,247.8c-2.4,0-4.4-2-4.4-4.4v-15.5c0-2.4,2-4.4,4.4-4.4l0,0c2.4,0,4.4,2,4.4,4.4v15.5C280.2,245.8,278.2,247.8,275.8,247.8z"
		/>
	<path style="clip-path:url(#SVGID_00000130606742506820498790000007332265676066555057_);fill:#773118;" d="M287.2,251.4
		L287.2,251.4c-1.3,0-2.3-1-2.3-2.3v-52.6c0-1.3,1-2.3,2.3-2.3l0,0c1.3,0,2.3,1,2.3,2.3v52.6C289.5,250.4,288.4,251.4,287.2,251.4z"
		/>
	<path style="clip-path:url(#SVGID_00000130606742506820498790000007332265676066555057_);fill:#7F422D;" d="M844.6,186.1v17.1
		c0,5.4-4.4,9.8-9.8,9.8H816c-2.5,0-4.5,2-4.5,4.5v31.1h-42.8v-36.8c0-2.5-2-4.5-4.5-4.5h-24.1c-2.8,0-5-2.2-5-5V181h12.4v10
		c0,2.1,1.7,3.8,3.8,3.8h12.9c2.5,0,4.5-2,4.5-4.5v-35c0-11.8,9.6-21.4,21.4-21.4l0,0c11.8,0,21.4,9.6,21.4,21.4v35.5
		c0,2.5,2,4.5,4.5,4.5h6.1c2.7,0,5-2.2,5-5V186L844.6,186.1L844.6,186.1z"/>
	<path style="clip-path:url(#SVGID_00000130606742506820498790000007332265676066555057_);fill:#F74F32;" d="M853.6,161.3h-127
		c-4.7,0-8.5-3.8-8.5-8.5v-6.2c0-39.8,32.2-72,72-72l0,0c39.8,0,72,32.2,72,72v6.2C862.1,157.5,858.3,161.3,853.6,161.3z"/>
	<path style="clip-path:url(#SVGID_00000130606742506820498790000007332265676066555057_);fill:#F74F32;" d="M759.1,185.2h-35.3
		v-2.3c0-6.9,5.6-12.5,12.5-12.5h10.3c6.9,0,12.5,5.6,12.5,12.5V185.2L759.1,185.2z"/>
	<path style="clip-path:url(#SVGID_00000130606742506820498790000007332265676066555057_);fill:#FB6324;" d="M856.2,186.6h-38.1
		v-3.5c0-6.9,5.6-12.5,12.5-12.5h13.1c6.9,0,12.5,5.6,12.5,12.5V186.6L856.2,186.6z"/>
	<path style="clip-path:url(#SVGID_00000130606742506820498790000007332265676066555057_);fill:#6D2912;" d="M802.5,243.9
		L802.5,243.9c-1.8,0-3.3-1.5-3.3-3.4v-13.9c0-1.9,1.5-3.4,3.3-3.4l0,0c1.8,0,3.3,1.5,3.3,3.4v13.9
		C805.9,242.4,804.4,243.9,802.5,243.9z"/>
	<path style="clip-path:url(#SVGID_00000130606742506820498790000007332265676066555057_);fill:#6D3526;" d="M802.3,216L802.3,216
		c-2,0-3.6-1.6-3.6-3.6v-37.2c0-2,1.6-3.6,3.6-3.6l0,0c2,0,3.6,1.6,3.6,3.6v37.2C805.9,214.4,804.3,216,802.3,216z"/>
	<path style="clip-path:url(#SVGID_00000130606742506820498790000007332265676066555057_);fill:#6D3526;" d="M779.3,195L779.3,195
		c-2,0-3.6-1.6-3.6-3.6v-16.2c0-2,1.6-3.6,3.6-3.6l0,0c2,0,3.6,1.6,3.6,3.6v16.2C782.9,193.4,781.3,195,779.3,195z"/>
	<path style="clip-path:url(#SVGID_00000130606742506820498790000007332265676066555057_);fill:#6D3526;" d="M779.3,227L779.3,227
		c-2,0-3.6-1.6-3.6-3.6v-20.2c0-2,1.6-3.6,3.6-3.6l0,0c2,0,3.6,1.6,3.6,3.6v20.2C782.9,225.4,781.3,227,779.3,227z"/>
	<path style="clip-path:url(#SVGID_00000130606742506820498790000007332265676066555057_);fill:#6D3526;" d="M790.2,246.4
		L790.2,246.4c-1.3,0-2.3-1-2.3-2.3v-52.6c0-1.3,1-2.3,2.3-2.3l0,0c1.3,0,2.3,1,2.3,2.3v52.6C792.5,245.4,791.4,246.4,790.2,246.4z"
		/>
	<path style="clip-path:url(#SVGID_00000130606742506820498790000007332265676066555057_);fill:#6D3526;" d="M926.2,237.4
		L926.2,237.4c-1.3,0-2.3-1-2.3-2.3v-52.6c0-1.3,1-2.3,2.3-2.3l0,0c1.3,0,2.3,1,2.3,2.3v52.6C928.5,236.4,927.4,237.4,926.2,237.4z"
		/>
	<path style="clip-path:url(#SVGID_00000130606742506820498790000007332265676066555057_);fill:#6D3526;" d="M790.2,187L790.2,187
		c-1.3,0-2.3-1-2.3-2.3v-11.4c0-1.3,1-2.3,2.3-2.3l0,0c1.3,0,2.3,1,2.3,2.3v11.4C792.5,186,791.4,187,790.2,187z"/>
	<path style="clip-path:url(#SVGID_00000130606742506820498790000007332265676066555057_);fill:#874439;" d="M723.4,184.2v18.4
		c0,5.8-4.6,10.5-10.4,10.5h-20c-2.6,0-4.7,2.1-4.7,4.8v33.6h-45.5v-39.7c0-2.6-2.1-4.8-4.7-4.8h-25.6c-2.9,0-5.3-2.4-5.3-5.4v-23
		h13.2v10.9c0,2.3,1.8,4.1,4,4.1h13.7c2.6,0,4.7-2.1,4.7-4.8V151c0-12.8,10.2-23.1,22.7-23.1l0,0c12.6,0,22.7,10.3,22.7,23.1v38.3
		c0,2.6,2.1,4.8,4.7,4.8h6.4c2.9,0,5.3-2.4,5.3-5.4V184L723.4,184.2L723.4,184.2z"/>
	<path style="clip-path:url(#SVGID_00000130606742506820498790000007332265676066555057_);fill:#D04E34;" d="M733.5,157.5H597.7
		c-4.7,0-8.5-3.8-8.5-8.5v-13c0-39.8,32.2-72,72-72h8.9c39.8,0,72,32.2,72,72v13C742,153.7,738.2,157.5,733.5,157.5z"/>
	<path style="clip-path:url(#SVGID_00000130606742506820498790000007332265676066555057_);fill:#93342B;" d="M632.6,183.3h-37.4
		v-3.5c0-6.9,5.6-12.5,12.5-12.5h12.5c6.9,0,12.5,5.6,12.5,12.5L632.6,183.3L632.6,183.3z"/>
	<path style="clip-path:url(#SVGID_00000130606742506820498790000007332265676066555057_);fill:#CA3322;" d="M735.6,184.8h-40.4V180
		c0-6.9,5.6-12.5,12.5-12.5h15.4c6.9,0,12.5,5.6,12.5,12.5V184.8L735.6,184.8z"/>
	<path style="clip-path:url(#SVGID_00000130606742506820498790000007332265676066555057_);fill:#753832;" d="M653.2,207.6h-0.4
		c-1.8,0-3.3-1.5-3.3-3.4v-34.5c0-1.9,1.5-3.4,3.3-3.4h0.4c1.8,0,3.3,1.5,3.3,3.4v34.5C656.5,206.1,655,207.6,653.2,207.6z"/>
	<path style="clip-path:url(#SVGID_00000130606742506820498790000007332265676066555057_);fill:#753832;" d="M653.2,251.6h-0.4
		c-1.8,0-3.3-1.5-3.3-3.4v-31.9c0-1.9,1.5-3.4,3.3-3.4h0.4c1.8,0,3.3,1.5,3.3,3.4v31.9C656.5,250.1,655,251.6,653.2,251.6z"/>
	<path style="clip-path:url(#SVGID_00000130606742506820498790000007332265676066555057_);fill:#753832;" d="M677.7,238.4h-0.4
		c-2,0-3.6-1.6-3.6-3.6v-27.1c0-2,1.6-3.6,3.6-3.6h0.4c2,0,3.6,1.6,3.6,3.6v27.1C681.3,236.7,679.7,238.4,677.7,238.4z"/>
	<path style="clip-path:url(#SVGID_00000130606742506820498790000007332265676066555057_);fill:#753832;" d="M677.7,197h-0.4
		c-2,0-3.6-1.6-3.6-3.6v-6.8c0-2,1.6-3.6,3.6-3.6h0.4c2,0,3.6,1.6,3.6,3.6v6.8C681.3,195.4,679.7,197,677.7,197z"/>
	<path style="clip-path:url(#SVGID_00000130606742506820498790000007332265676066555057_);fill:#753832;" d="M664.7,230.1h-0.3
		c-1.3,0-2.3-1-2.3-2.3v-30.4c0-1.3,1-2.3,2.3-2.3h0.3c1.3,0,2.3,1,2.3,2.3v30.4C667,229,666,230.1,664.7,230.1z"/>
	<path style="clip-path:url(#SVGID_00000130606742506820498790000007332265676066555057_);fill:#753832;" d="M664.7,189.1h-0.3
		c-1.3,0-2.3-1-2.3-2.3v-11.4c0-1.3,1-2.3,2.3-2.3h0.3c1.3,0,2.3,1,2.3,2.3v11.4C667,188,666,189.1,664.7,189.1z"/>
	<path style="clip-path:url(#SVGID_00000130606742506820498790000007332265676066555057_);fill:#7F422D;" d="M579.1,187v17.9
		c0,5.7-4,10.3-8.9,10.3h-17.1c-2.2,0-4,2.1-4,4.7v32.7h-38.9V214c0-2.6-1.8-4.7-4-4.7h-21.9c-2.5,0-4.5-2.4-4.5-5.2v-22.4H491v10.6
		c0,2.2,1.5,4,3.5,4h11.7c2.2,0,4-2.1,4-4.7v-36.8c0-12.4,8.7-22.5,19.5-22.5l0,0c10.8,0,19.5,10.1,19.5,22.5v37.3
		c0,2.6,1.8,4.7,4,4.7h5.5c2.5,0,4.5-2.3,4.5-5.2V187H579.1z"/>
	<path style="clip-path:url(#SVGID_00000130606742506820498790000007332265676066555057_);fill:#CA3322;" d="M587.3,161H471.9
		c-4.3,0-7.7-3.5-7.7-7.7v-17.9c0-36.1,29.3-65.4,65.4-65.4l0,0c36.1,0,65.4,29.3,65.4,65.4v17.9C595,157.5,591.5,161,587.3,161z"/>
	<path style="clip-path:url(#SVGID_00000130606742506820498790000007332265676066555057_);fill:#CA3322;" d="M501.4,186.1h-32V183
		c0-6.9,5.6-12.5,12.5-12.5h7.1c6.9,0,12.5,5.6,12.5,12.5L501.4,186.1L501.4,186.1z"/>
	<path style="clip-path:url(#SVGID_00000130606742506820498790000007332265676066555057_);fill:#FB6324;" d="M589.5,187.5H555v-4.3
		c0-6.9,5.6-12.5,12.5-12.5h9.6c6.9,0,12.5,5.6,12.5,12.5L589.5,187.5L589.5,187.5z"/>
	<path style="clip-path:url(#SVGID_00000130606742506820498790000007332265676066555057_);fill:#6D3526;" d="M531,209.7h-2.2
		c-1.7,0-3-1.4-3-3.1v-34c0-1.7,1.4-3.1,3-3.1h2.2c1.7,0,3,1.4,3,3.1v34C534,208.4,532.6,209.7,531,209.7z"/>
	<path style="clip-path:url(#SVGID_00000130606742506820498790000007332265676066555057_);fill:#6D3526;" d="M531,245.7h-2.2
		c-1.7,0-3-1.4-3-3.1V217c0-1.7,1.4-3.1,3-3.1h2.2c1.7,0,3,1.4,3,3.1v25.6C534,244.4,532.6,245.7,531,245.7z"/>
	<path style="clip-path:url(#SVGID_00000130606742506820498790000007332265676066555057_);fill:#6D2912;" d="M540.8,247.6
		L540.8,247.6c-1.7,0-3-1.4-3-3.1V229c0-1.7,1.4-3.1,3-3.1l0,0c1.7,0,3,1.4,3,3.1v15.6C543.9,246.3,542.5,247.6,540.8,247.6z"/>
	<path style="clip-path:url(#SVGID_00000130606742506820498790000007332265676066555057_);fill:#6D3526;" d="M542.6,252.2
		L542.6,252.2c-1.2,0-2.1-0.9-2.1-2.1v-55.9c0-1.2,0.9-2.1,2.1-2.1l0,0c1.2,0,2.1,0.9,2.1,2.1v55.9
		C544.7,251.2,543.8,252.2,542.6,252.2z"/>
	<path style="clip-path:url(#SVGID_00000130606742506820498790000007332265676066555057_);fill:#6D3526;" d="M542.6,189L542.6,189
		c-1.2,0-2.1-0.9-2.1-2.1v-20.8c0-1.2,0.9-2.1,2.1-2.1l0,0c1.2,0,2.1,0.9,2.1,2.1v20.8C544.7,188.1,543.8,189,542.6,189z"/>
	<path style="clip-path:url(#SVGID_00000130606742506820498790000007332265676066555057_);fill:#6D3526;" d="M517,194.8L517,194.8
		c-1.2,0-2.1-0.9-2.1-2.1v-20.8c0-1.2,0.9-2.1,2.1-2.1l0,0c1.2,0,2.1,0.9,2.1,2.1v20.8C519.1,193.9,518.1,194.8,517,194.8z"/>
	<path style="clip-path:url(#SVGID_00000130606742506820498790000007332265676066555057_);fill:#6D3526;" d="M517,228L517,228
		c-1.2,0-2.1-0.9-2.1-2.1v-26c0-1.2,0.9-2.1,2.1-2.1l0,0c1.2,0,2.1,0.9,2.1,2.1v26C519.1,227.1,518.1,228,517,228z"/>
	<path style="clip-path:url(#SVGID_00000130606742506820498790000007332265676066555057_);fill:#874439;" d="M464.8,198.8v15
		c0,4.7-3.8,8.6-8.6,8.6h-16.5c-2.2,0-3.9,1.8-3.9,3.9v27.3h-37.6v-32.3c0-2.2-1.8-3.9-3.9-3.9h-21.1c-2.4,0-4.4-2-4.4-4.4v-18.7
		h10.9v8.9c0,1.9,1.5,3.4,3.4,3.4h11.3c2.2,0,3.9-1.8,3.9-3.9V172c0-10.4,8.4-18.8,18.8-18.8l0,0c10.4,0,18.8,8.4,18.8,18.8v31
		c0,2.2,1.8,3.9,3.9,3.9h5.3c2.4,0,4.4-1.9,4.4-4.4v-3.8L464.8,198.8L464.8,198.8z"/>
	<path style="clip-path:url(#SVGID_00000130606742506820498790000007332265676066555057_);fill:#D04E34;" d="M472.7,177H361.3
		c-4.1,0-7.5-3.3-7.5-7.4v-5.4c0-34.9,28.3-63.1,63.1-63.1l0,0c34.9,0,63.1,28.3,63.1,63.1v5.4C480.1,173.7,476.8,177,472.7,177z"/>
	<path style="clip-path:url(#SVGID_00000130606742506820498790000007332265676066555057_);fill:#F74F32;" d="M389.8,198h-30.9v-0.5
		c0-6.9,5.6-12.5,12.5-12.5h5.9c6.9,0,12.5,5.6,12.5,12.5V198L389.8,198z"/>
	<path style="clip-path:url(#SVGID_00000130606742506820498790000007332265676066555057_);fill:#FF9468;" d="M474.9,199.2h-33.4
		v-1.5c0-6.9,5.6-12.5,12.5-12.5h8.4c6.9,0,12.5,5.6,12.5,12.5V199.2L474.9,199.2z"/>
	<path style="clip-path:url(#SVGID_00000130606742506820498790000007332265676066555057_);fill:#753832;" d="M406.6,215.8
		L406.6,215.8c-1.6,0-2.9-1.3-2.9-2.9v-27.6c0-1.6,1.3-2.9,2.9-2.9l0,0c1.6,0,2.9,1.3,2.9,2.9v27.6
		C409.5,214.4,408.2,215.8,406.6,215.8z"/>
	<path style="clip-path:url(#SVGID_00000130606742506820498790000007332265676066555057_);fill:#753832;" d="M406.6,245L406.6,245
		c-1.6,0-2.9-1.3-2.9-2.9V221c0-1.6,1.3-2.9,2.9-2.9l0,0c1.6,0,2.9,1.3,2.9,2.9v21C409.5,243.7,408.2,245,406.6,245z"/>
	<path style="clip-path:url(#SVGID_00000130606742506820498790000007332265676066555057_);fill:#6D2912;" d="M427.9,249.4
		L427.9,249.4c-1.6,0-2.9-1.3-2.9-2.9v-12.2c0-1.6,1.3-2.9,2.9-2.9l0,0c1.6,0,2.9,1.3,2.9,2.9v12.2
		C430.8,248.1,429.5,249.4,427.9,249.4z"/>
	<path style="clip-path:url(#SVGID_00000130606742506820498790000007332265676066555057_);fill:#753832;" d="M427.6,228L427.6,228
		c-1.8,0-3.2-1.4-3.2-3.2v-27.5c0-1.8,1.4-3.2,3.2-3.2l0,0c1.8,0,3.2,1.4,3.2,3.2v27.5C430.8,226.6,429.4,228,427.6,228z"/>
	<path style="clip-path:url(#SVGID_00000130606742506820498790000007332265676066555057_);fill:#6D2912;" d="M407,246.7L407,246.7
		c-2.1,0-3.9-1.7-3.9-3.9v-13.6c0-2.1,1.7-3.9,3.9-3.9l0,0c2.1,0,3.9,1.7,3.9,3.9v13.6C410.9,245,409.2,246.7,407,246.7z"/>
	<path style="clip-path:url(#SVGID_00000130606742506820498790000007332265676066555057_);fill:#753832;" d="M417,249.9L417,249.9
		c-1.1,0-2-0.9-2-2v-46.2c0-1.1,0.9-2,2-2l0,0c1.1,0,2,0.9,2,2v46.2C419,249,418.1,249.9,417,249.9z"/>
	<path style="clip-path:url(#SVGID_00000130606742506820498790000007332265676066555057_);fill:#753832;" d="M417,196L417,196
		c-1.1,0-2-0.9-2-2v-10c0-1.1,0.9-2,2-2l0,0c1.1,0,2,0.9,2,2v9.9C419,195.1,418.1,196,417,196z"/>
	<path style="clip-path:url(#SVGID_00000130606742506820498790000007332265676066555057_);fill:#7F422D;" d="M220.7,173.7v19.7
		c0,6.2-5.1,11.3-11.3,11.3h-21.7c-2.8,0-5.1,2.3-5.1,5.1v36H133v-42.6c0-2.8-2.3-5.1-5.2-5.1H100c-3.2,0-5.8-2.6-5.8-5.8v-24.6
		h14.3v11.7c0,2.4,2,4.4,4.4,4.4h14.9c2.8,0,5.2-2.3,5.2-5.1v-40.5c0-13.7,11.1-24.8,24.8-24.8l0,0c13.7,0,24.8,11.1,24.8,24.8v41.1
		c0,2.8,2.3,5.1,5.1,5.1h7c3.2,0,5.7-2.6,5.7-5.7v-5H220.7L220.7,173.7z"/>
	<path style="clip-path:url(#SVGID_00000130606742506820498790000007332265676066555057_);fill:#CA3322;" d="M232.4,145.1H83.2
		c-4.8,0-8.6-3.9-8.6-8.6v-18.8c0-40.2,32.6-72.8,72.8-72.8h20.7c40.2,0,72.9,32.6,72.9,72.8v18.8
		C241,141.2,237.1,145.1,232.4,145.1z"/>
	<path style="clip-path:url(#SVGID_00000130606742506820498790000007332265676066555057_);fill:#FBA469;" d="M121.9,172.8H81.1v-4.6
		c0-6.9,5.6-12.5,12.5-12.5h15.8c6.9,0,12.5,5.6,12.5,12.5V172.8L121.9,172.8z"/>
	<path style="clip-path:url(#SVGID_00000130606742506820498790000007332265676066555057_);fill:#D04E34;" d="M234.1,174.3h-44v-6
		c0-6.9,5.6-12.5,12.5-12.5h19c6.9,0,12.5,5.6,12.5,12.5V174.3L234.1,174.3z"/>
	<path style="clip-path:url(#SVGID_00000130606742506820498790000007332265676066555057_);fill:#FFC6B7;" d="M100.1,168.4H88.8
		c-1.3,0-2.3-1.1-2.3-2.4v-0.7c0-1.3,1.1-2.4,2.3-2.4h11.3c1.3,0,2.3,1.1,2.3,2.4v0.7C102.5,167.3,101.4,168.4,100.1,168.4z"/>
	<path style="clip-path:url(#SVGID_00000130606742506820498790000007332265676066555057_);fill:#6D3526;" d="M144.5,181h-1
		c-1.9,0-3.4-1.5-3.4-3.4V158c0-1.9,1.5-3.4,3.4-3.4h1c1.9,0,3.4,1.5,3.4,3.4v19.6C147.9,179.5,146.4,181,144.5,181z"/>
	<path style="clip-path:url(#SVGID_00000130606742506820498790000007332265676066555057_);fill:#6D2912;" d="M172.6,240.5h-1
		c-1.9,0-3.4-1.5-3.4-3.4V220c0-1.9,1.5-3.4,3.4-3.4h1c1.9,0,3.4,1.5,3.4,3.4v17.1C176,239,174.4,240.5,172.6,240.5z"/>
	<path style="clip-path:url(#SVGID_00000130606742506820498790000007332265676066555057_);fill:#6D3526;" d="M172.3,190h-1
		c-2,0-3.7-1.6-3.7-3.7v-26.9c0-2,1.6-3.7,3.7-3.7h1c2,0,3.7,1.6,3.7,3.7v26.9C176,188.4,174.3,190,172.3,190z"/>
	<path style="clip-path:url(#SVGID_00000130606742506820498790000007332265676066555057_);fill:#6D3526;" d="M172.3,227.4h-1
		c-2,0-3.7-1.6-3.7-3.7v-26.9c0-2,1.6-3.7,3.7-3.7h1c2,0,3.7,1.6,3.7,3.7v26.9C176,225.8,174.3,227.4,172.3,227.4z"/>
	<path style="clip-path:url(#SVGID_00000130606742506820498790000007332265676066555057_);fill:#6D3526;" d="M145.3,237H144
		c-2.4,0-4.4-2-4.4-4.4v-40.1c0-2.4,2-4.4,4.4-4.4h1.3c2.4,0,4.4,2,4.4,4.4v40.1C149.7,235,147.7,237,145.3,237z"/>
	<path style="clip-path:url(#SVGID_00000130606742506820498790000007332265676066555057_);fill:#6D3526;" d="M158.1,241.1h-0.7
		c-1.3,0-2.4-1.1-2.4-2.4v-61.5c0-1.3,1.1-2.4,2.4-2.4h0.7c1.3,0,2.4,1.1,2.4,2.4v61.5C160.5,240.1,159.4,241.1,158.1,241.1z"/>
	<path style="clip-path:url(#SVGID_00000130606742506820498790000007332265676066555057_);fill:#6D3526;" d="M158.1,170h-0.7
		c-1.3,0-2.4-1.1-2.4-2.4v-17.3c0-1.3,1.1-2.4,2.4-2.4h0.7c1.3,0,2.4,1.1,2.4,2.4v17.3C160.5,168.9,159.4,170,158.1,170z"/>
	<path style="clip-path:url(#SVGID_00000130606742506820498790000007332265676066555057_);fill:#8E3E1E;" d="M990.7,171.7v19.7
		c0,6.2-5.1,11.3-11.3,11.3h-21.7c-2.8,0-5.2,2.3-5.2,5.1v36H903v-42.6c0-2.8-2.3-5.1-5.2-5.1H870c-3.2,0-5.8-2.6-5.8-5.8v-24.6
		h14.3v11.7c0,2.4,2,4.4,4.4,4.4h14.9c2.8,0,5.2-2.3,5.2-5.1v-40.5c0-13.7,11.1-24.8,24.8-24.8l0,0c13.7,0,24.8,11.1,24.8,24.8v41.1
		c0,2.8,2.3,5.1,5.2,5.1h7c3.2,0,5.7-2.6,5.7-5.7v-5H990.7L990.7,171.7L990.7,171.7z"/>
	<path style="clip-path:url(#SVGID_00000130606742506820498790000007332265676066555057_);fill:#CA3322;" d="M1002.4,143.1H853.2
		c-4.8,0-8.6-3.9-8.6-8.6v-18.8c0-40.2,32.6-72.8,72.8-72.8h20.7c40.2,0,72.8,32.6,72.8,72.8v18.8
		C1011,139.2,1007.1,143.1,1002.4,143.1z"/>
	<path style="clip-path:url(#SVGID_00000130606742506820498790000007332265676066555057_);fill:#93342B;" d="M891.9,170.8h-40.8
		v-4.6c0-6.9,5.6-12.5,12.5-12.5h15.8c6.9,0,12.5,5.6,12.5,12.5V170.8L891.9,170.8z"/>
	<path style="clip-path:url(#SVGID_00000130606742506820498790000007332265676066555057_);fill:#FBA469;" d="M1004.1,172.3h-44v-6
		c0-6.9,5.6-12.5,12.5-12.5h19c6.9,0,12.5,5.6,12.5,12.5V172.3L1004.1,172.3z"/>
	<path style="clip-path:url(#SVGID_00000130606742506820498790000007332265676066555057_);fill:#7C351C;" d="M916.5,222.8h-1
		c-1.9,0-3.4-1.5-3.4-3.4V182c0-1.9,1.5-3.4,3.4-3.4h1c1.9,0,3.4,1.5,3.4,3.4v37.4C919.9,221.3,918.4,222.8,916.5,222.8z"/>
	<path style="clip-path:url(#SVGID_00000130606742506820498790000007332265676066555057_);fill:#7C351C;" d="M916.5,169h-1
		c-1.9,0-3.4-1.5-3.4-3.4v-16.2c0-1.9,1.5-3.4,3.4-3.4h1c1.9,0,3.4,1.5,3.4,3.4v16.2C919.9,167.5,918.4,169,916.5,169z"/>
	<path style="clip-path:url(#SVGID_00000130606742506820498790000007332265676066555057_);fill:#8E3E1E;" d="M942.6,238.5h-1
		c-1.9,0-3.4-1.5-3.4-3.4V218c0-1.9,1.5-3.4,3.4-3.4h1c1.9,0,3.4,1.5,3.4,3.4v17.1C946,237,944.5,238.5,942.6,238.5z"/>
	<path style="clip-path:url(#SVGID_00000130606742506820498790000007332265676066555057_);fill:#7C351C;" d="M942.3,183h-1
		c-2,0-3.7-1.6-3.7-3.7v-21.9c0-2,1.6-3.7,3.7-3.7h1c2,0,3.7,1.6,3.7,3.7v21.9C946,181.4,944.3,183,942.3,183z"/>
	<path style="clip-path:url(#SVGID_00000130606742506820498790000007332265676066555057_);fill:#7C351C;" d="M942.3,222h-1
		c-2,0-3.7-1.6-3.7-3.7v-21.9c0-2,1.6-3.7,3.7-3.7h1c2,0,3.7,1.6,3.7,3.7v21.9C946,220.4,944.3,222,942.3,222z"/>
	<path style="clip-path:url(#SVGID_00000130606742506820498790000007332265676066555057_);fill:#93342B;" d="M105,149.8H16v-18.3
		c0-6.9,5.6-12.5,12.5-12.5h64c6.9,0,12.5,5.6,12.5,12.5V149.8z"/>
	<path style="clip-path:url(#SVGID_00000130606742506820498790000007332265676066555057_);fill:#A8552D;" d="M105,145v42.8
		c0,5.1-4.1,9.2-9.2,9.2H61.5c-6.9,0-12.5,5.6-12.5,12.5V251h-67V101h67v56.5c0,6.9,5.6,12.5,12.5,12.5h7.3c5.1,0,9.2-4.1,9.2-9.2
		V145H105z"/>
	<path style="clip-path:url(#SVGID_00000130606742506820498790000007332265676066555057_);fill:#FF7935;" d="M115.9,122.5H-40.3
		c-7.3,0-13.2-5.9-13.2-13.2V82.8c0-50.4,40.9-91.3,91.3-91.3l0,0c50.4,0,91.3,40.9,91.3,91.3v26.5
		C129.1,116.6,123.2,122.5,115.9,122.5z"/>
	<path style="clip-path:url(#SVGID_00000130606742506820498790000007332265676066555057_);fill:#F74F32;" d="M127,163H58v-16.5
		c0-6.9,5.6-12.5,12.5-12.5h44c6.9,0,12.5,5.6,12.5,12.5V163L127,163z"/>
	<path style="clip-path:url(#SVGID_00000130606742506820498790000007332265676066555057_);fill:#8E3E1E;" d="M33.4,241h-3.9
		c-1.4,0-2.6-1.1-2.6-2.6v-53.8c0-1.4,1.1-2.6,2.6-2.6h3.9c1.4,0,2.6,1.1,2.6,2.6v53.9C36,239.9,34.8,241,33.4,241z"/>
	<path style="clip-path:url(#SVGID_00000130606742506820498790000007332265676066555057_);fill:#8E3E1E;" d="M33,177L33,177
		c-3.3,0-6-2.7-6-6v-37c0-3.3,2.7-6,6-6l0,0c3.3,0,6,2.7,6,6v37C39,174.3,36.3,177,33,177z"/>
	<path style="clip-path:url(#SVGID_00000130606742506820498790000007332265676066555057_);fill:#93342B;" d="M995.2,148.6h89v-18.3
		c0-6.9-5.6-12.5-12.5-12.5h-64c-6.9,0-12.5,5.6-12.5,12.5L995.2,148.6L995.2,148.6z"/>
	<path style="clip-path:url(#SVGID_00000130606742506820498790000007332265676066555057_);fill:#A8552D;" d="M995.2,143.8v42.8
		c0,5.1,4.1,9.2,9.2,9.2h34.3c6.9,0,12.5,5.6,12.5,12.5v41.5h67v-150h-67v56.5c0,6.9-5.6,12.5-12.5,12.5h-7.3
		c-5.1,0-9.2-4.1-9.2-9.2v-15.8H995.2z"/>
	<path style="clip-path:url(#SVGID_00000130606742506820498790000007332265676066555057_);fill:#FF7935;" d="M984.3,121.3h156.3
		c7.3,0,13.2-5.9,13.2-13.2V81.6c0-50.4-40.9-91.3-91.3-91.3l0,0c-50.4,0-91.3,40.9-91.3,91.3v26.5
		C971.1,115.4,977,121.3,984.3,121.3z"/>
	<path style="clip-path:url(#SVGID_00000130606742506820498790000007332265676066555057_);fill:#F74F32;" d="M973.2,161.8h69v-16.5
		c0-6.9-5.6-12.5-12.5-12.5h-44c-6.9,0-12.5,5.6-12.5,12.5L973.2,161.8L973.2,161.8z"/>
	<path style="clip-path:url(#SVGID_00000130606742506820498790000007332265676066555057_);fill:#8E3E1E;" d="M1085.8,192.8h3.8
		c1.4,0,2.6-1.1,2.6-2.6v-53.9c0-1.4-1.2-2.6-2.6-2.6h-3.8c-1.4,0-2.6,1.1-2.6,2.6v53.9C1083.2,191.6,1084.4,192.8,1085.8,192.8z"/>
	<path style="clip-path:url(#SVGID_00000130606742506820498790000007332265676066555057_);fill:#8E3E1E;" d="M1066.8,239.8h3.8
		c1.4,0,2.6-1.1,2.6-2.6v-53.9c0-1.4-1.2-2.6-2.6-2.6h-3.8c-1.4,0-2.6,1.1-2.6,2.6v53.9C1064.2,238.6,1065.4,239.8,1066.8,239.8z"/>
	<path style="clip-path:url(#SVGID_00000130606742506820498790000007332265676066555057_);fill:#8E3E1E;" d="M1067.2,175.8
		L1067.2,175.8c3.3,0,6-2.7,6-6v-37c0-3.3-2.7-6-6-6l0,0c-3.3,0-6,2.7-6,6v37C1061.2,173.1,1063.9,175.8,1067.2,175.8z"/>
	<path style="clip-path:url(#SVGID_00000130606742506820498790000007332265676066555057_);fill:#8E3E1E;" d="M1084.2,253.8
		L1084.2,253.8c3.3,0,6-2.7,6-6v-37c0-3.3-2.7-6-6-6l0,0c-3.3,0-6,2.7-6,6v37C1078.2,251.1,1080.9,253.8,1084.2,253.8z"/>
	<path style="clip-path:url(#SVGID_00000130606742506820498790000007332265676066555057_);fill:#FDFFFD;" d="M376,86.5v1
		c0,2.5,2,4.5,4.5,4.5h7c2.5,0,4.5,2,4.5,4.5l0,0c0,2.5-2,4.5-4.5,4.5h-43c-2.5,0-4.5-2-4.5-4.5l0,0c0-2.5,2-4.5,4.5-4.5h6
		c2.5,0,4.5-2,4.5-4.5v-1c0-2.5-2-4.5-4.5-4.5h-26c-2.5,0-4.5-2-4.5-4.5l0,0c0-2.5,2-4.5,4.5-4.5h3c2.5,0,4.5-2,4.5-4.5v-2
		c0-2.5-2-4.5-4.5-4.5h-6c-2.5,0-4.5-2-4.5-4.5l0,0c0-2.5,2-4.5,4.5-4.5h43c2.5,0,4.5,2,4.5,4.5l0,0c0,2.5-2,4.5-4.5,4.5h-11
		c-2.5,0-4.5,2-4.5,4.5v2c0,2.5,2,4.5,4.5,4.5h42c2.5,0,4.5,2,4.5,4.5l0,0c0,2.5-2,4.5-4.5,4.5h-15C378,82,376,84,376,86.5z"/>
	<path style="clip-path:url(#SVGID_00000130606742506820498790000007332265676066555057_);fill:#FDFFFD;" d="M366.4,31.9v0.7
		c0,1.7-1.4,3.1-3.1,3.1h-4.8c-1.7,0-3.1,1.4-3.1,3.1l0,0c0,1.7,1.4,3.1,3.1,3.1H388c1.7,0,3.1-1.4,3.1-3.1l0,0
		c0-1.7-1.4-3.1-3.1-3.1h-4.1c-1.7,0-3.1-1.4-3.1-3.1v-0.7c0-1.7,1.4-3.1,3.1-3.1h17.9c1.7,0,3.1-1.4,3.1-3.1l0,0
		c0-1.7-1.4-3.1-3.1-3.1h-2.1c-1.7,0-3.1-1.4-3.1-3.1v-1.4c0-1.7,1.4-3.1,3.1-3.1h4.1c1.7,0,3.1-1.4,3.1-3.1l0,0
		c0-1.7-1.4-3.1-3.1-3.1h-29.5c-1.7,0-3.1,1.4-3.1,3.1l0,0c0,1.7,1.4,3.1,3.1,3.1h7.5c1.7,0,3.1,1.4,3.1,3.1v1.4
		c0,1.7-1.4,3.1-3.1,3.1H353c-1.7,0-3.1,1.4-3.1,3.1l0,0c0,1.7,1.4,3.1,3.1,3.1h10.3C365,28.8,366.4,30.2,366.4,31.9z"/>
	<path style="clip-path:url(#SVGID_00000130606742506820498790000007332265676066555057_);fill:#FDFFFD;" d="M733,47.5v1
		c0,2.5-2,4.5-4.5,4.5h-7c-2.5,0-4.5,2-4.5,4.5l0,0c0,2.5,2,4.5,4.5,4.5h43c2.5,0,4.5-2,4.5-4.5l0,0c0-2.5-2-4.5-4.5-4.5h-6
		c-2.5,0-4.5-2-4.5-4.5v-1c0-2.5,2-4.5,4.5-4.5h26c2.5,0,4.5-2,4.5-4.5l0,0c0-2.5-2-4.5-4.5-4.5h-3c-2.5,0-4.5-2-4.5-4.5v-2
		c0-2.5,2-4.5,4.5-4.5h6c2.5,0,4.5-2,4.5-4.5l0,0c0-2.5-2-4.5-4.5-4.5h-43c-2.5,0-4.5,2-4.5,4.5l0,0c0,2.5,2,4.5,4.5,4.5h11
		c2.5,0,4.5,2,4.5,4.5v2c0,2.5-2,4.5-4.5,4.5h-42c-2.5,0-4.5,2-4.5,4.5l0,0c0,2.5,2,4.5,4.5,4.5h15C731,43,733,45,733,47.5z"/>
	<path style="clip-path:url(#SVGID_00000130606742506820498790000007332265676066555057_);fill:#FDFFFD;" d="M151.6,26.2v0.6
		c0,1.5,1.2,2.7,2.7,2.7h4.2c1.5,0,2.7,1.2,2.7,2.7l0,0c0,1.5-1.2,2.7-2.7,2.7h-26c-1.5,0-2.7-1.2-2.7-2.7l0,0
		c0-1.5,1.2-2.7,2.7-2.7h3.6c1.5,0,2.7-1.2,2.7-2.7v-0.6c0-1.5-1.2-2.7-2.7-2.7h-15.7c-1.5,0-2.7-1.2-2.7-2.7l0,0
		c0-1.5,1.2-2.7,2.7-2.7h1.8c1.5,0,2.7-1.2,2.7-2.7v-1.2c0-1.5-1.2-2.7-2.7-2.7h-3.6c-1.5,0-2.7-1.2-2.7-2.7l0,0
		c0-1.5,1.2-2.7,2.7-2.7h26c1.5,0,2.7,1.2,2.7,2.7l0,0c0,1.5-1.2,2.7-2.7,2.7H138c-1.5,0-2.7,1.2-2.7,2.7v1.2c0,1.5,1.2,2.7,2.7,2.7
		h25.4c1.5,0,2.7,1.2,2.7,2.7l0,0c0,1.5-1.2,2.7-2.7,2.7h-9.1C152.9,23.5,151.6,24.7,151.6,26.2z"/>
	<path style="clip-path:url(#SVGID_00000130606742506820498790000007332265676066555057_);fill:#7C351C;" d="M928.2,172L928.2,172
		c-1.3,0-2.3-1-2.3-2.3v-11.4c0-1.3,1-2.3,2.3-2.3l0,0c1.3,0,2.3,1,2.3,2.3v11.4C930.5,171,929.4,172,928.2,172z"/>
	<path style="clip-path:url(#SVGID_00000130606742506820498790000007332265676066555057_);fill:#7C351C;" d="M928.2,218L928.2,218
		c-1.3,0-2.3-1-2.3-2.3v-34.4c0-1.3,1-2.3,2.3-2.3l0,0c1.3,0,2.3,1,2.3,2.3v34.4C930.5,217,929.4,218,928.2,218z"/>
	<path style="clip-path:url(#SVGID_00000130606742506820498790000007332265676066555057_);fill:#FEB25D;" d="M1100,194.2V250H0
		v-55.8C151.5,222.3,342.5,227,550,227S948.5,222.3,1100,194.2z"/>
	<path style="clip-path:url(#SVGID_00000130606742506820498790000007332265676066555057_);fill:#FDFFFD;" d="M295.9,34.8v3
		c0,2.3-1.8,4.1-4.1,4.1h-64.4c-2.3,0-4.1-1.8-4.1-4.1v-3c0-2.3,1.8-4.1,4.1-4.1h6.9c2.3,0,4.1-1.8,4.1-4.1v-2.3
		c0-2.3-1.8-4.1-4.1-4.1h-16.2c-2.3,0-4.1-1.8-4.1-4.1v-3c0-2.3,1.8-4.1,4.1-4.1h64.4c2.3,0,4.1,1.8,4.1,4.1v3
		c0,2.3-1.8,4.1-4.1,4.1h-26.3c-2.3,0-4.1,1.8-4.1,4.1v2.3c0,2.3,1.8,4.1,4.1,4.1h35.7C294.1,30.7,295.9,32.6,295.9,34.8z"/>
	<path style="clip-path:url(#SVGID_00000130606742506820498790000007332265676066555057_);fill:#FDFFFD;" d="M617.6,48.8v2
		c0,3.3-2.7,6-6,6h-132c-3.3,0-6-2.7-6-6v-2c0-3.3,2.7-6,6-6h34c3.3,0,6-2.7,6-6l0,0c0-3.3-2.7-6-6-6h-65c-3.3,0-6-2.7-6-6l0,0
		c0-3.3,2.7-6,6-6h103c3.3,0,6,2.7,6,6l0,0c0,3.3-2.7,6-6,6h-3c-3.3,0-6,2.7-6,6l0,0c0,3.3,2.7,6,6,6h63
		C615,42.8,617.6,45.5,617.6,48.8z"/>
	<path style="clip-path:url(#SVGID_00000130606742506820498790000007332265676066555057_);fill:#FDFFFD;" d="M835,27.2v1.2
		c0,2,1.6,3.6,3.6,3.6h79.9c2,0,3.6-1.6,3.6-3.6v-1.2c0-2-1.6-3.6-3.6-3.6h-20.6c-2,0-3.6-1.6-3.6-3.6l0,0c0-2,1.6-3.6,3.6-3.6h39.3
		c2,0,3.6-1.6,3.6-3.6l0,0c0-2-1.6-3.6-3.6-3.6h-62.3c-2,0-3.6,1.6-3.6,3.6l0,0c0,2,1.6,3.6,3.6,3.6h1.8c2,0,3.6,1.6,3.6,3.6l0,0
		c0,2-1.6,3.6-3.6,3.6h-38.1C836.6,23.5,835,25.1,835,27.2z"/>
	<path style="clip-path:url(#SVGID_00000130606742506820498790000007332265676066555057_);fill:#FDFFFD;" d="M645.5,56h-15
		c-3.6,0-6.5-2.9-6.5-6.5l0,0c0-3.6,2.9-6.5,6.5-6.5h15c3.6,0,6.5,2.9,6.5,6.5l0,0C652,53.1,649.1,56,645.5,56z"/>
	<path style="clip-path:url(#SVGID_00000130606742506820498790000007332265676066555057_);fill:#FDFFFD;" d="M586.5,31h-15
		c-3.6,0-6.5-2.9-6.5-6.5l0,0c0-3.6,2.9-6.5,6.5-6.5h15c3.6,0,6.5,2.9,6.5,6.5l0,0C593,28.1,590.1,31,586.5,31z"/>
	<path style="clip-path:url(#SVGID_00000130606742506820498790000007332265676066555057_);fill:#FDFFFD;" d="M795.5,62h-17
		c-2.5,0-4.5-2-4.5-4.5l0,0c0-2.5,2-4.5,4.5-4.5h17c2.5,0,4.5,2,4.5,4.5l0,0C800,60,798,62,795.5,62z"/>
	<path style="clip-path:url(#SVGID_00000130606742506820498790000007332265676066555057_);fill:#FDFFFD;" d="M947.5,32h-17
		c-2.5,0-4.5-2-4.5-4.5l0,0c0-2.5,2-4.5,4.5-4.5h17c2.5,0,4.5,2,4.5,4.5l0,0C952,30,950,32,947.5,32z"/>
	<path style="clip-path:url(#SVGID_00000130606742506820498790000007332265676066555057_);fill:#FDFFFD;" d="M862.5,16h-14
		c-1.9,0-3.5-1.6-3.5-3.5l0,0c0-1.9,1.6-3.5,3.5-3.5h14c1.9,0,3.5,1.6,3.5,3.5l0,0C866,14.4,864.4,16,862.5,16z"/>
	<path style="clip-path:url(#SVGID_00000130606742506820498790000007332265676066555057_);fill:#FDFFFD;" d="M701.5,43h-13
		c-2.5,0-4.5-2-4.5-4.5l0,0c0-2.5,2-4.5,4.5-4.5h13c2.5,0,4.5,2,4.5,4.5l0,0C706,41,704,43,701.5,43z"/>
	<path style="clip-path:url(#SVGID_00000130606742506820498790000007332265676066555057_);fill:#FDFFFD;" d="M304,20h-6
		c-2.8,0-5-2.2-5-5v-1c0-2.8,2.2-5,5-5h6c2.8,0,5,2.2,5,5v1C309,17.8,306.8,20,304,20z"/>
	<path style="clip-path:url(#SVGID_00000130606742506820498790000007332265676066555057_);fill:#FDFFFD;" d="M416,83h-6
		c-2.8,0-5-2.2-5-5v-1c0-2.8,2.2-5,5-5h6c2.8,0,5,2.2,5,5v1C421,80.8,418.8,83,416,83z"/>
	<path style="clip-path:url(#SVGID_00000130606742506820498790000007332265676066555057_);fill:#FDFFFD;" d="M420,15h-7
		c-1.7,0-3-1.3-3-3l0,0c0-1.7,1.3-3,3-3h7c1.7,0,3,1.3,3,3l0,0C423,13.7,421.7,15,420,15z"/>
	<path style="clip-path:url(#SVGID_00000130606742506820498790000007332265676066555057_);fill:#FDFFFD;" d="M350,42h-7
		c-1.7,0-3-1.3-3-3l0,0c0-1.7,1.3-3,3-3h7c1.7,0,3,1.3,3,3l0,0C353,40.7,351.7,42,350,42z"/>
	<path style="clip-path:url(#SVGID_00000130606742506820498790000007332265676066555057_);fill:#FDFFFD;" d="M216,42h-6
		c-2.8,0-5-2.2-5-5v-1c0-2.8,2.2-5,5-5h6c2.8,0,5,2.2,5,5v1C221,39.8,218.8,42,216,42z"/>
	<path style="clip-path:url(#SVGID_00000130606742506820498790000007332265676066555057_);fill:#E85B1C;" d="M76.7,110
		c-0.3-0.2-0.8-0.5-0.4-1.1c1.1-1.9,5.5-7.8,5.5-7.8c-3.1,1.1-3.2,0.7-6-0.8c0.9-2.4,0.8-2.6,2.7-3.7c-3.6,0-2.9-0.1-7.3-2.8
		c0.6-1.7,2.7-3.9,3.9-4.4c-0.5-0.4-2.3-0.7-2-4.6c0.4-4.9,0.4-5.7,1-7.5c1.4,0.9,4.7,1.4,7.4,2.6c2.6,1.2,2.8,3.2,2.8,3.2
		c6.1-8.3,10-3.5,14.3-7c-1.4,5.5,4.7,7-0.4,16c0,0,2-0.6,4.1,1.2c2.3,2,4.2,4.7,5.5,5.6c-1.4,1.3-2.1,1.7-6.4,4.1
		c-3.4,1.9-4.4,0.4-5,0.1c0.1,1.3-1.1,4.1-2.3,5.3c-4.3-2.8-4.1-2.2-5.6-5.5c-0.2,2.1-0.5,2.1-2.2,4c-2.6-1.9-3-1.8-3.3-5.1
		c0,0-3.9,6.2-5.1,8C77.5,110.5,77.1,110.2,76.7,110"/>
	<path style="clip-path:url(#SVGID_00000130606742506820498790000007332265676066555057_);fill:#E85B1C;" d="M45,66.7
		c-0.4,0.2-0.8,0.4-1.2-0.3c-1-1.9-3.4-8.9-3.4-8.9c-0.8,3.2-1.2,3.1-4,4.5c-1.4-2.1-1.7-2.1-1.6-4.3c-2,2.9-1.7,2.4-6.4,4.5
		c-1.1-1.5-1.8-4.4-1.5-5.6c-0.6,0.2-1.8,1.5-4.9-0.9c-3.9-3.1-4.5-3.5-5.7-5c1.5-0.7,3.7-3.1,6.3-4.7c2.4-1.5,4.2-0.6,4.2-0.6
		c-3.6-9.7,2.7-10.2,2.1-15.8c3.7,4.2,8.4,0,13,9.2c0,0,0.6-2,3.3-2.7c2.9-0.8,6.3-0.8,7.8-1.5c0.3,1.9,0.2,2.6-0.2,7.6
		c-0.3,3.9-2.1,3.9-2.7,4.2c1.1,0.6,2.8,3.1,3.1,4.9c-4.7,2-4.1,2.1-7.7,1.6c1.6,1.4,1.5,1.6,2,4c-3,1.1-3.2,1.5-6.1-0.1
		c0,0,3,6.7,3.8,8.7C45.9,66.4,45.4,66.6,45,66.7"/>
	<path style="clip-path:url(#SVGID_00000130606742506820498790000007332265676066555057_);fill:#BC281D;" d="M195.5,94.3
		c-0.2-0.1-0.5-0.3-0.3-0.7c0.7-1.2,3.5-5,3.5-5c-2,0.7-2.1,0.5-3.9-0.5c0.6-1.5,0.5-1.7,1.7-2.4c-2.3,0-1.9-0.1-4.7-1.8
		c0.4-1.1,1.7-2.5,2.5-2.8c-0.3-0.3-1.5-0.4-1.3-2.9c0.2-3.2,0.3-3.7,0.6-4.8c0.9,0.6,3,0.9,4.8,1.7c1.6,0.8,1.8,2.1,1.8,2.1
		c3.9-5.4,6.4-2.2,9.2-4.5c-0.9,3.5,3,4.5-0.2,10.3c0,0,1.3-0.4,2.6,0.8c1.5,1.3,2.7,3,3.6,3.6c-0.9,0.8-1.3,1.1-4.1,2.6
		c-2.2,1.2-2.8,0.3-3.2,0.1c0.1,0.8-0.7,2.6-1.5,3.4c-2.7-1.8-2.6-1.4-3.6-3.5c-0.1,1.4-0.3,1.4-1.4,2.5c-1.7-1.2-1.9-1.2-2.1-3.3
		c0,0-2.5,4-3.3,5.1C196,94.6,195.8,94.4,195.5,94.3"/>
	<path style="clip-path:url(#SVGID_00000130606742506820498790000007332265676066555057_);fill:#E83821;" d="M308.3,123.3
		c-0.2,0.2-0.5,0.4-0.8,0c-0.9-1.1-3.3-5.2-3.3-5.2c-0.1,2.1-0.3,2.1-2,3.4c-1.2-1.1-1.3-1.1-1.5-2.5c-0.9,2.1-0.8,1.7-3.4,3.7
		c-0.9-0.8-1.7-2.5-1.7-3.4c-0.4,0.2-0.9,1.2-3.2,0.1c-2.8-1.4-3.3-1.7-4.2-2.4c0.8-0.6,2-2.4,3.4-3.8c1.3-1.2,2.6-0.9,2.6-0.9
		c-3.5-5.6,0.4-6.8-0.7-10.2c2.9,2.2,5.3-1.1,9.4,4.1c0,0,0.1-1.3,1.7-2.1c1.7-0.9,3.8-1.3,4.7-1.9c0.4,1.1,0.5,1.6,0.9,4.8
		c0.3,2.5-0.8,2.7-1.1,3c0.8,0.3,2.2,1.6,2.6,2.7c-2.7,1.8-2.3,1.9-4.6,2c1.2,0.6,1.1,0.8,1.8,2.3c-1.7,1.1-1.8,1.4-3.8,0.7
		c0,0,2.8,3.8,3.5,5C308.8,123,308.5,123.2,308.3,123.3"/>
	<path style="clip-path:url(#SVGID_00000130606742506820498790000007332265676066555057_);fill:#E83821;" d="M255.3,150.9
		c-0.2-0.2-0.5-0.5-0.2-0.9c1.1-1.3,5.5-5.2,5.5-5.2c-2.6,0.4-2.6,0.1-4.6-1.6c1.1-1.7,1-1.9,2.6-2.5c-2.8-0.6-2.3-0.5-5.3-3.3
		c0.7-1.2,2.7-2.6,3.7-2.8c-0.3-0.4-1.7-0.9-0.8-3.9c1.1-3.8,1.2-4.4,1.9-5.7c0.9,0.9,3.4,1.8,5.4,3.2c1.8,1.3,1.7,2.9,1.7,2.9
		c6-5.6,8.3-1.2,12.3-3.3c-1.9,4,2.6,6.1-2.7,12.4c0,0,1.6-0.2,3,1.6c1.5,1.9,2.5,4.3,3.4,5.2c-1.3,0.8-1.9,1-5.6,2.2
		c-3,1-3.5-0.3-3.9-0.7c-0.1,1-1.4,3-2.6,3.8c-2.9-2.9-2.8-2.4-3.5-5.1c-0.5,1.6-0.7,1.6-2.3,2.7c-1.7-1.9-2.1-1.9-1.8-4.5
		c0,0-4,4.3-5.2,5.5C255.8,151.5,255.5,151.2,255.3,150.9"/>
	<path style="clip-path:url(#SVGID_00000130606742506820498790000007332265676066555057_);fill:#E83821;" d="M321.5,158.7
		c-0.2,0.1-0.4,0.1-0.5-0.2c-0.4-1-1.2-4.3-1.2-4.3c-0.5,1.5-0.7,1.4-2.1,2c-0.6-1-0.7-1.1-0.6-2.1c-1.1,1.3-0.9,1-3.2,1.8
		c-0.4-0.7-0.6-2.1-0.5-2.7c-0.3,0.1-0.9,0.6-2.3-0.6c-1.7-1.6-2-1.9-2.5-2.6c0.7-0.2,1.9-1.3,3.2-1.9c1.2-0.6,2-0.1,2-0.1
		c-1.3-4.7,1.7-4.7,1.7-7.3c1.6,2.1,3.9,0.4,5.7,4.9c0,0,0.4-0.9,1.7-1.1c1.4-0.3,3-0.1,3.7-0.4c0.1,0.9,0,1.3-0.4,3.6
		c-0.3,1.8-1.1,1.7-1.4,1.9c0.5,0.4,1.2,1.6,1.3,2.4c-2.3,0.7-2,0.8-3.7,0.4c0.7,0.7,0.6,0.8,0.8,2c-1.5,0.4-1.6,0.6-2.8-0.3
		c0,0,1.1,3.3,1.4,4.3C321.9,158.5,321.7,158.6,321.5,158.7"/>
	<path style="clip-path:url(#SVGID_00000130606742506820498790000007332265676066555057_);fill:#C63922;" d="M395,166
		c-0.3,0.1-0.7,0.2-0.8-0.3c-0.5-1.5-1.7-6.9-1.7-6.9c-0.9,2.3-1.2,2.2-3.4,3c-0.9-1.7-1-1.7-0.8-3.3c-1.8,2-1.5,1.6-5.1,2.7
		c-0.6-1.2-0.9-3.4-0.6-4.3c-0.5,0.1-1.5,0.9-3.5-1.1c-2.6-2.6-3-3-3.7-4.2c1.2-0.4,3.1-1.9,5.1-2.9c1.9-0.9,3.2,0,3.2,0
		c-1.7-7.5,2.9-7.3,3-11.5c2.4,3.4,6.2,0.8,8.8,8c0,0,0.6-1.4,2.7-1.7c2.2-0.3,4.7,0,5.9-0.4c0,1.4-0.1,2-0.8,5.6
		c-0.6,2.9-1.9,2.7-2.3,2.9c0.8,0.6,1.8,2.6,1.9,3.9c-3.7,1-3.2,1.2-5.8,0.5c1.1,1.2,1,1.3,1.1,3.2c-2.3,0.6-2.5,0.8-4.5-0.6
		c0,0,1.6,5.2,2,6.8C395.7,165.8,395.3,165.9,395,166"/>
	<path style="clip-path:url(#SVGID_00000130606742506820498790000007332265676066555057_);fill:#C63922;" d="M428,152.6
		c-0.3-0.3-0.6-0.6-0.1-1.1c1.4-1.4,6.5-5.6,6.5-5.6c-3,0.3-3-0.1-5.1-2.1c1.3-1.9,1.3-2.1,3.1-2.6c-3.1-0.8-2.5-0.8-5.8-4.1
		c0.9-1.3,3.2-2.8,4.4-3c-0.4-0.5-1.8-1.1-0.7-4.4c1.4-4.2,1.7-4.9,2.5-6.4c1,1.1,3.8,2.2,5.9,4c2,1.6,1.8,3.4,1.8,3.4
		c7.2-6,9.5-0.8,14.1-3c-2.4,4.5,2.5,7.1-3.9,13.9c0,0,1.9-0.1,3.3,2c1.6,2.2,2.6,5.1,3.6,6.2c-1.5,0.8-2.2,1-6.5,2.1
		c-3.4,0.9-3.9-0.6-4.4-1c-0.2,1.2-1.8,3.3-3.2,4.2c-3.1-3.4-3.1-2.9-3.7-6c-0.7,1.8-0.9,1.8-2.8,3c-1.9-2.2-2.3-2.3-1.8-5.2
		c0,0-4.8,4.6-6.3,5.9C428.6,153.2,428.3,152.9,428,152.6"/>
	<path style="clip-path:url(#SVGID_00000130606742506820498790000007332265676066555057_);fill:#C11E11;" d="M505.4,142.7
		c-0.3,0.1-0.7,0.3-1-0.3c-0.8-1.7-2.7-7.7-2.7-7.7c-0.7,2.7-1.1,2.6-3.6,3.8c-1.2-1.8-1.4-1.9-1.2-3.7c-1.8,2.5-1.6,2-5.6,3.7
		c-0.9-1.3-1.4-3.8-1.1-4.9c-0.5,0.1-1.6,1.3-4.2-0.9c-3.3-2.7-3.8-3.2-4.7-4.5c1.3-0.5,3.3-2.6,5.6-3.9c2.1-1.2,3.7-0.4,3.7-0.4
		c-2.8-8.4,2.6-8.7,2.3-13.5c3.1,3.7,7.2,0.2,11,8.2c0,0,0.5-1.7,2.9-2.3c2.5-0.6,5.4-0.5,6.7-1c0.2,1.6,0.1,2.3-0.4,6.5
		c-0.4,3.4-1.9,3.3-2.4,3.6c0.9,0.6,2.3,2.8,2.6,4.3c-4.1,1.6-3.6,1.7-6.6,1.2c1.4,1.2,1.3,1.4,1.7,3.5c-2.6,0.9-2.8,1.2-5.2-0.2
		c0,0,2.4,5.8,3,7.6C506.2,142.4,505.8,142.6,505.4,142.7"/>
	<path style="clip-path:url(#SVGID_00000130606742506820498790000007332265676066555057_);fill:#C11E11;" d="M546.8,146.5
		c-0.2-0.1-0.4-0.3-0.2-0.6c0.7-1,3.4-3.9,3.4-3.9c-1.8,0.4-1.8,0.2-3.2-0.8c0.6-1.2,0.6-1.4,1.7-1.9c-2-0.2-1.6-0.2-3.8-2
		c0.4-0.9,1.7-2,2.4-2.2c-0.3-0.3-1.2-0.5-0.8-2.6c0.5-2.7,0.6-3.1,1-4.1c0.7,0.6,2.5,1,3.9,1.9c1.3,0.8,1.4,1.9,1.4,1.9
		c3.8-4.2,5.7-1.3,8.3-3c-1.1,2.9,2.2,4.1-1.1,8.7c0,0,1.1-0.2,2.2,0.9c1.2,1.2,2,2.8,2.7,3.4c-0.8,0.6-1.2,0.8-3.7,1.9
		c-2,0.9-2.4,0-2.7-0.2c0,0.7-0.8,2.2-1.6,2.8c-2.2-1.8-2.1-1.5-2.8-3.3c-0.2,1.1-0.4,1.1-1.4,2c-1.3-1.2-1.6-1.2-1.5-3
		c0,0-2.5,3.2-3.3,4.1C547.2,146.8,547,146.7,546.8,146.5"/>
	<path style="clip-path:url(#SVGID_00000130606742506820498790000007332265676066555057_);fill:#C11E11;" d="M532.8,119.1
		c-0.4-0.2-0.8-0.3-0.6-1c0.7-2,4.1-8.3,4.1-8.3c-2.8,1.6-3,1.2-5.9,0.1c0.5-2.4,0.4-2.6,2-3.9c-3.5,0.5-2.8,0.3-7.5-1.6
		c0.3-1.7,2-4.2,3.1-4.8c-0.5-0.3-2.3-0.3-2.6-4.1c-0.4-4.8-0.4-5.6-0.2-7.4c1.5,0.6,4.7,0.6,7.6,1.4c2.6,0.7,3.2,2.7,3.2,2.7
		c4.6-9,9.1-4.9,12.7-9c-0.5,5.5,5.6,6,2.1,15.4c0,0,1.8-0.9,4.1,0.5c2.5,1.5,4.7,3.9,6.2,4.6c-1.2,1.4-1.7,1.9-5.5,4.9
		c-3,2.4-4.2,1.1-4.8,0.9c0.3,1.2-0.4,4.1-1.4,5.5c-4.5-2.1-4.3-1.5-6.2-4.4c0.1,2.1-0.1,2.1-1.5,4.1c-2.8-1.4-3.2-1.3-4-4.4
		c0,0-2.8,6.6-3.7,8.5C533.7,119.5,533.2,119.3,532.8,119.1"/>
	<path style="clip-path:url(#SVGID_00000130606742506820498790000007332265676066555057_);fill:#BC3720;" d="M710.4,111.4
		c-0.3,0.2-0.6,0.5-1,0c-1.2-1.4-4.7-6.7-4.7-6.7c0,2.8-0.4,2.8-2.5,4.6c-1.6-1.5-1.8-1.4-2.2-3.2c-1.1,2.9-1,2.3-4.4,5.1
		c-1.2-1-2.4-3.3-2.4-4.4c-0.5,0.3-1.2,1.6-4.3,0.2c-3.9-1.8-4.5-2-5.8-3c1.1-0.9,2.5-3.4,4.3-5.2c1.7-1.7,3.4-1.3,3.4-1.3
		c-4.9-7.4,0.2-9.1-1.4-13.7c4,2.8,7-1.7,12.8,5c0,0,0.1-1.8,2.2-2.9c2.3-1.3,5.1-2,6.2-2.8c0.6,1.5,0.7,2.2,1.4,6.4
		c0.5,3.3-1,3.7-1.4,4.1c1.1,0.3,3,2.1,3.6,3.5c-3.6,2.6-3,2.6-6.1,2.9c1.6,0.8,1.6,1,2.5,3c-2.3,1.6-2.4,1.9-5.1,1.1
		c0,0,3.9,5,4.9,6.5C711,111,710.7,111.2,710.4,111.4"/>
	<path style="clip-path:url(#SVGID_00000130606742506820498790000007332265676066555057_);fill:#BC3720;" d="M670.7,141.6
		c-0.3-0.1-0.6-0.2-0.5-0.6c0.3-1.4,2-6.1,2-6.1c-1.8,1.4-1.9,1.1-4.1,0.6c0.1-1.7,0-1.8,1-2.9c-2.3,0.7-1.9,0.5-5.3-0.4
		c0.1-1.2,1-3.1,1.6-3.6c-0.4-0.2-1.6,0-2.2-2.6c-0.7-3.3-0.8-3.8-0.8-5.1c1.1,0.3,3.3,0,5.3,0.2c1.9,0.3,2.5,1.5,2.5,1.5
		c2.3-6.6,5.8-4.2,7.9-7.4c0.2,3.8,4.4,3.6,2.9,10.4c0,0,1.1-0.8,2.9,0c1.9,0.8,3.6,2.3,4.7,2.6c-0.7,1.1-1,1.5-3.3,3.9
		c-1.8,1.9-2.8,1.1-3.2,1.1c0.3,0.8,0.1,2.9-0.5,3.9c-3.3-1-3.1-0.6-4.7-2.4c0.3,1.4,0.1,1.5-0.7,3c-2.1-0.7-2.3-0.6-3.1-2.7
		c0,0-1.3,4.8-1.7,6.2C671.3,141.8,671,141.6,670.7,141.6"/>
	<path style="clip-path:url(#SVGID_00000130606742506820498790000007332265676066555057_);fill:#BC3720;" d="M611.4,142.3
		c-0.3-0.3-0.8-0.7-0.2-1.3c1.6-1.9,7.7-7.6,7.7-7.6c-3.7,0.7-3.8,0.2-6.6-2.2c1.5-2.5,1.5-2.7,3.7-3.6c-4-0.8-3.3-0.7-7.6-4.6
		c1-1.8,3.8-3.8,5.2-4.1c-0.5-0.6-2.4-1.2-1.3-5.5c1.4-5.4,1.7-6.3,2.7-8.2c1.4,1.2,5,2.5,7.8,4.5c2.6,1.8,2.5,4.2,2.5,4.2
		c8.5-8.1,11.9-1.8,17.5-5c-2.7,5.8,3.8,8.7-3.7,17.8c0,0,2.3-0.3,4.3,2.2c2.2,2.7,3.7,6.2,5,7.4c-1.8,1.1-2.7,1.4-8,3.3
		c-4.2,1.5-5-0.4-5.6-0.9c-0.2,1.5-2,4.4-3.7,5.5c-4.2-4.1-4.1-3.3-5.2-7.3c-0.7,2.3-1,2.3-3.3,4c-2.5-2.6-3-2.7-2.6-6.4
		c0,0-5.6,6.2-7.4,7.9C612.2,143.1,611.8,142.7,611.4,142.3"/>
	<path style="clip-path:url(#SVGID_00000130606742506820498790000007332265676066555057_);fill:#E03822;" d="M813.2,112.2
		c-0.2,0-0.5-0.1-0.5-0.5c0.1-1.2,0.9-5.1,0.9-5.1c-1.3,1.3-1.4,1.1-3.2,1c-0.1-1.4-0.2-1.5,0.5-2.4c-1.8,0.8-1.5,0.6-4.3,0.3
		c-0.1-1,0.4-2.5,0.9-3c-0.3-0.1-1.3,0.2-2-1.8c-0.9-2.5-1.1-2.9-1.2-3.9c0.9,0.1,2.6-0.4,4.3-0.4c1.5,0,2.1,0.9,2.1,0.9
		c1.1-5.5,4.1-4,5.5-6.8c0.6,3,3.9,2.4,3.5,8c0,0,0.8-0.8,2.3-0.3c1.6,0.4,3.2,1.4,4,1.5c-0.4,0.9-0.6,1.3-2.2,3.5
		c-1.3,1.7-2.1,1.2-2.4,1.2c0.3,0.6,0.4,2.3,0.1,3.2c-2.8-0.4-2.5-0.2-4-1.4c0.4,1.1,0.3,1.2-0.2,2.5c-1.7-0.3-1.9-0.2-2.8-1.8
		c0,0-0.5,4-0.7,5.1C813.7,112.2,813.4,112.2,813.2,112.2"/>
	<path style="clip-path:url(#SVGID_00000130606742506820498790000007332265676066555057_);fill:#E03822;" d="M818.3,137.5
		c0,0.4,0,1-0.8,1c-2.3,0-9.9-1.1-9.9-1.1c2.6,2.3,2.3,2.6,2.2,5.9c-2.6,0.3-2.8,0.5-4.7-0.6c1.8,3.3,1.4,2.7,1.1,8.1
		c-1.9,0.3-4.9-0.5-5.9-1.4c-0.1,0.7,0.5,2.4-3.2,4.1c-4.7,2.1-5.4,2.5-7.4,2.8c0.1-1.7-1.1-5-1.3-8.1c-0.2-2.9,1.5-4.2,1.5-4.2
		c-10.7-1.4-8.2-7.4-13.6-9.6c5.7-1.4,4-7.8,14.8-7.7c0,0-1.5-1.5-0.9-4.4c0.6-3.1,2.3-6.2,2.4-7.9c1.9,0.6,2.6,1.1,6.9,3.8
		c3.5,2.2,2.6,3.8,2.6,4.5c1.1-0.7,4.3-1.1,6.1-0.5c-0.5,5.3,0,4.8-2.2,7.9c2-0.9,2.2-0.6,4.7,0c-0.4,3.3-0.1,3.7-3,5.6
		c0,0,7.6,0.4,9.9,0.7C818.4,136.5,818.3,137.1,818.3,137.5"/>
	<path style="clip-path:url(#SVGID_00000130606742506820498790000007332265676066555057_);fill:#E03822;" d="M761.3,128.4
		c-0.2,0-0.5,0-0.6-0.4c-0.1-1.3-0.1-5.5-0.1-5.5c-1.1,1.6-1.3,1.4-3.1,1.7c-0.4-1.4-0.5-1.5,0-2.6c-1.7,1.2-1.4,0.9-4.4,1.2
		c-0.3-1-0.1-2.7,0.3-3.4c-0.4,0-1.3,0.5-2.5-1.5c-1.5-2.4-1.7-2.8-2.1-3.9c0.9-0.1,2.7-0.9,4.4-1.3c1.6-0.3,2.4,0.5,2.4,0.5
		c0-6,3.5-5,4.3-8.2c1.2,3,4.6,1.7,5.3,7.6c0,0,0.7-1,2.3-0.8c1.8,0.1,3.6,0.8,4.5,0.8c-0.2,1.1-0.4,1.5-1.6,4.1
		c-1,2.1-1.9,1.7-2.3,1.8c0.5,0.6,0.9,2.3,0.7,3.3c-3,0.1-2.7,0.3-4.5-0.7c0.6,1.1,0.5,1.2,0.3,2.6c-1.9,0-2,0.2-3.3-1.3
		c0,0,0.3,4.2,0.3,5.5C761.8,128.3,761.5,128.3,761.3,128.4"/>
	<path style="clip-path:url(#SVGID_00000130606742506820498790000007332265676066555057_);fill:#C12014;" d="M940.7,107.4
		c-0.4-0.1-0.9-0.1-0.9-0.9c0.2-2.2,1.7-9.5,1.7-9.5c-2.4,2.4-2.7,2.1-5.9,1.8c-0.2-2.6-0.3-2.7,0.9-4.5c-3.3,1.5-2.8,1.1-7.9,0.5
		c-0.2-1.8,0.8-4.7,1.7-5.7c-0.6-0.2-2.4,0.4-3.8-3.4c-1.8-4.7-2-5.5-2.3-7.4c1.6,0.2,4.9-0.7,8-0.7c2.9,0,4,1.8,4,1.8
		c2-10.3,7.7-7.5,10.2-12.6c1,5.6,7.3,4.4,6.5,14.9c0,0,1.5-1.4,4.3-0.6c3,0.8,5.9,2.6,7.5,2.8c-0.7,1.8-1.2,2.4-4.2,6.5
		c-2.3,3.2-3.9,2.3-4.5,2.3c0.6,1.2,0.8,4.2,0.1,5.9c-5.1-0.8-4.7-0.3-7.5-2.6c0.7,2,0.5,2.2-0.4,4.6c-3.2-0.6-3.6-0.4-5.2-3.3
		c0,0-0.9,7.4-1.3,9.6C941.6,107.5,941.1,107.5,940.7,107.4"/>
	<path style="clip-path:url(#SVGID_00000130606742506820498790000007332265676066555057_);fill:#E55E23;" d="M1048.5,68.7
		c-0.5-0.3-1.2-0.5-0.8-1.5c1.2-2.8,6.3-11.7,6.3-11.7c-4.1,2.1-4.4,1.6-8.5-0.2c0.9-3.4,0.7-3.7,3.1-5.6c-5,0.5-4.1,0.3-10.6-2.7
		c0.6-2.5,3.1-5.9,4.7-6.7c-0.8-0.5-3.3-0.6-3.5-6c-0.3-6.9-0.3-8,0.2-10.6c2.1,1,6.7,1.2,10.8,2.5c3.8,1.2,4.5,4,4.5,4
		c7.1-12.6,13.3-6.5,18.8-12.2c-1.1,7.8,7.6,8.9,2.1,22.3c0,0,2.6-1.2,5.9,1c3.5,2.4,6.6,5.9,8.6,6.9c-1.7,2-2.6,2.6-8.2,6.7
		c-4.4,3.2-6,1.3-6.9,1c0.3,1.8-0.8,5.8-2.4,7.8c-6.4-3.3-6-2.4-8.7-6.7c0,3-0.3,3-2.4,5.9c-3.9-2.2-4.5-2-5.4-6.6
		c0,0-4.3,9.3-5.8,12C1049.7,69.3,1049,69,1048.5,68.7"/>
	<path style="clip-path:url(#SVGID_00000130606742506820498790000007332265676066555057_);fill:#E55E23;" d="M1023.4,88.1
		c0,0.4,0.1,0.8-0.6,0.9c-1.9,0.2-8.2,0-8.2,0c2.3,1.6,2.1,1.9,2.4,4.6c-2.1,0.5-2.2,0.7-3.9-0.1c1.7,2.5,1.4,2.1,1.6,6.5
		c-1.5,0.4-4,0.1-5-0.6c0,0.6,0.7,1.9-2.2,3.6c-3.6,2.2-4.2,2.5-5.8,3c-0.1-1.4-1.3-4-1.8-6.5c-0.4-2.4,0.9-3.6,0.9-3.6
		c-8.8-0.1-7.4-5.3-12-6.6c4.5-1.7,2.6-6.7,11.4-7.6c0,0-1.4-1.1-1.2-3.5c0.2-2.6,1.3-5.3,1.2-6.7c1.6,0.4,2.2,0.6,6,2.5
		c3,1.5,2.5,2.9,2.6,3.4c0.9-0.7,3.4-1.3,4.9-1c0.1,4.4,0.4,3.9-1.1,6.6c1.6-0.9,1.7-0.7,3.9-0.4c0,2.7,0.2,3-1.9,4.8
		c0,0,6.3-0.4,8.1-0.4C1023.3,87.3,1023.3,87.7,1023.4,88.1"/>
	<path style="clip-path:url(#SVGID_00000130606742506820498790000007332265676066555057_);fill:#C12014;" d="M917.2,130.9
		c-0.2,0.1-0.5,0.1-0.6-0.3c-0.3-1.2-1-5.5-1-5.5c-0.8,1.8-1,1.6-2.8,2.2c-0.6-1.4-0.7-1.4-0.4-2.6c-1.5,1.5-1.3,1.2-4.2,1.9
		c-0.4-1-0.5-2.7-0.2-3.4c-0.4,0-1.2,0.7-2.7-1.1c-1.9-2.2-2.2-2.5-2.7-3.5c0.9-0.2,2.5-1.4,4.2-2c1.5-0.6,2.5,0.2,2.5,0.2
		c-1-6,2.7-5.6,3-8.9c1.7,2.8,4.8,0.9,6.5,6.7c0,0,0.5-1.1,2.2-1.2c1.8-0.1,3.7,0.2,4.6,0c-0.1,1.1-0.2,1.5-0.9,4.3
		c-0.6,2.2-1.6,2-2,2.1c0.6,0.5,1.3,2.1,1.3,3.2c-2.9,0.6-2.6,0.8-4.6,0.1c0.8,1,0.7,1.1,0.7,2.6c-1.9,0.3-2,0.5-3.5-0.7
		c0,0,1,4.2,1.2,5.4C917.8,130.8,917.5,130.9,917.2,130.9"/>
	<path style="clip-path:url(#SVGID_00000130606742506820498790000007332265676066555057_);fill:#C12014;" d="M875.9,99.6
		c-0.3-0.2-0.6-0.4-0.3-0.9c0.8-1.5,4.3-6.2,4.3-6.2c-2.4,0.9-2.5,0.6-4.8-0.6c0.7-1.9,0.6-2,2.1-2.9c-2.8,0-2.3-0.1-5.8-2.2
		c0.5-1.3,2.1-3.1,3-3.5c-0.4-0.3-1.8-0.5-1.6-3.6c0.3-3.9,0.3-4.5,0.8-5.9c1.1,0.7,3.7,1.1,5.9,2.1c2,0.9,2.2,2.5,2.2,2.5
		c4.8-6.6,7.9-2.8,11.3-5.6c-1.1,4.3,3.7,5.5-0.2,12.6c0,0,1.5-0.5,3.2,0.9c1.8,1.6,3.3,3.7,4.4,4.4c-1.1,1-1.6,1.3-5,3.2
		c-2.7,1.5-3.5,0.4-3.9,0.1c0.1,1-0.8,3.2-1.8,4.2c-3.4-2.2-3.2-1.7-4.5-4.3c-0.2,1.7-0.4,1.7-1.7,3.1c-2.1-1.5-2.4-1.4-2.6-4
		c0,0-3,4.9-4,6.3C876.5,100,876.1,99.8,875.9,99.6"/>
	<path style="clip-path:url(#SVGID_00000130606742506820498790000007332265676066555057_);fill:#BC281D;" d="M163.6,108.6
		c-0.3,0.1-0.7,0.3-1-0.2c-0.8-1.6-2.9-7.5-2.9-7.5c-0.7,2.7-1,2.6-3.4,3.8c-1.2-1.8-1.4-1.8-1.3-3.6c-1.7,2.5-1.5,2-5.4,3.8
		c-0.9-1.2-1.5-3.7-1.2-4.8c-0.5,0.2-1.5,1.3-4.1-0.8c-3.3-2.6-3.8-3-4.8-4.3c1.3-0.6,3.2-2.6,5.4-4c2-1.2,3.6-0.5,3.6-0.5
		c-3-8.2,2.3-8.7,1.8-13.4c3.2,3.6,7.1,0,11.1,7.8c0,0,0.5-1.7,2.8-2.3c2.5-0.7,5.3-0.7,6.6-1.2c0.2,1.6,0.2,2.2-0.2,6.4
		c-0.3,3.3-1.8,3.3-2.2,3.6c1,0.5,2.4,2.7,2.7,4.2c-4,1.7-3.5,1.8-6.5,1.4c1.4,1.2,1.3,1.3,1.7,3.4c-2.5,1-2.7,1.3-5.1-0.1
		c0,0,2.6,5.7,3.2,7.4C164.3,108.3,163.9,108.5,163.6,108.6"/>
	<path style="clip-path:url(#SVGID_00000130606742506820498790000007332265676066555057_);fill:#BC281D;" d="M179,130.3
		c-0.1-0.2-0.3-0.5,0.1-0.8c1.1-0.8,5.3-3,5.3-3c-2.1-0.2-2.1-0.5-3.2-2.1c1.2-1.1,1.2-1.3,2.5-1.4c-2-1-1.7-0.9-3.4-3.6
		c0.8-0.8,2.6-1.5,3.4-1.4c-0.2-0.4-1.1-1,0.1-3.2c1.6-2.7,1.8-3.2,2.7-4c0.6,0.9,2.3,2.1,3.5,3.6c1.1,1.4,0.7,2.6,0.7,2.6
		c5.8-3.1,6.7,0.8,10.2-0.1c-2.3,2.7,0.8,5.3-4.6,9.1c0,0,1.3,0.2,2,1.8c0.8,1.8,1.1,3.9,1.6,4.8c-1.2,0.3-1.7,0.4-4.8,0.6
		c-2.5,0.2-2.6-1-2.9-1.3c-0.3,0.8-1.7,2-2.8,2.4c-1.7-2.8-1.7-2.4-1.7-4.7c-0.7,1.2-0.9,1.1-2.4,1.7c-1-1.8-1.2-1.9-0.5-3.8
		c0,0-3.9,2.5-5.2,3.2C179.3,130.8,179.2,130.5,179,130.3"/>
</g>
</svg>
