<?xml version="1.0" encoding="utf-8"?>
<!-- Generator: Adobe Illustrator 27.2.0, SVG Export Plug-In . SVG Version: 6.00 Build 0)  -->
<svg version="1.1" id="Layer_1" xmlns="http://www.w3.org/2000/svg" xmlns:xlink="http://www.w3.org/1999/xlink" x="0px" y="0px"
	 viewBox="0 0 1100 250" style="enable-background:new 0 0 1100 250;" xml:space="preserve">
<style type="text/css">
	.st0{clip-path:url(#SVGID_00000142881108261010965230000013808310727819947141_);fill:#5F7EFF;}
	.st1{clip-path:url(#SVGID_00000142881108261010965230000013808310727819947141_);fill:#FDFFFD;}
	.st2{clip-path:url(#SVGID_00000142881108261010965230000013808310727819947141_);fill:none;}
	.st3{clip-path:url(#SVGID_00000142881108261010965230000013808310727819947141_);fill:#5C485E;}
	.st4{clip-path:url(#SVGID_00000142881108261010965230000013808310727819947141_);fill:#8E3E1E;}
	.st5{clip-path:url(#SVGID_00000142881108261010965230000013808310727819947141_);fill:#C1D8F1;}
	.st6{clip-path:url(#SVGID_00000142881108261010965230000013808310727819947141_);fill:#773118;}
	.st7{clip-path:url(#SVGID_00000142881108261010965230000013808310727819947141_);fill:#6D2912;}
	.st8{clip-path:url(#SVGID_00000142881108261010965230000013808310727819947141_);fill:#7F422D;}
	.st9{clip-path:url(#SVGID_00000142881108261010965230000013808310727819947141_);fill:#6D3526;}
	.st10{clip-path:url(#SVGID_00000142881108261010965230000013808310727819947141_);fill:#874439;}
	.st11{clip-path:url(#SVGID_00000142881108261010965230000013808310727819947141_);fill:#85C0EB;}
	.st12{clip-path:url(#SVGID_00000142881108261010965230000013808310727819947141_);fill:#753832;}
	.st13{clip-path:url(#SVGID_00000142881108261010965230000013808310727819947141_);fill:#99C0FF;}
	.st14{clip-path:url(#SVGID_00000142881108261010965230000013808310727819947141_);fill:#FFC6B7;}
	.st15{clip-path:url(#SVGID_00000142881108261010965230000013808310727819947141_);fill:#7C351C;}
	.st16{clip-path:url(#SVGID_00000142881108261010965230000013808310727819947141_);fill:#7BB1FF;}
	.st17{clip-path:url(#SVGID_00000142881108261010965230000013808310727819947141_);fill:#A8552D;}
	.st18{clip-path:url(#SVGID_00000142881108261010965230000013808310727819947141_);fill:#B7E2F6;}
	.st19{clip-path:url(#SVGID_00000142881108261010965230000013808310727819947141_);fill:#BDEBFF;}
	.st20{clip-path:url(#SVGID_00000142881108261010965230000013808310727819947141_);}
	.st21{fill:#E9F9FF;}
	.st22{fill:#BDD6F9;}
	.st23{fill:#DAE7F2;}
	.st24{fill:#B6DBF2;}
	.st25{fill:#DCEBF9;}
	.st26{fill:#DEECF9;}
	.st27{fill:#CCE1FF;}
	.st28{fill:#E4F3F9;}
</style>
<g>
	<defs>
		<rect id="SVGID_1_" x="0.6" y="0.2" width="1099.4" height="249.8"/>
	</defs>
	<clipPath id="SVGID_00000176736373809623178880000015881800724113698992_">
		<use xlink:href="#SVGID_1_"  style="overflow:visible;"/>
	</clipPath>
	
		<rect x="0.6" y="0.2" style="clip-path:url(#SVGID_00000176736373809623178880000015881800724113698992_);fill:#5F7EFF;" width="1101" height="250"/>
	<path style="clip-path:url(#SVGID_00000176736373809623178880000015881800724113698992_);fill:#FDFFFD;" d="M376.6,86.7v1
		c0,2.5,2,4.5,4.5,4.5h7c2.5,0,4.5,2,4.5,4.5l0,0c0,2.5-2,4.5-4.5,4.5h-43c-2.5,0-4.5-2-4.5-4.5l0,0c0-2.5,2-4.5,4.5-4.5h6
		c2.5,0,4.5-2,4.5-4.5v-1c0-2.5-2-4.5-4.5-4.5h-26c-2.5,0-4.5-2-4.5-4.5l0,0c0-2.5,2-4.5,4.5-4.5h3c2.5,0,4.5-2,4.5-4.5v-2
		c0-2.5-2-4.5-4.5-4.5h-6c-2.5,0-4.5-2-4.5-4.5l0,0c0-2.5,2-4.5,4.5-4.5h43c2.5,0,4.5,2,4.5,4.5l0,0c0,2.5-2,4.5-4.5,4.5h-11
		c-2.5,0-4.5,2-4.5,4.5v2c0,2.5,2,4.5,4.5,4.5h42c2.5,0,4.5,2,4.5,4.5l0,0c0,2.5-2,4.5-4.5,4.5h-15
		C378.6,82.2,376.6,84.2,376.6,86.7z"/>
	<path style="clip-path:url(#SVGID_00000176736373809623178880000015881800724113698992_);fill:#FDFFFD;" d="M367,32.1v0.7
		c0,1.7-1.4,3.1-3.1,3.1h-4.8c-1.7,0-3.1,1.4-3.1,3.1l0,0c0,1.7,1.4,3.1,3.1,3.1h29.5c1.7,0,3.1-1.4,3.1-3.1l0,0
		c0-1.7-1.4-3.1-3.1-3.1h-4.1c-1.7,0-3.1-1.4-3.1-3.1v-0.7c0-1.7,1.4-3.1,3.1-3.1h17.9c1.7,0,3.1-1.4,3.1-3.1l0,0
		c0-1.7-1.4-3.1-3.1-3.1h-2.1c-1.7,0-3.1-1.4-3.1-3.1v-1.4c0-1.7,1.4-3.1,3.1-3.1h4.1c1.7,0,3.1-1.4,3.1-3.1l0,0
		c0-1.7-1.4-3.1-3.1-3.1h-29.5c-1.7,0-3.1,1.4-3.1,3.1l0,0c0,1.7,1.4,3.1,3.1,3.1h7.5c1.7,0,3.1,1.4,3.1,3.1v1.4
		c0,1.7-1.4,3.1-3.1,3.1h-28.8c-1.7,0-3.1,1.4-3.1,3.1l0,0c0,1.7,1.4,3.1,3.1,3.1h10.3C365.6,29,367,30.4,367,32.1z"/>
	<path style="clip-path:url(#SVGID_00000176736373809623178880000015881800724113698992_);fill:#FDFFFD;" d="M733.6,47.7v1
		c0,2.5-2,4.5-4.5,4.5h-7c-2.5,0-4.5,2-4.5,4.5l0,0c0,2.5,2,4.5,4.5,4.5h43c2.5,0,4.5-2,4.5-4.5l0,0c0-2.5-2-4.5-4.5-4.5h-6
		c-2.5,0-4.5-2-4.5-4.5v-1c0-2.5,2-4.5,4.5-4.5h26c2.5,0,4.5-2,4.5-4.5l0,0c0-2.5-2-4.5-4.5-4.5h-3c-2.5,0-4.5-2-4.5-4.5v-2
		c0-2.5,2-4.5,4.5-4.5h6c2.5,0,4.5-2,4.5-4.5l0,0c0-2.5-2-4.5-4.5-4.5h-43c-2.5,0-4.5,2-4.5,4.5l0,0c0,2.5,2,4.5,4.5,4.5h11
		c2.5,0,4.5,2,4.5,4.5v2c0,2.5-2,4.5-4.5,4.5h-42c-2.5,0-4.5,2-4.5,4.5l0,0c0,2.5,2,4.5,4.5,4.5h15
		C731.6,43.2,733.6,45.2,733.6,47.7z"/>
	<path style="clip-path:url(#SVGID_00000176736373809623178880000015881800724113698992_);fill:#FDFFFD;" d="M152.2,26.4V27
		c0,1.5,1.2,2.7,2.7,2.7h4.2c1.5,0,2.7,1.2,2.7,2.7l0,0c0,1.5-1.2,2.7-2.7,2.7h-26c-1.5,0-2.7-1.2-2.7-2.7l0,0
		c0-1.5,1.2-2.7,2.7-2.7h3.6c1.5,0,2.7-1.2,2.7-2.7v-0.6c0-1.5-1.2-2.7-2.7-2.7H121c-1.5,0-2.7-1.2-2.7-2.7l0,0
		c0-1.5,1.2-2.7,2.7-2.7h1.8c1.5,0,2.7-1.2,2.7-2.7v-1.2c0-1.5-1.2-2.7-2.7-2.7h-3.6c-1.5,0-2.7-1.2-2.7-2.7l0,0
		c0-1.5,1.2-2.7,2.7-2.7h26c1.5,0,2.7,1.2,2.7,2.7l0,0c0,1.5-1.2,2.7-2.7,2.7h-6.6c-1.5,0-2.7,1.2-2.7,2.7v1.2
		c0,1.5,1.2,2.7,2.7,2.7H164c1.5,0,2.7,1.2,2.7,2.7l0,0c0,1.5-1.2,2.7-2.7,2.7h-9.1C153.5,23.7,152.2,24.9,152.2,26.4z"/>
	<path style="clip-path:url(#SVGID_00000176736373809623178880000015881800724113698992_);fill:#FDFFFD;" d="M296.5,35v3
		c0,2.3-1.8,4.1-4.1,4.1H228c-2.3,0-4.1-1.8-4.1-4.1v-3c0-2.3,1.8-4.1,4.1-4.1h6.9c2.3,0,4.1-1.8,4.1-4.1v-2.3
		c0-2.3-1.8-4.1-4.1-4.1h-16.2c-2.3,0-4.1-1.8-4.1-4.1v-3c0-2.3,1.8-4.1,4.1-4.1h64.4c2.3,0,4.1,1.8,4.1,4.1v3
		c0,2.3-1.8,4.1-4.1,4.1h-26.3c-2.3,0-4.1,1.8-4.1,4.1v2.3c0,2.3,1.8,4.1,4.1,4.1h35.7C294.7,30.9,296.5,32.8,296.5,35z"/>
	<path style="clip-path:url(#SVGID_00000176736373809623178880000015881800724113698992_);fill:#FDFFFD;" d="M618.2,49v2
		c0,3.3-2.7,6-6,6h-132c-3.3,0-6-2.7-6-6v-2c0-3.3,2.7-6,6-6h34c3.3,0,6-2.7,6-6l0,0c0-3.3-2.7-6-6-6h-65c-3.3,0-6-2.7-6-6l0,0
		c0-3.3,2.7-6,6-6h103c3.3,0,6,2.7,6,6l0,0c0,3.3-2.7,6-6,6h-3c-3.3,0-6,2.7-6,6l0,0c0,3.3,2.7,6,6,6h63
		C615.6,43,618.2,45.7,618.2,49z"/>
	<path style="clip-path:url(#SVGID_00000176736373809623178880000015881800724113698992_);fill:#FDFFFD;" d="M835.6,27.4v1.2
		c0,2,1.6,3.6,3.6,3.6h79.9c2,0,3.6-1.6,3.6-3.6v-1.2c0-2-1.6-3.6-3.6-3.6h-20.6c-2,0-3.6-1.6-3.6-3.6l0,0c0-2,1.6-3.6,3.6-3.6h39.3
		c2,0,3.6-1.6,3.6-3.6l0,0c0-2-1.6-3.6-3.6-3.6h-62.3c-2,0-3.6,1.6-3.6,3.6l0,0c0,2,1.6,3.6,3.6,3.6h1.8c2,0,3.6,1.6,3.6,3.6l0,0
		c0,2-1.6,3.6-3.6,3.6h-38.1C837.2,23.7,835.6,25.3,835.6,27.4z"/>
	<path style="clip-path:url(#SVGID_00000176736373809623178880000015881800724113698992_);fill:#FDFFFD;" d="M646.1,56.2h-15
		c-3.6,0-6.5-2.9-6.5-6.5l0,0c0-3.6,2.9-6.5,6.5-6.5h15c3.6,0,6.5,2.9,6.5,6.5l0,0C652.6,53.3,649.7,56.2,646.1,56.2z"/>
	<path style="clip-path:url(#SVGID_00000176736373809623178880000015881800724113698992_);fill:#FDFFFD;" d="M587.1,31.2h-15
		c-3.6,0-6.5-2.9-6.5-6.5l0,0c0-3.6,2.9-6.5,6.5-6.5h15c3.6,0,6.5,2.9,6.5,6.5l0,0C593.6,28.3,590.7,31.2,587.1,31.2z"/>
	<path style="clip-path:url(#SVGID_00000176736373809623178880000015881800724113698992_);fill:#FDFFFD;" d="M796.1,62.2h-17
		c-2.5,0-4.5-2-4.5-4.5l0,0c0-2.5,2-4.5,4.5-4.5h17c2.5,0,4.5,2,4.5,4.5l0,0C800.6,60.2,798.6,62.2,796.1,62.2z"/>
	<path style="clip-path:url(#SVGID_00000176736373809623178880000015881800724113698992_);fill:#FDFFFD;" d="M948.1,32.2h-17
		c-2.5,0-4.5-2-4.5-4.5l0,0c0-2.5,2-4.5,4.5-4.5h17c2.5,0,4.5,2,4.5,4.5l0,0C952.6,30.2,950.6,32.2,948.1,32.2z"/>
	<path style="clip-path:url(#SVGID_00000176736373809623178880000015881800724113698992_);fill:#FDFFFD;" d="M863.1,16.2h-14
		c-1.9,0-3.5-1.6-3.5-3.5l0,0c0-1.9,1.6-3.5,3.5-3.5h14c1.9,0,3.5,1.6,3.5,3.5l0,0C866.6,14.6,865,16.2,863.1,16.2z"/>
	<path style="clip-path:url(#SVGID_00000176736373809623178880000015881800724113698992_);fill:#FDFFFD;" d="M702.1,43.2h-13
		c-2.5,0-4.5-2-4.5-4.5l0,0c0-2.5,2-4.5,4.5-4.5h13c2.5,0,4.5,2,4.5,4.5l0,0C706.6,41.2,704.6,43.2,702.1,43.2z"/>
	<path style="clip-path:url(#SVGID_00000176736373809623178880000015881800724113698992_);fill:#FDFFFD;" d="M304.6,20.2h-6
		c-2.8,0-5-2.2-5-5v-1c0-2.8,2.2-5,5-5h6c2.8,0,5,2.2,5,5v1C309.6,18,307.4,20.2,304.6,20.2z"/>
	<path style="clip-path:url(#SVGID_00000176736373809623178880000015881800724113698992_);fill:#FDFFFD;" d="M416.6,83.2h-6
		c-2.8,0-5-2.2-5-5v-1c0-2.8,2.2-5,5-5h6c2.8,0,5,2.2,5,5v1C421.6,81,419.4,83.2,416.6,83.2z"/>
	<path style="clip-path:url(#SVGID_00000176736373809623178880000015881800724113698992_);fill:#FDFFFD;" d="M420.6,15.2h-7
		c-1.7,0-3-1.3-3-3l0,0c0-1.7,1.3-3,3-3h7c1.7,0,3,1.3,3,3l0,0C423.6,13.9,422.3,15.2,420.6,15.2z"/>
	<path style="clip-path:url(#SVGID_00000176736373809623178880000015881800724113698992_);fill:#FDFFFD;" d="M350.6,42.2h-7
		c-1.7,0-3-1.3-3-3l0,0c0-1.7,1.3-3,3-3h7c1.7,0,3,1.3,3,3l0,0C353.6,40.9,352.3,42.2,350.6,42.2z"/>
	<path style="clip-path:url(#SVGID_00000176736373809623178880000015881800724113698992_);fill:#FDFFFD;" d="M216.6,42.2h-6
		c-2.8,0-5-2.2-5-5v-1c0-2.8,2.2-5,5-5h6c2.8,0,5,2.2,5,5v1C221.6,40,219.4,42.2,216.6,42.2z"/>
	
		<rect x="0.6" y="0.2" style="clip-path:url(#SVGID_00000176736373809623178880000015881800724113698992_);fill:none;" width="1101" height="250"/>
	<path style="clip-path:url(#SVGID_00000176736373809623178880000015881800724113698992_);fill:#5C485E;" d="M1100,14v236H0V14
		c151.5,118.7,342.5,138.7,550,138.7S948.5,132.7,1100,14z"/>
	<path style="clip-path:url(#SVGID_00000176736373809623178880000015881800724113698992_);fill:#8E3E1E;" d="M341.6,193.1v17.1
		c0,5.4-4.4,9.8-9.8,9.8H313c-2.5,0-4.5,2-4.5,4.5v31.1h-42.8v-36.8c0-2.5-2-4.5-4.5-4.5h-24.1c-2.8,0-5-2.2-5-5v-21.3h12.4V198
		c0,2.1,1.7,3.8,3.8,3.8h12.9c2.5,0,4.5-2,4.5-4.5v-35c0-11.8,9.6-21.4,21.4-21.4l0,0c11.8,0,21.4,9.6,21.4,21.4v35.5
		c0,2.5,2,4.5,4.5,4.5h6.1c2.7,0,5-2.2,5-5v-4.3L341.6,193.1L341.6,193.1z"/>
	<path style="clip-path:url(#SVGID_00000176736373809623178880000015881800724113698992_);fill:#C1D8F1;" d="M350.6,168.3h-127
		c-4.7,0-8.5-3.8-8.5-8.5v-6.2c0-39.8,32.2-72,72-72l0,0c39.8,0,72,32.2,72,72v6.2C359.1,164.5,355.3,168.3,350.6,168.3z"/>
	<path style="clip-path:url(#SVGID_00000176736373809623178880000015881800724113698992_);fill:#C1D8F1;" d="M256.1,192.2h-35.3
		v-2.3c0-6.9,5.6-12.5,12.5-12.5h10.3c6.9,0,12.5,5.6,12.5,12.5L256.1,192.2L256.1,192.2z"/>
	<path style="clip-path:url(#SVGID_00000176736373809623178880000015881800724113698992_);fill:#C1D8F1;" d="M353.1,193.6h-38.1
		v-3.5c0-6.9,5.6-12.5,12.5-12.5h13.1c6.9,0,12.5,5.6,12.5,12.5L353.1,193.6L353.1,193.6z"/>
	<path style="clip-path:url(#SVGID_00000176736373809623178880000015881800724113698992_);fill:#773118;" d="M275.3,204L275.3,204
		c-1.9,0-3.4-1.5-3.4-3.4v-20.7c0-1.9,1.5-3.4,3.4-3.4l0,0c1.9,0,3.4,1.5,3.4,3.4v20.7C278.6,202.5,277.1,204,275.3,204z"/>
	<path style="clip-path:url(#SVGID_00000176736373809623178880000015881800724113698992_);fill:#773118;" d="M275.3,235L275.3,235
		c-1.9,0-3.4-1.5-3.4-3.4v-20.7c0-1.9,1.5-3.4,3.4-3.4l0,0c1.9,0,3.4,1.5,3.4,3.4v20.7C278.6,233.5,277.1,235,275.3,235z"/>
	<path style="clip-path:url(#SVGID_00000176736373809623178880000015881800724113698992_);fill:#6D2912;" d="M299.5,250.9
		L299.5,250.9c-1.9,0-3.4-1.5-3.4-3.4v-13.9c0-1.9,1.5-3.4,3.4-3.4l0,0c1.9,0,3.4,1.5,3.4,3.4v13.9
		C302.9,249.4,301.4,250.9,299.5,250.9z"/>
	<path style="clip-path:url(#SVGID_00000176736373809623178880000015881800724113698992_);fill:#773118;" d="M299.3,196L299.3,196
		c-2,0-3.6-1.6-3.6-3.6v-11.2c0-2,1.6-3.6,3.6-3.6l0,0c2,0,3.6,1.6,3.6,3.6v11.2C302.9,194.4,301.3,196,299.3,196z"/>
	<path style="clip-path:url(#SVGID_00000176736373809623178880000015881800724113698992_);fill:#773118;" d="M299.3,229L299.3,229
		c-2,0-3.6-1.6-3.6-3.6v-23.2c0-2,1.6-3.6,3.6-3.6l0,0c2,0,3.6,1.6,3.6,3.6v23.2C302.9,227.4,301.3,229,299.3,229z"/>
	<path style="clip-path:url(#SVGID_00000176736373809623178880000015881800724113698992_);fill:#6D2912;" d="M275.8,247.8
		L275.8,247.8c-2.4,0-4.4-2-4.4-4.4v-15.5c0-2.4,2-4.4,4.4-4.4l0,0c2.4,0,4.4,2,4.4,4.4v15.5C280.2,245.8,278.2,247.8,275.8,247.8z"
		/>
	<path style="clip-path:url(#SVGID_00000176736373809623178880000015881800724113698992_);fill:#773118;" d="M287.2,251.4
		L287.2,251.4c-1.3,0-2.3-1-2.3-2.3v-52.6c0-1.3,1-2.3,2.3-2.3l0,0c1.3,0,2.3,1,2.3,2.3v52.6C289.5,250.4,288.4,251.4,287.2,251.4z"
		/>
	<path style="clip-path:url(#SVGID_00000176736373809623178880000015881800724113698992_);fill:#7F422D;" d="M844.6,186.1v17.1
		c0,5.4-4.4,9.8-9.8,9.8H816c-2.5,0-4.5,2-4.5,4.5v31.1h-42.8v-36.8c0-2.5-2-4.5-4.5-4.5h-24.1c-2.8,0-5-2.2-5-5v-21.3h12.4V191
		c0,2.1,1.7,3.8,3.8,3.8h12.9c2.5,0,4.5-2,4.5-4.5v-35c0-11.8,9.6-21.4,21.4-21.4l0,0c11.8,0,21.4,9.6,21.4,21.4v35.5
		c0,2.5,2,4.5,4.5,4.5h6.1c2.7,0,5-2.2,5-5v-4.3L844.6,186.1L844.6,186.1z"/>
	<path style="clip-path:url(#SVGID_00000176736373809623178880000015881800724113698992_);fill:#C1D8F1;" d="M853.6,161.3h-127
		c-4.7,0-8.5-3.8-8.5-8.5v-6.2c0-39.8,32.2-72,72-72l0,0c39.8,0,72,32.2,72,72v6.2C862.1,157.5,858.3,161.3,853.6,161.3z"/>
	<path style="clip-path:url(#SVGID_00000176736373809623178880000015881800724113698992_);fill:#C1D8F1;" d="M759.1,185.2h-35.3
		v-2.3c0-6.9,5.6-12.5,12.5-12.5h10.3c6.9,0,12.5,5.6,12.5,12.5L759.1,185.2L759.1,185.2z"/>
	<path style="clip-path:url(#SVGID_00000176736373809623178880000015881800724113698992_);fill:#C1D8F1;" d="M856.2,186.6h-38.1
		v-3.5c0-6.9,5.6-12.5,12.5-12.5h13.1c6.9,0,12.5,5.6,12.5,12.5L856.2,186.6L856.2,186.6z"/>
	<path style="clip-path:url(#SVGID_00000176736373809623178880000015881800724113698992_);fill:#6D2912;" d="M802.5,243.9
		L802.5,243.9c-1.8,0-3.3-1.5-3.3-3.4v-13.9c0-1.9,1.5-3.4,3.3-3.4l0,0c1.8,0,3.3,1.5,3.3,3.4v13.9
		C805.9,242.4,804.4,243.9,802.5,243.9z"/>
	<path style="clip-path:url(#SVGID_00000176736373809623178880000015881800724113698992_);fill:#6D3526;" d="M802.3,216L802.3,216
		c-2,0-3.6-1.6-3.6-3.6v-37.2c0-2,1.6-3.6,3.6-3.6l0,0c2,0,3.6,1.6,3.6,3.6v37.2C805.9,214.4,804.3,216,802.3,216z"/>
	<path style="clip-path:url(#SVGID_00000176736373809623178880000015881800724113698992_);fill:#6D3526;" d="M779.3,195L779.3,195
		c-2,0-3.6-1.6-3.6-3.6v-16.2c0-2,1.6-3.6,3.6-3.6l0,0c2,0,3.6,1.6,3.6,3.6v16.2C782.9,193.4,781.3,195,779.3,195z"/>
	<path style="clip-path:url(#SVGID_00000176736373809623178880000015881800724113698992_);fill:#6D3526;" d="M779.3,227L779.3,227
		c-2,0-3.6-1.6-3.6-3.6v-20.2c0-2,1.6-3.6,3.6-3.6l0,0c2,0,3.6,1.6,3.6,3.6v20.2C782.9,225.4,781.3,227,779.3,227z"/>
	<path style="clip-path:url(#SVGID_00000176736373809623178880000015881800724113698992_);fill:#6D3526;" d="M790.2,246.4
		L790.2,246.4c-1.3,0-2.3-1-2.3-2.3v-52.6c0-1.3,1-2.3,2.3-2.3l0,0c1.3,0,2.3,1,2.3,2.3v52.6C792.5,245.4,791.4,246.4,790.2,246.4z"
		/>
	<path style="clip-path:url(#SVGID_00000176736373809623178880000015881800724113698992_);fill:#6D3526;" d="M926.2,237.4
		L926.2,237.4c-1.3,0-2.3-1-2.3-2.3v-52.6c0-1.3,1-2.3,2.3-2.3l0,0c1.3,0,2.3,1,2.3,2.3v52.6C928.5,236.4,927.4,237.4,926.2,237.4z"
		/>
	<path style="clip-path:url(#SVGID_00000176736373809623178880000015881800724113698992_);fill:#6D3526;" d="M790.2,187L790.2,187
		c-1.3,0-2.3-1-2.3-2.3v-11.4c0-1.3,1-2.3,2.3-2.3l0,0c1.3,0,2.3,1,2.3,2.3v11.4C792.5,186,791.4,187,790.2,187z"/>
	<path style="clip-path:url(#SVGID_00000176736373809623178880000015881800724113698992_);fill:#874439;" d="M723.4,184.2v18.4
		c0,5.8-4.6,10.5-10.4,10.5h-20c-2.6,0-4.7,2.1-4.7,4.8v33.6h-45.5v-39.7c0-2.6-2.1-4.8-4.7-4.8h-25.6c-2.9,0-5.3-2.4-5.3-5.4v-23
		h13.2v10.9c0,2.3,1.8,4.1,4,4.1h13.7c2.6,0,4.7-2.1,4.7-4.8v-37.8c0-12.8,10.2-23.1,22.7-23.1l0,0c12.6,0,22.7,10.3,22.7,23.1v38.3
		c0,2.6,2.1,4.8,4.7,4.8h6.4c2.9,0,5.3-2.4,5.3-5.4v-4.7L723.4,184.2L723.4,184.2z"/>
	<path style="clip-path:url(#SVGID_00000176736373809623178880000015881800724113698992_);fill:#85C0EB;" d="M632.6,183.3h-37.4
		v-3.5c0-6.9,5.6-12.5,12.5-12.5h12.5c6.9,0,12.5,5.6,12.5,12.5L632.6,183.3L632.6,183.3z"/>
	<path style="clip-path:url(#SVGID_00000176736373809623178880000015881800724113698992_);fill:#85C0EB;" d="M735.6,184.8h-40.4V180
		c0-6.9,5.6-12.5,12.5-12.5h15.4c6.9,0,12.5,5.6,12.5,12.5L735.6,184.8L735.6,184.8z"/>
	<path style="clip-path:url(#SVGID_00000176736373809623178880000015881800724113698992_);fill:#753832;" d="M653.2,207.6h-0.4
		c-1.8,0-3.3-1.5-3.3-3.4v-34.5c0-1.9,1.5-3.4,3.3-3.4h0.4c1.8,0,3.3,1.5,3.3,3.4v34.5C656.5,206.1,655,207.6,653.2,207.6z"/>
	<path style="clip-path:url(#SVGID_00000176736373809623178880000015881800724113698992_);fill:#753832;" d="M653.2,251.6h-0.4
		c-1.8,0-3.3-1.5-3.3-3.4v-31.9c0-1.9,1.5-3.4,3.3-3.4h0.4c1.8,0,3.3,1.5,3.3,3.4v31.9C656.5,250.1,655,251.6,653.2,251.6z"/>
	<path style="clip-path:url(#SVGID_00000176736373809623178880000015881800724113698992_);fill:#753832;" d="M677.7,238.4h-0.4
		c-2,0-3.6-1.6-3.6-3.6v-27.1c0-2,1.6-3.6,3.6-3.6h0.4c2,0,3.6,1.6,3.6,3.6v27.1C681.3,236.7,679.7,238.4,677.7,238.4z"/>
	<path style="clip-path:url(#SVGID_00000176736373809623178880000015881800724113698992_);fill:#753832;" d="M677.7,197h-0.4
		c-2,0-3.6-1.6-3.6-3.6v-6.8c0-2,1.6-3.6,3.6-3.6h0.4c2,0,3.6,1.6,3.6,3.6v6.8C681.3,195.4,679.7,197,677.7,197z"/>
	<path style="clip-path:url(#SVGID_00000176736373809623178880000015881800724113698992_);fill:#753832;" d="M664.7,230.1h-0.3
		c-1.3,0-2.3-1-2.3-2.3v-30.4c0-1.3,1-2.3,2.3-2.3h0.3c1.3,0,2.3,1,2.3,2.3v30.4C667,229,666,230.1,664.7,230.1z"/>
	<path style="clip-path:url(#SVGID_00000176736373809623178880000015881800724113698992_);fill:#753832;" d="M664.7,189.1h-0.3
		c-1.3,0-2.3-1-2.3-2.3v-11.4c0-1.3,1-2.3,2.3-2.3h0.3c1.3,0,2.3,1,2.3,2.3v11.4C667,188,666,189.1,664.7,189.1z"/>
	<path style="clip-path:url(#SVGID_00000176736373809623178880000015881800724113698992_);fill:#7F422D;" d="M579.1,187v17.9
		c0,5.7-4,10.3-8.9,10.3h-17.1c-2.2,0-4,2.1-4,4.7v32.7h-38.9v-38.6c0-2.6-1.8-4.7-4-4.7h-21.9c-2.5,0-4.5-2.4-4.5-5.2v-22.4h11.2
		v10.6c0,2.2,1.5,4,3.5,4h11.7c2.2,0,4-2.1,4-4.7v-36.8c0-12.4,8.7-22.5,19.5-22.5l0,0c10.8,0,19.5,10.1,19.5,22.5v37.3
		c0,2.6,1.8,4.7,4,4.7h5.5c2.5,0,4.5-2.3,4.5-5.2V187H579.1z"/>
	<path style="clip-path:url(#SVGID_00000176736373809623178880000015881800724113698992_);fill:#85C0EB;" d="M733.5,157.5H597.7
		c-4.7,0-8.5-3.8-8.5-8.5v-13c0-39.8,32.2-72,72-72h8.9c39.8,0,72,32.2,72,72v13C742,153.7,738.2,157.5,733.5,157.5z"/>
	<path id="tree" style="clip-path:url(#SVGID_00000176736373809623178880000015881800724113698992_);fill:#C1D8F1;" d="M587.3,161
		H471.9c-4.3,0-7.7-3.5-7.7-7.7v-17.9c0-36.1,29.3-65.4,65.4-65.4l0,0c36.1,0,65.4,29.3,65.4,65.4v17.9
		C595,157.5,591.5,161,587.3,161z"/>
	<path style="clip-path:url(#SVGID_00000176736373809623178880000015881800724113698992_);fill:#C1D8F1;" d="M501.4,186.1h-32V183
		c0-6.9,5.6-12.5,12.5-12.5h7.1c6.9,0,12.5,5.6,12.5,12.5L501.4,186.1L501.4,186.1z"/>
	<path style="clip-path:url(#SVGID_00000176736373809623178880000015881800724113698992_);fill:#C1D8F1;" d="M589.5,187.5H555v-4.3
		c0-6.9,5.6-12.5,12.5-12.5h9.6c6.9,0,12.5,5.6,12.5,12.5L589.5,187.5L589.5,187.5z"/>
	<path style="clip-path:url(#SVGID_00000176736373809623178880000015881800724113698992_);fill:#6D3526;" d="M531,209.7h-2.2
		c-1.7,0-3-1.4-3-3.1v-34c0-1.7,1.4-3.1,3-3.1h2.2c1.7,0,3,1.4,3,3.1v34C534,208.4,532.6,209.7,531,209.7z"/>
	<path style="clip-path:url(#SVGID_00000176736373809623178880000015881800724113698992_);fill:#6D3526;" d="M531,245.7h-2.2
		c-1.7,0-3-1.4-3-3.1V217c0-1.7,1.4-3.1,3-3.1h2.2c1.7,0,3,1.4,3,3.1v25.6C534,244.4,532.6,245.7,531,245.7z"/>
	<path style="clip-path:url(#SVGID_00000176736373809623178880000015881800724113698992_);fill:#6D2912;" d="M540.8,247.6
		L540.8,247.6c-1.7,0-3-1.4-3-3.1V229c0-1.7,1.4-3.1,3-3.1l0,0c1.7,0,3,1.4,3,3.1v15.6C543.9,246.3,542.5,247.6,540.8,247.6z"/>
	<path style="clip-path:url(#SVGID_00000176736373809623178880000015881800724113698992_);fill:#6D3526;" d="M542.6,252.2
		L542.6,252.2c-1.2,0-2.1-0.9-2.1-2.1v-55.9c0-1.2,0.9-2.1,2.1-2.1l0,0c1.2,0,2.1,0.9,2.1,2.1v55.9
		C544.7,251.2,543.8,252.2,542.6,252.2z"/>
	<path style="clip-path:url(#SVGID_00000176736373809623178880000015881800724113698992_);fill:#6D3526;" d="M542.6,189L542.6,189
		c-1.2,0-2.1-0.9-2.1-2.1v-20.8c0-1.2,0.9-2.1,2.1-2.1l0,0c1.2,0,2.1,0.9,2.1,2.1v20.8C544.7,188.1,543.8,189,542.6,189z"/>
	<path style="clip-path:url(#SVGID_00000176736373809623178880000015881800724113698992_);fill:#6D3526;" d="M517,194.8L517,194.8
		c-1.2,0-2.1-0.9-2.1-2.1v-20.8c0-1.2,0.9-2.1,2.1-2.1l0,0c1.2,0,2.1,0.9,2.1,2.1v20.8C519.1,193.9,518.1,194.8,517,194.8z"/>
	<path style="clip-path:url(#SVGID_00000176736373809623178880000015881800724113698992_);fill:#6D3526;" d="M517,228L517,228
		c-1.2,0-2.1-0.9-2.1-2.1v-26c0-1.2,0.9-2.1,2.1-2.1l0,0c1.2,0,2.1,0.9,2.1,2.1v26C519.1,227.1,518.1,228,517,228z"/>
	<path style="clip-path:url(#SVGID_00000176736373809623178880000015881800724113698992_);fill:#874439;" d="M464.8,198.8v15
		c0,4.7-3.8,8.6-8.6,8.6h-16.5c-2.2,0-3.9,1.8-3.9,3.9v27.3h-37.6v-32.3c0-2.2-1.8-3.9-3.9-3.9h-21.1c-2.4,0-4.4-2-4.4-4.4v-18.7
		h10.9v8.9c0,1.9,1.5,3.4,3.4,3.4h11.3c2.2,0,3.9-1.8,3.9-3.9v-30.7c0-10.4,8.4-18.8,18.8-18.8l0,0c10.4,0,18.8,8.4,18.8,18.8V203
		c0,2.2,1.8,3.9,3.9,3.9h5.3c2.4,0,4.4-1.9,4.4-4.4v-3.8L464.8,198.8L464.8,198.8z"/>
	<path style="clip-path:url(#SVGID_00000176736373809623178880000015881800724113698992_);fill:#85C0EB;" d="M472.7,177H361.3
		c-4.1,0-7.5-3.3-7.5-7.4v-5.4c0-34.9,28.3-63.1,63.1-63.1l0,0c34.9,0,63.1,28.3,63.1,63.1v5.4C480.1,173.7,476.8,177,472.7,177z"/>
	<path style="clip-path:url(#SVGID_00000176736373809623178880000015881800724113698992_);fill:#85C0EB;" d="M389.8,198h-30.9v-0.5
		c0-6.9,5.6-12.5,12.5-12.5h5.9c6.9,0,12.5,5.6,12.5,12.5L389.8,198L389.8,198z"/>
	<path style="clip-path:url(#SVGID_00000176736373809623178880000015881800724113698992_);fill:#85C0EB;" d="M474.9,199.2h-33.4
		v-1.5c0-6.9,5.6-12.5,12.5-12.5h8.4c6.9,0,12.5,5.6,12.5,12.5L474.9,199.2L474.9,199.2z"/>
	<path style="clip-path:url(#SVGID_00000176736373809623178880000015881800724113698992_);fill:#753832;" d="M406.6,215.8
		L406.6,215.8c-1.6,0-2.9-1.3-2.9-2.9v-27.6c0-1.6,1.3-2.9,2.9-2.9l0,0c1.6,0,2.9,1.3,2.9,2.9v27.6
		C409.5,214.4,408.2,215.8,406.6,215.8z"/>
	<path style="clip-path:url(#SVGID_00000176736373809623178880000015881800724113698992_);fill:#753832;" d="M406.6,245L406.6,245
		c-1.6,0-2.9-1.3-2.9-2.9v-21.1c0-1.6,1.3-2.9,2.9-2.9l0,0c1.6,0,2.9,1.3,2.9,2.9V242C409.5,243.7,408.2,245,406.6,245z"/>
	<path style="clip-path:url(#SVGID_00000176736373809623178880000015881800724113698992_);fill:#6D2912;" d="M427.9,249.4
		L427.9,249.4c-1.6,0-2.9-1.3-2.9-2.9v-12.2c0-1.6,1.3-2.9,2.9-2.9l0,0c1.6,0,2.9,1.3,2.9,2.9v12.2
		C430.8,248.1,429.5,249.4,427.9,249.4z"/>
	<path style="clip-path:url(#SVGID_00000176736373809623178880000015881800724113698992_);fill:#753832;" d="M427.6,228L427.6,228
		c-1.8,0-3.2-1.4-3.2-3.2v-27.5c0-1.8,1.4-3.2,3.2-3.2l0,0c1.8,0,3.2,1.4,3.2,3.2v27.5C430.8,226.6,429.4,228,427.6,228z"/>
	<path style="clip-path:url(#SVGID_00000176736373809623178880000015881800724113698992_);fill:#6D2912;" d="M407,246.7L407,246.7
		c-2.1,0-3.9-1.7-3.9-3.9v-13.6c0-2.1,1.7-3.9,3.9-3.9l0,0c2.1,0,3.9,1.7,3.9,3.9v13.6C410.9,245,409.2,246.7,407,246.7z"/>
	<path style="clip-path:url(#SVGID_00000176736373809623178880000015881800724113698992_);fill:#753832;" d="M417,249.9L417,249.9
		c-1.1,0-2-0.9-2-2v-46.2c0-1.1,0.9-2,2-2l0,0c1.1,0,2,0.9,2,2v46.2C419,249,418.1,249.9,417,249.9z"/>
	<path style="clip-path:url(#SVGID_00000176736373809623178880000015881800724113698992_);fill:#753832;" d="M417,196L417,196
		c-1.1,0-2-0.9-2-2V184c0-1.1,0.9-2,2-2l0,0c1.1,0,2,0.9,2,2v9.9C419,195.1,418.1,196,417,196z"/>
	<path style="clip-path:url(#SVGID_00000176736373809623178880000015881800724113698992_);fill:#7F422D;" d="M220.7,173.7v19.7
		c0,6.2-5.1,11.3-11.3,11.3h-21.7c-2.8,0-5.1,2.3-5.1,5.1v36H133v-42.6c0-2.8-2.3-5.1-5.2-5.1H100c-3.2,0-5.8-2.6-5.8-5.8v-24.6
		h14.3v11.7c0,2.4,2,4.4,4.4,4.4h14.9c2.8,0,5.2-2.3,5.2-5.1v-40.5c0-13.7,11.1-24.8,24.8-24.8l0,0c13.7,0,24.8,11.1,24.8,24.8v41.1
		c0,2.8,2.3,5.1,5.1,5.1h7c3.2,0,5.7-2.6,5.7-5.7v-5L220.7,173.7L220.7,173.7z"/>
	<path style="clip-path:url(#SVGID_00000176736373809623178880000015881800724113698992_);fill:#99C0FF;" d="M232.4,145.1H83.2
		c-4.8,0-8.6-3.9-8.6-8.6v-18.8c0-40.2,32.6-72.8,72.8-72.8h20.7c40.2,0,72.9,32.6,72.9,72.8v18.8
		C241,141.2,237.1,145.1,232.4,145.1z"/>
	<path style="clip-path:url(#SVGID_00000176736373809623178880000015881800724113698992_);fill:#99C0FF;" d="M121.9,172.8H81.1v-4.6
		c0-6.9,5.6-12.5,12.5-12.5h15.8c6.9,0,12.5,5.6,12.5,12.5L121.9,172.8L121.9,172.8z"/>
	<path style="clip-path:url(#SVGID_00000176736373809623178880000015881800724113698992_);fill:#99C0FF;" d="M234.1,174.3h-44v-6
		c0-6.9,5.6-12.5,12.5-12.5h19c6.9,0,12.5,5.6,12.5,12.5L234.1,174.3L234.1,174.3z"/>
	<path style="clip-path:url(#SVGID_00000176736373809623178880000015881800724113698992_);fill:#FFC6B7;" d="M100.1,168.4H88.8
		c-1.3,0-2.3-1.1-2.3-2.4v-0.7c0-1.3,1.1-2.4,2.3-2.4h11.3c1.3,0,2.3,1.1,2.3,2.4v0.7C102.5,167.3,101.4,168.4,100.1,168.4z"/>
	<path style="clip-path:url(#SVGID_00000176736373809623178880000015881800724113698992_);fill:#6D3526;" d="M144.5,181h-1
		c-1.9,0-3.4-1.5-3.4-3.4V158c0-1.9,1.5-3.4,3.4-3.4h1c1.9,0,3.4,1.5,3.4,3.4v19.6C147.9,179.5,146.4,181,144.5,181z"/>
	<path style="clip-path:url(#SVGID_00000176736373809623178880000015881800724113698992_);fill:#6D2912;" d="M172.6,240.5h-1
		c-1.9,0-3.4-1.5-3.4-3.4v-17.1c0-1.9,1.5-3.4,3.4-3.4h1c1.9,0,3.4,1.5,3.4,3.4v17.1C176,239,174.4,240.5,172.6,240.5z"/>
	<path style="clip-path:url(#SVGID_00000176736373809623178880000015881800724113698992_);fill:#6D3526;" d="M172.3,190h-1
		c-2,0-3.7-1.6-3.7-3.7v-26.9c0-2,1.6-3.7,3.7-3.7h1c2,0,3.7,1.6,3.7,3.7v26.9C176,188.4,174.3,190,172.3,190z"/>
	<path style="clip-path:url(#SVGID_00000176736373809623178880000015881800724113698992_);fill:#6D3526;" d="M172.3,227.4h-1
		c-2,0-3.7-1.6-3.7-3.7v-26.9c0-2,1.6-3.7,3.7-3.7h1c2,0,3.7,1.6,3.7,3.7v26.9C176,225.8,174.3,227.4,172.3,227.4z"/>
	<path style="clip-path:url(#SVGID_00000176736373809623178880000015881800724113698992_);fill:#6D3526;" d="M145.3,237H144
		c-2.4,0-4.4-2-4.4-4.4v-40.1c0-2.4,2-4.4,4.4-4.4h1.3c2.4,0,4.4,2,4.4,4.4v40.1C149.7,235,147.7,237,145.3,237z"/>
	<path style="clip-path:url(#SVGID_00000176736373809623178880000015881800724113698992_);fill:#6D3526;" d="M158.1,241.1h-0.7
		c-1.3,0-2.4-1.1-2.4-2.4v-61.5c0-1.3,1.1-2.4,2.4-2.4h0.7c1.3,0,2.4,1.1,2.4,2.4v61.5C160.5,240.1,159.4,241.1,158.1,241.1z"/>
	<path style="clip-path:url(#SVGID_00000176736373809623178880000015881800724113698992_);fill:#6D3526;" d="M158.1,170h-0.7
		c-1.3,0-2.4-1.1-2.4-2.4v-17.3c0-1.3,1.1-2.4,2.4-2.4h0.7c1.3,0,2.4,1.1,2.4,2.4v17.3C160.5,168.9,159.4,170,158.1,170z"/>
	<path style="clip-path:url(#SVGID_00000176736373809623178880000015881800724113698992_);fill:#8E3E1E;" d="M990.7,171.7v19.7
		c0,6.2-5.1,11.3-11.3,11.3h-21.7c-2.8,0-5.2,2.3-5.2,5.1v36H903v-42.6c0-2.8-2.3-5.1-5.2-5.1H870c-3.2,0-5.8-2.6-5.8-5.8v-24.6
		h14.3v11.7c0,2.4,2,4.4,4.4,4.4h14.9c2.8,0,5.2-2.3,5.2-5.1v-40.5c0-13.7,11.1-24.8,24.8-24.8l0,0c13.7,0,24.8,11.1,24.8,24.8v41.1
		c0,2.8,2.3,5.1,5.2,5.1h7c3.2,0,5.7-2.6,5.7-5.7v-5L990.7,171.7L990.7,171.7z"/>
	<path style="clip-path:url(#SVGID_00000176736373809623178880000015881800724113698992_);fill:#99C0FF;" d="M1002.4,143.1H853.2
		c-4.8,0-8.6-3.9-8.6-8.6v-18.8c0-40.2,32.6-72.8,72.8-72.8h20.7c40.2,0,72.8,32.6,72.8,72.8v18.8
		C1011,139.2,1007.1,143.1,1002.4,143.1z"/>
	<path style="clip-path:url(#SVGID_00000176736373809623178880000015881800724113698992_);fill:#99C0FF;" d="M891.9,170.8h-40.8
		v-4.6c0-6.9,5.6-12.5,12.5-12.5h15.8c6.9,0,12.5,5.6,12.5,12.5L891.9,170.8L891.9,170.8z"/>
	<path style="clip-path:url(#SVGID_00000176736373809623178880000015881800724113698992_);fill:#99C0FF;" d="M1004.1,172.3h-44v-6
		c0-6.9,5.6-12.5,12.5-12.5h19c6.9,0,12.5,5.6,12.5,12.5L1004.1,172.3L1004.1,172.3z"/>
	<path style="clip-path:url(#SVGID_00000176736373809623178880000015881800724113698992_);fill:#7C351C;" d="M916.5,222.8h-1
		c-1.9,0-3.4-1.5-3.4-3.4V182c0-1.9,1.5-3.4,3.4-3.4h1c1.9,0,3.4,1.5,3.4,3.4v37.4C919.9,221.3,918.4,222.8,916.5,222.8z"/>
	<path style="clip-path:url(#SVGID_00000176736373809623178880000015881800724113698992_);fill:#7C351C;" d="M916.5,169h-1
		c-1.9,0-3.4-1.5-3.4-3.4v-16.2c0-1.9,1.5-3.4,3.4-3.4h1c1.9,0,3.4,1.5,3.4,3.4v16.2C919.9,167.5,918.4,169,916.5,169z"/>
	<path style="clip-path:url(#SVGID_00000176736373809623178880000015881800724113698992_);fill:#8E3E1E;" d="M942.6,238.5h-1
		c-1.9,0-3.4-1.5-3.4-3.4v-17.1c0-1.9,1.5-3.4,3.4-3.4h1c1.9,0,3.4,1.5,3.4,3.4v17.1C946,237,944.5,238.5,942.6,238.5z"/>
	<path style="clip-path:url(#SVGID_00000176736373809623178880000015881800724113698992_);fill:#7C351C;" d="M942.3,183h-1
		c-2,0-3.7-1.6-3.7-3.7v-21.9c0-2,1.6-3.7,3.7-3.7h1c2,0,3.7,1.6,3.7,3.7v21.9C946,181.4,944.3,183,942.3,183z"/>
	<path style="clip-path:url(#SVGID_00000176736373809623178880000015881800724113698992_);fill:#7C351C;" d="M942.3,222h-1
		c-2,0-3.7-1.6-3.7-3.7v-21.9c0-2,1.6-3.7,3.7-3.7h1c2,0,3.7,1.6,3.7,3.7v21.9C946,220.4,944.3,222,942.3,222z"/>
	<path style="clip-path:url(#SVGID_00000176736373809623178880000015881800724113698992_);fill:#7BB1FF;" d="M105,149.8H16v-18.3
		c0-6.9,5.6-12.5,12.5-12.5h64c6.9,0,12.5,5.6,12.5,12.5V149.8z"/>
	<path style="clip-path:url(#SVGID_00000176736373809623178880000015881800724113698992_);fill:#A8552D;" d="M105,145v42.8
		c0,5.1-4.1,9.2-9.2,9.2H61.5c-6.9,0-12.5,5.6-12.5,12.5V251h-67V101h67v56.5c0,6.9,5.6,12.5,12.5,12.5h7.3c5.1,0,9.2-4.1,9.2-9.2
		V145H105z"/>
	<path style="clip-path:url(#SVGID_00000176736373809623178880000015881800724113698992_);fill:#B7E2F6;" d="M115.9,122.5H-40.3
		c-7.3,0-13.2-5.9-13.2-13.2V82.8c0-50.4,40.9-91.3,91.3-91.3l0,0c50.4,0,91.3,40.9,91.3,91.3v26.5
		C129.1,116.6,123.2,122.5,115.9,122.5z"/>
	<path style="clip-path:url(#SVGID_00000176736373809623178880000015881800724113698992_);fill:#B7E2F6;" d="M127,163H58v-16.5
		c0-6.9,5.6-12.5,12.5-12.5h44c6.9,0,12.5,5.6,12.5,12.5L127,163L127,163z"/>
	<path style="clip-path:url(#SVGID_00000176736373809623178880000015881800724113698992_);fill:#8E3E1E;" d="M14.4,194h-3.9
		c-1.4,0-2.6-1.1-2.6-2.6v-53.8c0-1.4,1.1-2.6,2.6-2.6h3.9c1.4,0,2.6,1.1,2.6,2.6v53.9C17,192.9,15.9,194,14.4,194z"/>
	<path style="clip-path:url(#SVGID_00000176736373809623178880000015881800724113698992_);fill:#8E3E1E;" d="M33.4,241h-3.9
		c-1.4,0-2.6-1.1-2.6-2.6v-53.8c0-1.4,1.1-2.6,2.6-2.6h3.9c1.4,0,2.6,1.1,2.6,2.6v53.9C36,239.9,34.8,241,33.4,241z"/>
	<path style="clip-path:url(#SVGID_00000176736373809623178880000015881800724113698992_);fill:#8E3E1E;" d="M33,177L33,177
		c-3.3,0-6-2.7-6-6v-37c0-3.3,2.7-6,6-6l0,0c3.3,0,6,2.7,6,6v37C39,174.3,36.3,177,33,177z"/>
	<path style="clip-path:url(#SVGID_00000176736373809623178880000015881800724113698992_);fill:#8E3E1E;" d="M16,255L16,255
		c-3.3,0-6-2.7-6-6v-37c0-3.3,2.7-6,6-6l0,0c3.3,0,6,2.7,6,6v37C22,252.3,19.3,255,16,255z"/>
	<path style="clip-path:url(#SVGID_00000176736373809623178880000015881800724113698992_);fill:#7BB1FF;" d="M995.2,148.6h89v-18.3
		c0-6.9-5.6-12.5-12.5-12.5h-64c-6.9,0-12.5,5.6-12.5,12.5L995.2,148.6L995.2,148.6z"/>
	<path style="clip-path:url(#SVGID_00000176736373809623178880000015881800724113698992_);fill:#A8552D;" d="M995.2,143.8v42.8
		c0,5.1,4.1,9.2,9.2,9.2h34.3c6.9,0,12.5,5.6,12.5,12.5v41.5h67v-150h-67v56.5c0,6.9-5.6,12.5-12.5,12.5h-7.3
		c-5.1,0-9.2-4.1-9.2-9.2v-15.8H995.2z"/>
	<path style="clip-path:url(#SVGID_00000176736373809623178880000015881800724113698992_);fill:#B7E2F6;" d="M984.3,121.3h156.3
		c7.3,0,13.2-5.9,13.2-13.2V81.6c0-50.4-40.9-91.3-91.3-91.3l0,0c-50.4,0-91.3,40.9-91.3,91.3v26.5
		C971.1,115.4,977,121.3,984.3,121.3z"/>
	<path style="clip-path:url(#SVGID_00000176736373809623178880000015881800724113698992_);fill:#B7E2F6;" d="M973.2,161.8h69v-16.5
		c0-6.9-5.6-12.5-12.5-12.5h-44c-6.9,0-12.5,5.6-12.5,12.5L973.2,161.8L973.2,161.8z"/>
	<path style="clip-path:url(#SVGID_00000176736373809623178880000015881800724113698992_);fill:#8E3E1E;" d="M1085.8,192.8h3.8
		c1.4,0,2.6-1.1,2.6-2.6v-53.9c0-1.4-1.2-2.6-2.6-2.6h-3.8c-1.4,0-2.6,1.1-2.6,2.6v53.9C1083.2,191.6,1084.4,192.8,1085.8,192.8z"/>
	<path style="clip-path:url(#SVGID_00000176736373809623178880000015881800724113698992_);fill:#8E3E1E;" d="M1066.8,239.8h3.8
		c1.4,0,2.6-1.1,2.6-2.6v-53.9c0-1.4-1.2-2.6-2.6-2.6h-3.8c-1.4,0-2.6,1.1-2.6,2.6v53.9C1064.2,238.6,1065.4,239.8,1066.8,239.8z"/>
	<path style="clip-path:url(#SVGID_00000176736373809623178880000015881800724113698992_);fill:#8E3E1E;" d="M1067.2,175.8
		L1067.2,175.8c3.3,0,6-2.7,6-6v-37c0-3.3-2.7-6-6-6l0,0c-3.3,0-6,2.7-6,6v37C1061.2,173.1,1063.9,175.8,1067.2,175.8z"/>
	<path style="clip-path:url(#SVGID_00000176736373809623178880000015881800724113698992_);fill:#8E3E1E;" d="M1084.2,253.8
		L1084.2,253.8c3.3,0,6-2.7,6-6v-37c0-3.3-2.7-6-6-6l0,0c-3.3,0-6,2.7-6,6v37C1078.2,251.1,1080.9,253.8,1084.2,253.8z"/>
	<path style="clip-path:url(#SVGID_00000176736373809623178880000015881800724113698992_);fill:#7C351C;" d="M928.2,172L928.2,172
		c-1.3,0-2.3-1-2.3-2.3v-11.4c0-1.3,1-2.3,2.3-2.3l0,0c1.3,0,2.3,1,2.3,2.3v11.4C930.5,171,929.4,172,928.2,172z"/>
	<path style="clip-path:url(#SVGID_00000176736373809623178880000015881800724113698992_);fill:#7C351C;" d="M928.2,218L928.2,218
		c-1.3,0-2.3-1-2.3-2.3v-34.4c0-1.3,1-2.3,2.3-2.3l0,0c1.3,0,2.3,1,2.3,2.3v34.4C930.5,217,929.4,218,928.2,218z"/>
	<path style="clip-path:url(#SVGID_00000176736373809623178880000015881800724113698992_);fill:#BDEBFF;" d="M1100,194.2V250H0
		v-55.8C151.5,222.3,342.5,227,550,227S948.5,222.3,1100,194.2z"/>
	<g style="clip-path:url(#SVGID_00000176736373809623178880000015881800724113698992_);">
		<g>
			<g>
				<g>
					<path class="st21" d="M99.8,101.1l6.7-0.3l-0.9-1.1l-6.8,0.2l-0.9-1c0.1,0,0.2-0.1,0.4-0.1l3.5-0.3c1.3-0.1,1.8-1.6,0.8-2.4
						l-2.6-2.3c-0.1-0.1-0.2-0.2-0.2-0.3l1-0.2l5.1,4.3l1.4-0.3l-5-4.3l1.6-0.3l3.1,3.4l-1.8-8.8l-1.6,4.1l-1.6,0.3l2.9-5.9
						l-1.4,0.3l-3.1,5.9l-0.9,0.2c0,0,0-0.1,0-0.1l1.4-3c0.5-1.1-0.6-2.3-1.8-1.9l-3.3,1c-0.1,0-0.2,0.1-0.3,0.1l0.3-1l6.3-2.3
						l0.5-1.4l-6.2,2.2l0.5-1.6l4.5-1l-8.5-2.8l2.8,3.4l-0.5,1.6l-3.7-5.4l-0.5,1.4l3.7,5.6l-0.3,0.9c0,0-0.1-0.1-0.1-0.1L92,84.9
						c-0.8-1-2.4-0.7-2.6,0.5l-0.7,3.3c0,0,0,0,0,0l-0.8-0.9l1.3-6.5l-0.9-1.1l-1.4,6.4l-1.1-1.2l1.5-4.3l-6.9,5.8l4.4-0.6l1.1,1.3
						l-6.6,0.3l0.9,1.1l6.7-0.2l0.8,1c-0.1,0-0.2,0.1-0.4,0.1L83.9,90c-1.3,0.1-1.8,1.6-0.8,2.4l2.6,2.3c0.1,0.1,0.2,0.2,0.2,0.3
						l-1.3,0.2L79.6,91l-1.4,0.3l5,4.3l-1.6,0.3l-3.1-3.4l1.8,8.8l1.6-4.2l1.6-0.3l-2.9,5.9l1.4-0.3l3-5.9l1.2-0.2c0,0,0,0,0,0.1
						l-1.4,3c-0.5,1.1,0.6,2.3,1.8,1.9l3.3-1c0.1,0,0.1,0,0.2,0l-0.3,0.9l-6.2,2.4L83,105l6.2-2.2l-0.5,1.6l-4.5,1.1l8.5,2.8
						l-2.8-3.4l0.5-1.6l3.7,5.4l0.4-1.4l-3.7-5.6l0,0l0.3-0.9c0.1,0.1,0.2,0.1,0.2,0.2l2.1,2.8c0.8,1,2.4,0.7,2.6-0.5l0.7-3.3
						c0,0,0,0,0-0.1l1,1l-1.2,6.4l0.9,1.1l1.3-6.4l1.1,1.2l-1.4,4.3l6.8-5.8l-4.4,0.6L99.8,101.1z M88.7,94.5
						c-0.2-0.6-0.6-1.2-1.1-1.6L87,92.4l0.7-0.1c0.7-0.1,1.3-0.3,1.9-0.6l1.9,2.2L88.7,94.5z M89,97.9l-0.7,0.2l0.3-0.6
						c0.1-0.1,0.1-0.3,0.2-0.4c0.1-0.4,0.2-0.9,0.2-1.3l2.8-0.6l-0.8,2.6C90.2,97.7,89.6,97.7,89,97.9z M92.4,93l-1.9-2.2
						c0.3-0.3,0.5-0.8,0.7-1.2c0.1-0.1,0.1-0.3,0.1-0.4l0.1-0.7l0.4,0.6c0.4,0.5,0.9,0.9,1.4,1.2L92.4,93z M94.5,90.8
						c0.7,0.1,1.3,0.1,2-0.1l0.7-0.2l-0.3,0.6c-0.1,0.1-0.1,0.3-0.2,0.4c-0.1,0.4-0.2,0.9-0.2,1.3l-2.9,0.6L94.5,90.8z M94.2,99.3
						l-0.2,0.7l-0.4-0.6c-0.4-0.6-0.9-1-1.6-1.3l0.8-2.6l2,2.2c-0.3,0.3-0.5,0.7-0.6,1.1C94.3,99.1,94.2,99.2,94.2,99.3z M97.8,96.3
						c-0.7,0.1-1.4,0.3-1.9,0.6l-2-2.2l0,0l0,0l2.9-0.6c0.2,0.6,0.6,1.2,1.1,1.6l0.6,0.5L97.8,96.3z"/>
				</g>
				<polygon class="st21" points="93.9,94.8 93.9,94.7 93.9,94.7 				"/>
			</g>
		</g>
	</g>
	<g style="clip-path:url(#SVGID_00000176736373809623178880000015881800724113698992_);">
		<g>
			<g>
				<g>
					<path class="st22" d="M204.6,122.2l5.6-0.3l-0.8-0.9l-5.7,0.2l-0.8-0.8c0.1,0,0.2-0.1,0.3-0.1l2.9-0.2c1.1-0.1,1.5-1.3,0.7-2
						l-2.2-1.9c-0.1-0.1-0.1-0.1-0.2-0.2l0.8-0.2l4.3,3.6l1.2-0.2l-4.2-3.6l1.4-0.3l2.6,2.8l-1.5-7.4l-1.3,3.5l-1.4,0.3l2.5-4.9
						l-1.2,0.2l-2.6,5l-0.8,0.2c0,0,0,0,0-0.1l1.2-2.6c0.4-0.9-0.5-1.9-1.5-1.6l-2.8,0.8c-0.1,0-0.2,0-0.3,0.1l0.3-0.9l5.2-1.9
						l0.4-1.2l-5.2,1.8l0.4-1.3l3.7-0.9l-7.1-2.3l2.4,2.9l-0.4,1.3l-3.1-4.6l-0.4,1.2l3.1,4.7l-0.3,0.8c0,0-0.1-0.1-0.1-0.1
						l-1.7-2.3c-0.6-0.8-2-0.6-2.2,0.4l-0.6,2.8c0,0,0,0,0,0l-0.7-0.8l1.1-5.4l-0.8-0.9l-1.2,5.4l-0.9-1l1.2-3.6l-5.8,4.9l3.7-0.5
						l0.9,1.1l-5.6,0.2l0.8,0.9l5.6-0.2l0.7,0.8c-0.1,0-0.2,0.1-0.3,0.1l-2.9,0.2c-1.1,0.1-1.5,1.3-0.7,2l2.2,1.9
						c0.1,0.1,0.1,0.1,0.2,0.2l-1.1,0.2l-4.3-3.6l-1.2,0.2l4.2,3.6l-1.4,0.3l-2.6-2.8l1.5,7.4l1.3-3.5l1.4-0.3l-2.4,5l1.2-0.2l2.6-5
						l1-0.2c0,0,0,0,0,0.1l-1.2,2.6c-0.4,0.9,0.5,1.9,1.5,1.6l2.8-0.8c0.1,0,0.1,0,0.1,0l-0.2,0.8l-5.2,2l-0.4,1.2l5.2-1.9l-0.4,1.3
						l-3.7,0.9l7.2,2.3l-2.4-2.8l0.4-1.3l3.1,4.6l0.4-1.2l-3.1-4.7l0,0l0.3-0.8c0.1,0.1,0.1,0.1,0.2,0.2l1.7,2.3
						c0.6,0.8,2,0.6,2.2-0.4l0.6-2.8c0,0,0,0,0-0.1l0.8,0.9l-1,5.4l0.8,0.9l1.1-5.3l0.9,1l-1.2,3.7l5.7-4.9l-3.7,0.5L204.6,122.2z
						 M195.2,116.7c-0.2-0.5-0.5-1-1-1.4l-0.5-0.4l0.6-0.1c0.6,0,1.1-0.2,1.6-0.5l1.6,1.8L195.2,116.7z M195.5,119.5l-0.6,0.2
						l0.2-0.5c0.1-0.1,0.1-0.2,0.1-0.3c0.1-0.4,0.2-0.7,0.2-1.1l2.3-0.5l-0.7,2.2C196.6,119.3,196,119.4,195.5,119.5z M198.4,115.4
						l-1.6-1.8c0.2-0.3,0.4-0.6,0.6-1c0-0.1,0.1-0.2,0.1-0.3l0.1-0.6l0.4,0.5c0.3,0.4,0.7,0.8,1.2,1L198.4,115.4z M200.2,113.6
						c0.6,0.1,1.1,0.1,1.7-0.1l0.6-0.2l-0.2,0.5c-0.1,0.1-0.1,0.2-0.1,0.3c-0.1,0.4-0.2,0.7-0.2,1.1l-2.5,0.5L200.2,113.6z
						 M199.9,120.7l-0.1,0.6l-0.4-0.5c-0.4-0.5-0.8-0.8-1.3-1.1l0.7-2.2l1.7,1.8c-0.2,0.3-0.4,0.6-0.5,1
						C200,120.5,199.9,120.6,199.9,120.7z M202.9,118.2c-0.6,0.1-1.1,0.2-1.6,0.5l-1.7-1.8l0,0l0,0l2.5-0.5c0.2,0.5,0.5,1,1,1.3
						l0.5,0.4L202.9,118.2z"/>
				</g>
				<polygon class="st22" points="199.7,116.9 199.6,116.9 199.6,116.8 				"/>
			</g>
		</g>
	</g>
	<g style="clip-path:url(#SVGID_00000176736373809623178880000015881800724113698992_);">
		<g>
			<g>
				<g>
					<path class="st23" d="M321.6,121.2l5.6-0.3l-0.8-0.9l-5.7,0.2l-0.8-0.8c0.1,0,0.2-0.1,0.3-0.1l2.9-0.2c1.1-0.1,1.5-1.3,0.7-2
						l-2.2-1.9c-0.1-0.1-0.1-0.1-0.2-0.2l0.8-0.2l4.3,3.6l1.2-0.2l-4.2-3.6l1.4-0.3l2.6,2.8l-1.5-7.4l-1.3,3.5l-1.4,0.3l2.5-4.9
						l-1.2,0.2l-2.6,5l-0.8,0.2c0,0,0,0,0-0.1l1.2-2.6c0.4-0.9-0.5-1.9-1.5-1.6l-2.8,0.8c-0.1,0-0.2,0-0.3,0.1l0.3-0.9l5.2-1.9
						l0.4-1.2l-5.2,1.8l0.4-1.3l3.7-0.9l-7.1-2.3l2.4,2.9l-0.4,1.3l-3.1-4.6l-0.4,1.2l3.1,4.7l-0.3,0.8c0,0,0-0.1-0.1-0.1l-1.7-2.3
						c-0.6-0.8-2-0.6-2.2,0.4l-0.6,2.8c0,0,0,0,0,0l-0.7-0.8l1.1-5.4l-0.8-0.9l-1.2,5.4l-0.9-1l1.2-3.6l-5.8,4.9l3.7-0.5l0.9,1.1
						l-5.5,0.2l0.8,0.9l5.6-0.2l0.7,0.8c-0.1,0-0.2,0.1-0.3,0.1l-2.9,0.2c-1.1,0.1-1.5,1.3-0.7,2l2.2,1.9c0.1,0.1,0.1,0.1,0.2,0.2
						l-1.1,0.2l-4.3-3.6l-1.2,0.2l4.2,3.6l-1.4,0.3l-2.6-2.8l1.5,7.4l1.3-3.5l1.4-0.3l-2.4,5l1.2-0.2l2.5-5l1-0.2c0,0,0,0,0,0.1
						l-1.2,2.6c-0.4,0.9,0.5,1.9,1.5,1.6l2.8-0.8c0,0,0.1,0,0.1,0l-0.2,0.8l-5.2,2l-0.4,1.2l5.2-1.9l-0.4,1.3l-3.7,0.9l7.2,2.3
						l-2.4-2.8l0.4-1.3l3.1,4.6l0.4-1.2l-3.1-4.7l0,0l0.3-0.8c0.1,0.1,0.1,0.1,0.2,0.2l1.7,2.3c0.6,0.8,2,0.6,2.2-0.4l0.6-2.8
						c0,0,0,0,0-0.1l0.8,0.9l-1,5.4l0.8,0.9l1.1-5.3l0.9,1l-1.2,3.7l5.7-4.9l-3.7,0.5L321.6,121.2z M312.2,115.7
						c-0.2-0.5-0.5-1-1-1.4l-0.5-0.4l0.6-0.1c0.6,0,1.1-0.2,1.6-0.5l1.6,1.8L312.2,115.7z M312.5,118.5l-0.6,0.2l0.2-0.5
						c0-0.1,0.1-0.2,0.1-0.3c0.1-0.4,0.2-0.7,0.2-1.1l2.3-0.5l-0.7,2.2C313.6,118.3,313,118.4,312.5,118.5z M315.4,114.4l-1.6-1.8
						c0.2-0.3,0.4-0.6,0.5-1c0-0.1,0.1-0.2,0.1-0.3l0.1-0.6l0.4,0.5c0.3,0.4,0.7,0.8,1.2,1L315.4,114.4z M317.2,112.6
						c0.5,0.1,1.1,0.1,1.7-0.1l0.6-0.2l-0.2,0.5c0,0.1-0.1,0.2-0.1,0.3c-0.1,0.4-0.2,0.7-0.2,1.1l-2.5,0.5L317.2,112.6z
						 M316.9,119.7l-0.1,0.6l-0.4-0.5c-0.4-0.5-0.8-0.8-1.3-1.1l0.7-2.2l1.7,1.8c-0.2,0.3-0.4,0.6-0.5,1
						C317,119.5,316.9,119.6,316.9,119.7z M319.9,117.2c-0.6,0.1-1.1,0.2-1.6,0.5l-1.7-1.8l0,0l0,0l2.5-0.5c0.2,0.5,0.5,1,1,1.3
						l0.5,0.4L319.9,117.2z"/>
				</g>
				<polygon class="st23" points="316.7,115.9 316.6,115.9 316.6,115.8 				"/>
			</g>
		</g>
	</g>
	<g style="clip-path:url(#SVGID_00000176736373809623178880000015881800724113698992_);">
		<g>
			<g>
				<g>
					<path class="st23" d="M271.2,150.8l5.4,4.9l0.1-1.6l-5.4-5.1l0.1-1.5c0.1,0.1,0.2,0.1,0.3,0.2l2.9,2.5c1,0.9,2.6,0.1,2.5-1.2
						l-0.2-3.8c0-0.1,0-0.3,0-0.4l0.9,0.6l0.6,7.3l1.3,0.9l-0.4-7.2l1.5,1l-0.2,5l5.5-8.1l-4.4,1.9l-1.5-1l6.8-2.2l-1.3-0.9l-7,2.2
						l-0.8-0.6c0,0,0,0,0.1,0l3.4-1.2c1.2-0.4,1.3-2.2,0.1-2.9l-3.3-1.8c-0.1-0.1-0.2-0.1-0.3-0.2l1-0.5l6.6,3.1l1.4-0.7l-6.5-3.1
						l1.6-0.8l4.2,2.7l-4.4-8.8l-0.5,4.8l-1.6,0.8l1.4-7.1l-1.4,0.7l-1.5,7.1l-1,0.5c0-0.1,0-0.1,0-0.1l0.6-3.7
						c0.2-1.4-1.3-2.4-2.4-1.6l-3.1,2c0,0,0,0,0,0l0.1-1.3l6-4l0.1-1.6l-6,3.8l0.1-1.8l4.5-2.2l-9.8-0.9l3.8,2.9l-0.1,1.8l-5.3-4.9
						l-0.1,1.6l5.3,5.1l-0.1,1.4c-0.1-0.1-0.2-0.1-0.4-0.2l-2.9-2.5c-1-0.9-2.6-0.1-2.5,1.2l0.2,3.8c0,0.1,0,0.3,0,0.4l-1.2-0.8
						l-0.6-7.3l-1.3-0.9l0.5,7.2l-1.5-1l0.2-5l-5.5,8.1l4.4-2l1.5,1l-6.8,2.3l1.3,0.9l6.9-2.2l1.1,0.8c0,0,0,0-0.1,0l-3.4,1.2
						c-1.2,0.4-1.3,2.2-0.1,2.9l3.3,1.8c0.1,0,0.1,0.1,0.2,0.1l-0.9,0.5l-6.6-3.1l-1.4,0.7l6.5,3.1l-1.6,0.8l-4.2-2.6l4.4,8.8
						l0.5-4.8l1.6-0.8l-1.4,7.1l1.4-0.7l1.5-7.1l0,0l1-0.5c0,0.1,0,0.2,0,0.3l-0.6,3.7c-0.2,1.4,1.3,2.4,2.4,1.6l3.1-2c0,0,0,0,0,0
						l-0.1,1.5l-5.9,3.9l-0.1,1.6l6-3.8l-0.1,1.8l-4.5,2.2l9.8,0.8l-3.9-2.9L271.2,150.8z M267.9,137c0.3-0.6,0.4-1.4,0.4-2.1l0-0.8
						l0.6,0.5c0.6,0.5,1.2,0.8,1.9,1l-0.2,3.2L267.9,137z M265.5,139.9l-0.7-0.4l0.7-0.3c0.1-0.1,0.3-0.1,0.4-0.2
						c0.5-0.2,0.8-0.5,1.2-0.9l2.5,1.7l-2.6,1.3C266.6,140.7,266.1,140.2,265.5,139.9z M271.9,138.8l0.2-3.1c0.5-0.1,1-0.2,1.4-0.4
						c0.1-0.1,0.3-0.1,0.4-0.2l0.6-0.4l-0.1,0.8c-0.1,0.7,0,1.4,0.1,2L271.9,138.8z M275.2,138.8c0.4,0.6,1,1.1,1.6,1.5l0.7,0.4
						l-0.7,0.3c-0.1,0.1-0.3,0.1-0.4,0.2c-0.5,0.2-0.8,0.5-1.2,0.9l-2.7-1.8L275.2,138.8z M268.4,145.1l-0.6,0.4l0.1-0.8
						c0.1-0.8,0-1.5-0.2-2.2l2.6-1.3l-0.1,3.2c-0.5,0.1-0.9,0.2-1.4,0.4C268.6,144.9,268.5,145,268.4,145.1z M273.5,145.5
						c-0.6-0.5-1.3-0.8-2-1l0.1-3.2v-0.1l0,0l2.7,1.9c-0.3,0.6-0.4,1.4-0.4,2.1l0,0.8L273.5,145.5z"/>
				</g>
				<polygon class="st23" points="271.7,141.3 271.7,141.3 271.7,141.3 				"/>
			</g>
		</g>
	</g>
	<g style="clip-path:url(#SVGID_00000176736373809623178880000015881800724113698992_);">
		<g>
			<g>
				<g>
					<path class="st24" d="M397.2,157.8l5.4,4.9l0.1-1.6l-5.4-5.1l0.1-1.5c0.1,0.1,0.2,0.1,0.3,0.2l2.9,2.5c1,0.9,2.6,0.1,2.5-1.2
						l-0.2-3.8c0-0.1,0-0.3,0-0.4l0.9,0.6l0.6,7.3l1.3,0.9l-0.4-7.2l1.5,1l-0.2,5l5.5-8.1l-4.4,1.9l-1.5-1l6.8-2.2l-1.3-0.9l-7,2.2
						l-0.8-0.6c0,0,0,0,0.1,0l3.4-1.2c1.2-0.4,1.3-2.2,0.1-2.9l-3.3-1.8c-0.1-0.1-0.2-0.1-0.3-0.2l1-0.5l6.6,3.1l1.4-0.7l-6.5-3.1
						l1.6-0.8l4.2,2.7l-4.4-8.8l-0.5,4.8l-1.6,0.8l1.4-7.1l-1.4,0.7l-1.5,7.1l-1,0.5c0-0.1,0-0.1,0-0.1l0.6-3.7
						c0.2-1.4-1.3-2.4-2.4-1.6l-3.1,2c0,0,0,0,0,0l0.1-1.3l6-4l0.1-1.6l-6,3.8l0.1-1.8l4.5-2.2l-9.8-0.9l3.8,2.9l-0.1,1.8l-5.3-4.9
						l-0.1,1.6l5.3,5.1l-0.1,1.4c-0.1-0.1-0.2-0.1-0.4-0.2l-2.9-2.5c-1-0.9-2.6-0.1-2.5,1.2l0.2,3.8c0,0.1,0,0.3,0,0.4l-1.2-0.8
						l-0.6-7.3l-1.3-0.9l0.5,7.2l-1.5-1l0.2-5l-5.5,8.1l4.4-2l1.5,1l-6.8,2.3l1.3,0.9l6.9-2.2l1.1,0.8c0,0,0,0-0.1,0l-3.4,1.2
						c-1.2,0.4-1.3,2.2-0.1,2.9l3.3,1.8c0.1,0,0.1,0.1,0.2,0.1l-0.9,0.5l-6.6-3.1l-1.4,0.7l6.5,3.1l-1.6,0.8l-4.2-2.6l4.4,8.8
						l0.5-4.8l1.6-0.8l-1.4,7.1l1.4-0.7l1.5-7.1l0,0l1-0.5c0,0.1,0,0.2,0,0.3l-0.6,3.7c-0.2,1.4,1.3,2.4,2.4,1.6l3.1-2c0,0,0,0,0,0
						l-0.1,1.5l-5.9,3.9l-0.1,1.6l6-3.8l-0.1,1.8l-4.5,2.2l9.8,0.8l-3.9-2.9L397.2,157.8z M393.9,144c0.3-0.6,0.4-1.4,0.4-2.1l0-0.8
						l0.6,0.5c0.6,0.5,1.2,0.8,1.9,1l-0.2,3.2L393.9,144z M391.5,146.9l-0.7-0.4l0.7-0.3c0.1-0.1,0.3-0.1,0.4-0.2
						c0.5-0.2,0.8-0.5,1.2-0.9l2.5,1.7l-2.6,1.3C392.6,147.7,392.1,147.2,391.5,146.9z M397.9,145.8l0.2-3.1c0.5-0.1,1-0.2,1.4-0.4
						c0.1-0.1,0.3-0.1,0.4-0.2l0.6-0.4l-0.1,0.8c-0.1,0.7,0,1.4,0.1,2L397.9,145.8z M401.2,145.8c0.4,0.6,1,1.1,1.6,1.5l0.7,0.4
						l-0.7,0.3c-0.1,0.1-0.3,0.1-0.4,0.2c-0.5,0.2-0.8,0.5-1.2,0.9l-2.7-1.8L401.2,145.8z M394.4,152.1l-0.6,0.4l0.1-0.8
						c0.1-0.8,0-1.5-0.2-2.2l2.6-1.3l-0.1,3.2c-0.5,0.1-0.9,0.2-1.4,0.4C394.6,151.9,394.5,152,394.4,152.1z M399.5,152.5
						c-0.6-0.5-1.3-0.8-2-1l0.1-3.2v-0.1l0,0l2.7,1.9c-0.3,0.6-0.4,1.4-0.4,2.1l0,0.8L399.5,152.5z"/>
				</g>
				<polygon class="st24" points="397.7,148.3 397.7,148.3 397.7,148.3 				"/>
			</g>
		</g>
	</g>
	<g style="clip-path:url(#SVGID_00000176736373809623178880000015881800724113698992_);">
		<g>
			<g>
				<g>
					<path class="st25" d="M542.8,117.2l5.8,5.3l0.2-1.7l-5.8-5.5l0.1-1.6c0.1,0.1,0.2,0.1,0.4,0.2l3.1,2.7c1.1,1,2.8,0.2,2.7-1.3
						l-0.2-4.1c0-0.1,0-0.3,0-0.4l1,0.7l0.6,7.8l1.4,1l-0.5-7.7l1.6,1.1l-0.3,5.3l5.9-8.7l-4.7,2.1l-1.6-1.1l7.3-2.4l-1.4-1
						l-7.5,2.3l-0.9-0.6c0,0,0.1,0,0.1,0l3.7-1.3c1.3-0.5,1.4-2.4,0.1-3.1l-3.5-1.9c-0.1-0.1-0.2-0.1-0.3-0.2l1.1-0.6l7.1,3.3
						l1.5-0.8l-6.9-3.4l1.7-0.9l4.5,2.9l-4.7-9.4l-0.5,5.2l-1.7,0.9l1.5-7.6l-1.5,0.8l-1.6,7.6l-1,0.5c0-0.1,0-0.1,0-0.2l0.6-4
						c0.2-1.4-1.3-2.5-2.5-1.8l-3.3,2.1c0,0,0,0,0,0l0.1-1.4l6.5-4.2l0.2-1.7l-6.5,4.1l0.2-1.9l4.8-2.3l-10.4-0.9l4.1,3.1l-0.2,2
						l-5.7-5.3l-0.2,1.7l5.7,5.4l-0.1,1.5c-0.1-0.1-0.3-0.2-0.4-0.2l-3.1-2.7c-1.1-1-2.8-0.2-2.7,1.3l0.2,4.1c0,0.1,0,0.3,0,0.4
						l-1.3-0.9l-0.6-7.8l-1.4-1l0.5,7.7l-1.6-1.1l0.2-5.3l-5.8,8.7l4.7-2.1l1.6,1.1l-7.3,2.4l1.4,1l7.4-2.3l1.2,0.8c0,0,0,0-0.1,0
						l-3.7,1.3c-1.3,0.5-1.4,2.4-0.1,3.1l3.5,1.9c0.1,0,0.1,0.1,0.2,0.1l-1,0.5l-7.1-3.3l-1.5,0.8l6.9,3.3l-1.7,0.9l-4.5-2.8
						l4.7,9.4l0.5-5.2l1.7-0.9l-1.5,7.6l1.5-0.8l1.6-7.6l0,0l1-0.5c0,0.1,0,0.2,0,0.4l-0.6,4c-0.2,1.4,1.3,2.5,2.5,1.8l3.3-2.1
						c0,0,0,0,0.1,0l-0.1,1.7l-6.3,4.2l-0.2,1.7l6.4-4.1l-0.1,1.9l-4.8,2.4l10.4,0.9l-4.1-3.1L542.8,117.2z M539.2,102.5
						c0.3-0.7,0.5-1.5,0.4-2.3l0-0.8l0.6,0.6c0.6,0.5,1.3,0.9,2,1.1l-0.3,3.4L539.2,102.5z M536.6,105.6l-0.7-0.4l0.8-0.3
						c0.2-0.1,0.3-0.1,0.5-0.2c0.5-0.2,0.9-0.6,1.2-0.9l2.7,1.8l-2.8,1.4C537.8,106.4,537.2,105.9,536.6,105.6z M543.5,104.4
						l0.3-3.3c0.5-0.1,1-0.2,1.5-0.4c0.2-0.1,0.3-0.2,0.4-0.2l0.7-0.4l-0.1,0.8c-0.1,0.7,0,1.5,0.2,2.2L543.5,104.4z M547,104.3
						c0.4,0.7,1,1.2,1.7,1.6l0.7,0.4l-0.8,0.3c-0.2,0.1-0.3,0.1-0.5,0.2c-0.5,0.2-0.9,0.6-1.3,0.9l-2.9-2L547,104.3z M539.7,111.1
						l-0.7,0.4l0.1-0.8c0.1-0.8,0-1.6-0.2-2.3l2.8-1.4l-0.2,3.5c-0.5,0.1-1,0.2-1.5,0.4C540,110.9,539.8,111,539.7,111.1z
						 M545.2,111.6c-0.6-0.5-1.3-0.9-2.1-1.1l0.2-3.4V107l0,0l2.9,2c-0.3,0.7-0.5,1.5-0.4,2.3l0,0.8L545.2,111.6z"/>
				</g>
				<polygon class="st25" points="543.2,107.1 543.3,107 543.3,107.1 				"/>
			</g>
		</g>
	</g>
	<g style="clip-path:url(#SVGID_00000176736373809623178880000015881800724113698992_);">
		<g>
			<g>
				<g>
					<path class="st25" d="M649.1,100.4l5.1,4.7l0.1-1.5l-5.2-4.9l0.1-1.4c0.1,0.1,0.2,0.1,0.3,0.2l2.7,2.4c1,0.9,2.5,0.1,2.4-1.2
						l-0.2-3.6c0-0.1,0-0.2,0-0.4l0.9,0.6l0.5,6.9l1.3,0.9l-0.4-6.8l1.4,1l-0.2,4.8l5.2-7.7l-4.2,1.8l-1.4-1L664,93l-1.3-0.9
						l-6.6,2.1l-0.8-0.5c0,0,0,0,0.1,0l3.3-1.2c1.2-0.4,1.3-2.1,0.1-2.8l-3.2-1.7c-0.1-0.1-0.2-0.1-0.3-0.2l1-0.5l6.3,2.9l1.4-0.7
						l-6.2-3l1.5-0.8l4,2.5l-4.2-8.4l-0.5,4.6l-1.5,0.8l1.3-6.7l-1.4,0.7l-1.5,6.8l-0.9,0.5c0-0.1,0-0.1,0-0.2l0.5-3.6
						c0.2-1.3-1.2-2.3-2.3-1.6l-2.9,1.9c0,0,0,0,0,0l0.1-1.2l5.8-3.8l0.1-1.5l-5.8,3.7l0.1-1.7l4.3-2.1l-9.3-0.8l3.7,2.8l-0.1,1.7
						l-5-4.7l-0.1,1.5l5.1,4.8l-0.1,1.3c-0.1-0.1-0.2-0.1-0.3-0.2l-2.7-2.4c-1-0.9-2.5-0.1-2.4,1.2l0.2,3.6c0,0.1,0,0.2,0,0.4
						l-1.1-0.8l-0.6-6.9l-1.3-0.8l0.4,6.8l-1.4-1l0.2-4.8l-5.2,7.7l4.2-1.9l1.4,1l-6.5,2.2l1.3,0.8l6.6-2.1l1,0.7c0,0,0,0-0.1,0
						l-3.3,1.2c-1.2,0.4-1.3,2.1-0.1,2.8l3.2,1.7c0.1,0,0.1,0.1,0.2,0.1l-0.9,0.4l-6.3-2.9l-1.4,0.7l6.2,3l-1.5,0.8l-4-2.5l4.2,8.3
						l0.4-4.6l1.5-0.8l-1.3,6.7l1.4-0.7l1.4-6.8l0,0l0.9-0.5c0,0.1,0,0.2,0,0.3l-0.5,3.6c-0.2,1.3,1.2,2.3,2.3,1.6l2.9-1.9
						c0,0,0,0,0,0l-0.1,1.5l-5.6,3.8l-0.1,1.5l5.7-3.7l-0.1,1.7l-4.3,2.1l9.3,0.8l-3.7-2.8L649.1,100.4z M645.9,87.3
						c0.3-0.6,0.4-1.3,0.4-2l0-0.8l0.6,0.5c0.5,0.5,1.2,0.8,1.8,0.9l-0.2,3L645.9,87.3z M643.6,90.1l-0.7-0.4l0.7-0.2
						c0.1-0.1,0.3-0.1,0.4-0.2c0.4-0.2,0.8-0.5,1.1-0.8l2.4,1.6l-2.5,1.3C644.7,90.8,644.2,90.4,643.6,90.1z M649.7,89.1l0.2-3
						c0.5,0,0.9-0.2,1.4-0.4c0.1-0.1,0.3-0.1,0.4-0.2l0.6-0.4l-0.1,0.7c-0.1,0.7,0,1.3,0.1,1.9L649.7,89.1z M652.9,89
						c0.4,0.6,0.9,1.1,1.5,1.4l0.7,0.4l-0.7,0.2c-0.1,0.1-0.3,0.1-0.4,0.2c-0.4,0.2-0.8,0.5-1.1,0.8l-2.6-1.8L652.9,89z M646.4,95
						l-0.6,0.4l0.1-0.7c0.1-0.7,0-1.4-0.2-2.1l2.5-1.3l-0.2,3.1c-0.4,0.1-0.9,0.2-1.3,0.4C646.6,94.8,646.5,94.9,646.4,95z
						 M651.3,95.4c-0.6-0.5-1.2-0.8-1.9-0.9l0.1-3v-0.1l0,0l2.6,1.8c-0.3,0.6-0.4,1.3-0.4,2l0,0.8L651.3,95.4z"/>
				</g>
				<polygon class="st25" points="649.5,91.4 649.5,91.4 649.6,91.4 				"/>
			</g>
		</g>
	</g>
	<g style="clip-path:url(#SVGID_00000176736373809623178880000015881800724113698992_);">
		<g>
			<g>
				<g>
					<path class="st25" d="M499.9,142.5l1.6,5.3l0.7-1l-1.6-5.4l0.6-0.9c0.1,0.1,0.1,0.2,0.1,0.3l0.9,2.7c0.3,1,1.6,1.1,2.1,0.1
						l1.3-2.6c0-0.1,0.1-0.2,0.2-0.2l0.4,0.8l-2.4,5l0.5,1.1l2.4-4.9l0.6,1.2l-2.1,3.2l6.7-3.2l-3.6-0.4l-0.6-1.2l5.3,1.1l-0.5-1.1
						l-5.4-1.2l-0.3-0.7c0,0,0,0,0.1,0l2.7,0.5c1,0.2,1.7-1,1.2-1.8l-1.5-2.4c0-0.1-0.1-0.2-0.1-0.3l0.9,0.1l3.1,4.5l1.2,0.1l-3-4.5
						l1.4,0.1l1.8,3.4l0.5-7.4l-2.2,3l-1.4-0.1l3.6-4.1l-1.2-0.1l-3.7,4.1l-0.8-0.1c0,0,0-0.1,0.1-0.1l1.8-2.2c0.6-0.8,0.1-2-0.9-2
						l-2.8,0.1c0,0,0,0,0,0l0.6-0.8l5.5-0.3l0.7-1l-5.4,0.2l0.8-1.1l3.8,0.3l-6-4.3l1.4,3.4l-0.8,1.1l-1.6-5.2l-0.7,1l1.5,5.3
						l-0.6,0.9c-0.1-0.1-0.1-0.2-0.1-0.3l-0.9-2.7c-0.3-1-1.6-1.1-2.1-0.1l-1.3,2.6c0,0.1-0.1,0.2-0.2,0.2l-0.5-1l2.4-5l-0.5-1.1
						l-2.4,4.8l-0.6-1.2l2-3.2l-6.7,3.2l3.6,0.4l0.6,1.2l-5.3-1.1l0.5,1.1l5.4,1.2l0.4,0.9c0,0,0,0-0.1,0l-2.7-0.5
						c-1-0.2-1.7,1-1.2,1.8l1.5,2.4c0,0,0,0.1,0.1,0.1l-0.8-0.1l-3.2-4.5l-1.2-0.1l3.1,4.5l-1.4-0.1l-1.8-3.3l-0.4,7.4l2.1-3
						l1.4,0.1l-3.6,4.1l1.2,0.1l3.7-4.1l0,0l0.8,0.1c0,0.1-0.1,0.1-0.1,0.2l-1.8,2.2c-0.6,0.8-0.1,2,0.9,2l2.8-0.1c0,0,0,0,0,0
						l-0.6,1l-5.4,0.3l-0.7,1l5.4-0.2l-0.7,1.1l-3.8-0.2l6.1,4.2l-1.4-3.4L499.9,142.5z M502.9,132.2c0.4-0.3,0.8-0.7,1.1-1.2
						l0.3-0.5l0.2,0.6c0.2,0.5,0.5,1,0.9,1.4l-1.4,2L502.9,132.2z M500.2,133.2l-0.3-0.5l0.6,0.1c0.1,0,0.2,0,0.4,0
						c0.4,0,0.7,0,1.1-0.1l1,2.1l-2.2-0.1C500.7,134.1,500.5,133.6,500.2,133.2z M504.9,134.9l1.3-1.9c0.3,0.2,0.7,0.2,1.1,0.3
						c0.1,0,0.2,0,0.4,0l0.6,0l-0.4,0.5c-0.3,0.4-0.6,0.9-0.7,1.4L504.9,134.9z M507.1,136.1c0,0.6,0.2,1.1,0.5,1.6l0.3,0.5
						l-0.6-0.1c-0.1,0-0.2,0-0.4,0c-0.4,0-0.8,0-1.1,0.1l-1.1-2.2L507.1,136.1z M500.2,137.6l-0.6,0l0.4-0.5c0.4-0.4,0.6-1,0.7-1.5
						l2.2,0.1l-1.3,2.1c-0.3-0.1-0.7-0.2-1-0.2C500.4,137.6,500.3,137.6,500.2,137.6z M503.4,139.9c-0.2-0.6-0.5-1-0.9-1.4l1.3-2
						l0,0l0,0l1.1,2.2c-0.4,0.3-0.8,0.7-1,1.2l-0.3,0.5L503.4,139.9z"/>
				</g>
				<polygon class="st25" points="503.8,136.5 503.8,136.4 503.8,136.4 				"/>
			</g>
		</g>
	</g>
	<g style="clip-path:url(#SVGID_00000176736373809623178880000015881800724113698992_);">
		<g>
			<g>
				<g>
					<path class="st25" d="M642.8,139.3l0,4.5l0.8-0.6l0.1-4.6l0.7-0.6c0,0.1,0,0.2,0,0.2l0,2.4c0,0.9,1,1.2,1.6,0.6l1.7-1.7
						c0.1-0.1,0.1-0.1,0.2-0.1l0.1,0.7l-3.1,3.3l0.1,1l3.1-3.2l0.2,1.1l-2.4,2l6-0.8l-2.7-1.2l-0.2-1.1l3.9,2.2l-0.1-1l-3.9-2.3
						l-0.1-0.6c0,0,0,0,0,0l2,1.1c0.7,0.4,1.6-0.3,1.4-1.1l-0.5-2.3c0-0.1,0-0.1,0-0.2l0.7,0.3l1.3,4.3l0.9,0.4l-1.2-4.3l1,0.4
						l0.5,3.1l2.2-5.7l-2.4,1.8l-1-0.4l3.8-2.3l-0.9-0.4l-3.9,2.3l-0.6-0.2c0,0,0,0,0.1-0.1l2-1.3c0.7-0.5,0.6-1.6-0.2-1.8l-2.2-0.6
						c0,0,0,0,0,0l0.6-0.5l4.3,1.1l0.8-0.6l-4.3-1.2l0.9-0.7l2.9,1.2l-3.7-4.9l0.2,3l-0.9,0.7l0.1-4.5l-0.8,0.6l-0.1,4.6l-0.7,0.5
						c0-0.1,0-0.2,0-0.3l0-2.4c0-0.9-1-1.2-1.6-0.6l-1.7,1.7c-0.1,0.1-0.1,0.1-0.2,0.1l-0.1-0.9l3.1-3.3l-0.1-1l-3.1,3.2l-0.2-1.1
						l2.4-2l-6,0.8l2.8,1.2l0.2,1.1l-3.9-2.2l0.1,1l3.9,2.3l0.1,0.8c0,0,0,0,0,0l-2-1.1c-0.7-0.4-1.6,0.3-1.4,1.1l0.5,2.3
						c0,0,0,0.1,0,0.1l-0.6-0.2l-1.3-4.3l-0.9-0.4l1.3,4.3l-1-0.4l-0.5-3.1l-2.2,5.7l2.4-1.8l1,0.4l-3.8,2.3l0.9,0.4l3.9-2.3l0,0
						l0.6,0.2c0,0.1-0.1,0.1-0.2,0.1l-2,1.3c-0.7,0.5-0.6,1.6,0.2,1.8l2.2,0.6c0,0,0,0,0,0l-0.7,0.6l-4.3-1.1l-0.8,0.6l4.3,1.2
						l-0.8,0.7l-2.9-1.1l3.7,4.9l-0.3-3L642.8,139.3z M647.8,132c0.4-0.1,0.8-0.4,1.1-0.7l0.3-0.4l0,0.5c0,0.5,0.1,0.9,0.3,1.3
						l-1.6,1.2L647.8,132z M645.4,132.1l-0.1-0.5l0.4,0.2c0.1,0.1,0.2,0.1,0.3,0.1c0.3,0.1,0.6,0.2,0.9,0.2l0.3,1.9l-1.7-0.7
						C645.5,132.9,645.5,132.5,645.4,132.1z M648.6,134.6l1.5-1.2c0.2,0.2,0.5,0.4,0.8,0.5c0.1,0,0.2,0.1,0.3,0.1l0.5,0.1l-0.4,0.3
						c-0.4,0.2-0.7,0.6-0.9,0.9L648.6,134.6z M650,136.1c-0.1,0.4-0.1,0.9,0,1.4l0.1,0.5l-0.4-0.2c-0.1-0.1-0.2-0.1-0.3-0.1
						c-0.3-0.1-0.6-0.2-0.9-0.2l-0.3-2L650,136.1z M644.3,135.6l-0.5-0.1l0.4-0.3c0.4-0.3,0.7-0.6,0.9-1l1.7,0.7l-1.6,1.3
						c-0.2-0.2-0.5-0.4-0.8-0.5C644.4,135.6,644.3,135.6,644.3,135.6z M646.2,138.1c0-0.5-0.1-0.9-0.4-1.3l1.5-1.3l0,0v0l0.3,2
						c-0.4,0.1-0.8,0.4-1.1,0.7l-0.3,0.4L646.2,138.1z"/>
				</g>
				<polygon class="st25" points="647.4,135.5 647.4,135.5 647.4,135.5 				"/>
			</g>
		</g>
	</g>
	<g style="clip-path:url(#SVGID_00000176736373809623178880000015881800724113698992_);">
		<g>
			<g>
				<g>
					<path class="st25" d="M688.1,133.4l3.5,9.2l1.1-1.9l-3.5-9.5l1-1.8c0.1,0.1,0.2,0.3,0.3,0.5l2,4.8c0.7,1.7,3,1.7,3.8,0l2-4.7
						c0.1-0.2,0.2-0.3,0.3-0.4l0.7,1.3l-3.7,9.1l1.1,1.9l3.8-8.9l1.2,2.1l-3.3,5.9l11.5-6.5l-6.5-0.3l-1.2-2.1l9.6,1.4l-1.1-1.9
						l-9.7-1.6l-0.7-1.2c0,0,0.1,0,0.1,0l4.9,0.6c1.8,0.2,2.9-1.9,1.9-3.4l-2.9-4.2c-0.1-0.1-0.2-0.3-0.2-0.4h1.6l6.1,7.7h2.2
						l-5.9-7.7h2.4l3.5,5.8l0-13.2l-3.5,5.5H708l5.9-7.7h-2.2l-6.1,7.7h-1.5c0-0.1,0.1-0.1,0.1-0.2l2.9-4.2c1.1-1.5-0.1-3.6-1.9-3.4
						l-4.9,0.6c0,0,0,0,0,0l0.9-1.5l9.7-1.2l1.1-1.8l-9.6,1l1.2-2.1l6.8,0l-11.3-6.9l2.9,5.9l-1.3,2.1l-3.5-9.1l-1.1,1.8l3.4,9.3
						l-1,1.6c-0.1-0.2-0.2-0.3-0.3-0.5l-2-4.8c-0.7-1.7-3-1.7-3.8,0l-2,4.7c-0.1,0.2-0.2,0.3-0.3,0.4l-1-1.7l3.7-9.2l-1.1-1.9
						l-3.8,9l-1.2-2.1l3.3-5.9l-11.5,6.5l6.5,0.3l1.2,2.1l-9.6-1.3l1.1,1.9l9.7,1.5l0.9,1.6c0,0-0.1,0-0.1,0l-4.9-0.6
						c-1.8-0.2-2.9,1.9-1.9,3.4l2.9,4.2c0,0.1,0.1,0.2,0.1,0.2l-1.4,0l-6.2-7.7l-2.2,0l6,7.7l-2.4,0l-3.5-5.8l0.1,13.2l3.5-5.6
						l2.5,0l-5.9,7.7l2.2,0l6.1-7.7l0,0l1.5,0c-0.1,0.1-0.1,0.3-0.2,0.4l-2.9,4.2c-1.1,1.5,0.1,3.6,1.9,3.4l4.9-0.6c0,0,0.1,0,0.1,0
						l-1,1.8l-9.5,1.2l-1.1,1.9l9.5-1.1l-1.2,2.1h-6.8l11.3,6.9l-2.9-5.8L688.1,133.4z M692.3,114.7c0.7-0.6,1.3-1.4,1.7-2.3l0.4-1
						l0.4,1c0.4,0.9,1,1.7,1.7,2.3l-2.2,3.7L692.3,114.7z M687.6,116.8l-0.6-0.9l1,0.1c0.2,0,0.4,0,0.6,0c0.7,0,1.3-0.1,1.9-0.3
						l2,3.6l-4,0C688.5,118.4,688.2,117.5,687.6,116.8z M696,119.3l2.2-3.6c0.6,0.2,1.3,0.4,2,0.4c0.2,0,0.4,0,0.6,0l1-0.1l-0.6,0.9
						c-0.5,0.8-0.9,1.6-1,2.5H696z M700.1,121.2c0.1,1,0.5,1.9,1.1,2.8l0.6,0.9l-1-0.1c-0.2,0-0.4,0-0.6,0c-0.7,0-1.3,0.1-1.9,0.3
						l-2.2-3.8H700.1z M688,124.8l-1,0.1l0.6-0.9c0.6-0.8,1-1.8,1.1-2.8l4,0l-2.1,3.8c-0.6-0.2-1.2-0.3-1.9-0.3
						C688.4,124.7,688.2,124.7,688,124.8z M694,128.4c-0.4-1-1-1.8-1.8-2.4l2.1-3.8l0-0.1l0,0l2.2,3.9c-0.7,0.6-1.3,1.4-1.7,2.3
						l-0.4,1L694,128.4z"/>
				</g>
				<polygon class="st25" points="694.3,122.2 694.3,122.2 694.4,122.2 				"/>
			</g>
		</g>
	</g>
	<g style="clip-path:url(#SVGID_00000176736373809623178880000015881800724113698992_);">
		<g>
			<g>
				<g>
					<path class="st26" d="M795.6,117.9l-2.2,6.9l1.5-0.5l2.4-7l1.4-0.6c0,0.1,0,0.3-0.1,0.4l-1.1,3.6c-0.4,1.3,0.9,2.4,2.2,1.8
						l3.3-1.8c0.1-0.1,0.2-0.1,0.4-0.1l-0.2,1.1l-6.4,3.5l-0.3,1.6l6.3-3.4l-0.3,1.8L798,127l9.6,1.6l-3.6-3.2l0.3-1.8l4.9,5.3
						l0.3-1.6l-4.8-5.4l0.2-1c0,0,0,0,0.1,0.1l2.5,2.6c0.9,0.9,2.6,0.3,2.7-1.1l0.3-3.8c0-0.1,0-0.2,0.1-0.4l0.9,0.7l-0.1,7.3l1.2,1
						l0.2-7.2l1.4,1.1l-0.7,4.9l6.2-7.6l-4.6,1.6l-1.4-1.1l7-1.7l-1.2-1l-7.1,1.6l-0.8-0.7c0,0,0.1,0,0.2-0.1l3.6-1
						c1.3-0.4,1.6-2.1,0.5-2.8l-3.1-2c0,0,0,0,0,0l1.2-0.4l6.1,3.8l1.5-0.5l-6-3.9l1.7-0.6l3.8,3.2l-3.2-9.2l-1.1,4.7l-1.7,0.6
						l2.3-6.8l-1.5,0.5l-2.4,6.9l-1.3,0.5c0-0.1,0-0.3,0.1-0.4l1.1-3.6c0.4-1.3-0.9-2.4-2.2-1.8l-3.3,1.8c-0.1,0.1-0.2,0.1-0.4,0.1
						l0.2-1.4l6.3-3.5l0.3-1.6l-6.3,3.4l0.3-1.8l4.6-1.8l-9.6-1.6l3.6,3.2l-0.3,1.8l-4.9-5.2l-0.3,1.6l4.8,5.4l-0.2,1.3
						c0,0,0,0,0-0.1l-2.5-2.6c-0.9-0.9-2.6-0.3-2.7,1.1l-0.3,3.8c0,0.1,0,0.1,0,0.2l-0.8-0.7l0-7.3l-1.2-1l-0.1,7.2l-1.4-1.1
						l0.7-4.9l-6.1,7.6l4.6-1.6l1.4,1.1l-7,1.7l1.2,1l7.1-1.6l0,0l0.8,0.7c-0.1,0.1-0.2,0.1-0.3,0.1l-3.6,1
						c-1.3,0.4-1.6,2.1-0.5,2.8l3.1,2c0,0,0,0,0,0l-1.4,0.6l-6-3.7l-1.5,0.5l6,3.8l-1.6,0.7l-3.9-3.1l3.3,9.2l1-4.7L795.6,117.9z
						 M806.7,109.2c0.7,0,1.4-0.2,2.1-0.5l0.7-0.4l-0.2,0.8c-0.2,0.7-0.2,1.4-0.1,2.1l-3,1.1L806.7,109.2z M803.1,108.2l0.1-0.8
						l0.5,0.5c0.1,0.1,0.2,0.2,0.3,0.3c0.4,0.3,0.8,0.6,1.3,0.7l-0.5,3l-2.3-1.8C802.8,109.5,803,108.9,803.1,108.2z M806.7,113.6
						l2.9-1.1c0.2,0.4,0.6,0.8,1,1.1c0.1,0.1,0.2,0.2,0.4,0.3l0.6,0.4l-0.8,0.2c-0.7,0.2-1.3,0.5-1.8,1L806.7,113.6z M808.2,116.6
						c-0.4,0.6-0.6,1.3-0.7,2.1l-0.1,0.8l-0.5-0.5c-0.1-0.1-0.2-0.2-0.3-0.3c-0.4-0.3-0.8-0.6-1.3-0.7l0.5-3.2L808.2,116.6z
						 M799.6,112.9l-0.6-0.4l0.8-0.2c0.7-0.2,1.4-0.6,1.9-1.1l2.3,1.8l-3,1.2c-0.2-0.4-0.5-0.8-0.9-1.1
						C799.9,113.1,799.7,113,799.6,112.9z M801.3,117.8c0.2-0.7,0.2-1.5,0.1-2.2l3-1.2l0.1,0v0l-0.5,3.2c-0.7,0-1.4,0.2-2.1,0.5
						l-0.7,0.4L801.3,117.8z"/>
				</g>
				<polygon class="st26" points="804.4,114.4 804.4,114.4 804.4,114.4 				"/>
			</g>
		</g>
	</g>
	<g style="clip-path:url(#SVGID_00000176736373809623178880000015881800724113698992_);">
		<g>
			<g>
				<g>
					<path class="st27" d="M925,107.2l-7.9,4.6l1.8,0.8l8.1-4.5l1.7,0.6c-0.1,0.1-0.2,0.2-0.4,0.3l-4,2.5c-1.5,0.9-1.1,3,0.5,3.4
						l4.6,1.1c0.2,0,0.3,0.1,0.5,0.2l-1.1,0.8l-8.9-2l-1.6,1.2l8.7,2.2l-1.8,1.4l-5.8-2.2l7.6,9.6l-0.7-6l1.8-1.4l0.1,9l1.6-1.2
						l0-9.1l1-0.8c0,0,0,0.1,0,0.1l0.2,4.6c0.1,1.7,2.2,2.4,3.4,1.2l3.4-3.3c0.1-0.1,0.2-0.2,0.4-0.3l0.2,1.4l-6.1,6.7l0.3,2
						l6.2-6.5l0.3,2.2l-4.8,4l12.1-1.9l-5.5-2.4l-0.4-2.2l7.9,4.3l-0.3-2l-7.9-4.5l-0.2-1.3c0.1,0,0.1,0.1,0.2,0.1l4.2,2.1
						c1.5,0.8,3.3-0.6,2.8-2.2l-1.2-4.4c0,0,0,0,0,0l1.5,0.6l2.5,8.7l1.8,0.8l-2.3-8.6l2.1,0.8l0.9,6.2l4.7-11.3l-4.9,3.5l-2.1-0.8
						l7.8-4.5l-1.8-0.8l-8,4.4l-1.6-0.7c0.1-0.1,0.2-0.2,0.4-0.3l4-2.5c1.5-0.9,1.1-3-0.5-3.4l-4.6-1.1c-0.2,0-0.3-0.1-0.5-0.2
						l1.4-1.1l8.9,2l1.6-1.2l-8.7-2.1l1.8-1.4l5.9,2.1l-7.6-9.5l0.7,6l-1.8,1.4l-0.2-9l-1.6,1.2l0,9.1l-1.3,1c0,0,0-0.1,0-0.1
						l-0.2-4.6c-0.1-1.7-2.2-2.4-3.4-1.2l-3.4,3.3c-0.1,0.1-0.1,0.1-0.2,0.2l-0.2-1.3l6.1-6.8l-0.3-2l-6.1,6.6l-0.4-2.2l4.7-4.1
						l-12.1,2l5.6,2.3l0.4,2.2l-7.9-4.3l0.3,2l7.9,4.4l0,0l0.2,1.3c-0.1,0-0.3-0.1-0.4-0.1l-4.2-2.1c-1.5-0.8-3.3,0.6-2.8,2.2
						l1.2,4.4c0,0,0,0.1,0,0.1l-1.8-0.7l-2.5-8.5l-1.8-0.8l2.3,8.6l-2-0.8l-1-6.2l-4.6,11.3l4.9-3.5L925,107.2z M942.6,108.3
						c0.7,0.6,1.5,1,2.4,1.2l1,0.2l-0.8,0.5c-0.8,0.5-1.4,1.1-1.9,1.9l-3.7-1.5L942.6,108.3z M940.1,104.4l0.7-0.7l0,0.9
						c0,0.2,0,0.4,0.1,0.6c0.1,0.6,0.3,1.2,0.6,1.7l-3,2.4l-0.6-3.6C938.7,105.4,939.5,105,940.1,104.4z M939,112.4l3.6,1.4
						c-0.1,0.6-0.1,1.2,0,1.8c0,0.2,0.1,0.4,0.1,0.6l0.2,0.9l-0.9-0.4c-0.8-0.4-1.6-0.6-2.5-0.6L939,112.4z M937.8,116.4
						c-0.9,0.3-1.7,0.7-2.4,1.4l-0.7,0.7l0-0.9c0-0.2,0-0.4-0.1-0.6c-0.1-0.6-0.3-1.2-0.6-1.7l3.2-2.5L937.8,116.4z M932.9,105.9
						l-0.2-0.9l0.9,0.4c0.8,0.4,1.8,0.6,2.7,0.6l0.6,3.6l-3.8-1.4c0.1-0.6,0.1-1.2,0-1.8C933,106.3,932.9,106.1,932.9,105.9z
						 M930.4,111.8c0.8-0.5,1.5-1.2,1.9-2l3.8,1.4l0.1,0l0,0l-3.2,2.6c-0.7-0.6-1.5-1-2.4-1.2l-1-0.2L930.4,111.8z"/>
				</g>
				<polygon class="st27" points="936.1,111.2 936.2,111.3 936.1,111.3 				"/>
			</g>
		</g>
	</g>
	<g style="clip-path:url(#SVGID_00000176736373809623178880000015881800724113698992_);">
		<g>
			<g>
				<g>
					<path class="st28" d="M1008.5,35.5l-6.8-2.2l0.5,1.5l6.9,2.4l0.5,1.3c-0.1,0-0.3,0-0.4-0.1l-3.6-1c-1.3-0.4-2.3,0.9-1.7,2.1
						l1.8,3.3c0.1,0.1,0.1,0.2,0.1,0.3l-1.1-0.2l-3.5-6.2l-1.5-0.3l3.3,6.2l-1.7-0.3l-1.8-4.5l-1.6,9.4l3.1-3.5l1.8,0.3l-5.2,4.8
						l1.5,0.3l5.3-4.7l1,0.2c0,0,0,0-0.1,0.1L1003,47c-0.9,0.9-0.3,2.5,1.1,2.6l3.7,0.3c0.1,0,0.2,0,0.4,0.1l-0.7,0.9l-7.1,0l-1,1.2
						l7,0.2l-1.1,1.4l-4.8-0.7l7.4,6l-1.5-4.5l1.1-1.4l1.6,6.8l1-1.2l-1.5-6.9l0.7-0.8c0,0,0,0.1,0,0.1l1,3.5
						c0.4,1.3,2.1,1.6,2.8,0.5l1.9-3c0,0,0,0,0,0l0.4,1.2l-3.7,6l0.5,1.5l3.8-5.9l0.6,1.6l-3.1,3.8l9-3.2l-4.6-1l-0.6-1.7l6.7,2.2
						l-0.5-1.5l-6.8-2.4l-0.5-1.3c0.1,0,0.3,0,0.4,0.1l3.6,1c1.3,0.4,2.3-0.9,1.7-2.1l-1.8-3.3c-0.1-0.1-0.1-0.2-0.1-0.3l1.4,0.2
						l3.5,6.2l1.5,0.2l-3.3-6.2l1.7,0.3l1.8,4.5l1.6-9.4l-3.1,3.5l-1.7-0.3l5.1-4.8l-1.5-0.2l-5.3,4.8l-1.3-0.2c0,0,0,0,0,0l2.5-2.5
						c0.9-0.9,0.3-2.5-1.1-2.6l-3.7-0.3c-0.1,0-0.1,0-0.2,0l0.6-0.8l7.1,0l1-1.2l-7-0.1l1.1-1.4l4.8,0.6l-7.5-6l1.5,4.5l-1.1,1.4
						l-1.7-6.8l-1,1.2l1.6,6.9l0,0l-0.7,0.8c0-0.1-0.1-0.2-0.1-0.3l-1-3.5c-0.4-1.3-2.1-1.6-2.8-0.5l-1.9,3c0,0,0,0,0,0l-0.6-1.4
						l3.7-5.9l-0.5-1.5l-3.8,5.8l-0.6-1.6l3.1-3.8l-9,3.2l4.6,1L1008.5,35.5z M1017.1,46.3c0,0.7,0.2,1.4,0.5,2l0.4,0.7l-0.7-0.2
						c-0.7-0.2-1.4-0.2-2.1-0.1l-1.1-2.9L1017.1,46.3z M1018.1,42.8l0.8,0.1l-0.5,0.5c-0.1,0.1-0.2,0.2-0.3,0.3
						c-0.3,0.4-0.5,0.8-0.7,1.2l-2.9-0.5l1.8-2.2C1016.8,42.5,1017.4,42.7,1018.1,42.8z M1012.8,46.3l1,2.9
						c-0.4,0.2-0.8,0.6-1.1,0.9c-0.1,0.1-0.2,0.2-0.3,0.4l-0.4,0.6l-0.2-0.7c-0.2-0.7-0.5-1.2-1-1.7L1012.8,46.3z M1009.9,47.7
						c-0.6-0.4-1.3-0.6-2-0.7l-0.8-0.1l0.5-0.5c0.1-0.1,0.2-0.2,0.3-0.3c0.3-0.4,0.5-0.8,0.7-1.2l3.1,0.5L1009.9,47.7z M1013.4,39.3
						l0.4-0.6l0.2,0.7c0.2,0.7,0.6,1.3,1.1,1.9l-1.8,2.2l-1.2-3c0.4-0.2,0.7-0.5,1-0.9C1013.2,39.6,1013.3,39.5,1013.4,39.3z
						 M1008.7,41c0.7,0.2,1.5,0.2,2.2,0.1l1.2,2.9l0,0.1h0l-3.2-0.5c0-0.7-0.2-1.4-0.5-2l-0.4-0.7L1008.7,41z"/>
				</g>
				<polygon class="st28" points="1012,44 1012,44.1 1012,44.1 				"/>
			</g>
		</g>
	</g>
	<g style="clip-path:url(#SVGID_00000176736373809623178880000015881800724113698992_);">
		<g>
			<g>
				<g>
					<path class="st28" d="M1052,82.3l-7.9,4.6l1.8,0.8l8.1-4.5l1.7,0.6c-0.1,0.1-0.2,0.2-0.4,0.3l-4.1,2.5c-1.5,0.9-1.1,3,0.5,3.4
						l4.6,1.1c0.2,0,0.3,0.1,0.4,0.2l-1.1,0.8l-8.9-2l-1.6,1.2l8.7,2.2l-1.8,1.4l-5.8-2.2l7.6,9.6l-0.7-6l1.8-1.4l0.1,9l1.6-1.2
						l0-9.1l1-0.8c0,0,0,0.1,0,0.1l0.2,4.6c0.1,1.7,2.2,2.4,3.4,1.2l3.4-3.3c0.1-0.1,0.2-0.2,0.4-0.3l0.2,1.4l-6.1,6.7l0.3,2
						l6.2-6.5l0.3,2.2l-4.8,4l12.1-1.9l-5.6-2.4l-0.4-2.2l7.9,4.3l-0.3-2l-7.9-4.5l-0.2-1.3c0.1,0,0.1,0.1,0.2,0.1l4.2,2.1
						c1.5,0.8,3.3-0.6,2.8-2.2l-1.2-4.4c0,0,0,0,0,0l1.5,0.6l2.5,8.7l1.8,0.8l-2.3-8.6l2.1,0.8l0.9,6.2l4.7-11.3l-4.9,3.5l-2.1-0.8
						l7.8-4.5l-1.8-0.8l-8,4.4l-1.6-0.7c0.1-0.1,0.2-0.2,0.4-0.3l4.1-2.5c1.5-0.9,1.1-3-0.5-3.4l-4.6-1.1c-0.2,0-0.3-0.1-0.4-0.2
						l1.4-1.1l8.9,2l1.6-1.2l-8.7-2.1l1.8-1.4l5.9,2.1l-7.6-9.5l0.7,6l-1.8,1.4l-0.2-9l-1.6,1.2l0,9.1l-1.3,1c0,0,0-0.1,0-0.1
						l-0.2-4.6c-0.1-1.7-2.2-2.4-3.4-1.2l-3.4,3.3c-0.1,0.1-0.1,0.1-0.2,0.2l-0.2-1.3l6.1-6.8l-0.3-2l-6.1,6.6l-0.4-2.2l4.7-4.1
						l-12.1,2l5.6,2.3l0.4,2.2l-7.9-4.3l0.3,2l7.9,4.4l0,0l0.2,1.3c-0.1,0-0.3-0.1-0.4-0.1l-4.2-2.1c-1.5-0.8-3.3,0.6-2.8,2.2
						l1.2,4.4c0,0,0,0.1,0,0.1l-1.8-0.7l-2.5-8.5l-1.8-0.8l2.3,8.6l-2.1-0.8l-1-6.2l-4.6,11.3l4.9-3.5L1052,82.3z M1069.6,83.5
						c0.7,0.6,1.5,1,2.4,1.2l1,0.2l-0.8,0.5c-0.8,0.5-1.4,1.1-1.9,1.9l-3.7-1.5L1069.6,83.5z M1067.1,79.5l0.7-0.7l0,0.9
						c0,0.2,0,0.4,0.1,0.6c0.1,0.6,0.3,1.2,0.6,1.7l-3,2.4l-0.6-3.6C1065.7,80.6,1066.5,80.1,1067.1,79.5z M1066,87.6l3.6,1.4
						c-0.1,0.6-0.1,1.2-0.1,1.8c0,0.2,0.1,0.4,0.1,0.6l0.2,0.9l-0.9-0.4c-0.8-0.4-1.6-0.6-2.5-0.6L1066,87.6z M1064.8,91.6
						c-0.9,0.3-1.7,0.7-2.4,1.4l-0.7,0.7l0-0.9c0-0.2,0-0.4-0.1-0.6c-0.1-0.6-0.3-1.2-0.6-1.7l3.2-2.5L1064.8,91.6z M1059.9,81
						l-0.2-0.9l0.9,0.4c0.8,0.4,1.8,0.6,2.7,0.6l0.6,3.6l-3.8-1.4c0.1-0.6,0.1-1.2,0-1.8C1060,81.4,1059.9,81.2,1059.9,81z
						 M1057.4,87c0.8-0.5,1.5-1.2,1.9-2l3.8,1.4l0.1,0l0,0l-3.2,2.6c-0.7-0.6-1.5-1-2.4-1.2l-1-0.2L1057.4,87z"/>
				</g>
				<polygon class="st28" points="1063.1,86.4 1063.2,86.4 1063.1,86.5 				"/>
			</g>
		</g>
	</g>
	<g style="clip-path:url(#SVGID_00000176736373809623178880000015881800724113698992_);">
		<g>
			<g>
				<g>
					<path class="st27" d="M905.7,62.5l-6.2-1.2l0.6,1.2l6.3,1.3l0.6,1.1c-0.1,0-0.2,0-0.3,0l-3.3-0.5c-1.2-0.2-2,1.1-1.3,2.1
						l1.9,2.7c0.1,0.1,0.1,0.2,0.2,0.3l-1,0l-3.8-5.1l-1.4-0.1l3.6,5.1l-1.6-0.1l-2.1-3.8l-0.3,8.5l2.4-3.5l1.6,0.1l-4,4.8l1.4,0.1
						l4.1-4.8l0.9,0c0,0,0,0,0,0.1l-2,2.5c-0.7,0.9,0,2.2,1.2,2.2l3.3-0.2c0.1,0,0.2,0,0.3,0l-0.5,0.9l-6.3,0.8l-0.7,1.2l6.2-0.7
						l-0.8,1.3l-4.3,0l7.2,4.4l-1.8-3.8l0.8-1.3l2.2,5.8l0.7-1.2l-2.2-5.9L908,76c0,0,0,0.1,0.1,0.1l1.3,3c0.5,1.1,2,1.2,2.5,0.1
						l1.3-2.9c0,0,0,0,0,0l0.5,1l-2.6,5.7l0.6,1.2l2.7-5.6l0.7,1.4l-2.3,3.7l7.6-3.8l-4.2-0.4l-0.7-1.4l6.2,1.2L921,78l-6.2-1.3
						l-0.6-1.1c0.1,0,0.2,0,0.4,0l3.3,0.5c1.2,0.2,2-1.1,1.3-2.1l-1.9-2.7c-0.1-0.1-0.1-0.2-0.2-0.3l1.2,0.1l3.8,5.1l1.4,0.1
						l-3.6-5.1l1.6,0.1l2.1,3.8l0.3-8.5l-2.4,3.5l-1.6-0.1l4-4.8l-1.4-0.1l-4.1,4.8l-1.2,0c0,0,0,0,0-0.1l2-2.5
						c0.7-0.9,0-2.2-1.2-2.2l-3.3,0.2c-0.1,0-0.1,0-0.2,0l0.5-0.8l6.3-0.8l0.7-1.2l-6.2,0.7l0.8-1.3h4.3l-7.3-4.4l1.9,3.8l-0.8,1.3
						l-2.2-5.8l-0.7,1.2l2.2,5.9l0,0l-0.5,0.8c-0.1-0.1-0.1-0.2-0.1-0.2l-1.3-3c-0.5-1.1-2-1.2-2.5-0.1l-1.3,2.9c0,0,0,0,0,0.1
						l-0.7-1.2l2.5-5.6l-0.6-1.2l-2.6,5.6l-0.7-1.3l2.3-3.7l-7.6,3.9l4.2,0.4L905.7,62.5z M914.5,71.1c0.1,0.6,0.3,1.2,0.7,1.7
						l0.4,0.6l-0.7-0.1c-0.6-0.1-1.3,0-1.8,0.2l-1.3-2.4L914.5,71.1z M914.9,67.8l0.7,0l-0.4,0.5c-0.1,0.1-0.2,0.2-0.2,0.3
						c-0.2,0.4-0.4,0.8-0.5,1.2l-2.7-0.1l1.3-2.2C913.7,67.8,914.3,67.9,914.9,67.8z M910.7,71.6l1.2,2.4c-0.3,0.3-0.6,0.6-0.9,0.9
						c-0.1,0.1-0.1,0.2-0.2,0.4l-0.3,0.6l-0.3-0.6c-0.2-0.6-0.6-1-1-1.4L910.7,71.6z M908.2,73.2c-0.6-0.3-1.2-0.4-1.9-0.3l-0.7,0
						l0.4-0.5c0.1-0.1,0.2-0.2,0.2-0.3c0.2-0.4,0.4-0.8,0.5-1.2l2.8,0.1L908.2,73.2z M910.4,65.3l0.3-0.6l0.3,0.6
						c0.3,0.6,0.7,1.1,1.2,1.5l-1.3,2.2l-1.4-2.5c0.3-0.2,0.6-0.6,0.8-0.9C910.3,65.6,910.3,65.5,910.4,65.3z M906.4,67.4
						c0.7,0.1,1.3,0,1.9-0.2l1.4,2.4l0,0.1h0l-2.8-0.1c-0.1-0.6-0.3-1.2-0.7-1.7l-0.4-0.6L906.4,67.4z"/>
				</g>
				<polygon class="st27" points="909.7,69.6 909.7,69.7 909.7,69.7 				"/>
			</g>
		</g>
	</g>
	<g style="clip-path:url(#SVGID_00000176736373809623178880000015881800724113698992_);">
		<g>
			<g>
				<g>
					<path class="st26" d="M763.4,141l-1.6,4.9l1.1-0.4l1.7-4.9l1-0.4c0,0.1,0,0.2,0,0.3l-0.8,2.6c-0.3,0.9,0.7,1.7,1.5,1.2l2.4-1.3
						c0.1,0,0.2-0.1,0.2-0.1l-0.1,0.8l-4.5,2.5l-0.2,1.1l4.5-2.4l-0.2,1.2l-3.3,1.3l6.8,1.1l-2.5-2.3l0.2-1.2l3.4,3.7l0.2-1.1
						l-3.4-3.8l0.1-0.7c0,0,0,0,0,0l1.8,1.8c0.7,0.7,1.8,0.2,1.9-0.8l0.2-2.6c0-0.1,0-0.2,0-0.3l0.6,0.5l0,5.1l0.9,0.7l0.1-5l1,0.8
						l-0.5,3.5l4.3-5.3l-3.2,1.1l-1-0.8l4.9-1.2L780,140l-5,1.1l-0.6-0.5c0,0,0.1,0,0.1,0l2.5-0.7c0.9-0.3,1.2-1.5,0.4-2l-2.2-1.4
						c0,0,0,0,0,0l0.9-0.3l4.3,2.7l1.1-0.4l-4.2-2.7l1.2-0.4l2.7,2.2l-2.3-6.5l-0.8,3.3l-1.2,0.4l1.6-4.8l-1.1,0.4l-1.7,4.9
						l-0.9,0.3c0-0.1,0-0.2,0-0.3l0.8-2.6c0.3-0.9-0.7-1.7-1.5-1.2l-2.4,1.3c-0.1,0-0.2,0.1-0.2,0.1l0.2-1l4.5-2.5l0.2-1.1l-4.5,2.4
						l0.2-1.2l3.2-1.3l-6.8-1.1l2.5,2.2l-0.2,1.2l-3.4-3.7l-0.2,1.1l3.4,3.8l-0.2,0.9c0,0,0,0,0,0l-1.8-1.8
						c-0.7-0.7-1.8-0.2-1.9,0.8l-0.2,2.6c0,0.1,0,0.1,0,0.1l-0.6-0.5l0-5.1l-0.9-0.7l-0.1,5l-1-0.8l0.5-3.5l-4.3,5.4l3.2-1.1l1,0.8
						l-4.9,1.2l0.9,0.7l5-1.1l0,0l0.6,0.5c-0.1,0-0.1,0.1-0.2,0.1l-2.5,0.7c-0.9,0.3-1.2,1.5-0.4,2l2.2,1.4c0,0,0,0,0,0l-1,0.4
						l-4.2-2.6l-1.1,0.4l4.2,2.7l-1.1,0.4l-2.7-2.2l2.3,6.5l0.7-3.3L763.4,141z M771.2,134.9c0.5,0,1-0.1,1.5-0.4l0.5-0.3l-0.2,0.5
						c-0.2,0.5-0.2,1-0.1,1.5l-2.1,0.8L771.2,134.9z M768.6,134.2l0-0.6l0.4,0.4c0.1,0.1,0.2,0.1,0.2,0.2c0.3,0.2,0.6,0.4,0.9,0.5
						l-0.4,2.1l-1.6-1.3C768.4,135.1,768.6,134.7,768.6,134.2z M771.2,138l2.1-0.8c0.2,0.3,0.4,0.6,0.7,0.8c0.1,0.1,0.2,0.1,0.3,0.2
						l0.5,0.3l-0.5,0.1c-0.5,0.1-0.9,0.4-1.2,0.7L771.2,138z M772.2,140.1c-0.3,0.4-0.4,0.9-0.5,1.5l0,0.6l-0.4-0.4
						c-0.1-0.1-0.2-0.1-0.2-0.2c-0.3-0.2-0.6-0.4-0.9-0.5l0.4-2.3L772.2,140.1z M766.2,137.5l-0.5-0.3l0.5-0.1
						c0.5-0.1,1-0.4,1.3-0.8l1.6,1.3l-2.1,0.9c-0.2-0.3-0.4-0.5-0.7-0.8C766.3,137.6,766.3,137.6,766.2,137.5z M767.4,140.9
						c0.2-0.5,0.2-1.1,0.1-1.5l2.1-0.8l0,0v0l-0.4,2.3c-0.5,0-1,0.1-1.5,0.4l-0.5,0.3L767.4,140.9z"/>
				</g>
				<polygon class="st26" points="769.5,138.6 769.6,138.6 769.6,138.6 				"/>
			</g>
		</g>
	</g>
	<g style="clip-path:url(#SVGID_00000176736373809623178880000015881800724113698992_);">
		<g>
			<g>
				<g>
					<path class="st23" d="M314.6,154.8l3.1,2.8l0.1-0.9l-3.1-2.9l0-0.9c0.1,0,0.1,0.1,0.2,0.1l1.6,1.4c0.6,0.5,1.5,0.1,1.4-0.7
						l-0.1-2.2c0-0.1,0-0.1,0-0.2l0.5,0.4l0.3,4.2l0.8,0.5l-0.2-4.1l0.9,0.6l-0.1,2.9l3.1-4.6l-2.5,1.1l-0.9-0.6l3.9-1.3l-0.8-0.5
						l-4,1.2l-0.5-0.3c0,0,0,0,0,0l2-0.7c0.7-0.3,0.8-1.3,0.1-1.7l-1.9-1.1c-0.1,0-0.1-0.1-0.2-0.1l0.6-0.3l3.8,1.8l0.8-0.4
						l-3.7-1.8l0.9-0.5l2.4,1.5l-2.5-5l-0.3,2.8l-0.9,0.5l0.8-4.1l-0.8,0.4l-0.9,4.1l-0.5,0.3c0,0,0-0.1,0-0.1l0.3-2.1
						c0.1-0.8-0.7-1.4-1.4-0.9l-1.8,1.1c0,0,0,0,0,0l0.1-0.7l3.5-2.3l0.1-0.9l-3.5,2.2l0.1-1l2.6-1.3l-5.6-0.5l2.2,1.7l-0.1,1.1
						l-3-2.8l-0.1,0.9l3,2.9l-0.1,0.8c-0.1,0-0.1-0.1-0.2-0.1l-1.6-1.4c-0.6-0.5-1.5-0.1-1.4,0.7l0.1,2.2c0,0.1,0,0.1,0,0.2
						l-0.7-0.5l-0.3-4.2l-0.8-0.5l0.3,4.1l-0.9-0.6l0.1-2.9l-3.1,4.7l2.5-1.1l0.9,0.6l-3.9,1.3l0.8,0.5l4-1.2l0.6,0.4c0,0,0,0,0,0
						l-2,0.7c-0.7,0.3-0.8,1.3-0.1,1.7l1.9,1.1c0,0,0.1,0,0.1,0.1l-0.5,0.3l-3.8-1.8l-0.8,0.4l3.7,1.8l-0.9,0.5l-2.4-1.5l2.5,5
						l0.3-2.8l0.9-0.5l-0.8,4.1l0.8-0.4l0.9-4.1l0,0l0.6-0.3c0,0.1,0,0.1,0,0.2l-0.3,2.1c-0.1,0.8,0.7,1.4,1.4,0.9l1.8-1.1
						c0,0,0,0,0,0l0,0.9l-3.4,2.3l-0.1,0.9l3.4-2.2l0,1l-2.6,1.3l5.6,0.5l-2.2-1.7L314.6,154.8z M312.7,146.9
						c0.2-0.4,0.2-0.8,0.2-1.2l0-0.5l0.4,0.3c0.3,0.3,0.7,0.5,1.1,0.6l-0.1,1.8L312.7,146.9z M311.3,148.5l-0.4-0.2l0.4-0.1
						c0.1,0,0.2-0.1,0.2-0.1c0.3-0.1,0.5-0.3,0.7-0.5l1.5,1l-1.5,0.8C312,149,311.7,148.7,311.3,148.5z M315,147.9l0.1-1.8
						c0.3,0,0.6-0.1,0.8-0.2c0.1,0,0.2-0.1,0.2-0.1l0.4-0.2l-0.1,0.4c-0.1,0.4,0,0.8,0.1,1.2L315,147.9z M316.9,147.9
						c0.2,0.4,0.5,0.6,0.9,0.9l0.4,0.2l-0.4,0.1c-0.1,0-0.2,0.1-0.2,0.1c-0.3,0.1-0.5,0.3-0.7,0.5l-1.5-1.1L316.9,147.9z M313,151.5
						l-0.4,0.2l0.1-0.4c0.1-0.4,0-0.9-0.1-1.3l1.5-0.8l-0.1,1.9c-0.3,0-0.5,0.1-0.8,0.2C313.1,151.4,313,151.4,313,151.5z
						 M315.9,151.8c-0.3-0.3-0.7-0.5-1.1-0.6l0.1-1.8v0l0,0l1.6,1.1c-0.2,0.4-0.2,0.8-0.2,1.2l0,0.4L315.9,151.8z"/>
				</g>
				<polygon class="st23" points="314.9,149.4 314.9,149.3 314.9,149.3 				"/>
			</g>
		</g>
	</g>
	<g style="clip-path:url(#SVGID_00000176736373809623178880000015881800724113698992_);">
		<g>
			<g>
				<g>
					<path class="st22" d="M154.9,106.7l4.9,8.5l0.8-2l-4.9-8.8l0.7-1.9c0.1,0.1,0.2,0.3,0.3,0.4l2.7,4.4c1,1.6,3.3,1.2,3.7-0.6
						l1.2-5c0-0.2,0.1-0.3,0.2-0.5l0.9,1.2l-2.2,9.6l1.4,1.7l2.3-9.4l1.5,1.9l-2.3,6.3l10.4-8.2l-6.5,0.7l-1.5-1.9l9.7-0.1l-1.4-1.7
						l-9.9,0l-0.8-1.1c0,0,0.1,0,0.1,0l4.9-0.2c1.8-0.1,2.6-2.3,1.3-3.7l-3.5-3.7c-0.1-0.1-0.2-0.3-0.3-0.4l1.6-0.2l7.3,6.6l2.1-0.3
						l-7.1-6.7l2.4-0.4l4.4,5.2l-2.1-13.1l-2.6,6l-2.4,0.4l4.6-8.6l-2.1,0.3L170,90l-1.4,0.2c0-0.1,0.1-0.1,0.1-0.2l2.2-4.6
						c0.8-1.7-0.7-3.6-2.4-3.1l-4.8,1.3c0,0,0,0,0,0l0.6-1.6l9.4-2.7l0.8-2l-9.4,2.5l0.9-2.2l6.7-1l-12.2-5.1l3.8,5.3l-0.9,2.3
						l-4.9-8.5l-0.8,2l4.8,8.7l-0.7,1.8c-0.1-0.1-0.3-0.3-0.4-0.4l-2.7-4.4c-1-1.6-3.3-1.2-3.7,0.6l-1.2,5c0,0.2-0.1,0.3-0.2,0.5
						l-1.2-1.5l2.2-9.6l-1.4-1.7l-2.3,9.5l-1.5-1.9l2.3-6.3l-10.3,8.3l6.5-0.7l1.5,1.9l-9.7,0.2l1.4,1.7l9.8,0l1.1,1.4
						c0,0-0.1,0-0.1,0l-4.9,0.2c-1.8,0.1-2.6,2.3-1.3,3.7l3.5,3.7c0.1,0.1,0.1,0.1,0.2,0.2l-1.4,0.2l-7.3-6.6l-2.1,0.3l7.1,6.6
						l-2.4,0.4l-4.4-5.1l2.1,13.1l2.5-6l2.4-0.4l-4.6,8.6l2.1-0.3l4.8-8.6l0,0l1.4-0.2c0,0.1-0.1,0.3-0.1,0.4l-2.2,4.6
						c-0.8,1.7,0.7,3.6,2.4,3.1l4.8-1.3c0,0,0.1,0,0.1,0l-0.7,2l-9.2,2.7l-0.8,2l9.3-2.5l-0.8,2.2l-6.7,1.1l12.3,5l-3.8-5.3
						L154.9,106.7z M156.1,87.6c0.6-0.7,1.1-1.6,1.4-2.6l0.3-1l0.6,0.9c0.5,0.9,1.2,1.6,2.1,2l-1.6,4L156.1,87.6z M151.8,90.3
						l-0.7-0.8l1-0.1c0.2,0,0.4,0,0.6-0.1c0.7-0.1,1.3-0.3,1.9-0.7l2.6,3.2l-3.9,0.7C153,91.8,152.5,91,151.8,90.3z M160.6,91.5
						l1.6-3.9c0.6,0.1,1.3,0.2,2,0.1c0.2,0,0.4-0.1,0.6-0.1l1-0.3l-0.5,1c-0.4,0.8-0.6,1.8-0.6,2.7L160.6,91.5z M164.9,92.8
						c0.3,0.9,0.8,1.8,1.5,2.6l0.7,0.8l-1,0c-0.2,0-0.4,0-0.6,0.1c-0.7,0.1-1.3,0.3-1.9,0.7l-2.8-3.5L164.9,92.8z M153.5,98.2
						l-1,0.3l0.5-1c0.4-0.9,0.7-1.9,0.6-2.9l3.9-0.7l-1.5,4.1c-0.6-0.1-1.3-0.1-1.9,0C153.9,98.1,153.7,98.1,153.5,98.2z M160,100.8
						c-0.6-0.9-1.3-1.6-2.1-2.1l1.5-4.1l0-0.1l0,0l2.8,3.5c-0.6,0.7-1.1,1.6-1.4,2.6l-0.3,1L160,100.8z"/>
				</g>
				<polygon class="st22" points="159.3,94.7 159.3,94.6 159.4,94.6 				"/>
			</g>
		</g>
	</g>
	<g style="clip-path:url(#SVGID_00000176736373809623178880000015881800724113698992_);">
		<g>
			<g>
				<g>
					<path class="st21" d="M46.5,81.8l4.7-8l-2,0.3l-4.9,8.1l-1.9,0.3c0-0.2,0.1-0.3,0.2-0.5l2.3-4.3c0.8-1.5-0.5-3.3-2.2-2.8
						L38,76.3c-0.2,0-0.3,0.1-0.5,0.1l0.5-1.3l8.9-2.7l0.8-1.9L38.8,73l0.9-2.1l6.3-1l-11.6-4.7l3.6,5l-0.9,2.2l-4.6-7.9l-0.8,1.9
						l4.6,8.1l-0.5,1.2c0,0,0-0.1-0.1-0.1l-2.5-3.9c-0.9-1.4-3.1-1.1-3.6,0.6l-1.4,4.6c0,0.2-0.1,0.3-0.2,0.4l-0.9-1.2l2-9.1
						l-1.3-1.6l-2.2,8.9l-1.4-1.8l2.2-6l-9.8,7.8l6.1-0.7l1.5,1.8l-9.2,0.2l1.3,1.6l9.3,0l0.9,1.1c-0.1,0-0.1,0-0.2,0l-4.8,0.3
						c-1.7,0.1-2.6,2.2-1.4,3.4l3.3,3.3c0,0,0,0,0,0l-1.6,0.2l-6.6-6.4l-2,0.2l6.4,6.5l-2.2,0.3l-3.9-5L15,93.5l2.6-5.6l2.3-0.3
						l-4.7,7.9l2-0.2l4.9-8l1.8-0.2c0,0.2-0.1,0.3-0.2,0.5l-2.3,4.3c-0.8,1.5,0.5,3.3,2.2,2.8l4.7-1.3c0.2-0.1,0.3-0.1,0.5-0.1
						l-0.7,1.7l-8.9,2.7l-0.8,1.9l8.8-2.5l-0.9,2.1l-6.3,1.1l11.6,4.6l-3.6-5l0.9-2.1l4.7,7.9l0.8-1.9l-4.6-8.1l0.6-1.6
						c0,0,0,0.1,0,0.1l2.5,3.9c0.9,1.4,3.1,1.1,3.6-0.6l1.4-4.6c0-0.1,0-0.2,0.1-0.2l0.8,1l-2,9.1l1.3,1.6l2.1-8.9l1.4,1.8l-2.2,6
						l9.7-7.8L43.1,96l-1.5-1.8l9.2-0.2l-1.3-1.6l-9.3,0.1l0,0l-0.9-1.1c0.1,0,0.3-0.1,0.4-0.1l4.8-0.3c1.7-0.1,2.6-2.2,1.4-3.4
						l-3.3-3.3c0,0,0,0,0-0.1l1.9-0.3l6.5,6.3l2-0.3l-6.4-6.4l2.2-0.4l4,5l-1.6-12.4l-2.6,5.6L46.5,81.8z M30.2,89.7
						c-0.9-0.2-1.8-0.2-2.8,0.1l-1,0.3l0.5-0.9c0.5-0.8,0.7-1.7,0.7-2.6l4-0.6L30.2,89.7z M34.4,92l-0.3,1l-0.5-0.8
						c-0.1-0.2-0.2-0.3-0.3-0.5c-0.4-0.5-0.9-0.9-1.4-1.2l1.4-3.6l2.4,2.9C35.1,90.3,34.7,91.1,34.4,92z M31.4,84.2l-4,0.5
						c-0.2-0.6-0.5-1.2-0.9-1.7c-0.1-0.2-0.3-0.3-0.4-0.4L25.4,82l1-0.1c0.9-0.1,1.7-0.3,2.5-0.7L31.4,84.2z M30.4,80.1
						c0.6-0.7,1.1-1.5,1.4-2.4l0.3-1l0.5,0.8c0.1,0.2,0.2,0.3,0.3,0.5c0.4,0.5,0.9,0.9,1.4,1.2l-1.6,3.9L30.4,80.1z M40.1,87
						l0.7,0.7l-1,0.1c-1,0.1-1.9,0.3-2.7,0.8l-2.4-2.9l4.1-0.7c0.2,0.6,0.5,1.1,0.9,1.6C39.8,86.7,40,86.8,40.1,87z M39.3,80.4
						c-0.5,0.9-0.7,1.8-0.7,2.7l-4,0.7l-0.1,0l0,0l1.6-3.9c0.9,0.2,1.8,0.2,2.8-0.1l1-0.3L39.3,80.4z"/>
				</g>
				<polygon class="st21" points="34.5,83.8 34.5,83.8 34.5,83.8 				"/>
			</g>
		</g>
	</g>
	<g style="clip-path:url(#SVGID_00000176736373809623178880000015881800724113698992_);">
		<g>
			<g>
				<g>
					<path class="st21" d="M81.5,45l11.6-2l-1.9-1.8l-11.9,1.8l-1.8-1.5c0.2-0.1,0.4-0.2,0.6-0.2l6-1.2c2.2-0.4,2.7-3.2,0.9-4.4
						l-5.1-3.5c-0.2-0.1-0.3-0.2-0.5-0.4l1.7-0.5l9.8,6.5l2.5-0.8l-9.6-6.5l2.8-0.9l6.1,5.2l-4.9-15l-1.9,7.6l-2.8,0.9l3.9-10.9
						l-2.5,0.8l-4.1,11l-1.5,0.5c0,0,0-0.1,0-0.1l1.8-5.6c0.7-2-1.5-3.9-3.6-3l-5.6,2.4c-0.2,0.1-0.4,0.1-0.6,0.2l0.4-1.9l10.4-5.4
						l0.5-2.5l-10.4,5.2l0.6-2.9l7.6-2.8l-15.5-3.1l5.7,5.4l-0.6,2.9L62,9.7l-0.5,2.5l7.6,9l-0.3,1.7c-0.1,0-0.1-0.1-0.2-0.2
						l-4.2-4.4c-1.5-1.6-4.3-0.7-4.5,1.4l-0.5,5.9c0,0,0,0,0,0l-1.6-1.4l0.9-11.6l-1.9-1.8l-1.1,11.5l-2.1-1.9l1.6-7.9L44.5,24.1
						l7.5-2l2.2,2L42.7,26l1.9,1.8L56.3,26l1.7,1.5c-0.2,0.1-0.4,0.2-0.6,0.2l-6,1.2c-2.2,0.4-2.7,3.2-0.9,4.4l5.1,3.5
						c0.2,0.1,0.3,0.3,0.5,0.4L53.9,38L44,31.5l-2.5,0.8l9.6,6.5l-2.8,0.9l-6.1-5.2l5,15l1.9-7.6l2.8-0.9L48,52l2.5-0.8l4.1-11
						l2-0.7c0,0,0,0.1,0,0.1l-1.8,5.6c-0.7,2,1.5,3.9,3.6,3l5.6-2.4c0.1,0,0.2-0.1,0.3-0.1l-0.3,1.7l-10.4,5.4L53,55.3l10.4-5.2
						L62.8,53l-7.6,2.8l15.5,3L65,53.4l0.6-2.9l7.7,8.7l0.5-2.5l-7.6-9l0,0l0.3-1.7c0.2,0.1,0.3,0.2,0.4,0.3l4.2,4.4
						c1.5,1.6,4.3,0.7,4.4-1.4l0.5-5.9c0,0,0-0.1,0-0.1l1.9,1.6l-0.8,11.5l1.9,1.8l1-11.4l2.2,1.8l-1.6,7.9L91.3,45l-7.5,2L81.5,45z
						 M60.6,35.8c-0.5-1-1.3-1.9-2.3-2.6l-1.1-0.7l1.3-0.2c1.2-0.2,2.2-0.7,3.1-1.5l3.8,3.4L60.6,35.8z M61.9,41.7l-1.2,0.5l0.4-1.2
						c0.1-0.2,0.1-0.5,0.2-0.7c0.2-0.8,0.2-1.6,0-2.3l4.7-1.5l-0.9,4.7C64,41,62.9,41.2,61.9,41.7z M66.8,32.4L63.1,29
						c0.4-0.7,0.7-1.4,0.9-2.2c0-0.2,0.1-0.5,0.1-0.8l0.1-1.2l0.9,0.9c0.8,0.8,1.7,1.4,2.7,1.8L66.8,32.4z M70.1,28.1
						c1.2,0.1,2.4-0.1,3.5-0.6l1.2-0.5l-0.4,1.2c-0.1,0.2-0.1,0.5-0.2,0.7c-0.2,0.8-0.2,1.6-0.1,2.4l-5,1.6L70.1,28.1z M71.3,43.1
						l-0.1,1.2l-0.9-0.9c-0.8-0.9-1.9-1.5-3-1.9l0.9-4.7l4,3.4c-0.4,0.7-0.7,1.4-0.8,2.1C71.4,42.6,71.3,42.8,71.3,43.1z M77,37
						c-1.2,0.2-2.3,0.8-3.2,1.5l-3.9-3.3l-0.1-0.1l0.1,0l5-1.7c0.5,1,1.3,1.9,2.3,2.6l1.1,0.7L77,37z"/>
				</g>
				<polygon class="st21" points="69.8,35.1 69.8,35.1 69.8,35.1 				"/>
			</g>
		</g>
	</g>
</g>
</svg>
