<?xml version="1.0" encoding="utf-8"?>
<!-- Generator: Adobe Illustrator 27.2.0, SVG Export Plug-In . SVG Version: 6.00 Build 0)  -->
<svg version="1.1" id="Layer_1" xmlns="http://www.w3.org/2000/svg" xmlns:xlink="http://www.w3.org/1999/xlink" x="0px" y="0px"
	 viewBox="0 0 41 44" style="enable-background:new 0 0 41 44;" xml:space="preserve">
<style type="text/css">
	.st0{fill:#DCEBF9;}
</style>
<g>
	<g>
		<g>
			<g>
				<path class="st0" d="M19,24.9l0.8,2l0.2-0.4l-0.8-2l0.2-0.4c0,0,0,0.1,0.1,0.1l0.4,1c0.2,0.4,0.7,0.4,0.8,0l0.4-1
					c0,0,0-0.1,0.1-0.1l0.2,0.3l-0.8,2l0.2,0.4l0.8-1.9l0.3,0.5l-0.7,1.3l2.5-1.4L22.4,25l-0.3-0.5l2.1,0.3l-0.3-0.4l-2.1-0.3
					l-0.2-0.3h0l1.1,0.1c0.4,0,0.7-0.4,0.4-0.7l-0.6-0.9c0,0,0-0.1,0-0.1h0.3l1.3,1.6h0.5l-1.3-1.6h0.5l0.8,1.2v-2.8l-0.8,1.2h-0.5
					l1.3-1.6h-0.5l-1.3,1.6h-0.3c0,0,0,0,0,0l0.6-0.9c0.2-0.3,0-0.8-0.4-0.7l-1.1,0.1c0,0,0,0,0,0l0.2-0.3l2.1-0.3l0.2-0.4l-2.1,0.2
					l0.3-0.4h1.5l-2.4-1.5l0.6,1.3l-0.3,0.5l-0.8-2l-0.2,0.4l0.7,2l-0.2,0.3c0,0,0-0.1-0.1-0.1l-0.4-1c-0.2-0.4-0.7-0.4-0.8,0
					l-0.4,1c0,0,0,0.1-0.1,0.1l-0.2-0.4l0.8-1.9l-0.2-0.4L19,19.3l-0.3-0.5l0.7-1.3L17,19l1.4,0.1l0.3,0.5l-2.1-0.3l0.2,0.4l2.1,0.3
					l0.2,0.3h0L18,20.2c-0.4,0-0.7,0.4-0.4,0.7l0.6,0.9c0,0,0,0,0,0H18l-1.3-1.7h-0.5l1.3,1.6h-0.5l-0.8-1.2l0,2.8l0.8-1.2h0.5
					l-1.3,1.7h0.5l1.3-1.7l0,0h0.3c0,0,0,0.1,0,0.1l-0.6,0.9c-0.2,0.3,0,0.8,0.4,0.7l1.1-0.1h0l-0.2,0.4l-2.1,0.3l-0.2,0.4l2.1-0.2
					l-0.3,0.4h-1.5l2.5,1.5l-0.6-1.3L19,24.9z M19.9,20.9c0.2-0.1,0.3-0.3,0.4-0.5l0.1-0.2l0.1,0.2c0.1,0.2,0.2,0.4,0.4,0.5
					l-0.5,0.8L19.9,20.9z M18.9,21.3l-0.1-0.2l0.2,0c0,0,0.1,0,0.1,0c0.2,0,0.3,0,0.4-0.1l0.4,0.8h-0.9C19.1,21.6,19,21.5,18.9,21.3
					z M20.7,21.8l0.5-0.8c0.1,0,0.3,0.1,0.4,0.1c0,0,0.1,0,0.1,0l0.2,0l-0.1,0.2c-0.1,0.2-0.2,0.3-0.2,0.5L20.7,21.8L20.7,21.8z
					 M21.6,22.3c0,0.2,0.1,0.4,0.2,0.6l0.1,0.2l-0.2,0c0,0-0.1,0-0.1,0c-0.2,0-0.3,0-0.4,0.1l-0.5-0.8H21.6z M19,23l-0.2,0l0.1-0.2
					c0.1-0.2,0.2-0.4,0.2-0.6H20l-0.5,0.8c-0.1,0-0.3-0.1-0.4-0.1C19.1,23,19.1,23,19,23z M20.3,23.8c-0.1-0.2-0.2-0.4-0.4-0.5
					l0.5-0.8v0l0,0l0.5,0.8c-0.2,0.1-0.3,0.3-0.4,0.5L20.4,24L20.3,23.8z"/>
			</g>
			<path class="st0" d="M20.4,22.5L20.4,22.5L20.4,22.5z"/>
		</g>
	</g>
</g>
</svg>
