<?xml version="1.0" encoding="utf-8"?>
<!-- Generator: Adobe Illustrator 27.2.0, SVG Export Plug-In . SVG Version: 6.00 Build 0)  -->
<svg version="1.1" id="Layer_1" xmlns="http://www.w3.org/2000/svg" xmlns:xlink="http://www.w3.org/1999/xlink" x="0px" y="0px"
	 viewBox="0 0 1100 250" style="enable-background:new 0 0 1100 250;" xml:space="preserve">
<style type="text/css">
	.st0{clip-path:url(#SVGID_00000004512825446309003810000017153757040842913708_);fill:#B8B8F2;}
	.st1{clip-path:url(#SVGID_00000004512825446309003810000017153757040842913708_);fill:#5C485E;}
	.st2{clip-path:url(#SVGID_00000004512825446309003810000017153757040842913708_);fill:#8E3E1E;}
	.st3{clip-path:url(#SVGID_00000004512825446309003810000017153757040842913708_);fill:#C1D8F1;}
	.st4{clip-path:url(#SVGID_00000004512825446309003810000017153757040842913708_);fill:#773118;}
	.st5{clip-path:url(#SVGID_00000004512825446309003810000017153757040842913708_);fill:#6D2912;}
	.st6{clip-path:url(#SVGID_00000004512825446309003810000017153757040842913708_);fill:#7F422D;}
	.st7{clip-path:url(#SVGID_00000004512825446309003810000017153757040842913708_);fill:#6D3526;}
	.st8{clip-path:url(#SVGID_00000004512825446309003810000017153757040842913708_);fill:#874439;}
	.st9{clip-path:url(#SVGID_00000004512825446309003810000017153757040842913708_);fill:#85C0EB;}
	.st10{clip-path:url(#SVGID_00000004512825446309003810000017153757040842913708_);fill:#753832;}
	.st11{clip-path:url(#SVGID_00000004512825446309003810000017153757040842913708_);fill:#F7F0FF;}
	.st12{clip-path:url(#SVGID_00000004512825446309003810000017153757040842913708_);fill:#99C0FF;}
	.st13{clip-path:url(#SVGID_00000004512825446309003810000017153757040842913708_);fill:#FFC6B7;}
	.st14{clip-path:url(#SVGID_00000004512825446309003810000017153757040842913708_);fill:#7C351C;}
	.st15{clip-path:url(#SVGID_00000004512825446309003810000017153757040842913708_);fill:#7BB1FF;}
	.st16{clip-path:url(#SVGID_00000004512825446309003810000017153757040842913708_);fill:#A8552D;}
	.st17{clip-path:url(#SVGID_00000004512825446309003810000017153757040842913708_);fill:#B7E2F6;}
	.st18{clip-path:url(#SVGID_00000004512825446309003810000017153757040842913708_);fill:#BDEBFF;}
	.st19{clip-path:url(#SVGID_00000004512825446309003810000017153757040842913708_);}
	.st20{fill:#E9F9FF;}
	.st21{fill:#BDD6F9;}
	.st22{fill:#DAE7F2;}
	.st23{fill:#B6DBF2;}
	.st24{fill:#DCEBF9;}
	.st25{fill:#DEECF9;}
	.st26{fill:#CCE1FF;}
	.st27{fill:#E4F3F9;}
</style>
<g>
	<defs>
		<rect id="SVGID_1_" y="0" width="1100" height="250"/>
	</defs>
	<clipPath id="SVGID_00000034806719116735867280000011547819593545977510_">
		<use xlink:href="#SVGID_1_"  style="overflow:visible;"/>
	</clipPath>
	
		<rect y="0" style="clip-path:url(#SVGID_00000034806719116735867280000011547819593545977510_);fill:#B8B8F2;" width="1101" height="250"/>
	<path style="clip-path:url(#SVGID_00000034806719116735867280000011547819593545977510_);fill:#5C485E;" d="M1100,14v236H0V14
		c151.51,118.72,342.48,138.72,550,138.72S948.49,132.72,1100,14z"/>
	<path style="clip-path:url(#SVGID_00000034806719116735867280000011547819593545977510_);fill:#8E3E1E;" d="M341.6,193.08v17.06
		c0,5.4-4.38,9.77-9.77,9.77h-18.8c-2.46,0-4.46,1.99-4.46,4.46v31.15h-42.83v-36.83c0-2.46-1.99-4.46-4.46-4.46h-24.1
		c-2.76,0-4.99-2.23-4.99-4.99v-21.33h12.39v10.12c0,2.11,1.71,3.82,3.82,3.82h12.89c2.46,0,4.46-1.99,4.46-4.46v-35.02
		c0-11.83,9.59-21.42,21.42-21.42h0c11.83,0,21.42,9.59,21.42,21.42v35.54c0,2.46,1.99,4.46,4.46,4.46h6.06
		c2.74,0,4.96-2.22,4.96-4.96v-4.33H341.6z"/>
	<path style="clip-path:url(#SVGID_00000034806719116735867280000011547819593545977510_);fill:#C1D8F1;" d="M350.64,168.31H223.67
		c-4.69,0-8.5-3.81-8.5-8.5v-6.21c0-39.76,32.23-71.99,71.99-71.99h0c39.76,0,71.99,32.23,71.99,71.99v6.21
		C359.14,164.5,355.34,168.31,350.64,168.31z"/>
	<path style="clip-path:url(#SVGID_00000034806719116735867280000011547819593545977510_);fill:#C1D8F1;" d="M256.11,192.23h-35.27
		v-2.33c0-6.9,5.59-12.5,12.5-12.5h10.28c6.9,0,12.5,5.59,12.5,12.5V192.23z"/>
	<path style="clip-path:url(#SVGID_00000034806719116735867280000011547819593545977510_);fill:#C1D8F1;" d="M353.15,193.59h-38.06
		v-3.5c0-6.9,5.59-12.5,12.5-12.5h13.07c6.9,0,12.5,5.59,12.5,12.5V193.59z"/>
	<path style="clip-path:url(#SVGID_00000034806719116735867280000011547819593545977510_);fill:#773118;" d="M275.29,204L275.29,204
		c-1.85,0-3.35-1.5-3.35-3.35v-20.73c0-1.85,1.5-3.35,3.35-3.35l0,0c1.85,0,3.35,1.5,3.35,3.35v20.73
		C278.64,202.5,277.14,204,275.29,204z"/>
	<path style="clip-path:url(#SVGID_00000034806719116735867280000011547819593545977510_);fill:#773118;" d="M275.29,235L275.29,235
		c-1.85,0-3.35-1.5-3.35-3.35v-20.73c0-1.85,1.5-3.35,3.35-3.35l0,0c1.85,0,3.35,1.5,3.35,3.35v20.73
		C278.64,233.5,277.14,235,275.29,235z"/>
	<path style="clip-path:url(#SVGID_00000034806719116735867280000011547819593545977510_);fill:#6D2912;" d="M299.54,250.88
		L299.54,250.88c-1.85,0-3.35-1.5-3.35-3.35v-13.93c0-1.85,1.5-3.35,3.35-3.35l0,0c1.85,0,3.35,1.5,3.35,3.35v13.93
		C302.89,249.37,301.39,250.88,299.54,250.88z"/>
	<path style="clip-path:url(#SVGID_00000034806719116735867280000011547819593545977510_);fill:#773118;" d="M299.28,196L299.28,196
		c-2,0-3.61-1.62-3.61-3.61v-11.18c0-2,1.62-3.61,3.61-3.61l0,0c2,0,3.61,1.62,3.61,3.61v11.18C302.89,194.38,301.28,196,299.28,196
		z"/>
	<path style="clip-path:url(#SVGID_00000034806719116735867280000011547819593545977510_);fill:#773118;" d="M299.28,229L299.28,229
		c-2,0-3.61-1.62-3.61-3.61v-23.18c0-2,1.62-3.61,3.61-3.61l0,0c2,0,3.61,1.62,3.61,3.61v23.18C302.89,227.38,301.28,229,299.28,229
		z"/>
	<path style="clip-path:url(#SVGID_00000034806719116735867280000011547819593545977510_);fill:#6D2912;" d="M275.8,247.78
		L275.8,247.78c-2.42,0-4.39-1.96-4.39-4.39v-15.48c0-2.42,1.96-4.39,4.39-4.39h0c2.42,0,4.39,1.96,4.39,4.39v15.48
		C280.19,245.82,278.23,247.78,275.8,247.78z"/>
	<path style="clip-path:url(#SVGID_00000034806719116735867280000011547819593545977510_);fill:#773118;" d="M287.16,251.39
		L287.16,251.39c-1.28,0-2.32-1.04-2.32-2.32v-52.64c0-1.28,1.04-2.32,2.32-2.32l0,0c1.28,0,2.32,1.04,2.32,2.32v52.64
		C289.48,250.35,288.44,251.39,287.16,251.39z"/>
	<path style="clip-path:url(#SVGID_00000034806719116735867280000011547819593545977510_);fill:#7F422D;" d="M844.6,186.08v17.06
		c0,5.4-4.38,9.77-9.77,9.77h-18.8c-2.46,0-4.46,1.99-4.46,4.46v31.15h-42.83v-36.83c0-2.46-1.99-4.46-4.46-4.46h-24.1
		c-2.76,0-4.99-2.23-4.99-4.99v-21.33h12.39v10.12c0,2.11,1.71,3.82,3.82,3.82h12.89c2.46,0,4.46-1.99,4.46-4.46v-35.02
		c0-11.83,9.59-21.42,21.42-21.42h0c11.83,0,21.42,9.59,21.42,21.42v35.54c0,2.46,1.99,4.46,4.46,4.46h6.06
		c2.74,0,4.96-2.22,4.96-4.96v-4.33H844.6z"/>
	<path style="clip-path:url(#SVGID_00000034806719116735867280000011547819593545977510_);fill:#C1D8F1;" d="M853.64,161.31H726.67
		c-4.69,0-8.5-3.81-8.5-8.5v-6.21c0-39.76,32.23-71.99,71.99-71.99h0c39.76,0,71.99,32.23,71.99,71.99v6.21
		C862.14,157.5,858.34,161.31,853.64,161.31z"/>
	<path style="clip-path:url(#SVGID_00000034806719116735867280000011547819593545977510_);fill:#C1D8F1;" d="M759.11,185.23h-35.27
		v-2.33c0-6.9,5.59-12.5,12.5-12.5h10.28c6.9,0,12.5,5.59,12.5,12.5V185.23z"/>
	<path style="clip-path:url(#SVGID_00000034806719116735867280000011547819593545977510_);fill:#C1D8F1;" d="M856.15,186.59h-38.06
		v-3.5c0-6.9,5.59-12.5,12.5-12.5h13.07c6.9,0,12.5,5.59,12.5,12.5V186.59z"/>
	<path style="clip-path:url(#SVGID_00000034806719116735867280000011547819593545977510_);fill:#6D2912;" d="M802.54,243.88
		L802.54,243.88c-1.85,0-3.35-1.5-3.35-3.35v-13.93c0-1.85,1.5-3.35,3.35-3.35l0,0c1.85,0,3.35,1.5,3.35,3.35v13.93
		C805.89,242.37,804.39,243.88,802.54,243.88z"/>
	<path style="clip-path:url(#SVGID_00000034806719116735867280000011547819593545977510_);fill:#6D3526;" d="M802.28,215.98
		L802.28,215.98c-2,0-3.61-1.62-3.61-3.61v-37.16c0-2,1.62-3.61,3.61-3.61h0c1.99,0,3.61,1.62,3.61,3.61v37.16
		C805.89,214.36,804.28,215.98,802.28,215.98z"/>
	<path style="clip-path:url(#SVGID_00000034806719116735867280000011547819593545977510_);fill:#6D3526;" d="M779.28,195L779.28,195
		c-2,0-3.61-1.62-3.61-3.61v-16.18c0-2,1.62-3.61,3.61-3.61h0c1.99,0,3.61,1.62,3.61,3.61v16.18
		C782.89,193.38,781.28,195,779.28,195z"/>
	<path style="clip-path:url(#SVGID_00000034806719116735867280000011547819593545977510_);fill:#6D3526;" d="M779.28,227L779.28,227
		c-1.99,0-3.61-1.62-3.61-3.61v-20.18c0-2,1.62-3.61,3.61-3.61l0,0c2,0,3.61,1.62,3.61,3.61v20.18
		C782.89,225.38,781.28,227,779.28,227z"/>
	<path style="clip-path:url(#SVGID_00000034806719116735867280000011547819593545977510_);fill:#6D3526;" d="M790.16,246.39
		L790.16,246.39c-1.28,0-2.32-1.04-2.32-2.32v-52.64c0-1.28,1.04-2.32,2.32-2.32l0,0c1.28,0,2.32,1.04,2.32,2.32v52.64
		C792.48,245.35,791.44,246.39,790.16,246.39z"/>
	<path style="clip-path:url(#SVGID_00000034806719116735867280000011547819593545977510_);fill:#6D3526;" d="M926.16,237.39
		L926.16,237.39c-1.28,0-2.32-1.04-2.32-2.32v-52.64c0-1.28,1.04-2.32,2.32-2.32l0,0c1.28,0,2.32,1.04,2.32,2.32v52.64
		C928.48,236.35,927.44,237.39,926.16,237.39z"/>
	<path style="clip-path:url(#SVGID_00000034806719116735867280000011547819593545977510_);fill:#6D3526;" d="M790.16,187L790.16,187
		c-1.28,0-2.32-1.04-2.32-2.32v-11.36c0-1.28,1.04-2.32,2.32-2.32l0,0c1.28,0,2.32,1.04,2.32,2.32v11.36
		C792.48,185.96,791.44,187,790.16,187z"/>
	<path style="clip-path:url(#SVGID_00000034806719116735867280000011547819593545977510_);fill:#874439;" d="M723.38,184.19v18.4
		c0,5.82-4.64,10.54-10.37,10.54h-19.95c-2.61,0-4.73,2.15-4.73,4.8v33.59h-45.47v-39.71c0-2.65-2.12-4.8-4.73-4.8h-25.58
		c-2.93,0-5.3-2.41-5.3-5.38v-23h13.15v10.91c0,2.27,1.81,4.11,4.05,4.11h13.68c2.61,0,4.73-2.15,4.73-4.8v-37.76
		c0-12.75,10.18-23.09,22.73-23.09h0c12.56,0,22.73,10.34,22.73,23.09v38.32c0,2.65,2.12,4.8,4.73,4.8h6.44
		c2.91,0,5.27-2.4,5.27-5.35v-4.66H723.38z"/>
	<path style="clip-path:url(#SVGID_00000034806719116735867280000011547819593545977510_);fill:#85C0EB;" d="M632.63,183.28h-37.44
		v-3.49c0-6.9,5.59-12.5,12.5-12.5h12.45c6.9,0,12.5,5.59,12.5,12.5V183.28z"/>
	<path style="clip-path:url(#SVGID_00000034806719116735867280000011547819593545977510_);fill:#85C0EB;" d="M735.63,184.75h-40.4
		v-4.75c0-6.9,5.59-12.5,12.5-12.5h15.41c6.9,0,12.5,5.59,12.5,12.5V184.75z"/>
	<path style="clip-path:url(#SVGID_00000034806719116735867280000011547819593545977510_);fill:#753832;" d="M653.19,207.56h-0.41
		c-1.85,0-3.35-1.5-3.35-3.35v-34.47c0-1.85,1.5-3.35,3.35-3.35h0.41c1.85,0,3.35,1.5,3.35,3.35v34.47
		C656.55,206.06,655.04,207.56,653.19,207.56z"/>
	<path style="clip-path:url(#SVGID_00000034806719116735867280000011547819593545977510_);fill:#753832;" d="M653.19,251.56h-0.41
		c-1.85,0-3.35-1.5-3.35-3.35v-31.85c0-1.85,1.5-3.35,3.35-3.35h0.41c1.85,0,3.35,1.5,3.35,3.35v31.85
		C656.55,250.06,655.04,251.56,653.19,251.56z"/>
	<path style="clip-path:url(#SVGID_00000034806719116735867280000011547819593545977510_);fill:#753832;" d="M677.68,238.35h-0.44
		c-2,0-3.61-1.62-3.61-3.61v-27.13c0-2,1.62-3.61,3.61-3.61h0.44c1.99,0,3.61,1.62,3.61,3.61v27.13
		C681.29,236.73,679.67,238.35,677.68,238.35z"/>
	<path style="clip-path:url(#SVGID_00000034806719116735867280000011547819593545977510_);fill:#753832;" d="M677.68,197h-0.44
		c-2,0-3.61-1.62-3.61-3.61v-6.78c0-2,1.62-3.61,3.61-3.61h0.44c1.99,0,3.61,1.62,3.61,3.61v6.78
		C681.29,195.38,679.67,197,677.68,197z"/>
	<path style="clip-path:url(#SVGID_00000034806719116735867280000011547819593545977510_);fill:#753832;" d="M664.73,230.07h-0.29
		c-1.28,0-2.32-1.04-2.32-2.32v-30.42c0-1.28,1.04-2.32,2.32-2.32h0.29c1.28,0,2.32,1.04,2.32,2.32v30.42
		C667.05,229.03,666.01,230.07,664.73,230.07z"/>
	<path style="clip-path:url(#SVGID_00000034806719116735867280000011547819593545977510_);fill:#753832;" d="M664.73,189.07h-0.29
		c-1.28,0-2.32-1.04-2.32-2.32v-11.42c0-1.28,1.04-2.32,2.32-2.32h0.29c1.28,0,2.32,1.04,2.32,2.32v11.42
		C667.05,188.03,666.01,189.07,664.73,189.07z"/>
	<path style="clip-path:url(#SVGID_00000034806719116735867280000011547819593545977510_);fill:#7F422D;" d="M579.06,186.99v17.91
		c0,5.66-3.98,10.26-8.88,10.26h-17.08c-2.24,0-4.05,2.09-4.05,4.68v32.69h-38.92v-38.65c0-2.58-1.81-4.68-4.05-4.68h-21.9
		c-2.5,0-4.54-2.35-4.54-5.24v-22.38h11.25v10.62c0,2.21,1.55,4,3.47,4h11.71c2.24,0,4.05-2.09,4.05-4.68v-36.76
		c0-12.41,8.71-22.48,19.46-22.48h0c10.75,0,19.46,10.06,19.46,22.48v37.3c0,2.58,1.81,4.68,4.05,4.68h5.51
		c2.49,0,4.51-2.33,4.51-5.21v-4.54H579.06z"/>
	<path style="clip-path:url(#SVGID_00000034806719116735867280000011547819593545977510_);fill:#F7F0FF;" d="M614,79.05v1.74
		c0,2.88-2.33,5.21-5.21,5.21H494.16c-2.88,0-5.21-2.33-5.21-5.21v-1.74c0-2.88,2.33-5.21,5.21-5.21h29.53
		c2.88,0,5.21-2.33,5.21-5.21v0c0-2.88-2.33-5.21-5.21-5.21h-56.45c-2.88,0-5.21-2.33-5.21-5.21v0c0-2.88,2.33-5.21,5.21-5.21h89.45
		c2.88,0,5.21,2.33,5.21,5.21v0c0,2.88-2.33,5.21-5.21,5.21h-2.61c-2.88,0-5.21,2.33-5.21,5.21v0c0,2.88,2.33,5.21,5.21,5.21h54.71
		C611.67,73.84,614,76.17,614,79.05z"/>
	<path style="clip-path:url(#SVGID_00000034806719116735867280000011547819593545977510_);fill:#F7F0FF;" d="M485,30.89v1.53
		c0,2.53,2.95,4.58,6.58,4.58h144.82c3.64,0,6.58-2.05,6.58-4.58v-1.53c0-2.53-2.95-4.58-6.58-4.58h-37.3
		c-3.64,0-6.58-2.05-6.58-4.58v0c0-2.53,2.95-4.58,6.58-4.58h71.31c3.64,0,6.58-2.05,6.58-4.58v0c0-2.53-2.95-4.58-6.58-4.58H557.41
		c-3.64,0-6.58,2.05-6.58,4.58v0c0,2.53,2.95,4.58,6.58,4.58h3.29c3.64,0,6.58,2.05,6.58,4.58v0c0,2.53-2.95,4.58-6.58,4.58h-69.12
		C487.95,26.32,485,28.37,485,30.89z"/>
	<path style="clip-path:url(#SVGID_00000034806719116735867280000011547819593545977510_);fill:#85C0EB;" d="M733.5,157.48H597.67
		c-4.69,0-8.5-3.81-8.5-8.5v-12.99c0-39.76,32.23-71.99,71.99-71.99h8.86C709.77,64,742,96.23,742,135.99v12.99
		C742,153.68,738.19,157.48,733.5,157.48z"/>
	<path id="tree" style="clip-path:url(#SVGID_00000034806719116735867280000011547819593545977510_);fill:#C1D8F1;" d="
		M587.28,160.99H471.89c-4.27,0-7.72-3.46-7.72-7.72v-17.85c0-36.13,29.29-65.42,65.42-65.42h0C565.71,70,595,99.29,595,135.42
		v17.85C595,157.53,591.54,160.99,587.28,160.99z"/>
	<path style="clip-path:url(#SVGID_00000034806719116735867280000011547819593545977510_);fill:#C1D8F1;" d="M501.38,186.1h-32.05
		v-3.06c0-6.9,5.59-12.5,12.5-12.5h7.06c6.9,0,12.5,5.59,12.5,12.5V186.1z"/>
	<path style="clip-path:url(#SVGID_00000034806719116735867280000011547819593545977510_);fill:#C1D8F1;" d="M589.55,187.53h-34.59
		v-4.29c0-6.9,5.59-12.5,12.5-12.5h9.6c6.9,0,12.5,5.59,12.5,12.5V187.53z"/>
	<path style="clip-path:url(#SVGID_00000034806719116735867280000011547819593545977510_);fill:#6D3526;" d="M530.95,209.73h-2.15
		c-1.68,0-3.05-1.36-3.05-3.05V172.7c0-1.68,1.36-3.05,3.05-3.05h2.15c1.68,0,3.05,1.36,3.05,3.05v33.98
		C534,208.37,532.64,209.73,530.95,209.73z"/>
	<path style="clip-path:url(#SVGID_00000034806719116735867280000011547819593545977510_);fill:#6D3526;" d="M530.95,245.73h-2.15
		c-1.68,0-3.05-1.36-3.05-3.05v-25.64c0-1.68,1.36-3.05,3.05-3.05h2.15c1.68,0,3.05,1.36,3.05,3.05v25.64
		C534,244.37,532.64,245.73,530.95,245.73z"/>
	<path style="clip-path:url(#SVGID_00000034806719116735867280000011547819593545977510_);fill:#6D2912;" d="M540.84,247.65
		L540.84,247.65c-1.68,0-3.05-1.36-3.05-3.05v-15.57c0-1.68,1.36-3.05,3.05-3.05l0,0c1.68,0,3.05,1.36,3.05,3.05v15.57
		C543.89,246.28,542.52,247.65,540.84,247.65z"/>
	<path style="clip-path:url(#SVGID_00000034806719116735867280000011547819593545977510_);fill:#6D3526;" d="M542.58,252.19
		L542.58,252.19c-1.17,0-2.11-0.94-2.11-2.11v-55.9c0-1.17,0.94-2.11,2.11-2.11l0,0c1.17,0,2.11,0.94,2.11,2.11v55.9
		C544.69,251.24,543.75,252.19,542.58,252.19z"/>
	<path style="clip-path:url(#SVGID_00000034806719116735867280000011547819593545977510_);fill:#6D3526;" d="M542.58,189L542.58,189
		c-1.17,0-2.11-0.94-2.11-2.11v-20.78c0-1.17,0.94-2.11,2.11-2.11l0,0c1.17,0,2.11,0.94,2.11,2.11v20.78
		C544.69,188.06,543.75,189,542.58,189z"/>
	<path style="clip-path:url(#SVGID_00000034806719116735867280000011547819593545977510_);fill:#6D3526;" d="M516.98,194.82
		L516.98,194.82c-1.17,0-2.11-0.94-2.11-2.11v-20.78c0-1.17,0.94-2.11,2.11-2.11l0,0c1.17,0,2.11,0.94,2.11,2.11v20.78
		C519.09,193.88,518.14,194.82,516.98,194.82z"/>
	<path style="clip-path:url(#SVGID_00000034806719116735867280000011547819593545977510_);fill:#6D3526;" d="M516.98,228L516.98,228
		c-1.17,0-2.11-0.94-2.11-2.11v-25.96c0-1.17,0.94-2.11,2.11-2.11l0,0c1.17,0,2.11,0.94,2.11,2.11v25.96
		C519.09,227.06,518.14,228,516.98,228z"/>
	<path style="clip-path:url(#SVGID_00000034806719116735867280000011547819593545977510_);fill:#874439;" d="M464.76,198.76v14.96
		c0,4.73-3.84,8.57-8.57,8.57H439.7c-2.16,0-3.91,1.75-3.91,3.91v27.32h-37.56v-32.3c0-2.16-1.75-3.91-3.91-3.91h-21.13
		c-2.42,0-4.38-1.96-4.38-4.38v-18.7h10.86v8.87c0,1.85,1.5,3.35,3.35,3.35h11.3c2.16,0,3.91-1.75,3.91-3.91v-30.72
		c0-10.37,8.41-18.78,18.78-18.78h0c10.37,0,18.78,8.41,18.78,18.78V203c0,2.16,1.75,3.91,3.91,3.91h5.32c2.4,0,4.35-1.95,4.35-4.35
		v-3.79H464.76z"/>
	<path style="clip-path:url(#SVGID_00000034806719116735867280000011547819593545977510_);fill:#85C0EB;" d="M472.69,177.03H361.33
		c-4.12,0-7.45-3.34-7.45-7.45v-5.44c0-34.87,28.27-63.14,63.14-63.14h0c34.87,0,63.14,28.27,63.14,63.14v5.44
		C480.14,173.7,476.81,177.03,472.69,177.03z"/>
	<path style="clip-path:url(#SVGID_00000034806719116735867280000011547819593545977510_);fill:#85C0EB;" d="M389.78,198.02h-30.93
		v-0.51c0-6.9,5.59-12.5,12.5-12.5h5.94c6.9,0,12.5,5.59,12.5,12.5V198.02z"/>
	<path style="clip-path:url(#SVGID_00000034806719116735867280000011547819593545977510_);fill:#85C0EB;" d="M474.88,199.21H441.5
		v-1.53c0-6.9,5.59-12.5,12.5-12.5h8.39c6.9,0,12.5,5.59,12.5,12.5V199.21z"/>
	<path style="clip-path:url(#SVGID_00000034806719116735867280000011547819593545977510_);fill:#753832;" d="M406.6,215.77
		L406.6,215.77c-1.62,0-2.94-1.32-2.94-2.94v-27.61c0-1.62,1.32-2.94,2.94-2.94l0,0c1.62,0,2.94,1.32,2.94,2.94v27.61
		C409.54,214.45,408.22,215.77,406.6,215.77z"/>
	<path style="clip-path:url(#SVGID_00000034806719116735867280000011547819593545977510_);fill:#753832;" d="M406.6,244.98
		L406.6,244.98c-1.62,0-2.94-1.32-2.94-2.94v-21.1c0-1.62,1.32-2.94,2.94-2.94l0,0c1.62,0,2.94,1.32,2.94,2.94v21.1
		C409.54,243.66,408.22,244.98,406.6,244.98z"/>
	<path style="clip-path:url(#SVGID_00000034806719116735867280000011547819593545977510_);fill:#6D2912;" d="M427.87,249.45
		L427.87,249.45c-1.62,0-2.94-1.32-2.94-2.94v-12.22c0-1.62,1.32-2.94,2.94-2.94l0,0c1.62,0,2.94,1.32,2.94,2.94v12.22
		C430.81,248.13,429.5,249.45,427.87,249.45z"/>
	<path style="clip-path:url(#SVGID_00000034806719116735867280000011547819593545977510_);fill:#753832;" d="M427.64,228L427.64,228
		c-1.75,0-3.17-1.42-3.17-3.17v-27.48c0-1.75,1.42-3.17,3.17-3.17l0,0c1.75,0,3.17,1.42,3.17,3.17v27.48
		C430.81,226.58,429.39,228,427.64,228z"/>
	<path style="clip-path:url(#SVGID_00000034806719116735867280000011547819593545977510_);fill:#6D2912;" d="M407.05,246.73
		L407.05,246.73c-2.12,0-3.85-1.72-3.85-3.85v-13.58c0-2.12,1.72-3.85,3.85-3.85l0,0c2.12,0,3.85,1.72,3.85,3.85v13.58
		C410.9,245.01,409.18,246.73,407.05,246.73z"/>
	<path style="clip-path:url(#SVGID_00000034806719116735867280000011547819593545977510_);fill:#753832;" d="M417.01,249.9
		L417.01,249.9c-1.12,0-2.04-0.91-2.04-2.04V201.7c0-1.12,0.91-2.04,2.04-2.04l0,0c1.12,0,2.04,0.91,2.04,2.04v46.16
		C419.05,248.99,418.13,249.9,417.01,249.9z"/>
	<path style="clip-path:url(#SVGID_00000034806719116735867280000011547819593545977510_);fill:#753832;" d="M417.01,196L417.01,196
		c-1.12,0-2.04-0.91-2.04-2.04v-9.93c0-1.12,0.91-2.04,2.04-2.04l0,0c1.12,0,2.04,0.91,2.04,2.04v9.93
		C419.05,195.09,418.13,196,417.01,196z"/>
	<path style="clip-path:url(#SVGID_00000034806719116735867280000011547819593545977510_);fill:#7F422D;" d="M220.71,173.73v19.72
		c0,6.24-5.06,11.3-11.3,11.3h-21.73c-2.84,0-5.15,2.31-5.15,5.15v36.01h-49.51v-42.57c0-2.84-2.31-5.15-5.15-5.15h-27.86
		c-3.19,0-5.77-2.58-5.77-5.77v-24.65h14.32v11.7c0,2.44,1.97,4.41,4.41,4.41h14.9c2.84,0,5.15-2.31,5.15-5.15v-40.48
		c0-13.67,11.08-24.76,24.76-24.76h0c13.67,0,24.76,11.08,24.76,24.76v41.08c0,2.84,2.31,5.15,5.15,5.15h7.01
		c3.17,0,5.74-2.57,5.74-5.74v-5H220.71z"/>
	<path style="clip-path:url(#SVGID_00000034806719116735867280000011547819593545977510_);fill:#99C0FF;" d="M232.39,145.09H83.16
		c-4.75,0-8.6-3.85-8.6-8.6v-18.76c0-40.24,32.62-72.85,72.85-72.85h20.72c40.24,0,72.85,32.62,72.85,72.85v18.76
		C240.99,141.24,237.14,145.09,232.39,145.09z"/>
	<path style="clip-path:url(#SVGID_00000034806719116735867280000011547819593545977510_);fill:#99C0FF;" d="M121.89,172.75H81.12
		v-4.64c0-6.9,5.59-12.5,12.5-12.5h15.78c6.9,0,12.5,5.59,12.5,12.5V172.75z"/>
	<path style="clip-path:url(#SVGID_00000034806719116735867280000011547819593545977510_);fill:#99C0FF;" d="M234.06,174.32h-44v-6
		c0-6.9,5.59-12.5,12.5-12.5h19.01c6.9,0,12.5,5.59,12.5,12.5V174.32z"/>
	<path style="clip-path:url(#SVGID_00000034806719116735867280000011547819593545977510_);fill:#FFC6B7;" d="M100.12,168.36H88.83
		c-1.3,0-2.35-1.05-2.35-2.35v-0.67c0-1.3,1.05-2.35,2.35-2.35h11.29c1.3,0,2.35,1.05,2.35,2.35v0.67
		C102.48,167.3,101.42,168.36,100.12,168.36z"/>
	<path style="clip-path:url(#SVGID_00000034806719116735867280000011547819593545977510_);fill:#6D3526;" d="M144.53,181h-0.97
		c-1.87,0-3.39-1.52-3.39-3.39v-19.57c0-1.87,1.52-3.39,3.39-3.39h0.97c1.87,0,3.39,1.52,3.39,3.39v19.57
		C147.93,179.48,146.41,181,144.53,181z"/>
	<path style="clip-path:url(#SVGID_00000034806719116735867280000011547819593545977510_);fill:#6D2912;" d="M172.57,240.54h-0.97
		c-1.87,0-3.39-1.52-3.39-3.39v-17.07c0-1.87,1.52-3.39,3.39-3.39h0.97c1.87,0,3.39,1.52,3.39,3.39v17.07
		C175.97,239.02,174.45,240.54,172.57,240.54z"/>
	<path style="clip-path:url(#SVGID_00000034806719116735867280000011547819593545977510_);fill:#6D3526;" d="M172.31,190h-1.04
		c-2.02,0-3.66-1.64-3.66-3.66v-26.86c0-2.02,1.64-3.66,3.66-3.66h1.04c2.02,0,3.66,1.64,3.66,3.66v26.86
		C175.97,188.36,174.33,190,172.31,190z"/>
	<path style="clip-path:url(#SVGID_00000034806719116735867280000011547819593545977510_);fill:#6D3526;" d="M172.31,227.42h-1.04
		c-2.02,0-3.66-1.64-3.66-3.66V196.9c0-2.02,1.64-3.66,3.66-3.66h1.04c2.02,0,3.66,1.64,3.66,3.66v26.86
		C175.97,225.78,174.33,227.42,172.31,227.42z"/>
	<path style="clip-path:url(#SVGID_00000034806719116735867280000011547819593545977510_);fill:#6D3526;" d="M145.28,236.96h-1.26
		c-2.45,0-4.44-1.99-4.44-4.44v-40.08c0-2.45,1.99-4.44,4.44-4.44h1.26c2.45,0,4.44,1.99,4.44,4.44v40.08
		C149.72,234.97,147.73,236.96,145.28,236.96z"/>
	<path style="clip-path:url(#SVGID_00000034806719116735867280000011547819593545977510_);fill:#6D3526;" d="M158.11,241.13h-0.67
		c-1.3,0-2.35-1.05-2.35-2.35v-61.52c0-1.3,1.05-2.35,2.35-2.35h0.67c1.3,0,2.35,1.05,2.35,2.35v61.52
		C160.46,240.08,159.4,241.13,158.11,241.13z"/>
	<path style="clip-path:url(#SVGID_00000034806719116735867280000011547819593545977510_);fill:#6D3526;" d="M158.11,170h-0.67
		c-1.3,0-2.35-1.05-2.35-2.35v-17.3c0-1.3,1.05-2.35,2.35-2.35h0.67c1.3,0,2.35,1.05,2.35,2.35v17.3
		C160.46,168.95,159.4,170,158.11,170z"/>
	<path style="clip-path:url(#SVGID_00000034806719116735867280000011547819593545977510_);fill:#8E3E1E;" d="M990.71,171.73v19.72
		c0,6.24-5.06,11.3-11.3,11.3h-21.73c-2.84,0-5.15,2.31-5.15,5.15v36.01h-49.51v-42.57c0-2.84-2.31-5.15-5.15-5.15h-27.86
		c-3.19,0-5.77-2.58-5.77-5.77v-24.65h14.32v11.7c0,2.44,1.97,4.41,4.41,4.41h14.9c2.84,0,5.15-2.31,5.15-5.15v-40.48
		c0-13.67,11.08-24.76,24.76-24.76l0,0c13.67,0,24.76,11.08,24.76,24.76v41.08c0,2.84,2.31,5.15,5.15,5.15h7.01
		c3.17,0,5.74-2.57,5.74-5.74v-5H990.71z"/>
	<path style="clip-path:url(#SVGID_00000034806719116735867280000011547819593545977510_);fill:#99C0FF;" d="M1002.39,143.09H853.16
		c-4.75,0-8.6-3.85-8.6-8.6v-18.76c0-40.24,32.62-72.85,72.85-72.85h20.72c40.24,0,72.85,32.62,72.85,72.85v18.76
		C1010.99,139.24,1007.14,143.09,1002.39,143.09z"/>
	<path style="clip-path:url(#SVGID_00000034806719116735867280000011547819593545977510_);fill:#99C0FF;" d="M891.89,170.75h-40.77
		v-4.64c0-6.9,5.59-12.5,12.5-12.5h15.78c6.9,0,12.5,5.59,12.5,12.5V170.75z"/>
	<path style="clip-path:url(#SVGID_00000034806719116735867280000011547819593545977510_);fill:#99C0FF;" d="M1004.06,172.32h-44v-6
		c0-6.9,5.59-12.5,12.5-12.5h19.01c6.9,0,12.5,5.59,12.5,12.5V172.32z"/>
	<path style="clip-path:url(#SVGID_00000034806719116735867280000011547819593545977510_);fill:#7C351C;" d="M916.53,222.78h-0.97
		c-1.87,0-3.39-1.52-3.39-3.39v-37.35c0-1.87,1.52-3.39,3.39-3.39h0.97c1.87,0,3.39,1.52,3.39,3.39v37.35
		C919.93,221.26,918.41,222.78,916.53,222.78z"/>
	<path style="clip-path:url(#SVGID_00000034806719116735867280000011547819593545977510_);fill:#7C351C;" d="M916.53,169h-0.97
		c-1.87,0-3.39-1.52-3.39-3.39v-16.21c0-1.87,1.52-3.39,3.39-3.39h0.97c1.87,0,3.39,1.52,3.39,3.39v16.21
		C919.93,167.48,918.41,169,916.53,169z"/>
	<path style="clip-path:url(#SVGID_00000034806719116735867280000011547819593545977510_);fill:#8E3E1E;" d="M942.57,238.54h-0.97
		c-1.87,0-3.39-1.52-3.39-3.39v-17.07c0-1.87,1.52-3.39,3.39-3.39h0.97c1.87,0,3.39,1.52,3.39,3.39v17.07
		C945.97,237.02,944.45,238.54,942.57,238.54z"/>
	<path style="clip-path:url(#SVGID_00000034806719116735867280000011547819593545977510_);fill:#7C351C;" d="M942.31,183h-1.04
		c-2.02,0-3.66-1.64-3.66-3.66v-21.86c0-2.02,1.64-3.66,3.66-3.66h1.04c2.02,0,3.66,1.64,3.66,3.66v21.86
		C945.97,181.36,944.33,183,942.31,183z"/>
	<path style="clip-path:url(#SVGID_00000034806719116735867280000011547819593545977510_);fill:#7C351C;" d="M942.31,222h-1.04
		c-2.02,0-3.66-1.64-3.66-3.66v-21.86c0-2.02,1.64-3.66,3.66-3.66h1.04c2.02,0,3.66,1.64,3.66,3.66v21.86
		C945.97,220.36,944.33,222,942.31,222z"/>
	<path style="clip-path:url(#SVGID_00000034806719116735867280000011547819593545977510_);fill:#7BB1FF;" d="M105,149.81H16V131.5
		c0-6.9,5.59-12.5,12.5-12.5H92.5c6.9,0,12.5,5.59,12.5,12.5V149.81z"/>
	<path style="clip-path:url(#SVGID_00000034806719116735867280000011547819593545977510_);fill:#A8552D;" d="M105,145v42.77
		c0,5.1-4.13,9.23-9.23,9.23h-34.3C54.59,197,49,202.59,49,209.48V251h-67V101h67v56.52c0,6.89,5.59,12.48,12.48,12.48h7.3
		c5.1,0,9.23-4.13,9.23-9.23V145H105z"/>
	<path style="clip-path:url(#SVGID_00000034806719116735867280000011547819593545977510_);fill:#B7E2F6;" d="M115.93,122.5H-40.32
		c-7.28,0-13.18-5.9-13.18-13.18V82.8c0-50.43,40.88-91.3,91.3-91.3h0c50.43,0,91.3,40.88,91.3,91.3v26.52
		C129.11,116.6,123.21,122.5,115.93,122.5z"/>
	<path style="clip-path:url(#SVGID_00000034806719116735867280000011547819593545977510_);fill:#B7E2F6;" d="M127,163H58v-16.5
		c0-6.9,5.59-12.5,12.5-12.5h44.01c6.9,0,12.5,5.59,12.5,12.5V163z"/>
	<path style="clip-path:url(#SVGID_00000034806719116735867280000011547819593545977510_);fill:#8E3E1E;" d="M14.42,194h-3.85
		C9.15,194,8,192.85,8,191.42v-53.85c0-1.42,1.15-2.58,2.58-2.58h3.85c1.42,0,2.58,1.15,2.58,2.58v53.85
		C17,192.85,15.85,194,14.42,194z"/>
	<path style="clip-path:url(#SVGID_00000034806719116735867280000011547819593545977510_);fill:#8E3E1E;" d="M33.42,241h-3.85
		c-1.42,0-2.58-1.15-2.58-2.58v-53.85c0-1.42,1.15-2.58,2.58-2.58h3.85c1.42,0,2.58,1.15,2.58,2.58v53.85
		C36,239.85,34.85,241,33.42,241z"/>
	<path style="clip-path:url(#SVGID_00000034806719116735867280000011547819593545977510_);fill:#8E3E1E;" d="M33,177L33,177
		c-3.31,0-6-2.69-6-6v-37c0-3.31,2.69-6,6-6h0c3.31,0,6,2.69,6,6v37C39,174.31,36.31,177,33,177z"/>
	<path style="clip-path:url(#SVGID_00000034806719116735867280000011547819593545977510_);fill:#8E3E1E;" d="M16,255L16,255
		c-3.31,0-6-2.69-6-6v-37c0-3.31,2.69-6,6-6h0c3.31,0,6,2.69,6,6v37C22,252.31,19.31,255,16,255z"/>
	<path style="clip-path:url(#SVGID_00000034806719116735867280000011547819593545977510_);fill:#7BB1FF;" d="M995.22,148.6h89
		v-18.31c0-6.9-5.59-12.5-12.5-12.5h-64.01c-6.9,0-12.5,5.59-12.5,12.5V148.6z"/>
	<path style="clip-path:url(#SVGID_00000034806719116735867280000011547819593545977510_);fill:#A8552D;" d="M995.22,143.79v42.77
		c0,5.1,4.13,9.23,9.23,9.23h34.3c6.89,0,12.48,5.59,12.48,12.48v41.52h67v-150h-67v56.52c0,6.89-5.59,12.48-12.48,12.48h-7.3
		c-5.1,0-9.23-4.13-9.23-9.23v-15.77H995.22z"/>
	<path style="clip-path:url(#SVGID_00000034806719116735867280000011547819593545977510_);fill:#B7E2F6;" d="M984.29,121.29h156.25
		c7.28,0,13.18-5.9,13.18-13.18V81.6c0-50.43-40.88-91.3-91.3-91.3h0c-50.43,0-91.3,40.88-91.3,91.3v26.52
		C971.11,115.39,977.01,121.29,984.29,121.29z"/>
	<path style="clip-path:url(#SVGID_00000034806719116735867280000011547819593545977510_);fill:#B7E2F6;" d="M973.22,161.79h69
		v-16.5c0-6.9-5.59-12.5-12.5-12.5h-44.01c-6.9,0-12.5,5.59-12.5,12.5V161.79z"/>
	<path style="clip-path:url(#SVGID_00000034806719116735867280000011547819593545977510_);fill:#8E3E1E;" d="M1085.79,192.79h3.85
		c1.42,0,2.58-1.15,2.58-2.58v-53.85c0-1.42-1.15-2.58-2.58-2.58h-3.85c-1.42,0-2.58,1.15-2.58,2.58v53.85
		C1083.22,191.64,1084.37,192.79,1085.79,192.79z"/>
	<path style="clip-path:url(#SVGID_00000034806719116735867280000011547819593545977510_);fill:#8E3E1E;" d="M1066.79,239.79h3.85
		c1.42,0,2.58-1.15,2.58-2.58v-53.85c0-1.42-1.15-2.58-2.58-2.58h-3.85c-1.42,0-2.58,1.15-2.58,2.58v53.85
		C1064.22,238.64,1065.37,239.79,1066.79,239.79z"/>
	<path style="clip-path:url(#SVGID_00000034806719116735867280000011547819593545977510_);fill:#8E3E1E;" d="M1067.22,175.79
		L1067.22,175.79c3.31,0,6-2.69,6-6v-37c0-3.31-2.69-6-6-6l0,0c-3.31,0-6,2.69-6,6v37C1061.22,173.11,1063.9,175.79,1067.22,175.79z
		"/>
	<path style="clip-path:url(#SVGID_00000034806719116735867280000011547819593545977510_);fill:#8E3E1E;" d="M1084.22,253.79
		L1084.22,253.79c3.31,0,6-2.69,6-6v-37c0-3.31-2.69-6-6-6l0,0c-3.31,0-6,2.69-6,6v37C1078.22,251.11,1080.9,253.79,1084.22,253.79z
		"/>
	<path style="clip-path:url(#SVGID_00000034806719116735867280000011547819593545977510_);fill:#F7F0FF;" d="M376,86.5v1
		c0,2.49,2.01,4.5,4.5,4.5h7c2.49,0,4.5,2.01,4.5,4.5v0c0,2.49-2.01,4.5-4.5,4.5h-43c-2.49,0-4.5-2.01-4.5-4.5v0
		c0-2.49,2.01-4.5,4.5-4.5h6c2.49,0,4.5-2.01,4.5-4.5v-1c0-2.49-2.01-4.5-4.5-4.5h-26c-2.49,0-4.5-2.01-4.5-4.5v0
		c0-2.49,2.01-4.5,4.5-4.5h3c2.49,0,4.5-2.01,4.5-4.5v-2c0-2.49-2.01-4.5-4.5-4.5h-6c-2.49,0-4.5-2.01-4.5-4.5v0
		c0-2.49,2.01-4.5,4.5-4.5h43c2.49,0,4.5,2.01,4.5,4.5v0c0,2.49-2.01,4.5-4.5,4.5h-11c-2.49,0-4.5,2.01-4.5,4.5v2
		c0,2.49,2.01,4.5,4.5,4.5h42c2.49,0,4.5,2.01,4.5,4.5v0c0,2.49-2.01,4.5-4.5,4.5h-15C378.01,82,376,84.01,376,86.5z"/>
	<path style="clip-path:url(#SVGID_00000034806719116735867280000011547819593545977510_);fill:#F7F0FF;" d="M366.39,31.92v0.69
		c0,1.71-1.38,3.09-3.09,3.09h-4.81c-1.71,0-3.09,1.38-3.09,3.09v0c0,1.71,1.38,3.09,3.09,3.09h29.53c1.71,0,3.09-1.38,3.09-3.09v0
		c0-1.71-1.38-3.09-3.09-3.09h-4.12c-1.71,0-3.09-1.38-3.09-3.09v-0.69c0-1.71,1.38-3.09,3.09-3.09h17.86
		c1.71,0,3.09-1.38,3.09-3.09v0c0-1.71-1.38-3.09-3.09-3.09h-2.06c-1.71,0-3.09-1.38-3.09-3.09v-1.37c0-1.71,1.38-3.09,3.09-3.09
		h4.12c1.71,0,3.09-1.38,3.09-3.09v0c0-1.71-1.38-3.09-3.09-3.09h-29.53c-1.71,0-3.09,1.38-3.09,3.09v0c0,1.71,1.38,3.09,3.09,3.09
		h7.55c1.71,0,3.09,1.38,3.09,3.09v1.37c0,1.71-1.38,3.09-3.09,3.09H353c-1.71,0-3.09,1.38-3.09,3.09v0c0,1.71,1.38,3.09,3.09,3.09
		h10.3C365.01,28.83,366.39,30.21,366.39,31.92z"/>
	<path style="clip-path:url(#SVGID_00000034806719116735867280000011547819593545977510_);fill:#F7F0FF;" d="M733,47.5v1
		c0,2.49-2.01,4.5-4.5,4.5h-7c-2.49,0-4.5,2.01-4.5,4.5v0c0,2.49,2.01,4.5,4.5,4.5h43c2.49,0,4.5-2.01,4.5-4.5v0
		c0-2.49-2.01-4.5-4.5-4.5h-6c-2.49,0-4.5-2.01-4.5-4.5v-1c0-2.49,2.01-4.5,4.5-4.5h26c2.49,0,4.5-2.01,4.5-4.5v0
		c0-2.49-2.01-4.5-4.5-4.5h-3c-2.49,0-4.5-2.01-4.5-4.5v-2c0-2.49,2.01-4.5,4.5-4.5h6c2.49,0,4.5-2.01,4.5-4.5v0
		c0-2.49-2.01-4.5-4.5-4.5h-43c-2.49,0-4.5,2.01-4.5,4.5v0c0,2.49,2.01,4.5,4.5,4.5h11c2.49,0,4.5,2.01,4.5,4.5v2
		c0,2.49-2.01,4.5-4.5,4.5h-42c-2.49,0-4.5,2.01-4.5,4.5v0c0,2.49,2.01,4.5,4.5,4.5h15C730.99,43,733,45.01,733,47.5z"/>
	<path style="clip-path:url(#SVGID_00000034806719116735867280000011547819593545977510_);fill:#F7F0FF;" d="M162.65,26.24v0.6
		c0,1.5,1.22,2.72,2.72,2.72h4.23c1.5,0,2.72,1.22,2.72,2.72v0c0,1.5-1.22,2.72-2.72,2.72h-25.98c-1.5,0-2.72-1.22-2.72-2.72v0
		c0-1.5,1.22-2.72,2.72-2.72h3.62c1.5,0,2.72-1.22,2.72-2.72v-0.6c0-1.5-1.22-2.72-2.72-2.72h-15.71c-1.5,0-2.72-1.22-2.72-2.72v0
		c0-1.5,1.22-2.72,2.72-2.72h1.81c1.5,0,2.72-1.22,2.72-2.72v-1.21c0-1.5-1.22-2.72-2.72-2.72h-3.62c-1.5,0-2.72-1.22-2.72-2.72v0
		c0-1.5,1.22-2.72,2.72-2.72h25.98c1.5,0,2.72,1.22,2.72,2.72v0c0,1.5-1.22,2.72-2.72,2.72h-6.65c-1.5,0-2.72,1.22-2.72,2.72v1.21
		c0,1.5,1.22,2.72,2.72,2.72h25.38c1.5,0,2.72,1.22,2.72,2.72v0c0,1.5-1.22,2.72-2.72,2.72h-9.06
		C163.86,23.52,162.65,24.74,162.65,26.24z"/>
	<path style="clip-path:url(#SVGID_00000034806719116735867280000011547819593545977510_);fill:#7C351C;" d="M928.16,172L928.16,172
		c-1.28,0-2.32-1.04-2.32-2.32v-11.36c0-1.28,1.04-2.32,2.32-2.32l0,0c1.28,0,2.32,1.04,2.32,2.32v11.36
		C930.48,170.96,929.44,172,928.16,172z"/>
	<path style="clip-path:url(#SVGID_00000034806719116735867280000011547819593545977510_);fill:#7C351C;" d="M928.16,218L928.16,218
		c-1.28,0-2.32-1.04-2.32-2.32v-34.36c0-1.28,1.04-2.32,2.32-2.32l0,0c1.28,0,2.32,1.04,2.32,2.32v34.36
		C930.48,216.96,929.44,218,928.16,218z"/>
	<path style="clip-path:url(#SVGID_00000034806719116735867280000011547819593545977510_);fill:#BDEBFF;" d="M1100,194.2V250H0
		v-55.8C151.51,222.27,342.48,227,550,227S948.49,222.27,1100,194.2z"/>
	<path style="clip-path:url(#SVGID_00000034806719116735867280000011547819593545977510_);fill:#F7F0FF;" d="M295.92,41.85v3.04
		c0,2.27-1.84,4.11-4.11,4.11h-64.39c-2.27,0-4.11-1.84-4.11-4.11v-3.04c0-2.27,1.84-4.11,4.11-4.11h6.93
		c2.27,0,4.11-1.84,4.11-4.11v-2.27c0-2.27-1.84-4.11-4.11-4.11h-16.24c-2.27,0-4.11-1.84-4.11-4.11v-3.04
		c0-2.27,1.84-4.11,4.11-4.11h64.39c2.27,0,4.11,1.84,4.11,4.11v3.04c0,2.27-1.84,4.11-4.11,4.11h-26.34
		c-2.27,0-4.11,1.84-4.11,4.11v2.27c0,2.27,1.84,4.11,4.11,4.11h35.66C294.08,37.74,295.92,39.58,295.92,41.85z"/>
	<path style="clip-path:url(#SVGID_00000034806719116735867280000011547819593545977510_);fill:#F7F0FF;" d="M835,27.16v1.21
		c0,2.01,1.63,3.63,3.63,3.63h79.89c2.01,0,3.63-1.63,3.63-3.63v-1.21c0-2.01-1.63-3.63-3.63-3.63h-20.58
		c-2.01,0-3.63-1.63-3.63-3.63v0c0-2.01,1.63-3.63,3.63-3.63h39.34c2.01,0,3.63-1.63,3.63-3.63v0c0-2.01-1.63-3.63-3.63-3.63h-62.34
		c-2.01,0-3.63,1.63-3.63,3.63v0c0,2.01,1.63,3.63,3.63,3.63h1.82c2.01,0,3.63,1.63,3.63,3.63v0c0,2.01-1.63,3.63-3.63,3.63h-38.13
		C836.63,23.53,835,25.15,835,27.16z"/>
	<path style="clip-path:url(#SVGID_00000034806719116735867280000011547819593545977510_);fill:#F7F0FF;" d="M477.5,87h-10
		c-3.59,0-6.5-2.91-6.5-6.5v0c0-3.59,2.91-6.5,6.5-6.5h10c3.59,0,6.5,2.91,6.5,6.5v0C484,84.09,481.09,87,477.5,87z"/>
	<path style="clip-path:url(#SVGID_00000034806719116735867280000011547819593545977510_);fill:#F7F0FF;" d="M587.5,64h-15
		c-3.04,0-5.5-2.46-5.5-5.5v0c0-3.04,2.46-5.5,5.5-5.5h15c3.04,0,5.5,2.46,5.5,5.5v0C593,61.54,590.54,64,587.5,64z"/>
	<path style="clip-path:url(#SVGID_00000034806719116735867280000011547819593545977510_);fill:#F7F0FF;" d="M795.5,62h-17
		c-2.49,0-4.5-2.01-4.5-4.5v0c0-2.49,2.01-4.5,4.5-4.5h17c2.49,0,4.5,2.01,4.5,4.5v0C800,59.99,797.99,62,795.5,62z"/>
	<path style="clip-path:url(#SVGID_00000034806719116735867280000011547819593545977510_);fill:#F7F0FF;" d="M947.5,32h-17
		c-2.49,0-4.5-2.01-4.5-4.5v0c0-2.49,2.01-4.5,4.5-4.5h17c2.49,0,4.5,2.01,4.5,4.5v0C952,29.99,949.99,32,947.5,32z"/>
	<path style="clip-path:url(#SVGID_00000034806719116735867280000011547819593545977510_);fill:#F7F0FF;" d="M862.5,16h-14
		c-1.93,0-3.5-1.57-3.5-3.5v0c0-1.93,1.57-3.5,3.5-3.5h14c1.93,0,3.5,1.57,3.5,3.5v0C866,14.43,864.43,16,862.5,16z"/>
	<path style="clip-path:url(#SVGID_00000034806719116735867280000011547819593545977510_);fill:#F7F0FF;" d="M701.5,43h-13
		c-2.49,0-4.5-2.01-4.5-4.5v0c0-2.49,2.01-4.5,4.5-4.5h13c2.49,0,4.5,2.01,4.5,4.5v0C706,40.99,703.99,43,701.5,43z"/>
	<path style="clip-path:url(#SVGID_00000034806719116735867280000011547819593545977510_);fill:#F7F0FF;" d="M304,27h-6
		c-2.76,0-5-2.24-5-5v-1c0-2.76,2.24-5,5-5h6c2.76,0,5,2.24,5,5v1C309,24.76,306.76,27,304,27z"/>
	<path style="clip-path:url(#SVGID_00000034806719116735867280000011547819593545977510_);fill:#F7F0FF;" d="M416,83h-6
		c-2.76,0-5-2.24-5-5v-1c0-2.76,2.24-5,5-5h6c2.76,0,5,2.24,5,5v1C421,80.76,418.76,83,416,83z"/>
	<path style="clip-path:url(#SVGID_00000034806719116735867280000011547819593545977510_);fill:#F7F0FF;" d="M420,15h-7
		c-1.66,0-3-1.34-3-3v0c0-1.66,1.34-3,3-3h7c1.66,0,3,1.34,3,3v0C423,13.66,421.66,15,420,15z"/>
	<path style="clip-path:url(#SVGID_00000034806719116735867280000011547819593545977510_);fill:#F7F0FF;" d="M350,42h-7
		c-1.66,0-3-1.34-3-3v0c0-1.66,1.34-3,3-3h7c1.66,0,3,1.34,3,3v0C353,40.66,351.66,42,350,42z"/>
	<path style="clip-path:url(#SVGID_00000034806719116735867280000011547819593545977510_);fill:#F7F0FF;" d="M216,49h-6
		c-2.76,0-5-2.24-5-5v-1c0-2.76,2.24-5,5-5h6c2.76,0,5,2.24,5,5v1C221,46.76,218.76,49,216,49z"/>
	<path style="clip-path:url(#SVGID_00000034806719116735867280000011547819593545977510_);fill:#F7F0FF;" d="M542.5,17h-5
		c-2.49,0-4.5-2.01-4.5-4.5v0c0-2.49,2.01-4.5,4.5-4.5h5c2.49,0,4.5,2.01,4.5,4.5v0C547,14.99,544.99,17,542.5,17z"/>
	<g style="clip-path:url(#SVGID_00000034806719116735867280000011547819593545977510_);">
		<g>
			<g>
				<g>
					<path class="st20" d="M99.79,101.14l6.67-0.33l-0.95-1.12l-6.84,0.23l-0.92-1c0.11-0.04,0.24-0.07,0.36-0.08l3.48-0.27
						c1.26-0.1,1.75-1.59,0.8-2.42l-2.63-2.3c-0.09-0.08-0.17-0.17-0.23-0.26l0.99-0.19l5.1,4.31l1.44-0.29l-4.96-4.34l1.61-0.32
						l3.09,3.38l-1.75-8.8l-1.59,4.14l-1.63,0.32l2.93-5.9l-1.44,0.29l-3.07,5.93l-0.9,0.18c0.01-0.02,0.02-0.05,0.03-0.07
						l1.41-3.04c0.51-1.1-0.6-2.3-1.8-1.94l-3.32,0.98c-0.11,0.03-0.23,0.05-0.34,0.06l0.34-1.02l6.26-2.33l0.46-1.39l-6.22,2.2
						l0.51-1.57l4.46-1.04l-8.52-2.8l2.83,3.41l-0.52,1.58l-3.7-5.45l-0.46,1.39l3.66,5.59l-0.31,0.93
						c-0.03-0.03-0.06-0.07-0.09-0.11l-2.07-2.77c-0.75-1-2.36-0.71-2.61,0.48l-0.69,3.28c0,0.01-0.01,0.02-0.01,0.03l-0.78-0.9
						l1.29-6.5l-0.95-1.12l-1.39,6.42l-1.07-1.23l1.46-4.34l-6.86,5.79l4.39-0.62l1.1,1.27l-6.61,0.29l0.95,1.12l6.73-0.19
						l0.85,0.98c-0.12,0.04-0.25,0.07-0.38,0.08l-3.48,0.27c-1.26,0.1-1.75,1.59-0.8,2.42l2.63,2.3c0.09,0.08,0.17,0.17,0.24,0.27
						l-1.29,0.25l-5.12-4.3l-1.44,0.29l4.98,4.32L81.5,95.9l-3.1-3.37l1.78,8.79l1.57-4.15l1.63-0.32l-2.91,5.91l1.44-0.29
						l3.04-5.93l1.2-0.24c-0.01,0.02-0.02,0.04-0.03,0.06l-1.41,3.04c-0.51,1.1,0.6,2.3,1.8,1.94l3.32-0.98
						c0.06-0.02,0.12-0.03,0.18-0.04l-0.29,0.91l-6.25,2.36l-0.45,1.4l6.2-2.22l-0.51,1.57l-4.46,1.06l8.54,2.76l-2.84-3.4
						l0.51-1.58l3.73,5.44l0.45-1.4l-3.69-5.57l0,0l0.31-0.95c0.08,0.07,0.15,0.14,0.21,0.22l2.07,2.77c0.75,1,2.36,0.71,2.61-0.48
						l0.69-3.28c0-0.02,0.01-0.04,0.01-0.06l0.96,1.04l-1.24,6.41l0.95,1.12l1.34-6.37l1.09,1.18l-1.44,4.35l6.83-5.83l-4.39,0.64
						L99.79,101.14z M88.65,94.48c-0.23-0.61-0.62-1.16-1.14-1.62l-0.55-0.48l0.73-0.06c0.68-0.05,1.32-0.26,1.86-0.6l1.91,2.2
						L88.65,94.48z M88.97,97.91l-0.69,0.21l0.29-0.64c0.06-0.13,0.11-0.26,0.16-0.4c0.14-0.43,0.2-0.88,0.19-1.32l2.75-0.55
						l-0.83,2.57C90.22,97.69,89.58,97.72,88.97,97.91z M92.41,93.03l-1.88-2.16c0.28-0.35,0.51-0.75,0.65-1.19
						c0.05-0.13,0.08-0.27,0.11-0.41l0.14-0.68l0.43,0.58c0.38,0.51,0.87,0.92,1.41,1.21L92.41,93.03z M94.51,90.8
						c0.66,0.13,1.35,0.1,2.02-0.1l0.69-0.21l-0.29,0.63c-0.06,0.13-0.11,0.27-0.16,0.4c-0.14,0.43-0.21,0.88-0.19,1.33l-2.94,0.58
						L94.51,90.8z M94.21,99.35l-0.15,0.68l-0.43-0.58c-0.41-0.56-0.95-0.99-1.55-1.28l0.83-2.57l2.02,2.19
						c-0.26,0.34-0.47,0.72-0.61,1.14C94.27,99.07,94.24,99.21,94.21,99.35z M97.81,96.28c-0.7,0.06-1.36,0.28-1.92,0.64l-1.99-2.15
						l-0.04-0.04l0.03-0.01l2.95-0.58c0.23,0.6,0.62,1.16,1.14,1.61l0.55,0.48L97.81,96.28z"/>
				</g>
				<polygon class="st20" points="93.91,94.76 93.87,94.72 93.9,94.71 				"/>
			</g>
		</g>
	</g>
	<g style="clip-path:url(#SVGID_00000034806719116735867280000011547819593545977510_);">
		<g>
			<g>
				<g>
					<path class="st21" d="M204.59,122.24l5.59-0.28l-0.8-0.94l-5.74,0.19l-0.77-0.84c0.1-0.03,0.2-0.05,0.3-0.06l2.92-0.23
						c1.06-0.08,1.47-1.33,0.67-2.03l-2.21-1.93c-0.07-0.07-0.14-0.14-0.2-0.22l0.83-0.16l4.28,3.61l1.21-0.24l-4.16-3.64l1.35-0.27
						l2.6,2.83l-1.47-7.38l-1.33,3.47l-1.37,0.27l2.46-4.95l-1.21,0.24l-2.57,4.97l-0.76,0.15c0.01-0.02,0.02-0.04,0.03-0.06
						l1.18-2.55c0.43-0.93-0.51-1.93-1.51-1.63l-2.78,0.82c-0.09,0.03-0.19,0.04-0.28,0.05l0.28-0.86l5.25-1.95l0.38-1.17
						l-5.21,1.84l0.43-1.31l3.74-0.87l-7.15-2.35l2.37,2.86l-0.44,1.32l-3.11-4.57l-0.38,1.17l3.07,4.69l-0.26,0.78
						c-0.03-0.03-0.05-0.06-0.08-0.09l-1.74-2.32c-0.63-0.84-1.98-0.59-2.19,0.4l-0.58,2.75c0,0.01,0,0.02-0.01,0.03l-0.66-0.76
						l1.08-5.45l-0.79-0.94l-1.16,5.38l-0.9-1.03l1.22-3.64l-5.75,4.86l3.68-0.52l0.92,1.06l-5.55,0.25l0.79,0.94l5.65-0.16
						l0.71,0.82c-0.1,0.04-0.21,0.06-0.32,0.07l-2.92,0.22c-1.06,0.08-1.47,1.34-0.67,2.03l2.21,1.93c0.08,0.07,0.14,0.14,0.2,0.22
						l-1.08,0.21l-4.3-3.61l-1.21,0.24l4.18,3.63l-1.36,0.27l-2.6-2.82l1.49,7.38l1.32-3.48l1.37-0.27l-2.44,4.96l1.21-0.24
						l2.55-4.98l1.01-0.2c-0.01,0.02-0.01,0.04-0.02,0.05l-1.18,2.55c-0.43,0.92,0.5,1.93,1.51,1.63l2.78-0.82
						c0.05-0.01,0.1-0.03,0.15-0.03l-0.25,0.76l-5.24,1.98l-0.38,1.17l5.2-1.86l-0.42,1.31l-3.74,0.89l7.16,2.32l-2.39-2.85
						l0.43-1.33l3.13,4.56l0.38-1.17l-3.09-4.67l0,0l0.26-0.79c0.06,0.06,0.12,0.12,0.17,0.19l1.74,2.32
						c0.63,0.84,1.98,0.59,2.19-0.4l0.58-2.75c0-0.02,0.01-0.03,0.01-0.05l0.81,0.87l-1.04,5.37l0.8,0.94l1.13-5.35l0.91,0.99
						l-1.2,3.65l5.73-4.89l-3.68,0.54L204.59,122.24z M195.25,116.66c-0.19-0.51-0.52-0.98-0.96-1.36l-0.46-0.4l0.61-0.05
						c0.57-0.04,1.1-0.22,1.56-0.51l1.6,1.84L195.25,116.66z M195.51,119.53l-0.58,0.17l0.25-0.53c0.05-0.11,0.1-0.22,0.13-0.33
						c0.12-0.36,0.17-0.74,0.16-1.11l2.3-0.46l-0.7,2.16C196.56,119.35,196.03,119.38,195.51,119.53z M198.4,115.44l-1.57-1.82
						c0.24-0.29,0.42-0.63,0.55-1c0.04-0.11,0.07-0.23,0.09-0.35l0.12-0.57l0.36,0.49c0.32,0.43,0.73,0.77,1.18,1.02L198.4,115.44z
						 M200.16,113.57c0.55,0.11,1.13,0.08,1.7-0.08l0.58-0.17l-0.25,0.53c-0.05,0.11-0.09,0.22-0.13,0.34
						c-0.12,0.36-0.17,0.74-0.16,1.11l-2.47,0.49L200.16,113.57z M199.91,120.74l-0.12,0.57l-0.36-0.48
						c-0.35-0.47-0.8-0.83-1.3-1.08l0.7-2.16l1.7,1.84c-0.22,0.28-0.4,0.61-0.51,0.96C199.97,120.5,199.93,120.62,199.91,120.74z
						 M202.93,118.16c-0.59,0.05-1.14,0.24-1.61,0.54l-1.67-1.81l-0.03-0.03l0.02-0.01l2.48-0.49c0.2,0.51,0.52,0.97,0.96,1.35
						l0.46,0.4L202.93,118.16z"/>
				</g>
				<polygon class="st21" points="199.66,116.89 199.63,116.86 199.65,116.85 				"/>
			</g>
		</g>
	</g>
	<g style="clip-path:url(#SVGID_00000034806719116735867280000011547819593545977510_);">
		<g>
			<g>
				<g>
					<path class="st22" d="M321.59,121.24l5.59-0.28l-0.8-0.94l-5.74,0.19l-0.77-0.84c0.1-0.03,0.2-0.05,0.3-0.06l2.92-0.23
						c1.06-0.08,1.47-1.33,0.67-2.03l-2.21-1.93c-0.07-0.07-0.14-0.14-0.2-0.22l0.83-0.16l4.28,3.61l1.21-0.24l-4.16-3.64l1.35-0.27
						l2.6,2.83l-1.47-7.38l-1.33,3.47l-1.37,0.27l2.46-4.95l-1.21,0.24l-2.57,4.97l-0.76,0.15c0.01-0.02,0.02-0.04,0.03-0.06
						l1.18-2.55c0.43-0.93-0.51-1.93-1.51-1.63l-2.78,0.82c-0.09,0.03-0.19,0.04-0.28,0.05l0.28-0.86l5.25-1.95l0.38-1.17
						l-5.21,1.84l0.43-1.31l3.74-0.87l-7.15-2.35l2.37,2.86l-0.44,1.32l-3.11-4.57l-0.38,1.17l3.07,4.69l-0.26,0.78
						c-0.03-0.03-0.05-0.06-0.08-0.09l-1.74-2.32c-0.63-0.84-1.98-0.59-2.19,0.4l-0.58,2.75c0,0.01,0,0.02-0.01,0.03l-0.66-0.76
						l1.08-5.45l-0.79-0.94l-1.16,5.38l-0.9-1.03l1.22-3.64l-5.75,4.86l3.68-0.52l0.92,1.06l-5.55,0.25l0.79,0.94l5.65-0.16
						l0.71,0.82c-0.1,0.04-0.21,0.06-0.32,0.07l-2.92,0.22c-1.06,0.08-1.47,1.34-0.67,2.03l2.21,1.93c0.08,0.07,0.14,0.14,0.2,0.22
						l-1.08,0.21l-4.3-3.61l-1.21,0.24l4.18,3.63l-1.36,0.27l-2.6-2.82l1.49,7.38l1.32-3.48l1.37-0.27l-2.44,4.96l1.21-0.24
						l2.55-4.98l1.01-0.2c-0.01,0.02-0.01,0.04-0.02,0.05l-1.18,2.55c-0.43,0.92,0.5,1.93,1.51,1.63l2.78-0.82
						c0.05-0.01,0.1-0.03,0.15-0.03l-0.25,0.76l-5.24,1.98l-0.38,1.17l5.2-1.86l-0.42,1.31l-3.74,0.89l7.16,2.32l-2.39-2.85
						l0.43-1.33l3.13,4.56l0.38-1.17l-3.09-4.67l0,0l0.26-0.79c0.06,0.06,0.12,0.12,0.17,0.19l1.74,2.32
						c0.63,0.84,1.98,0.59,2.19-0.4l0.58-2.75c0-0.02,0.01-0.03,0.01-0.05l0.81,0.87l-1.04,5.37l0.8,0.94l1.13-5.35l0.91,0.99
						l-1.2,3.65l5.73-4.89l-3.68,0.54L321.59,121.24z M312.25,115.66c-0.19-0.51-0.52-0.98-0.96-1.36l-0.46-0.4l0.61-0.05
						c0.57-0.04,1.1-0.22,1.56-0.51l1.6,1.84L312.25,115.66z M312.51,118.53l-0.58,0.17l0.25-0.53c0.05-0.11,0.1-0.22,0.13-0.33
						c0.12-0.36,0.17-0.74,0.16-1.11l2.3-0.46l-0.7,2.16C313.56,118.35,313.03,118.38,312.51,118.53z M315.4,114.44l-1.57-1.82
						c0.24-0.29,0.42-0.63,0.55-1c0.04-0.11,0.07-0.23,0.09-0.35l0.12-0.57l0.36,0.49c0.32,0.43,0.73,0.77,1.18,1.02L315.4,114.44z
						 M317.16,112.57c0.55,0.11,1.13,0.08,1.7-0.08l0.58-0.17l-0.25,0.53c-0.05,0.11-0.09,0.22-0.13,0.34
						c-0.12,0.36-0.17,0.74-0.16,1.11l-2.47,0.49L317.16,112.57z M316.91,119.74l-0.12,0.57l-0.36-0.48
						c-0.35-0.47-0.8-0.83-1.3-1.08l0.7-2.16l1.7,1.84c-0.22,0.28-0.4,0.61-0.51,0.96C316.97,119.5,316.93,119.62,316.91,119.74z
						 M319.93,117.16c-0.59,0.05-1.14,0.24-1.61,0.54l-1.67-1.81l-0.03-0.03l0.02-0.01l2.48-0.49c0.2,0.51,0.52,0.97,0.96,1.35
						l0.46,0.4L319.93,117.16z"/>
				</g>
				<polygon class="st22" points="316.66,115.89 316.63,115.86 316.65,115.85 				"/>
			</g>
		</g>
	</g>
	<g style="clip-path:url(#SVGID_00000034806719116735867280000011547819593545977510_);">
		<g>
			<g>
				<g>
					<path class="st22" d="M271.24,150.8l5.37,4.92l0.14-1.6l-5.42-5.14l0.07-1.48c0.12,0.06,0.23,0.13,0.34,0.22l2.88,2.5
						c1.04,0.9,2.58,0.14,2.5-1.23l-0.23-3.8c-0.01-0.13,0-0.26,0.02-0.38l0.91,0.62l0.57,7.27l1.33,0.9l-0.44-7.18l1.49,1.01
						l-0.25,4.99l5.5-8.1l-4.43,1.94l-1.5-1.02l6.83-2.25l-1.33-0.9l-6.96,2.16l-0.83-0.56c0.03-0.01,0.05-0.02,0.08-0.03l3.44-1.24
						c1.25-0.45,1.32-2.23,0.13-2.89l-3.31-1.82c-0.11-0.06-0.21-0.13-0.31-0.22l1.05-0.52l6.61,3.08l1.43-0.71l-6.47-3.14l1.61-0.8
						l4.23,2.67l-4.36-8.77l-0.48,4.81l-1.62,0.81l1.39-7.06l-1.43,0.71l-1.53,7.13l-0.96,0.48c0-0.05,0.01-0.1,0.01-0.15l0.56-3.73
						c0.21-1.35-1.26-2.37-2.37-1.65l-3.07,1.98c-0.01,0.01-0.02,0.01-0.03,0.02l0.1-1.3l6.04-3.98l0.15-1.6l-6.05,3.84l0.14-1.77
						l4.49-2.2l-9.75-0.89l3.84,2.94l-0.14,1.83l-5.3-4.91l-0.14,1.6l5.31,5.09l-0.11,1.41c-0.12-0.06-0.24-0.14-0.35-0.23
						l-2.88-2.5c-1.04-0.9-2.58-0.14-2.5,1.24l0.23,3.8c0.01,0.13,0,0.26-0.02,0.39l-1.18-0.8l-0.59-7.28l-1.33-0.9l0.46,7.19
						l-1.49-1.01l0.23-4.99l-5.47,8.12l4.42-1.96l1.5,1.02l-6.82,2.27l1.33,0.9l6.94-2.19l1.11,0.75c-0.02,0.01-0.05,0.02-0.07,0.03
						l-3.44,1.24c-1.25,0.45-1.32,2.23-0.13,2.89l3.31,1.82c0.06,0.03,0.12,0.07,0.17,0.11l-0.93,0.47l-6.62-3.05l-1.43,0.72
						l6.48,3.11l-1.6,0.81l-4.24-2.65l4.4,8.75l0.46-4.82l1.62-0.82l-1.36,7.07l1.43-0.72l1.5-7.13l0,0l0.97-0.49
						c0.01,0.11,0,0.22-0.01,0.33l-0.56,3.73c-0.21,1.35,1.26,2.37,2.37,1.65l3.07-1.98c0.02-0.01,0.04-0.02,0.05-0.03l-0.07,1.54
						l-5.92,3.95l-0.14,1.6l5.98-3.84l-0.08,1.75l-4.48,2.22l9.76,0.83l-3.86-2.92L271.24,150.8z M267.87,137.04
						c0.29-0.64,0.43-1.37,0.38-2.13l-0.05-0.79l0.6,0.52c0.56,0.49,1.22,0.82,1.89,0.98l-0.25,3.17L267.87,137.04z M265.45,139.91
						l-0.69-0.38l0.72-0.26c0.15-0.05,0.29-0.11,0.43-0.18c0.45-0.22,0.84-0.52,1.17-0.87l2.53,1.71l-2.63,1.33
						C266.59,140.72,266.07,140.25,265.45,139.91z M271.88,138.84l0.24-3.12c0.49-0.05,0.97-0.18,1.43-0.41
						c0.14-0.07,0.28-0.15,0.41-0.23l0.64-0.41l-0.12,0.78c-0.1,0.69-0.05,1.38,0.14,2.02L271.88,138.84z M275.23,138.77
						c0.41,0.61,0.96,1.13,1.63,1.49l0.69,0.38l-0.72,0.26c-0.15,0.05-0.29,0.12-0.43,0.18c-0.45,0.22-0.84,0.52-1.17,0.87
						l-2.71-1.84L275.23,138.77z M268.35,145.09l-0.64,0.41l0.12-0.78c0.11-0.75,0.04-1.5-0.19-2.19l2.63-1.33l-0.15,3.25
						c-0.47,0.05-0.92,0.19-1.36,0.4C268.62,144.92,268.48,145,268.35,145.09z M273.5,145.53c-0.58-0.51-1.26-0.84-1.97-1l0.15-3.2
						l0-0.06l0.03,0.02l2.72,1.85c-0.29,0.65-0.43,1.37-0.38,2.12l0.05,0.79L273.5,145.53z"/>
				</g>
				<polygon class="st22" points="271.69,141.34 271.69,141.28 271.72,141.29 				"/>
			</g>
		</g>
	</g>
	<g style="clip-path:url(#SVGID_00000034806719116735867280000011547819593545977510_);">
		<g>
			<g>
				<g>
					<path class="st23" d="M397.24,157.8l5.37,4.92l0.14-1.6l-5.42-5.14l0.07-1.48c0.12,0.06,0.23,0.13,0.34,0.22l2.88,2.5
						c1.04,0.9,2.58,0.14,2.5-1.23l-0.23-3.8c-0.01-0.13,0-0.26,0.02-0.38l0.91,0.62l0.57,7.27l1.33,0.9l-0.44-7.18l1.49,1.01
						l-0.25,4.99l5.5-8.1l-4.43,1.94l-1.5-1.02l6.83-2.25l-1.33-0.9l-6.96,2.16l-0.83-0.56c0.03-0.01,0.05-0.02,0.08-0.03l3.44-1.24
						c1.25-0.45,1.32-2.23,0.13-2.89l-3.31-1.82c-0.11-0.06-0.21-0.13-0.31-0.22l1.05-0.52l6.61,3.08l1.43-0.71l-6.47-3.14l1.61-0.8
						l4.23,2.67l-4.36-8.77l-0.48,4.81l-1.62,0.81l1.39-7.06l-1.43,0.71l-1.53,7.13l-0.96,0.48c0-0.05,0.01-0.1,0.01-0.15l0.56-3.73
						c0.21-1.35-1.26-2.37-2.37-1.65l-3.07,1.98c-0.01,0.01-0.02,0.01-0.03,0.02l0.1-1.3l6.04-3.98l0.15-1.6l-6.05,3.84l0.14-1.77
						l4.49-2.2l-9.75-0.89l3.84,2.94l-0.14,1.83l-5.3-4.91l-0.14,1.6l5.31,5.09l-0.11,1.41c-0.12-0.06-0.24-0.14-0.35-0.23
						l-2.88-2.5c-1.04-0.9-2.58-0.14-2.5,1.24l0.23,3.8c0.01,0.13,0,0.26-0.02,0.39l-1.18-0.8l-0.59-7.28l-1.33-0.9l0.46,7.19
						l-1.49-1.01l0.23-4.99l-5.47,8.12l4.42-1.96l1.5,1.02l-6.82,2.27l1.33,0.9l6.94-2.19l1.11,0.75c-0.02,0.01-0.05,0.02-0.07,0.03
						l-3.44,1.24c-1.25,0.45-1.32,2.23-0.13,2.89l3.31,1.82c0.06,0.03,0.12,0.07,0.17,0.11l-0.93,0.47l-6.62-3.05l-1.43,0.72
						l6.48,3.11l-1.6,0.81l-4.24-2.65l4.4,8.75l0.46-4.82l1.62-0.82l-1.36,7.07l1.43-0.72l1.5-7.13l0,0l0.97-0.49
						c0.01,0.11,0,0.22-0.01,0.33l-0.56,3.73c-0.21,1.35,1.26,2.37,2.37,1.65l3.07-1.98c0.02-0.01,0.04-0.02,0.05-0.03l-0.07,1.54
						l-5.92,3.95l-0.14,1.6l5.98-3.84l-0.08,1.75l-4.48,2.22l9.76,0.83l-3.86-2.92L397.24,157.8z M393.87,144.04
						c0.29-0.64,0.43-1.37,0.38-2.13l-0.05-0.79l0.6,0.52c0.56,0.49,1.22,0.82,1.89,0.98l-0.25,3.17L393.87,144.04z M391.45,146.91
						l-0.69-0.38l0.72-0.26c0.15-0.05,0.29-0.11,0.43-0.18c0.45-0.22,0.84-0.52,1.17-0.87l2.53,1.71l-2.63,1.33
						C392.59,147.72,392.07,147.25,391.45,146.91z M397.88,145.84l0.24-3.12c0.49-0.05,0.97-0.18,1.43-0.41
						c0.14-0.07,0.28-0.15,0.41-0.23l0.64-0.41l-0.12,0.78c-0.1,0.69-0.05,1.38,0.14,2.02L397.88,145.84z M401.23,145.77
						c0.41,0.61,0.96,1.13,1.63,1.49l0.69,0.38l-0.72,0.26c-0.15,0.05-0.29,0.12-0.43,0.18c-0.45,0.22-0.84,0.52-1.17,0.87
						l-2.71-1.84L401.23,145.77z M394.35,152.09l-0.64,0.41l0.12-0.78c0.11-0.75,0.04-1.5-0.19-2.19l2.63-1.33l-0.15,3.25
						c-0.47,0.05-0.92,0.19-1.36,0.4C394.62,151.92,394.48,152,394.35,152.09z M399.5,152.53c-0.58-0.51-1.26-0.84-1.97-1l0.15-3.2
						l0-0.06l0.03,0.02l2.72,1.85c-0.29,0.65-0.43,1.37-0.38,2.12l0.05,0.79L399.5,152.53z"/>
				</g>
				<polygon class="st23" points="397.69,148.34 397.69,148.28 397.72,148.29 				"/>
			</g>
		</g>
	</g>
	<g style="clip-path:url(#SVGID_00000034806719116735867280000011547819593545977510_);">
		<g>
			<g>
				<g>
					<path class="st24" d="M542.78,117.23l5.75,5.27l0.15-1.71l-5.8-5.5l0.07-1.59c0.13,0.06,0.25,0.14,0.36,0.24l3.08,2.67
						c1.11,0.96,2.76,0.15,2.67-1.32l-0.25-4.07c-0.01-0.14,0-0.28,0.02-0.41l0.97,0.66l0.6,7.78l1.42,0.96l-0.47-7.68l1.59,1.08
						l-0.27,5.34l5.88-8.67l-4.74,2.08l-1.61-1.09l7.31-2.41l-1.42-0.96l-7.45,2.32l-0.89-0.6c0.03-0.01,0.06-0.02,0.08-0.03
						l3.68-1.32c1.34-0.48,1.42-2.39,0.13-3.09l-3.54-1.95c-0.12-0.07-0.23-0.14-0.33-0.23l1.13-0.56l7.07,3.29l1.54-0.76
						l-6.92-3.36l1.72-0.86l4.52,2.86l-4.67-9.38l-0.52,5.15l-1.74,0.86l1.49-7.55l-1.54,0.76l-1.64,7.63l-1.03,0.51
						c0-0.06,0.01-0.11,0.02-0.17l0.6-4c0.22-1.45-1.34-2.54-2.54-1.77l-3.29,2.12c-0.01,0.01-0.02,0.01-0.03,0.02l0.11-1.39
						l6.46-4.25l0.16-1.71l-6.47,4.11l0.15-1.9l4.81-2.35l-10.44-0.95l4.11,3.14l-0.15,1.96l-5.67-5.26l-0.15,1.71l5.68,5.44
						l-0.12,1.51c-0.13-0.06-0.26-0.15-0.38-0.25l-3.08-2.67c-1.12-0.96-2.76-0.15-2.67,1.32l0.25,4.07c0.01,0.14,0,0.28-0.03,0.41
						l-1.27-0.86l-0.63-7.79l-1.42-0.96l0.5,7.69l-1.6-1.08l0.25-5.34l-5.85,8.69l4.73-2.1l1.6,1.09l-7.3,2.43l1.42,0.96l7.43-2.34
						l1.18,0.8c-0.02,0.01-0.05,0.02-0.07,0.03l-3.68,1.32c-1.33,0.48-1.42,2.39-0.14,3.09l3.54,1.95c0.06,0.04,0.12,0.07,0.18,0.11
						l-0.99,0.5l-7.08-3.26l-1.53,0.77l6.94,3.33l-1.72,0.87l-4.54-2.84l4.71,9.36l0.49-5.16l1.73-0.87l-1.46,7.56l1.53-0.77
						l1.6-7.63l0,0l1.04-0.52c0.01,0.12,0,0.24-0.02,0.36l-0.6,4c-0.22,1.44,1.35,2.54,2.54,1.77l3.29-2.12
						c0.02-0.01,0.04-0.02,0.06-0.03l-0.08,1.65l-6.34,4.23l-0.15,1.71l6.4-4.11l-0.09,1.87l-4.79,2.38l10.44,0.89l-4.13-3.12
						L542.78,117.23z M539.17,102.5c0.31-0.69,0.46-1.47,0.41-2.27l-0.05-0.85l0.64,0.56c0.6,0.52,1.3,0.88,2.03,1.05l-0.26,3.39
						L539.17,102.5z M536.58,105.58l-0.74-0.41l0.77-0.28c0.16-0.05,0.31-0.12,0.46-0.2c0.48-0.24,0.9-0.55,1.25-0.93l2.71,1.83
						l-2.82,1.42C537.79,106.44,537.24,105.94,536.58,105.58z M543.46,104.43l0.26-3.34c0.52-0.05,1.04-0.2,1.53-0.44
						c0.15-0.07,0.3-0.16,0.44-0.25l0.69-0.44l-0.13,0.83c-0.11,0.74-0.05,1.48,0.15,2.17L543.46,104.43z M547.04,104.35
						c0.44,0.65,1.03,1.2,1.74,1.6l0.74,0.41l-0.77,0.28c-0.16,0.06-0.31,0.12-0.46,0.2c-0.48,0.24-0.9,0.55-1.26,0.93l-2.9-1.96
						L547.04,104.35z M539.69,111.12l-0.69,0.44l0.13-0.83c0.12-0.8,0.04-1.6-0.21-2.34l2.82-1.42l-0.16,3.48
						c-0.5,0.06-0.99,0.2-1.45,0.43C539.97,110.94,539.82,111.03,539.69,111.12z M545.2,111.59c-0.62-0.54-1.35-0.9-2.11-1.07
						l0.16-3.42l0-0.07l0.03,0.02l2.91,1.97c-0.31,0.69-0.46,1.47-0.41,2.27l0.05,0.85L545.2,111.59z"/>
				</g>
				<polygon class="st24" points="543.25,107.1 543.26,107.04 543.28,107.05 				"/>
			</g>
		</g>
	</g>
	<g style="clip-path:url(#SVGID_00000034806719116735867280000011547819593545977510_);">
		<g>
			<g>
				<g>
					<path class="st24" d="M649.11,100.45l5.12,4.69l0.13-1.52l-5.17-4.9l0.07-1.41c0.11,0.06,0.22,0.13,0.32,0.21l2.74,2.38
						c0.99,0.86,2.46,0.14,2.38-1.17l-0.22-3.63c-0.01-0.12,0-0.25,0.02-0.36l0.86,0.59l0.54,6.92l1.26,0.86l-0.42-6.84l1.42,0.96
						l-0.24,4.76l5.24-7.72l-4.22,1.85l-1.43-0.97l6.51-2.14l-1.26-0.86l-6.63,2.06l-0.79-0.54c0.02-0.01,0.05-0.02,0.07-0.03
						l3.28-1.18c1.19-0.43,1.26-2.13,0.12-2.75l-3.15-1.74c-0.11-0.06-0.2-0.13-0.29-0.21l1-0.5l6.3,2.93l1.37-0.68l-6.17-3
						l1.53-0.76l4.03,2.54l-4.16-8.36l-0.46,4.59l-1.55,0.77l1.33-6.73l-1.37,0.68l-1.46,6.79l-0.92,0.46c0-0.05,0.01-0.1,0.01-0.15
						l0.53-3.56c0.2-1.29-1.2-2.26-2.26-1.58l-2.93,1.89c-0.01,0.01-0.02,0.01-0.03,0.02l0.1-1.24l5.75-3.79l0.14-1.52l-5.76,3.66
						l0.13-1.69l4.28-2.09l-9.29-0.84l3.66,2.8l-0.14,1.74L644,75.47l-0.14,1.52l5.06,4.85l-0.1,1.34
						c-0.12-0.06-0.23-0.13-0.34-0.22l-2.74-2.38c-0.99-0.86-2.46-0.13-2.38,1.18l0.22,3.63c0.01,0.13,0,0.25-0.02,0.37l-1.13-0.77
						l-0.56-6.93l-1.27-0.85l0.44,6.85l-1.42-0.96l0.22-4.76l-5.21,7.74l4.22-1.87l1.43,0.97l-6.5,2.17l1.27,0.85l6.61-2.08
						l1.05,0.71c-0.02,0.01-0.04,0.02-0.07,0.03l-3.28,1.18c-1.19,0.43-1.26,2.13-0.12,2.75l3.15,1.74c0.06,0.03,0.11,0.06,0.16,0.1
						l-0.88,0.45l-6.31-2.9L634,90.84l6.18,2.97l-1.53,0.77l-4.04-2.53l4.2,8.34l0.44-4.59l1.54-0.78l-1.3,6.73l1.36-0.69l1.43-6.8
						l0,0l0.92-0.47c0.01,0.1,0,0.21-0.01,0.32l-0.53,3.56c-0.2,1.29,1.2,2.26,2.26,1.58l2.93-1.89c0.02-0.01,0.03-0.02,0.05-0.03
						l-0.07,1.47l-5.64,3.77l-0.13,1.52l5.7-3.66l-0.08,1.66l-4.27,2.12l9.3,0.79l-3.68-2.78L649.11,100.45z M645.9,87.33
						c0.28-0.61,0.41-1.31,0.36-2.03l-0.05-0.76l0.57,0.5c0.54,0.47,1.16,0.78,1.81,0.94L648.37,89L645.9,87.33z M643.6,90.07
						l-0.66-0.36l0.68-0.25c0.14-0.05,0.28-0.11,0.41-0.17c0.42-0.21,0.8-0.49,1.12-0.83l2.41,1.63l-2.51,1.26
						C644.68,90.84,644.18,90.4,643.6,90.07z M649.72,89.05l0.23-2.97c0.47-0.04,0.93-0.18,1.36-0.39c0.13-0.06,0.26-0.14,0.39-0.22
						l0.61-0.39l-0.11,0.74c-0.1,0.66-0.05,1.31,0.14,1.93L649.72,89.05z M652.91,88.98c0.39,0.58,0.91,1.07,1.55,1.42l0.66,0.36
						l-0.68,0.25c-0.14,0.05-0.28,0.11-0.41,0.18c-0.43,0.21-0.8,0.49-1.12,0.83l-2.58-1.75L652.91,88.98z M646.36,95l-0.61,0.39
						l0.11-0.74c0.11-0.71,0.04-1.43-0.19-2.09l2.51-1.26l-0.15,3.1c-0.44,0.05-0.88,0.18-1.29,0.38
						C646.62,94.85,646.49,94.92,646.36,95z M651.27,95.43c-0.56-0.48-1.2-0.8-1.87-0.95l0.14-3.04l0-0.06l0.02,0.02l2.59,1.76
						c-0.28,0.61-0.41,1.31-0.36,2.02l0.05,0.75L651.27,95.43z"/>
				</g>
				<polygon class="st24" points="649.54,91.43 649.54,91.37 649.57,91.39 				"/>
			</g>
		</g>
	</g>
	<g style="clip-path:url(#SVGID_00000034806719116735867280000011547819593545977510_);">
		<g>
			<g>
				<g>
					<path class="st24" d="M499.9,142.48l1.64,5.26l0.7-0.99l-1.59-5.42l0.61-0.94c0.06,0.08,0.1,0.18,0.13,0.27l0.93,2.73
						c0.34,0.99,1.63,1.07,2.1,0.14l1.29-2.58c0.04-0.09,0.1-0.17,0.16-0.24l0.36,0.75l-2.39,4.97l0.53,1.09l2.44-4.86l0.59,1.22
						l-2.06,3.17l6.67-3.21l-3.64-0.41l-0.59-1.24l5.32,1.13l-0.53-1.09l-5.37-1.23l-0.33-0.68c0.02,0,0.04,0.01,0.06,0.01l2.72,0.5
						c0.99,0.18,1.71-0.96,1.18-1.84l-1.47-2.45c-0.05-0.08-0.09-0.17-0.12-0.26l0.89,0.06l3.15,4.52l1.21,0.08l-3.04-4.51
						l1.36,0.09l1.75,3.35l0.48-7.39l-2.15,2.97l-1.37-0.09l3.59-4.09l-1.21-0.08l-3.71,4.08l-0.81-0.05
						c0.02-0.03,0.04-0.06,0.07-0.1l1.78-2.23c0.65-0.81,0.08-2.03-0.92-1.98l-2.76,0.13c-0.01,0-0.02,0-0.03,0l0.56-0.81l5.46-0.31
						l0.7-0.99l-5.41,0.22l0.76-1.11l3.77,0.27l-6.04-4.28l1.4,3.38l-0.79,1.14l-1.6-5.22l-0.7,0.99l1.54,5.34l-0.61,0.88
						c-0.06-0.09-0.11-0.18-0.14-0.29l-0.93-2.73c-0.34-0.99-1.64-1.07-2.1-0.14l-1.29,2.58c-0.04,0.09-0.1,0.17-0.16,0.24
						l-0.47-0.97l2.38-4.98l-0.53-1.09L500.9,128l-0.59-1.23l2.05-3.18l-6.66,3.24l3.64,0.4l0.6,1.23l-5.32-1.1l0.53,1.09l5.37,1.21
						l0.44,0.91c-0.02,0-0.04,0-0.06-0.01l-2.72-0.5c-0.99-0.18-1.71,0.96-1.18,1.84l1.47,2.45c0.03,0.04,0.05,0.09,0.07,0.13
						l-0.79-0.05l-3.17-4.51l-1.21-0.07l3.06,4.5l-1.36-0.08l-1.77-3.34l-0.44,7.39l2.13-2.98l1.37,0.08l-3.58,4.1l1.21,0.07
						l3.69-4.1l0,0l0.82,0.05c-0.04,0.07-0.08,0.15-0.14,0.21l-1.78,2.23c-0.65,0.8-0.08,2.03,0.92,1.98l2.76-0.13
						c0.02,0,0.03,0,0.05,0l-0.63,0.98l-5.37,0.33l-0.7,0.99l5.37-0.24l-0.72,1.11l-3.77-0.25l6.07,4.25l-1.42-3.37L499.9,142.48z
						 M502.92,132.2c0.44-0.31,0.8-0.73,1.06-1.24l0.27-0.54l0.2,0.57c0.18,0.53,0.48,1,0.87,1.36l-1.36,1.98L502.92,132.2z
						 M500.25,133.16l-0.31-0.51l0.57,0.1c0.11,0.02,0.24,0.04,0.35,0.04c0.37,0.03,0.74-0.02,1.1-0.12l1,2.08l-2.23-0.13
						C500.68,134.12,500.52,133.62,500.25,133.16z M504.86,134.9l1.34-1.95c0.34,0.16,0.71,0.25,1.09,0.28
						c0.12,0.01,0.24,0.01,0.35,0l0.58-0.03l-0.37,0.47c-0.33,0.41-0.56,0.88-0.68,1.38L504.86,134.9z M507.08,136.12
						c0.04,0.55,0.2,1.1,0.5,1.59l0.31,0.51l-0.57-0.1c-0.12-0.02-0.24-0.04-0.35-0.04c-0.38-0.03-0.75,0.02-1.1,0.12l-1.07-2.23
						L507.08,136.12z M500.18,137.65l-0.58,0.02l0.37-0.46c0.36-0.45,0.6-0.97,0.7-1.51l2.23,0.13l-1.34,2.07
						c-0.33-0.14-0.67-0.23-1.04-0.25C500.42,137.64,500.3,137.64,500.18,137.65z M503.38,139.89c-0.19-0.55-0.51-1.03-0.91-1.4
						l1.31-2.03l0.03-0.04l0.01,0.02l1.08,2.24c-0.43,0.31-0.8,0.74-1.05,1.24l-0.27,0.54L503.38,139.89z"/>
				</g>
				<polygon class="st24" points="503.78,136.46 503.81,136.42 503.82,136.44 				"/>
			</g>
		</g>
	</g>
	<g style="clip-path:url(#SVGID_00000034806719116735867280000011547819593545977510_);">
		<g>
			<g>
				<g>
					<path class="st24" d="M642.82,139.27l-0.04,4.53l0.79-0.6l0.12-4.64l0.71-0.58c0.02,0.08,0.03,0.16,0.04,0.25l0.04,2.37
						c0.02,0.86,1.01,1.25,1.61,0.64l1.66-1.69c0.06-0.06,0.12-0.11,0.19-0.15l0.09,0.68l-3.12,3.28l0.14,0.99l3.14-3.19l0.15,1.11
						l-2.41,1.96l6.03-0.83l-2.74-1.24l-0.15-1.12l3.88,2.22l-0.14-0.99l-3.89-2.32l-0.09-0.62c0.01,0.01,0.03,0.02,0.05,0.02
						l2,1.07c0.73,0.39,1.58-0.32,1.39-1.14l-0.53-2.29c-0.02-0.08-0.03-0.15-0.03-0.23l0.68,0.27l1.33,4.33l0.93,0.37l-1.24-4.3
						l1.04,0.41l0.52,3.06l2.24-5.66l-2.43,1.78l-1.05-0.41l3.84-2.29l-0.93-0.37l-3.93,2.26l-0.62-0.25
						c0.02-0.02,0.05-0.04,0.08-0.06l1.96-1.29c0.71-0.47,0.57-1.57-0.22-1.78l-2.19-0.6c-0.01,0-0.01,0-0.02-0.01l0.64-0.49
						l4.35,1.14l0.8-0.6l-4.29-1.2l0.88-0.67l2.88,1.16l-3.65-4.88l0.24,3l-0.9,0.69l0.07-4.49l-0.8,0.6l-0.14,4.57l-0.7,0.54
						c-0.02-0.08-0.04-0.17-0.04-0.26l-0.04-2.37c-0.02-0.86-1.01-1.25-1.61-0.64l-1.66,1.69c-0.06,0.06-0.12,0.11-0.19,0.15
						l-0.12-0.88l3.12-3.3l-0.14-0.99l-3.13,3.2l-0.15-1.11l2.41-1.97l-6.03,0.85l2.75,1.23l0.15,1.12l-3.89-2.21l0.14,0.99l3.9,2.3
						l0.11,0.82c-0.01-0.01-0.03-0.01-0.04-0.02l-2-1.07c-0.73-0.39-1.58,0.32-1.39,1.14l0.53,2.29c0.01,0.04,0.02,0.08,0.02,0.12
						l-0.6-0.23l-1.35-4.33l-0.93-0.36l1.26,4.29l-1.04-0.41l-0.54-3.06l-2.21,5.67l2.42-1.79l1.05,0.41l-3.83,2.31l0.93,0.36
						l3.92-2.28l0,0l0.63,0.25c-0.05,0.05-0.1,0.09-0.16,0.13l-1.96,1.29c-0.71,0.47-0.57,1.57,0.22,1.78l2.19,0.6
						c0.01,0,0.03,0.01,0.04,0.01l-0.74,0.61l-4.29-1.09l-0.79,0.6l4.26,1.17l-0.84,0.69l-2.89-1.15l3.67,4.86l-0.26-3
						L642.82,139.27z M647.78,131.99c0.42-0.13,0.81-0.37,1.14-0.71l0.35-0.35l0.01,0.49c0.01,0.46,0.13,0.9,0.33,1.28l-1.57,1.2
						L647.78,131.99z M645.44,132.07l-0.11-0.48l0.42,0.22c0.08,0.05,0.17,0.09,0.26,0.12c0.29,0.11,0.59,0.17,0.89,0.18l0.26,1.88
						l-1.71-0.67C645.54,132.92,645.54,132.49,645.44,132.07z M648.61,134.59l1.54-1.18c0.23,0.21,0.49,0.37,0.78,0.49
						c0.09,0.04,0.18,0.07,0.28,0.09l0.46,0.12l-0.41,0.27c-0.36,0.24-0.66,0.55-0.88,0.91L648.61,134.59z M650.04,136.11
						c-0.11,0.44-0.12,0.91-0.01,1.37l0.11,0.48l-0.42-0.22c-0.09-0.05-0.18-0.09-0.26-0.12c-0.29-0.11-0.59-0.17-0.89-0.18
						l-0.28-2.01L650.04,136.11z M644.26,135.56l-0.46-0.13l0.41-0.27c0.39-0.26,0.71-0.61,0.93-1l1.71,0.67l-1.57,1.28
						c-0.22-0.19-0.47-0.35-0.75-0.46C644.44,135.62,644.35,135.58,644.26,135.56z M646.19,138.12c-0.01-0.48-0.14-0.93-0.36-1.33
						l1.54-1.26l0.03-0.02l0,0.02l0.28,2.02c-0.42,0.13-0.81,0.37-1.14,0.71l-0.35,0.35L646.19,138.12z"/>
				</g>
				<polygon class="st24" points="647.37,135.54 647.4,135.52 647.41,135.53 				"/>
			</g>
		</g>
	</g>
	<g style="clip-path:url(#SVGID_00000034806719116735867280000011547819593545977510_);">
		<g>
			<g>
				<g>
					<path class="st24" d="M688.08,133.4l3.54,9.17l1.12-1.85l-3.47-9.46l0.97-1.75c0.11,0.14,0.2,0.3,0.27,0.47l1.98,4.75
						c0.72,1.71,3.03,1.72,3.76,0.01l2-4.74c0.07-0.16,0.15-0.31,0.26-0.45l0.73,1.29l-3.68,9.12l1.06,1.88l3.78-8.94l1.19,2.11
						l-3.3,5.89l11.51-6.5l-6.52-0.31l-1.2-2.13l9.61,1.38l-1.06-1.88l-9.71-1.56l-0.67-1.18c0.04,0,0.07,0.01,0.11,0.01l4.9,0.57
						c1.78,0.2,2.94-1.9,1.88-3.42l-2.9-4.19c-0.1-0.14-0.18-0.29-0.24-0.45l1.59,0l6.14,7.68l2.16,0l-5.94-7.68l2.43,0l3.51,5.76
						l-0.02-13.22l-3.47,5.53l-2.45,0l5.92-7.7l-2.16,0l-6.13,7.7l-1.45,0c0.03-0.06,0.07-0.12,0.11-0.18l2.92-4.18
						c1.06-1.51-0.1-3.62-1.88-3.42l-4.9,0.55c-0.01,0-0.03,0-0.05,0l0.9-1.51l9.68-1.19l1.13-1.84l-9.62,1.02l1.23-2.06l6.75,0.04
						l-11.26-6.92l2.89,5.86l-1.27,2.12l-3.46-9.12l-1.13,1.84l3.37,9.33l-0.98,1.64c-0.12-0.15-0.21-0.31-0.29-0.49l-1.98-4.75
						c-0.72-1.71-3.04-1.72-3.76,0l-2,4.74c-0.07,0.17-0.16,0.32-0.26,0.45l-0.95-1.68l3.65-9.15l-1.07-1.88l-3.75,8.97l-1.2-2.12
						l3.28-5.9l-11.48,6.54l6.52,0.29l1.2,2.13l-9.61-1.34l1.07,1.88l9.7,1.52l0.89,1.57c-0.03,0-0.07,0-0.1-0.01l-4.9-0.57
						c-1.78-0.2-2.94,1.9-1.88,3.41l2.9,4.19c0.05,0.07,0.1,0.15,0.14,0.23l-1.4,0.01l-6.18-7.65l-2.16,0.01l5.97,7.65l-2.42,0.02
						l-3.53-5.75l0.08,13.22l3.45-5.55l2.45-0.02l-5.89,7.73l2.16-0.01l6.09-7.73h0l1.47-0.01c-0.06,0.14-0.13,0.27-0.22,0.39
						l-2.92,4.18c-1.06,1.51,0.1,3.62,1.88,3.42l4.9-0.55c0.03,0,0.06,0,0.08-0.01l-1.01,1.82l-9.53,1.23l-1.12,1.85l9.54-1.06
						l-1.15,2.06l-6.75,0l11.3,6.86l-2.92-5.84L688.08,133.4z M692.26,114.74c0.74-0.6,1.34-1.4,1.74-2.34l0.42-0.99l0.41,0.99
						c0.39,0.93,0.98,1.72,1.7,2.32l-2.2,3.68L692.26,114.74z M687.61,116.76l-0.61-0.87l1.02,0.12c0.21,0.03,0.42,0.04,0.63,0.04
						c0.67,0,1.32-0.12,1.94-0.35l2.03,3.59l-3.98,0.02C688.5,118.41,688.15,117.54,687.61,116.76z M696.03,119.32l2.16-3.62
						c0.62,0.24,1.29,0.36,1.97,0.36c0.21,0,0.42-0.01,0.63-0.03l1.02-0.11l-0.61,0.87c-0.54,0.77-0.89,1.64-1.04,2.53
						L696.03,119.32z M700.12,121.24c0.13,0.98,0.49,1.94,1.07,2.78l0.61,0.87l-1.02-0.12c-0.21-0.02-0.42-0.04-0.63-0.04
						c-0.67,0-1.33,0.12-1.94,0.35l-2.17-3.84L700.12,121.24z M688.02,124.76l-1.02,0.11l0.61-0.87c0.59-0.84,0.95-1.79,1.08-2.76
						l3.98-0.02l-2.14,3.84c-0.6-0.21-1.23-0.33-1.88-0.33C688.44,124.72,688.22,124.73,688.02,124.76z M693.98,128.38
						c-0.4-0.96-1.02-1.77-1.78-2.39l2.1-3.77l0.04-0.07l0.02,0.04l2.18,3.86c-0.74,0.61-1.34,1.4-1.73,2.34l-0.42,0.99
						L693.98,128.38z"/>
				</g>
				<polygon class="st24" points="694.3,122.22 694.34,122.15 694.36,122.19 				"/>
			</g>
		</g>
	</g>
	<g style="clip-path:url(#SVGID_00000034806719116735867280000011547819593545977510_);">
		<g>
			<g>
				<g>
					<path class="st25" d="M795.62,117.93l-2.24,6.91l1.5-0.54l2.42-7.04l1.37-0.55c0,0.13-0.03,0.27-0.06,0.4l-1.07,3.64
						c-0.39,1.32,0.94,2.4,2.15,1.75l3.35-1.79c0.11-0.06,0.23-0.11,0.36-0.14l-0.18,1.08l-6.36,3.52l-0.27,1.57l6.33-3.36
						l-0.3,1.77l-4.63,1.84l9.62,1.63l-3.59-3.22l0.3-1.78l4.86,5.27l0.27-1.57l-4.84-5.42l0.17-0.99c0.02,0.02,0.04,0.04,0.06,0.06
						l2.54,2.61c0.92,0.95,2.57,0.28,2.67-1.08l0.29-3.75c0.01-0.13,0.03-0.25,0.07-0.37l0.91,0.74l-0.06,7.26l1.24,1.01l0.18-7.17
						l1.39,1.13l-0.67,4.94l6.15-7.58l-4.57,1.55l-1.4-1.14l6.98-1.65l-1.24-1.01l-7.1,1.56l-0.83-0.67
						c0.05-0.02,0.1-0.04,0.15-0.05l3.62-1.04c1.31-0.37,1.63-2.12,0.52-2.84l-3.06-1.97c-0.01-0.01-0.02-0.01-0.03-0.02l1.22-0.45
						l6.1,3.83l1.51-0.53l-5.99-3.9l1.67-0.61l3.85,3.16l-3.23-9.21l-1.07,4.7l-1.72,0.63l2.26-6.84l-1.51,0.53l-2.42,6.92
						l-1.32,0.48c0-0.14,0.02-0.28,0.06-0.42l1.08-3.64c0.39-1.32-0.94-2.4-2.15-1.75l-3.35,1.79c-0.12,0.06-0.24,0.11-0.36,0.14
						l0.24-1.41l6.35-3.54l0.26-1.58l-6.33,3.39l0.3-1.77l4.62-1.85l-9.63-1.6l3.61,3.2l-0.3,1.78l-4.88-5.25l-0.26,1.58l4.85,5.39
						l-0.22,1.31c-0.02-0.02-0.04-0.03-0.05-0.05l-2.54-2.61c-0.92-0.94-2.57-0.28-2.67,1.08l-0.29,3.75
						c-0.01,0.07-0.01,0.13-0.03,0.2l-0.81-0.65l0.02-7.26l-1.25-1l-0.14,7.17l-1.4-1.12l0.65-4.94l-6.11,7.61l4.56-1.57l1.41,1.13
						l-6.97,1.69l1.25,1l7.09-1.59l0,0l0.84,0.68c-0.1,0.05-0.2,0.09-0.31,0.12l-3.62,1.04c-1.31,0.37-1.63,2.12-0.52,2.84
						l3.07,1.97c0.02,0.01,0.04,0.02,0.05,0.03l-1.43,0.57l-6.03-3.74l-1.5,0.54l5.96,3.83l-1.62,0.65l-3.87-3.14l3.28,9.19
						l1.05-4.71L795.62,117.93z M806.7,109.18c0.71,0,1.42-0.18,2.09-0.53l0.7-0.37l-0.22,0.76c-0.21,0.71-0.24,1.44-0.11,2.12
						l-2.97,1.09L806.7,109.18z M803.09,108.18l0.06-0.78l0.53,0.54c0.11,0.11,0.22,0.22,0.34,0.31c0.38,0.31,0.81,0.55,1.27,0.7
						l-0.51,3l-2.29-1.84C802.83,109.54,803.04,108.88,803.09,108.18z M806.72,113.56l2.93-1.07c0.25,0.42,0.57,0.81,0.96,1.12
						c0.12,0.1,0.25,0.19,0.38,0.27l0.64,0.41l-0.76,0.22c-0.67,0.19-1.27,0.52-1.78,0.97L806.72,113.56z M808.18,116.57
						c-0.38,0.62-0.62,1.34-0.68,2.09l-0.06,0.78l-0.53-0.54c-0.11-0.11-0.23-0.22-0.35-0.31c-0.38-0.31-0.82-0.55-1.27-0.71
						l0.55-3.21L808.18,116.57z M799.6,112.95l-0.64-0.41l0.75-0.22c0.73-0.21,1.38-0.58,1.91-1.08l2.29,1.84l-3.01,1.21
						c-0.24-0.4-0.55-0.76-0.92-1.06C799.86,113.12,799.73,113.03,799.6,112.95z M801.33,117.8c0.22-0.74,0.24-1.49,0.09-2.2
						l2.96-1.19l0.06-0.02l0,0.03l-0.55,3.23c-0.7,0-1.42,0.18-2.08,0.53l-0.7,0.37L801.33,117.8z"/>
				</g>
				<polygon class="st25" points="804.38,114.42 804.44,114.4 804.43,114.43 				"/>
			</g>
		</g>
	</g>
	<g style="clip-path:url(#SVGID_00000034806719116735867280000011547819593545977510_);">
		<g>
			<g>
				<g>
					<path class="st26" d="M924.99,107.19l-7.87,4.56l1.85,0.76l8.14-4.54l1.74,0.64c-0.11,0.12-0.25,0.23-0.39,0.32l-4.05,2.5
						c-1.46,0.9-1.13,3.02,0.54,3.43l4.62,1.14c0.16,0.04,0.31,0.09,0.45,0.17l-1.07,0.85l-8.86-2.04l-1.57,1.24l8.71,2.16
						l-1.76,1.39l-5.85-2.16l7.6,9.57l-0.66-6l1.77-1.41l0.13,8.98l1.57-1.24l0.02-9.09l0.98-0.78c0,0.03,0,0.07,0.01,0.1l0.19,4.56
						c0.07,1.65,2.16,2.41,3.39,1.23l3.4-3.26c0.12-0.11,0.24-0.2,0.37-0.28l0.23,1.45l-6.13,6.72l0.31,1.97l6.16-6.53l0.35,2.22
						l-4.76,4.04l12.07-1.92l-5.55-2.37l-0.36-2.24l7.89,4.29l-0.31-1.97l-7.92-4.48l-0.21-1.32c0.06,0.02,0.12,0.05,0.18,0.08
						l4.24,2.06c1.53,0.75,3.29-0.61,2.85-2.21l-1.21-4.39c0-0.01-0.01-0.03-0.01-0.04l1.51,0.6l2.48,8.67l1.85,0.77l-2.32-8.64
						l2.06,0.83l0.94,6.17l4.69-11.28l-4.93,3.48l-2.12-0.85l7.83-4.48l-1.85-0.77l-8.04,4.42l-1.64-0.66
						c0.12-0.13,0.25-0.24,0.41-0.34l4.05-2.5c1.46-0.91,1.13-3.02-0.54-3.44l-4.62-1.14c-0.16-0.04-0.31-0.1-0.45-0.17l1.4-1.11
						l8.88,2.01l1.56-1.25l-8.73-2.13l1.76-1.4l5.86,2.14l-7.64-9.54l0.68,6l-1.77,1.41l-0.16-8.97l-1.56,1.25l0.01,9.08l-1.3,1.04
						c0-0.03-0.01-0.06-0.01-0.09l-0.19-4.56c-0.07-1.65-2.16-2.41-3.39-1.23l-3.41,3.26c-0.06,0.06-0.12,0.11-0.19,0.16l-0.21-1.28
						l6.1-6.75l-0.32-1.97l-6.13,6.56l-0.36-2.21l4.74-4.06l-12.06,1.98l5.57,2.35l0.37,2.23l-7.91-4.26l0.32,1.97l7.94,4.44l0,0
						l0.22,1.34c-0.13-0.03-0.27-0.08-0.39-0.14l-4.24-2.06c-1.53-0.75-3.29,0.61-2.85,2.21l1.21,4.4c0.01,0.03,0.01,0.05,0.02,0.08
						l-1.81-0.66l-2.5-8.53l-1.85-0.76l2.35,8.56l-2.05-0.75l-0.97-6.16l-4.63,11.31l4.91-3.51L924.99,107.19z M942.64,108.31
						c0.66,0.59,1.47,1.02,2.39,1.25l0.96,0.24l-0.84,0.52c-0.79,0.49-1.43,1.14-1.88,1.89l-3.68-1.47L942.64,108.31z
						 M940.12,104.36l0.71-0.68l0.04,0.95c0.01,0.19,0.03,0.39,0.06,0.58c0.1,0.61,0.3,1.19,0.6,1.72l-2.99,2.38l-0.6-3.63
						C938.74,105.41,939.48,104.97,940.12,104.36z M938.99,112.41l3.62,1.45c-0.13,0.6-0.14,1.23-0.05,1.85
						c0.03,0.19,0.07,0.38,0.12,0.57l0.25,0.92l-0.89-0.43c-0.78-0.38-1.62-0.58-2.46-0.59L938.99,112.41z M937.83,116.43
						c-0.88,0.26-1.7,0.72-2.39,1.38l-0.71,0.68l-0.04-0.95c-0.01-0.19-0.03-0.39-0.06-0.58c-0.1-0.61-0.3-1.2-0.6-1.72l3.2-2.54
						L937.83,116.43z M932.87,105.88l-0.25-0.92l0.88,0.43c0.85,0.42,1.77,0.61,2.68,0.59l0.6,3.63l-3.82-1.4
						c0.11-0.58,0.12-1.17,0.03-1.76C932.97,106.26,932.92,106.07,932.87,105.88z M930.42,111.85c0.82-0.51,1.47-1.19,1.92-1.97
						l3.75,1.37l0.07,0.03l-0.03,0.02l-3.21,2.55c-0.66-0.59-1.47-1.02-2.39-1.24l-0.96-0.24L930.42,111.85z"/>
				</g>
				<polygon class="st26" points="936.1,111.25 936.17,111.28 936.14,111.3 				"/>
			</g>
		</g>
	</g>
	<g style="clip-path:url(#SVGID_00000034806719116735867280000011547819593545977510_);">
		<g>
			<g>
				<g>
					<path class="st27" d="M1008.54,35.45l-6.76-2.19l0.53,1.47l6.89,2.36l0.54,1.34c-0.13,0-0.26-0.02-0.39-0.06l-3.57-1.05
						c-1.29-0.38-2.35,0.92-1.72,2.11l1.75,3.28c0.06,0.11,0.11,0.23,0.13,0.35l-1.06-0.18l-3.45-6.22l-1.54-0.26l3.3,6.19
						l-1.73-0.29l-1.8-4.53l-1.59,9.42l3.14-3.52l1.75,0.29l-5.15,4.77l1.54,0.26l5.3-4.74l0.97,0.16
						c-0.02,0.02-0.04,0.04-0.06,0.06l-2.55,2.49c-0.92,0.91-0.27,2.52,1.06,2.61l3.67,0.28c0.12,0.01,0.24,0.03,0.36,0.07
						l-0.72,0.89l-7.11-0.05l-0.98,1.22l7.02,0.16l-1.1,1.36l-4.83-0.65l7.43,6.01l-1.52-4.47l1.11-1.38l1.63,6.83l0.98-1.22
						l-1.53-6.94l0.66-0.81c0.02,0.05,0.04,0.09,0.05,0.14l1.02,3.54c0.37,1.28,2.08,1.59,2.78,0.5l1.92-3
						c0.01-0.01,0.01-0.02,0.02-0.03l0.44,1.19l-3.74,5.98l0.52,1.48l3.81-5.86l0.6,1.63l-3.09,3.77l9.01-3.17l-4.6-1.05l-0.61-1.68
						l6.69,2.21l-0.52-1.47l-6.77-2.36l-0.47-1.29c0.13,0,0.27,0.02,0.41,0.06l3.57,1.05c1.29,0.38,2.35-0.92,1.72-2.11l-1.75-3.28
						c-0.06-0.11-0.11-0.23-0.14-0.35l1.38,0.23l3.47,6.22l1.54,0.25l-3.33-6.19l1.73,0.29l1.82,4.52l1.55-9.43l-3.13,3.53
						l-1.74-0.29l5.13-4.78l-1.54-0.25l-5.27,4.75l-1.28-0.22c0.02-0.02,0.03-0.04,0.05-0.05l2.55-2.49
						c0.92-0.9,0.27-2.52-1.06-2.61l-3.67-0.28c-0.06-0.01-0.13-0.01-0.19-0.03l0.63-0.79l7.11,0.02l0.98-1.22l-7.02-0.13l1.1-1.37
						l4.84,0.63l-7.45-5.97l1.54,4.46l-1.11,1.38l-1.66-6.82l-0.98,1.22l1.57,6.93l0,0l-0.66,0.83c-0.05-0.09-0.09-0.2-0.12-0.3
						l-1.02-3.54c-0.36-1.28-2.08-1.59-2.78-0.5l-1.92,3c-0.01,0.02-0.02,0.03-0.03,0.05l-0.56-1.4l3.65-5.91l-0.53-1.47l-3.75,5.84
						l-0.64-1.58l3.07-3.79l-9,3.22l4.61,1.02L1008.54,35.45z M1017.11,46.29c0,0.69,0.18,1.39,0.52,2.04l0.36,0.68l-0.74-0.22
						c-0.7-0.21-1.41-0.23-2.08-0.1l-1.07-2.91L1017.11,46.29z M1018.09,42.75l0.77,0.06l-0.53,0.52c-0.11,0.1-0.21,0.22-0.31,0.34
						c-0.31,0.38-0.54,0.8-0.69,1.24l-2.94-0.49l1.8-2.25C1016.76,42.5,1017.41,42.7,1018.09,42.75z M1012.83,46.31l1.05,2.86
						c-0.42,0.24-0.79,0.56-1.1,0.94c-0.1,0.12-0.19,0.24-0.27,0.37l-0.4,0.63l-0.21-0.74c-0.19-0.65-0.51-1.24-0.95-1.74
						L1012.83,46.31z M1009.89,47.74c-0.61-0.37-1.31-0.61-2.05-0.66l-0.77-0.06l0.53-0.52c0.11-0.11,0.21-0.22,0.31-0.34
						c0.31-0.38,0.54-0.8,0.69-1.25l3.14,0.53L1009.89,47.74z M1013.42,39.34l0.4-0.63l0.21,0.74c0.2,0.71,0.57,1.35,1.06,1.86
						l-1.8,2.25l-1.18-2.95c0.39-0.24,0.74-0.54,1.04-0.91C1013.25,39.6,1013.34,39.47,1013.42,39.34z M1008.67,41.04
						c0.72,0.21,1.46,0.23,2.15,0.09l1.16,2.9l0.02,0.06l-0.03,0l-3.16-0.53c0-0.69-0.18-1.39-0.52-2.04l-0.36-0.68L1008.67,41.04z"
						/>
				</g>
				<polygon class="st27" points="1011.99,44.02 1012.01,44.08 1011.98,44.07 				"/>
			</g>
		</g>
	</g>
	<g style="clip-path:url(#SVGID_00000034806719116735867280000011547819593545977510_);">
		<g>
			<g>
				<g>
					<path class="st27" d="M1051.98,82.35l-7.87,4.56l1.85,0.76l8.14-4.54l1.74,0.64c-0.11,0.12-0.25,0.23-0.39,0.32l-4.05,2.5
						c-1.46,0.9-1.13,3.02,0.54,3.43l4.62,1.14c0.16,0.04,0.31,0.09,0.45,0.17l-1.07,0.85l-8.86-2.04l-1.57,1.24l8.71,2.16
						l-1.76,1.39l-5.85-2.16l7.6,9.57l-0.66-6l1.77-1.41l0.13,8.98l1.57-1.24l0.02-9.09l0.98-0.78c0,0.03,0,0.07,0.01,0.1l0.19,4.56
						c0.07,1.65,2.16,2.41,3.39,1.23l3.4-3.26c0.12-0.11,0.24-0.2,0.37-0.28l0.23,1.45l-6.13,6.72l0.31,1.97l6.16-6.53l0.35,2.22
						l-4.76,4.04l12.07-1.92l-5.55-2.37l-0.36-2.24l7.89,4.29l-0.31-1.97l-7.92-4.48l-0.21-1.32c0.06,0.02,0.12,0.05,0.18,0.08
						l4.24,2.06c1.53,0.75,3.29-0.61,2.85-2.21l-1.21-4.39c0-0.01-0.01-0.03-0.01-0.04l1.51,0.6l2.48,8.67l1.85,0.77l-2.32-8.64
						l2.06,0.83l0.94,6.17l4.69-11.28l-4.93,3.48l-2.12-0.85l7.83-4.48l-1.85-0.77l-8.04,4.42l-1.64-0.66
						c0.12-0.13,0.25-0.24,0.41-0.34l4.05-2.5c1.46-0.91,1.13-3.02-0.54-3.44l-4.62-1.14c-0.16-0.04-0.31-0.1-0.45-0.17l1.4-1.11
						l8.88,2.01l1.56-1.25l-8.73-2.13l1.76-1.4l5.86,2.14l-7.64-9.54l0.68,6l-1.77,1.41l-0.16-8.97l-1.56,1.25l0.01,9.08l-1.3,1.04
						c0-0.03-0.01-0.06-0.01-0.09l-0.19-4.56c-0.07-1.65-2.16-2.41-3.39-1.23l-3.41,3.26c-0.06,0.06-0.12,0.11-0.19,0.16l-0.21-1.28
						l6.1-6.75l-0.32-1.97l-6.13,6.56l-0.36-2.21l4.74-4.06l-12.06,1.98l5.57,2.35l0.37,2.23l-7.91-4.26l0.32,1.97l7.94,4.44l0,0
						l0.22,1.34c-0.13-0.03-0.27-0.08-0.39-0.14l-4.24-2.06c-1.53-0.75-3.29,0.61-2.85,2.21l1.21,4.4c0.01,0.03,0.01,0.05,0.02,0.08
						l-1.81-0.66l-2.5-8.53l-1.85-0.76l2.35,8.56l-2.05-0.75l-0.97-6.16l-4.63,11.31l4.91-3.51L1051.98,82.35z M1069.63,83.47
						c0.66,0.59,1.47,1.02,2.39,1.25l0.96,0.24l-0.84,0.52c-0.79,0.49-1.43,1.14-1.88,1.89l-3.68-1.47L1069.63,83.47z
						 M1067.11,79.52l0.71-0.68l0.04,0.95c0.01,0.19,0.03,0.39,0.06,0.58c0.1,0.61,0.3,1.19,0.6,1.72l-2.99,2.38l-0.6-3.63
						C1065.73,80.57,1066.48,80.13,1067.11,79.52z M1065.99,87.57l3.62,1.45c-0.13,0.6-0.14,1.23-0.05,1.85
						c0.03,0.19,0.07,0.38,0.12,0.57l0.25,0.92l-0.89-0.43c-0.78-0.38-1.62-0.58-2.46-0.59L1065.99,87.57z M1064.83,91.59
						c-0.88,0.26-1.7,0.72-2.39,1.38l-0.71,0.68l-0.04-0.95c-0.01-0.19-0.03-0.39-0.06-0.58c-0.1-0.61-0.3-1.2-0.6-1.72l3.2-2.54
						L1064.83,91.59z M1059.86,81.04l-0.25-0.92l0.88,0.43c0.85,0.42,1.77,0.61,2.68,0.59l0.6,3.63l-3.82-1.4
						c0.11-0.58,0.12-1.17,0.03-1.76C1059.96,81.42,1059.92,81.23,1059.86,81.04z M1057.41,87.01c0.82-0.51,1.47-1.19,1.92-1.97
						l3.75,1.37l0.07,0.03l-0.03,0.02l-3.21,2.55c-0.66-0.59-1.47-1.02-2.39-1.24l-0.96-0.24L1057.41,87.01z"/>
				</g>
				<polygon class="st27" points="1063.09,86.41 1063.16,86.44 1063.13,86.46 				"/>
			</g>
		</g>
	</g>
	<g style="clip-path:url(#SVGID_00000034806719116735867280000011547819593545977510_);">
		<g>
			<g>
				<g>
					<path class="st26" d="M905.66,62.47l-6.21-1.15l0.63,1.24l6.35,1.29l0.63,1.12c-0.11,0.01-0.23,0.01-0.35-0.01l-3.26-0.51
						c-1.18-0.19-1.96,1.08-1.27,2.05l1.92,2.69c0.06,0.09,0.12,0.19,0.16,0.29l-0.95-0.04l-3.75-5.09l-1.39-0.05l3.62,5.08
						l-1.56-0.06l-2.11-3.79l-0.32,8.49l2.37-3.46l1.57,0.06l-3.99,4.79l1.39,0.05l4.13-4.79l0.87,0.03
						c-0.01,0.02-0.03,0.04-0.04,0.06l-1.96,2.49c-0.71,0.9,0.05,2.25,1.23,2.18l3.27-0.18c0.11-0.01,0.22,0,0.33,0.02l-0.53,0.87
						l-6.27,0.77l-0.73,1.18l6.2-0.66l-0.82,1.33l-4.34-0.02l7.24,4.45l-1.85-3.76l0.82-1.34l2.22,5.83l0.73-1.18l-2.15-5.95
						l0.49-0.79c0.02,0.04,0.04,0.08,0.06,0.12l1.3,3c0.47,1.09,2.01,1.17,2.5,0.13l1.35-2.87c0-0.01,0.01-0.02,0.01-0.03l0.52,1
						l-2.61,5.7l0.63,1.24l2.68-5.6l0.71,1.37l-2.3,3.68l7.58-3.83l-4.18-0.4l-0.73-1.41l6.15,1.18l-0.63-1.24l-6.24-1.3l-0.57-1.09
						c0.12-0.01,0.24-0.01,0.37,0.01l3.27,0.52c1.18,0.18,1.96-1.08,1.27-2.06l-1.92-2.69c-0.07-0.09-0.12-0.19-0.16-0.3l1.24,0.05
						l3.77,5.08l1.39,0.05l-3.64-5.07l1.56,0.06l2.12,3.78l0.29-8.49l-2.36,3.47l-1.57-0.06l3.97-4.8l-1.39-0.05l-4.1,4.79
						l-1.16-0.04c0.01-0.02,0.02-0.04,0.04-0.05l1.96-2.49c0.71-0.9-0.05-2.25-1.23-2.18l-3.27,0.18c-0.06,0-0.12,0-0.17,0
						l0.47-0.77l6.27-0.8l0.72-1.19l-6.2,0.69l0.81-1.33l4.33,0l-7.26-4.41l1.87,3.76l-0.82,1.34l-2.24-5.82l-0.72,1.19l2.17,5.93
						l0,0l-0.49,0.8c-0.06-0.08-0.1-0.16-0.14-0.25l-1.3-3c-0.47-1.09-2.01-1.17-2.5-0.13l-1.35,2.87
						c-0.01,0.02-0.02,0.03-0.02,0.05l-0.66-1.17l2.54-5.63l-0.63-1.24l-2.63,5.57l-0.74-1.32l2.28-3.69l-7.56,3.87l4.18,0.37
						L905.66,62.47z M914.45,71.05c0.08,0.61,0.32,1.21,0.69,1.74l0.4,0.56l-0.68-0.11c-0.64-0.1-1.27-0.04-1.84,0.15l-1.27-2.44
						L914.45,71.05z M914.91,67.82l0.68-0.04l-0.41,0.52c-0.08,0.1-0.16,0.22-0.23,0.33c-0.23,0.37-0.38,0.76-0.46,1.18l-2.65-0.1
						l1.33-2.18C913.71,67.75,914.31,67.86,914.91,67.82z M910.68,71.56l1.25,2.4c-0.34,0.26-0.63,0.58-0.86,0.95
						c-0.07,0.11-0.14,0.23-0.19,0.36l-0.28,0.6l-0.27-0.63c-0.24-0.55-0.6-1.04-1.03-1.42L910.68,71.56z M908.25,73.16
						c-0.58-0.26-1.22-0.39-1.88-0.35l-0.68,0.04l0.41-0.52c0.08-0.11,0.16-0.22,0.23-0.33c0.23-0.37,0.38-0.77,0.47-1.18l2.83,0.11
						L908.25,73.16z M910.4,65.35l0.28-0.6l0.27,0.63c0.26,0.6,0.66,1.12,1.15,1.52l-1.33,2.19l-1.38-2.46
						c0.32-0.25,0.59-0.56,0.81-0.92C910.28,65.59,910.35,65.47,910.4,65.35z M906.41,67.39c0.66,0.1,1.31,0.04,1.91-0.17l1.36,2.42
						l0.03,0.05l-0.03,0l-2.85-0.11c-0.08-0.61-0.32-1.2-0.7-1.74l-0.4-0.56L906.41,67.39z"/>
				</g>
				<polygon class="st26" points="909.68,69.64 909.7,69.69 909.67,69.69 				"/>
			</g>
		</g>
	</g>
	<g style="clip-path:url(#SVGID_00000034806719116735867280000011547819593545977510_);">
		<g>
			<g>
				<g>
					<path class="st25" d="M763.37,141.03l-1.58,4.85l1.06-0.38l1.7-4.95l0.97-0.39c0,0.09-0.02,0.19-0.04,0.28l-0.75,2.56
						c-0.27,0.93,0.66,1.69,1.51,1.23l2.36-1.26c0.08-0.04,0.16-0.08,0.25-0.1l-0.13,0.76l-4.47,2.47l-0.19,1.11l4.45-2.36
						l-0.21,1.24l-3.26,1.29l6.76,1.15l-2.53-2.26l0.21-1.25l3.42,3.7l0.19-1.11l-3.4-3.81l0.12-0.69c0.01,0.01,0.03,0.03,0.04,0.04
						l1.79,1.83c0.65,0.66,1.81,0.2,1.88-0.76l0.2-2.64c0.01-0.09,0.02-0.18,0.05-0.26l0.64,0.52l-0.04,5.11l0.87,0.71l0.12-5.04
						l0.98,0.79l-0.47,3.47l4.32-5.33l-3.21,1.09l-0.99-0.8l4.9-1.16l-0.87-0.71l-4.99,1.1l-0.58-0.47c0.03-0.01,0.07-0.03,0.1-0.04
						l2.54-0.73c0.92-0.26,1.15-1.49,0.36-1.99l-2.15-1.38c-0.01,0-0.01-0.01-0.02-0.01l0.86-0.31l4.29,2.69l1.06-0.37l-4.21-2.74
						l1.17-0.43l2.71,2.22l-2.27-6.47l-0.76,3.3l-1.21,0.44l1.59-4.8l-1.06,0.37l-1.7,4.86l-0.93,0.34c0-0.1,0.02-0.2,0.04-0.29
						l0.76-2.56c0.27-0.93-0.66-1.69-1.51-1.23l-2.36,1.26c-0.08,0.04-0.17,0.08-0.25,0.1l0.17-0.99l4.47-2.49l0.18-1.11l-4.45,2.38
						l0.21-1.24l3.25-1.3l-6.77-1.12l2.53,2.25l-0.21,1.25l-3.43-3.69l-0.18,1.11l3.41,3.79l-0.16,0.92
						c-0.01-0.01-0.03-0.02-0.04-0.04l-1.79-1.83c-0.65-0.66-1.81-0.2-1.88,0.76l-0.2,2.64c0,0.05-0.01,0.09-0.02,0.14l-0.57-0.46
						l0.02-5.11l-0.88-0.7l-0.1,5.04l-0.98-0.79l0.46-3.47l-4.3,5.35l3.21-1.11l0.99,0.8l-4.9,1.19l0.88,0.7l4.98-1.12l0,0
						l0.59,0.48c-0.07,0.04-0.14,0.07-0.22,0.09l-2.54,0.73c-0.92,0.26-1.15,1.49-0.36,1.99l2.16,1.38
						c0.01,0.01,0.02,0.02,0.04,0.02l-1.01,0.4l-4.24-2.63l-1.06,0.38l4.19,2.69l-1.14,0.45l-2.72-2.21l2.3,6.46l0.74-3.31
						L763.37,141.03z M771.16,134.88c0.5,0,1-0.13,1.47-0.37l0.49-0.26l-0.16,0.53c-0.15,0.5-0.17,1.01-0.08,1.49l-2.09,0.76
						L771.16,134.88z M768.63,134.18l0.04-0.55l0.37,0.38c0.07,0.08,0.16,0.15,0.24,0.22c0.27,0.22,0.57,0.39,0.89,0.49l-0.36,2.11
						l-1.61-1.29C768.44,135.13,768.59,134.67,768.63,134.18z M771.18,137.96l2.06-0.75c0.17,0.3,0.4,0.57,0.67,0.79
						c0.08,0.07,0.17,0.13,0.27,0.19l0.45,0.29l-0.53,0.15c-0.47,0.13-0.89,0.37-1.25,0.68L771.18,137.96z M772.2,140.07
						c-0.27,0.44-0.44,0.94-0.48,1.47l-0.04,0.55l-0.37-0.38c-0.08-0.08-0.16-0.15-0.24-0.22c-0.27-0.22-0.57-0.39-0.9-0.5
						l0.38-2.26L772.2,140.07z M766.17,137.53l-0.45-0.29l0.53-0.15c0.51-0.14,0.97-0.41,1.34-0.76l1.61,1.29l-2.12,0.85
						c-0.17-0.28-0.39-0.53-0.65-0.75C766.35,137.65,766.26,137.59,766.17,137.53z M767.38,140.94c0.15-0.52,0.17-1.05,0.07-1.54
						l2.08-0.83l0.04-0.02l0,0.02l-0.39,2.27c-0.5,0-1,0.13-1.46,0.37l-0.49,0.26L767.38,140.94z"/>
				</g>
				<polygon class="st25" points="769.53,138.56 769.57,138.55 769.57,138.57 				"/>
			</g>
		</g>
	</g>
	<g style="clip-path:url(#SVGID_00000034806719116735867280000011547819593545977510_);">
		<g>
			<g>
				<g>
					<path class="st22" d="M314.64,154.78l3.08,2.83l0.08-0.92l-3.11-2.95l0.04-0.85c0.07,0.03,0.13,0.08,0.19,0.13l1.65,1.43
						c0.6,0.52,1.48,0.08,1.43-0.71l-0.13-2.18c0-0.07,0-0.15,0.01-0.22l0.52,0.35l0.32,4.17l0.76,0.52l-0.25-4.12l0.85,0.58
						l-0.14,2.87l3.15-4.65l-2.54,1.11l-0.86-0.58l3.92-1.29l-0.76-0.52l-3.99,1.24l-0.48-0.32c0.01-0.01,0.03-0.01,0.04-0.02
						l1.97-0.71c0.72-0.26,0.76-1.28,0.07-1.66l-1.9-1.05c-0.06-0.04-0.12-0.08-0.18-0.12l0.6-0.3l3.79,1.77l0.82-0.41l-3.71-1.8
						l0.92-0.46l2.43,1.53l-2.5-5.03l-0.28,2.76l-0.93,0.46l0.8-4.05l-0.82,0.41l-0.88,4.09l-0.55,0.27c0-0.03,0-0.06,0.01-0.09
						l0.32-2.14c0.12-0.78-0.72-1.36-1.36-0.95l-1.76,1.14c-0.01,0-0.01,0.01-0.02,0.01l0.06-0.74l3.46-2.28l0.08-0.92l-3.47,2.21
						l0.08-1.02l2.58-1.26l-5.6-0.51l2.21,1.69l-0.08,1.05l-3.04-2.82l-0.08,0.92l3.05,2.92l-0.06,0.81
						c-0.07-0.03-0.14-0.08-0.2-0.13l-1.65-1.43c-0.6-0.52-1.48-0.08-1.43,0.71l0.13,2.18c0,0.08,0,0.15-0.01,0.22l-0.68-0.46
						l-0.34-4.18l-0.76-0.51l0.27,4.12l-0.86-0.58l0.13-2.87l-3.14,4.66l2.54-1.12l0.86,0.58l-3.92,1.3l0.76,0.51l3.98-1.25
						l0.63,0.43c-0.01,0.01-0.03,0.01-0.04,0.02l-1.97,0.71c-0.72,0.26-0.76,1.28-0.07,1.66l1.9,1.05c0.03,0.02,0.07,0.04,0.1,0.06
						l-0.53,0.27l-3.8-1.75l-0.82,0.41l3.72,1.79l-0.92,0.46l-2.43-1.52l2.53,5.02l0.27-2.77l0.93-0.47l-0.78,4.06l0.82-0.41
						l0.86-4.09l0,0l0.56-0.28c0,0.06,0,0.13-0.01,0.19l-0.32,2.14c-0.12,0.77,0.72,1.36,1.36,0.95l1.76-1.14
						c0.01-0.01,0.02-0.01,0.03-0.02l-0.04,0.89l-3.4,2.27l-0.08,0.92l3.43-2.21l-0.05,1l-2.57,1.27l5.6,0.48l-2.22-1.67
						L314.64,154.78z M312.7,146.88c0.17-0.37,0.25-0.79,0.22-1.22l-0.03-0.46l0.35,0.3c0.32,0.28,0.7,0.47,1.09,0.56l-0.14,1.82
						L312.7,146.88z M311.31,148.53l-0.4-0.22l0.41-0.15c0.08-0.03,0.17-0.07,0.25-0.1c0.26-0.13,0.48-0.3,0.67-0.5l1.45,0.98
						l-1.51,0.76C311.96,148.99,311.67,148.73,311.31,148.53z M315,147.92l0.14-1.79c0.28-0.03,0.56-0.11,0.82-0.23
						c0.08-0.04,0.16-0.08,0.23-0.13l0.37-0.24l-0.07,0.45c-0.06,0.4-0.03,0.79,0.08,1.16L315,147.92z M316.92,147.87
						c0.23,0.35,0.55,0.65,0.93,0.86l0.4,0.22l-0.41,0.15c-0.08,0.03-0.17,0.07-0.25,0.11c-0.26,0.13-0.48,0.3-0.67,0.5l-1.55-1.05
						L316.92,147.87z M312.98,151.5l-0.37,0.24l0.07-0.45c0.07-0.43,0.02-0.86-0.11-1.26l1.51-0.76l-0.09,1.87
						c-0.27,0.03-0.53,0.11-0.78,0.23C313.13,151.41,313.05,151.45,312.98,151.5z M315.93,151.76c-0.33-0.29-0.72-0.48-1.13-0.57
						l0.09-1.83l0-0.04l0.02,0.01l1.56,1.06c-0.17,0.37-0.24,0.79-0.22,1.22l0.03,0.45L315.93,151.76z"/>
				</g>
				<polygon class="st22" points="314.89,149.35 314.89,149.31 314.91,149.32 				"/>
			</g>
		</g>
	</g>
	<g style="clip-path:url(#SVGID_00000034806719116735867280000011547819593545977510_);">
		<g>
			<g>
				<g>
					<path class="st21" d="M154.91,106.71l4.94,8.52l0.82-2.01l-4.92-8.82l0.69-1.89c0.13,0.12,0.24,0.27,0.34,0.42l2.71,4.39
						c0.98,1.58,3.27,1.23,3.72-0.58l1.24-5.01c0.04-0.17,0.1-0.33,0.18-0.48l0.92,1.16l-2.21,9.61l1.35,1.7l2.34-9.44l1.51,1.9
						l-2.34,6.34l10.37-8.24l-6.5,0.71l-1.53-1.92l9.73-0.14l-1.35-1.7l-9.85-0.02l-0.84-1.06c0.04,0,0.07,0,0.11-0.01l4.94-0.21
						c1.79-0.08,2.61-2.35,1.33-3.68l-3.53-3.69c-0.12-0.12-0.22-0.26-0.31-0.4l1.57-0.25l7.28,6.64l2.14-0.34l-7.08-6.67l2.4-0.38
						l4.38,5.15l-2.09-13.08l-2.57,6.02l-2.42,0.39l4.65-8.55l-2.14,0.34l-4.86,8.58l-1.43,0.23c0.02-0.07,0.05-0.13,0.08-0.19
						l2.23-4.59c0.81-1.66-0.66-3.57-2.39-3.09l-4.76,1.31c-0.01,0-0.03,0.01-0.04,0.01l0.65-1.63l9.4-2.69l0.83-2l-9.36,2.51
						l0.89-2.23l6.68-1.02l-12.23-5.09l3.77,5.35l-0.92,2.3l-4.85-8.48l-0.83,2l4.79,8.71l-0.71,1.77
						c-0.14-0.13-0.26-0.28-0.36-0.44l-2.7-4.39c-0.98-1.58-3.27-1.22-3.72,0.58l-1.24,5.01c-0.04,0.18-0.1,0.34-0.19,0.49
						l-1.2-1.52l2.18-9.63l-1.36-1.69l-2.31,9.46l-1.52-1.91l2.32-6.35l-10.34,8.27l6.5-0.74l1.53,1.92l-9.72,0.18l1.36,1.69
						l9.84-0.02l1.13,1.41c-0.03,0.01-0.07,0.01-0.1,0.01l-4.94,0.21c-1.79,0.08-2.61,2.34-1.33,3.67l3.53,3.69
						c0.06,0.07,0.12,0.13,0.17,0.21l-1.39,0.23l-7.31-6.61l-2.14,0.35l7.11,6.64l-2.4,0.39l-4.4-5.13l2.15,13.07l2.54-6.03
						l2.42-0.4l-4.61,8.57l2.14-0.35l4.81-8.6l0,0l1.45-0.24c-0.04,0.14-0.09,0.29-0.15,0.42l-2.23,4.59
						c-0.81,1.66,0.66,3.57,2.39,3.09l4.76-1.31c0.03-0.01,0.06-0.01,0.08-0.02l-0.72,1.96l-9.24,2.71l-0.82,2l9.27-2.54l-0.81,2.22
						l-6.68,1.06l12.26,5.02l-3.8-5.33L154.91,106.71z M156.13,87.59c0.64-0.71,1.11-1.6,1.35-2.59l0.26-1.04l0.57,0.91
						c0.53,0.86,1.24,1.55,2.05,2.03l-1.6,3.99L156.13,87.59z M151.84,90.32l-0.74-0.77l1.03-0.05c0.21-0.01,0.42-0.03,0.63-0.06
						c0.66-0.1,1.29-0.33,1.86-0.65l2.57,3.23l-3.93,0.65C152.98,91.81,152.5,91.01,151.84,90.32z M160.57,91.54l1.57-3.93
						c0.65,0.14,1.33,0.16,2.01,0.05c0.21-0.03,0.42-0.08,0.62-0.13l1-0.27l-0.47,0.96c-0.41,0.85-0.62,1.76-0.64,2.67L160.57,91.54
						z M164.92,92.79c0.28,0.95,0.78,1.84,1.5,2.58l0.74,0.77l-1.03,0.04c-0.21,0.01-0.42,0.03-0.63,0.06
						c-0.67,0.1-1.3,0.33-1.87,0.65l-2.75-3.46L164.92,92.79z M153.49,98.17l-1,0.27l0.47-0.96c0.45-0.92,0.66-1.92,0.63-2.91
						l3.94-0.65l-1.51,4.14c-0.62-0.12-1.27-0.13-1.91-0.03C153.91,98.07,153.69,98.11,153.49,98.17z M159.96,100.83
						c-0.55-0.89-1.29-1.6-2.13-2.09l1.49-4.06l0.03-0.08l0.03,0.03l2.76,3.48c-0.63,0.72-1.1,1.6-1.35,2.59l-0.26,1.04
						L159.96,100.83z"/>
				</g>
				<polygon class="st21" points="159.31,94.68 159.34,94.6 159.37,94.63 				"/>
			</g>
		</g>
	</g>
	<g style="clip-path:url(#SVGID_00000034806719116735867280000011547819593545977510_);">
		<g>
			<g>
				<g>
					<path class="st20" d="M46.46,81.82l4.69-8.02l-2.03,0.26l-4.94,8.14l-1.87,0.31c0.04-0.16,0.1-0.32,0.19-0.48l2.34-4.26
						c0.84-1.54-0.52-3.26-2.21-2.78l-4.68,1.32c-0.16,0.04-0.32,0.07-0.48,0.07l0.52-1.3l8.91-2.66l0.76-1.9l-8.83,2.48l0.86-2.12
						l6.29-1.03l-11.58-4.67l3.61,5l-0.87,2.15l-4.64-7.91l-0.76,1.9l4.57,8.09l-0.48,1.19c-0.02-0.03-0.04-0.06-0.06-0.09
						l-2.47-3.95c-0.9-1.43-3.14-1.05-3.64,0.62l-1.38,4.61c-0.05,0.16-0.11,0.3-0.19,0.44l-0.94-1.17l2.05-9.07l-1.28-1.6
						l-2.18,8.91l-1.43-1.79l2.19-5.99l-9.76,7.8l6.13-0.69l1.45,1.81l-9.18,0.16l1.28,1.6l9.3-0.01l0.86,1.07
						c-0.07,0.01-0.13,0.02-0.2,0.02l-4.81,0.31c-1.74,0.11-2.62,2.21-1.42,3.4l3.29,3.29c0.01,0.01,0.02,0.02,0.03,0.03l-1.64,0.22
						l-6.58-6.45l-2.03,0.25l6.42,6.5l-2.25,0.31l-3.95-5.01l1.52,12.4l2.63-5.58l2.32-0.31l-4.7,7.93l2.03-0.25l4.91-7.99
						l1.79-0.24c-0.04,0.17-0.11,0.34-0.19,0.5l-2.34,4.26c-0.84,1.54,0.52,3.26,2.21,2.78l4.68-1.32c0.16-0.05,0.33-0.07,0.49-0.07
						l-0.68,1.69l-8.91,2.7l-0.76,1.9l8.83-2.51l-0.86,2.13l-6.29,1.05l11.6,4.63l-3.63-4.99l0.86-2.14l4.67,7.89l0.76-1.9
						l-4.6-8.06l0.63-1.58c0.02,0.02,0.04,0.05,0.05,0.08l2.47,3.95c0.9,1.43,3.14,1.05,3.63-0.62l1.38-4.61
						c0.03-0.08,0.05-0.16,0.09-0.24l0.83,1.03l-2.01,9.08l1.28,1.59l2.14-8.92l1.44,1.78l-2.16,6l9.72-7.85l-6.13,0.72l-1.45-1.8
						l9.18-0.21l-1.28-1.59l-9.3,0.06l0,0l-0.87-1.08c0.14-0.04,0.28-0.06,0.42-0.07l4.81-0.31c1.74-0.11,2.62-2.21,1.42-3.4
						l-3.3-3.3c-0.02-0.02-0.04-0.04-0.05-0.06l1.94-0.32l6.52,6.32l2.03-0.26l-6.41-6.42l2.2-0.37L53,88.22l-1.59-12.39l-2.6,5.6
						L46.46,81.82z M30.21,89.73c-0.88-0.19-1.83-0.16-2.75,0.1l-0.98,0.27l0.49-0.89c0.46-0.83,0.69-1.74,0.71-2.63l4.01-0.55
						L30.21,89.73z M34.44,91.97l-0.29,0.96l-0.52-0.83c-0.1-0.17-0.22-0.33-0.34-0.49c-0.39-0.5-0.87-0.91-1.4-1.23l1.45-3.62
						l2.36,2.93C35.14,90.34,34.7,91.11,34.44,91.97z M31.38,84.25l-3.95,0.54c-0.19-0.6-0.49-1.16-0.89-1.67
						c-0.12-0.16-0.26-0.31-0.4-0.45l-0.69-0.69l1-0.06c0.89-0.05,1.73-0.31,2.48-0.72L31.38,84.25z M30.38,80.09
						c0.65-0.67,1.14-1.5,1.42-2.43l0.29-0.96l0.52,0.82c0.11,0.17,0.22,0.33,0.35,0.49c0.4,0.5,0.87,0.91,1.4,1.23l-1.56,3.87
						L30.38,80.09z M40.11,86.96l0.69,0.69l-1,0.06c-0.96,0.06-1.88,0.35-2.68,0.83l-2.36-2.93l4.1-0.68
						c0.19,0.57,0.48,1.1,0.86,1.58C39.84,86.67,39.97,86.82,40.11,86.96z M39.28,80.42c-0.47,0.86-0.71,1.8-0.72,2.72l-4.02,0.67
						l-0.08,0.01l0.01-0.04l1.57-3.89c0.88,0.19,1.82,0.16,2.75-0.1l0.97-0.27L39.28,80.42z"/>
				</g>
				<polygon class="st20" points="34.54,83.82 34.46,83.83 34.48,83.79 				"/>
			</g>
		</g>
	</g>
	<g style="clip-path:url(#SVGID_00000034806719116735867280000011547819593545977510_);">
		<g>
			<g>
				<g>
					<path class="st20" d="M81.46,45.05l11.58-1.99l-1.9-1.75l-11.91,1.84l-1.82-1.55c0.19-0.09,0.4-0.16,0.62-0.21l6.03-1.21
						c2.18-0.44,2.73-3.15,0.89-4.4l-5.09-3.46c-0.17-0.12-0.33-0.25-0.46-0.41l1.68-0.55l9.83,6.46l2.46-0.8l-9.59-6.53l2.75-0.9
						l6.12,5.25l-4.91-15.01l-1.9,7.57l-2.78,0.91l3.88-10.94l-2.46,0.8l-4.11,11.01l-1.54,0.5c0.01-0.04,0.03-0.09,0.04-0.13
						l1.82-5.61c0.66-2.04-1.54-3.89-3.56-3.01l-5.59,2.42c-0.19,0.08-0.38,0.14-0.58,0.18l0.37-1.86l10.45-5.39l0.51-2.54
						l-10.4,5.15l0.57-2.85l7.58-2.75L64.54,10.2l5.66,5.37l-0.57,2.87L62,9.69l-0.51,2.54l7.58,8.99l-0.34,1.7
						c-0.07-0.05-0.12-0.11-0.18-0.17l-4.21-4.4c-1.52-1.6-4.27-0.74-4.45,1.39l-0.51,5.87c0,0.02,0,0.04-0.01,0.05l-1.56-1.41
						l0.89-11.63l-1.89-1.76l-1.07,11.51l-2.13-1.93l1.63-7.9L44.49,24.11l7.54-2l2.19,1.99L42.73,26l1.89,1.76l11.73-1.75
						l1.69,1.53c-0.2,0.1-0.42,0.17-0.64,0.22l-6.03,1.2c-2.18,0.44-2.73,3.16-0.89,4.41l5.09,3.46c0.18,0.12,0.34,0.26,0.47,0.41
						l-2.19,0.72l-9.86-6.43l-2.46,0.81l9.62,6.51l-2.76,0.9l-6.14-5.23l4.96,15l1.87-7.58l2.78-0.91l-3.84,10.94l2.46-0.81
						l4.06-11.01l2.05-0.67c-0.01,0.04-0.02,0.08-0.03,0.12l-1.82,5.61c-0.66,2.03,1.54,3.89,3.56,3.01l5.59-2.42
						c0.1-0.04,0.2-0.08,0.3-0.11l-0.32,1.65l-10.42,5.44l-0.49,2.54l10.38-5.2l-0.55,2.85l-7.57,2.79l15.51,3.02l-5.69-5.35
						l0.56-2.87l7.67,8.72l0.49-2.54l-7.62-8.95l0,0l0.33-1.72c0.15,0.1,0.28,0.22,0.41,0.35l4.21,4.4
						c1.52,1.59,4.27,0.74,4.45-1.39l0.51-5.87c0-0.03,0.01-0.07,0.01-0.1l1.9,1.62l-0.81,11.46l1.9,1.75l1-11.43l2.15,1.83
						l-1.59,7.91l10.7-11.62l-7.53,2.05L81.46,45.05z M60.58,35.76c-0.53-1.01-1.33-1.9-2.33-2.59l-1.06-0.72l1.26-0.25
						c1.18-0.24,2.25-0.74,3.12-1.45l3.79,3.44L60.58,35.76z M61.86,41.68l-1.17,0.51l0.38-1.17c0.08-0.24,0.14-0.49,0.19-0.73
						c0.16-0.79,0.17-1.58,0.05-2.35L66,36.4l-0.91,4.67C64,41.03,62.9,41.23,61.86,41.68z M66.84,32.43l-3.74-3.39
						c0.42-0.67,0.73-1.42,0.89-2.22c0.05-0.24,0.09-0.5,0.11-0.75l0.11-1.23l0.88,0.92c0.77,0.81,1.71,1.43,2.72,1.82L66.84,32.43z
						 M70.05,28.08c1.18,0.08,2.38-0.11,3.51-0.6l1.16-0.51l-0.38,1.17c-0.08,0.24-0.14,0.49-0.19,0.73
						c-0.16,0.79-0.17,1.59-0.05,2.36l-5.01,1.64L70.05,28.08z M71.32,43.09l-0.11,1.23l-0.88-0.92c-0.84-0.89-1.87-1.53-2.99-1.91
						l0.91-4.67l4,3.41c-0.39,0.65-0.67,1.36-0.83,2.13C71.38,42.59,71.34,42.84,71.32,43.09z M76.98,36.96
						c-1.22,0.25-2.32,0.78-3.22,1.52l-3.93-3.35l-0.07-0.06l0.05-0.02l5.04-1.65c0.54,1.01,1.33,1.9,2.33,2.58l1.06,0.72
						L76.98,36.96z"/>
				</g>
				<polygon class="st20" points="69.83,35.14 69.76,35.07 69.8,35.06 				"/>
			</g>
		</g>
	</g>
</g>
</svg>
