<?xml version="1.0" encoding="utf-8"?>
<!-- Generator: Adobe Illustrator 27.2.0, SVG Export Plug-In . SVG Version: 6.00 Build 0)  -->
<svg version="1.1" id="Layer_1" xmlns="http://www.w3.org/2000/svg" xmlns:xlink="http://www.w3.org/1999/xlink" x="0px" y="0px"
	 viewBox="0 0 1100 250" style="enable-background:new 0 0 1100 250;" xml:space="preserve">
<style type="text/css">
	.st0{clip-path:url(#SVGID_00000168116528048428285920000002059067294659932077_);}
	.st1{fill:none;}
	.st2{fill:#55B7F9;}
	.st3{fill:#2D3451;}
	.st4{fill:#8E3E1E;}
	.st5{fill:#63C199;}
	.st6{fill:#5DA383;}
	.st7{fill:#773118;}
	.st8{fill:#6D2912;}
	.st9{fill:#7F422D;}
	.st10{fill:#6D3526;}
	.st11{fill:#874439;}
	.st12{fill:#6FC683;}
	.st13{fill:#753832;}
	.st14{fill:#A1D3A6;}
	.st15{fill:#FFC6B7;}
	.st16{clip-path:url(#SVGID_00000168116528048428285920000002059067294659932077_);fill:none;}
	.st17{clip-path:url(#SVGID_00000168116528048428285920000002059067294659932077_);fill:#6FC683;}
	.st18{fill:#7C351C;}
	.st19{clip-path:url(#SVGID_00000168116528048428285920000002059067294659932077_);fill:#5DA383;}
	.st20{fill:#A8552D;}
	.st21{clip-path:url(#SVGID_00000168116528048428285920000002059067294659932077_);fill:#A1D3A6;}
	.st22{fill:#FDFFFD;}
	.st23{fill:#7EB56F;}
	.st24{fill:#6DB272;}
	.st25{fill:#CAFCCA;}
	.st26{fill:#E5A183;}
	.st27{fill:#F7DDCB;}
	.st28{fill:#D38259;}
	.st29{fill:#E2B283;}
	.st30{fill:#DDA078;}
</style>
<g>
	<defs>
		<rect id="SVGID_1_" width="1100" height="250"/>
	</defs>
	<clipPath id="SVGID_00000044140092452782515050000002833659458507428513_">
		<use xlink:href="#SVGID_1_"  style="overflow:visible;"/>
	</clipPath>
	<g style="clip-path:url(#SVGID_00000044140092452782515050000002833659458507428513_);">
		<rect class="st1" width="1100" height="250"/>
		<rect class="st2" width="1101" height="250"/>
	</g>
	<g style="clip-path:url(#SVGID_00000044140092452782515050000002833659458507428513_);">
		<rect class="st1" width="1100" height="250"/>
		<path class="st3" d="M1100,14v236H0V14c151.5,118.7,342.5,138.7,550,138.7S948.5,132.7,1100,14z"/>
	</g>
	<g style="clip-path:url(#SVGID_00000044140092452782515050000002833659458507428513_);">
		<rect class="st1" width="1100" height="250"/>
		<path class="st4" d="M341.6,193.1v17.1c0,5.4-4.4,9.8-9.8,9.8H313c-2.5,0-4.5,2-4.5,4.5v31.1h-42.8v-36.8c0-2.5-2-4.5-4.5-4.5
			h-24.1c-2.8,0-5-2.2-5-5v-21.3h12.4V198c0,2.1,1.7,3.8,3.8,3.8h12.9c2.5,0,4.5-2,4.5-4.5v-35c0-11.8,9.6-21.4,21.4-21.4l0,0
			c11.8,0,21.4,9.6,21.4,21.4v35.5c0,2.5,2,4.5,4.5,4.5h6.1c2.7,0,5-2.2,5-5v-4.3L341.6,193.1L341.6,193.1z"/>
	</g>
	<g style="clip-path:url(#SVGID_00000044140092452782515050000002833659458507428513_);">
		<rect class="st1" width="1100" height="250"/>
		<path class="st5" d="M350.6,168.3h-127c-4.7,0-8.5-3.8-8.5-8.5v-6.2c0-39.8,32.2-72,72-72l0,0c39.8,0,72,32.2,72,72v6.2
			C359.1,164.5,355.3,168.3,350.6,168.3z"/>
	</g>
	<g style="clip-path:url(#SVGID_00000044140092452782515050000002833659458507428513_);">
		<rect class="st1" width="1100" height="250"/>
		<path class="st6" d="M256.1,192.2h-35.3v-2.3c0-6.9,5.6-12.5,12.5-12.5h10.3c6.9,0,12.5,5.6,12.5,12.5L256.1,192.2L256.1,192.2z"
			/>
	</g>
	<g style="clip-path:url(#SVGID_00000044140092452782515050000002833659458507428513_);">
		<rect class="st1" width="1100" height="250"/>
		<path class="st6" d="M353.1,193.6h-38.1v-3.5c0-6.9,5.6-12.5,12.5-12.5h13.1c6.9,0,12.5,5.6,12.5,12.5L353.1,193.6L353.1,193.6z"
			/>
	</g>
	<g style="clip-path:url(#SVGID_00000044140092452782515050000002833659458507428513_);">
		<rect class="st1" width="1100" height="250"/>
		<path class="st7" d="M275.3,204L275.3,204c-1.9,0-3.4-1.5-3.4-3.4v-20.7c0-1.9,1.5-3.4,3.4-3.4l0,0c1.9,0,3.4,1.5,3.4,3.4v20.7
			C278.6,202.5,277.1,204,275.3,204z"/>
	</g>
	<g style="clip-path:url(#SVGID_00000044140092452782515050000002833659458507428513_);">
		<rect class="st1" width="1100" height="250"/>
		<path class="st7" d="M275.3,235L275.3,235c-1.9,0-3.4-1.5-3.4-3.4v-20.7c0-1.9,1.5-3.4,3.4-3.4l0,0c1.9,0,3.4,1.5,3.4,3.4v20.7
			C278.6,233.5,277.1,235,275.3,235z"/>
	</g>
	<g style="clip-path:url(#SVGID_00000044140092452782515050000002833659458507428513_);">
		<rect class="st1" width="1100" height="250"/>
		<path class="st8" d="M299.5,250.9L299.5,250.9c-1.9,0-3.4-1.5-3.4-3.4v-13.9c0-1.9,1.5-3.4,3.4-3.4l0,0c1.9,0,3.4,1.5,3.4,3.4
			v13.9C302.9,249.4,301.4,250.9,299.5,250.9z"/>
	</g>
	<g style="clip-path:url(#SVGID_00000044140092452782515050000002833659458507428513_);">
		<rect class="st1" width="1100" height="250"/>
		<path class="st7" d="M299.3,196L299.3,196c-2,0-3.6-1.6-3.6-3.6v-11.2c0-2,1.6-3.6,3.6-3.6l0,0c2,0,3.6,1.6,3.6,3.6v11.2
			C302.9,194.4,301.3,196,299.3,196z"/>
	</g>
	<g style="clip-path:url(#SVGID_00000044140092452782515050000002833659458507428513_);">
		<rect class="st1" width="1100" height="250"/>
		<path class="st7" d="M299.3,229L299.3,229c-2,0-3.6-1.6-3.6-3.6v-23.2c0-2,1.6-3.6,3.6-3.6l0,0c2,0,3.6,1.6,3.6,3.6v23.2
			C302.9,227.4,301.3,229,299.3,229z"/>
	</g>
	<g style="clip-path:url(#SVGID_00000044140092452782515050000002833659458507428513_);">
		<rect class="st1" width="1100" height="250"/>
		<path class="st8" d="M275.8,247.8L275.8,247.8c-2.4,0-4.4-2-4.4-4.4v-15.5c0-2.4,2-4.4,4.4-4.4l0,0c2.4,0,4.4,2,4.4,4.4v15.5
			C280.2,245.8,278.2,247.8,275.8,247.8z"/>
	</g>
	<g style="clip-path:url(#SVGID_00000044140092452782515050000002833659458507428513_);">
		<rect class="st1" width="1100" height="250"/>
		<path class="st7" d="M287.2,251.4L287.2,251.4c-1.3,0-2.3-1-2.3-2.3v-52.6c0-1.3,1-2.3,2.3-2.3l0,0c1.3,0,2.3,1,2.3,2.3v52.6
			C289.5,250.4,288.4,251.4,287.2,251.4z"/>
	</g>
	<g style="clip-path:url(#SVGID_00000044140092452782515050000002833659458507428513_);">
		<rect class="st1" width="1100" height="250"/>
		<path class="st9" d="M844.6,186.1v17.1c0,5.4-4.4,9.8-9.8,9.8H816c-2.5,0-4.5,2-4.5,4.5v31.1h-42.8v-36.8c0-2.5-2-4.5-4.5-4.5
			h-24.1c-2.8,0-5-2.2-5-5v-21.3h12.4V191c0,2.1,1.7,3.8,3.8,3.8h12.9c2.5,0,4.5-2,4.5-4.5v-35c0-11.8,9.6-21.4,21.4-21.4l0,0
			c11.8,0,21.4,9.6,21.4,21.4v35.5c0,2.5,2,4.5,4.5,4.5h6.1c2.7,0,5-2.2,5-5v-4.3L844.6,186.1L844.6,186.1z"/>
	</g>
	<g style="clip-path:url(#SVGID_00000044140092452782515050000002833659458507428513_);">
		<rect class="st1" width="1100" height="250"/>
		<path class="st5" d="M853.6,161.3h-127c-4.7,0-8.5-3.8-8.5-8.5v-6.2c0-39.8,32.2-72,72-72l0,0c39.8,0,72,32.2,72,72v6.2
			C862.1,157.5,858.3,161.3,853.6,161.3z"/>
	</g>
	<g style="clip-path:url(#SVGID_00000044140092452782515050000002833659458507428513_);">
		<rect class="st1" width="1100" height="250"/>
		<path class="st5" d="M759.1,185.2h-35.3v-2.3c0-6.9,5.6-12.5,12.5-12.5h10.3c6.9,0,12.5,5.6,12.5,12.5L759.1,185.2L759.1,185.2z"
			/>
	</g>
	<g style="clip-path:url(#SVGID_00000044140092452782515050000002833659458507428513_);">
		<rect class="st1" width="1100" height="250"/>
		<path class="st5" d="M856.2,186.6h-38.1v-3.5c0-6.9,5.6-12.5,12.5-12.5h13.1c6.9,0,12.5,5.6,12.5,12.5L856.2,186.6L856.2,186.6z"
			/>
	</g>
	<g style="clip-path:url(#SVGID_00000044140092452782515050000002833659458507428513_);">
		<rect class="st1" width="1100" height="250"/>
		<path class="st8" d="M802.5,243.9L802.5,243.9c-1.8,0-3.3-1.5-3.3-3.4v-13.9c0-1.9,1.5-3.4,3.3-3.4l0,0c1.8,0,3.3,1.5,3.3,3.4
			v13.9C805.9,242.4,804.4,243.9,802.5,243.9z"/>
	</g>
	<g style="clip-path:url(#SVGID_00000044140092452782515050000002833659458507428513_);">
		<rect class="st1" width="1100" height="250"/>
		<path class="st10" d="M802.3,216L802.3,216c-2,0-3.6-1.6-3.6-3.6v-37.2c0-2,1.6-3.6,3.6-3.6l0,0c2,0,3.6,1.6,3.6,3.6v37.2
			C805.9,214.4,804.3,216,802.3,216z"/>
	</g>
	<g style="clip-path:url(#SVGID_00000044140092452782515050000002833659458507428513_);">
		<rect class="st1" width="1100" height="250"/>
		<path class="st10" d="M779.3,195L779.3,195c-2,0-3.6-1.6-3.6-3.6v-16.2c0-2,1.6-3.6,3.6-3.6l0,0c2,0,3.6,1.6,3.6,3.6v16.2
			C782.9,193.4,781.3,195,779.3,195z"/>
	</g>
	<g style="clip-path:url(#SVGID_00000044140092452782515050000002833659458507428513_);">
		<rect class="st1" width="1100" height="250"/>
		<path class="st10" d="M779.3,227L779.3,227c-2,0-3.6-1.6-3.6-3.6v-20.2c0-2,1.6-3.6,3.6-3.6l0,0c2,0,3.6,1.6,3.6,3.6v20.2
			C782.9,225.4,781.3,227,779.3,227z"/>
	</g>
	<g style="clip-path:url(#SVGID_00000044140092452782515050000002833659458507428513_);">
		<rect class="st1" width="1100" height="250"/>
		<path class="st10" d="M790.2,246.4L790.2,246.4c-1.3,0-2.3-1-2.3-2.3v-52.6c0-1.3,1-2.3,2.3-2.3l0,0c1.3,0,2.3,1,2.3,2.3v52.6
			C792.5,245.4,791.4,246.4,790.2,246.4z"/>
	</g>
	<g style="clip-path:url(#SVGID_00000044140092452782515050000002833659458507428513_);">
		<rect class="st1" width="1100" height="250"/>
		<path class="st10" d="M926.2,237.4L926.2,237.4c-1.3,0-2.3-1-2.3-2.3v-52.6c0-1.3,1-2.3,2.3-2.3l0,0c1.3,0,2.3,1,2.3,2.3v52.6
			C928.5,236.4,927.4,237.4,926.2,237.4z"/>
	</g>
	<g style="clip-path:url(#SVGID_00000044140092452782515050000002833659458507428513_);">
		<rect class="st1" width="1100" height="250"/>
		<path class="st10" d="M790.2,187L790.2,187c-1.3,0-2.3-1-2.3-2.3v-11.4c0-1.3,1-2.3,2.3-2.3l0,0c1.3,0,2.3,1,2.3,2.3v11.4
			C792.5,186,791.4,187,790.2,187z"/>
	</g>
	<g style="clip-path:url(#SVGID_00000044140092452782515050000002833659458507428513_);">
		<rect class="st1" width="1100" height="250"/>
		<path class="st11" d="M723.4,184.2v18.4c0,5.8-4.6,10.5-10.4,10.5h-20c-2.6,0-4.7,2.1-4.7,4.8v33.6h-45.5v-39.7
			c0-2.6-2.1-4.8-4.7-4.8h-25.6c-2.9,0-5.3-2.4-5.3-5.4v-23h13.2v10.9c0,2.3,1.8,4.1,4,4.1h13.7c2.6,0,4.7-2.1,4.7-4.8v-37.8
			c0-12.8,10.2-23.1,22.7-23.1l0,0c12.6,0,22.7,10.3,22.7,23.1v38.3c0,2.6,2.1,4.8,4.7,4.8h6.4c2.9,0,5.3-2.4,5.3-5.4v-4.7
			L723.4,184.2L723.4,184.2z"/>
	</g>
	<g style="clip-path:url(#SVGID_00000044140092452782515050000002833659458507428513_);">
		<rect class="st1" width="1100" height="250"/>
		<path class="st12" d="M733.5,157.5H597.7c-4.7,0-8.5-3.8-8.5-8.5v-13c0-39.8,32.2-72,72-72h8.9c39.8,0,72,32.2,72,72v13
			C742,153.7,738.2,157.5,733.5,157.5z"/>
	</g>
	<g style="clip-path:url(#SVGID_00000044140092452782515050000002833659458507428513_);">
		<rect class="st1" width="1100" height="250"/>
		<path class="st6" d="M632.6,183.3h-37.4v-3.5c0-6.9,5.6-12.5,12.5-12.5h12.5c6.9,0,12.5,5.6,12.5,12.5L632.6,183.3L632.6,183.3z"
			/>
	</g>
	<g style="clip-path:url(#SVGID_00000044140092452782515050000002833659458507428513_);">
		<rect class="st1" width="1100" height="250"/>
		<path class="st6" d="M735.6,184.8h-40.4V180c0-6.9,5.6-12.5,12.5-12.5h15.4c6.9,0,12.5,5.6,12.5,12.5L735.6,184.8L735.6,184.8z"/>
	</g>
	<g style="clip-path:url(#SVGID_00000044140092452782515050000002833659458507428513_);">
		<rect class="st1" width="1100" height="250"/>
		<path class="st13" d="M653.2,207.6h-0.4c-1.8,0-3.3-1.5-3.3-3.4v-34.5c0-1.9,1.5-3.4,3.3-3.4h0.4c1.8,0,3.3,1.5,3.3,3.4v34.5
			C656.5,206.1,655,207.6,653.2,207.6z"/>
	</g>
	<g style="clip-path:url(#SVGID_00000044140092452782515050000002833659458507428513_);">
		<rect class="st1" width="1100" height="250"/>
		<path class="st13" d="M653.2,251.6h-0.4c-1.8,0-3.3-1.5-3.3-3.4v-31.9c0-1.9,1.5-3.4,3.3-3.4h0.4c1.8,0,3.3,1.5,3.3,3.4v31.9
			C656.5,250.1,655,251.6,653.2,251.6z"/>
	</g>
	<g style="clip-path:url(#SVGID_00000044140092452782515050000002833659458507428513_);">
		<rect class="st1" width="1100" height="250"/>
		<path class="st13" d="M677.7,238.4h-0.4c-2,0-3.6-1.6-3.6-3.6v-27.1c0-2,1.6-3.6,3.6-3.6h0.4c2,0,3.6,1.6,3.6,3.6v27.1
			C681.3,236.7,679.7,238.4,677.7,238.4z"/>
	</g>
	<g style="clip-path:url(#SVGID_00000044140092452782515050000002833659458507428513_);">
		<rect class="st1" width="1100" height="250"/>
		<path class="st13" d="M677.7,197h-0.4c-2,0-3.6-1.6-3.6-3.6v-6.8c0-2,1.6-3.6,3.6-3.6h0.4c2,0,3.6,1.6,3.6,3.6v6.8
			C681.3,195.4,679.7,197,677.7,197z"/>
	</g>
	<g style="clip-path:url(#SVGID_00000044140092452782515050000002833659458507428513_);">
		<rect class="st1" width="1100" height="250"/>
		<path class="st13" d="M664.7,230.1h-0.3c-1.3,0-2.3-1-2.3-2.3v-30.4c0-1.3,1-2.3,2.3-2.3h0.3c1.3,0,2.3,1,2.3,2.3v30.4
			C667,229,666,230.1,664.7,230.1z"/>
	</g>
	<g style="clip-path:url(#SVGID_00000044140092452782515050000002833659458507428513_);">
		<rect class="st1" width="1100" height="250"/>
		<path class="st13" d="M664.7,189.1h-0.3c-1.3,0-2.3-1-2.3-2.3v-11.4c0-1.3,1-2.3,2.3-2.3h0.3c1.3,0,2.3,1,2.3,2.3v11.4
			C667,188,666,189.1,664.7,189.1z"/>
	</g>
	<g style="clip-path:url(#SVGID_00000044140092452782515050000002833659458507428513_);">
		<rect class="st1" width="1100" height="250"/>
		<path class="st9" d="M579.1,187v17.9c0,5.7-4,10.3-8.9,10.3h-17.1c-2.2,0-4,2.1-4,4.7v32.7h-38.9v-38.6c0-2.6-1.8-4.7-4-4.7h-21.9
			c-2.5,0-4.5-2.4-4.5-5.2v-22.4h11.2v10.6c0,2.2,1.5,4,3.5,4h11.7c2.2,0,4-2.1,4-4.7v-36.8c0-12.4,8.7-22.5,19.5-22.5l0,0
			c10.8,0,19.5,10.1,19.5,22.5v37.3c0,2.6,1.8,4.7,4,4.7h5.5c2.5,0,4.5-2.3,4.5-5.2V187H579.1z"/>
	</g>
	<g style="clip-path:url(#SVGID_00000044140092452782515050000002833659458507428513_);">
		<rect class="st1" width="1100" height="250"/>
		<path class="st5" d="M587.3,161H471.9c-4.3,0-7.7-3.5-7.7-7.7v-17.9c0-36.1,29.3-65.4,65.4-65.4l0,0c36.1,0,65.4,29.3,65.4,65.4
			v17.9C595,157.5,591.5,161,587.3,161z"/>
	</g>
	<g style="clip-path:url(#SVGID_00000044140092452782515050000002833659458507428513_);">
		<rect class="st1" width="1100" height="250"/>
		<path class="st5" d="M501.4,186.1h-32V183c0-6.9,5.6-12.5,12.5-12.5h7.1c6.9,0,12.5,5.6,12.5,12.5L501.4,186.1L501.4,186.1z"/>
	</g>
	<g style="clip-path:url(#SVGID_00000044140092452782515050000002833659458507428513_);">
		<rect class="st1" width="1100" height="250"/>
		<path class="st6" d="M589.5,187.5H555v-4.3c0-6.9,5.6-12.5,12.5-12.5h9.6c6.9,0,12.5,5.6,12.5,12.5L589.5,187.5L589.5,187.5z"/>
	</g>
	<g style="clip-path:url(#SVGID_00000044140092452782515050000002833659458507428513_);">
		<rect class="st1" width="1100" height="250"/>
		<path class="st10" d="M531,209.7h-2.2c-1.7,0-3-1.4-3-3.1v-34c0-1.7,1.4-3.1,3-3.1h2.2c1.7,0,3,1.4,3,3.1v34
			C534,208.4,532.6,209.7,531,209.7z"/>
	</g>
	<g style="clip-path:url(#SVGID_00000044140092452782515050000002833659458507428513_);">
		<rect class="st1" width="1100" height="250"/>
		<path class="st10" d="M531,245.7h-2.2c-1.7,0-3-1.4-3-3.1V217c0-1.7,1.4-3.1,3-3.1h2.2c1.7,0,3,1.4,3,3.1v25.6
			C534,244.4,532.6,245.7,531,245.7z"/>
	</g>
	<g style="clip-path:url(#SVGID_00000044140092452782515050000002833659458507428513_);">
		<rect class="st1" width="1100" height="250"/>
		<path class="st8" d="M540.8,247.6L540.8,247.6c-1.7,0-3-1.4-3-3.1V229c0-1.7,1.4-3.1,3-3.1l0,0c1.7,0,3,1.4,3,3.1v15.6
			C543.9,246.3,542.5,247.6,540.8,247.6z"/>
	</g>
	<g style="clip-path:url(#SVGID_00000044140092452782515050000002833659458507428513_);">
		<rect class="st1" width="1100" height="250"/>
		<path class="st10" d="M542.6,252.2L542.6,252.2c-1.2,0-2.1-0.9-2.1-2.1v-55.9c0-1.2,0.9-2.1,2.1-2.1l0,0c1.2,0,2.1,0.9,2.1,2.1
			v55.9C544.7,251.2,543.8,252.2,542.6,252.2z"/>
	</g>
	<g style="clip-path:url(#SVGID_00000044140092452782515050000002833659458507428513_);">
		<rect class="st1" width="1100" height="250"/>
		<path class="st10" d="M542.6,189L542.6,189c-1.2,0-2.1-0.9-2.1-2.1v-20.8c0-1.2,0.9-2.1,2.1-2.1l0,0c1.2,0,2.1,0.9,2.1,2.1v20.8
			C544.7,188.1,543.8,189,542.6,189z"/>
	</g>
	<g style="clip-path:url(#SVGID_00000044140092452782515050000002833659458507428513_);">
		<rect class="st1" width="1100" height="250"/>
		<path class="st10" d="M517,194.8L517,194.8c-1.2,0-2.1-0.9-2.1-2.1v-20.8c0-1.2,0.9-2.1,2.1-2.1l0,0c1.2,0,2.1,0.9,2.1,2.1v20.8
			C519.1,193.9,518.1,194.8,517,194.8z"/>
	</g>
	<g style="clip-path:url(#SVGID_00000044140092452782515050000002833659458507428513_);">
		<rect class="st1" width="1100" height="250"/>
		<path class="st10" d="M517,228L517,228c-1.2,0-2.1-0.9-2.1-2.1v-26c0-1.2,0.9-2.1,2.1-2.1l0,0c1.2,0,2.1,0.9,2.1,2.1v26
			C519.1,227.1,518.1,228,517,228z"/>
	</g>
	<g style="clip-path:url(#SVGID_00000044140092452782515050000002833659458507428513_);">
		<rect class="st1" width="1100" height="250"/>
		<path class="st11" d="M464.8,198.8v15c0,4.7-3.8,8.6-8.6,8.6h-16.5c-2.2,0-3.9,1.8-3.9,3.9v27.3h-37.6v-32.3
			c0-2.2-1.8-3.9-3.9-3.9h-21.1c-2.4,0-4.4-2-4.4-4.4v-18.7h10.9v8.9c0,1.9,1.5,3.4,3.4,3.4h11.3c2.2,0,3.9-1.8,3.9-3.9v-30.7
			c0-10.4,8.4-18.8,18.8-18.8l0,0c10.4,0,18.8,8.4,18.8,18.8V203c0,2.2,1.8,3.9,3.9,3.9h5.3c2.4,0,4.4-1.9,4.4-4.4v-3.8L464.8,198.8
			L464.8,198.8z"/>
	</g>
	<g style="clip-path:url(#SVGID_00000044140092452782515050000002833659458507428513_);">
		<rect class="st1" width="1100" height="250"/>
		<path class="st14" d="M472.7,177H361.3c-4.1,0-7.5-3.3-7.5-7.4v-5.4c0-34.9,28.3-63.1,63.1-63.1l0,0c34.9,0,63.1,28.3,63.1,63.1
			v5.4C480.1,173.7,476.8,177,472.7,177z"/>
	</g>
	<g style="clip-path:url(#SVGID_00000044140092452782515050000002833659458507428513_);">
		<rect class="st1" width="1100" height="250"/>
		<path class="st14" d="M389.8,198h-30.9v-0.5c0-6.9,5.6-12.5,12.5-12.5h5.9c6.9,0,12.5,5.6,12.5,12.5L389.8,198L389.8,198z"/>
	</g>
	<g style="clip-path:url(#SVGID_00000044140092452782515050000002833659458507428513_);">
		<rect class="st1" width="1100" height="250"/>
		<path class="st14" d="M474.9,199.2h-33.4v-1.5c0-6.9,5.6-12.5,12.5-12.5h8.4c6.9,0,12.5,5.6,12.5,12.5L474.9,199.2L474.9,199.2z"
			/>
	</g>
	<g style="clip-path:url(#SVGID_00000044140092452782515050000002833659458507428513_);">
		<rect class="st1" width="1100" height="250"/>
		<path class="st13" d="M406.6,215.8L406.6,215.8c-1.6,0-2.9-1.3-2.9-2.9v-27.6c0-1.6,1.3-2.9,2.9-2.9l0,0c1.6,0,2.9,1.3,2.9,2.9
			v27.6C409.5,214.4,408.2,215.8,406.6,215.8z"/>
	</g>
	<g style="clip-path:url(#SVGID_00000044140092452782515050000002833659458507428513_);">
		<rect class="st1" width="1100" height="250"/>
		<path class="st13" d="M406.6,245L406.6,245c-1.6,0-2.9-1.3-2.9-2.9v-21.1c0-1.6,1.3-2.9,2.9-2.9l0,0c1.6,0,2.9,1.3,2.9,2.9V242
			C409.5,243.7,408.2,245,406.6,245z"/>
	</g>
	<g style="clip-path:url(#SVGID_00000044140092452782515050000002833659458507428513_);">
		<rect class="st1" width="1100" height="250"/>
		<path class="st8" d="M427.9,249.4L427.9,249.4c-1.6,0-2.9-1.3-2.9-2.9v-12.2c0-1.6,1.3-2.9,2.9-2.9l0,0c1.6,0,2.9,1.3,2.9,2.9
			v12.2C430.8,248.1,429.5,249.4,427.9,249.4z"/>
	</g>
	<g style="clip-path:url(#SVGID_00000044140092452782515050000002833659458507428513_);">
		<rect class="st1" width="1100" height="250"/>
		<path class="st13" d="M427.6,228L427.6,228c-1.8,0-3.2-1.4-3.2-3.2v-27.5c0-1.8,1.4-3.2,3.2-3.2l0,0c1.8,0,3.2,1.4,3.2,3.2v27.5
			C430.8,226.6,429.4,228,427.6,228z"/>
	</g>
	<g style="clip-path:url(#SVGID_00000044140092452782515050000002833659458507428513_);">
		<rect class="st1" width="1100" height="250"/>
		<path class="st8" d="M407,246.7L407,246.7c-2.1,0-3.9-1.7-3.9-3.9v-13.6c0-2.1,1.7-3.9,3.9-3.9l0,0c2.1,0,3.9,1.7,3.9,3.9v13.6
			C410.9,245,409.2,246.7,407,246.7z"/>
	</g>
	<g style="clip-path:url(#SVGID_00000044140092452782515050000002833659458507428513_);">
		<rect class="st1" width="1100" height="250"/>
		<path class="st13" d="M417,249.9L417,249.9c-1.1,0-2-0.9-2-2v-46.2c0-1.1,0.9-2,2-2l0,0c1.1,0,2,0.9,2,2v46.2
			C419,249,418.1,249.9,417,249.9z"/>
	</g>
	<g style="clip-path:url(#SVGID_00000044140092452782515050000002833659458507428513_);">
		<rect class="st1" width="1100" height="250"/>
		<path class="st13" d="M417,196L417,196c-1.1,0-2-0.9-2-2V184c0-1.1,0.9-2,2-2l0,0c1.1,0,2,0.9,2,2v9.9
			C419,195.1,418.1,196,417,196z"/>
	</g>
	<g style="clip-path:url(#SVGID_00000044140092452782515050000002833659458507428513_);">
		<rect class="st1" width="1100" height="250"/>
		<path class="st9" d="M220.7,173.7v19.7c0,6.2-5.1,11.3-11.3,11.3h-21.7c-2.8,0-5.1,2.3-5.1,5.1v36H133v-42.6
			c0-2.8-2.3-5.1-5.2-5.1H100c-3.2,0-5.8-2.6-5.8-5.8v-24.6h14.3v11.7c0,2.4,2,4.4,4.4,4.4h14.9c2.8,0,5.2-2.3,5.2-5.1v-40.5
			c0-13.7,11.1-24.8,24.8-24.8l0,0c13.7,0,24.8,11.1,24.8,24.8v41.1c0,2.8,2.3,5.1,5.1,5.1h7c3.2,0,5.7-2.6,5.7-5.7v-5L220.7,173.7
			L220.7,173.7z"/>
	</g>
	<g style="clip-path:url(#SVGID_00000044140092452782515050000002833659458507428513_);">
		<rect class="st1" width="1100" height="250"/>
		<path class="st12" d="M232.4,145.1H83.2c-4.8,0-8.6-3.9-8.6-8.6v-18.8c0-40.2,32.6-72.8,72.8-72.8h20.7
			c40.2,0,72.9,32.6,72.9,72.8v18.8C241,141.2,237.1,145.1,232.4,145.1z"/>
	</g>
	<g style="clip-path:url(#SVGID_00000044140092452782515050000002833659458507428513_);">
		<rect class="st1" width="1100" height="250"/>
		<path class="st14" d="M121.9,172.8H81.1v-4.6c0-6.9,5.6-12.5,12.5-12.5h15.8c6.9,0,12.5,5.6,12.5,12.5L121.9,172.8L121.9,172.8z"
			/>
	</g>
	<g style="clip-path:url(#SVGID_00000044140092452782515050000002833659458507428513_);">
		<rect class="st1" width="1100" height="250"/>
		<path class="st14" d="M234.1,174.3h-44v-6c0-6.9,5.6-12.5,12.5-12.5h19c6.9,0,12.5,5.6,12.5,12.5L234.1,174.3L234.1,174.3z"/>
	</g>
	<g style="clip-path:url(#SVGID_00000044140092452782515050000002833659458507428513_);">
		<rect class="st1" width="1100" height="250"/>
		<path class="st15" d="M100.1,168.4H88.8c-1.3,0-2.3-1.1-2.3-2.4v-0.7c0-1.3,1.1-2.4,2.3-2.4h11.3c1.3,0,2.3,1.1,2.3,2.4v0.7
			C102.5,167.3,101.4,168.4,100.1,168.4z"/>
	</g>
	<g style="clip-path:url(#SVGID_00000044140092452782515050000002833659458507428513_);">
		<rect class="st1" width="1100" height="250"/>
		<path class="st10" d="M144.5,181h-1c-1.9,0-3.4-1.5-3.4-3.4V158c0-1.9,1.5-3.4,3.4-3.4h1c1.9,0,3.4,1.5,3.4,3.4v19.6
			C147.9,179.5,146.4,181,144.5,181z"/>
	</g>
	<g style="clip-path:url(#SVGID_00000044140092452782515050000002833659458507428513_);">
		<rect class="st1" width="1100" height="250"/>
		<path class="st8" d="M172.6,240.5h-1c-1.9,0-3.4-1.5-3.4-3.4v-17.1c0-1.9,1.5-3.4,3.4-3.4h1c1.9,0,3.4,1.5,3.4,3.4v17.1
			C176,239,174.4,240.5,172.6,240.5z"/>
	</g>
	<g style="clip-path:url(#SVGID_00000044140092452782515050000002833659458507428513_);">
		<rect class="st1" width="1100" height="250"/>
		<path class="st10" d="M172.3,190h-1c-2,0-3.7-1.6-3.7-3.7v-26.9c0-2,1.6-3.7,3.7-3.7h1c2,0,3.7,1.6,3.7,3.7v26.9
			C176,188.4,174.3,190,172.3,190z"/>
	</g>
	<g style="clip-path:url(#SVGID_00000044140092452782515050000002833659458507428513_);">
		<rect class="st1" width="1100" height="250"/>
		<path class="st10" d="M172.3,227.4h-1c-2,0-3.7-1.6-3.7-3.7v-26.9c0-2,1.6-3.7,3.7-3.7h1c2,0,3.7,1.6,3.7,3.7v26.9
			C176,225.8,174.3,227.4,172.3,227.4z"/>
	</g>
	<g style="clip-path:url(#SVGID_00000044140092452782515050000002833659458507428513_);">
		<rect class="st1" width="1100" height="250"/>
		<path class="st10" d="M145.3,237H144c-2.4,0-4.4-2-4.4-4.4v-40.1c0-2.4,2-4.4,4.4-4.4h1.3c2.4,0,4.4,2,4.4,4.4v40.1
			C149.7,235,147.7,237,145.3,237z"/>
	</g>
	<g style="clip-path:url(#SVGID_00000044140092452782515050000002833659458507428513_);">
		<rect class="st1" width="1100" height="250"/>
		<path class="st10" d="M158.1,241.1h-0.7c-1.3,0-2.4-1.1-2.4-2.4v-61.5c0-1.3,1.1-2.4,2.4-2.4h0.7c1.3,0,2.4,1.1,2.4,2.4v61.5
			C160.5,240.1,159.4,241.1,158.1,241.1z"/>
	</g>
	<g style="clip-path:url(#SVGID_00000044140092452782515050000002833659458507428513_);">
		<rect class="st1" width="1100" height="250"/>
		<path class="st10" d="M158.1,170h-0.7c-1.3,0-2.4-1.1-2.4-2.4v-17.3c0-1.3,1.1-2.4,2.4-2.4h0.7c1.3,0,2.4,1.1,2.4,2.4v17.3
			C160.5,168.9,159.4,170,158.1,170z"/>
	</g>
	<g style="clip-path:url(#SVGID_00000044140092452782515050000002833659458507428513_);">
		<rect class="st1" width="1100" height="250"/>
		<path class="st4" d="M990.7,171.7v19.7c0,6.2-5.1,11.3-11.3,11.3h-21.7c-2.8,0-5.2,2.3-5.2,5.1v36H903v-42.6
			c0-2.8-2.3-5.1-5.2-5.1H870c-3.2,0-5.8-2.6-5.8-5.8v-24.6h14.3v11.7c0,2.4,2,4.4,4.4,4.4h14.9c2.8,0,5.2-2.3,5.2-5.1v-40.5
			c0-13.7,11.1-24.8,24.8-24.8l0,0c13.7,0,24.8,11.1,24.8,24.8v41.1c0,2.8,2.3,5.1,5.2,5.1h7c3.2,0,5.7-2.6,5.7-5.7v-5L990.7,171.7
			L990.7,171.7L990.7,171.7z"/>
	</g>
	<rect style="clip-path:url(#SVGID_00000044140092452782515050000002833659458507428513_);fill:none;" width="1100" height="250"/>
	<path style="clip-path:url(#SVGID_00000044140092452782515050000002833659458507428513_);fill:#6FC683;" d="M1002.4,143.1H853.2
		c-4.8,0-8.6-3.9-8.6-8.6v-18.8c0-40.2,32.6-72.8,72.8-72.8h20.7c40.2,0,72.8,32.6,72.8,72.8v18.8
		C1011,139.2,1007.1,143.1,1002.4,143.1z"/>
	<g style="clip-path:url(#SVGID_00000044140092452782515050000002833659458507428513_);">
		<rect class="st1" width="1100" height="250"/>
		<path class="st14" d="M891.9,170.8h-40.8v-4.6c0-6.9,5.6-12.5,12.5-12.5h15.8c6.9,0,12.5,5.6,12.5,12.5L891.9,170.8L891.9,170.8z"
			/>
	</g>
	<g style="clip-path:url(#SVGID_00000044140092452782515050000002833659458507428513_);">
		<rect class="st1" width="1100" height="250"/>
		<path class="st14" d="M1004.1,172.3h-44v-6c0-6.9,5.6-12.5,12.5-12.5h19c6.9,0,12.5,5.6,12.5,12.5L1004.1,172.3L1004.1,172.3z"/>
	</g>
	<g style="clip-path:url(#SVGID_00000044140092452782515050000002833659458507428513_);">
		<rect class="st1" width="1100" height="250"/>
		<path class="st18" d="M916.5,222.8h-1c-1.9,0-3.4-1.5-3.4-3.4V182c0-1.9,1.5-3.4,3.4-3.4h1c1.9,0,3.4,1.5,3.4,3.4v37.4
			C919.9,221.3,918.4,222.8,916.5,222.8z"/>
	</g>
	<g style="clip-path:url(#SVGID_00000044140092452782515050000002833659458507428513_);">
		<rect class="st1" width="1100" height="250"/>
		<path class="st18" d="M916.5,169h-1c-1.9,0-3.4-1.5-3.4-3.4v-16.2c0-1.9,1.5-3.4,3.4-3.4h1c1.9,0,3.4,1.5,3.4,3.4v16.2
			C919.9,167.5,918.4,169,916.5,169z"/>
	</g>
	<g style="clip-path:url(#SVGID_00000044140092452782515050000002833659458507428513_);">
		<rect class="st1" width="1100" height="250"/>
		<path class="st4" d="M942.6,238.5h-1c-1.9,0-3.4-1.5-3.4-3.4v-17.1c0-1.9,1.5-3.4,3.4-3.4h1c1.9,0,3.4,1.5,3.4,3.4v17.1
			C946,237,944.5,238.5,942.6,238.5z"/>
	</g>
	<g style="clip-path:url(#SVGID_00000044140092452782515050000002833659458507428513_);">
		<rect class="st1" width="1100" height="250"/>
		<path class="st18" d="M942.3,183h-1c-2,0-3.7-1.6-3.7-3.7v-21.9c0-2,1.6-3.7,3.7-3.7h1c2,0,3.7,1.6,3.7,3.7v21.9
			C946,181.4,944.3,183,942.3,183z"/>
	</g>
	<g style="clip-path:url(#SVGID_00000044140092452782515050000002833659458507428513_);">
		<rect class="st1" width="1100" height="250"/>
		<path class="st18" d="M942.3,222h-1c-2,0-3.7-1.6-3.7-3.7v-21.9c0-2,1.6-3.7,3.7-3.7h1c2,0,3.7,1.6,3.7,3.7v21.9
			C946,220.4,944.3,222,942.3,222z"/>
	</g>
	<rect style="clip-path:url(#SVGID_00000044140092452782515050000002833659458507428513_);fill:none;" width="1100" height="250"/>
	<path style="clip-path:url(#SVGID_00000044140092452782515050000002833659458507428513_);fill:#5DA383;" d="M105,149.8H16v-18.3
		c0-6.9,5.6-12.5,12.5-12.5h64c6.9,0,12.5,5.6,12.5,12.5V149.8z"/>
	<g style="clip-path:url(#SVGID_00000044140092452782515050000002833659458507428513_);">
		<rect class="st1" width="1100" height="250"/>
		<path class="st20" d="M105,145v42.8c0,5.1-4.1,9.2-9.2,9.2H61.5c-6.9,0-12.5,5.6-12.5,12.5V251h-67V101h67v56.5
			c0,6.9,5.6,12.5,12.5,12.5h7.3c5.1,0,9.2-4.1,9.2-9.2V145H105z"/>
	</g>
	<g style="clip-path:url(#SVGID_00000044140092452782515050000002833659458507428513_);">
		<rect class="st1" width="1100" height="250"/>
		<path class="st14" d="M115.9,122.5H-40.3c-7.3,0-13.2-5.9-13.2-13.2V82.8c0-50.4,40.9-91.3,91.3-91.3l0,0
			c50.4,0,91.3,40.9,91.3,91.3v26.5C129.1,116.6,123.2,122.5,115.9,122.5z"/>
	</g>
	<g style="clip-path:url(#SVGID_00000044140092452782515050000002833659458507428513_);">
		<rect class="st1" width="1100" height="250"/>
		<path class="st5" d="M127,163H58v-16.5c0-6.9,5.6-12.5,12.5-12.5h44c6.9,0,12.5,5.6,12.5,12.5L127,163L127,163z"/>
	</g>
	<g style="clip-path:url(#SVGID_00000044140092452782515050000002833659458507428513_);">
		<rect class="st1" width="1100" height="250"/>
		<path class="st4" d="M14.4,194h-3.9c-1.4,0-2.6-1.1-2.6-2.6v-53.8c0-1.4,1.1-2.6,2.6-2.6h3.9c1.4,0,2.6,1.1,2.6,2.6v53.9
			C17,192.9,15.9,194,14.4,194z"/>
	</g>
	<g style="clip-path:url(#SVGID_00000044140092452782515050000002833659458507428513_);">
		<rect class="st1" width="1100" height="250"/>
		<path class="st4" d="M33.4,241h-3.9c-1.4,0-2.6-1.1-2.6-2.6v-53.8c0-1.4,1.1-2.6,2.6-2.6h3.9c1.4,0,2.6,1.1,2.6,2.6v53.9
			C36,239.9,34.8,241,33.4,241z"/>
	</g>
	<g style="clip-path:url(#SVGID_00000044140092452782515050000002833659458507428513_);">
		<rect class="st1" width="1100" height="250"/>
		<path class="st4" d="M33,177L33,177c-3.3,0-6-2.7-6-6v-37c0-3.3,2.7-6,6-6l0,0c3.3,0,6,2.7,6,6v37C39,174.3,36.3,177,33,177z"/>
	</g>
	<g style="clip-path:url(#SVGID_00000044140092452782515050000002833659458507428513_);">
		<rect class="st1" width="1100" height="250"/>
		<path class="st4" d="M16,255L16,255c-3.3,0-6-2.7-6-6v-37c0-3.3,2.7-6,6-6l0,0c3.3,0,6,2.7,6,6v37C22,252.3,19.3,255,16,255z"/>
	</g>
	<g style="clip-path:url(#SVGID_00000044140092452782515050000002833659458507428513_);">
		<rect class="st1" width="1100" height="250"/>
		<path class="st6" d="M995.2,148.6h89v-18.3c0-6.9-5.6-12.5-12.5-12.5h-64c-6.9,0-12.5,5.6-12.5,12.5L995.2,148.6L995.2,148.6z"/>
	</g>
	<g style="clip-path:url(#SVGID_00000044140092452782515050000002833659458507428513_);">
		<rect class="st1" width="1100" height="250"/>
		<path class="st20" d="M995.2,143.8v42.8c0,5.1,4.1,9.2,9.2,9.2h34.3c6.9,0,12.5,5.6,12.5,12.5v41.5h67v-150h-67v56.5
			c0,6.9-5.6,12.5-12.5,12.5h-7.3c-5.1,0-9.2-4.1-9.2-9.2v-15.8H995.2z"/>
	</g>
	<rect style="clip-path:url(#SVGID_00000044140092452782515050000002833659458507428513_);fill:none;" width="1100" height="250"/>
	<path style="clip-path:url(#SVGID_00000044140092452782515050000002833659458507428513_);fill:#A1D3A6;" d="M984.3,121.3h156.3
		c7.3,0,13.2-5.9,13.2-13.2V81.6c0-50.4-40.9-91.3-91.3-91.3l0,0c-50.4,0-91.3,40.9-91.3,91.3v26.5
		C971.1,115.4,977,121.3,984.3,121.3z"/>
	<g style="clip-path:url(#SVGID_00000044140092452782515050000002833659458507428513_);">
		<rect class="st1" width="1100" height="250"/>
		<path class="st5" d="M973.2,161.8h69v-16.5c0-6.9-5.6-12.5-12.5-12.5h-44c-6.9,0-12.5,5.6-12.5,12.5L973.2,161.8L973.2,161.8z"/>
	</g>
	<g style="clip-path:url(#SVGID_00000044140092452782515050000002833659458507428513_);">
		<rect class="st1" width="1100" height="250"/>
		<path class="st4" d="M1085.8,192.8h3.8c1.4,0,2.6-1.1,2.6-2.6v-53.9c0-1.4-1.2-2.6-2.6-2.6h-3.8c-1.4,0-2.6,1.1-2.6,2.6v53.9
			C1083.2,191.6,1084.4,192.8,1085.8,192.8z"/>
	</g>
	<g style="clip-path:url(#SVGID_00000044140092452782515050000002833659458507428513_);">
		<rect class="st1" width="1100" height="250"/>
		<path class="st4" d="M1066.8,239.8h3.8c1.4,0,2.6-1.1,2.6-2.6v-53.9c0-1.4-1.2-2.6-2.6-2.6h-3.8c-1.4,0-2.6,1.1-2.6,2.6v53.9
			C1064.2,238.6,1065.4,239.8,1066.8,239.8z"/>
	</g>
	<g style="clip-path:url(#SVGID_00000044140092452782515050000002833659458507428513_);">
		<rect class="st1" width="1100" height="250"/>
		<path class="st4" d="M1067.2,175.8L1067.2,175.8c3.3,0,6-2.7,6-6v-37c0-3.3-2.7-6-6-6l0,0c-3.3,0-6,2.7-6,6v37
			C1061.2,173.1,1063.9,175.8,1067.2,175.8z"/>
	</g>
	<g style="clip-path:url(#SVGID_00000044140092452782515050000002833659458507428513_);">
		<rect class="st1" width="1100" height="250"/>
		<path class="st4" d="M1084.2,253.8L1084.2,253.8c3.3,0,6-2.7,6-6v-37c0-3.3-2.7-6-6-6l0,0c-3.3,0-6,2.7-6,6v37
			C1078.2,251.1,1080.9,253.8,1084.2,253.8z"/>
	</g>
	<g style="clip-path:url(#SVGID_00000044140092452782515050000002833659458507428513_);">
		<rect class="st1" width="1100" height="250"/>
	</g>
	<g style="clip-path:url(#SVGID_00000044140092452782515050000002833659458507428513_);">
		<rect class="st1" width="1100" height="250"/>
	</g>
	<g style="clip-path:url(#SVGID_00000044140092452782515050000002833659458507428513_);">
		<rect class="st1" width="1100" height="250"/>
		<path class="st22" d="M376,86.5v1c0,2.5,2,4.5,4.5,4.5h7c2.5,0,4.5,2,4.5,4.5l0,0c0,2.5-2,4.5-4.5,4.5h-43c-2.5,0-4.5-2-4.5-4.5
			l0,0c0-2.5,2-4.5,4.5-4.5h6c2.5,0,4.5-2,4.5-4.5v-1c0-2.5-2-4.5-4.5-4.5h-26c-2.5,0-4.5-2-4.5-4.5l0,0c0-2.5,2-4.5,4.5-4.5h3
			c2.5,0,4.5-2,4.5-4.5v-2c0-2.5-2-4.5-4.5-4.5h-6c-2.5,0-4.5-2-4.5-4.5l0,0c0-2.5,2-4.5,4.5-4.5h43c2.5,0,4.5,2,4.5,4.5l0,0
			c0,2.5-2,4.5-4.5,4.5h-11c-2.5,0-4.5,2-4.5,4.5v2c0,2.5,2,4.5,4.5,4.5h42c2.5,0,4.5,2,4.5,4.5l0,0c0,2.5-2,4.5-4.5,4.5h-15
			C378,82,376,84,376,86.5z"/>
	</g>
	<g style="clip-path:url(#SVGID_00000044140092452782515050000002833659458507428513_);">
		<rect class="st1" width="1100" height="250"/>
		<path class="st22" d="M366.4,31.9v0.7c0,1.7-1.4,3.1-3.1,3.1h-4.8c-1.7,0-3.1,1.4-3.1,3.1l0,0c0,1.7,1.4,3.1,3.1,3.1H388
			c1.7,0,3.1-1.4,3.1-3.1l0,0c0-1.7-1.4-3.1-3.1-3.1h-4.1c-1.7,0-3.1-1.4-3.1-3.1v-0.7c0-1.7,1.4-3.1,3.1-3.1h17.9
			c1.7,0,3.1-1.4,3.1-3.1l0,0c0-1.7-1.4-3.1-3.1-3.1h-2.1c-1.7,0-3.1-1.4-3.1-3.1v-1.4c0-1.7,1.4-3.1,3.1-3.1h4.1
			c1.7,0,3.1-1.4,3.1-3.1l0,0c0-1.7-1.4-3.1-3.1-3.1h-29.5c-1.7,0-3.1,1.4-3.1,3.1l0,0c0,1.7,1.4,3.1,3.1,3.1h7.5
			c1.7,0,3.1,1.4,3.1,3.1v1.4c0,1.7-1.4,3.1-3.1,3.1H353c-1.7,0-3.1,1.4-3.1,3.1l0,0c0,1.7,1.4,3.1,3.1,3.1h10.3
			C365,28.8,366.4,30.2,366.4,31.9z"/>
	</g>
	<g style="clip-path:url(#SVGID_00000044140092452782515050000002833659458507428513_);">
		<rect class="st1" width="1100" height="250"/>
		<path class="st22" d="M733,47.5v1c0,2.5-2,4.5-4.5,4.5h-7c-2.5,0-4.5,2-4.5,4.5l0,0c0,2.5,2,4.5,4.5,4.5h43c2.5,0,4.5-2,4.5-4.5
			l0,0c0-2.5-2-4.5-4.5-4.5h-6c-2.5,0-4.5-2-4.5-4.5v-1c0-2.5,2-4.5,4.5-4.5h26c2.5,0,4.5-2,4.5-4.5l0,0c0-2.5-2-4.5-4.5-4.5h-3
			c-2.5,0-4.5-2-4.5-4.5v-2c0-2.5,2-4.5,4.5-4.5h6c2.5,0,4.5-2,4.5-4.5l0,0c0-2.5-2-4.5-4.5-4.5h-43c-2.5,0-4.5,2-4.5,4.5l0,0
			c0,2.5,2,4.5,4.5,4.5h11c2.5,0,4.5,2,4.5,4.5v2c0,2.5-2,4.5-4.5,4.5h-42c-2.5,0-4.5,2-4.5,4.5l0,0c0,2.5,2,4.5,4.5,4.5h15
			C731,43,733,45,733,47.5z"/>
	</g>
	<g style="clip-path:url(#SVGID_00000044140092452782515050000002833659458507428513_);">
		<rect class="st1" width="1100" height="250"/>
		<path class="st22" d="M151.6,26.2v0.6c0,1.5,1.2,2.7,2.7,2.7h4.2c1.5,0,2.7,1.2,2.7,2.7l0,0c0,1.5-1.2,2.7-2.7,2.7h-26
			c-1.5,0-2.7-1.2-2.7-2.7l0,0c0-1.5,1.2-2.7,2.7-2.7h3.6c1.5,0,2.7-1.2,2.7-2.7v-0.6c0-1.5-1.2-2.7-2.7-2.7h-15.7
			c-1.5,0-2.7-1.2-2.7-2.7l0,0c0-1.5,1.2-2.7,2.7-2.7h1.8c1.5,0,2.7-1.2,2.7-2.7v-1.2c0-1.5-1.2-2.7-2.7-2.7h-3.6
			c-1.5,0-2.7-1.2-2.7-2.7l0,0c0-1.5,1.2-2.7,2.7-2.7h26c1.5,0,2.7,1.2,2.7,2.7l0,0c0,1.5-1.2,2.7-2.7,2.7H138
			c-1.5,0-2.7,1.2-2.7,2.7v1.2c0,1.5,1.2,2.7,2.7,2.7h25.4c1.5,0,2.7,1.2,2.7,2.7l0,0c0,1.5-1.2,2.7-2.7,2.7h-9.1
			C152.9,23.5,151.6,24.7,151.6,26.2z"/>
	</g>
	<g style="clip-path:url(#SVGID_00000044140092452782515050000002833659458507428513_);">
		<rect class="st1" width="1100" height="250"/>
		<path class="st18" d="M928.2,172L928.2,172c-1.3,0-2.3-1-2.3-2.3v-11.4c0-1.3,1-2.3,2.3-2.3l0,0c1.3,0,2.3,1,2.3,2.3v11.4
			C930.5,171,929.4,172,928.2,172z"/>
	</g>
	<g style="clip-path:url(#SVGID_00000044140092452782515050000002833659458507428513_);">
		<rect class="st1" width="1100" height="250"/>
		<path class="st18" d="M928.2,218L928.2,218c-1.3,0-2.3-1-2.3-2.3v-34.4c0-1.3,1-2.3,2.3-2.3l0,0c1.3,0,2.3,1,2.3,2.3v34.4
			C930.5,217,929.4,218,928.2,218z"/>
	</g>
	<g style="clip-path:url(#SVGID_00000044140092452782515050000002833659458507428513_);">
		<rect class="st1" width="1100" height="250"/>
		<path class="st23" d="M1100,194.2V250H0v-55.8C151.5,222.3,342.5,227,550,227S948.5,222.3,1100,194.2z"/>
	</g>
	<g style="clip-path:url(#SVGID_00000044140092452782515050000002833659458507428513_);">
		<rect class="st1" width="1100" height="250"/>
		<path class="st22" d="M295.9,34.8v3c0,2.3-1.8,4.1-4.1,4.1h-64.4c-2.3,0-4.1-1.8-4.1-4.1v-3c0-2.3,1.8-4.1,4.1-4.1h6.9
			c2.3,0,4.1-1.8,4.1-4.1v-2.3c0-2.3-1.8-4.1-4.1-4.1h-16.2c-2.3,0-4.1-1.8-4.1-4.1v-3c0-2.3,1.8-4.1,4.1-4.1h64.4
			c2.3,0,4.1,1.8,4.1,4.1v3c0,2.3-1.8,4.1-4.1,4.1h-26.3c-2.3,0-4.1,1.8-4.1,4.1v2.3c0,2.3,1.8,4.1,4.1,4.1h35.7
			C294.1,30.7,295.9,32.6,295.9,34.8z"/>
	</g>
	<g style="clip-path:url(#SVGID_00000044140092452782515050000002833659458507428513_);">
		<rect class="st1" width="1100" height="250"/>
		<path class="st22" d="M617.6,48.8v2c0,3.3-2.7,6-6,6h-132c-3.3,0-6-2.7-6-6v-2c0-3.3,2.7-6,6-6h34c3.3,0,6-2.7,6-6l0,0
			c0-3.3-2.7-6-6-6h-65c-3.3,0-6-2.7-6-6l0,0c0-3.3,2.7-6,6-6h103c3.3,0,6,2.7,6,6l0,0c0,3.3-2.7,6-6,6h-3c-3.3,0-6,2.7-6,6l0,0
			c0,3.3,2.7,6,6,6h63C615,42.8,617.6,45.5,617.6,48.8z"/>
	</g>
	<g style="clip-path:url(#SVGID_00000044140092452782515050000002833659458507428513_);">
		<rect class="st1" width="1100" height="250"/>
		<path class="st22" d="M835,27.2v1.2c0,2,1.6,3.6,3.6,3.6h79.9c2,0,3.6-1.6,3.6-3.6v-1.2c0-2-1.6-3.6-3.6-3.6h-20.6
			c-2,0-3.6-1.6-3.6-3.6l0,0c0-2,1.6-3.6,3.6-3.6h39.3c2,0,3.6-1.6,3.6-3.6l0,0c0-2-1.6-3.6-3.6-3.6h-62.3c-2,0-3.6,1.6-3.6,3.6l0,0
			c0,2,1.6,3.6,3.6,3.6h1.8c2,0,3.6,1.6,3.6,3.6l0,0c0,2-1.6,3.6-3.6,3.6h-38.1C836.6,23.5,835,25.1,835,27.2z"/>
	</g>
	<g style="clip-path:url(#SVGID_00000044140092452782515050000002833659458507428513_);">
		<rect class="st1" width="1100" height="250"/>
		<path class="st22" d="M645.5,56h-15c-3.6,0-6.5-2.9-6.5-6.5l0,0c0-3.6,2.9-6.5,6.5-6.5h15c3.6,0,6.5,2.9,6.5,6.5l0,0
			C652,53.1,649.1,56,645.5,56z"/>
	</g>
	<g style="clip-path:url(#SVGID_00000044140092452782515050000002833659458507428513_);">
		<rect class="st1" width="1100" height="250"/>
		<path class="st22" d="M586.5,31h-15c-3.6,0-6.5-2.9-6.5-6.5l0,0c0-3.6,2.9-6.5,6.5-6.5h15c3.6,0,6.5,2.9,6.5,6.5l0,0
			C593,28.1,590.1,31,586.5,31z"/>
	</g>
	<g style="clip-path:url(#SVGID_00000044140092452782515050000002833659458507428513_);">
		<rect class="st1" width="1100" height="250"/>
		<path class="st22" d="M795.5,62h-17c-2.5,0-4.5-2-4.5-4.5l0,0c0-2.5,2-4.5,4.5-4.5h17c2.5,0,4.5,2,4.5,4.5l0,0
			C800,60,798,62,795.5,62z"/>
	</g>
	<g style="clip-path:url(#SVGID_00000044140092452782515050000002833659458507428513_);">
		<rect class="st1" width="1100" height="250"/>
		<path class="st22" d="M947.5,32h-17c-2.5,0-4.5-2-4.5-4.5l0,0c0-2.5,2-4.5,4.5-4.5h17c2.5,0,4.5,2,4.5,4.5l0,0
			C952,30,950,32,947.5,32z"/>
	</g>
	<g style="clip-path:url(#SVGID_00000044140092452782515050000002833659458507428513_);">
		<rect class="st1" width="1100" height="250"/>
		<path class="st22" d="M862.5,16h-14c-1.9,0-3.5-1.6-3.5-3.5l0,0c0-1.9,1.6-3.5,3.5-3.5h14c1.9,0,3.5,1.6,3.5,3.5l0,0
			C866,14.4,864.4,16,862.5,16z"/>
	</g>
	<g style="clip-path:url(#SVGID_00000044140092452782515050000002833659458507428513_);">
		<rect class="st1" width="1100" height="250"/>
		<path class="st22" d="M701.5,43h-13c-2.5,0-4.5-2-4.5-4.5l0,0c0-2.5,2-4.5,4.5-4.5h13c2.5,0,4.5,2,4.5,4.5l0,0
			C706,41,704,43,701.5,43z"/>
	</g>
	<g style="clip-path:url(#SVGID_00000044140092452782515050000002833659458507428513_);">
		<rect class="st1" width="1100" height="250"/>
		<path class="st22" d="M304,20h-6c-2.8,0-5-2.2-5-5v-1c0-2.8,2.2-5,5-5h6c2.8,0,5,2.2,5,5v1C309,17.8,306.8,20,304,20z"/>
	</g>
	<g style="clip-path:url(#SVGID_00000044140092452782515050000002833659458507428513_);">
		<rect class="st1" width="1100" height="250"/>
		<path class="st22" d="M416,83h-6c-2.8,0-5-2.2-5-5v-1c0-2.8,2.2-5,5-5h6c2.8,0,5,2.2,5,5v1C421,80.8,418.8,83,416,83z"/>
	</g>
	<g style="clip-path:url(#SVGID_00000044140092452782515050000002833659458507428513_);">
		<rect class="st1" width="1100" height="250"/>
		<path class="st22" d="M420,15h-7c-1.7,0-3-1.3-3-3l0,0c0-1.7,1.3-3,3-3h7c1.7,0,3,1.3,3,3l0,0C423,13.7,421.7,15,420,15z"/>
	</g>
	<g style="clip-path:url(#SVGID_00000044140092452782515050000002833659458507428513_);">
		<rect class="st1" width="1100" height="250"/>
		<path class="st22" d="M350,42h-7c-1.7,0-3-1.3-3-3l0,0c0-1.7,1.3-3,3-3h7c1.7,0,3,1.3,3,3l0,0C353,40.7,351.7,42,350,42z"/>
	</g>
	<g style="clip-path:url(#SVGID_00000044140092452782515050000002833659458507428513_);">
		<rect class="st1" width="1100" height="250"/>
		<path class="st22" d="M216,42h-6c-2.8,0-5-2.2-5-5v-1c0-2.8,2.2-5,5-5h6c2.8,0,5,2.2,5,5v1C221,39.8,218.8,42,216,42z"/>
	</g>
	<g style="clip-path:url(#SVGID_00000044140092452782515050000002833659458507428513_);">
		<path class="st24" d="M91.5,76.7L91.5,76.7L91.5,76.7c3.9-3.4,9.9-2.9,13.3,1v0l0,0C100.8,81.1,94.8,80.6,91.5,76.7z"/>
		<g>
			<g>
				<path class="st25" d="M101.2,76.9c-1.3-0.7-2.7-1.1-4.2-0.8c-0.6,0.1-1.3,0.3-1.8,0.6c-0.4,0.3,0,0.9,0.4,0.6
					c0.4-0.3,0.9-0.4,1.5-0.5c1.3-0.2,2.6,0.1,3.7,0.7C101.2,77.8,101.6,77.1,101.2,76.9L101.2,76.9z"/>
			</g>
		</g>
		<path class="st24" d="M90.9,76.5L90.9,76.5L90.9,76.5c1.3-5-1.7-10.2-6.7-11.5h0l0,0C82.8,70,85.8,75.2,90.9,76.5z"/>
		<g>
			<g>
				<path class="st25" d="M86,68.4c1.1,0.7,1.9,1.8,2.3,3c0.1,0.5,0.2,1,0.2,1.6c0,0.2,0.2,0.4,0.4,0.4c0.2,0,0.4-0.2,0.4-0.4
					c0-0.4,0-0.8-0.1-1.2C89,70.9,88.6,70,88,69.3c-0.5-0.6-1-1.1-1.6-1.5C86,67.5,85.6,68.2,86,68.4L86,68.4z"/>
			</g>
		</g>
		<path class="st26" d="M100.4,94.8c-1.9,3.2-4.3,5-6.8,6c-3.5,1.4-7.4,1.4-11,1.7c-6.3,0.6-7.1-1.4-9.7-6.8
			c-1.4-2.9-2.4-6.1-2.7-9.2c-0.4-3.5,0.1-6.9,1.8-9.6c4-6.2,11.6-7.3,14.5-5.7c2.3,1.2,2.7,2.8,3.6,4c0.2,0.3,0.5,0.6,0.9,0.8
			c1.1,0.7,2.1,0.8,3.2,1c1.1,0.2,2.4,0.5,4.2,1.6C101.4,80.6,106,85.5,100.4,94.8z"/>
		<g>
			<g>
				<path class="st27" d="M83.7,72.6c-1-0.1-2,0.1-2.9,0.3c-0.8,0.2-1.7,0.5-2.5,1c-1,0.6-1.8,1.3-2.5,2.3c-0.3,0.4-0.3,1-0.2,1.4
					c0.1,0.4,0.5,0.9,0.9,1.1c0.4,0.2,1,0.3,1.4,0.2c0.5-0.2,0.8-0.4,1.1-0.9c0.2-0.3-0.2,0.3-0.1,0.1c0-0.1,0.1-0.1,0.1-0.2
					c0.1-0.1,0.2-0.2,0.3-0.3c0.1-0.1,0.2-0.2,0.3-0.2c0,0,0.2-0.1,0.2-0.1c0,0-0.4,0.3-0.2,0.1c0.4-0.3,0.8-0.5,1.3-0.7
					c-0.1,0.1-0.3,0.1-0.4,0.2c0.7-0.3,1.4-0.5,2.2-0.6c-0.2,0-0.3,0-0.5,0.1c0.5-0.1,1-0.1,1.5-0.1c1,0.1,1.9-0.9,1.9-1.9
					C85.5,73.4,84.7,72.6,83.7,72.6L83.7,72.6z"/>
			</g>
		</g>
		<path class="st28" d="M93.6,100.8c-3.5,1.4-7.4,1.4-11,1.7c-6.3,0.6-7.1-1.4-9.7-6.8c-1.4-2.9-2.4-6.1-2.7-9.2
			c0.9,2.9,4.1,6.9,7.7,7.8c3.6,0.8,6.6-2.8,7-6.1c0.3,2.6-1.8,7.5-0.1,9.7C86,99.5,89.6,100.8,93.6,100.8z"/>
	</g>
	<g style="clip-path:url(#SVGID_00000044140092452782515050000002833659458507428513_);">
		<path class="st24" d="M323.3,133.2L323.3,133.2L323.3,133.2c2.7-2.4,6.9-2,9.2,0.7l0,0l0,0C329.8,136.2,325.7,135.9,323.3,133.2z"
			/>
		<g>
			<g>
				<path class="st25" d="M330.2,133.2c-0.9-0.5-1.9-0.8-3-0.6c-0.4,0.1-0.9,0.2-1.3,0.5c-0.4,0.3,0,0.9,0.4,0.6
					c0.1-0.1,0.2-0.1,0.3-0.1c0,0,0.1,0,0,0c0,0,0.1,0,0.1,0c0.1,0,0.1,0,0.2-0.1c0.1,0,0.3-0.1,0.4-0.1c0.8-0.2,1.7,0.1,2.5,0.5
					C330.2,134.1,330.6,133.4,330.2,133.2L330.2,133.2z"/>
			</g>
		</g>
		<path class="st24" d="M322.9,133L322.9,133L322.9,133c0.9-3.5-1.2-7.1-4.7-8l0,0v0C317.3,128.5,319.4,132.1,322.9,133z"/>
		<g>
			<g>
				<path class="st25" d="M319.5,127.5c0.4,0.3,0.8,0.6,1,1c0.1,0.2,0.2,0.4,0.3,0.6c0,0,0,0,0,0.1c0,0,0,0,0,0c0,0,0,0.1,0.1,0.1
					c0,0.1,0.1,0.2,0.1,0.2c0,0.2,0.1,0.3,0.1,0.5c0-0.1,0,0,0,0c0,0,0,0.1,0,0.1c0,0.1,0,0.1,0,0.2c0,0.1,0,0.2,0,0.3
					c0,0.2,0.2,0.4,0.4,0.4c0.2,0,0.4-0.2,0.4-0.4c0-0.3,0-0.6-0.1-0.9c-0.1-0.7-0.4-1.3-0.8-1.8c-0.3-0.4-0.7-0.8-1.2-1.1
					c-0.2-0.1-0.4,0-0.5,0.1C319.2,127.2,319.3,127.4,319.5,127.5L319.5,127.5z"/>
			</g>
		</g>
		<path class="st26" d="M329.6,145.8c-1.3,2.2-3,3.5-4.7,4.2c-2.4,1-5.1,1-7.6,1.2c-4.4,0.4-5-1-6.8-4.7c-1-2-1.7-4.2-1.9-6.4
			c-0.3-2.5,0.1-4.8,1.2-6.7c2.7-4.3,8.1-5,10.1-4c1.6,0.9,1.9,2,2.5,2.8c0.2,0.2,0.4,0.4,0.6,0.5c0.8,0.5,1.5,0.6,2.2,0.7
			c0.8,0.1,1.7,0.4,2.9,1.1C330.2,135.9,333.5,139.3,329.6,145.8z"/>
		<g>
			<g>
				<path class="st27" d="M317.9,130.3c-0.7,0-1.4,0.1-2,0.2c-0.6,0.1-1.2,0.4-1.7,0.7c-0.7,0.4-1.2,0.9-1.7,1.6
					c-0.2,0.2-0.2,0.7-0.1,1c0.1,0.3,0.3,0.6,0.6,0.7c0.3,0.2,0.6,0.2,1,0.1c0.3-0.1,0.5-0.3,0.7-0.6c0.1-0.2-0.2,0.2-0.1,0.1
					c0,0,0.1-0.1,0.1-0.1c0.1-0.1,0.1-0.1,0.2-0.2c0.1-0.1,0.1-0.1,0.2-0.2c0,0,0.1,0,0.1-0.1c0.2-0.1-0.1,0.1-0.1,0.1
					c0,0,0.2-0.1,0.2-0.1c0.1,0,0.1-0.1,0.2-0.1c0.1-0.1,0.3-0.2,0.4-0.2c0,0,0.1,0,0.1,0c0,0-0.3,0.1-0.2,0.1
					c0.1,0,0.1-0.1,0.2-0.1c0.1,0,0.3-0.1,0.4-0.1c0.3-0.1,0.5-0.1,0.8-0.2c-0.1,0-0.2,0-0.3,0c0.3,0,0.7-0.1,1-0.1
					c0.7,0,1.3-0.6,1.2-1.2C319.1,130.9,318.6,130.4,317.9,130.3L317.9,130.3z"/>
			</g>
		</g>
		<path class="st28" d="M324.8,149.9c-2.4,1-5.1,1-7.6,1.2c-4.4,0.4-5-1-6.8-4.7c-1-2-1.7-4.2-1.9-6.4c0.6,2,2.8,4.8,5.3,5.4
			c2.5,0.6,4.6-1.9,4.9-4.3c0.2,1.8-1.2,5.3,0,6.7C319.5,149,322.1,149.9,324.8,149.9z"/>
	</g>
	<g style="clip-path:url(#SVGID_00000044140092452782515050000002833659458507428513_);">
		<path class="st24" d="M170.3,67.7L170.3,67.7L170.3,67.7c3.9-3.4,9.9-2.9,13.3,1v0v0C179.6,72.1,173.7,71.6,170.3,67.7z"/>
		<g>
			<g>
				<path class="st25" d="M180,67.9c-1.3-0.7-2.7-1.1-4.2-0.8c-0.6,0.1-1.3,0.3-1.8,0.6c-0.4,0.3,0,0.9,0.4,0.6
					c0.4-0.3,0.9-0.4,1.5-0.5c1.3-0.2,2.6,0.1,3.7,0.7C180.1,68.8,180.4,68.1,180,67.9L180,67.9z"/>
			</g>
		</g>
		<path class="st24" d="M169.7,67.5L169.7,67.5L169.7,67.5c1.3-5-1.7-10.2-6.7-11.5l0,0v0C161.6,61,164.6,66.1,169.7,67.5z"/>
		<g>
			<g>
				<path class="st25" d="M164.8,59.4c1.1,0.7,1.9,1.8,2.3,3c0.1,0.5,0.2,1,0.2,1.6c0,0.2,0.2,0.4,0.4,0.4c0.2,0,0.4-0.2,0.4-0.4
					c0-0.4,0-0.8-0.1-1.2c-0.2-0.9-0.5-1.8-1.1-2.5c-0.5-0.6-1-1.1-1.6-1.5C164.8,58.5,164.4,59.2,164.8,59.4L164.8,59.4z"/>
			</g>
		</g>
		<path class="st29" d="M179.2,85.8c-1.9,3.2-4.3,5-6.8,6c-3.5,1.4-7.4,1.4-11,1.7c-6.3,0.6-7.1-1.4-9.7-6.8
			c-1.4-2.9-2.4-6.1-2.7-9.2c-0.4-3.5,0.1-6.9,1.8-9.6c4-6.2,11.6-7.3,14.5-5.7c2.3,1.2,2.7,2.8,3.6,4c0.2,0.3,0.5,0.6,0.9,0.8
			c1.1,0.7,2.1,0.8,3.2,1c1.1,0.2,2.4,0.5,4.2,1.6C180.2,71.6,184.8,76.5,179.2,85.8z"/>
		<g>
			<g>
				<path class="st27" d="M162.5,63.5c-1-0.1-2,0.1-2.9,0.3c-0.8,0.2-1.7,0.5-2.5,1c-1,0.6-1.8,1.3-2.5,2.3c-0.3,0.4-0.3,1-0.2,1.4
					c0.1,0.4,0.5,0.9,0.9,1.1c0.4,0.2,1,0.3,1.4,0.2c0.5-0.2,0.8-0.4,1.1-0.9c0.2-0.3-0.2,0.3-0.1,0.1c0-0.1,0.1-0.1,0.1-0.2
					c0.1-0.1,0.2-0.2,0.3-0.3c0.1-0.1,0.2-0.2,0.3-0.2c0,0,0.2-0.1,0.2-0.1c0,0-0.4,0.3-0.2,0.1c0.4-0.3,0.8-0.5,1.3-0.7
					c-0.1,0.1-0.3,0.1-0.4,0.2c0.7-0.3,1.4-0.5,2.2-0.6c-0.2,0-0.3,0-0.5,0.1c0.5-0.1,1-0.1,1.5-0.1c1,0.1,1.9-0.9,1.9-1.9
					C164.3,64.4,163.5,63.6,162.5,63.5L162.5,63.5z"/>
			</g>
		</g>
		<path class="st30" d="M172.4,91.8c-3.5,1.4-7.4,1.4-11,1.7c-6.3,0.6-7.1-1.4-9.7-6.8c-1.4-2.9-2.4-6.1-2.7-9.2
			c0.9,2.9,4.1,6.9,7.7,7.8c3.6,0.8,6.6-2.8,7-6.1c0.3,2.6-1.8,7.5-0.1,9.7C164.8,90.5,168.5,91.8,172.4,91.8z"/>
	</g>
	<g style="clip-path:url(#SVGID_00000044140092452782515050000002833659458507428513_);">
		<path class="st24" d="M163.2,105.8L163.2,105.8L163.2,105.8c1.8-3.5,6-4.8,9.5-3l0,0l0,0C171,106.3,166.7,107.6,163.2,105.8z"/>
		<g>
			<g>
				<path class="st25" d="M170.1,103.1c-1.5-0.2-3.1,0.2-4.1,1.3c-0.1,0.1-0.2,0.2-0.2,0.3c-0.1,0.2,0,0.4,0.1,0.5
					c0.2,0.1,0.4,0,0.5-0.1c0.1-0.1-0.1,0.1,0,0c0.1-0.1,0.1-0.1,0.2-0.2c0.1-0.1,0.2-0.2,0.3-0.3c0,0,0,0,0.1-0.1c0,0,0,0,0,0
					c0,0,0,0,0.1,0c0.1-0.1,0.1-0.1,0.2-0.2c0.8-0.5,1.7-0.7,2.7-0.5c0.2,0,0.4,0,0.5-0.3C170.4,103.4,170.3,103.2,170.1,103.1
					L170.1,103.1z"/>
			</g>
		</g>
		<path class="st24" d="M162.7,105.8L162.7,105.8L162.7,105.8c-0.5-3.9-4-6.6-7.9-6.1l0,0l0,0C155.3,103.6,158.9,106.3,162.7,105.8z
			"/>
		<g>
			<g>
				<path class="st25" d="M157,101.7c0.4,0.1,0.9,0.2,1.2,0.4c0.2,0.1,0.3,0.2,0.5,0.3c0,0,0.1,0.1,0,0c0,0,0,0,0,0
					c0,0,0.1,0.1,0.1,0.1c0.1,0.1,0.1,0.1,0.2,0.2c0.1,0.1,0.2,0.2,0.3,0.3c0,0.1,0,0,0,0c0,0,0,0.1,0.1,0.1c0,0.1,0.1,0.1,0.1,0.2
					c0.1,0.1,0.1,0.2,0.2,0.3c0,0,0,0.1,0.1,0.1c0,0,0,0,0,0.1c0,0,0,0.1,0,0c0-0.1,0,0,0,0.1c0,0,0,0.1,0,0.1c0,0,0,0,0,0.1
					c0.1,0.5,0.8,0.3,0.7-0.2c-0.3-1-1.1-1.9-1.9-2.4c-0.5-0.3-1-0.5-1.5-0.6c-0.2,0-0.4,0.1-0.5,0.3
					C156.7,101.4,156.8,101.6,157,101.7L157,101.7z"/>
			</g>
		</g>
		<path class="st29" d="M174.5,115.9c-0.4,2.8-1.6,4.7-3.1,6.1c-2.1,2-4.8,3-7.2,4.3c-4.2,2.2-5.4,1-8.7-2c-1.8-1.6-3.4-3.6-4.5-5.7
			c-1.3-2.3-1.9-4.9-1.4-7.2c1-5.5,6-8.3,8.5-8c1.9,0.2,2.6,1.2,3.6,1.7c0.3,0.1,0.5,0.2,0.8,0.3c1,0.2,1.7,0,2.5-0.2
			c0.8-0.2,1.8-0.3,3.4-0.1C171.2,105.7,175.8,107.9,174.5,115.9z"/>
		<g>
			<g>
				<path class="st27" d="M156.8,105.2c-1.4,0.5-2.7,1.4-3.6,2.7c-0.4,0.5-0.7,1.1-0.8,1.8c-0.2,0.6,0.2,1.4,0.9,1.5
					c0.7,0.1,1.4-0.2,1.5-0.9c0.1-0.2,0.1-0.4,0.2-0.6c0,0.1-0.1,0.2-0.1,0.3c0.2-0.4,0.3-0.7,0.6-1c-0.1,0.1-0.1,0.2-0.2,0.3
					c0.3-0.4,0.6-0.7,1-1c-0.1,0.1-0.2,0.1-0.3,0.2c0.5-0.4,1-0.7,1.6-0.9c-0.1,0-0.2,0.1-0.3,0.1c0.1,0,0.2-0.1,0.2-0.1
					c0.3-0.1,0.6-0.3,0.7-0.6c0.2-0.3,0.2-0.7,0.1-1C158.2,105.5,157.5,105,156.8,105.2L156.8,105.2z"/>
			</g>
		</g>
		<path class="st30" d="M171.5,122c-2.1,2-4.8,3-7.2,4.3c-4.2,2.2-5.4,1-8.7-2c-1.8-1.6-3.4-3.6-4.5-5.7c1.4,1.8,4.8,3.7,7.5,3.3
			c2.7-0.4,3.8-3.8,3.1-6.2c0.9,1.7,0.9,5.8,2.7,6.8C165.8,123.2,168.7,123.1,171.5,122z"/>
	</g>
	<g style="clip-path:url(#SVGID_00000044140092452782515050000002833659458507428513_);">
		<path class="st24" d="M209.4,103.2L209.4,103.2L209.4,103.2c0-3.4,2.8-6.2,6.3-6.2h0l0,0C215.6,100.4,212.8,103.2,209.4,103.2z"/>
		<g>
			<g>
				<path class="st25" d="M213.7,98.3c-1.3,0.4-2.3,1.4-2.7,2.7c0,0.1,0,0.2-0.1,0.3c0,0.2,0,0.4,0.3,0.5c0.2,0,0.4-0.1,0.5-0.3
					c0-0.1,0-0.1,0-0.2c0-0.1,0-0.1,0.1-0.2c0,0,0-0.1,0-0.1c0,0,0,0,0-0.1c0,0,0,0.1,0,0c0.1-0.2,0.2-0.4,0.4-0.7
					c0,0,0.1-0.1,0-0.1c0,0,0,0,0,0c0.1-0.1,0.1-0.1,0.2-0.2c0.1-0.1,0.2-0.2,0.4-0.3c0.1,0,0,0,0,0c0,0,0,0,0.1-0.1
					c0,0,0.1-0.1,0.1-0.1c0.1-0.1,0.2-0.1,0.3-0.2c0.2-0.1,0.4-0.2,0.6-0.3c0.2-0.1,0.3-0.3,0.3-0.5
					C214.1,98.3,213.9,98.2,213.7,98.3L213.7,98.3z"/>
			</g>
		</g>
		<path class="st24" d="M209,103.4L209,103.4L209,103.4c-1.9-2.8-5.8-3.6-8.7-1.6v0l0,0C202.3,104.6,206.1,105.3,209,103.4z"/>
		<g>
			<g>
				<path class="st25" d="M202.9,102.4c0.5-0.1,0.9-0.2,1.4-0.1c0.2,0,0.4,0.1,0.6,0.1c0.2,0.1,0.3,0.1,0.4,0.2
					c0.1,0.1,0.3,0.1,0.4,0.2c0.1,0,0.1,0.1,0.2,0.1c0,0,0,0,0.1,0c-0.1-0.1,0,0,0,0c0.1,0.1,0.2,0.1,0.2,0.2
					c0.3,0.4,0.9-0.2,0.5-0.5c-0.3-0.3-0.7-0.6-1.1-0.7c-0.9-0.4-1.9-0.5-2.9-0.2C202.2,101.8,202.4,102.6,202.9,102.4L202.9,102.4z
					"/>
			</g>
		</g>
		<path class="st29" d="M222.3,106.6c0.8,2.4,0.6,4.3,0,6c-0.8,2.4-2.5,4.3-3.9,6.2c-2.4,3.4-3.8,3-7.6,1.9c-2-0.5-4.1-1.4-5.8-2.6
			c-1.9-1.3-3.4-3.1-4-5.1c-1.4-4.7,1.4-8.9,3.4-9.7c1.6-0.6,2.6-0.1,3.5-0.1c0.3,0,0.5,0,0.8-0.1c0.8-0.3,1.3-0.7,1.9-1.2
			c0.6-0.5,1.3-1,2.6-1.4C215.6,99.9,220.1,99.7,222.3,106.6z"/>
		<g>
			<g>
				<path class="st27" d="M204,105.2c-1.4,1.4-2.1,3.5-1.7,5.5c0.1,0.6,0.9,1.1,1.5,0.9c0.7-0.2,1-0.9,0.9-1.5c0-0.1,0-0.2-0.1-0.3
					c0,0.1,0,0.2,0,0.3c0-0.3,0-0.7,0-1c0,0.1,0,0.2,0,0.3c0-0.2,0.1-0.4,0.1-0.6c0-0.1,0.2-0.6,0.2-0.6c0,0-0.1,0.3-0.1,0.2
					c0,0,0-0.1,0.1-0.1c0-0.1,0.1-0.2,0.1-0.2c0.1-0.1,0.2-0.3,0.2-0.4c0.1-0.1,0.1-0.2,0.2-0.3c0.1-0.1,0.3-0.3-0.1,0.1
					c0,0,0.1-0.1,0.1-0.1c0.1-0.1,0.1-0.1,0.2-0.2c0.5-0.5,0.5-1.3,0-1.8C205.2,104.8,204.4,104.7,204,105.2L204,105.2z"/>
			</g>
		</g>
		<path class="st30" d="M222.3,112.6c-0.8,2.4-2.5,4.3-3.9,6.2c-2.4,3.4-3.8,3-7.6,1.9c-2-0.5-4.1-1.4-5.8-2.6
			c1.8,0.8,5.2,1,7.2-0.5c2-1.4,1.5-4.5,0-6.2c1.4,1,3,4.2,4.8,4.2C218.4,115.8,220.6,114.6,222.3,112.6z"/>
	</g>
	<g style="clip-path:url(#SVGID_00000044140092452782515050000002833659458507428513_);">
		<path class="st24" d="M424.6,118.9L424.6,118.9L424.6,118.9c2.7-2.2,6.7-1.9,9,0.6v0l0,0C431,121.7,426.9,121.4,424.6,118.9z"/>
		<g>
			<g>
				<path class="st25" d="M431.3,118.9c-0.9-0.5-1.9-0.7-2.9-0.5c-0.4,0.1-0.9,0.2-1.3,0.4c-0.4,0.3,0,0.9,0.4,0.6c0,0,0,0,0.1,0
					c0,0,0.1,0,0.1,0c0,0,0.2-0.1,0.1,0c0.2-0.1,0.5-0.2,0.8-0.2c0.8-0.1,1.7,0,2.4,0.5C431.4,119.8,431.7,119.1,431.3,118.9
					L431.3,118.9z"/>
			</g>
		</g>
		<path class="st24" d="M424.2,118.7L424.2,118.7L424.2,118.7c0.9-3.2-1.2-6.5-4.6-7.4l0,0v0C418.7,114.6,420.8,117.9,424.2,118.7z"
			/>
		<g>
			<g>
				<path class="st25" d="M420.8,113.7c0.6,0.4,1.1,0.9,1.4,1.5c0,0,0,0.1,0,0c0,0,0,0.1,0,0.1c0,0.1,0,0.1,0.1,0.2
					c0,0.1,0.1,0.2,0.1,0.4c0,0,0,0.1,0,0.1c0,0,0-0.1,0,0c0,0,0,0.1,0,0.1c0,0.1,0,0.2,0,0.2c0,0.1,0,0.2,0,0.2
					c0,0.2,0.2,0.4,0.4,0.4c0.2,0,0.3-0.2,0.4-0.4c0-0.3,0-0.6-0.1-0.8c-0.1-0.6-0.4-1.2-0.8-1.7c-0.3-0.4-0.7-0.7-1.1-1
					C420.8,112.8,420.4,113.4,420.8,113.7L420.8,113.7z"/>
			</g>
		</g>
		<path class="st29" d="M430.7,130.6c-1.3,2.1-2.9,3.2-4.7,3.9c-2.4,0.9-5,0.9-7.5,1.1c-4.3,0.4-4.9-0.9-6.6-4.4
			c-0.9-1.8-1.6-3.9-1.9-5.9c-0.3-2.3,0.1-4.5,1.2-6.2c2.7-4,7.9-4.7,9.9-3.7c1.6,0.8,1.8,1.8,2.4,2.5c0.2,0.2,0.4,0.4,0.6,0.5
			c0.8,0.5,1.4,0.5,2.2,0.7c0.8,0.1,1.6,0.3,2.9,1C431.4,121.4,434.5,124.6,430.7,130.6z"/>
		<g>
			<g>
				<path class="st27" d="M419.3,116.2c-0.6,0-1.3,0.1-1.9,0.2c-1.2,0.3-2.4,0.9-3.2,1.8c-0.2,0.3-0.4,0.5-0.4,0.9
					c0,0.3,0.1,0.7,0.4,0.9c0.2,0.2,0.6,0.4,0.9,0.4c0.3,0,0.7-0.1,0.9-0.4c0.1-0.1,0.2-0.3,0.3-0.4c0.1-0.1,0.1-0.1,0.2-0.2
					c0,0,0.1-0.1,0.1-0.1c0,0-0.3,0.2-0.1,0.1c0.3-0.2,0.5-0.3,0.8-0.5c-0.1,0-0.2,0.1-0.3,0.1c0.5-0.2,1-0.3,1.6-0.4
					c-0.1,0-0.2,0-0.3,0c0.3,0,0.7-0.1,1-0.1c0.7,0,1.3-0.6,1.2-1.2C420.5,116.7,420,116.2,419.3,116.2L419.3,116.2z"/>
			</g>
		</g>
		<path class="st30" d="M426,134.4c-2.4,0.9-5,0.9-7.5,1.1c-4.3,0.4-4.9-0.9-6.6-4.4c-0.9-1.8-1.6-3.9-1.9-5.9
			c0.6,1.9,2.8,4.5,5.2,5c2.4,0.5,4.5-1.8,4.8-4c0.2,1.7-1.2,4.9,0,6.2C420.9,133.6,423.4,134.4,426,134.4z"/>
	</g>
	<g style="clip-path:url(#SVGID_00000044140092452782515050000002833659458507428513_);">
		<path class="st24" d="M390.7,147L390.7,147L390.7,147c-0.7-3,1.3-6.2,4.5-7l0,0l0,0C395.8,143,393.8,146.2,390.7,147z"/>
		<g>
			<g>
				<path class="st25" d="M393.6,141.5c-1.1,0.7-1.8,1.8-1.9,3.1c0,0.1,0,0.2,0,0.3c0,0.2,0.2,0.4,0.4,0.4c0.2,0,0.4-0.2,0.4-0.4
					c0-0.1,0-0.2,0-0.3c0,0,0-0.2,0-0.1c0-0.1,0-0.1,0-0.2c0-0.1,0.1-0.3,0.1-0.4c0-0.1,0-0.1,0.1-0.2c0,0,0,0,0,0c0,0,0,0,0-0.1
					c0,0,0-0.1,0.1-0.1c0.1-0.2,0.2-0.3,0.3-0.5c0.1-0.1,0.3-0.3,0.4-0.4c0.2-0.2,0.4-0.3,0.6-0.4c0.2-0.1,0.2-0.3,0.1-0.5
					C394,141.5,393.7,141.4,393.6,141.5L393.6,141.5z"/>
			</g>
		</g>
		<path class="st24" d="M390.3,147.2L390.3,147.2L390.3,147.2c-2.3-2-6-1.7-8.1,0.7l0,0l0,0C384.5,149.9,388.2,149.6,390.3,147.2z"
			/>
		<g>
			<g>
				<path class="st25" d="M384.7,147.9c0.4-0.2,0.8-0.4,1.3-0.5c0.2,0,0.3,0,0.5,0c0.2,0,0.3,0,0.4,0c0.1,0,0.3,0.1,0.4,0.1
					c0.1,0,0.1,0,0.2,0.1c0,0,0,0,0.1,0c0.1,0-0.1,0,0,0c0.1,0,0.2,0.1,0.3,0.1c0.4,0.3,0.8-0.4,0.4-0.6c-0.3-0.2-0.7-0.3-1.1-0.4
					c-0.9-0.2-1.9,0.1-2.7,0.5C383.9,147.5,384.2,148.2,384.7,147.9L384.7,147.9z"/>
			</g>
		</g>
		<path class="st29" d="M403,146.9c1.1,1.9,1.4,3.7,1.2,5.3c-0.3,2.3-1.4,4.4-2.3,6.5c-1.5,3.6-2.9,3.5-6.5,3.6
			c-1.9,0-4-0.3-5.8-0.9c-2-0.7-3.7-1.9-4.6-3.5c-2.2-3.8-0.5-8.3,1.2-9.4c1.3-0.9,2.3-0.7,3.2-0.9c0.2-0.1,0.5-0.1,0.7-0.3
			c0.7-0.4,1.1-0.9,1.5-1.5c0.4-0.6,1-1.2,2.1-1.9C395.7,142.6,399.7,141.3,403,146.9z"/>
		<g>
			<g>
				<path class="st27" d="M386,150c-0.3,0.5-0.5,1.1-0.7,1.7c-0.1,0.5-0.2,1.1-0.2,1.6c0,0.7,0.2,1.4,0.5,2c0.1,0.3,0.5,0.5,0.7,0.6
					c0.3,0.1,0.7,0,1-0.1c0.6-0.4,0.7-1.1,0.4-1.7c0-0.1-0.1-0.1-0.1-0.2c0,0.1,0.1,0.2,0.1,0.3c-0.1-0.3-0.2-0.5-0.2-0.8
					c0,0.1,0,0.2,0,0.3c0-0.4,0-0.7,0-1.1c0,0.1,0,0.2,0,0.3c0.1-0.5,0.2-1,0.4-1.4c0,0.1-0.1,0.2-0.1,0.3c0.1-0.2,0.2-0.4,0.3-0.6
					c0.3-0.6,0.1-1.4-0.4-1.7C387.1,149.2,386.4,149.4,386,150L386,150z"/>
			</g>
		</g>
		<path class="st30" d="M404.2,152.2c-0.3,2.3-1.4,4.4-2.3,6.5c-1.5,3.6-2.9,3.5-6.5,3.6c-1.9,0-4-0.3-5.8-0.9
			c1.8,0.3,4.9-0.4,6.4-2.2c1.5-1.7,0.5-4.3-1.2-5.4c1.5,0.5,3.5,3,5.2,2.6C401.3,156,403.1,154.3,404.2,152.2z"/>
	</g>
	<g style="clip-path:url(#SVGID_00000044140092452782515050000002833659458507428513_);">
		<path class="st24" d="M445.2,145.6l-2.2,0l0-1.8c0-2.2,1.8-4,4-4l2.2,0l0,1.8C449.2,143.8,447.4,145.6,445.2,145.6z"/>
		<g>
			<g>
				<path class="st25" d="M447.3,141c-1.2,0.4-2.3,1.3-2.7,2.6c0,0.1,0,0.2-0.1,0.2c0,0.2,0,0.4,0.3,0.5c0.2,0,0.4-0.1,0.5-0.3
					c0-0.1,0-0.1,0-0.2c0-0.1,0-0.1,0.1-0.2c0,0,0-0.1,0-0.1c0-0.1,0,0.1,0,0c0,0,0-0.1,0-0.1c0-0.1,0.1-0.2,0.2-0.3
					c0,0,0.1-0.1,0.1-0.1c0,0,0-0.1,0.1-0.1c0,0,0.1-0.1,0-0.1c0,0,0,0,0-0.1c0,0,0-0.1,0.1-0.1c0.1-0.1,0.1-0.1,0.2-0.2
					c0.1-0.1,0.1-0.1,0.2-0.1c0,0,0.1-0.1,0.1-0.1c0,0,0.1,0,0,0c0,0,0,0,0,0c0.2-0.1,0.3-0.2,0.5-0.3c0.1,0,0.1-0.1,0.2-0.1
					c0,0,0,0,0.1,0c0,0,0,0,0,0c0,0,0,0,0,0c0.1,0,0.2-0.1,0.4-0.1c0.2-0.1,0.3-0.3,0.3-0.5C447.7,141,447.5,140.9,447.3,141
					L447.3,141z"/>
			</g>
		</g>
		<path class="st24" d="M442.6,145.8L442.6,145.8L442.6,145.8c-1.9-2.7-5.8-3.4-8.6-1.5h0l0,0C435.9,147,439.8,147.6,442.6,145.8z"
			/>
		<g>
			<g>
				<path class="st25" d="M436.5,145c0.5-0.1,0.9-0.2,1.4-0.1c0.2,0,0.4,0.1,0.5,0.1c0.1,0,0.2,0.1,0.2,0.1c0,0,0.1,0,0.1,0
					c0,0,0,0,0,0c0,0,0,0,0.1,0c0.2,0.1,0.5,0.2,0.7,0.4c-0.1-0.1,0,0,0,0c0,0,0.1,0,0.1,0.1c0,0,0,0,0.1,0.1
					c0.3,0.3,0.9-0.2,0.5-0.5c-0.3-0.3-0.7-0.5-1.1-0.7c-0.9-0.4-1.9-0.4-2.9-0.2C435.8,144.3,436,145.1,436.5,145L436.5,145z"/>
			</g>
		</g>
		<path class="st29" d="M455.8,148.8c0.8,2.2,0.6,4,0,5.7c-0.8,2.2-2.5,4-3.9,5.9c-2.4,3.2-3.8,2.8-7.6,1.8c-2-0.5-4.1-1.4-5.8-2.5
			c-1.9-1.3-3.4-2.9-4-4.8c-1.4-4.4,1.4-8.4,3.4-9.1c1.6-0.6,2.6-0.1,3.5-0.1c0.3,0,0.5,0,0.8-0.1c0.8-0.2,1.3-0.6,1.9-1.1
			c0.6-0.4,1.3-0.9,2.6-1.3C449.2,142.5,453.6,142.4,455.8,148.8z"/>
		<g>
			<g>
				<path class="st27" d="M437.6,147.5c-0.4,0.4-0.8,1-1.1,1.5c-0.6,1.1-0.9,2.4-0.6,3.7c0.2,0.6,0.9,1.1,1.5,0.9
					c0.7-0.2,1-0.9,0.9-1.5c0-0.1,0-0.2-0.1-0.4c0,0.1,0,0.2,0,0.3c0-0.3,0-0.6,0-0.9c0,0.1,0,0.2,0,0.3c0.1-0.4,0.2-0.7,0.3-1.1
					c0,0.1-0.1,0.2-0.1,0.3c0.2-0.4,0.4-0.9,0.7-1.2c-0.1,0.1-0.1,0.2-0.2,0.3c0.1-0.2,0.3-0.3,0.4-0.5c0.5-0.5,0.5-1.3,0-1.8
					C438.8,147,438.1,147,437.6,147.5L437.6,147.5z"/>
			</g>
		</g>
		<path class="st30" d="M455.9,154.5c-0.8,2.2-2.5,4-3.9,5.9c-2.4,3.2-3.8,2.8-7.6,1.8c-2-0.5-4.1-1.4-5.8-2.5
			c1.8,0.8,5.2,0.9,7.2-0.4c2-1.3,1.5-4.2,0-5.8c1.4,0.9,3,3.9,4.8,4C451.9,157.5,454.2,156.3,455.9,154.5z"/>
	</g>
	<g style="clip-path:url(#SVGID_00000044140092452782515050000002833659458507428513_);">
		<path class="st24" d="M698.2,95.8L698.2,95.8L698.2,95.8c2.7-2.2,6.7-1.9,9,0.6v0l0,0C704.6,98.6,700.5,98.4,698.2,95.8z"/>
		<g>
			<g>
				<path class="st25" d="M704.9,95.8c-0.9-0.5-1.9-0.7-2.9-0.5c-0.4,0.1-0.9,0.2-1.3,0.4c-0.4,0.3,0,0.9,0.4,0.6c0,0,0,0,0.1,0
					c0,0,0.1,0,0.1,0c0,0,0.2-0.1,0.1,0c0.2-0.1,0.5-0.2,0.8-0.2c0.8-0.1,1.7,0,2.4,0.5C705,96.7,705.4,96.1,704.9,95.8L704.9,95.8z
					"/>
			</g>
		</g>
		<path class="st24" d="M697.8,95.7L697.8,95.7L697.8,95.7c0.9-3.2-1.2-6.5-4.6-7.4h0v0C692.3,91.5,694.4,94.8,697.8,95.7z"/>
		<g>
			<g>
				<path class="st25" d="M694.4,90.6c0.6,0.4,1.1,0.9,1.4,1.5c0,0,0,0.1,0,0c0,0,0,0.1,0,0.1c0,0.1,0,0.1,0.1,0.2
					c0,0.1,0.1,0.2,0.1,0.4c0,0,0,0.1,0,0.1c0,0,0-0.1,0,0c0,0,0,0.1,0,0.1c0,0.1,0,0.2,0,0.2c0,0.1,0,0.2,0,0.2
					c0,0.2,0.2,0.4,0.4,0.4c0.2,0,0.3-0.2,0.4-0.4c0-0.3,0-0.6-0.1-0.8c-0.1-0.6-0.4-1.2-0.8-1.7c-0.3-0.4-0.7-0.7-1.1-1
					C694.4,89.7,694,90.3,694.4,90.6L694.4,90.6z"/>
			</g>
		</g>
		<path class="st29" d="M704.3,107.5c-1.3,2.1-2.9,3.2-4.7,3.9c-2.4,0.9-5,0.9-7.5,1.1c-4.3,0.4-4.9-0.9-6.6-4.4
			c-0.9-1.8-1.6-3.9-1.9-5.9c-0.3-2.3,0.1-4.5,1.2-6.2c2.7-4,7.9-4.7,9.9-3.7c1.6,0.8,1.8,1.8,2.4,2.5c0.2,0.2,0.4,0.4,0.6,0.5
			c0.8,0.5,1.4,0.5,2.2,0.7c0.8,0.1,1.6,0.3,2.9,1C705,98.3,708.2,101.5,704.3,107.5z"/>
		<g>
			<g>
				<path class="st27" d="M692.9,93.1c-0.6,0-1.3,0.1-1.9,0.2c-1.2,0.3-2.4,0.9-3.2,1.8c-0.2,0.3-0.4,0.5-0.4,0.9
					c0,0.3,0.1,0.7,0.4,0.9c0.2,0.2,0.6,0.4,0.9,0.4c0.3,0,0.7-0.1,0.9-0.4c0.1-0.1,0.2-0.3,0.3-0.4c0.1-0.1,0.1-0.1,0.2-0.2
					c0,0,0.1-0.1,0.1-0.1c0,0-0.3,0.2-0.1,0.1c0.3-0.2,0.5-0.3,0.8-0.5c-0.1,0-0.2,0.1-0.3,0.1c0.5-0.2,1-0.3,1.6-0.4
					c-0.1,0-0.2,0-0.3,0c0.3,0,0.7-0.1,1-0.1c0.7,0,1.3-0.6,1.2-1.2C694.1,93.6,693.6,93.1,692.9,93.1L692.9,93.1z"/>
			</g>
		</g>
		<path class="st30" d="M699.7,111.3c-2.4,0.9-5,0.9-7.5,1.1c-4.3,0.4-4.9-0.9-6.6-4.4c-0.9-1.8-1.6-3.9-1.9-5.9
			c0.6,1.9,2.8,4.5,5.2,5c2.4,0.5,4.5-1.8,4.8-4c0.2,1.7-1.2,4.9,0,6.2C694.5,110.5,697,111.4,699.7,111.3z"/>
	</g>
	<g style="clip-path:url(#SVGID_00000044140092452782515050000002833659458507428513_);">
		<path class="st24" d="M634.9,116.8l-4.8,0l0-4.3c0-2.2,1.8-4,4-4l4.8,0l0,4.3C638.9,115,637.1,116.8,634.9,116.8z"/>
		<g>
			<g>
				<path class="st25" d="M636.2,110.3c-1.7,0.5-3.2,1.8-3.7,3.5c0,0.1-0.1,0.2-0.1,0.4c0,0.2,0,0.4,0.3,0.5c0.2,0,0.4-0.1,0.5-0.3
					c0-0.1,0-0.2,0.1-0.3c0-0.1,0.1-0.2,0.1-0.3c0-0.1,0-0.1,0.1-0.2c0-0.1,0,0.1,0,0c0,0,0-0.1,0-0.1c0.1-0.1,0.1-0.3,0.2-0.4
					c0-0.1,0.1-0.1,0.1-0.2c0-0.1,0.1-0.2,0.2-0.2c0.2-0.3,0.6-0.6,0.9-0.9c0.5-0.4,1-0.6,1.6-0.8
					C636.9,110.9,636.7,110.2,636.2,110.3L636.2,110.3z"/>
			</g>
		</g>
		<path class="st24" d="M629.5,117L629.5,117L629.5,117c-2.7-3.8-8.2-4.7-12.2-2.2v0v0C620.1,118.7,625.5,119.6,629.5,117z"/>
		<g>
			<g>
				<path class="st25" d="M620.9,115.7c1.2-0.3,2.4-0.3,3.5,0.2c0.3,0.2,0.7,0.3,0.9,0.6c-0.1-0.1,0,0,0.1,0.1c0,0,0.1,0.1,0.1,0.1
					c0,0,0.1,0.1,0.1,0.1c0.3,0.3,0.9-0.2,0.5-0.5c-0.4-0.4-0.9-0.7-1.5-1c-1.3-0.6-2.7-0.6-4-0.2
					C620.2,115.1,620.4,115.8,620.9,115.7L620.9,115.7z"/>
			</g>
		</g>
		<path class="st29" d="M648.3,121.3c1.1,3.1,0.9,5.7,0,8c-1.2,3.2-3.5,5.7-5.5,8.3c-3.4,4.5-5.4,3.9-10.8,2.6
			c-2.9-0.7-5.8-1.9-8.2-3.5c-2.7-1.8-4.8-4.1-5.7-6.8c-2-6.2,2-11.9,4.8-13c2.3-0.8,3.6-0.1,5-0.1c0.4,0,0.7,0,1.1-0.1
			c1.2-0.3,1.9-0.9,2.7-1.5c0.8-0.6,1.8-1.3,3.7-1.9C638.9,112.4,645.2,112.2,648.3,121.3z"/>
		<g>
			<g>
				<path class="st27" d="M622.8,119.8c-0.6,0.6-1.1,1.3-1.5,2c-0.8,1.5-1.2,3.2-0.8,4.9c0.2,0.6,0.9,1.1,1.5,0.9
					c0.7-0.2,1-0.9,0.9-1.5c0-0.1,0-0.2-0.1-0.3c-0.1-0.3,0,0.2,0,0c0-0.2,0-0.3,0-0.5c0-0.1,0-0.2,0-0.3c0,0,0-0.1,0-0.1
					c0-0.1,0-0.1,0,0.1c0-0.1,0.1-0.3,0.1-0.5c0.1-0.3,0.2-0.6,0.3-0.9c-0.1,0.3-0.1,0.1,0,0c0-0.1,0.1-0.1,0.1-0.2
					c0.1-0.1,0.1-0.3,0.2-0.4c0.1-0.2,0.3-0.5,0.4-0.7c0.1-0.1,0.1-0.2,0.2-0.3c-0.3,0.4,0,0.1,0,0c0.1-0.1,0.2-0.3,0.4-0.4
					c0.5-0.5,0.5-1.3,0-1.8C624.1,119.3,623.3,119.3,622.8,119.8L622.8,119.8z"/>
			</g>
		</g>
		<path class="st30" d="M648.4,129.3c-1.2,3.2-3.5,5.7-5.5,8.3c-3.4,4.5-5.4,3.9-10.8,2.6c-2.9-0.7-5.8-1.9-8.2-3.5
			c2.6,1.1,7.4,1.3,10.2-0.6c2.8-1.9,2.1-6-0.1-8.2c2,1.3,4.2,5.5,6.8,5.7C642.8,133.6,646,131.9,648.4,129.3z"/>
	</g>
	<g style="clip-path:url(#SVGID_00000044140092452782515050000002833659458507428513_);">
		<path class="st24" d="M948,76.1L948,76.1L948,76.1c3.8-3.1,9.4-2.7,12.7,0.9v0v0C956.9,80.1,951.2,79.7,948,76.1z"/>
		<g>
			<g>
				<path class="st25" d="M957.3,76.3c-1.2-0.7-2.6-1-4-0.7c-0.6,0.1-1.2,0.3-1.7,0.6c-0.4,0.3,0,0.9,0.4,0.6
					c0.4-0.3,0.9-0.4,1.4-0.5c1.2-0.2,2.5,0.1,3.5,0.7C957.3,77.2,957.7,76.5,957.3,76.3L957.3,76.3z"/>
			</g>
		</g>
		<path class="st24" d="M947.4,75.9L947.4,75.9L947.4,75.9c1.3-4.5-1.6-9.2-6.4-10.4l0,0v0C939.7,70.1,942.6,74.7,947.4,75.9z"/>
		<g>
			<g>
				<path class="st25" d="M942.7,68.7c0.8,0.5,1.5,1.2,2,2.1c0.1,0.3,0.2,0.6,0.3,1c0,0.1,0,0.1,0,0.2c0,0,0,0,0,0c0,0,0,0.1,0,0.1
					c0,0.1,0,0.2,0,0.3c0,0.1,0,0.2,0,0.3c0,0.2,0.2,0.4,0.4,0.4c0.2,0,0.3-0.2,0.4-0.4c0-0.4,0-0.8-0.1-1.1
					c-0.2-0.9-0.5-1.6-1.1-2.3c-0.4-0.5-1-1-1.5-1.3C942.7,67.8,942.3,68.4,942.7,68.7L942.7,68.7z"/>
			</g>
		</g>
		<path class="st29" d="M956.5,92.5c-1.8,2.9-4.1,4.5-6.5,5.4c-3.4,1.3-7.1,1.2-10.5,1.6c-6,0.6-6.8-1.3-9.3-6.1
			c-1.3-2.6-2.3-5.5-2.6-8.3c-0.4-3.2,0.1-6.3,1.7-8.7c3.8-5.6,11.1-6.6,13.8-5.1c2.2,1.1,2.5,2.5,3.4,3.6c0.2,0.3,0.5,0.5,0.8,0.7
			c1.1,0.6,2,0.7,3.1,0.9c1.1,0.2,2.3,0.5,4,1.5C957.4,79.6,961.9,84.1,956.5,92.5z"/>
		<g>
			<g>
				<path class="st27" d="M940.5,72.8c-0.9,0-1.8,0.1-2.6,0.3c-1.6,0.4-3.2,1.2-4.2,2.5c-0.2,0.3-0.4,0.5-0.4,0.9
					c0,0.3,0.1,0.7,0.4,0.9c0.4,0.4,1.3,0.6,1.8,0c0.2-0.3,0.5-0.6,0.8-0.8c0.1-0.1,0.1-0.1-0.1,0.1c0,0,0.1-0.1,0.1-0.1
					c0.1,0,0.1-0.1,0.2-0.1c0.1-0.1,0.3-0.2,0.4-0.3c0.1,0,0.2-0.1,0.3-0.1c0.1,0,0.4-0.1,0,0c0.2,0,0.3-0.1,0.5-0.2
					c0.3-0.1,0.6-0.2,0.9-0.3c0.1,0,0.3-0.1,0.4-0.1c0.1,0,0.1,0,0.2,0c0.2,0-0.4,0-0.1,0c0.2,0,0.4,0,0.7-0.1c0.2,0,0.4,0,0.6,0
					c0.7,0,1.3-0.6,1.2-1.2C941.7,73.4,941.2,72.9,940.5,72.8L940.5,72.8z"/>
			</g>
		</g>
		<path class="st30" d="M950,97.9c-3.4,1.3-7.1,1.2-10.5,1.6c-6,0.6-6.8-1.3-9.3-6.1c-1.3-2.6-2.3-5.5-2.6-8.3
			c0.9,2.6,3.9,6.3,7.3,7c3.4,0.8,6.3-2.5,6.7-5.6c0.3,2.3-1.7,6.8-0.1,8.8C942.7,96.7,946.2,97.9,950,97.9z"/>
	</g>
	<g style="clip-path:url(#SVGID_00000044140092452782515050000002833659458507428513_);">
		<path class="st24" d="M895.6,94.8l-7.9,0l0-7.2c0-2.2,1.8-4,4-4l7.9,0l0,7.2C899.6,93.1,897.8,94.8,895.6,94.8z"/>
		<g>
			<g>
				<path class="st25" d="M896,86.2c-2.3,0.7-4.2,2.4-5,4.7c0,0.2-0.1,0.3-0.1,0.5c0,0.2,0.1,0.4,0.3,0.5c0.2,0.1,0.4-0.1,0.5-0.3
					c0-0.1,0-0.2,0.1-0.3c0.1-0.3,0.2-0.6,0.3-0.8c0.4-0.9,1.1-1.7,1.9-2.4c0.7-0.5,1.4-0.9,2.2-1.1C896.7,86.8,896.5,86.1,896,86.2
					L896,86.2z"/>
			</g>
		</g>
		<path class="st24" d="M886.9,95.2L886.9,95.2L886.9,95.2c-3.7-5.1-11.1-6.4-16.6-2.9v0v0C874.1,97.4,881.5,98.7,886.9,95.2z"/>
		<g>
			<g>
				<path class="st25" d="M875.2,93.2c1.6-0.4,3.3-0.4,4.9,0.3c0.6,0.3,1.2,0.6,1.7,1.1c0.3,0.3,0.9-0.2,0.5-0.5
					c-0.5-0.6-1.3-1-2-1.3c-1.7-0.7-3.5-0.8-5.3-0.3C874.5,92.6,874.7,93.3,875.2,93.2L875.2,93.2z"/>
			</g>
		</g>
		<path class="st29" d="M912.4,101c1.5,4.3,1.2,7.8,0.1,10.9c-1.6,4.3-4.8,7.8-7.5,11.3c-4.6,6.2-7.3,5.3-14.6,3.5
			c-3.9-1-7.8-2.6-11.1-4.8c-3.7-2.4-6.6-5.5-7.7-9.2c-2.7-8.5,2.7-16.2,6.6-17.6c3.1-1.1,4.9-0.2,6.8-0.1c0.5,0,1,0,1.5-0.2
			c1.6-0.5,2.5-1.2,3.7-2.1c1.1-0.9,2.5-1.8,5-2.5C899.6,88.9,908.2,88.5,912.4,101z"/>
		<g>
			<g>
				<path class="st27" d="M878.1,99.2c-0.8,0.8-1.4,1.7-1.9,2.6c-1.1,1.9-1.5,4.1-1,6.3c0.2,0.6,0.9,1.1,1.5,0.9
					c0.7-0.2,1-0.9,0.9-1.5c0-0.1-0.1-0.3-0.1-0.4c0-0.1,0-0.1,0-0.2c0,0.1,0,0.1,0,0c0-0.2,0-0.4,0-0.7c0-0.1,0-0.3,0-0.4
					c0-0.1,0.1-0.5,0-0.1c0-0.2,0.1-0.4,0.1-0.6c0.1-0.4,0.2-0.8,0.4-1.2c-0.1,0.3,0,0,0-0.1c0-0.1,0.1-0.2,0.1-0.3
					c0.1-0.2,0.2-0.4,0.3-0.5c0.2-0.3,0.4-0.6,0.6-0.9c0.1-0.1,0.2-0.3,0.3-0.3c-0.3,0.2-0.1,0.1,0,0c0-0.1,0.1-0.1,0.1-0.2
					c0.2-0.2,0.3-0.4,0.5-0.6c0.5-0.5,0.5-1.3,0-1.8C879.4,98.7,878.6,98.7,878.1,99.2L878.1,99.2z"/>
			</g>
		</g>
		<path class="st30" d="M912.5,111.8c-1.6,4.3-4.8,7.8-7.5,11.3c-4.6,6.2-7.3,5.3-14.6,3.5c-3.9-1-7.8-2.6-11.1-4.8
			c3.5,1.5,10,1.7,13.8-0.8c3.8-2.6,2.8-8.1-0.1-11.1c2.7,1.7,5.8,7.5,9.2,7.7C904.9,117.6,909.2,115.4,912.5,111.8z"/>
	</g>
	<g style="clip-path:url(#SVGID_00000044140092452782515050000002833659458507428513_);">
		<path class="st24" d="M1068.8,34.1L1068.8,34.1L1068.8,34.1c4.4-3.6,11-3.1,14.8,1l0,0l0,0C1079.2,38.7,1072.5,38.3,1068.8,34.1z"
			/>
		<g>
			<g>
				<path class="st25" d="M1079.6,34.3c-1.4-0.8-3-1.1-4.6-0.9c-0.7,0.1-1.4,0.3-2,0.7c-0.4,0.3,0,0.9,0.4,0.6
					c0.5-0.3,1.1-0.5,1.7-0.6c1.4-0.3,2.9,0.1,4.2,0.8C1079.7,35.2,1080,34.6,1079.6,34.3L1079.6,34.3z"/>
			</g>
		</g>
		<path class="st24" d="M1068.1,33.9L1068.1,33.9L1068.1,33.9c1.5-5.3-1.9-10.7-7.5-12.1l0,0v0C1059.1,27,1062.5,32.5,1068.1,33.9z"
			/>
		<g>
			<g>
				<path class="st25" d="M1062.7,25.3c1,0.6,1.8,1.5,2.3,2.5c0.3,0.6,0.4,1.3,0.4,2c0,0.1,0,0.3,0,0.4c0,0.2,0.2,0.4,0.4,0.4
					c0.2,0,0.3-0.2,0.4-0.4c0.1-0.4,0-0.9-0.1-1.3c-0.2-1-0.6-1.9-1.2-2.7c-0.5-0.6-1.1-1.1-1.8-1.5
					C1062.6,24.4,1062.3,25.1,1062.7,25.3L1062.7,25.3z"/>
			</g>
		</g>
		<path class="st29" d="M1078.7,53.2c-2.2,3.4-4.8,5.2-7.6,6.3c-3.9,1.5-8.3,1.5-12.3,1.8c-7,0.7-8-1.5-10.9-7.2
			c-1.6-3-2.7-6.4-3.1-9.7c-0.4-3.7,0.1-7.3,2-10.1c4.4-6.6,12.9-7.7,16.2-6c2.6,1.3,3,3,4,4.2c0.3,0.3,0.6,0.6,1,0.8
			c1.3,0.7,2.3,0.9,3.6,1.1c1.3,0.2,2.7,0.6,4.7,1.7C1079.8,38.2,1085,43.4,1078.7,53.2z"/>
		<g>
			<g>
				<path class="st27" d="M1060,30.5c-1-0.1-2,0.1-3,0.3c-1.8,0.4-3.7,1.3-4.8,2.8c-0.4,0.5-0.5,1.3,0,1.8c0.4,0.4,1.3,0.6,1.8,0
					c0.3-0.4,0.6-0.7,1-1c0.1-0.1,0.1-0.1,0,0c0,0,0.1-0.1,0.1-0.1c0.1-0.1,0.1-0.1,0.2-0.1c0.2-0.1,0.3-0.2,0.5-0.3
					c0.1-0.1,0.2-0.1,0.3-0.2c0.1,0,0.1,0,0.2-0.1c0.1-0.1,0.1,0-0.1,0c0.1-0.1,0.4-0.2,0.5-0.2c0.4-0.1,0.7-0.2,1.1-0.3
					c0.2,0,0.3-0.1,0.5-0.1c0.1,0,0.1,0,0.2,0c0.2,0-0.3,0,0,0c0.3,0,0.5-0.1,0.8-0.1c0.2,0,0.5,0,0.7,0c0.7,0,1.3-0.6,1.2-1.2
					C1061.3,31,1060.7,30.5,1060,30.5L1060,30.5z"/>
			</g>
		</g>
		<path class="st30" d="M1071.1,59.6c-3.9,1.5-8.3,1.5-12.3,1.8c-7,0.7-8-1.5-10.9-7.2c-1.6-3-2.7-6.4-3.1-9.7c1,3,4.6,7.3,8.6,8.2
			c4,0.9,7.3-2.9,7.8-6.5c0.3,2.7-2,8-0.1,10.2C1062.6,58.2,1066.7,59.6,1071.1,59.6z"/>
	</g>
	<g style="clip-path:url(#SVGID_00000044140092452782515050000002833659458507428513_);">
		<path class="st24" d="M1020.3,72.2l-6.4,1l-0.9-5.8c-0.4-2.2,1.1-4.3,3.3-4.6l6.4-1l0.9,5.8C1024,69.7,1022.5,71.8,1020.3,72.2z"
			/>
		<g>
			<g>
				<path class="st25" d="M1019.8,64.5c-1.9,1-3.3,2.7-3.6,4.8c0,0.1,0,0.3,0,0.4c0,0.5,0.8,0.5,0.8,0c0-0.1,0-0.2,0-0.3
					c0,0,0,0,0-0.1c0-0.1,0,0.1,0,0c0-0.1,0-0.1,0-0.2c0-0.2,0.1-0.3,0.1-0.5c0.2-0.9,0.7-1.6,1.3-2.3c0.5-0.5,1.1-1,1.8-1.3
					C1020.6,64.9,1020.3,64.3,1019.8,64.5L1019.8,64.5z"/>
			</g>
		</g>
		<path class="st24" d="M1013.3,73.6L1013.3,73.6L1013.3,73.6c-4-3.9-10.6-4-14.8-0.1l0,0v0C1002.5,77.4,1009.1,77.5,1013.3,73.6z"
			/>
		<g>
			<g>
				<path class="st25" d="M1002.8,73.6c1.3-0.6,2.8-0.8,4.2-0.4c0.6,0.1,1.1,0.4,1.6,0.7c0.4,0.3,0.8-0.4,0.4-0.6
					c-0.5-0.4-1.3-0.7-1.9-0.8c-1.6-0.4-3.2-0.1-4.7,0.5C1002,73.2,1002.4,73.8,1002.8,73.6L1002.8,73.6z"/>
			</g>
		</g>
		<path class="st29" d="M1036.3,75c1.9,3.5,2.2,6.6,1.6,9.4c-0.7,3.9-3.1,7.4-4.8,10.9c-3.1,6-5.6,5.7-12.2,5.1
			c-3.5-0.3-7.2-1.1-10.3-2.5c-3.6-1.6-6.5-3.8-8-6.8c-3.6-7,0-14.4,3.2-16.2c2.5-1.4,4.2-0.9,5.8-1.1c0.4-0.1,0.8-0.2,1.3-0.4
			c1.3-0.6,2-1.4,2.9-2.3c0.9-0.9,1.9-1.9,4-2.9C1023.4,66.3,1030.8,64.8,1036.3,75z"/>
		<g>
			<g>
				<path class="st27" d="M1006.1,78.4c-0.6,0.8-1,1.7-1.3,2.6c-0.6,1.7-0.7,3.7,0,5.4c0.3,0.6,0.8,1.1,1.5,0.9
					c0.6-0.2,1.1-0.9,0.9-1.5c-0.2-0.4-0.3-0.8-0.4-1.3c0,0.2,0,0,0-0.1c0-0.1,0-0.2,0-0.3c0-0.2,0-0.4,0-0.6c0-0.1,0-0.2,0-0.3
					c0-0.1,0.1-0.4,0-0.1c0-0.2,0.1-0.4,0.1-0.6c0.1-0.3,0.2-0.7,0.3-1c0-0.1,0.1-0.1,0.1-0.2c0.1-0.3,0,0,0,0c0,0,0.2-0.4,0.2-0.4
					c0.1-0.2,0.2-0.4,0.4-0.7c0.1-0.2,0.2-0.4,0.4-0.6c0.4-0.5,0.1-1.4-0.4-1.7C1007.1,77.6,1006.5,77.8,1006.1,78.4L1006.1,78.4z"
					/>
			</g>
		</g>
		<path class="st30" d="M1037.9,84.4c-0.7,3.9-3.1,7.4-4.8,10.9c-3.1,6-5.6,5.7-12.2,5.1c-3.5-0.3-7.2-1.1-10.3-2.5
			c3.3,0.8,9,0.1,11.9-2.7c2.9-2.8,1.3-7.4-1.7-9.7c2.6,1.1,6.1,5.7,9.1,5.3C1032.2,90.5,1035.6,87.9,1037.9,84.4z"/>
	</g>
	<g style="clip-path:url(#SVGID_00000044140092452782515050000002833659458507428513_);">
		<path class="st24" d="M37.6,48.8l-1.4,0.1L36,47.5c-0.3-5.2,3.6-9.6,8.8-10l1.4-0.1l0.1,1.4C46.7,44.1,42.8,48.5,37.6,48.8z"/>
		<path class="st25" d="M43.2,40.1c-2.1,0.9-3.8,2.6-4.3,4.8c0,0.2-0.1,0.4-0.1,0.6c0,0.5,0.7,0.5,0.8,0c0,0,0-0.1,0-0.1
			c0-0.1,0,0.1,0,0c0,0,0,0,0-0.1c0,0,0-0.1,0-0.1c0.1-0.3,0.1-0.6,0.2-0.9c0.3-0.9,0.9-1.7,1.6-2.3c0.6-0.5,1.2-0.9,1.9-1.2
			c0.2-0.1,0.3-0.2,0.3-0.5C43.6,40.2,43.4,40.1,43.2,40.1L43.2,40.1z"/>
		<path class="st24" d="M34.3,50.2l1.1-0.9l-0.9-1.1c-3.2-4.1-9.1-4.8-13.2-1.6l-1.1,0.9l0.9,1.1C24.3,52.7,30.2,53.4,34.3,50.2z"/>
		<path class="st25" d="M24.6,48.1c1.5-0.5,3-0.6,4.4,0c0.4,0.2,0.8,0.4,1.2,0.6c0.2,0.1,0.2,0.1,0.4,0.3c0.3,0.3,0.9-0.2,0.5-0.5
			c-0.5-0.5-1.2-0.9-1.9-1.1c-1.6-0.6-3.3-0.5-4.8,0C24,47.6,24.2,48.3,24.6,48.1L24.6,48.1z"/>
		<path class="st26" d="M59,53.4c1.6,4,1.6,7.4,0.7,10.4c-1.2,4.2-3.9,7.8-6.1,11.3c-3.8,6.2-6.3,5.6-13,4.2
			c-3.6-0.7-7.3-2-10.4-3.9c-3.5-2.1-6.3-4.9-7.6-8.3c-3-8,1.4-15.7,4.9-17.3c2.7-1.3,4.4-0.5,6.1-0.5c0.4,0,0.9-0.1,1.3-0.3
			c1.4-0.5,2.2-1.3,3.2-2.2c1-0.9,2.2-1.9,4.4-2.7C46.6,42.5,54.4,41.7,59,53.4z"/>
		<path class="st27" d="M27.2,53.2c-2.1,2.5-3.4,6.1-2.4,9.3c0.3,0.9,1.3,1.6,2.3,1.3c1-0.3,1.6-1.3,1.3-2.3
			c-0.1-0.2-0.1-0.5-0.2-0.7c-0.1-0.4,0,0.4,0,0c0-0.1,0-0.2,0-0.3c0-0.2,0-0.4,0-0.7c0-0.1,0-0.2,0-0.3c0-0.1,0.1-0.5,0,0.1
			c0.1-0.4,0.2-0.8,0.3-1.2c0.1-0.2,0.1-0.4,0.2-0.6c0-0.1,0.2-0.4,0,0.1c0-0.1,0.1-0.2,0.1-0.3c0.3-0.6,0.6-1.1,0.9-1.6
			c0.1-0.1,0.1-0.2,0.2-0.3c0.1-0.1,0.3-0.3,0,0c-0.3,0.3-0.1,0.1,0,0c0.6-0.7,0.8-1.9,0-2.7C29.2,52.5,27.9,52.4,27.2,53.2
			L27.2,53.2z"/>
		<path class="st28" d="M59.7,63.8c-1.2,4.2-3.9,7.8-6.1,11.3c-3.8,6.2-6.3,5.6-13,4.2c-3.6-0.7-7.3-2-10.4-3.9
			c3.3,1.2,9.2,1.1,12.5-1.6c3.3-2.7,2-8-0.8-10.7c2.6,1.5,5.7,6.9,8.9,6.8C53.2,69.9,57,67.4,59.7,63.8z"/>
	</g>
	<g style="clip-path:url(#SVGID_00000044140092452782515050000002833659458507428513_);">
		<path class="st24" d="M274.3,110.8L274.3,110.8L274.3,110.8c-0.3-4.5,3.1-8.3,7.6-8.6h0v0C282.1,106.7,278.8,110.6,274.3,110.8z"
			/>
		<path class="st25" d="M279.5,104.3c-1.6,0.6-2.8,1.9-3.2,3.6c0,0.1-0.1,0.3-0.1,0.4c0,0.4,0.5,0.4,0.6,0c0,0,0,0,0-0.1
			c0-0.1,0,0.1,0,0c0,0,0,0,0,0c0,0,0-0.1,0-0.1c0-0.2,0.1-0.4,0.2-0.7c0.2-0.6,0.7-1.3,1.2-1.7c0.4-0.4,0.9-0.7,1.4-0.9
			c0.1-0.1,0.2-0.2,0.2-0.3C279.9,104.3,279.7,104.2,279.5,104.3L279.5,104.3z"/>
		<path class="st24" d="M273.8,111.1L273.8,111.1L273.8,111.1c-2.8-3.5-7.8-4.1-11.3-1.4v0v0C265.2,113.3,270.3,113.9,273.8,111.1z"
			/>
		<path class="st25" d="M265.7,110.2c1.1-0.4,2.2-0.4,3.3,0c0.3,0.1,0.6,0.3,0.9,0.5c0.1,0.1,0.2,0.1,0.3,0.2
			c0.3,0.3,0.7-0.1,0.4-0.4c-0.4-0.4-0.9-0.6-1.4-0.8c-1.2-0.5-2.4-0.4-3.6,0C265.3,109.8,265.4,110.4,265.7,110.2L265.7,110.2z"/>
		<path class="st26" d="M291.3,114.1c1.2,3,1.2,5.5,0.5,7.8c-0.9,3.1-2.9,5.8-4.5,8.4c-2.8,4.6-4.7,4.1-9.7,3.1
			c-2.7-0.5-5.4-1.5-7.7-2.9c-2.6-1.6-4.7-3.7-5.6-6.2c-2.2-5.9,1.1-11.7,3.6-12.9c2-0.9,3.3-0.4,4.6-0.4c0.3,0,0.7-0.1,1-0.2
			c1.1-0.4,1.7-1,2.4-1.7c0.7-0.7,1.6-1.4,3.3-2C282.1,106.1,287.9,105.4,291.3,114.1z"/>
		<path class="st27" d="M267.7,114c-1.6,1.9-2.5,4.5-1.8,7c0.2,0.7,1,1.2,1.7,1c0.7-0.2,1.2-1,1-1.7c-0.1-0.2-0.1-0.3-0.1-0.5
			c-0.1-0.3,0,0.3,0,0c0-0.1,0-0.2,0-0.3c0-0.2,0-0.3,0-0.5c0-0.1,0-0.2,0-0.2c0-0.1,0.1-0.4,0,0.1c0.1-0.3,0.1-0.6,0.2-0.9
			c0-0.1,0.1-0.3,0.1-0.4c0-0.1,0.2-0.3,0,0.1c0-0.1,0.1-0.1,0.1-0.2c0.2-0.4,0.4-0.8,0.7-1.2c0-0.1,0.1-0.1,0.1-0.2
			c0-0.1,0.2-0.3,0,0c-0.2,0.2-0.1,0.1,0,0c0.5-0.6,0.6-1.4,0-2C269.1,113.5,268.2,113.4,267.7,114L267.7,114z"/>
		<path class="st28" d="M291.9,121.9c-0.9,3.1-2.9,5.8-4.5,8.4c-2.8,4.6-4.7,4.1-9.7,3.1c-2.7-0.5-5.4-1.5-7.7-2.9
			c2.4,0.9,6.9,0.8,9.3-1.2c2.4-2,1.5-5.9-0.6-8c1.9,1.1,4.3,5.1,6.6,5.1C287,126.4,289.9,124.6,291.9,121.9z"/>
	</g>
	<g style="clip-path:url(#SVGID_00000044140092452782515050000002833659458507428513_);">
		<path class="st24" d="M505.3,112.1L505.3,112.1L505.3,112.1c1.5-3.3,5.4-4.7,8.7-3.2l0,0v0C512.4,112.2,508.6,113.7,505.3,112.1z"
			/>
		<g>
			<g>
				<path class="st25" d="M511.5,109.4c-1.4-0.1-2.8,0.3-3.7,1.4c-0.1,0.1-0.2,0.2-0.2,0.3c-0.3,0.4,0.4,0.8,0.6,0.4
					c0,0,0-0.1,0.1-0.1c0-0.1-0.1,0.1,0,0c0,0,0,0,0,0c0,0,0.1-0.1,0.1-0.1c0.1-0.1,0.2-0.2,0.3-0.3c0.1-0.1,0.1-0.1,0.2-0.2
					c0,0,0,0,0,0c0,0,0,0,0.1,0c0,0,0.1,0,0.1-0.1c0.7-0.5,1.6-0.7,2.5-0.6c0.2,0,0.4-0.2,0.4-0.4
					C511.9,109.5,511.7,109.4,511.5,109.4L511.5,109.4z"/>
			</g>
		</g>
		<path class="st24" d="M504.9,112.1L504.9,112.1L504.9,112.1c-0.6-3.6-4-6-7.5-5.4l0,0v0C498,110.3,501.3,112.7,504.9,112.1z"/>
		<g>
			<g>
				<path class="st25" d="M499.4,108.5c0.2,0,0.4,0.1,0.7,0.2c0.2,0.1,0.3,0.1,0.5,0.2c0.2,0.1,0.3,0.2,0.5,0.3c0,0,0.1,0,0.1,0.1
					c0.1,0.1,0,0,0,0c0.1,0.1,0.1,0.1,0.2,0.2c0.1,0.1,0.2,0.2,0.3,0.3c0,0,0,0,0.1,0.1c0,0,0.1,0.1,0,0c0,0,0,0,0,0
					c0,0,0,0.1,0.1,0.1c0.1,0.2,0.2,0.3,0.3,0.5c0,0,0,0.2,0,0c0,0,0,0,0,0.1c0,0,0,0,0,0.1c0.1,0.5,0.9,0.3,0.7-0.2
					c-0.3-0.9-1-1.7-1.9-2.2c-0.4-0.2-0.9-0.4-1.4-0.5c-0.2,0-0.4,0.1-0.5,0.3C499.1,108.3,499.2,108.5,499.4,108.5L499.4,108.5z"/>
			</g>
		</g>
		<path class="st26" d="M516.1,121.1c-0.3,2.6-1.3,4.4-2.6,5.7c-1.8,1.9-4.3,3-6.4,4.2c-3.8,2.2-4.9,1.1-8.1-1.5
			c-1.7-1.4-3.2-3.2-4.3-5.1c-1.2-2.1-1.9-4.4-1.6-6.6c0.7-5.1,5.2-7.9,7.5-7.7c1.8,0.1,2.5,1,3.4,1.5c0.2,0.1,0.5,0.2,0.8,0.3
			c0.9,0.1,1.6-0.1,2.3-0.3c0.8-0.2,1.7-0.4,3.1-0.2C512.7,111.7,517,113.5,516.1,121.1z"/>
		<g>
			<g>
				<path class="st27" d="M499.4,111.7c-1.3,0.5-2.5,1.4-3.3,2.6c-0.3,0.5-0.6,1.1-0.7,1.7c-0.1,0.3,0,0.7,0.1,1
					c0.2,0.3,0.4,0.5,0.7,0.6c0.6,0.1,1.4-0.2,1.5-0.9c0.1-0.2,0.1-0.5,0.2-0.7c0,0.1-0.1,0.2-0.1,0.3c0.1-0.3,0.3-0.7,0.6-0.9
					c-0.1,0.1-0.1,0.2-0.2,0.3c0.3-0.4,0.6-0.7,1-1c-0.1,0.1-0.2,0.1-0.3,0.2c0.4-0.3,0.9-0.6,1.4-0.8c-0.1,0-0.2,0.1-0.3,0.1
					c0,0,0,0,0.1,0c0.3-0.1,0.6-0.3,0.7-0.6c0.2-0.3,0.2-0.7,0.1-1c-0.1-0.3-0.3-0.6-0.6-0.7C500.1,111.7,499.7,111.6,499.4,111.7
					L499.4,111.7z"/>
			</g>
		</g>
		<path class="st28" d="M513.5,126.8c-1.8,1.9-4.3,3-6.4,4.2c-3.8,2.2-4.9,1.1-8.1-1.5c-1.7-1.4-3.2-3.2-4.3-5.1
			c1.4,1.6,4.5,3.2,7,2.7c2.5-0.5,3.4-3.6,2.7-5.9c0.9,1.5,1,5.3,2.7,6.2C508.3,128.2,511,127.9,513.5,126.8z"/>
	</g>
	<g style="clip-path:url(#SVGID_00000044140092452782515050000002833659458507428513_);">
		<path class="st24" d="M553.2,99.4L553.2,99.4L553.2,99.4c-0.2-3.1,2.2-5.7,5.2-5.9l0,0l0,0C558.6,96.5,556.3,99.2,553.2,99.4z"/>
		<path class="st25" d="M556.8,94.8c-1.1,0.4-1.9,1.3-2.2,2.5c0,0.1,0,0.2,0,0.3c0,0.2,0.4,0.2,0.4,0c0,0,0,0,0,0c0,0,0,0.1,0,0
			c0,0,0,0,0,0c0,0,0-0.1,0-0.1c0-0.2,0.1-0.3,0.1-0.4c0.2-0.4,0.5-0.9,0.8-1.2c0.3-0.3,0.6-0.5,1-0.6c0.1,0,0.2-0.1,0.1-0.2
			C557.1,94.9,556.9,94.8,556.8,94.8L556.8,94.8z"/>
		<path class="st24" d="M552.9,99.6L552.9,99.6L552.9,99.6c-1.9-2.4-5.4-2.8-7.8-0.9l0,0v0C547,101,550.5,101.5,552.9,99.6z"/>
		<path class="st25" d="M547.3,99c0.7-0.3,1.5-0.3,2.3,0c0.2,0.1,0.4,0.2,0.6,0.3c0.1,0.1,0.1,0.1,0.2,0.2c0.2,0.2,0.5-0.1,0.3-0.3
			c-0.3-0.3-0.6-0.4-1-0.6c-0.8-0.3-1.7-0.3-2.5,0C547,98.7,547.1,99,547.3,99L547.3,99z"/>
		<path class="st26" d="M565,101.6c0.8,2.1,0.8,3.8,0.4,5.4c-0.6,2.2-2,4-3.1,5.8c-2,3.2-3.2,2.9-6.7,2.2c-1.8-0.4-3.7-1.1-5.3-2
			c-1.8-1.1-3.2-2.5-3.9-4.3c-1.5-4.1,0.7-8.1,2.5-8.9c1.4-0.6,2.3-0.2,3.2-0.3c0.2,0,0.5,0,0.7-0.1c0.7-0.3,1.1-0.7,1.6-1.1
			c0.5-0.5,1.1-1,2.3-1.4C558.6,96.1,562.6,95.6,565,101.6z"/>
		<path class="st27" d="M548.7,101.5c-1.1,1.3-1.7,3.1-1.2,4.8c0.1,0.5,0.7,0.8,1.2,0.7c0.5-0.2,0.8-0.7,0.7-1.2
			c0-0.1-0.1-0.2-0.1-0.4c0-0.2,0,0.2,0,0c0-0.1,0-0.1,0-0.2c0-0.1,0-0.2,0-0.3c0-0.1,0-0.1,0-0.2c0-0.1,0.1-0.2,0,0
			c0-0.2,0.1-0.4,0.1-0.6c0-0.1,0.1-0.2,0.1-0.3c0-0.1,0.1-0.2,0,0c0,0,0-0.1,0.1-0.1c0.1-0.3,0.3-0.6,0.5-0.8c0,0,0.1-0.1,0.1-0.1
			c0,0,0.1-0.2,0,0c-0.1,0.2,0,0,0,0c0.3-0.4,0.4-1,0-1.4C549.7,101.2,549,101.1,548.7,101.5L548.7,101.5z"/>
		<path class="st28" d="M565.4,107c-0.6,2.2-2,4-3.1,5.8c-2,3.2-3.2,2.9-6.7,2.2c-1.8-0.4-3.7-1.1-5.3-2c1.7,0.6,4.7,0.6,6.4-0.8
			c1.7-1.4,1.1-4.1-0.4-5.5c1.3,0.8,2.9,3.5,4.6,3.5C562,110.1,564,108.9,565.4,107z"/>
	</g>
	<g style="clip-path:url(#SVGID_00000044140092452782515050000002833659458507428513_);">
		<path class="st24" d="M550.2,132.8l-0.8-0.9l0.9-0.8c2.3-2.1,5.8-2,7.9,0.3l0.8,0.9l-0.9,0.8C555.8,135.1,552.3,135,550.2,132.8z"
			/>
		<path class="st25" d="M556.4,131.7c-1.2-0.7-2.8-0.8-4-0.1c-0.1,0.1-0.2,0.1-0.3,0.2c-0.2,0.2,0.1,0.5,0.3,0.4c0,0,0,0,0,0
			c0,0-0.1,0,0,0c0,0,0,0,0,0c0,0,0.1,0,0.1,0c0.2-0.1,0.3-0.2,0.5-0.2c0.5-0.2,1.2-0.3,1.8-0.2c0.5,0.1,0.9,0.2,1.3,0.5
			c0.1,0.1,0.2,0.1,0.3-0.1C556.6,132,556.6,131.8,556.4,131.7L556.4,131.7z"/>
		<path class="st24" d="M547.7,131.4l1.2,0.3l0.3-1.2c0.7-3-1.3-6-4.3-6.6l-1.2-0.3l-0.3,1.2C542.8,127.8,544.7,130.8,547.7,131.4z"
			/>
		<path class="st25" d="M545.2,126c0.8,0.5,1.5,1.2,1.8,2.1c0.1,0.3,0.1,0.6,0.2,0.8c0,0.1,0,0.2,0,0.3c0,0.3,0.4,0.3,0.5,0
			c0-0.5-0.1-0.9-0.2-1.4c-0.3-1-1-1.8-1.9-2.3C545.2,125.4,544.9,125.8,545.2,126L545.2,126z"/>
		<path class="st26" d="M556.4,144.7c-1.3,2.4-3,3.7-4.8,4.5c-2.5,1.1-5.3,1.2-7.9,1.6c-4.5,0.6-5.2-0.8-7.3-4.6
			c-1.1-2-1.9-4.3-2.3-6.6c-0.4-2.5-0.1-5,1-7c2.7-4.6,8.2-5.6,10.3-4.6c1.7,0.8,2,2,2.7,2.8c0.2,0.2,0.4,0.4,0.7,0.5
			c0.8,0.5,1.5,0.5,2.4,0.7c0.8,0.1,1.8,0.3,3.1,1C556.7,134.3,560.2,137.8,556.4,144.7z"/>
		<path class="st27" d="M543.8,129.3c-2.1,0-4.3,0.8-5.5,2.6c-0.3,0.5-0.3,1.3,0.3,1.6c0.5,0.3,1.3,0.3,1.6-0.3
			c0.1-0.1,0.2-0.2,0.3-0.4c0.2-0.2-0.2,0.2,0,0c0.1,0,0.1-0.1,0.2-0.1c0.1-0.1,0.2-0.2,0.3-0.3c0.1,0,0.1-0.1,0.2-0.1
			c0.1-0.1,0.3-0.1,0,0c0.2-0.1,0.5-0.2,0.7-0.3c0.1,0,0.2-0.1,0.3-0.1c0.1,0,0.3-0.1-0.1,0c0.1,0,0.1,0,0.2,0
			c0.4-0.1,0.7-0.2,1.1-0.2c0.1,0,0.1,0,0.2,0c0.1,0,0.3,0,0,0c-0.3,0-0.1,0,0,0c0.6,0,1.2-0.4,1.3-1.1
			C544.9,129.9,544.4,129.3,543.8,129.3L543.8,129.3z"/>
		<path class="st28" d="M551.6,149.2c-2.5,1.1-5.3,1.2-7.9,1.6c-4.5,0.6-5.2-0.8-7.3-4.6c-1.1-2-1.9-4.3-2.3-6.6
			c0.7,2.1,3.2,4.9,5.8,5.4c2.6,0.5,4.7-2.2,4.9-4.7c0.3,1.9-1.1,5.5,0.2,7C546.1,148.5,548.8,149.4,551.6,149.2z"/>
	</g>
	<g style="clip-path:url(#SVGID_00000044140092452782515050000002833659458507428513_);">
		<path class="st24" d="M811.5,101.3L811.5,101.3L811.5,101.3c4.2-0.9,8.4,1.7,9.3,5.9v0l0,0C816.6,108.2,812.4,105.6,811.5,101.3z"
			/>
		<g>
			<g>
				<path class="st25" d="M818.7,105.3c-0.9-1.4-2.3-2.4-4-2.5c-0.1,0-0.2,0-0.4,0c-0.2,0-0.4,0.2-0.4,0.4c0,0.2,0.2,0.4,0.4,0.4
					c0.1,0,0.2,0,0.2,0c0.1,0,0.2,0,0.3,0c0,0,0.1,0,0.1,0c0.1,0,0,0,0,0c0.1,0,0.1,0,0.2,0c0.7,0.1,1.3,0.4,1.8,0.8
					c0.4,0.4,0.8,0.8,1.1,1.2C818.3,106.1,818.9,105.7,818.7,105.3L818.7,105.3z"/>
			</g>
		</g>
		<path class="st24" d="M811.2,100.9L811.2,100.9L811.2,100.9c3-3.2,2.8-8.1-0.4-11.1l0,0v0C807.8,93,808,98,811.2,100.9z"/>
		<g>
			<g>
				<path class="st25" d="M810.7,93.1c0.5,0.9,0.7,2,0.5,3.1c-0.1,0.5-0.2,0.8-0.5,1.2c-0.3,0.4,0.4,0.8,0.6,0.4
					c0.3-0.4,0.5-1,0.6-1.5c0.3-1.2,0-2.5-0.6-3.5C811.1,92.3,810.5,92.7,810.7,93.1L810.7,93.1z"/>
			</g>
		</g>
		<path class="st26" d="M810.9,118.2c-2.7,1.6-5.1,2-7.4,1.7c-3.1-0.3-6-1.9-8.8-3c-4.9-2-4.7-3.9-4.5-8.8c0.1-2.6,0.7-5.4,1.6-7.8
			c1.1-2.7,2.8-5.1,5.1-6.4c5.4-3,11.4-0.8,12.9,1.5c1.2,1.8,0.8,3.1,1.1,4.3c0.1,0.3,0.2,0.6,0.3,0.9c0.6,1,1.2,1.4,1.9,2
			c0.7,0.6,1.6,1.3,2.4,2.8C817.3,108.1,818.7,113.5,810.9,118.2z"/>
		<g>
			<g>
				<path class="st27" d="M807.3,95.5c-0.7-0.4-1.4-0.7-2.2-0.9c-1.6-0.4-3.2-0.3-4.7,0.4c-0.6,0.3-0.8,1.2-0.4,1.7
					c0.4,0.6,1.1,0.7,1.7,0.4c0,0,0.1,0,0.1-0.1c0.1,0,0.1,0-0.1,0c0.1,0,0.2-0.1,0.3-0.1c0.1,0,0.3-0.1,0.4-0.1c0.1,0,0.2,0,0.3,0
					c-0.2,0-0.2,0-0.1,0c0,0,0.1,0,0.1,0c0.1,0,0.3,0,0.4,0c0.2,0,0.3,0,0.5,0c0.1,0,0.1,0,0.2,0c0.2,0-0.3,0-0.1,0
					c0.3,0,0.6,0.1,0.8,0.2c0.2,0.1,0.5,0.1,0.7,0.2c0.1,0,0.4,0.2,0,0c0.1,0,0.2,0.1,0.2,0.1c0.2,0.1,0.3,0.2,0.5,0.2
					c0.6,0.3,1.4,0.1,1.7-0.4C808.1,96.6,807.9,95.9,807.3,95.5L807.3,95.5z"/>
			</g>
		</g>
		<path class="st28" d="M803.5,119.9c-3.1-0.3-6-1.9-8.8-3c-4.9-2-4.7-3.9-4.5-8.8c0.1-2.6,0.7-5.4,1.6-7.8
			c-0.5,2.5,0.3,6.7,2.6,8.7c2.3,2,5.9,0.5,7.6-1.8c-0.8,2-4.3,4.9-3.9,7.1C798.5,116,800.6,118.4,803.5,119.9z"/>
	</g>
	<g style="clip-path:url(#SVGID_00000044140092452782515050000002833659458507428513_);">
		<path class="st24" d="M770.6,131.7l-1.2,0.2l-0.2-1.2c-0.5-3,1.6-5.9,4.7-6.4l1.2-0.2l0.2,1.2
			C775.8,128.4,773.7,131.2,770.6,131.7z"/>
		<path class="st25" d="M773.3,126c-1.3,0.7-2.2,1.8-2.4,3.3c0,0.1,0,0.2,0,0.4c0,0.3,0.5,0.3,0.5,0c0,0,0,0,0-0.1c0,0,0,0.1,0,0
			c0,0,0,0,0,0c0,0,0-0.1,0-0.1c0-0.2,0.1-0.4,0.1-0.6c0.1-0.6,0.5-1.1,0.9-1.6c0.3-0.3,0.7-0.6,1.1-0.9c0.1-0.1,0.2-0.2,0.1-0.3
			C773.6,126,773.4,125.9,773.3,126L773.3,126z"/>
		<path class="st24" d="M768.1,133l0.9-0.8l-0.8-0.9c-2.1-2.2-5.7-2.3-7.9-0.2l-0.9,0.8l0.8,0.9C762.4,135,765.9,135.1,768.1,133z"
			/>
		<path class="st25" d="M762.2,132.1c0.9-0.4,1.8-0.5,2.8-0.3c0.3,0.1,0.5,0.2,0.8,0.3c0.1,0.1,0.1,0.1,0.2,0.2
			c0.2,0.2,0.5-0.2,0.3-0.4c-0.4-0.3-0.8-0.5-1.2-0.6c-1-0.3-2.1-0.1-3,0.3C761.7,131.7,761.9,132.2,762.2,132.1L762.2,132.1z"/>
		<path class="st26" d="M784,133.3c1.2,2.4,1.4,4.5,1.1,6.5c-0.5,2.7-2,5.1-3.1,7.4c-2,4.1-3.6,3.8-7.9,3.4
			c-2.3-0.2-4.7-0.9-6.7-1.8c-2.3-1.1-4.2-2.7-5.2-4.8c-2.3-4.8,0-9.9,2-11.1c1.6-0.9,2.8-0.6,3.8-0.7c0.3,0,0.5-0.1,0.8-0.2
			c0.9-0.4,1.3-1,1.9-1.6c0.6-0.6,1.2-1.3,2.6-2C775.6,127.3,780.4,126.3,784,133.3z"/>
		<path class="st27" d="M764.1,135.1c-1.2,1.7-1.7,4-1,6c0.2,0.6,0.9,0.9,1.5,0.7c0.6-0.2,0.9-0.9,0.7-1.5c-0.1-0.1-0.1-0.3-0.1-0.4
			c-0.1-0.2,0,0.3,0,0c0-0.1,0-0.1,0-0.2c0-0.1,0-0.3,0-0.4c0-0.1,0-0.1,0-0.2c0-0.1,0-0.3,0,0c0-0.3,0.1-0.5,0.1-0.8
			c0-0.1,0.1-0.2,0.1-0.4c0-0.1,0.1-0.3,0,0.1c0-0.1,0-0.1,0.1-0.2c0.1-0.4,0.3-0.7,0.5-1c0-0.1,0.1-0.1,0.1-0.2c0-0.1,0.1-0.2,0,0
			c-0.1,0.2,0,0.1,0,0c0.4-0.5,0.4-1.3-0.2-1.7C765.3,134.5,764.5,134.5,764.1,135.1L764.1,135.1z"/>
		<path class="st28" d="M785,139.8c-0.5,2.7-2,5.1-3.1,7.4c-2,4.1-3.6,3.8-7.9,3.4c-2.3-0.2-4.7-0.9-6.7-1.8
			c2.1,0.6,5.8,0.1,7.7-1.7c1.9-1.9,0.8-5.1-1.1-6.6c1.7,0.8,4,4,5.9,3.8C781.3,144,783.5,142.2,785,139.8z"/>
	</g>
</g>
</svg>
