<?xml version="1.0" encoding="utf-8"?>
<!-- Generator: Adobe Illustrator 27.2.0, SVG Export Plug-In . SVG Version: 6.00 Build 0)  -->
<svg version="1.1" id="Layer_1" xmlns="http://www.w3.org/2000/svg" xmlns:xlink="http://www.w3.org/1999/xlink" x="0px" y="0px"
	 viewBox="0 0 60 54" style="enable-background:new 0 0 60 54;" xml:space="preserve">
<style type="text/css">
	.st0{fill:#C1774D;}
	.st1{fill:#F7A74F;}
	.st2{fill:#D6EFA5;}
	.st3{fill:#C2D692;}
	.st4{fill:#3844D6;stroke:#231F20;stroke-linejoin:round;stroke-miterlimit:10;}
	.st5{fill:#231F20;stroke:#231F20;stroke-linejoin:round;stroke-miterlimit:10;}
	.st6{fill:#FCD9D9;stroke:#231F20;stroke-linejoin:round;stroke-miterlimit:10;}
	.st7{fill:none;stroke:#231F20;stroke-linecap:round;stroke-linejoin:round;stroke-miterlimit:10;}
	.st8{fill:none;stroke:#0E9299;stroke-linecap:round;stroke-linejoin:round;stroke-miterlimit:10;}
	.st9{fill:#5DEDA2;}
	.st10{fill:#5BB29A;}
	.st11{fill:#A34F21;}
	.st12{fill:#E9F4CB;}
	.st13{fill:none;stroke:#F9C69D;stroke-linecap:round;stroke-miterlimit:10;}
	.st14{fill:none;stroke:#FDFFB6;stroke-linecap:round;stroke-miterlimit:10;}
</style>
<ellipse class="st0" cx="31.04" cy="50.72" rx="28.5" ry="2.5"/>
<path class="st1" d="M6.65,49.72c1.23,0.21,3.48,0.33,6.04,0.37c3.68,0.05,8.01-0.08,10.96-0.37c1.77-0.18,2.73-1.66,3.08-3.52
	c0.65-3.43-0.77-8.15-3.08-8.48C9.65,35.72,3.65,49.22,6.65,49.72z"/>
<path class="st2" d="M10.15,24.72c0,3.23,0.45,6.01,1.29,8.38c0.37,1.06,0.81,2.03,1.32,2.93c2.39,4.22,6.29,6.75,11.04,8.06
	c2.86,0.79,6.03,1.13,9.35,1.13c14.67,0,21.77-5.88,22.85-17.26c0.1-1.04,0.15-2.12,0.15-3.24c0-11.15-9.03-22.52-21.42-23.46
	c-0.19-0.02-0.39-0.03-0.58-0.04C23.65,0.7,17.57,4.08,14.14,9.05c-2.74,3.99-3.76,9.01-3.95,13.86c0,0.08-0.01,0.17-0.01,0.25
	C10.16,23.68,10.15,24.2,10.15,24.72z"/>
<path class="st3" d="M1.65,27.22c0.07,0.41,0.16,0.8,0.28,1.18c1.44,4.77,6.38,6.65,10.83,7.63c-0.26-0.46-0.5-0.93-0.72-1.43
	c-0.22-0.48-0.42-0.98-0.6-1.5c-0.84-2.37-1.29-5.15-1.29-8.38c0-0.52,0.01-1.04,0.03-1.56c0-0.08,0.01-0.17,0.01-0.25
	C6.21,20.31,0.71,21.56,1.65,27.22z"/>
<path class="st4" d="M30.33,22.68c0.47,2.38,1.54,4.04,2.78,4.04c1.25,0,2.32-1.66,2.78-4.04c-0.74,1.04-1.71,1.67-2.78,1.67
	C32.04,24.36,31.07,23.73,30.33,22.68z"/>
<path class="st5" d="M30.07,19.97c0,0.97,0.1,1.88,0.26,2.71c0.74,1.05,1.71,1.68,2.78,1.68s2.05-0.63,2.79-1.68
	c0.16-0.83,0.25-1.74,0.25-2.71c0-1.12-0.12-2.19-0.34-3.12c-0.25-1.03-0.61-1.91-1.04-2.54l-3.84,0.96c-0.2,0.47-0.38,1-0.51,1.58
	C30.2,17.78,30.07,18.85,30.07,19.97z"/>
<path class="st6" d="M30.42,16.85c0.29,2.07,1.38,3.61,2.69,3.61c1.32,0,2.41-1.54,2.7-3.61c-0.25-1.03-0.61-1.91-1.04-2.54
	l-3.84,0.96C30.73,15.74,30.55,16.27,30.42,16.85z"/>
<path class="st4" d="M18.33,22.68c0.47,2.38,1.54,4.04,2.78,4.04s2.32-1.66,2.78-4.04c-0.74,1.04-1.71,1.67-2.78,1.67
	C20.04,24.36,19.07,23.73,18.33,22.68z"/>
<path class="st5" d="M18.07,19.97c0,0.97,0.1,1.88,0.26,2.71c0.74,1.05,1.71,1.68,2.78,1.68s2.05-0.63,2.79-1.68
	c0.16-0.83,0.25-1.74,0.25-2.71c0-1.12-0.12-2.19-0.34-3.12c-0.14-0.59-0.32-1.13-0.53-1.6l-3.82-0.95
	c-0.44,0.63-0.8,1.51-1.04,2.55C18.2,17.78,18.07,18.85,18.07,19.97z"/>
<path class="st6" d="M18.42,16.85c0.29,2.07,1.38,3.61,2.69,3.61c1.32,0,2.41-1.54,2.7-3.61c-0.14-0.59-0.32-1.13-0.53-1.6
	l-3.82-0.95C19.02,14.93,18.66,15.81,18.42,16.85z"/>
<polyline class="st7" points="37.15,13.72 30.93,15.27 29.15,15.72 "/>
<polyline class="st7" points="17.15,13.72 19.46,14.3 23.28,15.25 23.37,15.27 25.15,15.72 "/>
<path class="st8" d="M30.15,31.72c0,0-3-4-6,0"/>
<path class="st9" d="M14.65,30.22h4c0.55,0,1-0.45,1-1v0c0-0.55-0.45-1-1-1h-4c-0.55,0-1,0.45-1,1v0
	C13.65,29.77,14.1,30.22,14.65,30.22z"/>
<path class="st9" d="M35.65,29.22c0,0.55,0.45,1,1,1h4c0.14,0,0.28-0.03,0.4-0.09c-0.43-0.59-0.78-1.23-0.99-1.91h-3.41
	C36.1,28.22,35.65,28.67,35.65,29.22z"/>
<path class="st10" d="M23.8,44.09c2.86,0.79,6.03,1.13,9.35,1.13c14.67,0,21.77-5.88,22.85-17.26
	C52.59,34.87,44.13,44.94,23.8,44.09z"/>
<path class="st1" d="M38.65,48.72c0,0.67,0.96,1.2,2.46,1.56c5.14,1.24,16.54,0.54,16.54-2.56c0-0.23-0.01-0.46-0.04-0.7
	c-0.43-3.86-4.36-8.3-10.96-8.3C39.65,38.72,38.65,45.72,38.65,48.72z"/>
<path class="st11" d="M41.11,50.28c5.14,1.24,16.54,0.54,16.54-2.56c0-0.23-0.01-0.46-0.04-0.7C54.59,49.82,45.98,50.26,41.11,50.28
	z"/>
<path class="st12" d="M14.14,9.05c5.96-4.14,13.7-6.78,20.59-7.79c-0.19-0.02-0.39-0.03-0.58-0.04C23.65,0.7,17.57,4.08,14.14,9.05z
	"/>
<path class="st11" d="M26.73,46.2c-1.82,2.19-8.19,3.26-14.04,3.89c3.68,0.05,8.01-0.08,10.96-0.37
	C25.42,49.54,26.38,48.06,26.73,46.2z"/>
<path class="st13" d="M46.04,40.97c-1.02-0.02-2.34,0.2-3.39,1.25"/>
<path class="st13" d="M14.96,40.78c-1.02,0.09-2.3,0.47-3.22,1.63"/>
<path class="st13" d="M49.65,41.22c0,0-0.68-0.23-1.61-0.25"/>
<path class="st10" d="M39.65,27.22c1.1,4.1,7.2,7.9,10,5.5c0.33-0.26-0.37,0.47-0.09,0.2c0.43-0.42,0.15-1.29-0.45-1.17
	C46.65,32.22,43.65,32.22,39.65,27.22z"/>
<path class="st8" d="M52.15,24.72c-3-4-10-5-12,0c-0.43,1.08-0.45,2.17-0.18,3.2v0.01c0.03,0.1,0.05,0.19,0.09,0.29
	c0.21,0.68,0.56,1.32,0.99,1.91c2.11,2.88,6.33,4.53,8.6,2.59"/>
<path class="st10" d="M1.93,28.4c1.44,4.77,6.38,6.65,10.83,7.63c-0.18-0.32-0.35-0.64-0.51-0.98c-0.14-0.29-0.38-0.5-0.68-0.61
	C7.57,33.04,2.65,31.22,1.93,28.4z"/>
<path class="st14" d="M6.15,23.72c0,0-2-1-3,1"/>
<line class="st14" x1="8.15" y1="24.72" x2="8.15" y2="24.72"/>
<path class="st14" d="M45.15,23.72c0,0-3,0-3,2"/>
<line class="st14" x1="47.15" y1="23.72" x2="47.15" y2="23.72"/>
</svg>
