<?xml version="1.0" encoding="utf-8"?>
<!-- Generator: Adobe Illustrator 27.2.0, SVG Export Plug-In . SVG Version: 6.00 Build 0)  -->
<svg version="1.1" xmlns="http://www.w3.org/2000/svg" xmlns:xlink="http://www.w3.org/1999/xlink" x="0px" y="0px"
	 viewBox="0 0 254 111" style="enable-background:new 0 0 254 111;" xml:space="preserve">
<style type="text/css">
	.st0{clip-path:url(#SVGID_00000038401851026688622910000014376563791046352809_);fill:#7D9E67;}
	.st1{clip-path:url(#SVGID_00000038401851026688622910000014376563791046352809_);fill:#C1774D;}
	.st2{clip-path:url(#SVGID_00000038401851026688622910000014376563791046352809_);fill:#F7A74F;}
	.st3{clip-path:url(#SVGID_00000038401851026688622910000014376563791046352809_);fill:#D6EFA5;}
	.st4{clip-path:url(#SVGID_00000038401851026688622910000014376563791046352809_);fill:#C2D692;}
	
		.st5{clip-path:url(#SVGID_00000038401851026688622910000014376563791046352809_);fill:#3844D6;stroke:#231F20;stroke-width:4;stroke-linejoin:round;stroke-miterlimit:10;}
	
		.st6{clip-path:url(#SVGID_00000038401851026688622910000014376563791046352809_);fill:#231F20;stroke:#231F20;stroke-width:4;stroke-linejoin:round;stroke-miterlimit:10;}
	
		.st7{clip-path:url(#SVGID_00000038401851026688622910000014376563791046352809_);fill:#FCD9D9;stroke:#231F20;stroke-width:4;stroke-linejoin:round;stroke-miterlimit:10;}
	
		.st8{clip-path:url(#SVGID_00000038401851026688622910000014376563791046352809_);fill:none;stroke:#231F20;stroke-width:4;stroke-linecap:round;stroke-linejoin:round;stroke-miterlimit:10;}
	
		.st9{clip-path:url(#SVGID_00000038401851026688622910000014376563791046352809_);fill:none;stroke:#0E9299;stroke-width:4;stroke-linecap:round;stroke-linejoin:round;stroke-miterlimit:10;}
	.st10{clip-path:url(#SVGID_00000038401851026688622910000014376563791046352809_);fill:#5DEDA2;}
	.st11{clip-path:url(#SVGID_00000038401851026688622910000014376563791046352809_);fill:#5BB29A;}
	.st12{clip-path:url(#SVGID_00000038401851026688622910000014376563791046352809_);fill:#A34F21;}
	
		.st13{clip-path:url(#SVGID_00000038401851026688622910000014376563791046352809_);fill:none;stroke:#F9C69D;stroke-width:4;stroke-linecap:round;stroke-miterlimit:10;}
	
		.st14{clip-path:url(#SVGID_00000038401851026688622910000014376563791046352809_);fill:none;stroke:#FDFFB6;stroke-width:4;stroke-linecap:round;stroke-miterlimit:10;}
</style>
<g id="Layer_2">
</g>
<g id="Layer_1">
	<g>
		<defs>
			<rect id="SVGID_1_" width="254" height="111"/>
		</defs>
		<clipPath id="SVGID_00000134943786475654326570000006419998503358766764_">
			<use xlink:href="#SVGID_1_"  style="overflow:visible;"/>
		</clipPath>
		
			<rect x="0" style="clip-path:url(#SVGID_00000134943786475654326570000006419998503358766764_);fill:#7D9E67;" width="254" height="111"/>
		
			<ellipse style="clip-path:url(#SVGID_00000134943786475654326570000006419998503358766764_);fill:#C1774D;" cx="128.73" cy="167.04" rx="109.87" ry="9.64"/>
		<path style="clip-path:url(#SVGID_00000134943786475654326570000006419998503358766764_);fill:#F7A74F;" d="M34.69,163.18
			c4.74,0.81,13.42,1.27,23.29,1.43c14.19,0.19,30.88-0.31,42.25-1.43c6.82-0.69,10.52-6.4,11.87-13.57
			c2.51-13.22-2.97-31.42-11.87-32.69C46.25,109.21,23.12,161.25,34.69,163.18z"/>
		<path style="clip-path:url(#SVGID_00000134943786475654326570000006419998503358766764_);fill:#D6EFA5;" d="M48.18,66.8
			c0,12.45,1.73,23.17,4.97,32.31c1.43,4.09,3.12,7.83,5.09,11.3c9.21,16.27,24.25,26.02,42.56,31.07
			c11.03,3.05,23.25,4.36,36.05,4.36c56.56,0,83.93-22.67,88.09-66.54c0.39-4.01,0.58-8.17,0.58-12.49
			c0-42.99-34.81-86.82-82.58-90.44c-0.73-0.08-1.5-0.12-2.24-0.15c-40.48-2-63.92,11.03-77.14,30.19
			C53,21.77,49.07,41.12,48.33,59.82c0,0.31-0.04,0.66-0.04,0.96C48.22,62.79,48.18,64.8,48.18,66.8z"/>
		<path style="clip-path:url(#SVGID_00000134943786475654326570000006419998503358766764_);fill:#C2D692;" d="M15.41,76.44
			c0.27,1.58,0.62,3.08,1.08,4.55c5.55,18.39,24.6,25.64,41.75,29.42c-1-1.77-1.93-3.59-2.78-5.51c-0.85-1.85-1.62-3.78-2.31-5.78
			c-3.24-9.14-4.97-19.85-4.97-32.31c0-2,0.04-4.01,0.12-6.01c0-0.31,0.04-0.66,0.04-0.96C32.99,49.8,11.79,54.62,15.41,76.44z"/>
		
			<path style="clip-path:url(#SVGID_00000134943786475654326570000006419998503358766764_);fill:#3844D6;stroke:#231F20;stroke-width:4;stroke-linejoin:round;stroke-miterlimit:10;" d="
			M125.97,58.95c1.81,9.17,5.92,15.56,10.73,15.56s8.93-6.39,10.73-15.56c-2.85,4.02-6.61,6.45-10.73,6.45
			S128.82,62.97,125.97,58.95z"/>
		
			<path style="clip-path:url(#SVGID_00000134943786475654326570000006419998503358766764_);fill:#231F20;stroke:#231F20;stroke-width:4;stroke-linejoin:round;stroke-miterlimit:10;" d="
			M124.97,48.49c0,3.74,0.39,7.25,1,10.45c2.85,4.05,6.59,6.48,10.72,6.48s7.9-2.43,10.76-6.48c0.62-3.2,0.96-6.71,0.96-10.45
			c0-4.32-0.46-8.44-1.31-12.03c-0.96-3.97-2.35-7.36-4.01-9.79l-14.8,3.7c-0.77,1.81-1.46,3.86-1.97,6.09
			C125.48,40.05,124.97,44.17,124.97,48.49z"/>
		
			<path style="clip-path:url(#SVGID_00000134943786475654326570000006419998503358766764_);fill:#FCD9D9;stroke:#231F20;stroke-width:4;stroke-linejoin:round;stroke-miterlimit:10;" d="
			M126.32,36.46c1.12,7.98,5.32,13.92,10.37,13.92c5.09,0,9.29-5.94,10.41-13.92c-0.96-3.97-2.35-7.36-4.01-9.79l-14.8,3.7
			C127.52,32.18,126.82,34.22,126.32,36.46z"/>
		
			<path style="clip-path:url(#SVGID_00000134943786475654326570000006419998503358766764_);fill:#3844D6;stroke:#231F20;stroke-width:4;stroke-linejoin:round;stroke-miterlimit:10;" d="
			M79.71,58.95c1.81,9.17,5.92,15.56,10.73,15.56s8.93-6.39,10.73-15.56c-2.85,4.02-6.61,6.45-10.73,6.45S82.56,62.97,79.71,58.95z"
			/>
		
			<path style="clip-path:url(#SVGID_00000134943786475654326570000006419998503358766764_);fill:#231F20;stroke:#231F20;stroke-width:4;stroke-linejoin:round;stroke-miterlimit:10;" d="
			M78.71,48.49c0,3.74,0.39,7.25,1,10.45c2.85,4.05,6.59,6.48,10.72,6.48c4.13,0,7.9-2.43,10.76-6.48c0.62-3.2,0.96-6.71,0.96-10.45
			c0-4.32-0.46-8.44-1.31-12.03c-0.54-2.27-1.23-4.36-2.04-6.17l-14.73-3.66c-1.7,2.43-3.08,5.82-4.01,9.83
			C79.21,40.05,78.71,44.17,78.71,48.49z"/>
		
			<path style="clip-path:url(#SVGID_00000134943786475654326570000006419998503358766764_);fill:#FCD9D9;stroke:#231F20;stroke-width:4;stroke-linejoin:round;stroke-miterlimit:10;" d="
			M80.06,36.46c1.12,7.98,5.32,13.92,10.37,13.92c5.09,0,9.29-5.94,10.41-13.92c-0.54-2.27-1.23-4.36-2.04-6.17l-14.73-3.66
			C82.37,29.06,80.99,32.45,80.06,36.46z"/>
		
			<polyline style="clip-path:url(#SVGID_00000134943786475654326570000006419998503358766764_);fill:none;stroke:#231F20;stroke-width:4;stroke-linecap:round;stroke-linejoin:round;stroke-miterlimit:10;" points="
			152.27,24.39 128.29,30.37 121.43,32.1 		"/>
		
			<polyline style="clip-path:url(#SVGID_00000134943786475654326570000006419998503358766764_);fill:none;stroke:#231F20;stroke-width:4;stroke-linecap:round;stroke-linejoin:round;stroke-miterlimit:10;" points="
			75.17,24.39 84.07,26.63 98.8,30.29 99.14,30.37 106.01,32.1 		"/>
		
			<path style="clip-path:url(#SVGID_00000134943786475654326570000006419998503358766764_);fill:none;stroke:#0E9299;stroke-width:4;stroke-linecap:round;stroke-linejoin:round;stroke-miterlimit:10;" d="
			M125.28,93.79c0,0-11.57-15.42-23.13,0"/>
		<path style="clip-path:url(#SVGID_00000134943786475654326570000006419998503358766764_);fill:#5DEDA2;" d="M65.53,88h15.42
			c2.12,0,3.86-1.73,3.86-3.86v0c0-2.12-1.73-3.86-3.86-3.86H65.53c-2.12,0-3.86,1.73-3.86,3.86v0C61.67,86.27,63.41,88,65.53,88z"
			/>
		<path style="clip-path:url(#SVGID_00000134943786475654326570000006419998503358766764_);fill:#5DEDA2;" d="M146.49,84.15
			c0,2.12,1.73,3.86,3.86,3.86h15.42c0.54,0,1.08-0.12,1.54-0.35c-1.66-2.27-3.01-4.74-3.82-7.36h-13.15
			C148.22,80.29,146.49,82.03,146.49,84.15z"/>
		<path style="clip-path:url(#SVGID_00000134943786475654326570000006419998503358766764_);fill:#5BB29A;" d="M100.8,141.48
			c11.03,3.05,23.25,4.36,36.05,4.36c56.56,0,83.93-22.67,88.09-66.54C211.79,105.93,179.18,144.75,100.8,141.48z"/>
		<path style="clip-path:url(#SVGID_00000134943786475654326570000006419998503358766764_);fill:#F7A74F;" d="M158.05,159.33
			c0,2.58,3.7,4.63,9.48,6.01c19.82,4.78,63.76,2.08,63.76-9.87c0-0.89-0.04-1.77-0.15-2.7c-1.66-14.88-16.81-32-42.25-32
			C161.91,120.77,158.05,147.76,158.05,159.33z"/>
		<path style="clip-path:url(#SVGID_00000134943786475654326570000006419998503358766764_);fill:#A34F21;" d="M167.54,165.34
			c19.82,4.78,63.76,2.08,63.76-9.87c0-0.89-0.04-1.77-0.15-2.7C219.5,163.57,186.31,165.26,167.54,165.34z"/>
		<path style="clip-path:url(#SVGID_00000134943786475654326570000006419998503358766764_);fill:#A34F21;" d="M112.1,149.61
			c-7.01,8.43-31.57,12.57-54.13,15c14.19,0.19,30.88-0.31,42.25-1.43C107.05,162.49,110.75,156.78,112.1,149.61z"/>
		
			<path style="clip-path:url(#SVGID_00000134943786475654326570000006419998503358766764_);fill:none;stroke:#F9C69D;stroke-width:4;stroke-linecap:round;stroke-miterlimit:10;" d="
			M186.55,129.45c-3.94-0.09-9.03,0.77-13.07,4.81"/>
		
			<path style="clip-path:url(#SVGID_00000134943786475654326570000006419998503358766764_);fill:none;stroke:#F9C69D;stroke-width:4;stroke-linecap:round;stroke-miterlimit:10;" d="
			M66.71,128.71c-3.92,0.37-8.88,1.82-12.43,6.3"/>
		
			<path style="clip-path:url(#SVGID_00000134943786475654326570000006419998503358766764_);fill:none;stroke:#F9C69D;stroke-width:4;stroke-linecap:round;stroke-miterlimit:10;" d="
			M200.46,130.41c0,0-2.62-0.87-6.2-0.96"/>
		<path style="clip-path:url(#SVGID_00000134943786475654326570000006419998503358766764_);fill:#5BB29A;" d="M161.91,76.44
			c4.24,15.81,27.76,30.46,38.55,21.2c1.26-1.02-1.42,1.81-0.36,0.78c1.66-1.62,0.57-4.96-1.72-4.53
			C188.89,95.71,177.33,95.71,161.91,76.44z"/>
		
			<path style="clip-path:url(#SVGID_00000134943786475654326570000006419998503358766764_);fill:none;stroke:#0E9299;stroke-width:4;stroke-linecap:round;stroke-linejoin:round;stroke-miterlimit:10;" d="
			M210.1,66.8c-11.57-15.42-38.55-19.28-46.26,0c-1.66,4.16-1.73,8.37-0.69,12.34v0.04c0.12,0.39,0.19,0.73,0.35,1.12
			c0.81,2.62,2.16,5.09,3.82,7.36c8.13,11.1,24.4,17.46,33.15,9.98"/>
		<path style="clip-path:url(#SVGID_00000134943786475654326570000006419998503358766764_);fill:#5BB29A;" d="M16.49,80.99
			c5.55,18.39,24.6,25.64,41.75,29.42c-0.69-1.23-1.35-2.48-1.97-3.77c-0.53-1.1-1.46-1.94-2.61-2.35
			C38.25,98.89,19.26,91.86,16.49,80.99z"/>
		
			<line style="clip-path:url(#SVGID_00000134943786475654326570000006419998503358766764_);fill:none;stroke:#FDFFB6;stroke-width:4;stroke-linecap:round;stroke-miterlimit:10;" x1="40.47" y1="62.8" x2="40.47" y2="62.8"/>
		
			<path style="clip-path:url(#SVGID_00000134943786475654326570000006419998503358766764_);fill:none;stroke:#FDFFB6;stroke-width:4;stroke-linecap:round;stroke-miterlimit:10;" d="
			M183.11,62.95c0,0-11.57,0-11.57,7.71"/>
		
			<path style="clip-path:url(#SVGID_00000134943786475654326570000006419998503358766764_);fill:none;stroke:#FDFFB6;stroke-width:4;stroke-linecap:round;stroke-miterlimit:10;" d="
			M33,62c0,0-10-2-14,9"/>
		
			<line style="clip-path:url(#SVGID_00000134943786475654326570000006419998503358766764_);fill:none;stroke:#FDFFB6;stroke-width:4;stroke-linecap:round;stroke-miterlimit:10;" x1="190.82" y1="62.95" x2="190.82" y2="62.95"/>
	</g>
</g>
</svg>
