<?xml version="1.0" encoding="utf-8"?>
<!-- Generator: Adobe Illustrator 27.2.0, SVG Export Plug-In . SVG Version: 6.00 Build 0)  -->
<svg version="1.1" xmlns="http://www.w3.org/2000/svg" xmlns:xlink="http://www.w3.org/1999/xlink" x="0px" y="0px"
	 viewBox="0 0 254 111" style="enable-background:new 0 0 254 111;" xml:space="preserve">
<style type="text/css">
	.st0{clip-path:url(#SVGID_00000145760197949306625790000011099066174116280731_);fill:#B5506F;}
	.st1{clip-path:url(#SVGID_00000145760197949306625790000011099066174116280731_);}
	.st2{fill:#C44E6D;}
	.st3{fill:#E60044;}
	.st4{fill:#FF96AE;}
	.st5{fill:#F482A0;}
	.st6{fill:#3844D6;stroke:#231F20;stroke-width:4;stroke-linejoin:round;stroke-miterlimit:10;}
	.st7{fill:#231F20;stroke:#231F20;stroke-width:4;stroke-linejoin:round;stroke-miterlimit:10;}
	.st8{fill:#FCD9D9;stroke:#231F20;stroke-width:4;stroke-linejoin:round;stroke-miterlimit:10;}
	.st9{fill:none;stroke:#231F20;stroke-width:4;stroke-linecap:round;stroke-linejoin:round;stroke-miterlimit:10;}
	.st10{fill:none;stroke:#990D35;stroke-width:4;stroke-linecap:round;stroke-miterlimit:10;}
	.st11{fill:#EF5B82;}
	.st12{fill:#E2597D;}
	.st13{fill:#AD2150;}
	.st14{fill:#FFB3C7;}
	.st15{fill:none;stroke:#F95F67;stroke-width:4;stroke-linecap:round;stroke-miterlimit:10;}
	.st16{fill:none;stroke:#990D35;stroke-width:4;stroke-linecap:round;stroke-linejoin:round;stroke-miterlimit:10;}
	.st17{fill:none;stroke:#FFC7CE;stroke-width:4;stroke-linecap:round;stroke-miterlimit:10;}
</style>
<g id="Layer_2">
</g>
<g id="Layer_1">
	<g id="Layer_2_00000082365072815381936230000004097181678491684743_">
	</g>
	<g>
		<defs>
			<rect id="SVGID_1_" x="-0.2" y="-0.15" width="254.2" height="111.25"/>
		</defs>
		<clipPath id="SVGID_00000009573397118085631940000011691120971707907235_">
			<use xlink:href="#SVGID_1_"  style="overflow:visible;"/>
		</clipPath>
		
			<rect x="-0.2" y="-0.15" style="clip-path:url(#SVGID_00000009573397118085631940000011691120971707907235_);fill:#B5506F;" width="254.2" height="111.25"/>
		<g style="clip-path:url(#SVGID_00000009573397118085631940000011691120971707907235_);">
			<ellipse class="st2" cx="125.48" cy="166.88" rx="111.37" ry="9.77"/>
			<path class="st3" d="M221.21,162.98c-4.81,0.82-13.6,1.29-23.6,1.45c-14.38,0.2-31.3-0.31-42.83-1.45
				c-6.92-0.7-10.67-6.49-12.04-13.75c-2.54-13.4,3.01-31.85,12.04-33.14C209.49,108.27,232.94,161.02,221.21,162.98z"/>
			<path class="st4" d="M207.54,65.29c0,12.62-1.76,23.48-5.04,32.75c-1.45,4.14-3.17,7.93-5.16,11.45
				c-9.34,16.49-24.58,26.38-43.14,31.5c-11.18,3.09-23.56,4.42-36.54,4.42c-57.32,0-85.07-22.98-89.29-67.45
				c-0.39-4.06-0.59-8.28-0.59-12.66c0-43.57,35.29-88,83.7-91.67c0.74-0.08,1.52-0.12,2.27-0.16c41.03-2.03,64.79,11.18,78.19,30.6
				c10.71,15.59,14.69,35.21,15.44,54.16c0,0.31,0.04,0.66,0.04,0.98C207.5,61.22,207.54,63.25,207.54,65.29z"/>
			<path class="st5" d="M240.75,75.06c-0.27,1.6-0.63,3.13-1.09,4.61c-5.63,18.64-24.93,25.99-42.32,29.82
				c1.02-1.8,1.95-3.63,2.81-5.59c0.86-1.88,1.64-3.83,2.34-5.86c3.28-9.26,5.04-20.12,5.04-32.75c0-2.03-0.04-4.06-0.12-6.1
				c0-0.31-0.04-0.66-0.04-0.98C222.93,48.05,244.42,52.94,240.75,75.06z"/>
			<path class="st6" d="M128.68,57.35c-1.84,9.3-6.02,15.79-10.86,15.79c-4.88,0-9.07-6.49-10.86-15.79
				c2.89,4.06,6.68,6.53,10.86,6.53C122,63.88,125.79,61.42,128.68,57.35z"/>
			<path class="st7" d="M129.7,46.72c0,3.79-0.39,7.35-1.02,10.59c-2.89,4.1-6.68,6.56-10.86,6.56c-4.18,0-8.01-2.46-10.9-6.56
				c-0.63-3.24-0.98-6.8-0.98-10.59c0-4.38,0.47-8.56,1.33-12.19c0.98-4.02,2.38-7.46,4.06-9.93l15.01,3.75
				c0.78,1.84,1.48,3.91,1.99,6.17C129.19,38.17,129.7,42.35,129.7,46.72z"/>
			<path class="st8" d="M128.33,34.53c-1.13,8.09-5.39,14.11-10.51,14.11c-5.16,0-9.42-6.02-10.55-14.11
				c0.98-4.02,2.38-7.46,4.06-9.93l15.01,3.75C127.12,30.2,127.82,32.27,128.33,34.53z"/>
			<path class="st6" d="M175.57,57.35c-1.84,9.3-6.02,15.79-10.86,15.79c-4.88,0-9.07-6.49-10.86-15.79
				c2.89,4.06,6.68,6.53,10.86,6.53S172.68,61.42,175.57,57.35z"/>
			<path class="st7" d="M176.59,46.72c0,3.79-0.39,7.35-1.02,10.59c-2.89,4.1-6.68,6.56-10.86,6.56s-8.01-2.46-10.9-6.56
				c-0.63-3.24-0.98-6.8-0.98-10.59c0-4.38,0.47-8.56,1.33-12.19c0.55-2.31,1.25-4.42,2.07-6.25l14.93-3.71
				c1.72,2.46,3.13,5.9,4.06,9.96C176.08,38.17,176.59,42.35,176.59,46.72z"/>
			<path class="st8" d="M175.22,34.53c-1.13,8.09-5.39,14.11-10.51,14.11c-5.16,0-9.42-6.02-10.55-14.11
				c0.55-2.31,1.25-4.42,2.07-6.25l14.93-3.71C172.88,27.03,174.28,30.47,175.22,34.53z"/>
			<polyline class="st9" points="133.29,30.12 126.34,28.36 102.03,22.3 			"/>
			<polyline class="st9" points="148.92,30.12 155.88,28.36 156.23,28.28 171.16,24.57 180.18,22.3 			"/>
			<path class="st10" d="M129.38,92.64c0,0,11.72-15.63,23.45,0"/>
			<path class="st11" d="M189.95,86.78h-15.63c-2.15,0-3.91-1.76-3.91-3.91l0,0c0-2.15,1.76-3.91,3.91-3.91h15.63
				c2.15,0,3.91,1.76,3.91,3.91l0,0C193.86,85.02,192.1,86.78,189.95,86.78z"/>
			<path class="st11" d="M107.89,82.87c0,2.15-1.76,3.91-3.91,3.91H88.35c-0.55,0-1.09-0.12-1.56-0.35
				c1.68-2.31,3.05-4.81,3.87-7.46h13.33C106.13,78.96,107.89,80.72,107.89,82.87z"/>
			<path class="st12" d="M154.2,140.98c-11.18,3.09-23.56,4.42-36.54,4.42c-57.32,0-85.07-22.98-89.29-67.45
				C41.7,104.95,74.75,144.3,154.2,140.98z"/>
			<path class="st3" d="M96.17,159.07c0,2.62-3.75,4.69-9.61,6.1c-20.09,4.85-64.63,2.11-64.63-10c0-0.9,0.04-1.8,0.16-2.74
				c1.68-15.08,17.04-32.43,42.83-32.43C92.26,119.99,96.17,147.35,96.17,159.07z"/>
			<path class="st13" d="M86.56,165.17c-20.09,4.85-64.63,2.11-64.63-10c0-0.9,0.04-1.8,0.16-2.74
				C33.88,163.37,67.53,165.09,86.56,165.17z"/>
			<path class="st14" d="M191.94,4.05c-23.29-16.18-53.53-26.49-80.46-30.44c0.74-0.08,1.52-0.12,2.27-0.16
				C154.78-28.58,178.54-15.37,191.94,4.05z"/>
			<path class="st13" d="M142.75,149.22c7.11,8.56,32,12.74,54.86,15.2c-14.38,0.2-31.3-0.31-42.83-1.45
				C147.87,162.27,144.12,156.49,142.75,149.22z"/>
			<path class="st15" d="M67.29,128.79c3.99-0.08,9.14,0.78,13.25,4.88"/>
			<path class="st15" d="M188.74,128.04c3.99,0.35,8.99,1.84,12.58,6.37"/>
			<path class="st15" d="M53.18,129.76c0,0,2.66-0.9,6.29-0.98"/>
			<path class="st12" d="M92.26,75.06c-4.3,16.02-28.13,30.87-39.08,21.49c-1.29-1.02,1.45,1.84,0.35,0.78
				c-1.68-1.64-0.59-5.04,1.76-4.57C64.91,94.59,76.63,94.59,92.26,75.06z"/>
			<path class="st16" d="M53.18,96.55c8.87,7.58,25.36,1.13,33.61-10.12c1.68-2.31,3.05-4.81,3.87-7.46
				c0.16-0.39,0.23-0.74,0.35-1.13v-0.04c1.06-4.02,0.98-8.28-0.7-12.5c-7.82-19.54-35.17-15.63-46.89,0"/>
			<path class="st12" d="M239.66,79.67c-5.63,18.64-24.93,25.99-42.32,29.82c0.7-1.25,1.37-2.5,1.99-3.83
				c0.55-1.13,1.48-1.95,2.66-2.38C217.62,97.84,236.84,90.69,239.66,79.67z"/>
			<path class="st17" d="M223.17,61.38c0,0,7.82-3.91,11.72,3.91"/>
			<line class="st17" x1="215.35" y1="65.29" x2="215.35" y2="65.29"/>
			<path class="st17" d="M70.77,61.38c0,0,11.72,0,11.72,7.82"/>
			<line class="st17" x1="62.95" y1="61.38" x2="62.95" y2="61.38"/>
		</g>
	</g>
</g>
</svg>
