<?xml version="1.0" encoding="utf-8"?>
<!-- Generator: Adobe Illustrator 27.2.0, SVG Export Plug-In . SVG Version: 6.00 Build 0)  -->
<svg version="1.1" id="Layer_1" xmlns="http://www.w3.org/2000/svg" xmlns:xlink="http://www.w3.org/1999/xlink" x="0px" y="0px"
	 viewBox="0 0 60 54" style="enable-background:new 0 0 60 54;" xml:space="preserve">
<style type="text/css">
	.st0{fill:#C44E6D;}
	.st1{fill:#E60044;}
	.st2{fill:#FF96AE;}
	.st3{fill:#F482A0;}
	.st4{fill:#3844D6;stroke:#231F20;stroke-linejoin:round;stroke-miterlimit:10;}
	.st5{fill:#231F20;stroke:#231F20;stroke-linejoin:round;stroke-miterlimit:10;}
	.st6{fill:#FCD9D9;stroke:#231F20;stroke-linejoin:round;stroke-miterlimit:10;}
	.st7{fill:none;stroke:#231F20;stroke-linecap:round;stroke-linejoin:round;stroke-miterlimit:10;}
	.st8{fill:none;stroke:#990D35;stroke-linecap:round;stroke-miterlimit:10;}
	.st9{fill:#EF5B82;}
	.st10{fill:#E2597D;}
	.st11{fill:#AD2150;}
	.st12{fill:#FFB3C7;}
	.st13{fill:none;stroke:#F95F67;stroke-linecap:round;stroke-miterlimit:10;}
	.st14{fill:none;stroke:#990D35;stroke-linecap:round;stroke-linejoin:round;stroke-miterlimit:10;}
	.st15{fill:none;stroke:#FFC7CE;stroke-linecap:round;stroke-miterlimit:10;}
</style>
<ellipse class="st0" cx="29.63" cy="50.09" rx="28.5" ry="2.5"/>
<path class="st1" d="M54.13,49.09c-1.23,0.21-3.48,0.33-6.04,0.37c-3.68,0.05-8.01-0.08-10.96-0.37c-1.77-0.18-2.73-1.66-3.08-3.52
	c-0.65-3.43,0.77-8.15,3.08-8.48C51.13,35.09,57.13,48.59,54.13,49.09z"/>
<path class="st2" d="M50.63,24.09c0,3.23-0.45,6.01-1.29,8.38c-0.37,1.06-0.81,2.03-1.32,2.93c-2.39,4.22-6.29,6.75-11.04,8.06
	c-2.86,0.79-6.03,1.13-9.35,1.13c-14.67,0-21.77-5.88-22.85-17.26c-0.1-1.04-0.15-2.12-0.15-3.24c0-11.15,9.03-22.52,21.42-23.46
	c0.19-0.02,0.39-0.03,0.58-0.04c10.5-0.52,16.58,2.86,20.01,7.83c2.74,3.99,3.76,9.01,3.95,13.86c0,0.08,0.01,0.17,0.01,0.25
	C50.62,23.05,50.63,23.57,50.63,24.09z"/>
<path class="st3" d="M59.13,26.59c-0.07,0.41-0.16,0.8-0.28,1.18c-1.44,4.77-6.38,6.65-10.83,7.63c0.26-0.46,0.5-0.93,0.72-1.43
	c0.22-0.48,0.42-0.98,0.6-1.5c0.84-2.37,1.29-5.15,1.29-8.38c0-0.52-0.01-1.04-0.03-1.56c0-0.08-0.01-0.17-0.01-0.25
	C54.57,19.68,60.07,20.93,59.13,26.59z"/>
<path class="st4" d="M30.45,22.06c-0.47,2.38-1.54,4.04-2.78,4.04c-1.25,0-2.32-1.66-2.78-4.04c0.74,1.04,1.71,1.67,2.78,1.67
	C28.74,23.73,29.71,23.1,30.45,22.06z"/>
<path class="st5" d="M30.71,19.34c0,0.97-0.1,1.88-0.26,2.71c-0.74,1.05-1.71,1.68-2.78,1.68s-2.05-0.63-2.79-1.68
	c-0.16-0.83-0.25-1.74-0.25-2.71c0-1.12,0.12-2.19,0.34-3.12c0.25-1.03,0.61-1.91,1.04-2.54l3.84,0.96c0.2,0.47,0.38,1,0.51,1.58
	C30.58,17.15,30.71,18.22,30.71,19.34z"/>
<path class="st6" d="M30.36,16.22c-0.29,2.07-1.38,3.61-2.69,3.61c-1.32,0-2.41-1.54-2.7-3.61c0.25-1.03,0.61-1.91,1.04-2.54
	l3.84,0.96C30.05,15.11,30.23,15.64,30.36,16.22z"/>
<path class="st4" d="M42.45,22.06c-0.47,2.38-1.54,4.04-2.78,4.04c-1.25,0-2.32-1.66-2.78-4.04c0.74,1.04,1.71,1.67,2.78,1.67
	S41.71,23.1,42.45,22.06z"/>
<path class="st5" d="M42.71,19.34c0,0.97-0.1,1.88-0.26,2.71c-0.74,1.05-1.71,1.68-2.78,1.68s-2.05-0.63-2.79-1.68
	c-0.16-0.83-0.25-1.74-0.25-2.71c0-1.12,0.12-2.19,0.34-3.12c0.14-0.59,0.32-1.13,0.53-1.6l3.82-0.95c0.44,0.63,0.8,1.51,1.04,2.55
	C42.58,17.15,42.71,18.22,42.71,19.34z"/>
<path class="st6" d="M42.36,16.22c-0.29,2.07-1.38,3.61-2.69,3.61c-1.32,0-2.41-1.54-2.7-3.61c0.14-0.59,0.32-1.13,0.53-1.6
	l3.82-0.95C41.76,14.3,42.12,15.18,42.36,16.22z"/>
<polyline class="st7" points="31.63,15.09 29.85,14.64 23.63,13.09 "/>
<polyline class="st7" points="35.63,15.09 37.41,14.64 37.5,14.62 41.32,13.67 43.63,13.09 "/>
<path class="st8" d="M30.63,31.09c0,0,3-4,6,0"/>
<path class="st9" d="M46.13,29.59h-4c-0.55,0-1-0.45-1-1v0c0-0.55,0.45-1,1-1h4c0.55,0,1,0.45,1,1v0
	C47.13,29.14,46.68,29.59,46.13,29.59z"/>
<path class="st9" d="M25.13,28.59c0,0.55-0.45,1-1,1h-4c-0.14,0-0.28-0.03-0.4-0.09c0.43-0.59,0.78-1.23,0.99-1.91h3.41
	C24.68,27.59,25.13,28.04,25.13,28.59z"/>
<path class="st10" d="M36.98,43.46c-2.86,0.79-6.03,1.13-9.35,1.13c-14.67,0-21.77-5.88-22.85-17.26
	C8.19,34.24,16.65,44.31,36.98,43.46z"/>
<path class="st1" d="M22.13,48.09c0,0.67-0.96,1.2-2.46,1.56c-5.14,1.24-16.54,0.54-16.54-2.56c0-0.23,0.01-0.46,0.04-0.7
	c0.43-3.86,4.36-8.3,10.96-8.3C21.13,38.09,22.13,45.09,22.13,48.09z"/>
<path class="st11" d="M19.67,49.65c-5.14,1.24-16.54,0.54-16.54-2.56c0-0.23,0.01-0.46,0.04-0.7C6.19,49.19,14.8,49.63,19.67,49.65z
	"/>
<path class="st12" d="M46.64,8.42c-5.96-4.14-13.7-6.78-20.59-7.79c0.19-0.02,0.39-0.03,0.58-0.04C37.13,0.07,43.21,3.45,46.64,8.42
	z"/>
<path class="st11" d="M34.05,45.57c1.82,2.19,8.19,3.26,14.04,3.89c-3.68,0.05-8.01-0.08-10.96-0.37
	C35.36,48.91,34.4,47.43,34.05,45.57z"/>
<path class="st13" d="M14.74,40.34c1.02-0.02,2.34,0.2,3.39,1.25"/>
<path class="st13" d="M45.82,40.15c1.02,0.09,2.3,0.47,3.22,1.63"/>
<path class="st13" d="M11.13,40.59c0,0,0.68-0.23,1.61-0.25"/>
<path class="st10" d="M21.13,26.59c-1.1,4.1-7.2,7.9-10,5.5c-0.33-0.26,0.37,0.47,0.09,0.2c-0.43-0.42-0.15-1.29,0.45-1.17
	C14.13,31.59,17.13,31.59,21.13,26.59z"/>
<path class="st14" d="M11.13,32.09c2.27,1.94,6.49,0.29,8.6-2.59c0.43-0.59,0.78-1.23,0.99-1.91c0.04-0.1,0.06-0.19,0.09-0.29v-0.01
	c0.27-1.03,0.25-2.12-0.18-3.2c-2-5-9-4-12,0"/>
<path class="st10" d="M58.85,27.77c-1.44,4.77-6.38,6.65-10.83,7.63c0.18-0.32,0.35-0.64,0.51-0.98c0.14-0.29,0.38-0.5,0.68-0.61
	C53.21,32.42,58.13,30.59,58.85,27.77z"/>
<path class="st15" d="M54.63,23.09c0,0,2-1,3,1"/>
<line class="st15" x1="52.63" y1="24.09" x2="52.63" y2="24.09"/>
<path class="st15" d="M15.63,23.09c0,0,3,0,3,2"/>
<line class="st15" x1="13.63" y1="23.09" x2="13.63" y2="23.09"/>
</svg>
