<?xml version="1.0" encoding="utf-8"?>
<!-- Generator: Adobe Illustrator 27.2.0, SVG Export Plug-In . SVG Version: 6.00 Build 0)  -->
<svg version="1.1" id="Layer_1" xmlns="http://www.w3.org/2000/svg" xmlns:xlink="http://www.w3.org/1999/xlink" x="0px" y="0px"
	 viewBox="0 0 43 44" style="enable-background:new 0 0 43 44;" xml:space="preserve">
<style type="text/css">
	.st0{fill:#6DB272;}
	.st1{fill:#CAFCCA;}
	.st2{fill:#EF8D65;}
	.st3{fill:#FFDBC2;}
	.st4{fill:#BF5C3A;}
</style>
<g>
	<path class="st0" d="M20.7,19l-0.4,0l-0.1-0.4c-0.1-1.4,1-2.6,2.4-2.7l0.4,0l0,0.4C23.2,17.8,22.1,18.9,20.7,19z"/>
	<path class="st1" d="M22.2,16.7c-0.6,0.2-1,0.7-1.2,1.3c0,0.1,0,0.1,0,0.2c0,0.1,0.2,0.1,0.2,0v0c0,0,0,0,0,0c0,0,0,0,0,0v0
		c0-0.1,0-0.2,0.1-0.2c0.1-0.2,0.2-0.5,0.4-0.6c0.2-0.1,0.3-0.2,0.5-0.3c0.1,0,0.1-0.1,0.1-0.1C22.4,16.7,22.3,16.7,22.2,16.7
		L22.2,16.7z"/>
	<path class="st0" d="M19.9,19.4l0.3-0.2l-0.2-0.3c-0.9-1.1-2.4-1.3-3.5-0.4l-0.3,0.2l0.2,0.3C17.2,20.1,18.7,20.3,19.9,19.4z"/>
	<path class="st1" d="M17.2,18.8c0.4-0.1,0.8-0.2,1.2,0c0.1,0.1,0.2,0.1,0.3,0.2c0.1,0,0.1,0,0.1,0.1c0.1,0.1,0.2-0.1,0.1-0.1
		c-0.1-0.1-0.3-0.2-0.5-0.3c-0.4-0.2-0.9-0.1-1.3,0C17.1,18.7,17.1,18.9,17.2,18.8L17.2,18.8z"/>
	<path class="st2" d="M26.5,20.3c0.4,1.1,0.4,2,0.2,2.8c-0.3,1.1-1,2.1-1.6,3c-1,1.7-1.7,1.5-3.5,1.1c-1-0.2-2-0.5-2.8-1
		c-0.9-0.6-1.7-1.3-2-2.2c-0.8-2.2,0.4-4.2,1.3-4.7c0.7-0.3,1.2-0.1,1.6-0.1c0.1,0,0.2,0,0.3-0.1c0.4-0.1,0.6-0.3,0.9-0.6
		c0.3-0.2,0.6-0.5,1.2-0.7C23.2,17.3,25.3,17.1,26.5,20.3z"/>
	<path class="st3" d="M17.9,20.2c-0.6,0.7-0.9,1.6-0.6,2.5c0.1,0.2,0.3,0.4,0.6,0.3c0.3-0.1,0.4-0.3,0.3-0.6c0-0.1,0-0.1-0.1-0.2
		c0-0.1,0,0.1,0,0c0,0,0-0.1,0-0.1c0-0.1,0-0.1,0-0.2c0,0,0-0.1,0-0.1s0-0.1,0,0c0-0.1,0.1-0.2,0.1-0.3c0-0.1,0-0.1,0.1-0.2
		c0,0,0.1-0.1,0,0c0,0,0-0.1,0-0.1c0.1-0.2,0.2-0.3,0.2-0.4c0,0,0-0.1,0.1-0.1s0.1-0.1,0,0s0,0,0,0c0.2-0.2,0.2-0.5,0-0.7
		C18.5,20,18.1,20,17.9,20.2L17.9,20.2z"/>
	<path class="st4" d="M26.7,23.1c-0.3,1.1-1,2.1-1.6,3c-1,1.7-1.7,1.5-3.5,1.1c-1-0.2-2-0.5-2.8-1c0.9,0.3,2.5,0.3,3.4-0.4
		c0.9-0.7,0.5-2.2-0.2-2.9c0.7,0.4,1.5,1.9,2.4,1.8C24.9,24.7,26,24,26.7,23.1z"/>
</g>
</svg>
