<?xml version="1.0" encoding="utf-8"?>
<!-- Generator: Adobe Illustrator 27.2.0, SVG Export Plug-In . SVG Version: 6.00 Build 0)  -->
<svg version="1.1" id="Layer_1" xmlns="http://www.w3.org/2000/svg" xmlns:xlink="http://www.w3.org/1999/xlink" x="0px" y="0px"
	 viewBox="0 0 360 504" style="enable-background:new 0 0 360 504;" xml:space="preserve">
<style type="text/css">
	.st0{fill:#F7E289;}
	.st1{fill:#59D18C;}
	.st2{fill:#65AA81;}
	.st3{fill:#9E5174;}
	.st4{fill:#FFEFDC;}
	.st5{fill:#FC638E;}
	.st6{fill:#D35784;}
	.st7{fill:#F9D4E1;}
	.st8{fill:#F9C0CF;}
	.st9{fill:#6D4A54;}
	.st10{fill:#FFD2A9;}
	.st11{fill:#EFB66A;}
	.st12{fill:#67675F;}
	.st13{fill:#F291C2;}
	.st14{fill:none;}
	.st15{fill:#F6FF7B;}
	.st16{fill:#F2C077;}
	.st17{fill:#FFFEF8;}
	.st18{font-family:'CoconPro-Regular';}
	.st19{font-size:48px;}
</style>
<g id="Layer_2_00000004506841523876786280000009968641869027493528_">
	<path class="st0" d="M324.5,503.5H35.5c-19.4,0-35-15.7-35-35V35.5c0-19.4,15.7-35,35-35h288.9c19.4,0,35,15.7,35,35v432.9
		C359.5,487.8,343.8,503.5,324.5,503.5z"/>
</g>
<g id="Layer_1_00000096022332659162686600000010011506000023566490_">
	<g>
		<g>
			<path class="st1" d="M227.8,314.1c0,1.2-2.4,1.8-2.7,2.9c-0.3,1.1-0.6,1.8-1.2,2.8c-0.6,0.9,1,3.5,0.2,4.4c-0.7,0.8-3.1,0-4,0.8
				c-0.9,0.7-1,2.4-2,3c-0.9,0.6-2.8-0.4-3.8,0.1c-1,0.5-1.6,1.8-2.7,2.2c-1,0.4-1.5,2.3-2.6,2.7c-1,0.4-2.7-0.9-3.8-0.6
				c-1.1,0.3-2,1.1-3.2,1.4c-1.1,0.3-1.8,2.3-3,2.5c-1.1,0.2-2.5-0.9-3.6-0.7c-1.1,0.2-2.2,0.6-3.4,0.7c-1.1,0.1-2.2,1.6-3.3,1.7
				c-1.1,0.1-2.4-2.1-3.6-2c-1.1,0-2.3,1.5-3.4,1.5s-2.3-1.2-3.4-1.2c-1.2,0-2.4,1.8-3.6,1.7c-1.2-0.1-2.1-2.1-3.3-2.3
				c-1.2-0.1-2.4,0.3-3.5,0.1c-1.2-0.2-2-1.6-3.1-1.8c-1.1-0.2-2.5,0.8-3.6,0.6c-1.1-0.3-2.1-1-3.2-1.3c-1.1-0.3-2.8,0.9-3.8,0.5
				c-1.1-0.4-1.5-2.7-2.5-3.1c-1.1-0.5-2.1-0.9-3.1-1.4c-1-0.6-2.5-0.4-3.4-1c-1-0.6-1.4-2.1-2.2-2.8c-0.9-0.8-1.4-1.8-2.1-2.6
				c-0.8-0.9-2.7-0.9-3.2-1.8c-0.6-1-1.2-2.2-1.5-3.3c-0.3-1.1-1-2.4-1-3.6c0-1.2,1.6-2.2,2-3.3c0.3-1.1,1-1.9,1.7-2.9
				c0.6-0.9-0.3-3.1,0.5-4c0.7-0.8,2-1.4,2.9-2.2c0.9-0.7,2.1-1.1,3.1-1.7c0.9-0.6,1.5-2,2.6-2.6c1-0.5,2.6,0.1,3.7-0.4
				c1-0.4,2.8,1,3.9,0.6c1-0.4,1.6-2.3,2.7-2.7c1.1-0.3,2-1.4,3.1-1.7c1.1-0.3,2.1-1,3.3-1.3c1.1-0.2,2.3-0.1,3.5-0.3
				c1.1-0.2,2.5,1.8,3.7,1.7c1.1-0.1,2.1-2.1,3.2-2.2c1.1-0.1,2.3,0.2,3.5,0.1c1.1,0,2.3,0.4,3.5,0.4c1.2,0,2.3,0.7,3.4,0.8
				c1.2,0,2.3-0.7,3.5-0.6c1.2,0.1,2.2,0.7,3.4,0.8c1.2,0.1,2.5-1.5,3.7-1.3c1.2,0.2,1.8,2.9,2.9,3.1c1.1,0.2,2.2,0.5,3.3,0.8
				c1.1,0.3,2,1,3.1,1.3c1.1,0.3,2.8-1.3,3.9-0.9c1.1,0.4,2.4,0.3,3.4,0.8c1.1,0.5,1.7,1.9,2.7,2.4c1,0.6,3-0.4,4,0.2
				c1,0.6,1.4,2.3,2.2,3c0.9,0.8,1.1,2.2,1.9,3c0.8,0.9,0.4,2.4,0.9,3.3c0.6,1,2.1,1.3,2.4,2.4C226.6,312,227.8,313,227.8,314.1z"/>
		</g>
		<ellipse class="st2" cx="181" cy="315.4" rx="29.5" ry="5.8"/>
		<g>
			<path class="st3" d="M206.9,300.7c0,0-15,3.8-24,3.8c-9.1,0-28.7-3.8-28.7-3.8l1.6-2.2c0.4,0.2-0.5,2.3,0,2.2
				c6.2-1.7,20.2-5.2,27.1-5.2c6.7,0,18.5,1.3,24.1,3L206.9,300.7z"/>
			<path class="st4" d="M156.3,246.2l-3.5,7.8c-0.3,0.7-1.2,1.1-1.9,0.7l-11.4-5.1c-0.7-0.3-1.1-1.2-0.7-1.9l3.5-7.8
				c0.3-0.7,1.2-1.1,1.9-0.7l11.4,5.1C156.3,244.6,156.6,245.5,156.3,246.2z"/>
			<path class="st4" d="M206.4,245.5l2.8,8.1c0.3,0.8,1.1,1.2,1.9,0.9l11.8-4.1c0.8-0.3,1.2-1.1,0.9-1.9l-2.8-8.1
				c-0.3-0.8-1.1-1.2-1.9-0.9l-11.8,4.1C206.6,243.9,206.2,244.7,206.4,245.5z"/>
			<path class="st4" d="M160.5,294.3l-4.1,18.1c-0.6,1.2,0.5,2.5,1.9,2.5H170c0.9,0,1.7-0.5,2-1.2l3.9-19.3c0.4-1.1,3.3-2.7,2-2.8
				C177.9,291.4,160.5,294.2,160.5,294.3z"/>
			<path class="st4" d="M200.9,294.3l4.1,18.1c0.6,1.2-0.5,2.5-1.9,2.5h-11.7c-0.9,0-1.7-0.5-2-1.2l-3.9-19.3
				c-0.4-1.1-3.3-2.7-2-2.8C183.5,291.4,200.9,294.2,200.9,294.3z"/>
			<path class="st5" d="M213.9,257.1l-11.4,4.6c-0.9,0.4-1.4,1.3-1.2,2.2l7.9,34.4c0.3,1.4-1,2.7-2.4,2.2c-0.1,0-0.1,0-0.2,0
				c-5.6-1.8-17.2-5-23.9-5c-6.9,0-21,3.5-27.1,5.2c-0.5,0.2-1,0.1-1.4-0.2c-0.7-0.4-1.1-1.2-0.9-2.1l8-34.5
				c0.2-0.9-0.3-1.8-1.2-2.2l-11.4-4.6c-1.1-0.4-1.5-1.8-0.9-2.8l7.4-11.4l0.4,0.2c5.8,2.6,13.8,4.1,25.1,4.1
				c12,0,20.3-1.7,26.1-4.6l0.4,0.3l7.4,11.4C215.5,255.3,215,256.7,213.9,257.1z"/>
			<path class="st6" d="M149.7,235.2c0,0,5.7,14.2,30,14.2s31.5-12.7,31.5-12.7L149.7,235.2z"/>
			<path class="st7" d="M173.3,273.1c0-1.1,0.3-2.2,1-3.1c0.1-0.1,0.2-0.2,0.3-0.4c-0.8-1.8,0.2-6.2,0.8-8.5c0.1-0.4,0.7-0.4,0.8,0
				l2.1,6c0.9-0.3,1.9-0.5,3-0.5c0.9,0,1.8,0.1,2.6,0.4c0.1,0,0.3,0.1,0.4,0.1l2.1-6c0.1-0.4,0.7-0.4,0.8,0c0.6,2.2,1.6,6.7,0.8,8.5
				c0.8,1,1.2,2.2,1.2,3.4c0,1.5,0.8,5.6-7.9,5.6C172.5,278.8,173.3,274.6,173.3,273.1z"/>
			<g>
				<path class="st4" d="M134.9,162.2c-1.6-1.4-4,0.2-3.5,2.2c3.4,12.6,11.6,38.8,20.9,39.4c12.3,0.8,16-13.2,16-13.2L134.9,162.2z"
					/>
				<path class="st8" d="M157.9,198.3c-1.6,0.9-3.3,1.3-5.2,1.2c-3.5-0.2-9.3-11.5-14.1-26.2c-0.3-0.9,0.8-1.6,1.5-1l23.2,19.7
					C162.3,194,160.5,196.8,157.9,198.3L157.9,198.3z"/>
			</g>
			<g>
				<path class="st4" d="M225.1,162.2c1.6-1.4,4,0.2,3.5,2.2c-3.4,12.6-11.6,38.8-20.9,39.4c-12.3,0.8-16-13.2-16-13.2L225.1,162.2z
					"/>
				<path class="st8" d="M202.1,198.3c1.6,0.9,3.3,1.3,5.2,1.2c3.5-0.2,9.3-11.5,14.1-26.2c0.3-0.9-0.8-1.6-1.5-1l-23.2,19.7
					C197.7,194,199.5,196.8,202.1,198.3L202.1,198.3z"/>
			</g>
			<path class="st4" d="M220.1,215.5c0,11.5-1.9,21.6-13.1,27.1c-5.8,2.9-14.2,4.6-26.1,4.6c-11.3,0-19.4-1.5-25.1-4.1
				c-12.1-5.4-14.1-15.7-14.1-27.6c0-5.5,1.7-10.6,4.7-15c4.3-6.4,11.1-11.4,19.4-14.2c4.6-1.6,9.7-2.4,15-2.4
				c4.5,0,8.8,0.6,12.8,1.8c7.3,2,13.6,5.7,18.2,10.6C217,201.6,220.1,208.3,220.1,215.5z"/>
			<g>
				<g>
					<path class="st9" d="M201.9,212.6c-1.6-2.4-4.7-3.8-7.6-2.9c-1.5,0.5-2.9,1.5-4,2.6c-0.6,0.6-0.6,1.7,0,2.3
						c0.6,0.6,1.6,0.6,2.3,0c0.3-0.3,0.6-0.6,1-0.9c-0.2,0.2,0.2-0.2,0.3-0.2c0.1-0.1,0.2-0.2,0.3-0.2c0.2-0.1,0.3-0.2,0.5-0.3
						c0.1,0,0.6-0.2,0.2-0.1c0.2-0.1,0.5-0.2,0.7-0.2c0.1,0,0.1,0,0.2,0c0.2,0,0.1,0-0.1,0c0.1,0,0.3,0,0.4,0c0.2,0,0.4,0,0.7,0
						c-0.4,0-0.2,0,0,0c0.1,0,0.2,0.1,0.3,0.1c0.1,0,0.2,0.1,0.3,0.1c0.4,0.1-0.1-0.1-0.1,0c0.3,0.2,0.7,0.4,1,0.6
						c0.3,0.2-0.3-0.2-0.1-0.1c0.1,0.1,0.1,0.1,0.2,0.2c0.1,0.1,0.2,0.2,0.3,0.3c0.2,0.2,0.3,0.3,0.4,0.5c0.2,0.2-0.3-0.4-0.1-0.2
						c0,0,0,0,0,0.1c0.5,0.7,1.4,1.1,2.2,0.6C202,214.4,202.4,213.4,201.9,212.6L201.9,212.6z"/>
				</g>
			</g>
			<g>
				<g>
					<path class="st9" d="M171.7,212.6c-1.6-2.4-4.7-3.8-7.6-2.9c-1.5,0.5-2.9,1.5-4,2.6c-0.6,0.6-0.6,1.7,0,2.3
						c0.6,0.6,1.6,0.6,2.3,0c0.3-0.3,0.6-0.6,1-0.9c-0.2,0.2,0.2-0.2,0.3-0.2c0.1-0.1,0.2-0.2,0.3-0.2c0.2-0.1,0.3-0.2,0.5-0.3
						c0.1,0,0.6-0.2,0.2-0.1c0.2-0.1,0.5-0.2,0.7-0.2c0.1,0,0.1,0,0.2,0c0.2,0,0.1,0-0.1,0c0.1,0,0.3,0,0.4,0c0.2,0,0.4,0,0.7,0
						c-0.4,0-0.2,0,0,0c0.1,0,0.2,0.1,0.3,0.1c0.1,0,0.2,0.1,0.3,0.1c0.4,0.1-0.1-0.1-0.1,0c0.3,0.2,0.7,0.4,1,0.6
						c0.3,0.2-0.3-0.2-0.1-0.1c0.1,0.1,0.1,0.1,0.2,0.2c0.1,0.1,0.2,0.2,0.3,0.3c0.2,0.2,0.3,0.3,0.4,0.5c0.2,0.2-0.3-0.4-0.1-0.2
						c0,0,0,0,0,0.1c0.5,0.7,1.4,1.1,2.2,0.6C171.8,214.4,172.2,213.4,171.7,212.6L171.7,212.6z"/>
				</g>
			</g>
			<ellipse class="st10" cx="154.2" cy="223.1" rx="7.5" ry="3"/>
			<ellipse class="st10" cx="208.5" cy="223.1" rx="7.5" ry="3"/>
			<g>
				<g>
					<g>
						<path class="st9" d="M146.1,217.7c3.2,0.7,6.4,1.4,9.7,2.1c0.5,0.1,0.9,0.2,1.4,0.3c0.8,0.2,1.2-1.1,0.3-1.2
							c-3.2-0.7-6.4-1.4-9.7-2.1c-0.5-0.1-0.9-0.2-1.4-0.3C145.6,216.3,145.3,217.5,146.1,217.7L146.1,217.7z"/>
					</g>
				</g>
				<g>
					<g>
						<path class="st9" d="M147.8,223.2c1.5,0,3.1,0,4.7,0c0.2,0,0.4,0,0.7,0c0.8,0,0.8-1.3,0-1.3c-1.5,0-3.1,0-4.7,0
							c-0.2,0-0.4,0-0.7,0C147,221.9,147,223.2,147.8,223.2L147.8,223.2z"/>
					</g>
				</g>
				<g>
					<g>
						<path class="st9" d="M150.5,229.4c1.9-1.1,3.8-2.2,5.7-3.3c0.3-0.2,0.5-0.3,0.8-0.5c0.7-0.4,0.1-1.5-0.6-1.1
							c-1.9,1.1-3.8,2.2-5.7,3.3c-0.3,0.2-0.5,0.3-0.8,0.5C149.1,228.7,149.8,229.8,150.5,229.4L150.5,229.4z"/>
					</g>
				</g>
			</g>
			<g>
				<g>
					<g>
						<path class="st9" d="M214.4,216.4c-3.2,0.7-6.4,1.4-9.7,2.1c-0.5,0.1-0.9,0.2-1.4,0.3c-0.8,0.2-0.5,1.4,0.3,1.2
							c3.2-0.7,6.4-1.4,9.7-2.1c0.5-0.1,0.9-0.2,1.4-0.3C215.6,217.5,215.2,216.3,214.4,216.4L214.4,216.4z"/>
					</g>
				</g>
				<g>
					<g>
						<path class="st9" d="M213.1,221.9c-1.5,0-3.1,0-4.7,0c-0.2,0-0.4,0-0.7,0c-0.8,0-0.8,1.3,0,1.3c1.5,0,3.1,0,4.7,0
							c0.2,0,0.4,0,0.7,0C213.9,223.2,213.9,221.9,213.1,221.9L213.1,221.9z"/>
					</g>
				</g>
				<g>
					<g>
						<path class="st9" d="M211.1,228.3c-1.9-1.1-3.8-2.2-5.7-3.3c-0.3-0.2-0.5-0.3-0.8-0.5c-0.7-0.4-1.4,0.7-0.6,1.1
							c1.9,1.1,3.8,2.2,5.7,3.3c0.3,0.2,0.5,0.3,0.8,0.5C211.1,229.8,211.8,228.7,211.1,228.3L211.1,228.3z"/>
					</g>
				</g>
			</g>
			<path class="st11" d="M167.8,192.9c0,4,0,12.1-12.1,12.1c-3.8,0-7.2-1.8-9.4-4.5c4.3-6.4,11.1-11.4,19.4-14.2
				C167.1,188.2,167.8,190.5,167.8,192.9z"/>
			<path class="st12" d="M211.9,196.2c-1.8,3.4-5.3,5.8-9.4,5.8c-10.6,0-10.6-9.1-10.6-10.6c0-2.1,0.6-4.1,1.8-5.8
				C201,187.7,207.3,191.4,211.9,196.2z"/>
			<path class="st9" d="M188.4,225.9c-1.7-0.1-3.4-0.4-5-1.2c-1.1-0.6-2-1.4-2.6-2.3c-0.6,0.9-1.5,1.8-2.6,2.3
				c-1.5,0.8-3.3,1.1-5,1.2c-0.2-1.1-0.4-2.1-0.2-3c0.4,0,0.8,0,1.2-0.1c0,0,0.1,0,0.1,0c0.1,0,0.2,0,0.3,0c0.2,0,0.4-0.1,0.7-0.2
				c0.2-0.1,0.4-0.1,0.7-0.2c0.1-0.1,0.2-0.1,0.3-0.1c0,0,0,0,0.1,0c0,0,0,0,0.1,0c1-0.5,1.8-1.2,2.2-2.1c0.4-0.8,0.6-1.9,0.6-3.1
				c0-1.9,3-1.9,3,0c0,1.1,0.2,2.1,0.7,3.1c0.1,0.2,0.2,0.4,0.3,0.5c0.2,0.3,0.4,0.6,0.8,0.9c0,0,0.4,0.2,0.4,0.3
				c0.2,0.1,0.4,0.2,0.6,0.3c0.1,0.1,0.1,0.1,0.4,0.2c0.2,0.1,0.4,0.1,0.7,0.2c0.2,0.1,0.4,0.1,0.7,0.2c0.1,0,0.2,0,0.2,0.1h0.1
				c0.4,0,0.8,0.1,1.3,0.1C188.8,223.7,188.6,224.7,188.4,225.9z"/>
			<path class="st9" d="M173.3,225.9c-0.3,0-0.7,0-1,0c-1.9,0-1.9-3,0-3c0.3,0,0.5,0,0.8,0C173,223.7,173.1,224.7,173.3,225.9z"/>
			<path class="st9" d="M189.4,225.9c-0.3,0-0.7,0-1,0c0.2-1.1,0.4-2.1,0.2-3c0.2,0,0.5,0,0.8,0
				C191.4,222.9,191.4,225.9,189.4,225.9z"/>
			<path class="st13" d="M183.5,224.7c1.5,0.8,3.3,1.1,5,1.2c-0.2,1-0.4,2.1-0.4,3.3c0,5-3.8,9.1-7.2,9.1c-3.3,0-7.1-4-7.1-9.1
				c0-1.2-0.2-2.3-0.4-3.3c1.7-0.1,3.4-0.4,5-1.2c1.1-0.6,2-1.4,2.6-2.3C181.5,223.3,182.3,224.1,183.5,224.7z"/>
			<path class="st14" d="M188.6,222.8c-0.4,0-0.8,0-1.3-0.1h-0.1c-0.1,0-0.2,0-0.2-0.1c-0.2,0-0.4-0.1-0.7-0.2
				c-0.2-0.1-0.4-0.1-0.7-0.2c-0.3-0.1-0.4-0.1-0.4-0.2c-0.2-0.1-0.4-0.2-0.6-0.3c-0.1-0.1-0.4-0.3-0.4-0.3
				c-0.4-0.3-0.7-0.6-0.8-0.9c-0.1-0.2-0.2-0.4-0.3-0.5"/>
		</g>
		<polygon class="st15" points="169.5,130.1 175.9,171.1 184.9,171.1 187.4,128.8 		"/>
		<polygon class="st15" points="143.8,137 157.1,164.8 163.5,162.9 156.2,132.2 		"/>
		<polygon class="st15" points="216.7,135.3 202.7,164.4 196,162.4 203.6,130.3 		"/>
	</g>
</g>
<g>
	<path class="st16" d="M139.6,19.9l3.5,7.1c0.2,0.4,0.5,0.6,0.9,0.7l7.8,1.1c1,0.1,1.4,1.4,0.7,2.1l-5.7,5.5
		c-0.3,0.3-0.4,0.7-0.3,1.1l1.3,7.8c0.2,1-0.9,1.7-1.8,1.3l-7-3.7c-0.4-0.2-0.8-0.2-1.1,0l-7,3.7c-0.9,0.5-1.9-0.3-1.8-1.3l1.3-7.8
		c0.1-0.4-0.1-0.8-0.3-1.1l-5.7-5.5c-0.7-0.7-0.3-1.9,0.7-2.1l7.8-1.1c0.4-0.1,0.7-0.3,0.9-0.7l3.5-7.1
		C137.9,19,139.2,19,139.6,19.9z"/>
	<path class="st16" d="M181.4,12.2l4.6,9.2c0.2,0.5,0.7,0.8,1.2,0.9l10.2,1.5c1.3,0.2,1.8,1.8,0.9,2.7l-7.4,7.2
		c-0.4,0.4-0.5,0.9-0.5,1.4l1.7,10.1c0.2,1.3-1.1,2.3-2.3,1.7l-9.1-4.8c-0.5-0.2-1-0.2-1.5,0l-9.1,4.8c-1.2,0.6-2.5-0.4-2.3-1.7
		l1.7-10.1c0.1-0.5-0.1-1-0.5-1.4l-7.4-7.2c-0.9-0.9-0.4-2.5,0.9-2.7l10.2-1.5c0.5-0.1,1-0.4,1.2-0.9l4.6-9.2
		C179.2,11.1,180.8,11.1,181.4,12.2z"/>
	<path class="st16" d="M222.5,20.3l3.5,7.1c0.2,0.4,0.5,0.6,0.9,0.7l7.8,1.1c1,0.1,1.4,1.4,0.7,2.1l-5.7,5.5
		c-0.3,0.3-0.4,0.7-0.3,1.1l1.3,7.8c0.2,1-0.9,1.7-1.8,1.3l-7-3.7c-0.4-0.2-0.8-0.2-1.1,0l-7,3.7c-0.9,0.5-1.9-0.3-1.8-1.3l1.3-7.8
		c0.1-0.4-0.1-0.8-0.3-1.1l-5.7-5.5c-0.7-0.7-0.3-1.9,0.7-2.1l7.8-1.1c0.4-0.1,0.7-0.3,0.9-0.7l3.5-7.1
		C220.8,19.4,222.1,19.4,222.5,20.3z"/>
	<path class="st16" d="M256.1,26.1l2.7,5.5c0.1,0.3,0.4,0.5,0.7,0.5l6,0.9c0.8,0.1,1.1,1.1,0.5,1.6l-4.4,4.3
		c-0.2,0.2-0.3,0.5-0.3,0.8l1,6c0.1,0.8-0.7,1.4-1.4,1l-5.4-2.8c-0.3-0.1-0.6-0.1-0.9,0l-5.4,2.8c-0.7,0.4-1.5-0.2-1.4-1l1-6
		c0.1-0.3,0-0.6-0.3-0.8l-4.4-4.3c-0.6-0.5-0.2-1.5,0.5-1.6l6-0.9c0.3,0,0.6-0.2,0.7-0.5l2.7-5.5C254.7,25.4,255.7,25.4,256.1,26.1z
		"/>
	<path class="st16" d="M105.6,26l2.7,5.5c0.1,0.3,0.4,0.5,0.7,0.5l6,0.9c0.8,0.1,1.1,1.1,0.5,1.6l-4.4,4.3c-0.2,0.2-0.3,0.5-0.3,0.8
		l1,6c0.1,0.8-0.7,1.4-1.4,1l-5.4-2.8c-0.3-0.1-0.6-0.1-0.9,0l-5.4,2.8c-0.7,0.4-1.5-0.2-1.4-1l1-6c0.1-0.3,0-0.6-0.3-0.8L94,34.5
		c-0.6-0.5-0.2-1.5,0.5-1.6l6-0.9c0.3,0,0.6-0.2,0.7-0.5l2.7-5.5C104.3,25.3,105.3,25.3,105.6,26z"/>
</g>
<rect x="42.7" y="65.6" class="st14" width="274.6" height="37.7"/>
<text transform="matrix(1 0 0 1 43.2498 100.2011)" class="st17 st18 st19">vibing catto</text>
</svg>
