<?xml version="1.0" encoding="utf-8"?>
<!-- Generator: Adobe Illustrator 27.2.0, SVG Export Plug-In . SVG Version: 6.00 Build 0)  -->
<svg version="1.1" id="Layer_1" xmlns="http://www.w3.org/2000/svg" xmlns:xlink="http://www.w3.org/1999/xlink" x="0px" y="0px"
	 viewBox="0 0 360 504" style="enable-background:new 0 0 360 504;" xml:space="preserve">
<style type="text/css">
	.st0{fill:#144C8E;}
	.st1{fill:#2374C4;}
</style>
<g id="Layer_2_00000153706230233726273420000002400336973801435780_">
	<path class="st0" d="M325,503.9H35c-19.4,0-35-15.7-35-35.1V35.2C0,15.8,15.7,0.1,35,0.1h290c19.3,0,35,15.7,35,35.1v433.6
		C360,488.1,344.3,503.9,325,503.9z"/>
</g>
<path class="st1" d="M46.9,307c0-18.4,5.8-35.9,16-51.1c1.5-1.9,2.9-4.1,4.4-6.1c-13.3-30,3.4-104.2,13.1-141.5
	c1.9-7,11.6-7.3,14.1-0.5l35.6,99.6c15.5-5.1,32.2-8,49.9-8c15.3,0,30,1.9,43.4,6.1c2.2,0.5,4.4,1.2,6.5,1.9l35.6-99.6
	c2.4-6.8,12.1-6.5,13.8,0.5c9.9,37.3,26.6,111.4,13.3,141.5c13.1,16.5,20.3,36.1,20.3,57.2c0,24.2,13.1,93.8-131.3,94
	C33.6,401.5,46.9,332.2,46.9,307z"/>
<rect x="601.7" y="-232.2" class="st0" width="372.4" height="181.4"/>
</svg>
