<?xml version="1.0" encoding="utf-8"?>
<!-- Generator: Adobe Illustrator 27.2.0, SVG Export Plug-In . SVG Version: 6.00 Build 0)  -->
<svg version="1.1" xmlns="http://www.w3.org/2000/svg" xmlns:xlink="http://www.w3.org/1999/xlink" x="0px" y="0px"
	 viewBox="0 0 360 504" style="enable-background:new 0 0 360 504;" xml:space="preserve">
<style type="text/css">
	.st0{fill:#5572A5;}
	.st1{fill:#383856;}
	.st2{fill:#FFEFDC;}
	.st3{fill:#F9C0CF;}
	.st4{fill:#6D4A54;}
	.st5{fill:#FFD2A9;}
	.st6{fill:#EFB66A;}
	.st7{fill:#67675F;}
	.st8{fill:#EAD4C1;}
	.st9{fill:#FCE4D0;}
	.st10{fill:#918C5D;}
</style>
<g id="Layer_2">
	<path class="st0" d="M324.96,503.5H35.04C15.69,503.5,0,487.81,0,468.46V35.54C0,16.19,15.69,0.5,35.04,0.5h289.92
		C344.31,0.5,360,16.19,360,35.54v432.92C360,487.81,344.31,503.5,324.96,503.5z"/>
</g>
<g id="Layer_1">
	<g>
		<g>
			<path class="st1" d="M244.79,150.09c-1.49-0.77-2.38-2.1-2.45-3.45c0-0.01,0-0.02,0-0.02c-0.27-5.37-3.81-10.13-8.56-12.83
				c-1.85-1.06-2.46-3-1.65-4.74c0.65-1.37,1-2.84,1-4.36c-0.09-8.14-9.63-14.2-20.04-13.66c-0.6,0.03-1.18,0.09-1.76,0.15
				c0.02-0.22,0.05-0.44,0.07-0.67c0.46-8.22-5.43-15.75-13.37-15.62c-0.09,0-0.17,0-0.26,0.01c-1.96,0.04-3.66-1.31-4.58-3.49
				c-2.68-6.51-8.47-11.63-15.13-11.54c-2.28,0.02-4.42,0.64-6.33,1.7c-1.95,1.08-4.16,1.15-6.35,0.6c-1.53-0.39-3.11-0.59-4.7-0.59
				c-9.58,0.14-16.99,6.9-20.82,15.02c-7.28,1.07-13.62,6.14-13.9,12.84c-0.1,3.27,1.42,6.38,3.99,8.89
				c-1.72,2.22-2.82,4.88-2.9,7.75c-0.06,1.88,0.32,3.69,1.06,5.36c0.5,1.14,0.22,2.38-0.78,3.34c-2.45,2.37-4.03,5.32-4.14,8.48
				c-0.22,7,6.49,12.33,14.4,13.32c2.41,0.31,4.37,1.41,5.57,3.07c0.15,0.21,0.31,0.41,0.47,0.61c1.39,1.68,1.83,3.89,1.41,6.24
				c-0.06,0.33-0.11,0.67-0.15,1c-0.96,8.9,5.91,17.01,15.72,17.11c4.32-0.02,8.44-1.78,11.65-4.59c0.78-0.68,1.77-0.74,2.5-0.14
				c2.37,1.94,5.33,3.14,8.57,3.15c1.73,0.01,3.39-0.33,4.94-0.94c1.17-0.46,2.48-0.07,3.36,1.05c2.98,3.84,7.35,6.46,12.07,6.48
				c5.44,0.05,9.91-3.26,12.35-7.79c0.95-1.75,2.56-2.81,4.48-2.59c0.35,0.04,0.71,0.07,1.07,0.09c2.04,0.08,3.94-0.25,5.66-0.91
				c1.5-0.58,3.26-0.48,4.96,0.25c2.69,1.17,5.61,1.7,8.6,1.44c7.3-0.71,13.46-5.97,14.52-12.94
				C256.35,160.24,251.57,153.54,244.79,150.09z"/>
		</g>
		<g>
			<path class="st2" d="M208.04,131.92c-0.02,0-0.05,0-0.07,0.01c-0.49,0.04-1.01,0.1-1.53,0.17c-2.72,0.4-4.94,1.01-6.73,1.8
				c-0.22,0.1-0.44,0.2-0.65,0.3c-0.2,0.09-0.39,0.19-0.57,0.29c-0.62,0.34-1.18,0.69-1.68,1.06c-0.16,0.12-0.32,0.25-0.47,0.37
				c-0.15,0.12-0.3,0.25-0.44,0.37c-0.15,0.12-0.29,0.26-0.41,0.4c-0.15,0.15-0.29,0.3-0.42,0.45c-0.14,0.15-0.26,0.31-0.39,0.47
				c-0.11,0.15-0.22,0.31-0.34,0.47c-0.22,0.32-0.42,0.66-0.6,1c-0.01,0.02-0.02,0.04-0.04,0.06c-0.09,0.16-0.17,0.34-0.24,0.5
				c-0.01,0.02-0.02,0.05-0.02,0.07c-0.11,0.26-0.22,0.52-0.31,0.8c-0.01,0.01-0.02,0.04-0.02,0.05c-0.02,0.1-0.06,0.2-0.09,0.29
				c-0.09,0.29-0.16,0.59-0.22,0.87c-0.09,0.36-0.15,0.74-0.2,1.11c-0.02,0.14-0.04,0.26-0.05,0.39c-0.01,0.09-0.02,0.17-0.02,0.26
				c-0.01,0.06-0.01,0.12-0.01,0.19c-0.02,0.29-0.05,0.57-0.05,0.86c-0.01,0.24-0.01,0.46-0.01,0.7c0,0.27,0.01,0.55,0.02,0.82
				c0.02,0.47,0.05,0.96,0.1,1.45c0.02,0.26,0.05,0.52,0.07,0.8v0.01c-0.65,1.47,0.34,4.81,1.22,7.23l-1.63-0.6l-13.9-5.05
				l-1.2-0.44l-13.3-4.84c-1.21-0.32-1.98-1.23-2.41-2.37c-1.18-0.34-2.33-0.8-3.45-1.28c-6.17-2.67-10.78-7.9-10.97-14.85
				c-0.1-4.11-0.65-8.09-2.22-11.92l-0.01-0.01c0,0,0,0,0-0.01c-0.07-0.15-0.3-0.64-0.34-0.72c-0.12-0.29-0.27-0.57-0.41-0.85
				c-0.24-0.45-0.49-0.9-0.76-1.33c-0.2-0.34-1.2-1.67-0.54-0.87c-0.87-1.28-1.01-2.92,0.2-4.14c1.1-1.08,3.37-1.32,4.41,0
				c1.41,1.8,2.42,3.79,3.29,5.9c1.58,3.84,2.39,7.98,2.57,12.12c0.09,2.02-0.02,3.23,0.65,5.02c0.34,0.9,1.1,1.99,1.89,2.82
				c1.1,1.13,1.42,1.36,2.8,2.18c0.54,0.31,1.1,0.61,1.66,0.87c0.06,0.02,0.37,0.17,0.54,0.25c-0.02,0-0.05-0.01-0.06-0.01
				c0.01,0,0.04,0.01,0.07,0.02c0.04,0.01,0.05,0.02,0.06,0.02c0.01,0,0.02,0.01,0.02,0.01c0.15,0.05,0.34,0.12,0.41,0.15
				c0.24,0.09,0.49,0.19,0.74,0.27c0.92-1.65,2.63-4.53,4.34-6.23c2.49-2.49,3.74-3.74,7.48-2.49c0.19,0.06,0.37,0.12,0.56,0.17
				v-3.69c0-0.15-0.06-0.29-0.17-0.4c-0.42-0.4-0.74-0.9-0.93-1.46c-0.05-0.17-0.17-0.3-0.34-0.36c-1.13-0.42-1.61-1.35-1.61-2.16
				c0-0.96,0.7-1.76,1.61-1.92c0.14-0.02,0.21-0.15,0.19-0.29c-0.1-0.41-0.06-0.87,0.24-1.38c0.31-0.51,0.84-0.9,1.43-0.97
				c0.74-0.09,1.4,0.24,1.79,0.76c0.1,0.14,0.29,0.14,0.39,0c0.4-0.52,1.06-0.85,1.79-0.76c0.6,0.07,1.12,0.45,1.43,0.97
				c0.3,0.5,0.34,0.96,0.24,1.38c-0.02,0.12,0.05,0.26,0.19,0.29c0.92,0.16,1.62,0.96,1.62,1.92c0,0.81-0.47,1.75-1.62,2.17
				c-0.16,0.06-0.29,0.19-0.34,0.35c-0.2,0.56-0.52,1.06-0.93,1.46c-0.11,0.11-0.17,0.25-0.17,0.4v4.69
				c2.32,0.34,4.96,0.65,8.35,1.32c3.1,0.62,4.53,1.33,5.55,1.83v-5.35c0-0.15-0.06-0.29-0.17-0.4c-0.42-0.4-0.74-0.9-0.93-1.46
				c-0.05-0.17-0.17-0.3-0.34-0.36c-1.13-0.42-1.61-1.35-1.61-2.16c0-0.96,0.7-1.76,1.61-1.92c0.14-0.02,0.21-0.15,0.19-0.29
				c-0.1-0.41-0.06-0.87,0.24-1.38c0.31-0.51,0.84-0.9,1.43-0.97c0.74-0.09,1.4,0.24,1.79,0.76c0.1,0.14,0.29,0.14,0.39,0
				c0.4-0.52,1.06-0.85,1.79-0.76c0.6,0.07,1.12,0.45,1.43,0.97c0.3,0.5,0.34,0.96,0.24,1.38c-0.02,0.12,0.05,0.26,0.19,0.29
				c0.92,0.16,1.62,0.96,1.62,1.92c0,0.81-0.47,1.75-1.62,2.17c-0.16,0.06-0.29,0.19-0.34,0.35c-0.2,0.56-0.52,1.06-0.93,1.46
				c-0.11,0.11-0.17,0.25-0.17,0.4v5.85c1.45-0.14,2.77-0.22,3.95-0.27c0.62-0.02,1.2-0.04,1.75-0.04c0.41,0,0.8,0,1.17,0.01
				c1.26,0.01,2.32,0.1,3.23,0.21C207.97,131.91,208.01,131.92,208.04,131.92z"/>
			<path class="st2" d="M160.8,135.46c-0.01,0-0.02-0.01-0.06-0.02c-0.04-0.01-0.06-0.02-0.07-0.02c0.01,0,0.04,0.01,0.06,0.01
				c0,0.01,0,0.01,0.01,0C160.77,135.43,160.79,135.45,160.8,135.46z"/>
			<path class="st2" d="M212.26,143.51l-3.19,11.48c-0.22,0.81-0.62,1.53-1.17,2.12l-0.01,0.02c-0.59,0.65-1.32,1.15-2.13,1.43
				c-0.31,0.11-0.62,0.2-0.95,0.25c-0.74,0.12-1.51,0.09-2.28-0.12l-3.04-1.11l-1.66-0.6l-0.44-0.16h-0.01
				c-0.04-0.02-0.06-0.05-0.1-0.07c-0.1-0.09-0.21-0.16-0.31-0.26c-2.24-1.84-3.78-4.3-4.19-7.16c-1.05-7.16-0.61-15.13,13.65-17.23
				c0.55-0.07,1.1-0.15,1.61-0.19h0.01c0.37,0.05,0.71,0.1,1.03,0.16c1.91,0.35,2.9,0.87,3.35,1.32
				C214.93,135.89,213.05,140.68,212.26,143.51z"/>
			<g>
				<path class="st2" d="M228.38,165.96l-10.97-6.78h-0.01l-1.33-0.82l-3.13-1.93c0,0,0.64-5.77,5.5-6.36
					c0.07-0.01,0.15-0.01,0.22-0.02c1.32-0.11,2.77,1.01,4.2,2.73c0.29,0.35,0.57,0.72,0.86,1.12c2.42,3.33,4.67,8.07,5.95,10.96
					C230.03,165.65,229.13,166.42,228.38,165.96z"/>
				<path class="st3" d="M216.75,152.63c0.58-0.47,1.26-0.73,2.06-0.8c1.45-0.12,4.51,4.11,7.4,9.84c0.18,0.35-0.21,0.71-0.55,0.51
					l-10.71-6.62C215.22,154.68,215.75,153.43,216.75,152.63L216.75,152.63z"/>
				<path class="st2" d="M207.9,157.11l-0.01,0.02l-1.72,2.93l-0.76,1.27l-6.72,11.43c-0.44,0.75-1.6,0.49-1.66-0.39
					c-0.25-3.54-0.49-9.66,0.4-13.87c0.06-0.29,0.12-0.56,0.19-0.84c0.05-0.19,0.1-0.37,0.16-0.56c0.01-0.05,0.04-0.09,0.05-0.12
					c0.34-1.02,0.76-1.84,1.32-2.36c0.21-0.22,0.45-0.37,0.71-0.49c0.37-0.16,0.75-0.27,1.11-0.35c0.01,0,0.02,0,0.02,0
					C205.07,152.96,207.9,157.11,207.9,157.11z"/>
				<path class="st3" d="M202.75,155.54c1.26,0.24,2.31,1.1,2.96,1.76l-6.38,10.85c-0.2,0.34-0.71,0.2-0.72-0.19
					c-0.12-6.42,0.61-11.59,1.95-12.16C201.3,155.48,202.02,155.4,202.75,155.54z"/>
				<path class="st2" d="M223.47,151.76c-0.19,0.34-0.39,0.67-0.61,1.01c0.29,0.35,0.57,0.72,0.86,1.12
					c-0.29,0.39-0.6,0.8-0.97,1.22c-0.06,0.07-0.14,0.15-0.21,0.22c-0.97,1.07-2.11,2.02-3.37,2.83c-0.19,0.14-0.37,0.26-0.57,0.37
					c-0.4,0.22-0.79,0.45-1.18,0.64h-0.01l-1.33-0.82c-1.62,0.75-3.43,1.3-5.36,1.57c-1.55,0.24-3.07,0.27-4.54,0.14l-0.76,1.27
					c-0.07,0-0.15-0.01-0.24-0.02c-0.45-0.06-0.84-0.11-1.21-0.19c-0.15-0.02-0.3-0.06-0.45-0.1c-1.6-0.34-3.09-0.86-4.45-1.57
					c-0.11-0.05-0.24-0.11-0.35-0.17c-0.46-0.25-0.89-0.51-1.28-0.77c0.06-0.29,0.12-0.56,0.19-0.84c0.05-0.19,0.1-0.37,0.16-0.56
					c-0.14-0.09-0.26-0.17-0.39-0.29h-0.01c-0.04-0.02-0.06-0.05-0.1-0.07c-0.1-0.09-0.21-0.16-0.31-0.26
					c-2.24-1.84-3.78-4.3-4.19-7.16c-0.05-0.35-0.1-0.7-0.14-1.05c-0.02-0.26-0.06-0.52-0.09-0.79c-0.05-0.49-0.07-0.97-0.1-1.45
					c-0.01-0.27-0.02-0.55-0.02-0.82c0-0.01,0-0.01,0-0.02c0.75,0.37,1.66,0.14,2.13-0.57l0.77-1.16c0.5-0.75,0.3-1.75-0.45-2.24
					l-0.92-0.62c-0.24-0.16-0.5-0.26-0.77-0.3c0.07-0.2,0.15-0.4,0.24-0.59c0-0.02,0.01-0.05,0.02-0.07
					c0.07-0.16,0.15-0.34,0.24-0.5c0.01-0.02,0.02-0.04,0.04-0.06c0.09-0.17,0.17-0.34,0.27-0.5c0.1-0.17,0.21-0.34,0.32-0.5
					c0.11-0.16,0.22-0.32,0.34-0.47c0.12-0.16,0.25-0.32,0.39-0.47c0.14-0.15,0.27-0.3,0.42-0.45c0.12-0.14,0.26-0.27,0.41-0.4
					c0.14-0.12,0.29-0.25,0.44-0.37c0.15-0.12,0.31-0.25,0.47-0.37c0.5-0.37,1.06-0.72,1.68-1.06c0.19-0.1,0.37-0.2,0.57-0.29
					c0.21-0.1,0.42-0.2,0.65-0.3c1.79-0.79,4.01-1.4,6.73-1.8c0.52-0.07,1.05-0.14,1.53-0.17c0.02-0.01,0.05-0.01,0.07-0.01h0.01
					c0.32-0.04,0.65-0.07,0.96-0.09c12.07-0.86,14.86,6.1,15.84,12.8c0.32,2.23-0.06,4.44-1.02,6.43
					C223.72,151.3,223.59,151.53,223.47,151.76z"/>
				<path class="st2" d="M223.83,151.07c-0.11,0.24-0.24,0.46-0.36,0.7c-0.19,0.34-0.39,0.67-0.61,1.01
					c-0.02,0.04-0.05,0.06-0.07,0.1c-0.14,0.21-0.29,0.41-0.45,0.61c-0.19,0.25-0.4,0.5-0.61,0.75c-0.31,0.35-0.65,0.69-1,1.01
					c-0.22,0.22-0.46,0.42-0.7,0.62c-0.34,0.27-0.67,0.54-1.03,0.8c-0.35,0.25-0.72,0.49-1.1,0.72c-0.39,0.22-0.77,0.45-1.18,0.65
					c-0.21,0.11-0.42,0.21-0.65,0.32c-1.62,0.75-3.43,1.3-5.36,1.57c-1.55,0.24-3.07,0.27-4.54,0.14c-0.27-0.02-0.54-0.05-0.81-0.09
					c-0.32-0.04-0.65-0.09-0.97-0.15c-0.05-0.01-0.1-0.01-0.15-0.02c-0.01,0-0.01,0-0.02,0c-0.44-0.09-0.86-0.19-1.28-0.3
					c-0.42-0.11-0.84-0.24-1.25-0.39c-0.32-0.11-0.64-0.22-0.95-0.36c-0.16-0.06-0.32-0.14-0.49-0.21
					c-0.26-0.12-0.52-0.25-0.77-0.39c-0.05-0.01-0.09-0.04-0.12-0.06c-0.02-0.01-0.05-0.02-0.06-0.04c-0.25-0.14-0.5-0.29-0.74-0.44
					c-0.06-0.04-0.14-0.09-0.2-0.14c-0.19-0.1-0.36-0.22-0.54-0.35c-0.01,0-0.02,0-0.04-0.02c-0.14-0.09-0.26-0.17-0.39-0.29h-0.01
					c-0.04-0.02-0.06-0.05-0.1-0.07c-0.1-0.09-0.21-0.16-0.31-0.26c-2.24-1.84-3.78-4.3-4.19-7.16c-0.05-0.35-0.1-0.7-0.14-1.05
					c-0.02-0.26-0.06-0.52-0.09-0.79c-0.05-0.49-0.07-0.97-0.1-1.45c-0.01-0.27-0.02-0.55-0.02-0.82c0-0.01,0-0.01,0-0.02
					c0.75,0.37,1.66,0.14,2.13-0.57l0.77-1.16c0.5-0.75,0.3-1.75-0.45-2.24l-0.92-0.62c-0.24-0.16-0.5-0.26-0.77-0.3
					c0.07-0.2,0.15-0.4,0.24-0.59c0-0.02,0.01-0.05,0.02-0.07c0.07-0.16,0.15-0.34,0.24-0.5c0.01-0.02,0.02-0.04,0.04-0.06
					c0.09-0.17,0.17-0.34,0.27-0.5c0.1-0.17,0.21-0.34,0.32-0.5c0.11-0.16,0.22-0.32,0.34-0.47c0.12-0.16,0.25-0.32,0.39-0.47
					c0.14-0.15,0.27-0.3,0.42-0.45c-0.31,0.93,0.34,1.7,3.25,1.7c7.48,0,11.22-2.49,11.22-2.49l-1.98-3.96
					c0.02-0.01,0.05-0.01,0.07-0.01h0.01c0.32-0.04,0.65-0.07,0.96-0.09c12.07-0.86,14.86,6.1,15.84,12.8
					C225.18,146.86,224.79,149.07,223.83,151.07z"/>
				<g>
					<g>
						<g>
							<path class="st4" d="M205.84,143.51c0.03,0,0.16-0.02,0.07-0.01c-0.1,0.01,0.06-0.01,0.09-0.01
								c0.11-0.01,0.23-0.02,0.34-0.02c0.06,0,0.13,0,0.19,0.01c0.04,0,0.24,0.03,0.1,0.01c0.14,0.02,0.28,0.06,0.41,0.11
								c0.09,0.03-0.04-0.02,0.01,0c0.03,0.01,0.06,0.03,0.09,0.05c0.07,0.04,0.15,0.08,0.22,0.13c-0.07-0.05,0.08,0.07,0.1,0.1
								c0.03,0.03,0.07,0.07,0.1,0.1c0.07,0.07-0.02-0.04,0.04,0.05c0.26,0.37,0.37,0.78,0.44,1.24c0.04,0.27,0.38,0.41,0.62,0.35
								c0.29-0.08,0.39-0.35,0.35-0.62c-0.06-0.44-0.05-0.83,0.1-1.23c0.01-0.04,0.03-0.07,0.08-0.16c0.02-0.03,0.04-0.06,0.06-0.1
								c0.01-0.01,0.09-0.12,0.02-0.04c0.05-0.06,0.1-0.12,0.16-0.17c0.02-0.02,0.05-0.05,0.08-0.07c0.1-0.09-0.08,0.05,0.02-0.02
								c0.12-0.08,0.24-0.15,0.37-0.21c0.09-0.04-0.06,0.02,0,0c0.03-0.01,0.06-0.02,0.08-0.03c0.06-0.02,0.13-0.04,0.2-0.06
								c0.19-0.06,0.39-0.09,0.59-0.12c0.27-0.04,0.41-0.38,0.35-0.62c-0.08-0.29-0.35-0.39-0.62-0.35
								c-0.61,0.09-1.19,0.28-1.67,0.68c-0.82,0.68-0.92,1.77-0.78,2.77c0.32-0.09,0.64-0.18,0.96-0.27
								c-0.16-1.01-0.65-1.95-1.63-2.35c-0.58-0.23-1.2-0.2-1.81-0.11c-0.27,0.04-0.41,0.38-0.35,0.62
								C205.31,143.44,205.58,143.55,205.84,143.51L205.84,143.51z"/>
						</g>
					</g>
				</g>
				
					<ellipse transform="matrix(0.9895 -0.1448 0.1448 0.9895 -18.2911 33.2398)" class="st5" cx="219.25" cy="142.3" rx="3.12" ry="1.25"/>
				
					<ellipse transform="matrix(0.9895 -0.1448 0.1448 0.9895 -18.9953 30.0599)" class="st5" cx="197.05" cy="145.55" rx="3.12" ry="1.25"/>
				<g>
					<g>
						<g>
							<path class="st4" d="M222.87,144.04c-1.36-0.09-2.71-0.18-4.07-0.27c-0.2-0.01-0.39-0.03-0.59-0.04
								c-0.32-0.02-0.32,0.48,0,0.5c1.36,0.09,2.71,0.18,4.07,0.27c0.2,0.01,0.39,0.03,0.59,0.04
								C223.19,144.57,223.19,144.07,222.87,144.04L222.87,144.04z"/>
						</g>
					</g>
					<g>
						<g>
							<path class="st4" d="M221.85,141.91c-0.63,0.09-1.27,0.19-1.9,0.28c-0.09,0.01-0.18,0.03-0.27,0.04
								c-0.13,0.02-0.21,0.19-0.17,0.31c0.04,0.14,0.17,0.19,0.31,0.17c0.63-0.09,1.27-0.19,1.9-0.28c0.09-0.01,0.18-0.03,0.27-0.04
								c0.13-0.02,0.21-0.19,0.17-0.31C222.12,141.94,221.99,141.89,221.85,141.91L221.85,141.91z"/>
						</g>
					</g>
					<g>
						<g>
							<path class="st4" d="M220.41,139.54c-0.71,0.56-1.43,1.13-2.14,1.69c-0.1,0.08-0.2,0.16-0.3,0.24
								c-0.11,0.08-0.09,0.27,0,0.35c0.1,0.1,0.25,0.08,0.35,0c0.71-0.56,1.43-1.13,2.14-1.69c0.1-0.08,0.2-0.16,0.3-0.24
								c0.11-0.08,0.09-0.27,0-0.35C220.66,139.44,220.51,139.46,220.41,139.54L220.41,139.54z"/>
						</g>
					</g>
				</g>
				<g>
					<g>
						<g>
							<path class="st4" d="M194.99,148.62c1.28-0.48,2.55-0.95,3.83-1.43c0.18-0.07,0.36-0.14,0.54-0.2
								c0.3-0.11,0.17-0.6-0.13-0.48c-1.28,0.48-2.55,0.95-3.83,1.43c-0.18,0.07-0.36,0.14-0.54,0.2
								C194.56,148.25,194.69,148.74,194.99,148.62L194.99,148.62z"/>
						</g>
					</g>
					<g>
						<g>
							<path class="st4" d="M195.29,146.3c0.63-0.09,1.27-0.19,1.9-0.28c0.09-0.01,0.18-0.03,0.27-0.04
								c0.13-0.02,0.21-0.19,0.17-0.31c-0.04-0.14-0.17-0.19-0.31-0.17c-0.63,0.09-1.27,0.19-1.9,0.28
								c-0.09,0.01-0.18,0.03-0.27,0.04c-0.13,0.02-0.21,0.19-0.17,0.31C195.02,146.27,195.15,146.32,195.29,146.3L195.29,146.3z"/>
						</g>
					</g>
					<g>
						<g>
							<path class="st4" d="M195.74,143.58c0.84,0.33,1.68,0.67,2.53,1c0.12,0.05,0.24,0.1,0.36,0.14c0.13,0.05,0.27-0.05,0.31-0.17
								c0.04-0.14-0.05-0.26-0.17-0.31c-0.84-0.33-1.68-0.67-2.53-1c-0.12-0.05-0.24-0.1-0.36-0.14c-0.13-0.05-0.27,0.05-0.31,0.17
								C195.52,143.42,195.61,143.54,195.74,143.58L195.74,143.58z"/>
						</g>
					</g>
				</g>
				<path class="st6" d="M223.83,151.07c-0.11,0.24-0.24,0.46-0.36,0.7c-0.19,0.34-0.39,0.67-0.61,1.01
					c-0.02,0.04-0.05,0.06-0.07,0.1c-0.14,0.21-0.29,0.41-0.45,0.61c-0.19,0.25-0.4,0.5-0.61,0.75c-0.31,0.35-0.65,0.69-1,1.01
					c-0.22,0.22-0.46,0.42-0.7,0.62c-0.34,0.27-0.67,0.54-1.03,0.8c-0.35,0.25-0.72,0.49-1.1,0.72c-0.39,0.22-0.77,0.45-1.18,0.65
					c-0.51-0.57-0.9-1.27-1.1-2.06c-0.05-0.17-0.09-0.35-0.11-0.52c-0.05-0.29-0.1-0.64-0.11-1.01c-0.11-1.52,0.19-3.52,3.04-4.38
					c0.37-0.11,0.81-0.2,1.28-0.27C221.28,149.57,222.76,150.08,223.83,151.07z"/>
				<path class="st7" d="M205.76,158.57c-0.05,0.5-0.19,0.97-0.4,1.41c-0.32-0.04-0.65-0.09-0.97-0.15
					c-0.05-0.01-0.1-0.01-0.15-0.02c-0.01,0-0.01,0-0.02,0c-0.44-0.09-0.86-0.19-1.28-0.3c-0.42-0.11-0.84-0.24-1.25-0.39
					c-0.32-0.11-0.64-0.22-0.95-0.36c-0.16-0.06-0.32-0.14-0.49-0.21c-0.26-0.12-0.52-0.25-0.77-0.39
					c-0.05-0.01-0.09-0.04-0.12-0.06c-0.02-0.01-0.05-0.02-0.06-0.04c-0.25-0.14-0.5-0.29-0.74-0.44c-0.06-0.04-0.14-0.09-0.2-0.14
					c-0.19-0.1-0.36-0.22-0.54-0.35c-0.01,0-0.02,0-0.04-0.02c-0.14-0.09-0.26-0.17-0.39-0.29h-0.01c-0.04-0.02-0.06-0.05-0.1-0.07
					c0.32-0.96,0.97-1.77,1.81-2.31c0.5-0.31,1.07-0.54,1.7-0.62c0.06-0.01,0.12-0.01,0.19-0.02c0.01,0,0.02,0,0.02,0
					c3.75-0.44,4.53,2.51,4.7,3.49c0,0.01,0,0.01,0,0.01v0.02c0.02,0.09,0.02,0.14,0.04,0.19
					C205.78,157.87,205.79,158.22,205.76,158.57z"/>
			</g>
			<path class="st8" d="M207.96,131.93c-0.49,0.04-1.01,0.1-1.53,0.17c-2.72,0.4-4.94,1.01-6.73,1.8c-0.22,0.1-0.44,0.2-0.65,0.3
				c-0.2,0.09-0.39,0.19-0.57,0.29c-0.25,0.14-0.5,0.27-0.72,0.41c-0.15,0.1-0.3,0.19-0.45,0.29c-0.71,0.47-1.31,0.97-1.83,1.51
				c0.47-1.43,0.76-2.04,3.25-3.29c2.49-1.25,6-1.71,6-1.71c1.26,0.01,2.32,0.1,3.23,0.21L207.96,131.93z"/>
			<path class="st8" d="M197.38,156.82l-0.69-0.25l-2.46-0.9l-0.14-0.05l-0.25-0.09c-0.89-2.42-1.87-5.76-1.22-7.23
				c0.05,0.34,0.1,0.69,0.15,1.02c0.41,2.85,1.94,5.31,4.19,7.16c0.1,0.1,0.21,0.17,0.31,0.26
				C197.32,156.77,197.34,156.8,197.38,156.82z"/>
			<path class="st7" d="M176.21,145.68c0.6,1.57-0.93,3.11-2.5,2.53l-9.89-3.59c-0.71-0.19-1.28-0.59-1.7-1.11
				c-0.63-0.77-0.53-1.92,0.19-2.61c3.24-3.08,7.93-6.36,10.24-2.51C173.94,140.71,175.33,143.38,176.21,145.68z"/>
			<path class="st6" d="M192.22,154.94l-13.9-5.05c0.15-0.41,0.49-0.76,0.97-0.9c3.34-0.91,8.99-1.97,10.71,0.61
				C191.31,151.56,191.93,153.52,192.22,154.94z"/>
			<path class="st6" d="M176.79,140.65l0.45,3.12c0.19,1.3,1.16,2.35,2.45,2.62c2.67,0.56,6.97,1.17,7.82-0.52
				c1.25-2.49-3.74-6.23-3.74-6.23s-3.74-3.74-4.99-2.49c-0.18,0.18-0.36,0.31-0.53,0.39C177.13,138.09,176.61,139.41,176.79,140.65
				z"/>
			<path class="st9" d="M190,128.99c0-1.18-0.76-2.15-1.76-2.34c-0.14-0.03-0.23-0.19-0.2-0.35c0.1-0.5,0.06-1.07-0.27-1.68
				c-0.34-0.63-0.9-1.09-1.55-1.18c-0.8-0.11-1.51,0.28-1.95,0.92c-0.11,0.16-0.31,0.16-0.41,0c-0.44-0.64-1.15-1.03-1.95-0.92
				c-0.65,0.09-1.22,0.55-1.55,1.18c-0.33,0.61-0.37,1.18-0.26,1.68c0.03,0.16-0.05,0.32-0.2,0.35c-0.99,0.2-1.75,1.17-1.75,2.34
				c0,0.97,0.52,2.09,1.74,2.62c0.18,0.08,0.31,0.23,0.37,0.43c0.21,0.68,0.56,1.29,1.01,1.78c0.12,0.13,0.19,0.3,0.19,0.48l0,7.52
				c0,1.55,1.12,2.8,2.5,2.8h0.2c1.38,0,2.5-1.26,2.5-2.8l0-7.52c0-0.18,0.07-0.35,0.19-0.48c0.45-0.49,0.8-1.09,1.01-1.77
				c0.06-0.2,0.2-0.36,0.38-0.43C189.48,131.1,190,129.97,190,128.99z"/>
			<path class="st9" d="M172.55,126.5c0-1.18-0.76-2.15-1.76-2.34c-0.14-0.03-0.23-0.19-0.2-0.35c0.1-0.5,0.06-1.07-0.27-1.68
				c-0.34-0.63-0.9-1.09-1.55-1.18c-0.8-0.11-1.51,0.28-1.95,0.92c-0.11,0.16-0.31,0.16-0.41,0c-0.44-0.64-1.15-1.03-1.95-0.92
				c-0.65,0.09-1.22,0.55-1.55,1.18c-0.33,0.61-0.37,1.18-0.26,1.68c0.03,0.16-0.05,0.32-0.2,0.35c-0.99,0.2-1.75,1.17-1.75,2.34
				c0,0.97,0.52,2.09,1.74,2.62c0.18,0.08,0.31,0.23,0.37,0.43c0.21,0.68,0.56,1.29,1.01,1.78c0.12,0.13,0.19,0.3,0.19,0.48l0,7.52
				c0,1.55,1.12,2.8,2.5,2.8h0.2c1.38,0,2.5-1.26,2.5-2.8l0-7.52c0-0.18,0.07-0.35,0.19-0.48c0.45-0.49,0.8-1.09,1.01-1.77
				c0.06-0.2,0.2-0.36,0.38-0.43C172.02,128.6,172.55,127.48,172.55,126.5z"/>
			<path class="st7" d="M193.19,140.31c-0.02,0.06-0.05,0.14-0.07,0.21c-0.01,0.01-0.02,0.04-0.02,0.05
				c-0.02,0.1-0.06,0.2-0.09,0.29c-0.09,0.29-0.16,0.59-0.22,0.87c-0.09,0.36-0.15,0.74-0.2,1.11c-0.02,0.14-0.04,0.26-0.05,0.39
				c-0.01,0.09-0.02,0.17-0.02,0.26c-0.01,0.06-0.01,0.12-0.01,0.19c-0.02,0.29-0.05,0.57-0.05,0.86c-0.01,0.22-0.01,0.45-0.01,0.67
				h-0.01l-2.09-1.05c-0.77-0.39-0.93-1.42-0.32-2.03l1.25-1.25C191.77,140.36,192.5,140.16,193.19,140.31z"/>
		</g>
		<circle class="st4" cx="204.52" cy="149.57" r="1.25"/>
		<circle class="st4" cx="213.25" cy="148.33" r="1.25"/>
		<g>
			<g>
				<path class="st10" d="M161.02,100.56c-1.45,0.61-3.15,0.41-4.36-0.64c-1.2-1.04-1.76-2.76-1-4.23c0.73-1.41,2.51-2.19,3.93-1.28
					c0.66,0.42,1.13,1.19,1.08,1.99c-0.05,0.78-0.61,1.52-1.38,1.72c-0.82,0.21-1.84-0.42-1.78-1.33c0.05-0.92,1.28-1.43,1.73-0.49
					c0.21,0.43,0.86,0.05,0.65-0.38c-0.49-1.02-1.82-1.16-2.6-0.37c-0.77,0.78-0.65,2.03,0.13,2.76c0.79,0.74,1.98,0.78,2.86,0.16
					c0.87-0.61,1.29-1.69,1.09-2.73c-0.2-1.03-1.02-1.88-1.98-2.26c-1-0.39-2.11-0.23-3,0.34c-1.85,1.18-2.33,3.62-1.23,5.47
					c1.22,2.06,3.85,2.91,6.05,1.99C161.66,101.1,161.47,100.37,161.02,100.56L161.02,100.56z"/>
			</g>
		</g>
		<g>
			<g>
				<path class="st10" d="M176.74,102.38c0.94-0.92,2.3-1.27,3.56-0.89c1.23,0.37,2.25,1.42,2.3,2.74c0.04,1.25-0.81,2.6-2.14,2.7
					c-1.26,0.1-2.54-0.99-2.1-2.32c0.22-0.68,0.9-1.14,1.62-0.94c0.71,0.2,1.07,1.03,0.53,1.61c-0.33,0.35,0.2,0.88,0.53,0.53
					c0.62-0.66,0.65-1.7,0-2.36c-0.62-0.63-1.63-0.76-2.39-0.32c-0.74,0.42-1.18,1.32-1.12,2.16c0.07,0.89,0.62,1.66,1.41,2.07
					c0.75,0.38,1.65,0.43,2.43,0.1c0.81-0.34,1.41-1.03,1.74-1.84c0.67-1.67-0.1-3.5-1.59-4.41c-1.69-1.04-3.9-0.74-5.3,0.63
					C175.87,102.18,176.4,102.71,176.74,102.38L176.74,102.38z"/>
			</g>
		</g>
		<g>
			<g>
				<path class="st10" d="M182.71,163.11c-0.94,0.92-2.3,1.27-3.56,0.89c-1.23-0.37-2.25-1.42-2.3-2.74
					c-0.04-1.25,0.81-2.6,2.14-2.7c1.26-0.1,2.54,0.99,2.1,2.32c-0.22,0.68-0.9,1.14-1.62,0.94c-0.71-0.2-1.07-1.03-0.53-1.61
					c0.33-0.35-0.2-0.88-0.53-0.53c-0.62,0.66-0.65,1.7,0,2.36c0.62,0.63,1.63,0.76,2.39,0.32c0.74-0.42,1.18-1.32,1.12-2.16
					c-0.07-0.89-0.62-1.66-1.41-2.07c-0.75-0.38-1.65-0.43-2.43-0.1c-0.81,0.34-1.41,1.03-1.74,1.84c-0.67,1.67,0.1,3.5,1.59,4.41
					c1.69,1.04,3.9,0.74,5.3-0.63C183.59,163.3,183.06,162.77,182.71,163.11L182.71,163.11z"/>
			</g>
		</g>
		<g>
			<g>
				<path class="st10" d="M244.85,163.72c-0.94,0.61-2.12,0.75-3.16,0.3c-1-0.43-1.83-1.39-1.88-2.51c-0.05-1.07,0.61-2.2,1.67-2.52
					c1.01-0.3,2.29,0.29,2.46,1.4c0.09,0.59-0.18,1.21-0.7,1.52c-0.51,0.31-1.18,0.17-1.52-0.32c-0.27-0.39-0.93-0.02-0.65,0.38
					c0.44,0.62,1.15,0.96,1.91,0.83c0.74-0.13,1.33-0.72,1.59-1.41c0.54-1.47-0.63-2.98-2.09-3.2c-1.52-0.23-2.89,0.85-3.3,2.28
					c-0.42,1.48,0.27,2.96,1.48,3.82c1.34,0.96,3.19,0.96,4.57,0.07C245.63,164.1,245.25,163.45,244.85,163.72L244.85,163.72z"/>
			</g>
		</g>
		<g>
			<g>
				<path class="st10" d="M210.4,170.94c0.94-0.92,2.3-1.27,3.56-0.89c1.23,0.37,2.25,1.42,2.3,2.74c0.04,1.25-0.81,2.6-2.14,2.7
					c-1.26,0.1-2.54-0.99-2.1-2.32c0.22-0.68,0.9-1.14,1.62-0.94c0.71,0.2,1.07,1.03,0.53,1.61c-0.33,0.35,0.2,0.88,0.53,0.53
					c0.62-0.66,0.65-1.7,0-2.36c-0.62-0.63-1.63-0.76-2.39-0.32c-0.74,0.42-1.18,1.32-1.12,2.16c0.07,0.89,0.62,1.66,1.41,2.07
					c0.75,0.38,1.65,0.43,2.43,0.1c0.81-0.34,1.41-1.03,1.74-1.84c0.67-1.67-0.1-3.5-1.59-4.41c-1.69-1.04-3.9-0.74-5.3,0.63
					C209.52,170.74,210.05,171.27,210.4,170.94L210.4,170.94z"/>
			</g>
		</g>
		<g>
			<g>
				<path class="st10" d="M216.37,121.97c-0.94,0.92-2.3,1.27-3.56,0.89c-1.23-0.37-2.25-1.42-2.3-2.74
					c-0.04-1.25,0.81-2.6,2.14-2.7c1.26-0.1,2.54,0.99,2.1,2.32c-0.22,0.68-0.9,1.14-1.62,0.94c-0.71-0.2-1.07-1.03-0.53-1.61
					c0.33-0.35-0.2-0.88-0.53-0.53c-0.62,0.66-0.65,1.7,0,2.36c0.62,0.63,1.63,0.76,2.39,0.32c0.74-0.42,1.18-1.32,1.12-2.16
					c-0.07-0.89-0.62-1.66-1.41-2.07c-0.75-0.38-1.65-0.43-2.43-0.1c-0.81,0.34-1.41,1.03-1.74,1.84c-0.67,1.67,0.1,3.5,1.59,4.41
					c1.69,1.04,3.9,0.74,5.3-0.63C217.25,122.17,216.72,121.64,216.37,121.97L216.37,121.97z"/>
			</g>
		</g>
		<g>
			<g>
				<path class="st10" d="M141.79,133.9c-0.8,0.78-1.95,1.08-3.02,0.76c-1.04-0.31-1.91-1.2-1.95-2.32
					c-0.04-1.05,0.68-2.19,1.8-2.28c1.06-0.08,2.13,0.82,1.76,1.94c-0.18,0.56-0.75,0.94-1.33,0.78c-0.58-0.16-0.88-0.83-0.44-1.3
					c0.33-0.35-0.2-0.88-0.53-0.53c-0.56,0.59-0.58,1.52,0,2.11c0.55,0.56,1.45,0.67,2.13,0.29c0.66-0.37,1.04-1.17,0.99-1.91
					c-0.06-0.79-0.54-1.47-1.24-1.83c-0.66-0.34-1.45-0.38-2.14-0.09c-0.72,0.3-1.25,0.91-1.53,1.62c-0.58,1.47,0.09,3.07,1.4,3.87
					c1.48,0.91,3.41,0.65,4.64-0.55C142.67,134.09,142.14,133.56,141.79,133.9L141.79,133.9z"/>
			</g>
		</g>
		<g>
			<g>
				<path class="st10" d="M157.59,166.12c-0.94,0.61-2.12,0.75-3.16,0.3c-1-0.43-1.83-1.39-1.88-2.51c-0.05-1.07,0.61-2.2,1.67-2.52
					c1.01-0.3,2.29,0.29,2.46,1.4c0.09,0.59-0.18,1.21-0.7,1.52c-0.51,0.31-1.18,0.17-1.52-0.32c-0.27-0.39-0.93-0.02-0.65,0.38
					c0.44,0.62,1.15,0.96,1.91,0.83c0.74-0.13,1.33-0.72,1.59-1.41c0.54-1.47-0.63-2.98-2.09-3.2c-1.52-0.23-2.89,0.85-3.3,2.28
					c-0.42,1.48,0.27,2.96,1.48,3.82c1.34,0.96,3.19,0.96,4.57,0.07C158.37,166.5,157.99,165.85,157.59,166.12L157.59,166.12z"/>
			</g>
		</g>
		<g>
			<path class="st1" d="M186.02,192.04c-0.69,2.72-3.16,3.96-4.55,2.75c-1.22-0.3-3.98-2.91-4.94-4.13
				c-2.26-1.5,0.21-2.74,4.52-2.76C185.74,186.8,188.5,189.41,186.02,192.04z"/>
		</g>
		<g>
			<path class="st1" d="M234.56,190.41c-0.97,2.35-2.19,5.4-4.55,4.82c-1.32-0.35-3.15-1.43-4.85-3.48
				c-1.57-1.26-3.06-3.28,1.58-3.63C230.18,187.61,235.97,187.12,234.56,190.41z"/>
		</g>
		<g>
			<path class="st1" d="M242.36,132.47c1.61-0.06,5.6-1.65,7.03,1.11c0.17,2.49-1.07,4.67-1.93,5.11c-1.09-0.14-1.53-0.59-3.64-2.89
				C242.49,133.85,240.89,133.35,242.36,132.47z"/>
		</g>
		<g>
			<path class="st1" d="M141.67,185.97c-1.62-0.86-1.66-2.31,2.37-2.37c3.2-0.53,7.41-0.24,5.6,1.95c-0.68,1.67-2.23,3.59-4.03,2.91
				C144.63,188.25,142.79,187.21,141.67,185.97z"/>
		</g>
		<g>
			<path class="st1" d="M197.02,89.98c0.89,0.96,1.75,1.47,2.23,1.51c0.23,0.02,0.5,0.12,0.65,0.25c0.09,0.08,0.17,0.14,0.26,0.2
				c0.37,0.36,1.54,0.56,2.11-0.91c0.43-1.22,1.59-2.89,0.38-3.59c-0.21-0.11-0.48-0.16-0.76-0.17c-0.67,0-1.37-0.33-1.87-0.7
				c-0.02-0.01-0.04-0.03-0.06-0.04c-1.46-0.62-3.35,0.64-4.43,1.01C194.8,88.41,196.17,88.78,197.02,89.98z"/>
		</g>
		<g>
			<path class="st1" d="M170.86,77.11c-0.62,2.05-2.28,3.34-3.23,2.79c-0.35-0.11-0.62-0.21-1.1-0.54
				c-0.23-0.17-0.56-0.29-0.73-0.27c-0.25,0.03-0.61-0.11-1.1-0.46c-0.03-0.02-0.06-0.04-0.08-0.07c-1.12-1.14-2.39-1.67-0.69-2.43
				c0.3-0.1,0.64-0.16,0.96-0.15c0.6-0.91,2.09-1.15,3.59-1.6C171.18,73.25,172.41,74.93,170.86,77.11z"/>
		</g>
		<g>
			<path class="st1" d="M140.07,90.35c-0.43,1.39-1.13,3.31-2.47,3.25c-0.74-0.05-1.64-0.43-2.39-1.37
				c-0.75-0.51-1.25-1.56,1.16-2.28C138.11,89.28,140.7,88.38,140.07,90.35z"/>
		</g>
		<g>
			<path class="st1" d="M123.77,121.71c-0.41,2.43-0.8,4.67-1.61,4.38c-0.38-0.04-1.45-1.11-2.31-2.79
				c-0.63-0.93-1.29-1.76,0.43-2.72C121.49,119.48,124.12,118.3,123.77,121.71z"/>
		</g>
		<g>
			<path class="st1" d="M138.38,166.73c-1.43,0.76-1.8,0-3.43-1.15c-1.67-1.87-2.89-2.5-2.73-3.49c1.02-0.49,4.42-1.24,6.95-0.41
				C141.17,163.33,138.91,165.67,138.38,166.73z"/>
		</g>
	</g>
</g>
</svg>
