<?xml version="1.0" encoding="utf-8"?>
<!-- Generator: Adobe Illustrator 27.2.0, SVG Export Plug-In . SVG Version: 6.00 Build 0)  -->
<svg version="1.1" id="Layer_1" xmlns="http://www.w3.org/2000/svg" xmlns:xlink="http://www.w3.org/1999/xlink" x="0px" y="0px"
	 viewBox="0 0 360 504" style="enable-background:new 0 0 360 504;" xml:space="preserve">
<style type="text/css">
	.st0{fill:#5572A5;}
	.st1{fill:#383856;}
	.st2{fill:#FFEFDC;}
	.st3{fill:#F9C0CF;}
	.st4{fill:#6D4A54;}
	.st5{fill:#FFD2A9;}
	.st6{fill:#EFB66A;}
	.st7{fill:#67675F;}
	.st8{fill:#EAD4C1;}
	.st9{fill:#FCE4D0;}
	.st10{fill:#918C5D;}
	.st11{fill:#F4E876;}
	.st12{fill:none;}
	.st13{fill:#B9D6F9;}
	.st14{font-family:'CoconPro-Regular';}
	.st15{font-size:48px;}
</style>
<g id="Layer_2_00000092444149413904634850000018131735951214634923_">
	<path class="st0" d="M325,503.5H35c-19.4,0-35-15.7-35-35.1V35.1C0,15.7,15.7,0,35,0H325c19.3,0,35,15.7,35,35.1v433.3
		C360,487.8,344.3,503.5,325,503.5z"/>
</g>
<g id="Layer_1_00000005974495942981175940000013500571100422201501_">
	<g>
		<g>
			<path class="st1" d="M277,245.9c-2.5-1.3-4-3.5-4.1-5.8c0,0,0,0,0,0c-0.5-9.1-6.4-17.1-14.4-21.7c-3.1-1.8-4.2-5.1-2.8-8
				c1.1-2.3,1.7-4.8,1.7-7.4c-0.2-13.7-16.3-24-33.8-23.1c-1,0.1-2,0.2-3,0.3c0-0.4,0.1-0.7,0.1-1.1c0.8-13.9-9.2-26.6-22.6-26.4
				c-0.2,0-0.3,0-0.4,0c-3.3,0.1-6.2-2.2-7.7-5.9c-4.5-11-14.3-19.6-25.5-19.5c-3.8,0-7.5,1.1-10.7,2.9c-3.3,1.8-7,1.9-10.7,1
				c-2.6-0.7-5.2-1-7.9-1c-16.2,0.2-28.7,11.6-35.1,25.4c-12.3,1.8-23,10.4-23.5,21.7c-0.2,5.5,2.4,10.8,6.7,15
				c-2.9,3.7-4.8,8.2-4.9,13.1c-0.1,3.2,0.5,6.2,1.8,9c0.8,1.9,0.4,4-1.3,5.6c-4.1,4-6.8,9-7,14.3c-0.4,11.8,11,20.8,24.3,22.5
				c4.1,0.5,7.4,2.4,9.4,5.2c0.3,0.4,0.5,0.7,0.8,1c2.3,2.8,3.1,6.6,2.4,10.5c-0.1,0.6-0.2,1.1-0.3,1.7c-1.6,15,10,28.7,26.5,28.9
				c7.3,0,14.2-3,19.7-7.7c1.3-1.1,3-1.2,4.2-0.2c4,3.3,9,5.3,14.5,5.3c2.9,0,5.7-0.6,8.3-1.6c2-0.8,4.2-0.1,5.7,1.8
				c5,6.5,12.4,10.9,20.4,10.9c9.2,0.1,16.7-5.5,20.8-13.1c1.6-3,4.3-4.7,7.6-4.4c0.6,0.1,1.2,0.1,1.8,0.2c3.4,0.1,6.7-0.4,9.6-1.5
				c2.5-1,5.5-0.8,8.4,0.4c4.5,2,9.5,2.9,14.5,2.4c12.3-1.2,22.7-10.1,24.5-21.8C296.5,263.1,288.4,251.8,277,245.9z"/>
		</g>
		<g>
			<path class="st2" d="M215,215.3c0,0-0.1,0-0.1,0c-0.8,0.1-1.7,0.2-2.6,0.3c-4.6,0.7-8.3,1.7-11.4,3c-0.4,0.2-0.7,0.3-1.1,0.5
				c-0.3,0.2-0.7,0.3-1,0.5c-1,0.6-2,1.2-2.8,1.8c-0.3,0.2-0.5,0.4-0.8,0.6s-0.5,0.4-0.7,0.6c-0.3,0.2-0.5,0.4-0.7,0.7
				c-0.3,0.3-0.5,0.5-0.7,0.8c-0.2,0.3-0.4,0.5-0.7,0.8c-0.2,0.3-0.4,0.5-0.6,0.8c-0.4,0.5-0.7,1.1-1,1.7c0,0,0,0.1-0.1,0.1
				c-0.2,0.3-0.3,0.6-0.4,0.8c0,0,0,0.1,0,0.1c-0.2,0.4-0.4,0.9-0.5,1.4c0,0,0,0.1,0,0.1c0,0.2-0.1,0.3-0.2,0.5
				c-0.2,0.5-0.3,1-0.4,1.5c-0.2,0.6-0.3,1.2-0.3,1.9c0,0.2-0.1,0.4-0.1,0.7c0,0.2,0,0.3,0,0.4c0,0.1,0,0.2,0,0.3
				c0,0.5-0.1,1-0.1,1.5c0,0.4,0,0.8,0,1.2c0,0.5,0,0.9,0,1.4c0,0.8,0.1,1.6,0.2,2.4c0,0.4,0.1,0.9,0.1,1.4v0
				c-1.1,2.5,0.6,8.1,2.1,12.2l-2.8-1l-23.5-8.5l-2-0.7l-22.4-8.2c-2-0.5-3.3-2.1-4.1-4c-2-0.6-3.9-1.4-5.8-2.2
				c-10.4-4.5-18.2-13.3-18.5-25.1c-0.2-6.9-1.1-13.7-3.7-20.1l0,0c0,0,0,0,0,0c-0.1-0.3-0.5-1.1-0.6-1.2c-0.2-0.5-0.5-1-0.7-1.4
				c-0.4-0.8-0.8-1.5-1.3-2.2c-0.3-0.6-2-2.8-0.9-1.5c-1.5-2.2-1.7-4.9,0.3-7c1.9-1.8,5.7-2.2,7.4,0c2.4,3,4.1,6.4,5.6,10
				c2.7,6.5,4,13.5,4.3,20.5c0.2,3.4,0,5.5,1.1,8.5c0.6,1.5,1.9,3.4,3.2,4.8c1.9,1.9,2.4,2.3,4.7,3.7c0.9,0.5,1.9,1,2.8,1.5
				c0.1,0,0.6,0.3,0.9,0.4c0,0-0.1,0-0.1,0c0,0,0.1,0,0.1,0c0.1,0,0.1,0,0.1,0c0,0,0,0,0,0c0.3,0.1,0.6,0.2,0.7,0.3
				c0.4,0.2,0.8,0.3,1.2,0.5c1.6-2.8,4.4-7.6,7.3-10.5c4.2-4.2,6.3-6.3,12.6-4.2c0.3,0.1,0.6,0.2,0.9,0.3v-6.2
				c0-0.3-0.1-0.5-0.3-0.7c-0.7-0.7-1.2-1.5-1.6-2.5c-0.1-0.3-0.3-0.5-0.6-0.6c-1.9-0.7-2.7-2.3-2.7-3.6c0-1.6,1.2-3,2.7-3.2
				c0.2,0,0.4-0.3,0.3-0.5c-0.2-0.7-0.1-1.5,0.4-2.3c0.5-0.9,1.4-1.5,2.4-1.6c1.2-0.2,2.4,0.4,3,1.3c0.2,0.2,0.5,0.2,0.7,0
				c0.7-0.9,1.8-1.4,3-1.3c1,0.1,1.9,0.8,2.4,1.6c0.5,0.8,0.6,1.6,0.4,2.3c0,0.2,0.1,0.4,0.3,0.5c1.6,0.3,2.7,1.6,2.7,3.2
				c0,1.4-0.8,3-2.7,3.7c-0.3,0.1-0.5,0.3-0.6,0.6c-0.3,0.9-0.9,1.8-1.6,2.5c-0.2,0.2-0.3,0.4-0.3,0.7v7.9c3.9,0.6,8.4,1.1,14.1,2.2
				c5.2,1,7.6,2.2,9.4,3.1v-9c0-0.3-0.1-0.5-0.3-0.7c-0.7-0.7-1.2-1.5-1.6-2.5c-0.1-0.3-0.3-0.5-0.6-0.6c-1.9-0.7-2.7-2.3-2.7-3.6
				c0-1.6,1.2-3,2.7-3.2c0.2,0,0.4-0.3,0.3-0.5c-0.2-0.7-0.1-1.5,0.4-2.3c0.5-0.9,1.4-1.5,2.4-1.6c1.2-0.2,2.4,0.4,3,1.3
				c0.2,0.2,0.5,0.2,0.7,0c0.7-0.9,1.8-1.4,3-1.3c1,0.1,1.9,0.8,2.4,1.6c0.5,0.8,0.6,1.6,0.4,2.3c0,0.2,0.1,0.4,0.3,0.5
				c1.6,0.3,2.7,1.6,2.7,3.2c0,1.4-0.8,3-2.7,3.7c-0.3,0.1-0.5,0.3-0.6,0.6c-0.3,0.9-0.9,1.8-1.6,2.5c-0.2,0.2-0.3,0.4-0.3,0.7v9.9
				c2.4-0.2,4.7-0.4,6.7-0.5c1,0,2-0.1,3-0.1c0.7,0,1.4,0,2,0c2.1,0,3.9,0.2,5.5,0.4C214.8,215.2,214.9,215.3,215,215.3z"/>
			<path class="st2" d="M135.2,221.2c0,0,0,0-0.1,0c-0.1,0-0.1,0-0.1,0c0,0,0.1,0,0.1,0c0,0,0,0,0,0
				C135.2,221.2,135.2,221.2,135.2,221.2z"/>
			<path class="st2" d="M222.1,234.8l-5.4,19.4c-0.4,1.4-1,2.6-2,3.6l0,0c-1,1.1-2.2,1.9-3.6,2.4c-0.5,0.2-1,0.3-1.6,0.4
				c-1.2,0.2-2.5,0.2-3.8-0.2l-5.1-1.9l-2.8-1l-0.7-0.3h0c-0.1,0-0.1-0.1-0.2-0.1c-0.2-0.2-0.4-0.3-0.5-0.4
				c-3.8-3.1-6.4-7.3-7.1-12.1c-1.8-12.1-1-25.5,23-29.1c0.9-0.1,1.9-0.3,2.7-0.3h0c0.6,0.1,1.2,0.2,1.7,0.3
				c3.2,0.6,4.9,1.5,5.7,2.2C226.6,222,223.4,230,222.1,234.8z"/>
			<g>
				<path class="st2" d="M249.3,272.7l-18.5-11.4h0l-2.2-1.4l-5.3-3.3c0,0,1.1-9.7,9.3-10.7c0.1,0,0.3,0,0.4,0
					c2.2-0.2,4.7,1.7,7.1,4.6c0.5,0.6,1,1.2,1.5,1.9c4.1,5.6,7.9,13.6,10,18.5C252.1,272.2,250.6,273.5,249.3,272.7z"/>
				<path class="st3" d="M229.7,250.2c1-0.8,2.1-1.2,3.5-1.4c2.4-0.2,7.6,6.9,12.5,16.6c0.3,0.6-0.4,1.2-0.9,0.9l-18.1-11.2
					C227.1,253.7,228,251.6,229.7,250.2L229.7,250.2z"/>
				<path class="st2" d="M214.7,257.8L214.7,257.8l-2.9,5l-1.3,2.1l-11.3,19.3c-0.7,1.3-2.7,0.8-2.8-0.7c-0.4-6-0.8-16.3,0.7-23.4
					c0.1-0.5,0.2-0.9,0.3-1.4c0.1-0.3,0.2-0.6,0.3-0.9c0-0.1,0.1-0.2,0.1-0.2c0.6-1.7,1.3-3.1,2.2-4c0.4-0.4,0.8-0.6,1.2-0.8
					c0.6-0.3,1.3-0.5,1.9-0.6c0,0,0,0,0,0C209.9,250.8,214.7,257.8,214.7,257.8z"/>
				<path class="st3" d="M206,255.1c2.1,0.4,3.9,1.9,5,3l-10.8,18.3c-0.3,0.6-1.2,0.3-1.2-0.3c-0.2-10.8,1-19.6,3.3-20.5
					C203.6,255,204.8,254.9,206,255.1z"/>
				<path class="st2" d="M241,248.7c-0.3,0.6-0.7,1.1-1,1.7c0.5,0.6,1,1.2,1.5,1.9c-0.5,0.7-1,1.4-1.6,2.1c-0.1,0.1-0.2,0.3-0.4,0.4
					c-1.6,1.8-3.6,3.4-5.7,4.8c-0.3,0.2-0.6,0.4-1,0.6c-0.7,0.4-1.3,0.8-2,1.1h0l-2.2-1.4c-2.7,1.3-5.8,2.2-9,2.7
					c-2.6,0.4-5.2,0.5-7.7,0.2l-1.3,2.1c-0.1,0-0.3,0-0.4,0c-0.8-0.1-1.4-0.2-2-0.3c-0.3,0-0.5-0.1-0.8-0.2
					c-2.7-0.6-5.2-1.5-7.5-2.7c-0.2-0.1-0.4-0.2-0.6-0.3c-0.8-0.4-1.5-0.9-2.2-1.3c0.1-0.5,0.2-0.9,0.3-1.4c0.1-0.3,0.2-0.6,0.3-0.9
					c-0.2-0.2-0.4-0.3-0.7-0.5h0c-0.1,0-0.1-0.1-0.2-0.1c-0.2-0.2-0.4-0.3-0.5-0.4c-3.8-3.1-6.4-7.3-7.1-12.1
					c-0.1-0.6-0.2-1.2-0.2-1.8c0-0.4-0.1-0.9-0.2-1.3c-0.1-0.8-0.1-1.6-0.2-2.4c0-0.5,0-0.9,0-1.4c0,0,0,0,0,0
					c1.3,0.6,2.8,0.2,3.6-1l1.3-2c0.8-1.3,0.5-3-0.8-3.8l-1.6-1c-0.4-0.3-0.8-0.4-1.3-0.5c0.1-0.3,0.3-0.7,0.4-1c0,0,0-0.1,0-0.1
					c0.1-0.3,0.3-0.6,0.4-0.8c0,0,0-0.1,0.1-0.1c0.2-0.3,0.3-0.6,0.5-0.8c0.2-0.3,0.4-0.6,0.5-0.8s0.4-0.5,0.6-0.8
					c0.2-0.3,0.4-0.5,0.7-0.8c0.2-0.3,0.5-0.5,0.7-0.8c0.2-0.2,0.4-0.5,0.7-0.7c0.2-0.2,0.5-0.4,0.7-0.6c0.3-0.2,0.5-0.4,0.8-0.6
					c0.8-0.6,1.8-1.2,2.8-1.8c0.3-0.2,0.6-0.3,1-0.5c0.4-0.2,0.7-0.3,1.1-0.5c3-1.3,6.8-2.4,11.4-3c0.9-0.1,1.8-0.2,2.6-0.3
					c0,0,0.1,0,0.1,0h0c0.5-0.1,1.1-0.1,1.6-0.2c20.4-1.5,25.1,10.3,26.7,21.6c0.5,3.8-0.1,7.5-1.7,10.9
					C241.4,248,241.2,248.4,241,248.7z"/>
				<path class="st2" d="M241.6,247.6c-0.2,0.4-0.4,0.8-0.6,1.2c-0.3,0.6-0.7,1.1-1,1.7c0,0.1-0.1,0.1-0.1,0.2
					c-0.2,0.4-0.5,0.7-0.8,1c-0.3,0.4-0.7,0.8-1,1.3c-0.5,0.6-1.1,1.2-1.7,1.7c-0.4,0.4-0.8,0.7-1.2,1c-0.6,0.5-1.1,0.9-1.7,1.4
					c-0.6,0.4-1.2,0.8-1.9,1.2c-0.7,0.4-1.3,0.8-2,1.1c-0.4,0.2-0.7,0.4-1.1,0.5c-2.7,1.3-5.8,2.2-9,2.7c-2.6,0.4-5.2,0.5-7.7,0.2
					c-0.5,0-0.9-0.1-1.4-0.2c-0.5-0.1-1.1-0.2-1.6-0.3c-0.1,0-0.2,0-0.3,0c0,0,0,0,0,0c-0.7-0.2-1.5-0.3-2.2-0.5
					c-0.7-0.2-1.4-0.4-2.1-0.7c-0.5-0.2-1.1-0.4-1.6-0.6c-0.3-0.1-0.5-0.2-0.8-0.4c-0.4-0.2-0.9-0.4-1.3-0.7c-0.1,0-0.2-0.1-0.2-0.1
					c0,0-0.1,0-0.1-0.1c-0.4-0.2-0.8-0.5-1.2-0.7c-0.1-0.1-0.2-0.2-0.3-0.2c-0.3-0.2-0.6-0.4-0.9-0.6c0,0,0,0-0.1,0
					c-0.2-0.2-0.4-0.3-0.7-0.5h0c-0.1,0-0.1-0.1-0.2-0.1c-0.2-0.2-0.4-0.3-0.5-0.4c-3.8-3.1-6.4-7.3-7.1-12.1
					c-0.1-0.6-0.2-1.2-0.2-1.8c0-0.4-0.1-0.9-0.2-1.3c-0.1-0.8-0.1-1.6-0.2-2.4c0-0.5,0-0.9,0-1.4c0,0,0,0,0,0
					c1.3,0.6,2.8,0.2,3.6-1l1.3-2c0.8-1.3,0.5-3-0.8-3.8l-1.6-1c-0.4-0.3-0.8-0.4-1.3-0.5c0.1-0.3,0.3-0.7,0.4-1c0,0,0-0.1,0-0.1
					c0.1-0.3,0.3-0.6,0.4-0.8c0,0,0-0.1,0.1-0.1c0.2-0.3,0.3-0.6,0.5-0.8c0.2-0.3,0.4-0.6,0.5-0.8c0.2-0.3,0.4-0.5,0.6-0.8
					c0.2-0.3,0.4-0.5,0.7-0.8c0.2-0.3,0.5-0.5,0.7-0.8c-0.5,1.6,0.6,2.9,5.5,2.9c12.6,0,18.9-4.2,18.9-4.2l-3.3-6.7c0,0,0.1,0,0.1,0
					h0c0.5-0.1,1.1-0.1,1.6-0.2c20.4-1.5,25.1,10.3,26.7,21.6C243.9,240.5,243.2,244.2,241.6,247.6z"/>
				<g>
					<g>
						<g>
							<path class="st4" d="M211.2,234.8c0.1,0,0.3,0,0.1,0c-0.2,0,0.1,0,0.2,0c0.2,0,0.4,0,0.6,0c0.1,0,0.2,0,0.3,0
								c0.1,0,0.4,0.1,0.2,0c0.2,0,0.5,0.1,0.7,0.2c0.2,0.1-0.1,0,0,0c0.1,0,0.1,0.1,0.2,0.1c0.1,0.1,0.3,0.1,0.4,0.2
								c-0.1-0.1,0.1,0.1,0.2,0.2c0.1,0.1,0.1,0.1,0.2,0.2c0.1,0.1,0-0.1,0.1,0.1c0.4,0.6,0.6,1.3,0.7,2.1c0.1,0.5,0.6,0.7,1,0.6
								c0.5-0.1,0.7-0.6,0.6-1c-0.1-0.7-0.1-1.4,0.2-2.1c0-0.1,0.1-0.1,0.1-0.3c0-0.1,0.1-0.1,0.1-0.2c0,0,0.2-0.2,0-0.1
								c0.1-0.1,0.2-0.2,0.3-0.3c0,0,0.1-0.1,0.1-0.1c0.2-0.2-0.1,0.1,0,0c0.2-0.1,0.4-0.3,0.6-0.4c0.2-0.1-0.1,0,0,0
								c0.1,0,0.1,0,0.1-0.1c0.1,0,0.2-0.1,0.3-0.1c0.3-0.1,0.7-0.2,1-0.2c0.5-0.1,0.7-0.6,0.6-1c-0.1-0.5-0.6-0.7-1-0.6
								c-1,0.2-2,0.5-2.8,1.1c-1.4,1.1-1.6,3-1.3,4.7c0.5-0.2,1.1-0.3,1.6-0.5c-0.3-1.7-1.1-3.3-2.8-4c-1-0.4-2-0.3-3.1-0.2
								c-0.5,0.1-0.7,0.6-0.6,1C210.4,234.7,210.8,234.9,211.2,234.8L211.2,234.8z"/>
						</g>
					</g>
				</g>
				
					<ellipse transform="matrix(0.9895 -0.1448 0.1448 0.9895 -31.2401 36.3206)" class="st5" cx="233.9" cy="232.8" rx="5.3" ry="2.1"/>
				
					<ellipse transform="matrix(0.9895 -0.1448 0.1448 0.9895 -32.4294 30.9526)" class="st5" cx="196.4" cy="238.3" rx="5.3" ry="2.1"/>
				<g>
					<g>
						<g>
							<path class="st4" d="M240,235.7c-2.3-0.2-4.6-0.3-6.9-0.5c-0.3,0-0.7-0.1-1-0.1c-0.5,0-0.5,0.8,0,0.8
								c2.3,0.2,4.6,0.3,6.9,0.5c0.3,0,0.7,0.1,1,0.1C240.5,236.6,240.5,235.8,240,235.7L240,235.7z"/>
						</g>
					</g>
					<g>
						<g>
							<path class="st4" d="M238.3,232.1c-1.1,0.2-2.1,0.3-3.2,0.5c-0.2,0-0.3,0.1-0.5,0.1c-0.2,0-0.4,0.3-0.3,0.5
								c0.1,0.2,0.3,0.3,0.5,0.3c1.1-0.2,2.1-0.3,3.2-0.5c0.2,0,0.3-0.1,0.5-0.1c0.2,0,0.4-0.3,0.3-0.5
								C238.7,232.2,238.5,232.1,238.3,232.1L238.3,232.1z"/>
						</g>
					</g>
					<g>
						<g>
							<path class="st4" d="M235.8,228.1c-1.2,0.9-2.4,1.9-3.6,2.9c-0.2,0.1-0.3,0.3-0.5,0.4c-0.2,0.1-0.2,0.5,0,0.6
								c0.2,0.2,0.4,0.1,0.6,0c1.2-0.9,2.4-1.9,3.6-2.9c0.2-0.1,0.3-0.3,0.5-0.4c0.2-0.1,0.2-0.5,0-0.6
								C236.3,228,236,228,235.8,228.1L235.8,228.1z"/>
						</g>
					</g>
				</g>
				<g>
					<g>
						<g>
							<path class="st4" d="M192.9,243.4c2.2-0.8,4.3-1.6,6.5-2.4c0.3-0.1,0.6-0.2,0.9-0.3c0.5-0.2,0.3-1-0.2-0.8
								c-2.2,0.8-4.3,1.6-6.5,2.4c-0.3,0.1-0.6,0.2-0.9,0.3C192.2,242.8,192.4,243.7,192.9,243.4L192.9,243.4z"/>
						</g>
					</g>
					<g>
						<g>
							<path class="st4" d="M193.4,239.5c1.1-0.2,2.1-0.3,3.2-0.5c0.2,0,0.3-0.1,0.5-0.1c0.2,0,0.4-0.3,0.3-0.5
								c-0.1-0.2-0.3-0.3-0.5-0.3c-1.1,0.2-2.1,0.3-3.2,0.5c-0.2,0-0.3,0.1-0.5,0.1c-0.2,0-0.4,0.3-0.3,0.5
								C193,239.5,193.2,239.6,193.4,239.5L193.4,239.5z"/>
						</g>
					</g>
					<g>
						<g>
							<path class="st4" d="M194.2,234.9c1.4,0.6,2.8,1.1,4.3,1.7c0.2,0.1,0.4,0.2,0.6,0.2c0.2,0.1,0.5-0.1,0.5-0.3
								c0.1-0.2-0.1-0.4-0.3-0.5c-1.4-0.6-2.8-1.1-4.3-1.7c-0.2-0.1-0.4-0.2-0.6-0.2c-0.2-0.1-0.5,0.1-0.5,0.3
								C193.8,234.7,194,234.9,194.2,234.9L194.2,234.9z"/>
						</g>
					</g>
				</g>
				<path class="st6" d="M241.6,247.6c-0.2,0.4-0.4,0.8-0.6,1.2c-0.3,0.6-0.7,1.1-1,1.7c0,0.1-0.1,0.1-0.1,0.2
					c-0.2,0.4-0.5,0.7-0.8,1c-0.3,0.4-0.7,0.8-1,1.3c-0.5,0.6-1.1,1.2-1.7,1.7c-0.4,0.4-0.8,0.7-1.2,1c-0.6,0.5-1.1,0.9-1.7,1.4
					c-0.6,0.4-1.2,0.8-1.9,1.2c-0.7,0.4-1.3,0.8-2,1.1c-0.9-1-1.5-2.1-1.9-3.5c-0.1-0.3-0.2-0.6-0.2-0.9c-0.1-0.5-0.2-1.1-0.2-1.7
					c-0.2-2.6,0.3-5.9,5.1-7.4c0.6-0.2,1.4-0.3,2.2-0.5C237.3,245.1,239.8,245.9,241.6,247.6z"/>
				<path class="st7" d="M211.1,260.2c-0.1,0.8-0.3,1.6-0.7,2.4c-0.5-0.1-1.1-0.2-1.6-0.3c-0.1,0-0.2,0-0.3,0c0,0,0,0,0,0
					c-0.7-0.2-1.5-0.3-2.2-0.5c-0.7-0.2-1.4-0.4-2.1-0.7c-0.5-0.2-1.1-0.4-1.6-0.6c-0.3-0.1-0.5-0.2-0.8-0.4
					c-0.4-0.2-0.9-0.4-1.3-0.7c-0.1,0-0.2-0.1-0.2-0.1c0,0-0.1,0-0.1-0.1c-0.4-0.2-0.8-0.5-1.2-0.7c-0.1-0.1-0.2-0.2-0.3-0.2
					c-0.3-0.2-0.6-0.4-0.9-0.6c0,0,0,0-0.1,0c-0.2-0.2-0.4-0.3-0.7-0.5h0c-0.1,0-0.1-0.1-0.2-0.1c0.5-1.6,1.6-3,3.1-3.9
					c0.8-0.5,1.8-0.9,2.9-1c0.1,0,0.2,0,0.3,0c0,0,0,0,0,0c6.3-0.7,7.6,4.2,7.9,5.9c0,0,0,0,0,0v0c0,0.2,0,0.2,0.1,0.3
					C211.1,259.1,211.2,259.7,211.1,260.2z"/>
			</g>
			<path class="st8" d="M214.8,215.3c-0.8,0.1-1.7,0.2-2.6,0.3c-4.6,0.7-8.3,1.7-11.4,3c-0.4,0.2-0.7,0.3-1.1,0.5
				c-0.3,0.2-0.7,0.3-1,0.5c-0.4,0.2-0.8,0.5-1.2,0.7c-0.3,0.2-0.5,0.3-0.8,0.5c-1.2,0.8-2.2,1.6-3.1,2.5c0.8-2.4,1.3-3.4,5.5-5.6
				s10.1-2.9,10.1-2.9C211.5,214.9,213.3,215.1,214.8,215.3L214.8,215.3z"/>
			<path class="st8" d="M197,257.3l-1.2-0.4l-4.2-1.5l-0.2-0.1l-0.4-0.2c-1.5-4.1-3.2-9.7-2.1-12.2c0.1,0.6,0.2,1.2,0.3,1.7
				c0.7,4.8,3.3,9,7.1,12.1c0.2,0.2,0.4,0.3,0.5,0.4C196.9,257.2,196.9,257.3,197,257.3z"/>
			<path class="st7" d="M161.2,238.5c1,2.7-1.6,5.2-4.2,4.3l-16.7-6.1c-1.2-0.3-2.2-1-2.9-1.9c-1.1-1.3-0.9-3.2,0.3-4.4
				c5.5-5.2,13.4-10.7,17.3-4.2C157.4,230.1,159.7,234.6,161.2,238.5z"/>
			<path class="st6" d="M188.3,254.1l-23.5-8.5c0.3-0.7,0.8-1.3,1.6-1.5c5.6-1.5,15.2-3.3,18.1,1
				C186.7,248.4,187.8,251.7,188.3,254.1z"/>
			<path class="st6" d="M162.2,230l0.8,5.3c0.3,2.2,2,4,4.1,4.4c4.5,0.9,11.8,2,13.2-0.9c2.1-4.2-6.3-10.5-6.3-10.5
				s-6.3-6.3-8.4-4.2c-0.3,0.3-0.6,0.5-0.9,0.7C162.8,225.7,161.9,227.9,162.2,230z"/>
			<path class="st9" d="M184.5,210.3c0-2-1.3-3.6-3-3.9c-0.2-0.1-0.4-0.3-0.3-0.6c0.2-0.8,0.1-1.8-0.5-2.8c-0.6-1.1-1.5-1.8-2.6-2
				c-1.4-0.2-2.5,0.5-3.3,1.6c-0.2,0.3-0.5,0.3-0.7,0c-0.7-1.1-1.9-1.7-3.3-1.6c-1.1,0.2-2.1,0.9-2.6,2c-0.6,1-0.6,2-0.4,2.8
				c0.1,0.3-0.1,0.5-0.3,0.6c-1.7,0.3-3,2-3,3.9c0,1.6,0.9,3.5,2.9,4.4c0.3,0.1,0.5,0.4,0.6,0.7c0.4,1.1,0.9,2.2,1.7,3
				c0.2,0.2,0.3,0.5,0.3,0.8V232c0,2.6,1.9,4.7,4.2,4.7h0.3c2.3,0,4.2-2.1,4.2-4.7v-12.7c0-0.3,0.1-0.6,0.3-0.8
				c0.8-0.8,1.4-1.8,1.7-3c0.1-0.3,0.3-0.6,0.6-0.7C183.6,213.9,184.5,212,184.5,210.3z"/>
			<path class="st9" d="M155.1,206.1c0-2-1.3-3.6-3-3.9c-0.2-0.1-0.4-0.3-0.3-0.6c0.2-0.8,0.1-1.8-0.5-2.8c-0.6-1.1-1.5-1.8-2.6-2
				c-1.4-0.2-2.5,0.5-3.3,1.6c-0.2,0.3-0.5,0.3-0.7,0c-0.7-1.1-1.9-1.7-3.3-1.6c-1.1,0.2-2.1,0.9-2.6,2c-0.6,1-0.6,2-0.4,2.8
				c0.1,0.3-0.1,0.5-0.3,0.6c-1.7,0.3-3,2-3,3.9c0,1.6,0.9,3.5,2.9,4.4c0.3,0.1,0.5,0.4,0.6,0.7c0.4,1.1,0.9,2.2,1.7,3
				c0.2,0.2,0.3,0.5,0.3,0.8v12.7c0,2.6,1.9,4.7,4.2,4.7h0.3c2.3,0,4.2-2.1,4.2-4.7v-12.7c0-0.3,0.1-0.6,0.3-0.8
				c0.8-0.8,1.4-1.8,1.7-3c0.1-0.3,0.3-0.6,0.6-0.7C154.2,209.7,155.1,207.8,155.1,206.1z"/>
			<path class="st7" d="M189.9,229.4c0,0.1-0.1,0.2-0.1,0.4c0,0,0,0.1,0,0.1c0,0.2-0.1,0.3-0.2,0.5c-0.2,0.5-0.3,1-0.4,1.5
				c-0.2,0.6-0.3,1.2-0.3,1.9c0,0.2-0.1,0.4-0.1,0.7c0,0.2,0,0.3,0,0.4c0,0.1,0,0.2,0,0.3c0,0.5-0.1,1-0.1,1.5c0,0.4,0,0.8,0,1.1h0
				l-3.5-1.8c-1.3-0.7-1.6-2.4-0.5-3.4l2.1-2.1C187.5,229.5,188.7,229.2,189.9,229.4z"/>
		</g>
		<circle class="st4" cx="209" cy="245.1" r="2.1"/>
		<circle class="st4" cx="223.8" cy="243" r="2.1"/>
		<g>
			<g>
				<path class="st10" d="M135.6,162.3c-2.4,1-5.3,0.7-7.4-1.1c-2-1.8-3-4.7-1.7-7.1c1.2-2.4,4.2-3.7,6.6-2.2c1.1,0.7,1.9,2,1.8,3.4
					c-0.1,1.3-1,2.6-2.3,2.9c-1.4,0.4-3.1-0.7-3-2.2c0.1-1.6,2.2-2.4,2.9-0.8c0.4,0.7,1.5,0.1,1.1-0.6c-0.8-1.7-3.1-2-4.4-0.6
					c-1.3,1.3-1.1,3.4,0.2,4.7c1.3,1.2,3.3,1.3,4.8,0.3c1.5-1,2.2-2.9,1.8-4.6c-0.3-1.7-1.7-3.2-3.3-3.8c-1.7-0.7-3.6-0.4-5.1,0.6
					c-3.1,2-3.9,6.1-2.1,9.2c2.1,3.5,6.5,4.9,10.2,3.4C136.7,163.2,136.4,162,135.6,162.3L135.6,162.3z"/>
			</g>
		</g>
		<g>
			<g>
				<path class="st10" d="M162.1,165.4c1.6-1.6,3.9-2.1,6-1.5c2.1,0.6,3.8,2.4,3.9,4.6c0.1,2.1-1.4,4.4-3.6,4.6
					c-2.1,0.2-4.3-1.7-3.5-3.9c0.4-1.1,1.5-1.9,2.7-1.6c1.2,0.3,1.8,1.7,0.9,2.7c-0.6,0.6,0.3,1.5,0.9,0.9c1-1.1,1.1-2.9,0-4
					c-1-1.1-2.8-1.3-4-0.5c-1.2,0.7-2,2.2-1.9,3.6c0.1,1.5,1,2.8,2.4,3.5c1.3,0.6,2.8,0.7,4.1,0.2c1.4-0.6,2.4-1.7,2.9-3.1
					c1.1-2.8-0.2-5.9-2.7-7.4c-2.9-1.8-6.6-1.2-8.9,1.1C160.7,165.1,161.6,166,162.1,165.4L162.1,165.4z"/>
			</g>
		</g>
		<g>
			<g>
				<path class="st10" d="M172.2,267.9c-1.6,1.6-3.9,2.1-6,1.5c-2.1-0.6-3.8-2.4-3.9-4.6c-0.1-2.1,1.4-4.4,3.6-4.6
					c2.1-0.2,4.3,1.7,3.5,3.9c-0.4,1.1-1.5,1.9-2.7,1.6c-1.2-0.3-1.8-1.7-0.9-2.7c0.6-0.6-0.3-1.5-0.9-0.9c-1,1.1-1.1,2.9,0,4
					c1,1.1,2.8,1.3,4,0.5c1.2-0.7,2-2.2,1.9-3.6c-0.1-1.5-1-2.8-2.4-3.5c-1.3-0.6-2.8-0.7-4.1-0.2c-1.4,0.6-2.4,1.7-2.9,3.1
					c-1.1,2.8,0.2,5.9,2.7,7.4c2.9,1.8,6.6,1.2,8.9-1.1C173.7,268.2,172.8,267.3,172.2,267.9L172.2,267.9z"/>
			</g>
		</g>
		<g>
			<g>
				<path class="st10" d="M277.1,268.9c-1.6,1-3.6,1.3-5.3,0.5c-1.7-0.7-3.1-2.3-3.2-4.2c-0.1-1.8,1-3.7,2.8-4.3
					c1.7-0.5,3.9,0.5,4.2,2.4c0.2,1-0.3,2-1.2,2.6c-0.9,0.5-2,0.3-2.6-0.5c-0.5-0.7-1.6,0-1.1,0.6c0.7,1,1.9,1.6,3.2,1.4
					c1.2-0.2,2.2-1.2,2.7-2.4c0.9-2.5-1.1-5-3.5-5.4c-2.6-0.4-4.9,1.4-5.6,3.8c-0.7,2.5,0.5,5,2.5,6.4c2.3,1.6,5.4,1.6,7.7,0.1
					C278.4,269.6,277.8,268.5,277.1,268.9L277.1,268.9z"/>
			</g>
		</g>
		<g>
			<g>
				<path class="st10" d="M218.9,281.1c1.6-1.6,3.9-2.1,6-1.5c2.1,0.6,3.8,2.4,3.9,4.6c0.1,2.1-1.4,4.4-3.6,4.6
					c-2.1,0.2-4.3-1.7-3.5-3.9c0.4-1.1,1.5-1.9,2.7-1.6c1.2,0.3,1.8,1.7,0.9,2.7c-0.6,0.6,0.3,1.5,0.9,0.9c1-1.1,1.1-2.9,0-4
					c-1-1.1-2.8-1.3-4-0.5c-1.2,0.7-2,2.2-1.9,3.6c0.1,1.5,1,2.8,2.4,3.5c1.3,0.6,2.8,0.7,4.1,0.2c1.4-0.6,2.4-1.7,2.9-3.1
					c1.1-2.8-0.2-5.9-2.7-7.4c-2.9-1.8-6.6-1.2-8.9,1.1C217.5,280.8,218.4,281.7,218.9,281.1L218.9,281.1z"/>
			</g>
		</g>
		<g>
			<g>
				<path class="st10" d="M229,198.5c-1.6,1.6-3.9,2.1-6,1.5c-2.1-0.6-3.8-2.4-3.9-4.6c-0.1-2.1,1.4-4.4,3.6-4.6
					c2.1-0.2,4.3,1.7,3.5,3.9c-0.4,1.1-1.5,1.9-2.7,1.6c-1.2-0.3-1.8-1.7-0.9-2.7c0.6-0.6-0.3-1.5-0.9-0.9c-1,1.1-1.1,2.9,0,4
					c1,1.1,2.8,1.3,4,0.5c1.2-0.7,2-2.2,1.9-3.6c-0.1-1.5-1-2.8-2.4-3.5c-1.3-0.6-2.8-0.7-4.1-0.2c-1.4,0.6-2.4,1.7-2.9,3.1
					c-1.1,2.8,0.2,5.9,2.7,7.4c2.9,1.8,6.6,1.2,8.9-1.1C230.5,198.8,229.6,197.9,229,198.5L229,198.5z"/>
			</g>
		</g>
		<g>
			<g>
				<path class="st10" d="M103.1,218.6c-1.4,1.3-3.3,1.8-5.1,1.3c-1.8-0.5-3.2-2-3.3-3.9c-0.1-1.8,1.1-3.7,3-3.8
					c1.8-0.1,3.6,1.4,3,3.3c-0.3,0.9-1.3,1.6-2.2,1.3c-1-0.3-1.5-1.4-0.7-2.2c0.6-0.6-0.3-1.5-0.9-0.9c-0.9,1-1,2.6,0,3.6
					c0.9,0.9,2.4,1.1,3.6,0.5c1.1-0.6,1.8-2,1.7-3.2c-0.1-1.3-0.9-2.5-2.1-3.1c-1.1-0.6-2.4-0.6-3.6-0.2c-1.2,0.5-2.1,1.5-2.6,2.7
					c-1,2.5,0.2,5.2,2.4,6.5c2.5,1.5,5.8,1.1,7.8-0.9C104.6,218.9,103.7,218,103.1,218.6L103.1,218.6z"/>
			</g>
		</g>
		<g>
			<g>
				<path class="st10" d="M129.8,273c-1.6,1-3.6,1.3-5.3,0.5c-1.7-0.7-3.1-2.3-3.2-4.2c-0.1-1.8,1-3.7,2.8-4.3
					c1.7-0.5,3.9,0.5,4.2,2.4c0.2,1-0.3,2-1.2,2.6c-0.9,0.5-2,0.3-2.6-0.5c-0.5-0.7-1.6,0-1.1,0.6c0.7,1,1.9,1.6,3.2,1.4
					c1.2-0.2,2.2-1.2,2.7-2.4c0.9-2.5-1.1-5-3.5-5.4c-2.6-0.4-4.9,1.4-5.6,3.8c-0.7,2.5,0.5,5,2.5,6.4c2.3,1.6,5.4,1.6,7.7,0.1
					C131.1,273.6,130.5,272.5,129.8,273L129.8,273z"/>
			</g>
		</g>
		<g>
			<path class="st1" d="M177.8,316.7c-1.2,4.6-5.3,6.7-7.7,4.6c-2.1-0.5-6.7-4.9-8.3-7c-3.8-2.5,0.4-4.6,7.6-4.7
				C177.3,307.9,182,312.3,177.8,316.7z"/>
		</g>
		<g>
			<path class="st1" d="M259.7,314c-1.6,4-3.7,9.1-7.7,8.1c-2.2-0.6-5.3-2.4-8.2-5.9c-2.7-2.1-5.2-5.5,2.7-6.1
				C252.3,309.3,262.1,308.4,259.7,314z"/>
		</g>
		<g>
			<path class="st1" d="M272.9,216.2c2.7-0.1,9.5-2.8,11.9,1.9c0.3,4.2-1.8,7.9-3.3,8.6c-1.8-0.2-2.6-1-6.1-4.9
				C273.1,218.5,270.4,217.7,272.9,216.2z"/>
		</g>
		<g>
			<path class="st1" d="M102.9,306.5c-2.7-1.5-2.8-3.9,4-4c5.4-0.9,12.5-0.4,9.5,3.3c-1.1,2.8-3.8,6.1-6.8,4.9
				C107.9,310.3,104.8,308.6,102.9,306.5z"/>
		</g>
		<g>
			<path class="st1" d="M196.4,144.5c1.5,1.6,3,2.5,3.8,2.5c0.4,0,0.8,0.2,1.1,0.4c0.2,0.1,0.3,0.2,0.4,0.3c0.6,0.6,2.6,0.9,3.6-1.5
				c0.7-2.1,2.7-4.9,0.6-6.1c-0.4-0.2-0.8-0.3-1.3-0.3c-1.1,0-2.3-0.6-3.2-1.2c0,0-0.1-0.1-0.1-0.1c-2.5-1-5.7,1.1-7.5,1.7
				C192.6,141.8,194.9,142.4,196.4,144.5z"/>
		</g>
		<g>
			<path class="st1" d="M152.2,122.7c-1,3.5-3.8,5.6-5.5,4.7c-0.6-0.2-1-0.4-1.9-0.9c-0.4-0.3-0.9-0.5-1.2-0.5
				c-0.4,0.1-1-0.2-1.9-0.8c-0.1,0-0.1-0.1-0.1-0.1c-1.9-1.9-4-2.8-1.2-4.1c0.5-0.2,1.1-0.3,1.6-0.3c1-1.5,3.5-1.9,6.1-2.7
				C152.7,116.2,154.8,119.1,152.2,122.7z"/>
		</g>
		<g>
			<path class="st1" d="M100.2,145.1c-0.7,2.3-1.9,5.6-4.2,5.5c-1.2-0.1-2.8-0.7-4-2.3c-1.3-0.9-2.1-2.6,2-3.8
				C96.9,143.3,101.3,141.8,100.2,145.1z"/>
		</g>
		<g>
			<path class="st1" d="M72.7,198c-0.7,4.1-1.4,7.9-2.7,7.4c-0.6-0.1-2.4-1.9-3.9-4.7c-1.1-1.6-2.2-3,0.7-4.6
				C68.9,194.3,73.3,192.3,72.7,198z"/>
		</g>
		<g>
			<path class="st1" d="M97.4,274c-2.4,1.3-3,0-5.8-1.9c-2.8-3.2-4.9-4.2-4.6-5.9c1.7-0.8,7.5-2.1,11.7-0.7
				C102.1,268.3,98.3,272.2,97.4,274z"/>
		</g>
	</g>
</g>
<g>
	<path class="st11" d="M139.6,17.9l3.5,7.1c0.2,0.4,0.5,0.6,0.9,0.7l7.8,1.1c1,0.1,1.4,1.4,0.7,2.1l-5.7,5.5
		c-0.3,0.3-0.4,0.7-0.3,1.1l1.3,7.8c0.2,1-0.9,1.7-1.8,1.3l-7-3.7c-0.4-0.2-0.8-0.2-1.1,0l-7,3.7c-0.9,0.5-1.9-0.3-1.8-1.3l1.3-7.8
		c0.1-0.4-0.1-0.8-0.3-1.1l-5.7-5.5c-0.7-0.7-0.3-1.9,0.7-2.1l7.8-1.1c0.4-0.1,0.7-0.3,0.9-0.7l3.5-7.1
		C137.9,17,139.2,17,139.6,17.9z"/>
	<path class="st11" d="M181.4,10.2l4.6,9.2c0.2,0.5,0.7,0.8,1.2,0.9l10.2,1.5c1.3,0.2,1.8,1.8,0.9,2.7l-7.4,7.2
		c-0.4,0.4-0.5,0.9-0.5,1.4l1.7,10.1c0.2,1.3-1.1,2.3-2.3,1.7l-9.1-4.8c-0.5-0.2-1-0.2-1.5,0l-9.1,4.8c-1.2,0.6-2.5-0.4-2.3-1.7
		l1.7-10.1c0.1-0.5-0.1-1-0.5-1.4l-7.4-7.2c-0.9-0.9-0.4-2.5,0.9-2.7l10.2-1.5c0.5-0.1,1-0.4,1.2-0.9l4.6-9.2
		C179.2,9,180.8,9,181.4,10.2z"/>
	<path class="st11" d="M222.5,18.3l3.5,7.1c0.2,0.4,0.5,0.6,0.9,0.7l7.8,1.1c1,0.1,1.4,1.4,0.7,2.1l-5.7,5.5
		c-0.3,0.3-0.4,0.7-0.3,1.1l1.3,7.8c0.2,1-0.9,1.7-1.8,1.3l-7-3.7c-0.4-0.2-0.8-0.2-1.1,0l-7,3.7c-0.9,0.5-1.9-0.3-1.8-1.3l1.3-7.8
		c0.1-0.4-0.1-0.8-0.3-1.1l-5.7-5.5c-0.7-0.7-0.3-1.9,0.7-2.1L216,26c0.4-0.1,0.7-0.3,0.9-0.7l3.5-7.1
		C220.8,17.4,222.1,17.4,222.5,18.3z"/>
	<path class="st11" d="M256.1,24.1l2.7,5.5c0.1,0.3,0.4,0.5,0.7,0.5l6,0.9c0.8,0.1,1.1,1.1,0.5,1.6l-4.4,4.3
		c-0.2,0.2-0.3,0.5-0.3,0.8l1,6c0.1,0.8-0.7,1.4-1.4,1l-5.4-2.8c-0.3-0.1-0.6-0.1-0.9,0l-5.4,2.8c-0.7,0.4-1.5-0.2-1.4-1l1-6
		c0.1-0.3,0-0.6-0.3-0.8l-4.4-4.3c-0.6-0.5-0.2-1.5,0.5-1.6l6-0.9c0.3,0,0.6-0.2,0.7-0.5l2.7-5.5C254.7,23.4,255.7,23.4,256.1,24.1z
		"/>
	<path class="st11" d="M105.6,24l2.7,5.5c0.1,0.3,0.4,0.5,0.7,0.5l6,0.9c0.8,0.1,1.1,1.1,0.5,1.6l-4.4,4.3c-0.2,0.2-0.3,0.5-0.3,0.8
		l1,6c0.1,0.8-0.7,1.4-1.4,1l-5.4-2.8c-0.3-0.1-0.6-0.1-0.9,0l-5.4,2.8c-0.7,0.4-1.5-0.2-1.4-1l1-6c0.1-0.3,0-0.6-0.3-0.8L94,32.5
		c-0.6-0.5-0.2-1.5,0.5-1.6l6-0.9c0.3,0,0.6-0.2,0.7-0.5l2.7-5.5C104.3,23.3,105.3,23.3,105.6,24z"/>
</g>
<rect x="74" y="63.6" class="st12" width="211.9" height="37.7"/>
<text transform="matrix(1 0 0 1 76.5858 98.1628)" class="st13 st14 st15">sad catto</text>
</svg>
