<?xml version="1.0" encoding="utf-8"?>
<!-- Generator: Adobe Illustrator 27.2.0, SVG Export Plug-In . SVG Version: 6.00 Build 0)  -->
<svg version="1.1" id="Layer_1" xmlns="http://www.w3.org/2000/svg" xmlns:xlink="http://www.w3.org/1999/xlink" x="0px" y="0px"
	 viewBox="0 0 360 504" style="enable-background:new 0 0 360 504;" xml:space="preserve">
<style type="text/css">
	.st0{fill:#5572A5;}
	.st1{fill:#7A9CCE;}
	.st2{fill:#6891C1;}
</style>
<g id="Layer_2_00000153706230233726273420000002400336973801435780_">
	<path class="st0" d="M325,503.9H35c-19.4,0-35-15.7-35-35.1V35.2C0,15.8,15.7,0.1,35,0.1H325c19.3,0,35,15.7,35,35.1v433.6
		C360,488.1,344.3,503.9,325,503.9z"/>
</g>
<path class="st1" d="M125,274.7c0-7.6,2.4-14.8,6.6-21.1c0.6-0.8,1.2-1.7,1.8-2.5c-5.5-12.4,1.4-43,5.4-58.4c0.8-2.9,4.8-3,5.8-0.2
	l14.7,41.1c6.4-2.1,13.3-3.3,20.6-3.3c6.3,0,12.4,0.8,17.9,2.5c0.9,0.2,1.8,0.5,2.7,0.8l14.7-41.1c1-2.8,5-2.7,5.7,0.2
	c4.1,15.4,11,46,5.5,58.4c5.4,6.8,8.4,14.9,8.4,23.6c0,10,5.4,38.7-54.2,38.8C119.5,313.7,125,285.1,125,274.7z"/>
<g>
	<g>
		<path class="st1" d="M96.8,400.1L96.8,400.1c1.3,1.3,2.8,2.3,4.6,2.9c0.5,0.2,0.9,0.6,1.1,1.1c1.4,3.5,4.3,5,6.8,5
			c3,0,5.4-2.2,6-5c0.1-0.5,0.6-0.8,1-0.7c1.1,0.2,2.3,0.1,3.6-0.5c2.2-1,3.7-3.2,3.7-5.6c0-1.9-0.9-3.6-2.3-4.8
			c-0.4-0.4-0.4-1,0-1.4c1.3-1,2.2-2.6,2.3-4.4c0.2-2.7-1.6-5.1-4.1-6.1c-1.2-0.5-2.3-0.5-3.3-0.3c-0.5,0.1-0.9-0.2-1-0.6
			c-0.6-2.8-3.1-4.9-6-4.9c-2.5,0-5.4,1.5-6.7,5c-0.2,0.5-0.6,0.9-1.1,1.1c-1.8,0.6-3.3,1.6-4.6,2.9l0,0c-0.7,0.8-2.2,1.7-2.1,7.8
			C94.7,397.9,96.1,399.3,96.8,400.1z"/>
		<path class="st1" d="M103.8,385.8c-0.4-1.3-2-1.8-3.2-1c-0.4,0.3-0.9,0.7-1.3,1.1l-0.1,0.1c0,0-0.2,0.2-0.3,0.3
			c-0.6,0.6-0.9,2.5-0.9,5.6c0,5.2,0.9,6.1,1.3,6.5c0.3,0.3,0.9,0.7,1.4,1c1.2,0.7,2.8,0.1,3.1-1.3c0.4-1.6,0.7-3.9,0.7-6.6
			C104.6,388.9,104.2,387.1,103.8,385.8z"/>
		<circle class="st1" cx="109.2" cy="381.5" r="3.8"/>
		<circle class="st1" cx="109.3" cy="403.2" r="3.8"/>
		<circle class="st1" cx="117.1" cy="397.4" r="3.8"/>
		<circle class="st1" cx="117.1" cy="386.8" r="3.8"/>
	</g>
	<g>
		<path class="st1" d="M191.4,400.1L191.4,400.1c1.3,1.3,2.8,2.3,4.6,2.9c0.5,0.2,0.9,0.6,1.1,1.1c1.4,3.5,4.3,5,6.8,5
			c3,0,5.4-2.2,6-5c0.1-0.5,0.6-0.8,1-0.7c1.1,0.2,2.3,0.1,3.6-0.5c2.2-1,3.7-3.2,3.7-5.6c0-1.9-0.9-3.6-2.3-4.8
			c-0.4-0.4-0.4-1,0-1.4c1.3-1,2.2-2.6,2.3-4.4c0.1-2.7-1.6-5.1-4.1-6.1c-1.2-0.5-2.3-0.5-3.3-0.3c-0.5,0.1-0.9-0.2-1-0.6
			c-0.6-2.8-3.1-4.9-6-4.9c-2.5,0-5.4,1.5-6.7,5c-0.2,0.5-0.6,0.9-1.1,1.1c-1.8,0.6-3.3,1.6-4.6,2.9l0,0c-0.7,0.8-2.2,1.7-2.1,7.8
			C189.2,397.9,190.6,399.3,191.4,400.1z"/>
		<path class="st1" d="M198.4,385.8c-0.4-1.3-2-1.8-3.2-1c-0.4,0.3-0.9,0.7-1.3,1.1l-0.1,0.1c0,0-0.2,0.2-0.3,0.3
			c-0.6,0.6-0.9,2.5-0.9,5.6c0,5.2,0.9,6.1,1.3,6.5c0.3,0.3,0.9,0.7,1.4,1c1.2,0.7,2.8,0.1,3.1-1.3c0.4-1.6,0.7-3.9,0.7-6.6
			C199.1,388.9,198.8,387.1,198.4,385.8z"/>
		<circle class="st1" cx="203.8" cy="381.5" r="3.8"/>
		<circle class="st1" cx="203.9" cy="403.2" r="3.8"/>
		<circle class="st1" cx="211.7" cy="397.4" r="3.8"/>
		<circle class="st1" cx="211.6" cy="386.8" r="3.8"/>
	</g>
	<g>
		<path class="st1" d="M286,400.1L286,400.1c1.3,1.3,2.8,2.3,4.6,2.9c0.5,0.2,0.9,0.6,1.1,1.1c1.4,3.5,4.3,5,6.8,5c3,0,5.5-2.2,6-5
			c0.1-0.5,0.5-0.8,1-0.7c1.1,0.2,2.3,0.1,3.6-0.5c2.2-1,3.7-3.2,3.7-5.6c0-1.9-0.9-3.6-2.3-4.8c-0.4-0.4-0.5-1,0-1.4
			c1.3-1,2.2-2.6,2.3-4.4c0.1-2.7-1.6-5.1-4.1-6.1c-1.2-0.5-2.3-0.5-3.3-0.3c-0.5,0.1-0.9-0.2-1-0.6c-0.6-2.8-3-4.9-6-4.9
			c-2.5,0-5.4,1.5-6.7,5c-0.2,0.5-0.6,0.9-1.1,1.1c-1.8,0.6-3.3,1.6-4.6,2.9l0,0c-0.7,0.8-2.2,1.7-2.1,7.8
			C283.8,397.9,285.2,399.3,286,400.1z"/>
		<path class="st1" d="M292.9,385.8c-0.4-1.3-2-1.8-3.2-1c-0.5,0.3-0.9,0.7-1.3,1.1l0,0.1c0,0-0.2,0.2-0.3,0.3
			c-0.6,0.6-1,2.5-0.9,5.6c0,5.2,1,6.1,1.3,6.5c0.3,0.3,0.9,0.7,1.4,1c1.2,0.7,2.8,0.1,3.1-1.3c0.4-1.6,0.7-3.9,0.7-6.6
			C293.7,388.9,293.3,387.1,292.9,385.8z"/>
		<circle class="st1" cx="298.3" cy="381.5" r="3.8"/>
		<circle class="st1" cx="298.4" cy="403.2" r="3.8"/>
		<circle class="st1" cx="306.3" cy="397.4" r="3.8"/>
		<circle class="st1" cx="306.2" cy="386.8" r="3.8"/>
	</g>
	<g>
		<path class="st1" d="M144,455.7L144,455.7c1.3,1.3,2.8,2.3,4.5,2.9c0.5,0.2,0.9,0.6,1.1,1.1c1.3,3.5,4.2,5.1,6.7,5.1
			c3,0,5.5-2.1,6-4.9c0.1-0.5,0.6-0.8,1-0.7c1.1,0.2,2.3,0.2,3.6-0.4c2.2-1,3.7-3.1,3.7-5.6c0-1.9-0.9-3.6-2.3-4.8
			c-0.4-0.4-0.4-1,0-1.4c1.3-1,2.2-2.6,2.3-4.4c0.2-2.7-1.5-5.1-4-6.1c-1.2-0.5-2.3-0.5-3.3-0.3c-0.5,0.1-0.9-0.2-1-0.7
			c-0.6-2.8-3-4.9-6-5c-2.5,0-5.4,1.5-6.8,5c-0.2,0.5-0.6,0.9-1.1,1.1c-1.8,0.6-3.3,1.6-4.6,2.9l0,0c-0.8,0.8-2.2,1.7-2.2,7.8
			C141.9,453.5,143.3,454.9,144,455.7z"/>
		<path class="st1" d="M151.1,441.5c-0.4-1.3-2-1.9-3.1-1.1c-0.4,0.3-0.9,0.7-1.3,1.1l-0.1,0.1c0,0-0.2,0.2-0.3,0.3
			c-0.6,0.6-1,2.5-1,5.6c0,5.2,0.9,6.1,1.2,6.5c0.3,0.3,0.9,0.7,1.4,1.1c1.2,0.8,2.8,0.1,3.1-1.3c0.4-1.6,0.8-3.9,0.8-6.6
			C151.9,444.6,151.5,442.8,151.1,441.5z"/>
		<circle class="st1" cx="156.6" cy="437.3" r="3.8"/>
		<circle class="st1" cx="156.5" cy="459" r="3.8"/>
		<circle class="st1" cx="164.4" cy="453.2" r="3.8"/>
		<circle class="st1" cx="164.4" cy="442.6" r="3.8"/>
	</g>
	<g>
		<path class="st1" d="M238.6,455.7L238.6,455.7c1.3,1.3,2.8,2.3,4.5,2.9c0.5,0.2,0.9,0.6,1.1,1.1c1.3,3.5,4.2,5.1,6.7,5.1
			c3,0,5.5-2.1,6-4.9c0.1-0.5,0.6-0.8,1-0.7c1.1,0.2,2.3,0.2,3.6-0.4c2.2-1,3.7-3.1,3.7-5.6c0-1.9-0.9-3.6-2.3-4.8
			c-0.4-0.4-0.4-1,0-1.4c1.3-1,2.2-2.6,2.3-4.4c0.2-2.7-1.5-5.1-4-6.1c-1.2-0.5-2.3-0.5-3.3-0.3c-0.5,0.1-0.9-0.2-1-0.7
			c-0.5-2.8-3-4.9-6-5c-2.5,0-5.4,1.5-6.8,5c-0.2,0.5-0.6,0.9-1.1,1.1c-1.8,0.6-3.3,1.6-4.6,2.9l0,0c-0.8,0.8-2.2,1.7-2.2,7.8
			C236.4,453.5,237.8,454.9,238.6,455.7z"/>
		<path class="st1" d="M245.7,441.5c-0.4-1.3-2-1.9-3.1-1.1c-0.4,0.3-0.9,0.7-1.3,1.1l-0.1,0.1c0,0-0.2,0.2-0.3,0.3
			c-0.6,0.6-1,2.5-1,5.6c0,5.2,0.9,6.1,1.2,6.5c0.3,0.3,0.9,0.7,1.4,1.1c1.2,0.8,2.8,0.1,3.1-1.3c0.4-1.6,0.8-3.9,0.8-6.6
			C246.5,444.6,246.1,442.8,245.7,441.5z"/>
		<circle class="st1" cx="251.1" cy="437.3" r="3.8"/>
		<circle class="st1" cx="251" cy="459" r="3.8"/>
		<circle class="st1" cx="258.9" cy="453.2" r="3.8"/>
		<circle class="st1" cx="259" cy="442.6" r="3.8"/>
	</g>
	<g>
		<path class="st1" d="M333.2,455.7L333.2,455.7c1.3,1.3,2.8,2.3,4.5,2.9c0.5,0.2,0.9,0.6,1.1,1.1c1.3,3.5,4.2,5.1,6.7,5.1
			c3,0,5.5-2.1,6-4.9c0.1-0.5,0.6-0.8,1-0.7c1.1,0.2,2.3,0.2,3.6-0.4c2.2-1,3.7-3.1,3.7-5.6c0-1.9-0.9-3.6-2.3-4.8
			c-0.4-0.4-0.4-1,0-1.4c1.3-1,2.2-2.6,2.3-4.4c0.2-2.7-1.5-5.1-4-6.1c-1.2-0.5-2.3-0.5-3.3-0.3c-0.5,0.1-0.9-0.2-1-0.7
			c-0.5-2.8-3-4.9-6-5c-2.5,0-5.4,1.5-6.8,5c-0.2,0.5-0.6,0.9-1.1,1.1c-1.8,0.6-3.3,1.6-4.6,2.9l0,0c-0.8,0.8-2.2,1.7-2.2,7.8
			S332.4,454.9,333.2,455.7z"/>
		<path class="st1" d="M340.3,441.5c-0.4-1.3-2-1.9-3.1-1.1c-0.5,0.3-0.9,0.7-1.3,1.1l0,0.1c0,0-0.2,0.2-0.3,0.3
			c-0.6,0.6-1,2.5-1,5.6c0,5.2,0.9,6.1,1.2,6.5c0.3,0.3,0.9,0.7,1.4,1.1c1.2,0.8,2.8,0.1,3.1-1.3c0.4-1.6,0.8-3.9,0.8-6.6
			C341,444.6,340.6,442.8,340.3,441.5z"/>
		<circle class="st1" cx="345.7" cy="437.3" r="3.8"/>
		<circle class="st1" cx="345.6" cy="459" r="3.8"/>
		<circle class="st1" cx="353.5" cy="453.2" r="3.8"/>
		<circle class="st1" cx="353.5" cy="442.6" r="3.8"/>
	</g>
	<g>
		<path class="st1" d="M49.4,458L49.4,458c1.2,1.3,2.8,2.3,4.5,3c0.5,0.2,0.9,0.6,1.1,1.1c1.3,3.6,4.2,5.1,6.7,5.1
			c3,0,5.5-2.1,6-4.9c0.1-0.5,0.6-0.8,1-0.6c1.1,0.2,2.3,0.2,3.6-0.4c2.2-1,3.7-3.1,3.8-5.5c0-1.9-0.9-3.6-2.3-4.8
			c-0.4-0.4-0.4-1,0-1.4c1.3-1,2.2-2.6,2.3-4.4c0.2-2.7-1.5-5.1-4-6.1c-1.2-0.5-2.2-0.5-3.3-0.3c-0.5,0.1-0.9-0.2-1-0.7
			c-0.5-2.8-3-5-6-5c-2.5,0-5.4,1.4-6.8,4.9c-0.2,0.5-0.6,0.9-1.1,1.1c-1.8,0.6-3.3,1.6-4.6,2.9l0,0c-0.8,0.8-2.2,1.7-2.2,7.8
			C47.3,455.7,48.7,457.2,49.4,458z"/>
		<path class="st1" d="M56.6,443.8c-0.4-1.3-2-1.9-3.1-1.1c-0.5,0.3-0.9,0.7-1.3,1l0,0.1c0,0-0.2,0.2-0.3,0.3c-0.7,0.6-1,2.5-1,5.6
			c0,5.2,0.9,6.1,1.2,6.5s0.8,0.7,1.4,1.1c1.2,0.8,2.8,0.1,3.1-1.3c0.4-1.6,0.8-3.9,0.8-6.6C57.3,446.9,57,445.1,56.6,443.8z"/>
		<circle class="st1" cx="62" cy="439.6" r="3.8"/>
		<circle class="st1" cx="61.8" cy="461.3" r="3.8"/>
		<circle class="st1" cx="69.8" cy="455.6" r="3.8"/>
		<circle class="st1" cx="69.9" cy="445" r="3.8"/>
	</g>
	<g>
		<path class="st1" d="M1.9,398.8L1.9,398.8c1.2,1.4,2.7,2.4,4.5,3.1c0.5,0.2,0.9,0.6,1.1,1.1c1.2,3.6,4.1,5.2,6.6,5.3
			c3,0.1,5.5-2,6.2-4.8c0.1-0.5,0.6-0.7,1-0.6c1.1,0.3,2.3,0.2,3.6-0.3c2.2-1,3.8-3,3.9-5.5c0.1-1.9-0.8-3.7-2.1-4.8
			c-0.4-0.4-0.4-1,0-1.4c1.4-1,2.3-2.5,2.5-4.3c0.3-2.7-1.4-5.1-3.8-6.2c-1.1-0.5-2.2-0.6-3.2-0.4c-0.5,0.1-0.9-0.2-1-0.7
			c-0.5-2.8-2.9-5-5.8-5.1c-2.5-0.1-5.4,1.3-6.9,4.8c-0.2,0.5-0.6,0.9-1.2,1.1c-1.8,0.5-3.4,1.5-4.7,2.8l0,0
			c-0.8,0.7-2.2,1.6-2.4,7.7C-0.2,396.4,1.1,397.9,1.9,398.8z"/>
		<path class="st1" d="M9.4,384.8c-0.4-1.3-1.9-1.9-3.1-1.2c-0.5,0.3-0.9,0.6-1.3,1l-0.1,0c0,0-0.2,0.2-0.3,0.3
			c-0.7,0.6-1,2.5-1.2,5.6c-0.2,5.2,0.7,6.2,1,6.5s0.8,0.7,1.4,1.1c1.2,0.8,2.8,0.2,3.1-1.2c0.4-1.6,0.9-3.9,1-6.6
			C10.1,387.9,9.8,386,9.4,384.8z"/>
		<ellipse transform="matrix(1 -9.432687e-03 9.432687e-03 1 -3.5904 0.1581)" class="st1" cx="15" cy="380.7" rx="3.8" ry="3.8"/>
		<ellipse transform="matrix(1 -9.432687e-03 9.432687e-03 1 -3.7947 0.152)" class="st1" cx="14.2" cy="402.4" rx="3.8" ry="3.8"/>
		<circle class="st1" cx="22.3" cy="396.9" r="3.8"/>
		<circle class="st1" cx="22.6" cy="386.3" r="3.8"/>
	</g>
</g>
<g>
	<path class="st1" d="M263.1,64.4L263.1,64.4c-1.3,1.3-2.8,2.3-4.6,2.9c-0.5,0.2-0.9,0.6-1.1,1.1c-1.4,3.5-4.3,5-6.8,5
		c-3,0-5.4-2.2-6-5c-0.1-0.5-0.6-0.8-1-0.7c-1.1,0.2-2.3,0.2-3.6-0.5c-2.2-1.1-3.7-3.2-3.7-5.6c0-1.9,0.9-3.6,2.3-4.8
		c0.4-0.3,0.4-1,0-1.4c-1.3-1-2.2-2.6-2.3-4.4c-0.1-2.7,1.6-5.1,4.1-6.1c1.2-0.5,2.3-0.5,3.3-0.3c0.5,0.1,0.9-0.2,1-0.7
		c0.6-2.8,3.1-4.9,6-4.9c2.5,0,5.4,1.5,6.7,5c0.2,0.5,0.6,0.9,1.1,1.1c1.8,0.6,3.3,1.6,4.6,2.9l0,0c0.7,0.8,2.2,1.7,2.1,7.8
		S263.9,63.6,263.1,64.4z"/>
	<path class="st1" d="M256.2,50.1c0.4-1.3,2-1.8,3.2-1c0.5,0.3,0.9,0.7,1.3,1.1l0,0.1c0,0,0.2,0.2,0.3,0.3c0.6,0.6,1,2.5,0.9,5.6
		c0,5.2-1,6.1-1.3,6.5c-0.3,0.3-0.9,0.7-1.4,1c-1.2,0.7-2.8,0.1-3.1-1.3c-0.4-1.6-0.7-3.9-0.7-6.6C255.4,53.2,255.8,51.3,256.2,50.1
		z"/>
	<circle class="st1" cx="250.8" cy="45.8" r="3.8"/>
	<circle class="st1" cx="250.7" cy="67.5" r="3.8"/>
	<circle class="st1" cx="242.9" cy="61.7" r="3.8"/>
	<circle class="st1" cx="242.9" cy="51.1" r="3.8"/>
</g>
<g>
	<path class="st1" d="M168.6,64.4L168.6,64.4c-1.3,1.3-2.8,2.3-4.6,2.9c-0.5,0.2-0.9,0.6-1.1,1.1c-1.4,3.5-4.3,5-6.8,5
		c-3,0-5.4-2.2-6-5c-0.1-0.5-0.6-0.8-1-0.7c-1.1,0.2-2.3,0.2-3.6-0.5c-2.2-1.1-3.7-3.2-3.7-5.6c0-1.9,0.9-3.6,2.3-4.8
		c0.4-0.3,0.4-1,0-1.4c-1.3-1-2.2-2.6-2.3-4.4c-0.1-2.7,1.6-5.1,4.1-6.1c1.2-0.5,2.3-0.5,3.3-0.3c0.5,0.1,0.9-0.2,1-0.7
		c0.6-2.8,3.1-4.9,6-4.9c2.5,0,5.4,1.5,6.7,5c0.2,0.5,0.6,0.9,1.1,1.1c1.8,0.6,3.3,1.6,4.6,2.9l0,0c0.7,0.8,2.2,1.7,2.1,7.8
		S169.4,63.6,168.6,64.4z"/>
	<path class="st1" d="M161.6,50.1c0.4-1.3,2-1.8,3.2-1c0.4,0.3,0.9,0.7,1.3,1.1l0.1,0.1c0,0,0.2,0.2,0.3,0.3
		c0.6,0.6,0.9,2.5,0.9,5.6c0,5.2-0.9,6.1-1.3,6.5c-0.3,0.3-0.9,0.7-1.4,1c-1.2,0.7-2.8,0.1-3.1-1.3c-0.4-1.6-0.7-3.9-0.7-6.6
		C160.9,53.2,161.2,51.3,161.6,50.1z"/>
	<circle class="st1" cx="156.2" cy="45.8" r="3.8"/>
	<circle class="st1" cx="156.1" cy="67.5" r="3.8"/>
	<circle class="st1" cx="148.3" cy="61.7" r="3.8"/>
	<circle class="st1" cx="148.4" cy="51.1" r="3.8"/>
</g>
<path class="st1" d="M74,64.4L74,64.4c-1.3,1.3-2.8,2.3-4.6,2.9c-0.5,0.2-0.9,0.6-1.1,1.1c-1.4,3.5-4.3,5-6.8,5c-3,0-5.5-2.2-6-5
	c-0.1-0.5-0.5-0.8-1-0.7c-1.1,0.2-2.3,0.2-3.6-0.5c-2.2-1.1-3.7-3.2-3.7-5.6c0-1.9,0.9-3.6,2.3-4.8c0.4-0.3,0.5-1,0-1.4
	c-1.3-1-2.2-2.6-2.3-4.4c-0.2-2.7,1.6-5.1,4.1-6.1c1.2-0.5,2.3-0.5,3.3-0.3c0.5,0.1,0.9-0.2,1-0.7c0.6-2.8,3-4.9,6-4.9
	c2.5,0,5.4,1.5,6.7,5c0.2,0.5,0.6,0.9,1.1,1.1c1.8,0.6,3.3,1.6,4.6,2.9l0,0c0.7,0.8,2.2,1.7,2.1,7.8C76.2,62.2,74.8,63.6,74,64.4z"
	/>
<path class="st2" d="M67.1,50.1c0.4-1.3,2-1.8,3.2-1c0.4,0.3,0.9,0.7,1.3,1.1l0.1,0.1c0,0,0.2,0.2,0.3,0.3c0.6,0.6,0.9,2.5,0.9,5.6
	c0,5.2-0.9,6.1-1.3,6.5c-0.3,0.3-0.9,0.7-1.4,1c-1.2,0.7-2.8,0.1-3.1-1.3c-0.4-1.6-0.7-3.9-0.7-6.6C66.3,53.2,66.7,51.3,67.1,50.1z"
	/>
<circle class="st2" cx="61.7" cy="45.8" r="3.8"/>
<circle class="st2" cx="61.6" cy="67.5" r="3.8"/>
<circle class="st2" cx="53.7" cy="61.7" r="3.8"/>
<circle class="st2" cx="53.8" cy="51.1" r="3.8"/>
<g>
	<path class="st1" d="M216,120L216,120c-1.3,1.3-2.8,2.3-4.5,2.9c-0.5,0.2-0.9,0.6-1.1,1.1c-1.3,3.6-4.2,5.1-6.7,5.1
		c-3,0-5.5-2.1-6-4.9c-0.1-0.5-0.6-0.8-1-0.7c-1.1,0.2-2.3,0.2-3.6-0.4c-2.2-1-3.7-3.2-3.7-5.6c0-1.9,0.9-3.7,2.3-4.8
		c0.4-0.3,0.4-1,0-1.4c-1.3-1-2.2-2.6-2.3-4.4c-0.2-2.7,1.5-5.1,4-6.1c1.2-0.5,2.3-0.5,3.3-0.3c0.5,0.1,0.9-0.2,1-0.7
		c0.6-2.8,3-4.9,6-5c2.5,0,5.4,1.5,6.8,5c0.2,0.5,0.6,0.9,1.1,1.1c1.8,0.6,3.3,1.6,4.6,2.9l0,0c0.8,0.8,2.2,1.7,2.2,7.8
		C218.1,117.7,216.7,119.2,216,120z"/>
	<path class="st1" d="M208.9,105.8c0.4-1.3,2-1.8,3.1-1.1c0.4,0.3,0.9,0.7,1.3,1.1l0.1,0.1c0,0,0.2,0.2,0.3,0.3c0.6,0.6,1,2.5,1,5.6
		c0,5.2-0.9,6.1-1.2,6.5c-0.3,0.3-0.9,0.7-1.4,1.1c-1.2,0.8-2.8,0.1-3.1-1.3c-0.4-1.6-0.8-3.9-0.8-6.6
		C208.1,108.9,208.5,107,208.9,105.8z"/>
	<circle class="st1" cx="203.4" cy="101.6" r="3.8"/>
	<circle class="st1" cx="203.5" cy="123.2" r="3.8"/>
	<circle class="st1" cx="195.6" cy="117.5" r="3.8"/>
	<circle class="st1" cx="195.6" cy="106.9" r="3.8"/>
</g>
<g>
	<path class="st1" d="M121.4,120L121.4,120c-1.3,1.3-2.8,2.3-4.5,2.9c-0.5,0.2-0.9,0.6-1.1,1.1c-1.3,3.6-4.2,5.1-6.7,5.1
		c-3,0-5.5-2.1-6-4.9c-0.1-0.5-0.6-0.8-1-0.7c-1.1,0.2-2.3,0.2-3.6-0.4c-2.2-1-3.7-3.2-3.7-5.6c0-1.9,0.9-3.7,2.3-4.8
		c0.4-0.3,0.4-1,0-1.4c-1.3-1-2.2-2.6-2.3-4.4c-0.2-2.7,1.5-5.1,4-6.1c1.2-0.5,2.3-0.5,3.3-0.3c0.5,0.1,0.9-0.2,1-0.7
		c0.6-2.8,3-4.9,6-5c2.5,0,5.4,1.5,6.8,5c0.2,0.5,0.6,0.9,1.1,1.1c1.8,0.6,3.3,1.6,4.6,2.9l0,0c0.8,0.8,2.2,1.7,2.2,7.8
		C123.6,117.7,122.2,119.2,121.4,120z"/>
	<path class="st2" d="M114.3,105.8c0.4-1.3,2-1.8,3.1-1.1c0.4,0.3,0.9,0.7,1.3,1.1l0.1,0.1c0,0,0.2,0.2,0.3,0.3c0.6,0.6,1,2.5,1,5.6
		c0,5.2-0.9,6.1-1.2,6.5c-0.3,0.3-0.8,0.7-1.4,1.1c-1.2,0.8-2.8,0.1-3.1-1.3c-0.4-1.6-0.8-3.9-0.8-6.6
		C113.5,108.9,113.9,107,114.3,105.8z"/>
	<circle class="st2" cx="108.9" cy="101.6" r="3.8"/>
	<circle class="st2" cx="109" cy="123.2" r="3.8"/>
	<circle class="st2" cx="101.1" cy="117.5" r="3.8"/>
	<circle class="st2" cx="101" cy="106.9" r="3.8"/>
</g>
<g>
	<path class="st1" d="M168.4,64.3L168.4,64.3c-1.3,1.3-2.8,2.3-4.5,2.9c-0.5,0.2-0.9,0.6-1.1,1.1c-1.3,3.6-4.2,5.1-6.7,5.1
		c-3,0-5.5-2.1-6-4.9c-0.1-0.5-0.6-0.8-1-0.7c-1.1,0.2-2.3,0.2-3.6-0.4c-2.2-1-3.7-3.2-3.7-5.6c0-1.9,0.9-3.7,2.3-4.8
		c0.4-0.3,0.4-1,0-1.4c-1.3-1-2.2-2.6-2.3-4.4c-0.2-2.7,1.5-5.1,4-6.1c1.2-0.5,2.3-0.5,3.3-0.3c0.5,0.1,0.9-0.2,1-0.7
		c0.6-2.8,3-4.9,6-5c2.5,0,5.4,1.5,6.8,5c0.2,0.5,0.6,0.9,1.1,1.1c1.8,0.6,3.3,1.6,4.6,2.9l0,0c0.8,0.8,2.2,1.7,2.2,7.8
		C170.5,62,169.2,63.5,168.4,64.3z"/>
	<path class="st2" d="M161.3,50c0.4-1.3,2-1.8,3.1-1.1c0.4,0.3,0.9,0.7,1.3,1.1l0.1,0.1c0,0,0.2,0.2,0.3,0.3c0.6,0.6,1,2.5,1,5.6
		c0,5.2-0.9,6.1-1.2,6.5c-0.3,0.3-0.8,0.7-1.4,1.1c-1.2,0.7-2.8,0.1-3.1-1.3c-0.4-1.6-0.8-3.9-0.8-6.6
		C160.5,53.2,160.9,51.3,161.3,50z"/>
	<circle class="st2" cx="155.9" cy="45.8" r="3.8"/>
	<circle class="st2" cx="156" cy="67.5" r="3.8"/>
	<circle class="st2" cx="148.1" cy="61.8" r="3.8"/>
	<circle class="st2" cx="148" cy="51.2" r="3.8"/>
</g>
<g>
	<path class="st1" d="M215.8,119.9L215.8,119.9c-1.3,1.3-2.8,2.3-4.5,2.9c-0.5,0.2-0.9,0.6-1.1,1.1c-1.3,3.6-4.2,5.1-6.7,5.1
		c-3,0-5.5-2.1-6-4.9c-0.1-0.5-0.6-0.8-1-0.7c-1.1,0.2-2.3,0.2-3.6-0.4c-2.2-1-3.7-3.2-3.7-5.6c0-1.9,0.9-3.7,2.3-4.8
		c0.4-0.3,0.4-1,0-1.4c-1.3-1-2.2-2.6-2.3-4.4c-0.2-2.7,1.5-5.1,4-6.1c1.2-0.5,2.3-0.5,3.3-0.3c0.5,0.1,0.9-0.2,1-0.7
		c0.6-2.8,3-4.9,6-5c2.5,0,5.4,1.5,6.8,5c0.2,0.5,0.6,0.9,1.1,1.1c1.8,0.6,3.3,1.6,4.6,2.9l0,0c0.8,0.8,2.2,1.7,2.2,7.8
		C218,117.6,216.6,119.1,215.8,119.9z"/>
	<path class="st2" d="M208.7,105.7c0.4-1.3,2-1.8,3.1-1.1c0.4,0.3,0.9,0.7,1.3,1.1l0.1,0.1c0,0,0.2,0.2,0.3,0.3c0.6,0.6,1,2.5,1,5.6
		c0,5.2-0.9,6.1-1.2,6.5c-0.3,0.3-0.8,0.7-1.4,1.1c-1.2,0.8-2.8,0.1-3.1-1.3c-0.4-1.6-0.8-3.9-0.8-6.6
		C208,108.8,208.3,106.9,208.7,105.7z"/>
	<circle class="st2" cx="203.3" cy="101.5" r="3.8"/>
	<circle class="st2" cx="203.4" cy="123.1" r="3.8"/>
	<circle class="st2" cx="195.5" cy="117.4" r="3.8"/>
	<circle class="st2" cx="195.4" cy="106.8" r="3.8"/>
</g>
<g>
	<path class="st1" d="M263.3,64.3L263.3,64.3c-1.3,1.3-2.8,2.3-4.5,2.9c-0.5,0.2-0.9,0.6-1.1,1.1c-1.3,3.6-4.2,5.1-6.7,5.1
		c-3,0-5.5-2.1-6-4.9c-0.1-0.5-0.6-0.8-1-0.7c-1.1,0.2-2.3,0.2-3.6-0.4c-2.2-1-3.7-3.2-3.7-5.6c0-1.9,0.9-3.7,2.3-4.8
		c0.4-0.3,0.4-1,0-1.4c-1.3-1-2.2-2.6-2.3-4.4c-0.2-2.7,1.5-5.1,4-6.1c1.2-0.5,2.3-0.5,3.3-0.3c0.5,0.1,0.9-0.2,1-0.7
		c0.6-2.8,3-4.9,6-5c2.5,0,5.4,1.5,6.8,5c0.2,0.5,0.6,0.9,1.1,1.1c1.8,0.6,3.3,1.6,4.6,2.9l0,0c0.8,0.8,2.2,1.7,2.2,7.8
		C265.4,62,264,63.5,263.3,64.3z"/>
	<path class="st2" d="M256.2,50.1c0.4-1.3,2-1.8,3.1-1.1c0.5,0.3,0.9,0.7,1.3,1.1l0.1,0.1c0,0,0.2,0.2,0.3,0.3c0.6,0.6,1,2.5,1,5.6
		c0,5.2-0.9,6.1-1.2,6.5c-0.3,0.3-0.9,0.7-1.4,1.1c-1.2,0.8-2.8,0.1-3.1-1.3c-0.4-1.6-0.8-3.9-0.8-6.6
		C255.4,53.2,255.8,51.3,256.2,50.1z"/>
	<circle class="st2" cx="250.7" cy="45.8" r="3.8"/>
	<circle class="st2" cx="250.8" cy="67.5" r="3.8"/>
	<circle class="st2" cx="242.9" cy="61.8" r="3.8"/>
	<circle class="st2" cx="242.9" cy="51.2" r="3.8"/>
</g>
<g>
	<path class="st1" d="M26.8,120L26.8,120c-1.3,1.3-2.8,2.3-4.5,2.9c-0.5,0.2-0.9,0.6-1.1,1.1c-1.3,3.6-4.2,5.1-6.7,5.1
		c-3,0-5.5-2.1-6-4.9c-0.1-0.5-0.6-0.8-1-0.7c-1.1,0.2-2.3,0.2-3.6-0.4c-2.2-1-3.7-3.2-3.7-5.6c0-1.9,0.9-3.7,2.3-4.8
		c0.4-0.3,0.4-1,0-1.4c-1.3-1-2.2-2.6-2.3-4.4c-0.2-2.7,1.5-5.1,4-6.1c1.2-0.5,2.3-0.5,3.3-0.3c0.5,0.1,0.9-0.2,1-0.7
		c0.6-2.8,3-4.9,6-5c2.5,0,5.4,1.5,6.8,5c0.2,0.5,0.6,0.9,1.1,1.1c1.8,0.6,3.3,1.6,4.6,2.9l0,0c0.8,0.8,2.2,1.7,2.2,7.8
		C29,117.7,27.6,119.2,26.8,120z"/>
	<path class="st2" d="M19.7,105.8c0.4-1.3,2-1.8,3.1-1.1c0.5,0.3,0.9,0.7,1.3,1.1l0,0.1c0,0,0.2,0.2,0.3,0.3c0.6,0.6,1,2.5,1,5.6
		c0,5.2-0.9,6.1-1.2,6.5c-0.3,0.3-0.9,0.7-1.4,1.1c-1.2,0.8-2.8,0.1-3.1-1.3c-0.4-1.6-0.8-3.9-0.8-6.6C19,108.9,19.4,107,19.7,105.8
		z"/>
	<circle class="st2" cx="14.3" cy="101.6" r="3.8"/>
	<circle class="st2" cx="14.4" cy="123.2" r="3.8"/>
	<circle class="st2" cx="6.5" cy="117.5" r="3.8"/>
	<circle class="st2" cx="6.5" cy="106.9" r="3.8"/>
</g>
<g>
	<path class="st1" d="M310.6,122.3L310.6,122.3c-1.2,1.3-2.8,2.3-4.5,3c-0.5,0.2-0.9,0.6-1.1,1.1c-1.3,3.6-4.2,5.1-6.7,5.1
		c-3,0-5.5-2.1-6-4.9c-0.1-0.5-0.6-0.8-1-0.7c-1.1,0.2-2.3,0.2-3.6-0.4c-2.2-1-3.7-3.1-3.8-5.6c0-1.9,0.9-3.7,2.3-4.8
		c0.4-0.4,0.4-1,0-1.4c-1.3-1-2.2-2.6-2.4-4.4c-0.2-2.7,1.5-5.1,4-6.1c1.2-0.5,2.2-0.5,3.3-0.3c0.5,0.1,0.9-0.2,1-0.7
		c0.5-2.8,3-4.9,6-5c2.5,0,5.4,1.4,6.8,4.9c0.2,0.5,0.6,0.9,1.1,1.1c1.8,0.6,3.3,1.6,4.6,2.9l0,0c0.8,0.8,2.2,1.7,2.2,7.8
		S311.3,121.4,310.6,122.3z"/>
	<path class="st1" d="M303.4,108.1c0.4-1.3,2-1.9,3.1-1.1c0.5,0.3,0.9,0.7,1.3,1.1l0,0.1c0,0,0.2,0.2,0.3,0.3c0.6,0.6,1,2.5,1,5.6
		c0,5.2-0.9,6.1-1.2,6.5c-0.3,0.3-0.9,0.7-1.4,1.1c-1.2,0.8-2.8,0.1-3.1-1.3c-0.4-1.6-0.8-3.9-0.8-6.6
		C302.7,111.2,303,109.3,303.4,108.1z"/>
	<circle class="st1" cx="298" cy="103.9" r="3.8"/>
	<circle class="st1" cx="298.1" cy="125.5" r="3.8"/>
	<circle class="st1" cx="290.2" cy="119.8" r="3.8"/>
	<circle class="st1" cx="290.1" cy="109.2" r="3.8"/>
</g>
<g>
	<path class="st1" d="M358.1,63L358.1,63c-1.2,1.3-2.7,2.4-4.5,3.1c-0.5,0.2-0.9,0.6-1.1,1.2c-1.2,3.6-4.1,5.2-6.6,5.3
		c-3,0.1-5.5-1.9-6.2-4.8c-0.1-0.5-0.6-0.7-1-0.6c-1.1,0.3-2.3,0.2-3.6-0.3c-2.2-1-3.8-3-3.9-5.5c-0.1-1.9,0.8-3.7,2.1-4.8
		c0.4-0.4,0.4-1,0-1.4c-1.4-1-2.3-2.5-2.5-4.3c-0.3-2.7,1.4-5.1,3.8-6.2c1.1-0.5,2.2-0.6,3.2-0.4c0.5,0.1,0.9-0.2,1-0.7
		c0.5-2.8,2.9-5,5.8-5.1c2.5-0.1,5.4,1.3,6.9,4.8c0.2,0.5,0.6,0.9,1.2,1.1c1.8,0.5,3.4,1.5,4.7,2.8l0,0c0.8,0.7,2.2,1.7,2.4,7.7
		C360.2,60.7,358.9,62.2,358.1,63z"/>
	<path class="st1" d="M350.6,49c0.4-1.3,2-1.9,3.1-1.2c0.5,0.3,0.9,0.6,1.3,1l0,0c0,0,0.2,0.2,0.3,0.3c0.7,0.6,1,2.5,1.2,5.6
		c0.2,5.2-0.7,6.2-1,6.5c-0.3,0.3-0.8,0.7-1.4,1.1c-1.2,0.8-2.8,0.2-3.1-1.2c-0.4-1.6-0.9-3.9-1-6.6C349.9,52.2,350.2,50.3,350.6,49
		z"/>
	<circle class="st1" cx="345" cy="45" r="3.8"/>
	<circle class="st1" cx="345.8" cy="66.6" r="3.8"/>
	<circle class="st1" cx="337.7" cy="61.1" r="3.8"/>
	<circle class="st1" cx="337.4" cy="50.5" r="3.8"/>
</g>
<g>
	<path class="st1" d="M357.7,63.2L357.7,63.2c-1.3,1.3-2.8,2.3-4.5,2.9c-0.5,0.2-0.9,0.6-1.1,1.1c-1.3,3.6-4.2,5.1-6.7,5.1
		c-3,0-5.5-2.1-6-4.9c-0.1-0.5-0.6-0.8-1-0.7c-1.1,0.2-2.3,0.2-3.6-0.4c-2.2-1-3.7-3.1-3.7-5.6c0-1.9,0.9-3.7,2.3-4.8
		c0.4-0.3,0.4-1,0-1.4c-1.3-1-2.2-2.6-2.3-4.4c-0.2-2.7,1.5-5.1,4-6.1c1.2-0.5,2.3-0.5,3.3-0.3c0.5,0.1,0.9-0.2,1-0.7
		c0.5-2.8,3-4.9,6-5c2.5,0,5.4,1.5,6.8,5c0.2,0.5,0.6,0.9,1.1,1.1c1.8,0.6,3.3,1.6,4.6,2.9l0,0c0.8,0.8,2.2,1.7,2.2,7.8
		C359.9,60.9,358.5,62.3,357.7,63.2z"/>
	<path class="st2" d="M350.6,48.9c0.4-1.3,2-1.8,3.1-1.1c0.4,0.3,0.9,0.7,1.3,1.1l0.1,0.1c0,0,0.2,0.2,0.3,0.3c0.6,0.6,1,2.5,1,5.6
		c0,5.2-0.9,6.1-1.2,6.5c-0.3,0.3-0.8,0.7-1.4,1.1c-1.2,0.8-2.8,0.1-3.1-1.3c-0.4-1.6-0.8-3.9-0.8-6.6
		C349.8,52,350.2,50.2,350.6,48.9z"/>
	<circle class="st2" cx="345.2" cy="44.7" r="3.8"/>
	<circle class="st2" cx="345.3" cy="66.4" r="3.8"/>
	<circle class="st2" cx="337.4" cy="60.7" r="3.8"/>
	<circle class="st2" cx="337.3" cy="50.1" r="3.8"/>
</g>
<g>
	<path class="st1" d="M310.6,122.5L310.6,122.5c-1.3,1.3-2.8,2.3-4.5,2.9c-0.5,0.2-0.9,0.6-1.1,1.1c-1.3,3.5-4.2,5.1-6.7,5.1
		c-3,0-5.5-2.1-6-4.9c-0.1-0.5-0.6-0.8-1-0.7c-1.1,0.2-2.3,0.2-3.6-0.4c-2.2-1-3.7-3.2-3.7-5.6c0-1.9,0.9-3.7,2.3-4.8
		c0.4-0.3,0.4-1,0-1.4c-1.3-1-2.2-2.6-2.3-4.4c-0.2-2.7,1.5-5.1,4-6.1c1.2-0.5,2.3-0.5,3.3-0.3c0.5,0.1,0.9-0.2,1-0.7
		c0.5-2.8,3-4.9,6-5c2.5,0,5.4,1.5,6.8,5c0.2,0.5,0.6,0.9,1.1,1.1c1.8,0.6,3.3,1.6,4.6,2.9l0,0c0.8,0.8,2.2,1.7,2.2,7.8
		C312.8,120.2,311.4,121.6,310.6,122.5z"/>
	<path class="st2" d="M303.5,108.2c0.4-1.3,2-1.8,3.1-1.1c0.4,0.3,0.9,0.7,1.3,1.1l0,0.1c0,0,0.2,0.2,0.3,0.3c0.6,0.6,1,2.5,1,5.6
		c0,5.2-0.9,6.1-1.2,6.5c-0.3,0.3-0.9,0.7-1.4,1.1c-1.2,0.8-2.8,0.1-3.1-1.3c-0.4-1.6-0.8-3.9-0.8-6.6
		C302.8,111.3,303.1,109.5,303.5,108.2z"/>
	<circle class="st2" cx="298.1" cy="104" r="3.8"/>
	<circle class="st2" cx="298.2" cy="125.7" r="3.8"/>
	<circle class="st2" cx="290.3" cy="120" r="3.8"/>
	<circle class="st2" cx="290.2" cy="109.4" r="3.8"/>
</g>
<g>
	<path class="st1" d="M94.6,391.7c0-6,1.4-7,2.1-7.8l0,0c1.2-1.3,2.8-2.3,4.6-2.9c0.5-0.2,0.9-0.6,1.1-1.1c1.3-3.5,4.2-5,6.7-5
		c3,0,5.4,2.1,6,4.9c0.1,0.5,0.6,0.8,1,0.6c1-0.2,2.1-0.2,3.3,0.3c2.5,1,4.2,3.4,4.1,6.1c-0.1,1.8-1,3.4-2.3,4.4
		c-0.4,0.4-0.4,1,0,1.4c1.4,1.1,2.3,2.8,2.3,4.8c0,2.4-1.5,4.5-3.7,5.6c-1.3,0.6-2.5,0.7-3.6,0.5c-0.5-0.1-0.9,0.2-1,0.7
		c-0.5,2.8-3,5-6,5c-2.5,0-5.4-1.5-6.8-5c-0.2-0.5-0.6-0.9-1.1-1.1c-1.8-0.6-3.3-1.6-4.6-2.9l0,0C96,399.2,94.7,397.8,94.6,391.7z"
		/>
	<path class="st1" d="M104.5,391.3c0,2.7-0.4,5-0.7,6.6c-0.3,1.4-1.9,2-3.1,1.3c-0.6-0.3-1.1-0.7-1.4-1.1c-0.3-0.3-1.2-1.3-1.3-6.5
		c0-3.1,0.3-5,0.9-5.6c0.1-0.1,0.3-0.3,0.3-0.3l0-0.1c0.4-0.4,0.8-0.8,1.3-1.1c1.1-0.8,2.7-0.3,3.2,1
		C104.2,387,104.5,388.8,104.5,391.3z"/>
	<circle class="st1" cx="109.1" cy="381.4" r="3.8"/>
	<circle class="st1" cx="109.3" cy="403.1" r="3.8"/>
	<circle class="st1" cx="117.1" cy="397.3" r="3.8"/>
	<circle class="st1" cx="117" cy="386.7" r="3.8"/>
</g>
<g>
	<path class="st1" d="M189.2,391.7c0-6,1.4-7,2.1-7.8l0,0c1.2-1.3,2.8-2.3,4.6-2.9c0.5-0.2,0.9-0.6,1.1-1.1c1.3-3.5,4.2-5,6.7-5
		c3,0,5.4,2.1,6,4.9c0.1,0.5,0.6,0.8,1,0.6c1-0.2,2.1-0.2,3.3,0.3c2.5,1,4.2,3.4,4.1,6.1c-0.1,1.8-1,3.4-2.3,4.4
		c-0.4,0.4-0.4,1,0,1.4c1.4,1.1,2.3,2.8,2.3,4.8c0,2.4-1.5,4.5-3.7,5.6c-1.3,0.6-2.5,0.7-3.6,0.5c-0.5-0.1-0.9,0.2-1,0.7
		c-0.5,2.8-3,5-6,5c-2.5,0-5.4-1.5-6.8-5c-0.2-0.5-0.6-0.9-1.1-1.1c-1.8-0.6-3.3-1.6-4.6-2.9l0,0
		C190.6,399.2,189.2,397.8,189.2,391.7z"/>
	<path class="st1" d="M199.1,391.3c0,2.7-0.4,5-0.7,6.6c-0.3,1.4-1.9,2-3.1,1.3c-0.6-0.3-1.1-0.7-1.4-1.1c-0.3-0.3-1.2-1.3-1.3-6.5
		c0-3.1,0.3-5,0.9-5.6c0.1-0.1,0.3-0.3,0.3-0.3l0.1-0.1c0.4-0.4,0.8-0.8,1.3-1.1c1.1-0.8,2.7-0.3,3.2,1
		C198.7,387,199.1,388.8,199.1,391.3z"/>
	<circle class="st1" cx="203.7" cy="381.4" r="3.8"/>
	<circle class="st1" cx="203.8" cy="403.1" r="3.8"/>
	<circle class="st1" cx="211.7" cy="397.3" r="3.8"/>
	<circle class="st1" cx="211.6" cy="386.7" r="3.8"/>
</g>
<path class="st1" d="M283.7,391.7c0-6,1.4-7,2.1-7.8l0,0c1.2-1.3,2.8-2.3,4.6-2.9c0.5-0.2,0.9-0.6,1.1-1.1c1.3-3.5,4.2-5,6.7-5
	c3,0,5.4,2.1,6,4.9c0.1,0.5,0.6,0.8,1,0.6c1-0.2,2.1-0.2,3.3,0.3c2.5,1,4.2,3.4,4.1,6.1c-0.1,1.8-1,3.4-2.3,4.4
	c-0.4,0.4-0.4,1,0,1.4c1.4,1.1,2.3,2.8,2.3,4.8c0,2.4-1.5,4.5-3.7,5.6c-1.3,0.6-2.5,0.7-3.6,0.5c-0.5-0.1-0.9,0.2-1,0.7
	c-0.5,2.8-3,5-6,5c-2.5,0-5.4-1.5-6.8-5c-0.2-0.5-0.6-0.9-1.1-1.1c-1.8-0.6-3.3-1.6-4.6-2.9l0,0
	C285.1,399.2,283.7,397.8,283.7,391.7z"/>
<path class="st2" d="M293.7,391.3c0,2.7-0.4,5-0.7,6.6c-0.3,1.4-1.9,2-3.1,1.3c-0.6-0.3-1.1-0.7-1.4-1.1c-0.3-0.3-1.2-1.3-1.3-6.5
	c0-3.1,0.3-5,0.9-5.6c0.1-0.1,0.3-0.3,0.3-0.3l0-0.1c0.4-0.4,0.8-0.8,1.3-1.1c1.1-0.8,2.7-0.3,3.2,1
	C293.3,387,293.7,388.8,293.7,391.3z"/>
<circle class="st2" cx="298.3" cy="381.4" r="3.8"/>
<circle class="st2" cx="298.4" cy="403.1" r="3.8"/>
<circle class="st2" cx="306.2" cy="397.3" r="3.8"/>
<circle class="st2" cx="306.2" cy="386.7" r="3.8"/>
<g>
	<path class="st1" d="M141.9,447.3c0-6,1.5-7,2.2-7.8l0,0c1.3-1.3,2.8-2.3,4.6-2.9c0.5-0.2,0.9-0.6,1.1-1.1c1.4-3.5,4.3-5,6.8-5
		c3,0,5.4,2.1,6,5c0.1,0.5,0.6,0.8,1,0.7c1-0.2,2.1-0.2,3.3,0.3c2.5,1,4.2,3.4,4,6.1c-0.1,1.8-1,3.3-2.3,4.4c-0.4,0.4-0.4,1,0,1.4
		c1.4,1.1,2.3,2.8,2.3,4.8c0,2.4-1.6,4.5-3.7,5.6c-1.3,0.6-2.5,0.7-3.6,0.4c-0.5-0.1-0.9,0.2-1,0.7c-0.6,2.8-3,5-6,4.9
		c-2.5,0-5.4-1.5-6.7-5.1c-0.2-0.5-0.6-0.9-1.1-1.1c-1.7-0.6-3.3-1.6-4.5-2.9l0,0C143.2,454.8,141.8,453.4,141.9,447.3z"/>
	<path class="st1" d="M151.8,447c0,2.7-0.4,5-0.8,6.6c-0.3,1.4-1.9,2-3.1,1.3c-0.6-0.4-1.1-0.7-1.4-1.1c-0.3-0.3-1.2-1.3-1.2-6.5
		c0-3.1,0.4-5,1-5.6c0.1-0.1,0.3-0.3,0.3-0.3l0.1-0.1c0.4-0.4,0.8-0.8,1.3-1.1c1.1-0.8,2.7-0.3,3.1,1.1
		C151.5,442.7,151.9,444.5,151.8,447z"/>
	<circle class="st1" cx="156.5" cy="437.2" r="3.8"/>
	<circle class="st1" cx="156.4" cy="458.9" r="3.8"/>
	<circle class="st1" cx="164.3" cy="453.1" r="3.8"/>
	<circle class="st1" cx="164.4" cy="442.5" r="3.8"/>
</g>
<g>
	<path class="st1" d="M236.4,447.3c0-6,1.5-7,2.2-7.8l0,0c1.3-1.3,2.8-2.3,4.6-2.9c0.5-0.2,0.9-0.6,1.1-1.1c1.4-3.5,4.3-5,6.8-5
		c3,0,5.4,2.1,6,5c0.1,0.5,0.5,0.8,1,0.7c1-0.2,2.1-0.2,3.3,0.3c2.5,1,4.2,3.4,4,6.1c-0.1,1.8-1,3.3-2.3,4.4c-0.5,0.4-0.5,1,0,1.4
		c1.4,1.1,2.3,2.8,2.3,4.8c0,2.4-1.6,4.5-3.7,5.6c-1.3,0.6-2.5,0.7-3.6,0.4c-0.5-0.1-0.9,0.2-1,0.7c-0.6,2.8-3.1,5-6,4.9
		c-2.5,0-5.4-1.5-6.7-5.1c-0.2-0.5-0.6-0.9-1.1-1.1c-1.7-0.6-3.3-1.6-4.5-2.9l0,0C237.8,454.8,236.4,453.4,236.4,447.3z"/>
	<path class="st2" d="M246.4,447c0,2.7-0.4,5-0.8,6.6c-0.3,1.4-1.9,2-3.1,1.3c-0.6-0.4-1.1-0.7-1.4-1.1c-0.3-0.3-1.2-1.3-1.2-6.5
		c0-3.1,0.4-5,1-5.6c0.1-0.1,0.3-0.3,0.3-0.3l0.1-0.1c0.4-0.4,0.8-0.8,1.3-1.1c1.1-0.8,2.7-0.3,3.1,1.1
		C246,442.7,246.4,444.5,246.4,447z"/>
	<circle class="st2" cx="251.1" cy="437.2" r="3.8"/>
	<circle class="st2" cx="251" cy="458.9" r="3.8"/>
	<circle class="st2" cx="258.9" cy="453.1" r="3.8"/>
	<circle class="st2" cx="258.9" cy="442.5" r="3.8"/>
</g>
<g>
	<path class="st1" d="M189.4,391.6c0-6.1,1.5-7,2.2-7.8l0,0c1.3-1.3,2.8-2.3,4.6-2.9c0.5-0.2,0.9-0.6,1.1-1.1c1.4-3.5,4.3-5,6.8-5
		c3,0,5.4,2.1,6,5c0.1,0.5,0.5,0.8,1,0.7c1-0.2,2.1-0.2,3.3,0.3c2.5,1,4.2,3.4,4,6.1c-0.1,1.8-1,3.3-2.3,4.4c-0.4,0.4-0.4,1,0,1.4
		c1.4,1.1,2.3,2.8,2.3,4.8c0,2.4-1.5,4.5-3.7,5.6c-1.3,0.6-2.5,0.7-3.6,0.4c-0.5-0.1-0.9,0.2-1,0.7c-0.6,2.8-3.1,5-6,4.9
		c-2.5,0-5.4-1.5-6.7-5.1c-0.2-0.5-0.6-0.9-1.1-1.1c-1.7-0.6-3.3-1.6-4.5-2.9l0,0C190.8,399.1,189.4,397.6,189.4,391.6z"/>
	<path class="st2" d="M199.4,391.3c0,2.7-0.4,5-0.8,6.6c-0.3,1.4-1.9,2-3.1,1.3c-0.6-0.4-1.1-0.7-1.4-1.1c-0.3-0.3-1.2-1.3-1.2-6.5
		c0-3.1,0.4-5,1-5.6c0.1-0.1,0.3-0.3,0.3-0.3l0.1-0.1c0.4-0.4,0.8-0.8,1.3-1.1c1.1-0.8,2.7-0.3,3.1,1.1
		C199,386.9,199.4,388.8,199.4,391.3z"/>
	<circle class="st2" cx="204.1" cy="381.5" r="3.8"/>
	<circle class="st2" cx="204" cy="403.1" r="3.8"/>
	<circle class="st2" cx="211.9" cy="397.4" r="3.8"/>
	<circle class="st2" cx="211.9" cy="386.8" r="3.8"/>
</g>
<g>
	<path class="st1" d="M142,447.2c0-6,1.5-7,2.2-7.8l0,0c1.3-1.3,2.8-2.3,4.6-2.9c0.5-0.2,0.9-0.6,1.1-1.1c1.4-3.5,4.3-5,6.8-5
		c3,0,5.4,2.1,6,5c0.1,0.5,0.5,0.8,1,0.7c1-0.2,2.1-0.2,3.3,0.3c2.5,1,4.2,3.4,4,6.1c-0.1,1.8-1,3.3-2.3,4.4c-0.4,0.4-0.4,1,0,1.4
		c1.4,1.1,2.3,2.8,2.3,4.8c0,2.4-1.5,4.5-3.7,5.6c-1.3,0.6-2.5,0.7-3.6,0.4c-0.5-0.1-0.9,0.2-1,0.7c-0.6,2.8-3.1,5-6,4.9
		c-2.5,0-5.4-1.5-6.7-5.1c-0.2-0.5-0.6-0.9-1.1-1.1c-1.7-0.6-3.3-1.6-4.5-2.9l0,0C143.3,454.7,142,453.3,142,447.2z"/>
	<path class="st2" d="M152,446.9c0,2.7-0.4,5-0.8,6.6c-0.3,1.4-1.9,2-3.1,1.3c-0.6-0.4-1.1-0.7-1.4-1.1c-0.3-0.3-1.2-1.3-1.2-6.5
		c0-3.1,0.4-5,1-5.6c0.1-0.1,0.3-0.3,0.3-0.3l0.1-0.1c0.4-0.4,0.8-0.8,1.3-1.1c1.1-0.8,2.7-0.3,3.1,1.1
		C151.6,442.6,152,444.4,152,446.9z"/>
	<circle class="st2" cx="156.7" cy="437.1" r="3.8"/>
	<circle class="st2" cx="156.5" cy="458.8" r="3.8"/>
	<circle class="st2" cx="164.4" cy="453" r="3.8"/>
	<circle class="st2" cx="164.5" cy="442.4" r="3.8"/>
</g>
<g>
	<path class="st1" d="M94.6,391.6c0-6.1,1.5-7,2.2-7.8l0,0c1.3-1.3,2.8-2.3,4.6-2.9c0.5-0.2,0.9-0.6,1.1-1.1c1.4-3.5,4.3-5,6.8-5
		c3,0,5.4,2.1,6,5c0.1,0.5,0.5,0.8,1,0.7c1-0.2,2.1-0.2,3.3,0.3c2.5,1,4.2,3.4,4,6.1c-0.1,1.8-1,3.3-2.3,4.4c-0.5,0.4-0.5,1,0,1.4
		c1.4,1.1,2.3,2.8,2.3,4.8c0,2.4-1.5,4.5-3.7,5.6c-1.3,0.6-2.5,0.7-3.6,0.4c-0.5-0.1-0.9,0.2-1,0.7c-0.6,2.8-3.1,5-6,4.9
		c-2.5,0-5.4-1.5-6.7-5.1c-0.2-0.5-0.6-0.9-1.1-1.1c-1.7-0.6-3.3-1.6-4.5-2.9l0,0C95.9,399.1,94.5,397.7,94.6,391.6z"/>
	<path class="st2" d="M104.5,391.3c0,2.7-0.4,5-0.8,6.6c-0.3,1.4-1.9,2-3.1,1.3c-0.6-0.4-1.1-0.7-1.4-1.1c-0.3-0.3-1.2-1.3-1.2-6.5
		c0-3.1,0.4-5,1-5.6c0.1-0.1,0.3-0.3,0.3-0.3l0.1-0.1c0.4-0.4,0.8-0.8,1.3-1.1c1.1-0.8,2.7-0.3,3.1,1.1
		C104.2,387,104.6,388.8,104.5,391.3z"/>
	<circle class="st2" cx="109.2" cy="381.5" r="3.8"/>
	<circle class="st2" cx="109.1" cy="403.1" r="3.8"/>
	<circle class="st2" cx="117" cy="397.4" r="3.8"/>
	<circle class="st2" cx="117.1" cy="386.8" r="3.8"/>
</g>
<g>
	<path class="st1" d="M331,447.3c0-6,1.5-7,2.2-7.8l0,0c1.3-1.3,2.8-2.3,4.6-2.9c0.5-0.2,0.9-0.6,1.1-1.1c1.4-3.5,4.3-5,6.8-5
		c3,0,5.4,2.1,6,5c0.1,0.5,0.5,0.8,1,0.7c1-0.2,2.1-0.2,3.3,0.3c2.5,1,4.2,3.4,4,6.1c-0.1,1.8-1,3.3-2.3,4.4c-0.5,0.4-0.5,1,0,1.4
		c1.4,1.1,2.3,2.8,2.3,4.8c0,2.4-1.6,4.5-3.7,5.6c-1.3,0.6-2.5,0.7-3.6,0.4c-0.5-0.1-0.9,0.2-1,0.7c-0.6,2.8-3,5-6,4.9
		c-2.5,0-5.4-1.5-6.7-5.1c-0.2-0.5-0.6-0.9-1.1-1.1c-1.7-0.6-3.3-1.6-4.5-2.9l0,0C332.3,454.8,331,453.4,331,447.3z"/>
	<path class="st2" d="M341,447c0,2.7-0.4,5-0.8,6.6c-0.3,1.4-1.9,2-3.1,1.3c-0.6-0.4-1.1-0.7-1.4-1.1c-0.3-0.3-1.2-1.3-1.2-6.5
		c0-3.1,0.4-5,1-5.6c0.1-0.1,0.3-0.3,0.3-0.3l0.1-0.1c0.4-0.4,0.8-0.8,1.3-1.1c1.1-0.8,2.7-0.3,3.1,1.1
		C340.6,442.7,341,444.5,341,447z"/>
	<circle class="st2" cx="345.7" cy="437.2" r="3.8"/>
	<circle class="st2" cx="345.5" cy="458.9" r="3.8"/>
	<circle class="st2" cx="353.4" cy="453.1" r="3.8"/>
	<circle class="st2" cx="353.5" cy="442.5" r="3.8"/>
</g>
<g>
	<path class="st1" d="M47.3,449.6c0.1-6.1,1.5-7,2.2-7.8l0,0c1.3-1.3,2.8-2.3,4.6-2.9c0.5-0.2,0.9-0.6,1.1-1.1
		c1.4-3.5,4.3-5,6.8-4.9c3,0,5.4,2.2,6,5c0.1,0.5,0.5,0.8,1,0.7c1-0.2,2.1-0.2,3.3,0.3c2.5,1,4.2,3.5,4,6.1c-0.1,1.8-1,3.3-2.4,4.4
		c-0.4,0.4-0.5,1,0,1.4c1.4,1.1,2.3,2.9,2.3,4.8c0,2.4-1.6,4.5-3.8,5.6c-1.3,0.6-2.5,0.7-3.6,0.4c-0.5-0.1-0.9,0.2-1,0.7
		c-0.6,2.8-3.1,4.9-6,4.9c-2.5,0-5.4-1.5-6.7-5.1c-0.2-0.5-0.6-0.9-1.1-1.1c-1.7-0.6-3.3-1.6-4.5-2.9l0,0
		C48.6,457.1,47.3,455.6,47.3,449.6z"/>
	<path class="st1" d="M57.3,449.3c0,2.7-0.4,5-0.8,6.6c-0.3,1.4-1.9,2-3.1,1.3c-0.6-0.4-1.1-0.7-1.4-1.1s-1.2-1.3-1.2-6.5
		c0-3.1,0.4-5,1-5.6c0.1-0.1,0.3-0.3,0.3-0.3l0-0.1c0.4-0.4,0.8-0.7,1.3-1c1.2-0.8,2.7-0.2,3.1,1.1C56.9,445,57.3,446.8,57.3,449.3z
		"/>
	<circle class="st1" cx="62" cy="439.5" r="3.8"/>
	
		<ellipse transform="matrix(0.9951 -9.853744e-02 9.853744e-02 0.9951 -45.1417 8.3341)" class="st1" cx="61.8" cy="461.2" rx="3.8" ry="3.8"/>
	<circle class="st1" cx="69.7" cy="455.5" r="3.8"/>
	<circle class="st1" cx="69.8" cy="444.9" r="3.8"/>
</g>
<g>
	<path class="st1" d="M0,390.3c0.2-6,1.7-7,2.4-7.7l0,0c1.3-1.3,2.9-2.2,4.7-2.8c0.5-0.2,0.9-0.5,1.2-1.1c1.5-3.5,4.4-4.9,6.9-4.8
		c3,0.1,5.4,2.3,5.8,5.1c0.1,0.5,0.5,0.8,1,0.7c1-0.2,2.1-0.1,3.2,0.4c2.4,1.1,4.1,3.6,3.8,6.2c-0.2,1.8-1.1,3.3-2.5,4.3
		c-0.5,0.3-0.5,1,0,1.4c1.4,1.2,2.2,2.9,2.1,4.8c-0.1,2.4-1.7,4.5-3.9,5.4c-1.3,0.6-2.5,0.6-3.6,0.3c-0.5-0.1-0.9,0.2-1,0.6
		c-0.6,2.8-3.2,4.9-6.2,4.8c-2.5-0.1-5.4-1.7-6.6-5.3c-0.2-0.5-0.6-1-1.1-1.2c-1.7-0.7-3.2-1.7-4.5-3.1l0,0
		C1.1,397.8-0.2,396.3,0,390.3z"/>
	<path class="st1" d="M10,390.2c-0.1,2.6-0.5,4.9-1,6.6c-0.4,1.4-1.9,2-3.1,1.2c-0.6-0.4-1.1-0.8-1.4-1.1c-0.3-0.4-1.2-1.3-1-6.5
		c0.1-3.1,0.5-5,1.2-5.6c0.1-0.1,0.3-0.3,0.3-0.3l0,0c0.4-0.4,0.8-0.7,1.3-1c1.2-0.8,2.7-0.2,3.1,1.2C9.7,385.9,10,387.8,10,390.2z"
		/>
	<circle class="st1" cx="14.9" cy="380.6" r="3.8"/>
	<circle class="st1" cx="14.2" cy="402.3" r="3.8"/>
	<circle class="st1" cx="22.2" cy="396.8" r="3.8"/>
	<circle class="st1" cx="22.6" cy="386.2" r="3.8"/>
</g>
<g>
	<path class="st1" d="M0.1,390.5c0-6.1,1.5-7,2.2-7.8l0,0c1.3-1.3,2.8-2.3,4.6-2.9c0.5-0.2,0.9-0.6,1.1-1.1c1.4-3.5,4.3-5,6.8-5
		c3,0,5.4,2.1,6,5c0.1,0.5,0.5,0.8,1,0.7c1-0.2,2.1-0.2,3.3,0.3c2.5,1,4.2,3.4,4,6.1c-0.1,1.8-1,3.3-2.3,4.4c-0.5,0.4-0.5,1,0,1.4
		c1.4,1.1,2.3,2.8,2.3,4.8c0,2.4-1.5,4.5-3.7,5.6c-1.3,0.6-2.5,0.7-3.6,0.4c-0.5-0.1-0.9,0.2-1,0.7c-0.6,2.8-3.1,5-6,4.9
		c-2.5,0-5.4-1.5-6.7-5.1c-0.2-0.5-0.6-0.9-1.1-1.1c-1.7-0.6-3.3-1.6-4.5-2.9l0,0C1.5,398,0.1,396.5,0.1,390.5z"/>
	<path class="st2" d="M10.1,390.1c0,2.7-0.4,5-0.8,6.6c-0.3,1.4-1.9,2-3.1,1.3c-0.6-0.4-1.1-0.7-1.4-1.1c-0.3-0.3-1.2-1.3-1.2-6.5
		c0-3.1,0.4-5,1-5.6c0.1-0.1,0.3-0.3,0.3-0.3l0.1-0.1c0.4-0.4,0.8-0.8,1.3-1.1c1.1-0.8,2.7-0.3,3.1,1.1
		C9.7,385.8,10.1,387.7,10.1,390.1z"/>
	<circle class="st2" cx="14.8" cy="380.3" r="3.8"/>
	<circle class="st2" cx="14.7" cy="402" r="3.8"/>
	<circle class="st2" cx="22.6" cy="396.3" r="3.8"/>
	<circle class="st2" cx="22.6" cy="385.7" r="3.8"/>
</g>
<g>
	<path class="st1" d="M47.2,449.8c0-6,1.5-7,2.2-7.8l0,0c1.3-1.3,2.8-2.3,4.6-2.9c0.5-0.2,0.9-0.6,1.1-1.1c1.4-3.5,4.3-5,6.8-5
		c3,0,5.4,2.2,6,5c0.1,0.5,0.5,0.8,1,0.7c1-0.2,2.1-0.2,3.3,0.3c2.5,1,4.2,3.4,4,6.1c-0.1,1.8-1,3.3-2.3,4.4c-0.5,0.4-0.5,1,0,1.4
		c1.4,1.1,2.3,2.8,2.3,4.8c0,2.4-1.5,4.5-3.7,5.6c-1.3,0.6-2.5,0.7-3.6,0.4c-0.5-0.1-0.9,0.2-1,0.7c-0.6,2.8-3.1,5-6,4.9
		c-2.5,0-5.4-1.5-6.7-5.1c-0.2-0.5-0.6-0.9-1.1-1.1c-1.7-0.6-3.3-1.6-4.5-2.9l0,0C48.6,457.3,47.2,455.8,47.2,449.8z"/>
	<path class="st2" d="M57.2,449.4c0,2.7-0.4,5-0.8,6.6c-0.3,1.4-1.9,2-3.1,1.3c-0.6-0.4-1.1-0.7-1.4-1.1c-0.3-0.3-1.2-1.3-1.2-6.5
		c0-3.1,0.4-5,1-5.6c0.1-0.1,0.3-0.3,0.3-0.3l0.1-0.1c0.4-0.4,0.8-0.8,1.3-1.1c1.1-0.8,2.7-0.3,3.1,1.1
		C56.8,445.1,57.2,447,57.2,449.4z"/>
	<circle class="st2" cx="61.9" cy="439.6" r="3.8"/>
	<circle class="st2" cx="61.8" cy="461.3" r="3.8"/>
	<circle class="st2" cx="69.7" cy="455.6" r="3.8"/>
	<circle class="st2" cx="69.7" cy="445" r="3.8"/>
</g>
</svg>
