<?xml version="1.0" encoding="utf-8"?>
<!-- Generator: Adobe Illustrator 27.2.0, SVG Export Plug-In . SVG Version: 6.00 Build 0)  -->
<svg version="1.1" id="Layer_1" xmlns="http://www.w3.org/2000/svg" xmlns:xlink="http://www.w3.org/1999/xlink" x="0px" y="0px"
	 viewBox="0 0 360 504" style="enable-background:new 0 0 360 504;" xml:space="preserve">
<style type="text/css">
	.st0{fill:#878ACC;}
	.st1{fill:#F4A864;}
	.st2{fill:#F4BD87;}
	.st3{fill:#F7C49A;}
	.st4{fill:#5299FF;}
	.st5{fill:#563215;}
	.st6{fill:#347BE2;}
	.st7{fill:#9BD1F9;}
	.st8{fill:#ABD1FF;}
	.st9{fill:#FFEFDC;}
	.st10{fill:#F9C0CF;}
	.st11{fill:#6D4A54;}
	.st12{fill:#FFD2A9;}
	.st13{fill:#EFB66A;}
	.st14{fill:#67675F;}
	.st15{fill:#FFC799;}
	.st16{fill:#F4E876;}
	.st17{fill:none;}
	.st18{fill:#E1E3FF;}
	.st19{font-family:'CoconPro-Regular';}
	.st20{font-size:48px;}
</style>
<g id="Layer_2_00000120529998506879775230000000311876729772468139_">
	<path class="st0" d="M324.5,503.5H35.5c-19.4,0-35-15.7-35-35V35.5c0-19.4,15.7-35,35-35h288.9c19.4,0,35,15.7,35,35v432.9
		C359.5,487.8,343.8,503.5,324.5,503.5z"/>
</g>
<g id="Layer_1_00000051347056079161014670000007726383148724762804_">
	<g>
		<path class="st1" d="M175.1,340c-42.9,0-75.1-30.1-75.6-34.4l-8.9-72.8h168.8l-8.9,72.8C249.9,310,218,340,175.1,340z"/>
		<path class="st2" d="M175,184.7c-46.7,0-84.6,21.1-84.6,47.2S128.3,279,175,279c46.7,0,84.6-21.1,84.6-47.2S221.7,184.7,175,184.7
			z M175,194.3c35.5,0,75,15.4,75,37.6c0,1.4-0.2,2.7-0.5,4c-4.4,20-41.2,33.5-74.5,33.5c-33.2,0-70.1-13.5-74.5-33.5
			c-0.3-1.3-0.5-2.7-0.5-4C100,209.7,139.5,194.3,175,194.3z"/>
		<path class="st3" d="M175,184.7c-46.7,0-84.6,21.1-84.6,47.2S128.3,279,175,279c46.7,0,84.6-21.1,84.6-47.2S221.7,184.7,175,184.7
			z M175,194.3c35.5,0,75,15.4,75,37.6c0,1.4-0.2,2.7-0.5,4c-4.4,20-41.2,33.5-74.5,33.5c-33.2,0-70.1-13.5-74.5-33.5
			c-0.3-1.3-0.5-2.7-0.5-4C100,209.7,139.5,194.3,175,194.3z"/>
		<path class="st4" d="M249.5,235.9c-4.4,20-41.2,33.5-74.5,33.5c-33.2,0-70.1-13.5-74.5-33.5c4.4-20,41.3-33.5,74.5-33.5
			C208.2,202.4,245.1,215.9,249.5,235.9z"/>
		<path class="st5" d="M250,231.9c0,1.4-0.2,2.7-0.5,4c-12.4-16.4-41.2-27.1-74.5-27.1c-33.2,0-61.1,8-74.5,27.1
			c-0.3-1.3-0.5-2.7-0.5-4c0-22.1,39.5-37.6,75-37.6C210.4,194.3,250,209.7,250,231.9z"/>
		<g>
			<g>
				<path class="st6" d="M115.4,231.5c3.2,2.2,8.7,5.2,11.5,0.9c0.7-1.1,1.1-2.4,1.5-3.7c0-0.1,0.1-0.3,0.2-0.4c0.1-0.2-0.2,0.4,0,0
					c0.1-0.2,0.3-0.5,0.4-0.7c-0.3,0.4-0.2,0.2,0,0c0.3-0.3-0.3,0.2,0,0c0.3-0.2-0.4,0.1,0,0c0.4-0.1-0.4,0,0,0c0.1,0,0.1,0,0.2,0
					c0.2,0-0.4-0.2-0.1,0c0.1,0.1,0.4,0.1,0.5,0.2c-0.5-0.2,0.1,0.1,0.3,0.1c0.2,0.1,0.4,0.2,0.6,0.4c0.6,0.4,0.8,0.5,1.4,1.1
					c0.7,0.6,1.4,1.3,2,1.9c1.5,1.5,3.8-0.8,2.3-2.3c-2.2-2.2-7.3-7.4-10-2.9c-0.7,1.1-1,2.4-1.4,3.5c-0.2,0.5,0.1-0.2-0.1,0.1
					c-0.1,0.1-0.1,0.2-0.2,0.4c-0.1,0.1-0.1,0.3-0.2,0.4c-0.1,0.1-0.4,0.5-0.1,0.1c-0.1,0.1-0.2,0.2-0.3,0.3c0,0-0.1,0.1-0.1,0.1
					c-0.2,0.2,0.3-0.2,0.1-0.1c-0.1,0.1-0.2,0.1-0.3,0.2c-0.2,0.2,0.4-0.1,0.1,0c-0.1,0-0.2,0.1-0.3,0.1c-0.4,0.1,0.2,0-0.2,0
					c-0.2,0-0.4,0-0.6,0c-0.4,0,0.4,0.1,0,0c-0.2,0-0.3-0.1-0.5-0.1c-0.3-0.1-0.5-0.1-0.8-0.2c-0.1,0-0.3-0.1-0.4-0.2
					c-0.2-0.1,0,0-0.3-0.1c-0.4-0.2-0.7-0.3-1.1-0.5c-0.8-0.5-1.6-1-2.4-1.5C115.3,227.6,113.7,230.4,115.4,231.5L115.4,231.5z"/>
			</g>
		</g>
		<g>
			<g>
				<path class="st6" d="M136.8,255.8c2.5,1.7,6.5,3.7,8.7,0.4c0.5-0.8,0.8-1.8,1.1-2.7c0-0.1,0.1-0.2,0.1-0.3
					c0.1-0.2-0.2,0.5,0,0.1c0.1-0.1,0.3-0.4,0.3-0.5c0,0.2-0.3,0.4-0.1,0.1c0.3-0.2-0.3,0.2-0.1,0.1c0.3-0.2-0.4,0.1-0.2,0.1
					c0.4-0.1-0.4,0.1-0.1,0c0,0,0.1,0,0.1,0c0.2,0-0.5-0.1-0.2,0c0,0,0.4,0.1,0.4,0.1c0,0.1-0.4-0.2-0.2-0.1c0.1,0,0.2,0.1,0.3,0.1
					c0.1,0.1,0.3,0.2,0.4,0.3c0.1,0,0.2,0.1,0.2,0.2c0.4,0.3-0.1-0.1,0.1,0.1c0.2,0.2,0.4,0.3,0.5,0.5c0.5,0.4,0.9,0.9,1.4,1.3
					c1.5,1.5,3.8-0.8,2.3-2.3c-1.8-1.8-5.6-5.4-7.7-1.9c-0.5,0.8-0.7,1.7-1,2.6c-0.1,0.4,0.2-0.3,0,0c0,0.1-0.1,0.2-0.1,0.3
					c0,0.1-0.1,0.2-0.2,0.3c0,0,0,0.1-0.1,0.1c-0.2,0.3-0.1-0.1,0.1-0.1c0,0-0.2,0.2-0.2,0.2c-0.2,0.3,0.1-0.1,0.1,0
					c-0.1,0-0.2,0.1-0.2,0.1c-0.2,0.1,0.4-0.1,0.2-0.1c-0.1,0-0.2,0-0.2,0.1c-0.4,0.1,0.3,0,0,0c-0.1,0-0.3,0-0.4,0
					c-0.3,0,0.4,0.1,0.1,0c-0.1,0-0.2,0-0.3-0.1c-0.2,0-0.4-0.1-0.5-0.2c-0.1,0-0.2-0.1-0.3-0.1c-0.3-0.1,0.3,0.1-0.1,0
					c-0.2-0.1-0.5-0.2-0.7-0.4c-0.6-0.3-1.1-0.7-1.7-1c-0.7-0.5-1.8-0.1-2.2,0.6C135.8,254.4,136.1,255.3,136.8,255.8L136.8,255.8z"
					/>
			</g>
		</g>
		<g>
			<g>
				<path class="st6" d="M217.2,229.7c2.6,1.7,6.7,3.8,8.9,0.4c0.5-0.8,0.8-1.8,1.1-2.7c0-0.1,0.1-0.2,0.1-0.3
					c0.1-0.2-0.2,0.5,0,0.1c0-0.1,0.3-0.4,0.3-0.5c0,0.2-0.3,0.4-0.1,0.1c0.3-0.3-0.3,0.2-0.1,0.1c0.3-0.2-0.4,0.1-0.1,0
					c0.4-0.1-0.4,0-0.1,0c0.4,0-0.2-0.1-0.1,0c0,0,0.4,0.1,0.4,0.1c0,0.1-0.4-0.2-0.2-0.1c0.1,0,0.2,0.1,0.3,0.1
					c0.1,0.1,0.3,0.2,0.4,0.3c0.1,0,0.2,0.1,0.2,0.2c0.4,0.3-0.1-0.1,0.1,0.1c0.2,0.2,0.4,0.3,0.6,0.5c0.5,0.4,1,0.9,1.4,1.4
					c1.5,1.5,3.8-0.8,2.3-2.3c-1.8-1.8-5.7-5.5-7.9-2c-0.5,0.8-0.7,1.8-1.1,2.6c-0.2,0.4,0.2-0.3,0,0c0,0.1-0.1,0.2-0.1,0.3
					c0,0.1-0.1,0.2-0.2,0.3c0,0,0,0.1-0.1,0.1c-0.2,0.3-0.1-0.1,0.1-0.1c0,0-0.2,0.2-0.2,0.2c-0.2,0.3,0.1,0,0,0
					c-0.1,0-0.2,0.1-0.2,0.1c-0.2,0.1,0.4-0.1,0.2-0.1c-0.1,0-0.2,0-0.2,0.1c-0.4,0.1,0.3,0,0,0c-0.1,0-0.3,0-0.4,0
					c-0.3,0,0.4,0.1,0.1,0c-0.1,0-0.2,0-0.3-0.1c-0.2,0-0.4-0.1-0.5-0.2c-0.1,0-0.2-0.1-0.3-0.1c-0.3-0.1,0.3,0.1-0.1,0
					c-0.3-0.1-0.5-0.2-0.7-0.4c-0.6-0.3-1.2-0.7-1.7-1.1c-0.7-0.5-1.8-0.1-2.2,0.6C216.1,228.3,216.4,229.2,217.2,229.7L217.2,229.7
					z"/>
			</g>
		</g>
		<g>
			<g>
				<path class="st6" d="M222.6,247.9c-0.6,0.4-1.2,0.8-1.8,1.1c-0.3,0.2-0.6,0.3-0.9,0.5c-0.1,0-0.2,0.1-0.3,0.1
					c-0.1,0-0.2,0.1-0.3,0.1c0.2-0.1,0.2-0.1,0,0c-0.4,0.2-0.8,0.3-1.2,0.4c-0.1,0-0.2,0-0.3,0c0.5-0.1,0.2,0,0.1,0
					c-0.2,0-0.4,0-0.6,0c-0.3,0,0.3,0.1,0.2,0c-0.1,0-0.1,0-0.2,0c-0.2-0.1-0.4-0.3-0.1,0c-0.1-0.1-0.2-0.1-0.3-0.2
					c-0.3-0.1,0.3,0.3,0,0c-0.1-0.1-0.2-0.2-0.3-0.3c0.4,0.3,0.1,0.2,0,0c-0.1-0.2-0.3-0.5-0.4-0.7c-0.2-0.4,0.1,0.4,0,0
					c0-0.1-0.1-0.2-0.1-0.4c-0.1-0.3-0.2-0.5-0.3-0.8c-0.2-0.6-0.4-1.1-0.7-1.7c-0.7-1.4-2-2.1-3.5-1.8c-2.2,0.4-4.1,2.5-5.6,4
					c-1.5,1.5,0.8,3.8,2.3,2.3c0.5-0.5,1-1,1.5-1.4c0.2-0.2,0.5-0.4,0.7-0.6c0.1-0.1,0.1-0.1,0.2-0.2c0.2-0.2-0.2,0.1,0.2-0.1
					c0.3-0.2,0.6-0.4,1-0.6c0,0,0.1,0,0.2-0.1c0.2-0.2-0.4,0.1-0.1,0c0.1,0,0.3-0.1,0.4-0.1c0.2-0.1-0.4,0-0.2,0c0,0,0.1,0,0.2,0
					c0.4,0-0.5-0.1-0.1,0c0.4,0.1-0.3-0.2-0.1,0c0.3,0.2-0.3-0.3,0,0c0.2,0.2,0.1,0.3,0-0.1c0,0.1,0.1,0.2,0.2,0.3
					c0,0.1,0.1,0.2,0.1,0.3c0,0,0,0.1,0.1,0.2c0.1,0.2-0.1-0.4-0.1-0.1c0.8,2.5,1.8,5.4,4.8,5.6c2.5,0.2,4.9-1.4,6.9-2.7
					C225.9,249.5,224.3,246.7,222.6,247.9L222.6,247.9z"/>
			</g>
		</g>
		<g>
			<path class="st7" d="M124,149.8c-10.1,1.6-11.5,3-13.1,13.1c-1.6-10.1-3-11.5-13.1-13.1c10.1-1.6,11.5-3,13.1-13.1
				C112.5,146.9,113.8,148.2,124,149.8z"/>
		</g>
		<g>
			<path class="st7" d="M100,186c-5.1,0.8-5.7,1.5-6.5,6.5c-0.8-5.1-1.5-5.7-6.5-6.5c5.1-0.8,5.7-1.5,6.5-6.5
				C94.2,184.5,94.9,185.2,100,186z"/>
		</g>
		<g>
			<path class="st7" d="M273.1,183.3c-8.4,1.4-9.5,2.5-10.9,10.9c-1.4-8.4-2.5-9.5-10.9-10.9c8.4-1.4,9.5-2.5,10.9-10.9
				C263.6,180.8,264.7,182,273.1,183.3z"/>
		</g>
		<g>
			<path class="st7" d="M248.2,147.2c-6.7,1.1-7.6,2-8.7,8.7c-1.1-6.7-2-7.6-8.7-8.7c6.7-1.1,7.6-2,8.7-8.7
				C240.5,145.2,241.4,146.1,248.2,147.2z"/>
		</g>
		<path class="st8" d="M153.9,239.2c2.5,1.7-0.9,1,2.5,4.4c2.7,2.7,3.5,2.7,5.4,2.7c2.7,0,5.3,1.3,8,2.7c5.4,2.7,4.2,0,10.1,0
			s3.3-2.7,6-2.7c3.8,0,4.1-2.3,5.4-2.7c0,0,6.8-0.2,6.1-1.4c-3.4-3.9,1.1-4.8-1.1-7c-2.2-2.2-3.2-2.2-4.8-2.2h-9.4
			c-1,0-1.9,0.2-2.7,0.6l-1.8,0.9c-1.5,0.7-3.1,0.8-4.7,0.3l-5.2-1.7c-0.3-0.1-0.5-0.2-0.8-0.3l-2.2-1.1c-1.7-0.9-3.8-0.9-5.5,0
			c0,0,0.8,1-2.3,1.1C153.7,232.9,151.5,237.5,153.9,239.2z"/>
		<g>
			<g>
				<path class="st9" d="M163.7,171.9c0,0-2.3,2.3-6,4.2c0,0,0,0.1-0.1,0.1c-4.2,2.1-10.1,3.4-16.1-0.5c-1.1-0.7-1.9-1.8-2.5-3.2
					c-4.2-9.5,1.1-33.1,4.2-44.9c0.6-2.2,3.7-2.3,4.5-0.2l11.3,31.6l0.9,2.6c0.1,0.3,0.2,0.6,0.3,0.9L163.7,171.9z"/>
				<path class="st10" d="M149.8,173.5c-2,0-3.8-0.6-5.5-1.7c-3.2-2.1-2.5-15.7,1-32.1c0.2-1,1.6-1.1,1.9-0.1l11.1,31
					C156.2,171.8,153.1,173.5,149.8,173.5L149.8,173.5z"/>
				<path class="st9" d="M210.8,172.4c-0.6,1.4-1.4,2.5-2.5,3.2c-11,7.4-22.1-3.7-22.1-3.7l1.2-3.4l3.4-9.6l11.3-31.6
					c0.7-2.2,3.8-2.1,4.4,0.2C209.8,139.3,215.1,162.9,210.8,172.4z"/>
				<path class="st10" d="M200.2,173.5c-3.3,0-6.5-1.7-8.4-3.1l11.1-31c0.3-1,1.7-0.9,1.9,0.1c3.5,16.4,4.1,30,1,32.1
					C204,172.9,202.2,173.5,200.2,173.5z"/>
			</g>
			<path class="st9" d="M217.3,190.5c0-6.7-2.3-12.9-6.5-18.1c-0.6,1.4-1.4,2.5-2.5,3.2c-11,7.4-22.1-3.7-22.1-3.7l1.2-3.4
				c-0.5-1.8-0.5-3.4-0.5-4c0-2.3,0.7-4.5,1.9-6.3c-4.3-1.2-9-1.9-13.8-1.9c-5.6,0-11,0.9-15.9,2.5l0.9,2.6c0.1,0.3,0.2,0.6,0.3,0.9
				l3.4,9.5c0,0-2.3,2.3-6,4.2c0,0,0,0.1-0.1,0.1c-1.9,1.8-4.9,3-9.8,3c-4.1,0-7.7-1.9-10.1-4.9c-3.2,4.8-5.1,10.3-5.1,16.2
				c0,15.9,3.3,29.2,26.8,33.1l-1.5,14c-0.2,2.2,9.7,6.6,16,6.6c8.3,0,19.4-4.6,19.2-6.7l-1.5-14.1
				C214.1,219.4,217.3,206.2,217.3,190.5z M147,201.9c-0.3,0-0.5,0-0.7,0c-4.5,0-8.1-1.4-8.1-3.2c0-1.8,3.7-3.2,8.1-3.2
				c4.5,0,8.1,1.5,8.1,3.2C154.4,200.4,151.1,201.8,147,201.9z M201.7,201.7L201.7,201.7c-2.9-0.5-5-1.6-5-3c0-1.8,3.7-3.2,8.1-3.2
				c4.5,0,8.1,1.5,8.1,3.2c0,1.8-3.7,3.2-8.1,3.2C203.7,201.9,202.6,201.8,201.7,201.7z"/>
			<path class="st9" d="M154.4,198.7c0,1.7-3.2,3.1-7.4,3.2c-0.3,0-0.5,0-0.7,0c-4.5,0-8.1-1.4-8.1-3.2c0-1.8,3.7-3.2,8.1-3.2
				C150.7,195.4,154.4,196.9,154.4,198.7z"/>
			<path class="st9" d="M163.7,171.9c0,0-2.3,2.3-6,4.2c0,0,0,0.1-0.1,0.1c-1.9,1.8-4.9,3-9.8,3c-4.1,0-7.7-1.9-10.1-4.9
				c0.4-0.6,0.9-1.3,1.4-1.9c1-1.4,2.2-2.7,3.5-3.9c3.4-3.2,7.5-5.9,12-7.9c1.3-0.6,2.6-1.1,4-1.6c0.1,0,0.2-0.1,0.4-0.1l0.9,2.6
				c0.1,0.3,0.2,0.6,0.3,0.9L163.7,171.9z"/>
			<path class="st9" d="M210.8,172.4c-0.6,1.4-1.4,2.5-2.5,3.2c-11,7.4-22.1-3.7-22.1-3.7l1.2-3.4c-0.5-1.8-0.5-3.4-0.5-4
				c0-2.3,0.7-4.5,1.9-6.3c0.7,0.2,1.4,0.4,2.1,0.6c1.5,0.5,3,1,4.4,1.7c4.6,2,8.7,4.7,12,8c0.4,0.4,0.8,0.7,1.2,1.1
				C209.3,170.6,210.1,171.5,210.8,172.4z"/>
			<path class="st9" d="M213,198.7c0,1.8-3.7,3.2-8.1,3.2c-1.1,0-2.2-0.1-3.2-0.3h0c-2.9-0.5-4.9-1.6-4.9-3c0-1.8,3.7-3.2,8.1-3.2
				C209.3,195.4,213,196.9,213,198.7z"/>
			<g>
				<g>
					<g>
						<path class="st11" d="M152.1,183.4c1.8,2.7,5.3,4.3,8.5,3.3c1.7-0.5,3.2-1.6,4.4-2.9c0.8-0.7,0.8-2.1,0-2.9
							c-0.8-0.7-2.1-0.8-2.9,0c-0.3,0.3-0.7,0.7-1.1,1c0.4-0.3-0.2,0.1-0.2,0.2c-0.1,0.1-0.3,0.2-0.4,0.2c-0.2,0.1-0.3,0.2-0.5,0.3
							c-0.1,0-0.2,0.1-0.2,0.1c-0.2,0.1-0.2,0.1,0.1,0c-0.1,0-0.7,0.2-0.8,0.2c-0.2,0-0.7,0,0,0c-0.1,0-0.3,0-0.4,0
							c-0.2,0-0.5,0-0.7,0c0.6,0,0.3,0,0.1,0c-0.1,0-0.2,0-0.4-0.1c-0.1,0-0.2-0.1-0.3-0.1c-0.4-0.1,0.2,0.1,0.1,0
							c-0.4-0.2-0.7-0.4-1.1-0.6c-0.3-0.2,0.4,0.3,0.1,0.1c-0.1-0.1-0.1-0.1-0.2-0.2c-0.1-0.1-0.2-0.2-0.4-0.3
							c-0.2-0.2-0.3-0.4-0.5-0.5c-0.2-0.2,0.4,0.5,0.2,0.2c0,0,0,0,0-0.1c-0.6-0.9-1.8-1.3-2.8-0.7
							C151.9,181.2,151.4,182.5,152.1,183.4L152.1,183.4z"/>
					</g>
				</g>
				<g>
					<g>
						<path class="st11" d="M184.6,183.4c1.8,2.7,5.3,4.3,8.5,3.3c1.7-0.5,3.2-1.6,4.4-2.9c0.8-0.7,0.8-2.1,0-2.9
							c-0.8-0.7-2.1-0.8-2.9,0c-0.3,0.3-0.7,0.7-1.1,1c0.4-0.3-0.2,0.1-0.2,0.2c-0.1,0.1-0.3,0.2-0.4,0.2c-0.2,0.1-0.3,0.2-0.5,0.3
							c-0.1,0-0.2,0.1-0.2,0.1c-0.2,0.1-0.2,0.1,0.1,0c-0.1,0-0.7,0.2-0.8,0.2c-0.2,0-0.7,0,0,0c-0.1,0-0.3,0-0.4,0
							c-0.2,0-0.5,0-0.7,0c0.6,0,0.3,0,0.1,0c-0.1,0-0.2,0-0.4-0.1c-0.1,0-0.2-0.1-0.3-0.1c-0.4-0.1,0.2,0.1,0.1,0
							c-0.4-0.2-0.7-0.4-1.1-0.6c-0.3-0.2,0.4,0.3,0.1,0.1c-0.1-0.1-0.1-0.1-0.2-0.2c-0.1-0.1-0.2-0.2-0.4-0.3
							c-0.2-0.2-0.3-0.4-0.5-0.5c-0.2-0.2,0.4,0.5,0.2,0.2c0,0,0,0,0-0.1c-0.6-0.9-1.8-1.3-2.8-0.7
							C184.5,181.2,184,182.5,184.6,183.4L184.6,183.4z"/>
					</g>
				</g>
				<g>
					<g>
						<path class="st11" d="M181.5,199.9c-0.2,0-0.5,0-0.7,0c-0.1,0-0.3,0-0.4,0c-0.2,0-0.7-0.2,0,0c-0.3-0.1-0.7-0.1-1-0.2
							c-0.2,0-0.3-0.1-0.5-0.2c-0.2-0.1,0.4,0.2,0.2,0.1c-0.1,0-0.2-0.1-0.3-0.1c-0.2-0.1-0.3-0.2-0.5-0.3c-0.3-0.2,0.3,0.3,0.1,0
							c-0.1-0.1-0.2-0.1-0.2-0.2c-0.1-0.1-0.4-0.3-0.4-0.4c0.2,0.2,0.2,0.3,0.1,0.2c0,0-0.1-0.1-0.1-0.2c-0.1-0.1-0.1-0.2-0.2-0.3
							c0-0.1-0.1-0.2-0.1-0.3c-0.1-0.2,0.1,0.4,0,0c-0.1-0.3-0.2-0.5-0.2-0.8c0-0.1,0-0.3-0.1-0.4c-0.1-0.5,0,0.3,0-0.2
							c0-0.4,0-0.8-0.1-1.2c0-1.1-0.9-2.1-2-2c-1.1,0-2,0.9-2,2c0,0.4,0,0.7,0,1.1c0,0.1,0,0.2,0,0.3c0-0.2,0-0.3,0-0.1
							c0,0.1,0,0.3-0.1,0.4c-0.1,0.3-0.1,0.5-0.2,0.8c-0.1,0.3-0.1,0.2,0,0c-0.1,0.1-0.1,0.2-0.2,0.4s-0.1,0.2-0.2,0.3
							c0,0,0,0.1-0.1,0.1c-0.1,0.1-0.1,0.1,0,0c0.1-0.1,0.1-0.1,0,0c0,0,0,0.1-0.1,0.1c-0.1,0.1-0.2,0.2-0.2,0.2
							c-0.1,0.1-0.1,0.1-0.2,0.2c-0.3,0.3,0.2-0.1,0.1,0c-0.2,0.1-0.3,0.2-0.5,0.3c-0.1,0-0.2,0.1-0.2,0.1c-0.3,0.2,0.1-0.1,0.2-0.1
							c-0.1,0-0.5,0.2-0.6,0.2c-0.3,0.1-0.7,0.1-1,0.2c0.1,0,0.6-0.1,0.2,0c-0.1,0-0.1,0-0.2,0c-0.1,0-0.3,0-0.4,0
							c-0.2,0-0.5,0-0.7,0c-1.1,0-2.1,0.9-2,2c0,1.1,0.9,2,2,2c1.7,0,3.5-0.2,5-1.1c2.6-1.6,3.5-4.5,3.6-7.4c-1.3,0-2.7,0-4,0
							c0,2.9,1,5.8,3.6,7.4c1.5,0.9,3.3,1.1,5,1.1c1.1,0,2.1-0.9,2-2C183.5,200.9,182.6,199.9,181.5,199.9L181.5,199.9z"/>
					</g>
				</g>
			</g>
			<path class="st12" d="M154.4,198.7c0,1.7-3.2,3.1-7.4,3.2c-0.3,0-0.5,0-0.7,0c-4.5,0-8.1-1.4-8.1-3.2c0-1.8,3.7-3.2,8.1-3.2
				C150.7,195.4,154.4,196.9,154.4,198.7z"/>
			<path class="st12" d="M213,198.7c0,1.8-3.7,3.2-8.1,3.2c-1.1,0-2.2-0.1-3.2-0.3h0c-2.9-0.5-4.9-1.6-4.9-3c0-1.8,3.7-3.2,8.1-3.2
				C209.3,195.4,213,196.9,213,198.7z"/>
			<g>
				<g>
					<g>
						<path class="st11" d="M137.4,193c3.5,0.7,7,1.5,10.4,2.2c0.5,0.1,1,0.2,1.5,0.3c1,0.2,1.5-1.3,0.4-1.6
							c-3.5-0.7-7-1.5-10.4-2.2c-0.5-0.1-1-0.2-1.5-0.3C136.8,191.2,136.4,192.7,137.4,193L137.4,193z"/>
					</g>
				</g>
				<g>
					<g>
						<path class="st11" d="M139.3,198.9c1.7,0,3.3,0,5,0c0.2,0,0.5,0,0.7,0c0.4,0,0.8-0.4,0.8-0.8c0-0.4-0.4-0.8-0.8-0.8
							c-1.7,0-3.3,0-5,0c-0.2,0-0.5,0-0.7,0c-0.4,0-0.8,0.4-0.8,0.8C138.5,198.5,138.8,198.9,139.3,198.9L139.3,198.9z"/>
					</g>
				</g>
				<g>
					<g>
						<path class="st11" d="M142.2,205.6c2.1-1.2,4.1-2.4,6.2-3.5c0.3-0.2,0.6-0.3,0.9-0.5c0.9-0.5,0.1-1.9-0.8-1.4
							c-2.1,1.2-4.1,2.4-6.2,3.5c-0.3,0.2-0.6,0.3-0.9,0.5C140.5,204.7,141.3,206.1,142.2,205.6L142.2,205.6z"/>
					</g>
				</g>
			</g>
			<g>
				<g>
					<g>
						<path class="st11" d="M211.2,191.4c-3.5,0.7-7,1.5-10.4,2.2c-0.5,0.1-1,0.2-1.5,0.3c-1,0.2-0.6,1.8,0.4,1.6
							c3.5-0.7,7-1.5,10.4-2.2c0.5-0.1,1-0.2,1.5-0.3C212.6,192.7,212.2,191.2,211.2,191.4L211.2,191.4z"/>
					</g>
				</g>
				<g>
					<g>
						<path class="st11" d="M209.8,197.3c-1.7,0-3.3,0-5,0c-0.2,0-0.5,0-0.7,0c-0.4,0-0.8,0.4-0.8,0.8c0,0.4,0.4,0.8,0.8,0.8
							c1.7,0,3.3,0,5,0c0.2,0,0.5,0,0.7,0c0.4,0,0.8-0.4,0.8-0.8C210.6,197.6,210.2,197.3,209.8,197.3L209.8,197.3z"/>
					</g>
				</g>
				<g>
					<g>
						<path class="st11" d="M202,201c-0.4-0.2-0.9-0.5-1.3-0.7c-0.1,0-0.1-0.1-0.2-0.1c-0.2-0.1-0.4-0.1-0.6-0.1
							c-0.2,0-0.4,0.2-0.5,0.4c-0.1,0.2-0.1,0.4-0.1,0.6c0.1,0.2,0.2,0.4,0.4,0.5c0.4,0.2,0.9,0.5,1.3,0.7c0.1,0,0.1,0.1,0.2,0.1
							c0.2,0.1,0.4,0.1,0.6,0.1c0.2,0,0.4-0.2,0.5-0.4c0.1-0.2,0.1-0.4,0.1-0.6C202.4,201.3,202.2,201.1,202,201L202,201z"/>
					</g>
				</g>
				<g>
					<g>
						<path class="st11" d="M207.6,204.2c-1.6-0.9-3.2-1.9-4.9-2.8c-0.2-0.1-0.5-0.3-0.7-0.4c-0.4-0.2-0.9-0.1-1.1,0.3
							c-0.2,0.4-0.1,0.9,0.3,1.1c1.6,0.9,3.2,1.9,4.9,2.8c0.2,0.1,0.5,0.3,0.7,0.4c0.4,0.2,0.9,0.1,1.1-0.3
							C208.2,204.9,208,204.4,207.6,204.2L207.6,204.2z"/>
					</g>
				</g>
			</g>
			<path class="st13" d="M160.9,166.1c0,2.7,0,7.1-3.1,10c0,0,0,0.1-0.1,0.1c-1.9,1.8-4.9,3-9.8,3c-4.1,0-7.7-1.9-10.1-4.9
				c0.4-0.6,0.9-1.3,1.4-1.9c1-1.4,2.2-2.7,3.5-3.9c3.4-3.2,7.5-5.9,12-7.9c1.3-0.6,2.6-1.1,4-1.6c0.5,0.8,0.9,1.6,1.3,2.5
				c0.1,0.3,0.2,0.6,0.3,0.9C160.7,163.6,160.9,164.8,160.9,166.1z"/>
			<path class="st14" d="M208.5,169.7c-1.9,3.7-5.7,6.2-10.2,6.2c-7.4,0-10-4.1-10.9-7.4c-0.5-1.8-0.5-3.4-0.5-4
				c0-2.3,0.7-4.5,1.9-6.3c0.7,0.2,1.4,0.4,2.1,0.6c1.5,0.5,3,1,4.4,1.7c4.6,2,8.7,4.7,12,8C207.7,168.9,208.1,169.3,208.5,169.7z"
				/>
		</g>
		<path class="st15" d="M159,314.8c0-2.3,0.7-4.5,2-6.4c0.2-0.3,0.4-0.5,0.6-0.8c-1.7-3.8,0.4-13.1,1.6-17.8
			c0.2-0.9,1.5-0.9,1.8-0.1l4.5,12.5c1.9-0.6,4.1-1,6.3-1c1.9,0,3.8,0.3,5.5,0.8c0.3,0.1,0.6,0.1,0.8,0.3l4.5-12.5
			c0.3-0.8,1.5-0.8,1.7,0.1c1.2,4.7,3.4,14,1.7,17.8c1.6,2.1,2.6,4.5,2.6,7.2c0,3.1,1.6,11.8-16.5,11.8
			C157.3,326.7,159,318,159,314.8z"/>
	</g>
</g>
<g>
	<path class="st16" d="M139.6,17l3.5,7.1c0.2,0.4,0.5,0.6,0.9,0.7l7.8,1.1c1,0.1,1.4,1.4,0.7,2.1l-5.7,5.5c-0.3,0.3-0.4,0.7-0.3,1.1
		l1.3,7.8c0.2,1-0.9,1.7-1.8,1.3l-7-3.7c-0.4-0.2-0.8-0.2-1.1,0l-7,3.7c-0.9,0.5-1.9-0.3-1.8-1.3l1.3-7.8c0.1-0.4-0.1-0.8-0.3-1.1
		l-5.7-5.5c-0.7-0.7-0.3-1.9,0.7-2.1l7.8-1.1c0.4-0.1,0.7-0.3,0.9-0.7l3.5-7.1C137.9,16.1,139.2,16.1,139.6,17z"/>
	<path class="st16" d="M181.4,9.3l4.6,9.2c0.2,0.5,0.7,0.8,1.2,0.9l10.2,1.5c1.3,0.2,1.8,1.8,0.9,2.7l-7.4,7.2
		c-0.4,0.4-0.5,0.9-0.5,1.4l1.7,10.1c0.2,1.3-1.1,2.3-2.3,1.7l-9.1-4.8c-0.5-0.2-1-0.2-1.5,0l-9.1,4.8c-1.2,0.6-2.5-0.4-2.3-1.7
		l1.7-10.1c0.1-0.5-0.1-1-0.5-1.4l-7.4-7.2c-0.9-0.9-0.4-2.5,0.9-2.7l10.2-1.5c0.5-0.1,1-0.4,1.2-0.9l4.6-9.2
		C179.2,8.2,180.8,8.2,181.4,9.3z"/>
	<path class="st16" d="M222.5,17.4l3.5,7.1c0.2,0.4,0.5,0.6,0.9,0.7l7.8,1.1c1,0.1,1.4,1.4,0.7,2.1l-5.7,5.5
		c-0.3,0.3-0.4,0.7-0.3,1.1l1.3,7.8c0.2,1-0.9,1.7-1.8,1.3l-7-3.7c-0.4-0.2-0.8-0.2-1.1,0l-7,3.7c-0.9,0.5-1.9-0.3-1.8-1.3l1.3-7.8
		c0.1-0.4-0.1-0.8-0.3-1.1l-5.7-5.5c-0.7-0.7-0.3-1.9,0.7-2.1l7.8-1.1c0.4-0.1,0.7-0.3,0.9-0.7l3.5-7.1
		C220.8,16.5,222.1,16.5,222.5,17.4z"/>
	<path class="st16" d="M256.1,23.2l2.7,5.5c0.1,0.3,0.4,0.5,0.7,0.5l6,0.9c0.8,0.1,1.1,1.1,0.5,1.6l-4.4,4.3
		c-0.2,0.2-0.3,0.5-0.3,0.8l1,6c0.1,0.8-0.7,1.4-1.4,1l-5.4-2.8c-0.3-0.1-0.6-0.1-0.9,0l-5.4,2.8c-0.7,0.4-1.5-0.2-1.4-1l1-6
		c0.1-0.3,0-0.6-0.3-0.8l-4.4-4.3c-0.6-0.5-0.2-1.5,0.5-1.6l6-0.9c0.3,0,0.6-0.2,0.7-0.5l2.7-5.5C254.7,22.5,255.7,22.5,256.1,23.2z
		"/>
	<path class="st16" d="M105.6,23.1l2.7,5.5c0.1,0.3,0.4,0.5,0.7,0.5l6,0.9c0.8,0.1,1.1,1.1,0.5,1.6l-4.4,4.3
		c-0.2,0.2-0.3,0.5-0.3,0.8l1,6c0.1,0.8-0.7,1.4-1.4,1l-5.4-2.8c-0.3-0.1-0.6-0.1-0.9,0l-5.4,2.8c-0.7,0.4-1.5-0.2-1.4-1l1-6
		c0.1-0.3,0-0.6-0.3-0.8L94,31.6c-0.6-0.5-0.2-1.5,0.5-1.6l6-0.9c0.3,0,0.6-0.2,0.7-0.5l2.7-5.5C104.3,22.4,105.3,22.4,105.6,23.1z"
		/>
</g>
<rect x="57.6" y="62.7" class="st17" width="244.7" height="37.7"/>
<text transform="matrix(1 0 0 1 65.3304 97.2953)" class="st18 st19 st20">chill catto</text>
</svg>
