<?xml version="1.0" encoding="utf-8"?>
<!-- Generator: Adobe Illustrator 27.2.0, SVG Export Plug-In . SVG Version: 6.00 Build 0)  -->
<svg version="1.1" xmlns="http://www.w3.org/2000/svg" xmlns:xlink="http://www.w3.org/1999/xlink" x="0px" y="0px"
	 viewBox="0 0 360 504" style="enable-background:new 0 0 360 504;" xml:space="preserve">
<style type="text/css">
	.st0{fill:#F7CC9F;}
	.st1{fill:#59D18C;}
	.st2{fill:#65AA81;}
	.st3{fill:#9E5174;}
	.st4{fill:#FFEFDC;}
	.st5{fill:#FC638E;}
	.st6{fill:#D35784;}
	.st7{fill:#F9D4E1;}
	.st8{fill:#F9C0CF;}
	.st9{fill:#6D4A54;}
	.st10{fill:#FFD2A9;}
	.st11{fill:#EFB66A;}
	.st12{fill:#67675F;}
	.st13{fill:#F291C2;}
	.st14{fill:none;}
	.st15{fill:#F6FF7B;}
</style>
<g id="Layer_2">
	<path class="st0" d="M324.46,503.5H35.54c-19.35,0-35.04-15.69-35.04-35.04V35.54C0.5,16.19,16.19,0.5,35.54,0.5h288.92
		c19.35,0,35.04,15.69,35.04,35.04v432.92C359.5,487.81,343.81,503.5,324.46,503.5z"/>
</g>
<g id="Layer_1">
	<g>
		<g>
			<path class="st1" d="M220,224.77c0,0.9-1.85,1.4-2.11,2.26c-0.25,0.83-0.46,1.37-0.94,2.16c-0.45,0.73,0.76,2.72,0.13,3.4
				c-0.58,0.63-2.41,0.01-3.13,0.6c-0.67,0.54-0.76,1.88-1.54,2.38c-0.73,0.47-2.18-0.32-2.99,0.11c-0.77,0.41-1.22,1.38-2.07,1.75
				c-0.8,0.35-1.18,1.82-2.04,2.14c-0.82,0.3-2.1-0.7-2.97-0.43c-0.84,0.25-1.58,0.84-2.47,1.06c-0.85,0.21-1.44,1.78-2.33,1.95
				c-0.86,0.17-1.96-0.71-2.85-0.57c-0.87,0.14-1.74,0.44-2.64,0.54c-0.88,0.1-1.7,1.22-2.6,1.29c-0.88,0.07-1.89-1.61-2.8-1.58
				c-0.89,0.03-1.77,1.17-2.67,1.17c-0.9,0-1.79-0.91-2.68-0.94c-0.9-0.03-1.9,1.39-2.78,1.32c-0.9-0.07-1.67-1.67-2.55-1.77
				c-0.9-0.1-1.85,0.23-2.72,0.1c-0.9-0.14-1.59-1.25-2.46-1.43c-0.89-0.18-1.98,0.65-2.83,0.43c-0.88-0.22-1.66-0.78-2.5-1.03
				c-0.87-0.26-2.18,0.72-3,0.42c-0.86-0.31-1.14-2.12-1.94-2.46c-0.84-0.37-1.64-0.73-2.41-1.13c-0.82-0.43-1.93-0.31-2.66-0.78
				c-0.78-0.5-1.08-1.61-1.75-2.16c-0.72-0.59-1.07-1.42-1.65-2.05c-0.63-0.69-2.07-0.69-2.52-1.43c-0.48-0.79-0.9-1.71-1.16-2.54
				c-0.26-0.86-0.82-1.88-0.82-2.78c0-0.9,1.28-1.7,1.55-2.56c0.25-0.83,0.8-1.46,1.29-2.24c0.45-0.73-0.25-2.44,0.38-3.13
				c0.58-0.63,1.54-1.11,2.26-1.7c0.67-0.54,1.65-0.83,2.42-1.34c0.73-0.47,1.19-1.59,2-2.02c0.77-0.41,2.04,0.05,2.88-0.31
				c0.8-0.35,2.17,0.76,3.03,0.45c0.82-0.3,1.22-1.82,2.09-2.08c0.84-0.25,1.55-1.09,2.44-1.31c0.85-0.21,1.67-0.82,2.56-1
				c0.86-0.17,1.83-0.09,2.72-0.23c0.87-0.14,1.98,1.44,2.88,1.33c0.88-0.1,1.62-1.65,2.52-1.72c0.88-0.07,1.81,0.15,2.71,0.11
				c0.89-0.03,1.79,0.28,2.7,0.28c0.9,0,1.78,0.57,2.66,0.6c0.9,0.03,1.82-0.53,2.7-0.47c0.9,0.07,1.75,0.53,2.63,0.63
				c0.9,0.1,1.98-1.14,2.86-1.01c0.9,0.14,1.43,2.23,2.3,2.4c0.89,0.18,1.72,0.38,2.57,0.59c0.88,0.22,1.6,0.76,2.44,1.01
				c0.87,0.26,2.21-1,3.03-0.7c0.86,0.31,1.88,0.26,2.68,0.61c0.84,0.37,1.32,1.49,2.09,1.89c0.82,0.43,2.36-0.32,3.09,0.15
				c0.78,0.5,1.06,1.8,1.73,2.35c0.72,0.59,0.88,1.74,1.46,2.37c0.63,0.69,0.3,1.87,0.74,2.6c0.48,0.79,1.61,1.04,1.87,1.87
				C219.07,223.09,220,223.87,220,224.77z"/>
		</g>
		<ellipse class="st2" cx="183.47" cy="225.77" rx="23.04" ry="4.51"/>
		<g>
			<path class="st3" d="M203.67,214.27c0,0-11.68,2.99-18.75,2.99c-7.07,0-22.43-2.99-22.43-2.99l1.22-1.72
				c0.33,0.19-0.38,1.81,0.02,1.7c4.81-1.3,15.76-4.05,21.18-4.05c5.21,0,14.44,0.99,18.85,2.36L203.67,214.27z"/>
			<path class="st4" d="M164.14,171.72l-2.72,6.1c-0.26,0.57-0.93,0.83-1.5,0.58l-8.93-3.98c-0.57-0.26-0.83-0.93-0.58-1.5l2.72-6.1
				c0.26-0.57,0.93-0.83,1.5-0.58l8.93,3.98C164.14,170.48,164.4,171.15,164.14,171.72z"/>
			<path class="st4" d="M203.32,171.14l2.19,6.31c0.21,0.59,0.85,0.91,1.45,0.7l9.24-3.21c0.59-0.21,0.91-0.85,0.7-1.45l-2.19-6.31
				c-0.21-0.59-0.85-0.91-1.45-0.7l-9.24,3.21C203.43,169.9,203.11,170.55,203.32,171.14z"/>
			<path class="st4" d="M167.44,209.24l-3.22,14.1c-0.43,0.93,0.36,1.93,1.51,1.93h9.16c0.7,0,1.32-0.39,1.54-0.96l3.02-15.07
				c0.33-0.85,2.59-2.1,1.56-2.2C181.01,207.05,167.45,209.21,167.44,209.24z"/>
			<path class="st4" d="M198.98,209.24l3.22,14.1c0.43,0.93-0.36,1.93-1.51,1.93h-9.16c-0.7,0-1.32-0.39-1.54-0.96l-3.02-15.07
				c-0.33-0.85-2.59-2.1-1.56-2.2C185.4,207.05,198.97,209.21,198.98,209.24z"/>
			<path class="st5" d="M209.16,180.23l-8.93,3.58c-0.68,0.28-1.06,0.99-0.9,1.7l6.2,26.88c0.26,1.11-0.78,2.07-1.86,1.74
				c-0.05,0-0.07-0.02-0.12-0.02c-4.41-1.37-13.43-3.91-18.63-3.91c-5.42,0-16.37,2.76-21.18,4.05c-0.4,0.12-0.8,0.05-1.13-0.14
				c-0.52-0.31-0.85-0.94-0.68-1.63l6.22-26.97c0.16-0.71-0.21-1.41-0.9-1.7l-8.93-3.58c-0.87-0.33-1.2-1.39-0.71-2.17l5.75-8.88
				l0.35,0.12c4.5,2.05,10.81,3.2,19.62,3.2c9.35,0,15.88-1.3,20.42-3.56l0.35,0.24l5.75,8.88
				C210.36,178.84,210.03,179.9,209.16,180.23z"/>
			<path class="st6" d="M159.01,163.08c0,0,4.42,11.1,23.45,11.1s24.58-9.9,24.58-9.9L159.01,163.08z"/>
			<path class="st7" d="M177.44,192.74c0-0.87,0.27-1.68,0.75-2.39c0.06-0.09,0.13-0.19,0.21-0.28c-0.62-1.4,0.16-4.88,0.62-6.62
				c0.09-0.33,0.54-0.34,0.66-0.02l1.67,4.66c0.72-0.24,1.51-0.37,2.34-0.37c0.71,0,1.4,0.09,2.04,0.28
				c0.11,0.03,0.21,0.06,0.31,0.09l1.67-4.66c0.11-0.32,0.56-0.3,0.65,0.02c0.47,1.74,1.25,5.22,0.62,6.62
				c0.61,0.77,0.95,1.69,0.95,2.67c0,1.14,0.62,4.38-6.15,4.4C176.81,197.16,177.44,193.92,177.44,192.74z"/>
			<g>
				<path class="st4" d="M147.43,106.09c-1.26-1.07-3.15,0.12-2.72,1.71c2.66,9.82,9.08,30.32,16.36,30.79
					c9.58,0.62,12.51-10.29,12.51-10.29L147.43,106.09z"/>
				<path class="st8" d="M165.37,134.31c-1.22,0.71-2.56,1-4.08,0.9c-2.74-0.18-7.26-8.95-11.03-20.49c-0.23-0.7,0.6-1.27,1.16-0.79
					l18.13,15.4C168.81,130.92,167.47,133.1,165.37,134.31L165.37,134.31z"/>
			</g>
			<g>
				<path class="st4" d="M217.91,106.09c1.26-1.07,3.15,0.12,2.72,1.71c-2.66,9.82-9.08,30.32-16.36,30.79
					c-9.58,0.62-12.51-10.29-12.51-10.29L217.91,106.09z"/>
				<path class="st8" d="M199.97,134.31c1.22,0.71,2.56,1,4.08,0.9c2.74-0.18,7.26-8.95,11.03-20.49c0.23-0.7-0.6-1.27-1.16-0.79
					l-18.13,15.4C196.53,130.92,197.87,133.1,199.97,134.31L199.97,134.31z"/>
			</g>
			<path class="st4" d="M213.97,147.77c0,8.98-1.46,16.84-10.2,21.18c-4.55,2.26-11.07,3.56-20.42,3.56
				c-8.81,0-15.12-1.15-19.62-3.2c-9.45-4.24-11-12.3-11-21.53c0-4.26,1.32-8.27,3.67-11.75c3.32-4.97,8.69-8.9,15.19-11.07
				c3.63-1.22,7.59-1.91,11.75-1.91c3.51,0,6.88,0.47,10.01,1.37c5.7,1.58,10.62,4.48,14.23,8.27
				C211.59,136.84,213.97,142.07,213.97,147.77z"/>
			<g>
				<g>
					<path class="st9" d="M199.74,145.49c-1.27-1.9-3.68-2.99-5.91-2.27c-1.2,0.38-2.23,1.14-3.12,2.02c-0.47,0.46-0.5,1.31,0,1.77
						c0.5,0.46,1.27,0.49,1.77,0c0.25-0.24,0.5-0.48,0.78-0.7c-0.18,0.14,0.18-0.13,0.22-0.15c0.09-0.06,0.18-0.12,0.27-0.17
						c0.12-0.07,0.24-0.14,0.36-0.2c0.06-0.03,0.45-0.18,0.13-0.07c0.19-0.07,0.38-0.13,0.58-0.18c0.05-0.01,0.11-0.02,0.16-0.03
						c0.14-0.02,0.11-0.02-0.1,0.01c0.09,0.01,0.21-0.02,0.3-0.02c0.17-0.01,0.34,0.03,0.51,0.02c-0.35,0.03-0.13-0.02,0.01,0.01
						c0.09,0.02,0.17,0.04,0.26,0.07c0.08,0.02,0.16,0.05,0.25,0.08c0.28,0.09-0.1-0.05-0.04-0.02c0.26,0.14,0.51,0.28,0.76,0.45
						c0.22,0.15-0.22-0.19-0.06-0.05c0.05,0.04,0.1,0.09,0.16,0.13c0.09,0.08,0.17,0.16,0.25,0.24c0.13,0.13,0.24,0.26,0.35,0.4
						c0.12,0.13-0.25-0.33-0.09-0.12c0.01,0.02,0.02,0.03,0.03,0.05c0.36,0.54,1.12,0.83,1.71,0.45
						C199.83,146.85,200.13,146.07,199.74,145.49L199.74,145.49z"/>
				</g>
			</g>
			<g>
				<g>
					<path class="st9" d="M176.19,145.49c-1.27-1.9-3.68-2.99-5.91-2.27c-1.2,0.38-2.23,1.14-3.12,2.02c-0.47,0.46-0.5,1.31,0,1.77
						c0.5,0.46,1.27,0.49,1.77,0c0.25-0.24,0.5-0.48,0.78-0.7c-0.18,0.14,0.18-0.13,0.22-0.15c0.09-0.06,0.18-0.12,0.27-0.17
						c0.12-0.07,0.24-0.14,0.36-0.2c0.06-0.03,0.45-0.18,0.13-0.07c0.19-0.07,0.38-0.13,0.58-0.18c0.05-0.01,0.11-0.02,0.16-0.03
						c0.14-0.02,0.11-0.02-0.1,0.01c0.09,0.01,0.21-0.02,0.3-0.02c0.17-0.01,0.34,0.03,0.51,0.02c-0.35,0.03-0.13-0.02,0.01,0.01
						c0.09,0.02,0.17,0.04,0.26,0.07c0.08,0.02,0.16,0.05,0.25,0.08c0.28,0.09-0.1-0.05-0.04-0.02c0.26,0.14,0.51,0.28,0.76,0.45
						c0.22,0.15-0.22-0.19-0.06-0.05c0.05,0.04,0.1,0.09,0.16,0.13c0.09,0.08,0.17,0.16,0.25,0.24c0.13,0.13,0.24,0.26,0.35,0.4
						c0.12,0.13-0.25-0.33-0.09-0.12c0.01,0.02,0.02,0.03,0.03,0.05c0.36,0.54,1.12,0.83,1.71,0.45
						C176.28,146.85,176.58,146.07,176.19,145.49L176.19,145.49z"/>
				</g>
			</g>
			<ellipse class="st10" cx="162.54" cy="153.66" rx="5.89" ry="2.36"/>
			<ellipse class="st10" cx="204.94" cy="153.66" rx="5.89" ry="2.36"/>
			<g>
				<g>
					<g>
						<path class="st9" d="M156.2,149.43c2.51,0.54,5.03,1.08,7.54,1.63c0.36,0.08,0.72,0.15,1.07,0.23
							c0.63,0.14,0.9-0.83,0.27-0.96c-2.51-0.54-5.03-1.08-7.54-1.63c-0.36-0.08-0.72-0.15-1.07-0.23
							C155.83,148.33,155.57,149.29,156.2,149.43L156.2,149.43z"/>
					</g>
				</g>
				<g>
					<g>
						<path class="st9" d="M157.52,153.71c1.21,0,2.43,0,3.64,0c0.17,0,0.34,0,0.51,0c0.64,0,0.64-1,0-1c-1.21,0-2.43,0-3.64,0
							c-0.17,0-0.34,0-0.51,0C156.88,152.71,156.88,153.71,157.52,153.71L157.52,153.71z"/>
					</g>
				</g>
				<g>
					<g>
						<path class="st9" d="M159.6,158.56c1.48-0.86,2.97-1.71,4.45-2.57c0.21-0.12,0.42-0.24,0.64-0.37
							c0.56-0.32,0.05-1.19-0.5-0.86c-1.48,0.86-2.97,1.71-4.45,2.57c-0.21,0.12-0.42,0.24-0.64,0.37
							C158.54,158.02,159.05,158.88,159.6,158.56L159.6,158.56z"/>
					</g>
				</g>
			</g>
			<g>
				<g>
					<g>
						<path class="st9" d="M209.57,148.46c-2.51,0.54-5.03,1.08-7.54,1.63c-0.36,0.08-0.72,0.15-1.07,0.23
							c-0.63,0.14-0.36,1.1,0.27,0.96c2.51-0.54,5.03-1.08,7.54-1.63c0.36-0.08,0.72-0.15,1.07-0.23
							C210.46,149.29,210.2,148.33,209.57,148.46L209.57,148.46z"/>
					</g>
				</g>
				<g>
					<g>
						<path class="st9" d="M208.51,152.71c-1.21,0-2.43,0-3.64,0c-0.17,0-0.34,0-0.51,0c-0.64,0-0.64,1,0,1c1.21,0,2.43,0,3.64,0
							c0.17,0,0.34,0,0.51,0C209.15,153.71,209.15,152.71,208.51,152.71L208.51,152.71z"/>
					</g>
				</g>
				<g>
					<g>
						<path class="st9" d="M206.93,157.69c-1.48-0.86-2.97-1.71-4.45-2.57c-0.21-0.12-0.42-0.24-0.64-0.37
							c-0.56-0.32-1.06,0.54-0.5,0.86c1.48,0.86,2.97,1.71,4.45,2.57c0.21,0.12,0.42,0.24,0.64,0.37
							C206.98,158.88,207.49,158.02,206.93,157.69L206.93,157.69z"/>
					</g>
				</g>
			</g>
			<path class="st11" d="M173.14,130.1c0,3.13,0,9.42-9.42,9.42c-2.97,0-5.61-1.37-7.33-3.51c3.32-4.97,8.69-8.9,15.19-11.07
				C172.58,126.42,173.14,128.19,173.14,130.1z"/>
			<path class="st12" d="M207.58,132.67c-1.39,2.69-4.15,4.5-7.35,4.5c-8.24,0-8.24-7.07-8.24-8.24c0-1.67,0.49-3.23,1.37-4.52
				C199.06,125.98,203.98,128.87,207.58,132.67z"/>
			<path class="st9" d="M189.26,155.82c-1.34-0.05-2.69-0.28-3.89-0.9c-0.87-0.45-1.53-1.08-2.03-1.81c-0.47,0.73-1.15,1.37-2,1.81
				c-1.2,0.61-2.54,0.85-3.89,0.9c-0.16-0.87-0.28-1.67-0.16-2.36c0.33,0,0.66-0.02,0.97-0.05c0.02,0,0.05,0,0.09-0.02
				c0.07,0,0.14-0.02,0.21-0.02c0.16-0.02,0.35-0.07,0.52-0.12c0.16-0.05,0.35-0.09,0.52-0.14c0.09-0.05,0.19-0.07,0.26-0.09
				c0,0,0,0,0.05-0.02c0.02,0,0.02-0.02,0.05-0.02c0.8-0.38,1.37-0.92,1.72-1.63c0.35-0.66,0.49-1.46,0.49-2.4
				c0.02-1.51,2.36-1.51,2.36,0c0.02,0.87,0.14,1.67,0.52,2.4c0.05,0.14,0.12,0.28,0.21,0.42c0.12,0.21,0.35,0.47,0.66,0.71
				c0.02,0,0.28,0.19,0.35,0.24c0.16,0.09,0.33,0.19,0.49,0.26c0.07,0.05,0.09,0.05,0.35,0.14c0.16,0.05,0.33,0.09,0.52,0.14
				c0.16,0.05,0.33,0.09,0.52,0.12c0.05,0.02,0.12,0.02,0.19,0.05h0.09c0.33,0.02,0.66,0.05,0.99,0.05
				C189.54,154.15,189.42,154.95,189.26,155.82z"/>
			<path class="st9" d="M177.45,155.82c-0.26,0.02-0.52,0.02-0.78,0.02c-1.51,0-1.51-2.36,0-2.36c0.21,0,0.4,0,0.61-0.02
				C177.17,154.15,177.29,154.95,177.45,155.82z"/>
			<path class="st9" d="M190.03,155.85c-0.26,0-0.52,0-0.78-0.02c0.16-0.87,0.28-1.67,0.16-2.36c0.19,0.02,0.4,0.02,0.61,0.02
				C191.54,153.49,191.54,155.85,190.03,155.85z"/>
			<path class="st13" d="M185.37,154.93c1.2,0.61,2.54,0.85,3.89,0.9c-0.14,0.78-0.31,1.65-0.31,2.54c0,3.91-2.99,7.07-5.61,7.07
				c-2.59,0-5.58-3.16-5.58-7.07c0-0.9-0.16-1.77-0.31-2.54c1.34-0.05,2.69-0.28,3.89-0.9c0.85-0.45,1.53-1.08,2-1.81
				C183.84,153.84,184.5,154.48,185.37,154.93z"/>
			<path class="st14" d="M189.42,153.47c-0.33,0-0.66-0.02-0.99-0.05h-0.09c-0.07-0.02-0.14-0.02-0.19-0.05
				c-0.19-0.02-0.35-0.07-0.52-0.12c-0.19-0.05-0.35-0.09-0.52-0.14c-0.26-0.09-0.28-0.09-0.35-0.14c-0.16-0.07-0.33-0.16-0.49-0.26
				c-0.07-0.05-0.33-0.24-0.35-0.24c-0.31-0.24-0.54-0.49-0.66-0.71c-0.09-0.14-0.16-0.28-0.21-0.42"/>
		</g>
		<polygon class="st15" points="174.45,81 179.46,113.06 186.47,113.06 188.47,80 		"/>
		<polygon class="st15" points="154.36,86.42 164.78,108.12 169.76,106.62 164.11,82.7 		"/>
		<polygon class="st15" points="211.36,85.06 200.43,107.83 195.2,106.25 201.13,81.17 		"/>
	</g>
</g>
</svg>
