<?xml version="1.0" encoding="utf-8"?>
<!-- Generator: Adobe Illustrator 27.2.0, SVG Export Plug-In . SVG Version: 6.00 Build 0)  -->
<svg version="1.1" xmlns="http://www.w3.org/2000/svg" xmlns:xlink="http://www.w3.org/1999/xlink" x="0px" y="0px"
	 viewBox="0 0 360 504" style="enable-background:new 0 0 360 504;" xml:space="preserve">
<style type="text/css">
	.st0{fill:#CCBA83;}
	.st1{fill:#F4A864;}
	.st2{fill:#F4BD87;}
	.st3{fill:#F7C49A;}
	.st4{fill:#5299FF;}
	.st5{fill:#563215;}
	.st6{fill:#347BE2;}
	.st7{fill:#9BD1F9;}
	.st8{fill:#ABD1FF;}
	.st9{fill:#FFEFDC;}
	.st10{fill:#F9C0CF;}
	.st11{fill:#6D4A54;}
	.st12{fill:#FFD2A9;}
	.st13{fill:#EFB66A;}
	.st14{fill:#67675F;}
	.st15{fill:#FFC799;}
</style>
<g id="Layer_2">
	<path class="st0" d="M324.46,503.5H35.54c-19.35,0-35.04-15.69-35.04-35.04V35.54C0.5,16.19,16.19,0.5,35.54,0.5h288.92
		c19.35,0,35.04,15.69,35.04,35.04v432.92C359.5,487.81,343.81,503.5,324.46,503.5z"/>
</g>
<g id="Layer_1">
	<g>
		<path class="st1" d="M177.51,219.79c-26.51,0-46.45-18.59-46.75-21.26l-5.53-45.01H229.6l-5.53,45.01
			C223.76,201.2,204.02,219.79,177.51,219.79z"/>
		<path class="st2" d="M177.42,123.7c-28.89,0-52.34,13.07-52.34,29.19s23.44,29.17,52.34,29.17c28.91,0,52.34-13.05,52.34-29.17
			S206.33,123.7,177.42,123.7z M177.42,129.67c21.93,0,46.37,9.54,46.37,23.23c0,0.84-0.1,1.67-0.28,2.49
			c-2.72,12.34-25.51,20.73-46.09,20.73c-20.56,0-43.37-8.38-46.09-20.73c-0.18-0.81-0.28-1.64-0.28-2.49
			C131.04,139.21,155.5,129.67,177.42,129.67z"/>
		<path class="st3" d="M177.42,123.7c-28.89,0-52.34,13.07-52.34,29.19s23.44,29.17,52.34,29.17c28.91,0,52.34-13.05,52.34-29.17
			S206.33,123.7,177.42,123.7z M177.42,129.67c21.93,0,46.37,9.54,46.37,23.23c0,0.84-0.1,1.67-0.28,2.49
			c-2.72,12.34-25.51,20.73-46.09,20.73c-20.56,0-43.37-8.38-46.09-20.73c-0.18-0.81-0.28-1.64-0.28-2.49
			C131.04,139.21,155.5,129.67,177.42,129.67z"/>
		<path class="st4" d="M223.51,155.38c-2.72,12.34-25.51,20.73-46.09,20.73c-20.56,0-43.37-8.38-46.09-20.73
			c2.72-12.34,25.53-20.74,46.09-20.74C197.99,134.64,220.79,143.04,223.51,155.38z"/>
		<path class="st5" d="M223.79,152.89c0,0.84-0.1,1.67-0.28,2.49c-7.65-10.14-25.51-16.77-46.09-16.77
			c-20.56,0-37.77,4.97-46.09,16.77c-0.18-0.81-0.28-1.64-0.28-2.49c0-13.68,24.45-23.23,46.37-23.23
			C199.35,129.67,223.79,139.21,223.79,152.89z"/>
		<g>
			<g>
				<path class="st6" d="M140.56,152.69c2,1.34,5.36,3.19,7.14,0.53c0.46-0.69,0.67-1.5,0.95-2.27c0.03-0.09,0.07-0.18,0.1-0.27
					c0.04-0.11-0.13,0.24,0.01-0.01c0.08-0.15,0.16-0.28,0.24-0.43c-0.16,0.27-0.1,0.11-0.01,0.03c0.2-0.18-0.17,0.1-0.02,0.01
					c0.21-0.13-0.24,0.07-0.03,0.01c0.27-0.08-0.23,0.02-0.01,0c0.04,0,0.08,0,0.12,0c0.15,0-0.24-0.1-0.07,0
					c0.09,0.05,0.22,0.07,0.32,0.1c-0.31-0.11,0.08,0.05,0.16,0.09c0.13,0.07,0.26,0.15,0.38,0.24c0.36,0.24,0.48,0.34,0.87,0.69
					c0.43,0.38,0.85,0.78,1.25,1.19c0.91,0.91,2.32-0.5,1.41-1.41c-1.35-1.36-4.51-4.55-6.19-1.82c-0.41,0.66-0.6,1.46-0.87,2.19
					c-0.11,0.3,0.08-0.13-0.04,0.09c-0.04,0.07-0.07,0.15-0.11,0.23c-0.05,0.09-0.09,0.17-0.15,0.26c-0.06,0.09-0.27,0.31-0.04,0.07
					c-0.06,0.06-0.12,0.13-0.18,0.19c-0.03,0.03-0.06,0.05-0.09,0.08c-0.12,0.13,0.21-0.13,0.05-0.04
					c-0.07,0.04-0.14,0.08-0.21,0.12c-0.15,0.1,0.24-0.07,0.06-0.02c-0.06,0.02-0.13,0.04-0.2,0.06c-0.27,0.09,0.11,0.03-0.12,0.02
					c-0.12-0.01-0.25,0-0.37-0.01c-0.23-0.01,0.23,0.05-0.01,0c-0.1-0.02-0.2-0.04-0.29-0.06c-0.16-0.04-0.32-0.09-0.48-0.14
					c-0.09-0.03-0.17-0.06-0.26-0.1c-0.14-0.06,0.02,0.01-0.17-0.08c-0.22-0.1-0.44-0.21-0.65-0.33c-0.52-0.28-1.02-0.6-1.51-0.93
					C140.5,150.25,139.5,151.98,140.56,152.69L140.56,152.69z"/>
			</g>
		</g>
		<g>
			<g>
				<path class="st6" d="M153.83,167.7c1.55,1.04,4.02,2.27,5.36,0.25c0.33-0.5,0.49-1.09,0.69-1.65c0.02-0.06,0.05-0.12,0.07-0.18
					c0.04-0.12-0.14,0.28-0.03,0.07c0.04-0.07,0.16-0.23,0.17-0.29c-0.01,0.13-0.2,0.22-0.06,0.09c0.16-0.15-0.21,0.14-0.08,0.06
					c0.17-0.1-0.27,0.08-0.1,0.04c0.23-0.06-0.27,0.04-0.09,0.01c0.03,0,0.06,0,0.08,0c0.14,0.01-0.28-0.09-0.13-0.01
					c0.02,0.01,0.22,0.05,0.22,0.07c-0.01,0.09-0.25-0.13-0.13-0.05c0.05,0.03,0.11,0.05,0.16,0.08c0.09,0.05,0.18,0.11,0.26,0.16
					c0.05,0.03,0.1,0.07,0.14,0.1c0.23,0.16-0.09-0.08,0.06,0.04c0.11,0.1,0.23,0.19,0.34,0.29c0.3,0.26,0.58,0.54,0.86,0.82
					c0.91,0.91,2.32-0.5,1.41-1.41c-1.1-1.11-3.46-3.33-4.76-1.2c-0.29,0.48-0.44,1.06-0.63,1.59c-0.09,0.26,0.11-0.2,0.01-0.01
					c-0.03,0.05-0.05,0.1-0.08,0.16c-0.03,0.06-0.06,0.12-0.1,0.18c-0.01,0.02-0.03,0.04-0.04,0.06c-0.1,0.17-0.06-0.05,0.06-0.07
					c-0.02,0-0.1,0.11-0.12,0.13c-0.15,0.18,0.07-0.04,0.04-0.02c-0.04,0.02-0.11,0.06-0.14,0.08c-0.11,0.09,0.26-0.06,0.11-0.05
					c-0.04,0-0.1,0.03-0.14,0.04c-0.24,0.08,0.21,0.01,0,0c-0.08,0-0.17-0.01-0.26-0.01c-0.18,0.01,0.26,0.06,0.08,0.01
					c-0.06-0.02-0.14-0.03-0.2-0.04c-0.11-0.03-0.22-0.06-0.33-0.1c-0.06-0.02-0.12-0.05-0.18-0.07c-0.18-0.06,0.19,0.09-0.05-0.02
					c-0.15-0.07-0.3-0.15-0.45-0.23c-0.36-0.19-0.71-0.41-1.05-0.64c-0.45-0.3-1.11-0.09-1.37,0.36
					C153.18,166.82,153.38,167.39,153.83,167.7L153.83,167.7z"/>
			</g>
		</g>
		<g>
			<g>
				<path class="st6" d="M203.51,151.54c1.59,1.06,4.12,2.34,5.49,0.27c0.34-0.51,0.5-1.12,0.71-1.69c0.02-0.06,0.05-0.13,0.07-0.19
					c0.04-0.12-0.14,0.28-0.02,0.06c0.03-0.06,0.18-0.25,0.17-0.3c0,0.12-0.2,0.22-0.05,0.08c0.16-0.16-0.21,0.13-0.07,0.06
					c0.18-0.11-0.27,0.08-0.09,0.03c0.23-0.06-0.27,0.02-0.08,0.01c0.26-0.01-0.14-0.06-0.04-0.01c0.03,0.02,0.22,0.04,0.23,0.07
					c0.02,0.09-0.25-0.13-0.12-0.05c0.05,0.03,0.11,0.06,0.17,0.09c0.09,0.05,0.18,0.11,0.27,0.17c0.05,0.03,0.1,0.07,0.15,0.1
					c0.23,0.16-0.08-0.07,0.06,0.05c0.12,0.1,0.24,0.19,0.35,0.3c0.31,0.27,0.6,0.56,0.89,0.85c0.91,0.91,2.32-0.5,1.41-1.41
					c-1.12-1.12-3.54-3.41-4.86-1.24c-0.3,0.49-0.45,1.09-0.65,1.63c-0.1,0.26,0.1-0.2,0,0c-0.03,0.05-0.05,0.11-0.08,0.16
					c-0.03,0.06-0.07,0.12-0.1,0.18c-0.01,0.02-0.03,0.04-0.04,0.06c-0.1,0.18-0.04-0.06,0.05-0.07c-0.02,0-0.11,0.12-0.13,0.14
					c-0.15,0.18,0.06-0.03,0.03-0.02c-0.04,0.02-0.11,0.06-0.15,0.09c-0.11,0.09,0.25-0.06,0.11-0.05c-0.04,0-0.1,0.03-0.14,0.04
					c-0.25,0.08,0.21,0.01-0.01,0c-0.09,0-0.18-0.01-0.27-0.01c-0.18,0.01,0.25,0.07,0.07,0.01c-0.07-0.02-0.14-0.03-0.21-0.04
					c-0.12-0.03-0.23-0.06-0.34-0.1c-0.06-0.02-0.12-0.05-0.18-0.07c-0.18-0.06,0.18,0.09-0.06-0.03c-0.16-0.08-0.31-0.15-0.46-0.23
					c-0.37-0.2-0.73-0.43-1.08-0.66c-0.45-0.3-1.11-0.09-1.37,0.36C202.87,150.66,203.06,151.24,203.51,151.54L203.51,151.54z"/>
			</g>
		</g>
		<g>
			<g>
				<path class="st6" d="M206.85,162.8c-0.36,0.24-0.74,0.48-1.12,0.7c-0.18,0.1-0.35,0.19-0.54,0.28
					c-0.06,0.03-0.11,0.05-0.17,0.08c-0.05,0.02-0.11,0.05-0.16,0.07c0.11-0.04,0.11-0.05,0.01,0c-0.25,0.1-0.5,0.17-0.76,0.23
					c-0.06,0.02-0.12,0.02-0.18,0.03c0.29-0.06,0.15-0.01,0.09-0.01c-0.11-0.01-0.26-0.01-0.37,0c-0.18,0.02,0.21,0.05,0.1,0.02
					c-0.04-0.01-0.08-0.01-0.11-0.02c-0.15-0.05-0.27-0.17-0.05,0c-0.05-0.04-0.12-0.07-0.18-0.1c-0.18-0.08,0.16,0.18-0.02-0.02
					c-0.05-0.06-0.11-0.13-0.17-0.18c0.23,0.2,0.07,0.11,0.01,0c-0.09-0.15-0.16-0.3-0.24-0.45c-0.11-0.22,0.08,0.24-0.01-0.02
					c-0.03-0.08-0.06-0.15-0.09-0.23c-0.06-0.16-0.11-0.33-0.17-0.5c-0.12-0.35-0.24-0.7-0.41-1.03c-0.42-0.84-1.23-1.3-2.16-1.13
					c-1.37,0.26-2.55,1.54-3.48,2.48c-0.91,0.91,0.51,2.33,1.41,1.41c0.3-0.3,0.61-0.6,0.92-0.89c0.14-0.13,0.29-0.26,0.44-0.38
					c0.05-0.04,0.09-0.07,0.14-0.11c0.14-0.11-0.1,0.07,0.12-0.09c0.2-0.14,0.4-0.26,0.61-0.38c0.03-0.02,0.07-0.03,0.1-0.05
					c0.15-0.1-0.23,0.06-0.05,0.02c0.07-0.01,0.19-0.04,0.25-0.07c0.14-0.08-0.27,0.03-0.12,0.01c0.03,0,0.07-0.01,0.1,0
					c0.22,0.02-0.28-0.06-0.08-0.01c0.24,0.06-0.2-0.1-0.06-0.03c0.2,0.11-0.21-0.19-0.02-0.02c0.1,0.1,0.07,0.19-0.03-0.06
					c0.03,0.06,0.08,0.12,0.11,0.17c0.03,0.05,0.06,0.11,0.08,0.16c0.02,0.03,0.03,0.07,0.05,0.1c0.08,0.13-0.09-0.25-0.04-0.09
					c0.48,1.54,1.13,3.31,2.98,3.47c1.52,0.13,3.06-0.85,4.26-1.65C208.93,163.81,207.93,162.08,206.85,162.8L206.85,162.8z"/>
			</g>
		</g>
		<g>
			<path class="st7" d="M145.86,102.16c-6.26,1.02-7.09,1.84-8.1,8.1c-1.02-6.26-1.84-7.09-8.1-8.1c6.26-1.02,7.09-1.84,8.1-8.1
				C138.77,100.32,139.59,101.15,145.86,102.16z"/>
		</g>
		<g>
			<path class="st7" d="M131.04,124.53c-3.13,0.51-3.54,0.92-4.05,4.05c-0.51-3.13-0.92-3.54-4.05-4.05
				c3.13-0.51,3.54-0.92,4.05-4.05C127.49,123.61,127.9,124.02,131.04,124.53z"/>
		</g>
		<g>
			<path class="st7" d="M238.11,122.87c-5.22,0.85-5.9,1.53-6.75,6.75c-0.85-5.22-1.53-5.9-6.75-6.75c5.22-0.85,5.9-1.53,6.75-6.75
				C232.2,121.34,232.89,122.03,238.11,122.87z"/>
		</g>
		<g>
			<path class="st7" d="M222.68,100.51c-4.17,0.68-4.72,1.23-5.4,5.4c-0.68-4.17-1.23-4.72-5.4-5.4c4.17-0.68,4.72-1.23,5.4-5.4
				C217.95,99.28,218.5,99.83,222.68,100.51z"/>
		</g>
		<path class="st8" d="M164.39,157.44c1.52,1.06-0.56,0.63,1.52,2.71c1.66,1.66,2.14,1.66,3.31,1.66c1.66,0,3.26,0.8,4.97,1.66
			c3.31,1.66,2.58,0,6.26,0c3.68,0,2.02-1.66,3.68-1.66c2.34,0,2.53-1.41,3.31-1.66c0,0,4.19-0.1,3.75-0.88
			c-2.1-2.44,0.68-2.98-0.71-4.36s-1.95-1.39-2.95-1.39h-5.83c-0.59,0-1.17,0.14-1.69,0.4l-1.12,0.56c-0.9,0.45-1.93,0.52-2.89,0.21
			l-3.23-1.08c-0.17-0.06-0.34-0.13-0.5-0.21l-1.38-0.69c-1.06-0.53-2.32-0.53-3.38,0c0,0,0.48,0.59-1.4,0.7
			C164.26,153.52,162.87,156.38,164.39,157.44z"/>
		<g>
			<g>
				<path class="st9" d="M170.47,115.82c0,0-1.45,1.45-3.71,2.58c0,0-0.02,0.04-0.04,0.04c-2.6,1.27-6.26,2.09-9.93-0.34
					c-0.66-0.44-1.17-1.13-1.55-1.99c-2.62-5.9,0.66-20.48,2.6-27.79c0.36-1.37,2.28-1.43,2.76-0.1l6.99,19.55l0.56,1.59
					c0.08,0.18,0.14,0.36,0.2,0.56L170.47,115.82z"/>
				<path class="st10" d="M161.82,116.77c-1.21,0-2.32-0.35-3.41-1.08c-1.95-1.3-1.55-9.73,0.59-19.88c0.13-0.62,0.99-0.68,1.2-0.09
					l6.84,19.15C165.82,115.73,163.89,116.77,161.82,116.77L161.82,116.77z"/>
				<path class="st9" d="M199.59,116.12c-0.38,0.87-0.89,1.53-1.55,1.97c-6.83,4.55-13.65-2.28-13.65-2.28l0.75-2.11l2.13-5.94
					l6.99-19.55c0.46-1.33,2.38-1.27,2.74,0.1C198.94,95.65,202.24,110.22,199.59,116.12z"/>
				<path class="st10" d="M193.02,116.77c-2.07,0-3.99-1.04-5.22-1.9l6.84-19.15c0.21-0.59,1.07-0.53,1.2,0.09
					c2.14,10.15,2.54,18.58,0.59,19.88C195.34,116.42,194.23,116.77,193.02,116.77z"/>
			</g>
			<path class="st9" d="M203.59,127.34c0-4.13-1.45-7.97-4.01-11.22c-0.38,0.87-0.89,1.53-1.55,1.97
				c-6.83,4.55-13.65-2.28-13.65-2.28l0.75-2.11c-0.32-1.13-0.32-2.11-0.32-2.48c0-1.43,0.42-2.76,1.17-3.87
				c-2.68-0.77-5.56-1.17-8.56-1.17c-3.48,0-6.79,0.56-9.83,1.57l0.56,1.59c0.08,0.18,0.14,0.36,0.2,0.56l2.11,5.9
				c0,0-1.45,1.45-3.71,2.58c0,0-0.02,0.04-0.04,0.04c-1.17,1.09-3.06,1.85-6.08,1.85c-2.54,0-4.79-1.17-6.26-3
				c-2.01,2.98-3.14,6.4-3.14,10.05c0,9.83,2.05,18.08,16.59,20.46l-0.95,8.68c-0.14,1.35,5.98,4.09,9.87,4.09
				c5.11,0,12-2.82,11.86-4.17l-0.95-8.72C201.62,145.18,203.59,137.02,203.59,127.34z M160.1,134.37c-0.16,0.02-0.3,0.02-0.46,0.02
				c-2.78,0-5.03-0.89-5.03-2.01c0-1.11,2.26-2.01,5.03-2.01c2.78,0,5.03,0.91,5.03,2.01C164.67,133.44,162.66,134.29,160.1,134.37z
				 M193.93,134.23h-0.02c-1.79-0.3-3.06-1.01-3.06-1.85c0-1.11,2.26-2.01,5.03-2.01c2.78,0,5.03,0.91,5.03,2.01
				c0,1.13-2.26,2.01-5.03,2.01C195.18,134.39,194.53,134.33,193.93,134.23z"/>
			<path class="st9" d="M164.67,132.37c0,1.07-2.01,1.91-4.57,1.99c-0.16,0.02-0.3,0.02-0.46,0.02c-2.78,0-5.03-0.89-5.03-2.01
				c0-1.11,2.26-2.01,5.03-2.01C162.41,130.36,164.67,131.27,164.67,132.37z"/>
			<path class="st9" d="M170.47,115.82c0,0-1.45,1.45-3.71,2.58c0,0-0.02,0.04-0.04,0.04c-1.17,1.09-3.06,1.85-6.08,1.85
				c-2.54,0-4.79-1.17-6.26-3c0.26-0.4,0.56-0.81,0.87-1.19c0.64-0.87,1.39-1.67,2.17-2.42c2.09-1.99,4.61-3.64,7.45-4.87
				c0.81-0.38,1.63-0.7,2.5-0.99c0.08-0.02,0.14-0.04,0.22-0.06l0.56,1.59c0.08,0.18,0.14,0.36,0.2,0.56L170.47,115.82z"/>
			<path class="st9" d="M199.59,116.12c-0.38,0.87-0.89,1.53-1.55,1.97c-6.83,4.55-13.65-2.28-13.65-2.28l0.75-2.11
				c-0.32-1.13-0.32-2.11-0.32-2.48c0-1.43,0.42-2.76,1.17-3.87c0.44,0.12,0.87,0.24,1.29,0.4c0.95,0.3,1.85,0.64,2.72,1.03
				c2.84,1.25,5.36,2.92,7.43,4.93c0.24,0.22,0.48,0.46,0.72,0.7C198.66,114.98,199.14,115.54,199.59,116.12z"/>
			<path class="st9" d="M200.91,132.37c0,1.13-2.26,2.01-5.03,2.01c-0.7,0-1.35-0.06-1.95-0.16h-0.02c-1.79-0.3-3.06-1.01-3.06-1.85
				c0-1.11,2.26-2.01,5.03-2.01C198.66,130.36,200.91,131.27,200.91,132.37z"/>
			<g>
				<g>
					<g>
						<path class="st11" d="M163.25,122.94c1.13,1.69,3.27,2.66,5.26,2.03c1.06-0.34,1.96-1,2.74-1.77c0.47-0.46,0.5-1.31,0-1.77
							c-0.5-0.46-1.27-0.49-1.77,0c-0.21,0.21-0.43,0.41-0.67,0.6c0.23-0.19-0.1,0.07-0.15,0.1c-0.08,0.05-0.16,0.1-0.23,0.15
							c-0.1,0.06-0.2,0.12-0.31,0.17c-0.05,0.02-0.1,0.05-0.15,0.07c-0.12,0.06-0.1,0.04,0.08-0.03c-0.07-0.03-0.41,0.13-0.5,0.15
							c-0.12,0.03-0.41,0.03-0.01,0.01c-0.09,0-0.17,0.02-0.26,0.02c-0.15,0.01-0.29-0.01-0.43-0.02c0.4,0,0.17,0.02,0.04,0
							c-0.07-0.02-0.15-0.03-0.22-0.06c-0.07-0.02-0.14-0.05-0.21-0.07c-0.27-0.09,0.15,0.08,0.07,0.03
							c-0.23-0.12-0.44-0.24-0.65-0.38c-0.2-0.14,0.24,0.2,0.09,0.07c-0.04-0.04-0.09-0.07-0.13-0.11
							c-0.07-0.07-0.15-0.13-0.22-0.21c-0.11-0.11-0.2-0.22-0.3-0.34c-0.11-0.13,0.25,0.33,0.11,0.14
							c-0.01-0.01-0.02-0.03-0.03-0.04c-0.36-0.54-1.12-0.83-1.71-0.45C163.16,121.58,162.86,122.36,163.25,122.94L163.25,122.94z"
							/>
					</g>
				</g>
				<g>
					<g>
						<path class="st11" d="M183.39,122.94c1.13,1.69,3.27,2.66,5.26,2.03c1.06-0.34,1.96-1,2.74-1.77c0.47-0.46,0.5-1.31,0-1.77
							c-0.5-0.46-1.27-0.49-1.77,0c-0.21,0.21-0.43,0.41-0.67,0.6c0.23-0.19-0.1,0.07-0.15,0.1c-0.08,0.05-0.16,0.1-0.23,0.15
							c-0.1,0.06-0.2,0.12-0.31,0.17c-0.05,0.02-0.1,0.05-0.15,0.07c-0.12,0.06-0.1,0.04,0.08-0.03c-0.07-0.03-0.41,0.13-0.5,0.15
							c-0.12,0.03-0.41,0.03-0.01,0.01c-0.09,0-0.17,0.02-0.26,0.02c-0.15,0.01-0.29-0.01-0.43-0.02c0.4,0,0.17,0.02,0.04,0
							c-0.07-0.02-0.15-0.03-0.22-0.06c-0.07-0.02-0.14-0.05-0.21-0.07c-0.27-0.09,0.15,0.08,0.07,0.03
							c-0.23-0.12-0.44-0.24-0.65-0.38c-0.2-0.14,0.24,0.2,0.09,0.07c-0.04-0.04-0.09-0.07-0.13-0.11
							c-0.07-0.07-0.15-0.13-0.22-0.21c-0.11-0.11-0.2-0.22-0.3-0.34c-0.11-0.13,0.25,0.33,0.11,0.14
							c-0.01-0.01-0.02-0.03-0.03-0.04c-0.36-0.54-1.12-0.83-1.71-0.45C183.3,121.58,183,122.36,183.39,122.94L183.39,122.94z"/>
					</g>
				</g>
				<g>
					<g>
						<path class="st11" d="M181.45,133.14c-0.14,0-0.29,0-0.43-0.01c-0.09,0-0.17-0.01-0.26-0.02c-0.14-0.01-0.43-0.1-0.01,0.01
							c-0.2-0.05-0.41-0.07-0.62-0.13c-0.11-0.03-0.21-0.08-0.32-0.11c-0.14-0.04,0.27,0.14,0.1,0.04
							c-0.06-0.03-0.12-0.06-0.17-0.09c-0.1-0.05-0.18-0.12-0.28-0.17c-0.2-0.12,0.19,0.19,0.04,0.03c-0.05-0.05-0.1-0.09-0.15-0.14
							c-0.04-0.04-0.24-0.21-0.24-0.27c0.11,0.15,0.14,0.18,0.08,0.1c-0.02-0.03-0.04-0.06-0.06-0.1c-0.04-0.07-0.08-0.13-0.12-0.2
							c-0.03-0.06-0.06-0.13-0.09-0.18c-0.07-0.12,0.08,0.24,0.01,0.02c-0.05-0.17-0.11-0.33-0.15-0.5
							c-0.02-0.08-0.03-0.17-0.05-0.25c-0.06-0.28,0.01,0.18-0.02-0.1c-0.02-0.24-0.03-0.48-0.04-0.72
							c-0.01-0.65-0.57-1.28-1.25-1.25c-0.68,0.03-1.24,0.55-1.25,1.25c0,0.22-0.01,0.44-0.03,0.67c0,0.06-0.01,0.11-0.02,0.17
							c0.02-0.13,0.02-0.16,0.01-0.07c-0.02,0.08-0.03,0.17-0.05,0.25c-0.04,0.17-0.09,0.34-0.14,0.5
							c-0.05,0.16-0.05,0.12,0.01-0.01c-0.04,0.07-0.07,0.15-0.11,0.22c-0.04,0.07-0.08,0.14-0.12,0.2
							c-0.01,0.02-0.03,0.04-0.04,0.06c-0.06,0.08-0.06,0.08,0.01,0c0.07-0.09,0.07-0.09,0.01-0.01c-0.02,0.02-0.03,0.04-0.05,0.06
							c-0.05,0.05-0.1,0.1-0.15,0.15c-0.04,0.04-0.09,0.08-0.13,0.12c-0.19,0.18,0.14-0.08,0.04-0.03c-0.1,0.06-0.2,0.13-0.31,0.19
							c-0.05,0.03-0.1,0.05-0.14,0.07c-0.2,0.11,0.05-0.05,0.1-0.04c-0.05-0.02-0.29,0.1-0.35,0.12c-0.2,0.06-0.42,0.07-0.62,0.13
							c0.04-0.01,0.35-0.04,0.15-0.02c-0.04,0-0.09,0.01-0.13,0.01c-0.09,0.01-0.18,0.01-0.26,0.02c-0.15,0.01-0.3,0.01-0.45,0.01
							c-0.65,0-1.28,0.57-1.25,1.25c0.03,0.68,0.55,1.25,1.25,1.25c1.06,0,2.15-0.15,3.08-0.71c1.61-0.96,2.18-2.78,2.2-4.57
							c-0.83,0-1.67,0-2.5,0c0.01,1.79,0.59,3.6,2.2,4.57c0.93,0.56,2.02,0.71,3.08,0.71c0.65,0,1.28-0.58,1.25-1.25
							C182.67,133.72,182.15,133.14,181.45,133.14L181.45,133.14z"/>
					</g>
				</g>
			</g>
			<path class="st12" d="M164.67,132.37c0,1.07-2.01,1.91-4.57,1.99c-0.16,0.02-0.3,0.02-0.46,0.02c-2.78,0-5.03-0.89-5.03-2.01
				c0-1.11,2.26-2.01,5.03-2.01C162.41,130.36,164.67,131.27,164.67,132.37z"/>
			<path class="st12" d="M200.91,132.37c0,1.13-2.26,2.01-5.03,2.01c-0.7,0-1.35-0.06-1.95-0.16h-0.02
				c-1.79-0.3-3.06-1.01-3.06-1.85c0-1.11,2.26-2.01,5.03-2.01C198.66,130.36,200.91,131.27,200.91,132.37z"/>
			<g>
				<g>
					<g>
						<path class="st11" d="M154.19,128.84c2.15,0.46,4.3,0.93,6.45,1.39c0.31,0.07,0.61,0.13,0.92,0.2
							c0.63,0.14,0.9-0.83,0.27-0.96c-2.15-0.46-4.3-0.93-6.45-1.39c-0.31-0.07-0.61-0.13-0.92-0.2
							C153.83,127.74,153.56,128.7,154.19,128.84L154.19,128.84z"/>
					</g>
				</g>
				<g>
					<g>
						<path class="st11" d="M155.34,132.5c1.04,0,2.07,0,3.11,0c0.15,0,0.29,0,0.44,0c0.27,0,0.5-0.23,0.5-0.5
							c0-0.27-0.23-0.5-0.5-0.5c-1.04,0-2.07,0-3.11,0c-0.15,0-0.29,0-0.44,0c-0.27,0-0.5,0.23-0.5,0.5
							C154.84,132.27,155.07,132.5,155.34,132.5L155.34,132.5z"/>
					</g>
				</g>
				<g>
					<g>
						<path class="st11" d="M157.16,136.63c1.27-0.73,2.54-1.46,3.81-2.19c0.18-0.1,0.36-0.21,0.54-0.31
							c0.56-0.32,0.05-1.19-0.5-0.86c-1.27,0.73-2.54,1.46-3.81,2.19c-0.18,0.1-0.36,0.21-0.54,0.31
							C156.1,136.09,156.6,136.96,157.16,136.63L157.16,136.63z"/>
					</g>
				</g>
			</g>
			<g>
				<g>
					<g>
						<path class="st11" d="M199.81,127.87c-2.15,0.46-4.3,0.93-6.45,1.39c-0.31,0.07-0.61,0.13-0.92,0.2
							c-0.63,0.14-0.36,1.1,0.27,0.96c2.15-0.46,4.3-0.93,6.45-1.39c0.31-0.07,0.61-0.13,0.92-0.2
							C200.71,128.7,200.44,127.74,199.81,127.87L199.81,127.87z"/>
					</g>
				</g>
				<g>
					<g>
						<path class="st11" d="M198.93,131.5c-1.04,0-2.07,0-3.11,0c-0.15,0-0.29,0-0.44,0c-0.27,0-0.5,0.23-0.5,0.5
							c0,0.27,0.23,0.5,0.5,0.5c1.04,0,2.07,0,3.11,0c0.15,0,0.29,0,0.44,0c0.27,0,0.5-0.23,0.5-0.5
							C199.43,131.73,199.2,131.5,198.93,131.5L198.93,131.5z"/>
					</g>
				</g>
				<g>
					<g>
						<path class="st11" d="M194.16,133.79c-0.26-0.15-0.53-0.31-0.79-0.46c-0.04-0.02-0.08-0.04-0.11-0.07
							c-0.11-0.07-0.26-0.09-0.39-0.05c-0.12,0.03-0.24,0.12-0.3,0.23c-0.06,0.12-0.09,0.26-0.05,0.39c0.04,0.12,0.11,0.23,0.23,0.3
							c0.26,0.15,0.53,0.31,0.79,0.46c0.04,0.02,0.08,0.04,0.11,0.07c0.11,0.07,0.26,0.09,0.39,0.05c0.12-0.03,0.24-0.12,0.3-0.23
							c0.06-0.12,0.09-0.26,0.05-0.39C194.35,133.97,194.27,133.86,194.16,133.79L194.16,133.79z"/>
					</g>
				</g>
				<g>
					<g>
						<path class="st11" d="M197.62,135.77c-1.01-0.58-2.01-1.15-3.02-1.73c-0.14-0.08-0.28-0.16-0.43-0.24
							c-0.23-0.13-0.55-0.05-0.68,0.18c-0.14,0.23-0.06,0.55,0.18,0.68c1.01,0.58,2.01,1.15,3.02,1.73
							c0.14,0.08,0.28,0.16,0.43,0.24c0.23,0.13,0.55,0.05,0.68-0.18C197.94,136.22,197.86,135.9,197.62,135.77L197.62,135.77z"/>
					</g>
				</g>
			</g>
			<path class="st13" d="M168.7,112.24c0,1.67,0,4.37-1.93,6.16c0,0-0.02,0.04-0.04,0.04c-1.17,1.09-3.06,1.85-6.08,1.85
				c-2.54,0-4.79-1.17-6.26-3c0.26-0.4,0.56-0.81,0.87-1.19c0.64-0.87,1.39-1.67,2.17-2.42c2.09-1.99,4.61-3.64,7.45-4.87
				c0.81-0.38,1.63-0.7,2.5-0.99c0.32,0.48,0.58,0.99,0.79,1.53c0.08,0.18,0.14,0.36,0.2,0.56
				C168.58,110.65,168.7,111.43,168.7,112.24z"/>
			<path class="st14" d="M198.14,114.43c-1.19,2.3-3.54,3.85-6.28,3.85c-4.55,0-6.16-2.52-6.73-4.57c-0.32-1.13-0.32-2.11-0.32-2.48
				c0-1.43,0.42-2.76,1.17-3.87c0.44,0.12,0.87,0.24,1.29,0.4c0.95,0.3,1.85,0.64,2.72,1.03c2.84,1.25,5.36,2.92,7.43,4.93
				C197.65,113.95,197.89,114.19,198.14,114.43z"/>
		</g>
		<path class="st15" d="M167.52,204.19c0-1.44,0.45-2.79,1.24-3.98c0.1-0.16,0.22-0.32,0.35-0.47c-1.04-2.34,0.26-8.11,1.02-11
			c0.14-0.54,0.91-0.56,1.1-0.04l2.77,7.74c1.2-0.4,2.51-0.62,3.89-0.62c1.19,0,2.33,0.16,3.39,0.47c0.18,0.05,0.35,0.09,0.51,0.16
			l2.77-7.74c0.18-0.52,0.94-0.51,1.08,0.04c0.77,2.9,2.08,8.67,1.03,11.01c1.01,1.29,1.59,2.81,1.59,4.44
			c0,1.89,1.02,7.29-10.23,7.32C166.48,211.54,167.52,206.16,167.52,204.19z"/>
	</g>
</g>
</svg>
